<?xml version="1.0" standalone="no"?>
<!DOCTYPE svg PUBLIC "-//W3C//DTD SVG 1.1//EN" "http://www.w3.org/Graphics/SVG/1.1/DTD/svg11.dtd" >
<svg xmlns="http://www.w3.org/2000/svg" xmlns:xlink="http://www.w3.org/1999/xlink" version="1.1">
<metadata>
Created by FontForge 20201107 at Mon Nov 16 14:49:32 2020
 By 
Copyright (c) 2020 by Elena Genova. All rights reserved.
</metadata>
<defs>
<font id="RocaOne-BlIt" horiz-adv-x="0" >
  <font-face 
    font-family="RocaOne-BlIt"
    font-weight="400"
    font-style="italic"
    font-stretch="normal"
    units-per-em="1000"
    panose-1="0 0 10 0 0 0 0 0 0 0"
    ascent="773"
    descent="-227"
    x-height="489"
    cap-height="700"
    bbox="-779 -543 1870 950"
    underline-thickness="50"
    underline-position="-100"
    slope="-8.05"
    unicode-range="U+0020-E0FA"
  />
<missing-glyph horiz-adv-x="450" 
d="M369 700v-900h-285v900h285zM150 -16h150v102h-150v-102zM150 -66h63l-63 -42v-30h150v30h-92l63 42h29v30h-150v-30zM150 140h150v102h-90v-50h30v20h30v-42h-90v72h-30v-102zM150 430h150v31h-60v63h-90v-94zM150 547h150v30h-60v33h60v30h-149v-30h59v-33h-60v-30z
M150 313h90v63h60v30h-150v-30h60v-33h-60v-30zM150 262h150v90h-30v-60h-120v-30zM270 57v-43h-90v43h90zM180 493h30v-32h-30v32z" />
    <glyph glyph-name="fl" unicode="fl" horiz-adv-x="683" 
d="M630 126q18 0 18 -22q-1 -38 -40 -76t-99 -38q-55 0 -80.5 30.5t-14.5 101.5l56 372q9 61 -9 96.5t-58 35.5q-99 0 -123 -158l87 19q27 6 33 -5.5t-7 -41.5q-8 -20 -20 -31t-19 -13t-23 -5l-63 -11l-62 -434q-3 -20 -30 -27l-114 -24q-22 -5 -29.5 6.5t6.5 33.5
q9 14 23 106l46 319l-46 -8q-17 -3 -24.5 4.5t-3.5 25.5q8 35 41 41l44 10l2 17q17 119 127.5 189.5t294.5 70.5q62 0 81.5 -10.5t16.5 -33.5l-73 -519q-8 -49 17 -49q10 0 24 14t21 14z" />
    <glyph glyph-name=".notdef" horiz-adv-x="450" 
d="M369 700v-900h-285v900h285zM150 -16h150v102h-150v-102zM150 -66h63l-63 -42v-30h150v30h-92l63 42h29v30h-150v-30zM150 140h150v102h-90v-50h30v20h30v-42h-90v72h-30v-102zM150 430h150v31h-60v63h-90v-94zM150 547h150v30h-60v33h60v30h-149v-30h59v-33h-60v-30z
M150 313h90v63h60v30h-150v-30h60v-33h-60v-30zM150 262h150v90h-30v-60h-120v-30zM270 57v-43h-90v43h90zM180 493h30v-32h-30v32z" />
    <glyph glyph-name=".null" 
 />
    <glyph glyph-name="uni000D" horiz-adv-x="333" 
 />
    <glyph glyph-name="space" unicode=" " horiz-adv-x="200" 
 />
    <glyph glyph-name="exclam" unicode="!" horiz-adv-x="273" 
d="M101 613q6 44 34.5 70.5t66.5 26.5t57 -23.5t19 -55.5q0 -8 -1 -18q-4 -32 -50.5 -149.5t-62.5 -191.5q-4 -19 -9 -25q-6 -7 -19 -7t-16.5 5.5t-3.5 15.5q0 5 1 11q1 20 1 44q0 62 -9 147t-9 126q0 15 1 24zM61 132q30 26 67 26q32 0 54 -20.5t22 -56.5q0 -42 -29 -68.5
t-68 -26.5q-33 0 -54.5 19.5t-21.5 56.5q0 43 30 70z" />
    <glyph glyph-name="quotedbl" unicode="&#x22;" horiz-adv-x="451" 
d="M307 649q15 62 75 62q32 0 48.5 -17.5t16.5 -47.5q0 -56 -66 -205q-17 -41 -41 -41t-29 43q-10 85 -10 140q0 42 6 66zM121 649q15 62 75 62q32 0 48.5 -17.5t16.5 -47.5q0 -56 -66 -205q-19 -41 -41 -41q-24 0 -29 43q-10 85 -10 140q0 42 6 66z" />
    <glyph glyph-name="numbersign" unicode="#" horiz-adv-x="719" 
d="M5 233l10 33q5 20 25 20h156l49 127h-148q-16 0 -16 15v5l11 33q3 20 24 20h157l77 197q6 17 24 17h32q17 0 17 -12q0 -4 -2 -10l-74 -192h136l77 197q6 17 24 17h32q17 0 17 -12q0 -4 -2 -10l-74 -192h150q16 0 16 -15v-5l-10 -33q-5 -20 -25 -20h-159l-50 -127h152
q16 0 16 -13q0 -3 -1 -7l-10 -33q-5 -20 -25 -20h-161l-75 -196q-6 -17 -24 -17h-32q-17 0 -17 12q0 4 2 10l73 191h-137l-75 -196q-6 -17 -24 -17h-32q-17 0 -17 12q0 4 2 10l73 191h-147q-16 0 -16 13q0 3 1 7zM269 286h137l49 127h-136z" />
    <glyph glyph-name="dollar" unicode="$" horiz-adv-x="556" 
d="M32 154q5 43 27 43q12 0 19.5 -8.5t18.5 -32.5q18 -38 58 -68t97 -30q39 0 62.5 19t28.5 47q1 5 1 11q0 13 -6.5 27.5t-28.5 31.5t-37 26.5t-50 29.5q-38 22 -53 30.5t-40 28t-33.5 35t-13.5 35t-5 36.5q0 10 2 22q9 65 63.5 114t131.5 63l5 37q2 16 9 22.5t25 6.5
t22.5 -5.5t4.5 -15.5q0 -3 -1 -8l-4 -31q24 -1 56 -7t39 -6q12 0 26 6.5t24 6.5q27 0 28 -46q2 -34 2 -62q0 -19 -1 -35q-3 -44 -25 -44t-43 41q-17 34 -49.5 57.5t-76.5 23.5q-33 0 -56.5 -17.5t-27.5 -45.5q-1 -7 -1 -13q0 -28 23.5 -52t94.5 -63q91 -51 117 -75
q39 -37 39 -89q0 -10 -1 -20q-8 -57 -47.5 -100.5t-94 -65t-115.5 -23.5l-6 -45q-2 -16 -9 -22.5t-25 -6.5t-22.5 5.5t-4.5 15.5q0 3 1 8l6 49q-16 2 -40.5 8t-32.5 6q-16 0 -31 -9.5t-23 -9.5q-27 0 -28 47q-1 34 -1 60q0 35 2 57z" />
    <glyph glyph-name="percent" unicode="%" horiz-adv-x="868" 
d="M74 515q12 86 72 140.5t137 54.5q74 0 112.5 -47t38.5 -105q0 -16 -3 -34q-12 -84 -70.5 -140t-136.5 -56q-75 0 -114 47t-39 106q0 16 3 34zM467 178q12 86 71.5 140.5t137.5 54.5q74 0 112 -46.5t38 -107.5q0 -15 -2 -32q-12 -83 -72 -139q-60 -57 -136 -57t-114 46.5
t-38 105.5q0 17 3 35zM160 54l522 625q11 13 23 13q9 0 18 -6l5 -4q11 -8 11 -18t-10 -22l-524 -625q-11 -14 -23 -14q-8 0 -17 7l-5 4q-10 9 -10 19t10 21zM592 95q15 -42 45 -42q24 0 42.5 28t26.5 83q3 25 3 46q0 36 -12.5 69.5t-41.5 33.5q-23 0 -42.5 -27.5
t-26.5 -80.5q-3 -26 -3 -48q0 -36 9 -62zM200 431q15 -42 44 -42q24 0 42.5 28t26.5 83q3 24 3 45q0 36 -12.5 70.5t-41.5 34.5q-23 0 -42 -27.5t-26 -80.5q-4 -27 -4 -49q0 -36 10 -62z" />
    <glyph glyph-name="ampersand" unicode="&#x26;" horiz-adv-x="886" 
d="M42 235q10 70 59.5 125t116.5 83q-55 38 -55 98q0 10 2 21q9 67 70 108.5t135 41.5q111 0 157 -64q7 -10 7 -19q0 -11 -9 -20.5t-20 -9.5q-9 0 -20 7q-41 27 -83 27q-40 0 -68 -22t-33 -57q-1 -9 -1 -17q0 -39 32 -64q16 2 29 2q21 0 39 -6t18 -27v-6q-4 -31 -31 -35.5
t-39 -4.5q-28 0 -53 11q-65 -54 -78 -144q-2 -17 -2 -34q0 -63 42 -113.5t137 -50.5q81 0 127 38t53 96q1 10 1 18q0 27 -16 47t-49 20q-35 0 -59.5 -22t-29.5 -54q-1 -11 -13 -11q-3 0 -6 1q-24 3 -30 29q-2 7 -2 15q0 5 1 11q9 60 96 112q18 11 42 23t57 28t52 25
q143 74 152 132q1 4 1 7q0 29 -37 29q-16 0 -34 -7q-10 -4 -16 -4q-13 0 -13 15v1q1 16 15 33q39 47 115 48h3q43 0 74 -24t31 -63q0 -8 -1 -17q-11 -77 -88.5 -133t-192.5 -88q37 -14 57 -45.5t20 -67.5q0 -12 -2 -24q-16 -112 -119.5 -177.5t-238.5 -65.5
q-143 0 -223.5 61t-80.5 152q0 15 2 32z" />
    <glyph glyph-name="quotesingle" unicode="'" horiz-adv-x="258" 
d="M121 649q15 62 75 62q32 0 48.5 -17.5t16.5 -47.5q0 -56 -66 -205q-19 -41 -41 -41q-24 0 -29 43q-10 85 -10 140q0 42 6 66z" />
    <glyph glyph-name="parenleft" unicode="(" horiz-adv-x="392" 
d="M56 334q22 151 115 263.5t210 169.5q23 10 38 10q16 0 22 -13q2 -3 2 -7q0 -18 -35 -45q-153 -118 -191 -381q-9 -66 -9 -122q0 -178 92 -269q22 -20 22 -37q0 -8 -5 -15q-11 -13 -26 -13q-10 0 -22 5q-49 24 -90.5 64t-74.5 95.5t-43.5 114t-10.5 101.5q0 39 6 79z" />
    <glyph glyph-name="parenright" unicode=")" horiz-adv-x="394" 
d="M9 -60q155 121 193 391q8 60 8 113q0 176 -92 268q-23 23 -23 39q0 7 5 13q10 13 26 13q14 0 34 -10q101 -57 154.5 -155t53.5 -204q0 -36 -5 -74q-23 -165 -121 -283t-218 -171q-14 -5 -24 -5q-16 0 -23 13q-2 4 -2 8q0 19 34 44z" />
    <glyph glyph-name="asterisk" unicode="*" horiz-adv-x="493" 
d="M78 558q12 23 30.5 30.5t30.5 7.5q11 0 21 -4q19 -6 44.5 -34t32.5 -34q6 -6 13 -6q4 0 10.5 4.5t6.5 15.5v5q-2 14 -12 45t-10 49q0 5 1 10q4 25 23 43t44 18t37.5 -16t12.5 -34q0 -5 -1 -11q-2 -16 -10 -32.5t-20.5 -36.5t-19.5 -35q-2 -6 -2 -11q0 -7 4 -10.5t8 -3.5
q6 0 14 6q10 7 42.5 34.5t54.5 33.5q12 4 23 4q12 0 28.5 -7t20.5 -31q1 -6 1 -12q0 -17 -12 -35.5t-37 -27.5q-6 -6 -29 -6q-10 0 -34.5 2t-40.5 2h-8q-16 -1 -18.5 -8t-2.5 -10q0 -7 8 -14q9 -6 42 -23.5t44 -34.5q10 -14 10 -31q0 -6 -3 -21.5t-25 -32.5q-18 -13 -37 -13
q-4 0 -17.5 2t-26.5 21q-13 17 -19.5 57t-10.5 54q-4 12 -14.5 12t-18.5 -13q-11 -17 -27 -55t-32 -55q-19 -19 -33 -21t-18 -2q-19 0 -34 13q-15 16 -15 36q0 2 1.5 15.5t19.5 33.5q16 17 54 34t49 24q13 8 13 18q0 1 -1 7t-16 7h-8q-16 0 -41.5 -2t-35.5 -2q-24 0 -27 6
q-22 9 -28 24t-6 24q0 13 7 27z" />
    <glyph glyph-name="plus" unicode="+" horiz-adv-x="427" 
d="M38 358l2 18q3 18 10 24t25 6h123l17 123q2 18 9 24t25 6h18q18 0 22.5 -5t4.5 -16q0 -4 -1 -9l-17 -123h123q18 0 22 -5t4 -13q0 -5 -1 -12l-2 -18q-2 -18 -9 -24t-25 -6h-124l-17 -123q-2 -18 -9 -24t-25 -6h-18q-18 0 -22.5 5t-4.5 16q0 4 1 9l17 123h-123
q-18 0 -22 5t-4 13q0 5 1 12z" />
    <glyph glyph-name="comma" unicode="," horiz-adv-x="288" 
d="M29 -136q0 10 25.5 36t25.5 50q0 18 -24.5 50t-24.5 65q0 43 29.5 69t67.5 26t62.5 -26t24.5 -73q0 -79 -58 -146.5t-107 -67.5q-21 0 -21 17z" />
    <glyph glyph-name="hyphen" unicode="-" horiz-adv-x="359" 
d="M59 281l8 20q11 28 41 28h182q18 0 22.5 -5t4.5 -10q0 -6 -3 -14l-8 -19q-11 -28 -41 -28h-182q-18 0 -22.5 4.5t-4.5 10.5q0 5 3 13z" />
    <glyph glyph-name="period" unicode="." horiz-adv-x="273" 
d="M61 134q30 26 67 26q32 0 54 -20.5t22 -56.5q0 -42 -29 -68.5t-68 -26.5q-33 0 -54.5 19.5t-21.5 56.5q0 43 30 70z" />
    <glyph glyph-name="slash" unicode="/" horiz-adv-x="411" 
d="M6 -58l347 767q8 18 18 24.5t29 6.5h8q23 0 25.5 -5.5t2.5 -8.5q0 -9 -9 -28l-347 -767q-8 -18 -18 -24.5t-29 -6.5h-2q-27 0 -30 5.5t-3 9.5q0 9 8 27z" />
    <glyph glyph-name="zero" unicode="0" horiz-adv-x="638" 
d="M56 361q21 150 112.5 249.5t214.5 99.5q127 0 182 -92.5t55 -197.5q0 -37 -6 -77q-22 -151 -110.5 -252t-211.5 -101q-85 0 -144.5 51t-78.5 118.5t-19 125.5q0 37 6 76zM243 134q22 -67 66 -69h5q40 0 68 46t45 131q17 83 18 129.5t1 52.5q0 79 -20.5 144t-65.5 67h-5
q-41 0 -69 -45.5t-46 -131.5q-17 -82 -17.5 -127.5t-0.5 -49.5q0 -83 21 -147z" />
    <glyph glyph-name="one" unicode="1" horiz-adv-x="392" 
d="M49 51q9 10 21 16.5t23 20t14 32.5l55 382q2 16 2 28q0 16 -5.5 27.5t-37.5 23.5q-25 10 -25 27v4q1 11 9 16.5t32 15.5q51 22 116 44t78 22q21 0 21 -27v-7l-79 -556q-1 -5 -1 -11q0 -12 6.5 -25t16.5 -20t19 -17.5t9 -21.5q0 -24 -47 -24h-188q-49 0 -49 25q0 14 10 25
z" />
    <glyph glyph-name="two" unicode="2" horiz-adv-x="594" 
d="M30 74q182 162 260 256.5t88 171.5q1 9 1 16q0 31 -21 54t-65 23q-79 0 -157 -72q-11 -10 -19 -10q-5 0 -10 4.5t-5 13.5t6 21q27 56 98.5 107t162.5 51q89 0 138.5 -44.5t49.5 -106.5q0 -13 -2 -28q-10 -73 -87 -165t-214 -181q25 -4 78.5 -20t85.5 -16q28 0 48.5 10
t29.5 22t18 22t17 10q17 0 17 -33q-3 -81 -48 -132.5t-114 -51.5q-54 0 -124.5 28.5t-107.5 28.5q-26 0 -47 -15t-38.5 -30t-33.5 -15q-15 0 -23.5 8.5t-8.5 21.5q0 29 27 51z" />
    <glyph glyph-name="three" unicode="3" horiz-adv-x="586" 
d="M34 166q6 4 13 4q9 0 18 -9q68 -68 161 -68q53 0 93.5 30t47.5 84q1 10 1 19q0 41 -31.5 71t-118.5 44q-20 4 -20 21q0 1 1 11.5t16 22.5q105 79 156 129q-2 0 -51.5 12t-84.5 12q-46 0 -76 -26l-14 -14q-9 -9 -13 -12.5t-9.5 -6.5t-11.5 -3q-17 0 -17 26q0 16 6 42
q17 74 47 111.5t87 37.5q42 0 125.5 -24t124.5 -24q13 0 38 17.5t39 17.5q22 0 24 -10t2 -14q0 -13 -10 -23q-98 -111 -229 -225q62 -9 107.5 -32t69 -64.5t23.5 -86.5q0 -17 -3 -35q-13 -92 -88.5 -156t-195.5 -64q-101 0 -165 48t-75 103q-1 4 -1 8q0 17 14 26z" />
    <glyph glyph-name="four" unicode="4" horiz-adv-x="607" 
d="M15 170q4 33 38.5 84t61.5 82t94 104q107 119 175 183q34 34 44 43t30.5 25t36 19.5t36.5 3.5t29.5 -8t8.5 -22v-7l-62 -440q17 0 36 5t24 5q13 0 13.5 -10t0.5 -11q0 -19 -11 -58q-9 -39 -25.5 -52t-37.5 -13h-19l-9 -62q-5 -30 -34 -45q-49 -26 -103 -26q-20 0 -27.5 7
t-7.5 20v6l15 110h-267q-27 0 -34.5 10t-7.5 26q0 9 2 21zM144 242q4 -5 17 -5l180 3l40 286q-106 -108 -222 -243q-12 -14 -15 -22t-3 -12t3 -7z" />
    <glyph glyph-name="five" unicode="5" horiz-adv-x="591" 
d="M24 174q7 5 14 5q9 0 18 -9q68 -70 174 -70q56 0 94.5 29t45.5 81q2 12 2 22q0 57 -54 92.5t-169 51.5q-24 4 -27 10t-3 11q0 9 7 25l104 247q9 19 18 25t24 6h5q32 -2 70 -2q39 0 85 2q57 3 93 15.5t46 12.5q15 0 15 -20q0 -7 -2 -17q-4 -21 -23 -66q-14 -30 -31.5 -41
t-62.5 -13q-46 -2 -89 -2q-60 0 -114 4l-39 -85q180 -23 253.5 -87.5t73.5 -148.5q0 -15 -2 -32q-14 -98 -87.5 -164t-201.5 -66q-107 0 -172.5 47.5t-77.5 102.5q-1 4 -1 8q0 17 14 26z" />
    <glyph glyph-name="six" unicode="6" horiz-adv-x="592" 
d="M50 317q13 101 63 191t129 146t167 56h5q51 0 89.5 -20t51.5 -46q4 -9 4 -17q0 -11 -7.5 -20t-17.5 -9q-5 0 -11 3q-53 25 -106 25q-33 0 -65.5 -15.5t-64 -60.5t-42.5 -114q58 56 150 56q87 0 129 -60.5t42 -131.5q0 -21 -3 -44q-17 -117 -93.5 -192t-191.5 -75
q-120 0 -176 76.5t-56 183.5q0 32 4 68zM230 109q22 -43 69 -44q50 0 78 56.5t30 131.5v14q0 50 -20 90.5t-65 40.5h-2q-49 0 -79 -57.5t-32 -128.5v-10q0 -54 21 -93z" />
    <glyph glyph-name="seven" unicode="7" horiz-adv-x="533" 
d="M75 522q0 30 5.5 59t18.5 60t40 49.5t66 18.5q49 0 135 -20.5t128 -20.5q24 0 48 19.5t36 19.5q24 0 28 -9t4 -14q0 -13 -11 -32q-16 -25 -65.5 -98t-72 -108t-62.5 -102t-60.5 -112t-40.5 -102.5t-27 -107.5q-2 -18 -8 -26t-21 -8q-70 3 -110 28q-21 13 -21 39v7
q6 44 27.5 91t64.5 104t69.5 89t88 99.5t75.5 83.5q-10 -1 -22 -1q-38 0 -100 14t-82 14q-29 0 -51 -17t-35.5 -33.5t-24.5 -16.5q-20 0 -20 33z" />
    <glyph glyph-name="eight" unicode="8" horiz-adv-x="602" 
d="M29 188q16 109 145 176q-75 65 -75 137q0 10 1 20q13 91 95.5 138.5t185.5 47.5q37 0 72.5 -8.5t67.5 -26t47 -45.5t15 -57q0 -11 -2 -22q-14 -98 -131 -159q59 -41 84.5 -81t25.5 -85q0 -13 -2 -28q-15 -105 -100 -156t-197 -51q-35 0 -69 6t-66.5 21t-56 37.5t-33 51.5
t-9.5 55q0 14 2 29zM198 102q31 -41 89 -41q48 0 74.5 29.5t31.5 64.5q1 5 1 11q0 32 -29.5 61.5t-98.5 72.5q-26 16 -38 25q-44 -52 -52 -116q-2 -16 -2 -30q0 -46 24 -77zM274 525q7 -17 28 -35t36.5 -29t48.5 -32l6 -3q38 44 47 105q1 11 1 20q0 34 -18.5 59t-62.5 25
q-35 0 -60.5 -20t-30.5 -54q-1 -5 -1 -10q0 -14 6 -26z" />
    <glyph glyph-name="nine" unicode="9" horiz-adv-x="596" 
d="M64 442q16 113 103 190.5t193 77.5q118 0 169.5 -75.5t51.5 -180.5q0 -34 -5 -72q-20 -157 -121.5 -275t-234.5 -118h-5q-53 0 -92 20t-52 47q-4 9 -4 16q0 11 8 20t17 9q6 0 12 -3q51 -25 105 -25t105 45.5t68 144.5q-59 -55 -150 -55q-88 0 -129.5 60t-41.5 130
q0 21 3 44zM237 369q24 -68 78 -68q81 0 98 124q3 24 3 46q0 53 -22 108t-76 55q-43 0 -65.5 -33.5t-28.5 -81.5q-4 -27 -4 -52q0 -52 17 -98z" />
    <glyph glyph-name="colon" unicode=":" horiz-adv-x="273" 
d="M75 374q0 43 30 69.5t67 26.5q32 0 54 -20.5t22 -56.5q0 -42 -29 -68.5t-68 -26.5q-33 0 -54.5 19.5t-21.5 56.5zM31 64q0 43 30 69.5t67 26.5q32 0 54 -20.5t22 -56.5q0 -42 -29 -68.5t-68 -26.5q-33 0 -54.5 19.5t-21.5 56.5z" />
    <glyph glyph-name="semicolon" unicode=";" horiz-adv-x="288" 
d="M31 -136q0 10 25 36t25 50q0 18 -24.5 50t-24.5 65q0 43 30 69t67 26q38 0 62.5 -26t24.5 -73q0 -79 -58 -146.5t-107 -67.5q-20 0 -20 17zM104 444q30 26 68 26q32 0 53.5 -20.5t21.5 -56.5q0 -42 -29 -68.5t-68 -26.5q-33 0 -54.5 19.5t-21.5 56.5q0 43 30 70z" />
    <glyph glyph-name="equal" unicode="=" horiz-adv-x="527" 
d="M37 270l3 19q3 18 9.5 24t24.5 6h407q18 0 22.5 -5t4.5 -14q0 -5 -1 -11l-3 -19q-2 -18 -9 -24t-25 -6h-407q-18 0 -22.5 5t-4.5 16q0 4 1 9zM60 432l3 18q2 18 9 24t25 6h407q18 0 22.5 -5t4.5 -16q0 -4 -1 -9l-3 -18q-3 -18 -9.5 -24t-24.5 -6h-407q-18 0 -22.5 5
t-4.5 14q0 5 1 11z" />
    <glyph glyph-name="question" unicode="?" horiz-adv-x="479" 
d="M65 562q9 62 71.5 105t166.5 43q100 0 147.5 -37t47.5 -88q0 -9 -1 -18q-5 -35 -30 -69t-53 -56t-63 -50t-51 -45q-9 -11 -24.5 -38t-18.5 -40q-5 -25 -17.5 -30.5t-18.5 -5.5q-10 0 -21 10t-11 30q0 5 1 11q6 45 28 88t45 71t43.5 65t25.5 71q1 7 1 13q0 15 -8 30.5
t-33 15.5q-12 0 -22.5 -4.5t-19.5 -15.5t-14.5 -19.5t-15.5 -26t-15 -25.5q-1 -2 -5 -7.5t-5.5 -8t-5.5 -7.5l-6 -7q-2 -3 -6.5 -7.5t-8 -6.5t-8 -4.5t-9.5 -4t-11 -2.5t-12 -1q-38 0 -51 19t-13 40q0 6 1 12zM125 62q0 43 30 69.5t68 26.5q32 0 53.5 -20.5t21.5 -56.5
q0 -42 -29 -68.5t-68 -26.5q-33 0 -54.5 19.5t-21.5 56.5z" />
    <glyph glyph-name="at" unicode="@" horiz-adv-x="839" 
d="M52 297q23 163 152.5 276t300.5 113q154 0 232.5 -81.5t78.5 -185.5q0 -23 -3 -47q-15 -101 -75.5 -175t-150.5 -74q-80 0 -105 72q-51 -73 -127 -73q-54 0 -89 38t-35 98q0 94 66.5 163.5t147.5 69.5q26 0 52 -8t31 -8q9 0 33.5 9t34.5 9q13 0 19 -8.5t6 -17.5v-5
l-32 -220q-1 -7 -1 -13q0 -11 5.5 -23t26.5 -12h2q41 0 75.5 52t44.5 123q3 20 3 39q0 83 -63 147.5t-185 64.5q-140 0 -245 -89t-124 -229q-4 -27 -4 -51q0 -100 69.5 -174.5t211.5 -74.5q75 0 146 19q8 2 14 2q10 0 15.5 -5.5t5.5 -13.5q0 -5 -4 -15t-21 -17
q-76 -32 -170 -32q-176 0 -259.5 89.5t-83.5 208.5q0 28 4 59zM403 199q32 0 55 42t31 109l7 64v1q0 8 -17 16.5t-34 8.5q-44 0 -68 -49t-26 -111v-6q0 -75 52 -75z" />
    <glyph glyph-name="A" unicode="A" horiz-adv-x="731" 
d="M-22 29q2 16 18.5 26.5t41.5 28.5t41 48l235 432q12 28 12 41q0 5 -3.5 12t-15 21t-11.5 28v4q4 30 38 30h124q30 0 39 -29l137 -533q9 -35 25.5 -53t25 -26t8.5 -21v-6q-3 -18 -16 -25t-44 -7h-183q-28 0 -38 6.5t-10 18.5q0 3 1 7q2 13 13.5 23t22 16t15.5 18.5t5 22.5
q0 12 -4 26l-6 23q-5 22 -16 26q-14 6 -112 6q-89 0 -106 -3.5t-28 -23.5l-19 -34q-15 -33 -15 -46q0 -3 2.5 -10t13 -19t10.5 -24v-4q-4 -29 -53 -29h-94q-29 0 -41.5 6t-12.5 19v4zM252 271q7 -5 80 -5q68 0 77 3t9 13q0 5 -2 11l-51 204l-107 -198q-8 -15 -8 -22
q0 -4 2 -6z" />
    <glyph glyph-name="B" unicode="B" horiz-adv-x="706" 
d="M15 32q2 19 18 31t35 28t27 45q5 17 9 50l47 328q4 32 4 50q0 23 -9 38.5t-19.5 22t-17 16t-6.5 21.5v6q3 18 17.5 25t46.5 7h225q79 0 133 -13t82.5 -44.5t28.5 -73.5q0 -10 -1 -20q-11 -92 -107 -129q76 -18 108 -63t32 -98q0 -13 -2 -27q-15 -101 -104.5 -166.5
t-232.5 -65.5h-260q-33 0 -44 6.5t-11 18.5q0 3 1 7zM272 88q14 -16 64 -16q127 0 146 128q2 15 2 28q0 54 -35.5 98.5t-117.5 44.5q-20 0 -28 -6t-10 -23l-29 -200q-2 -12 -2 -21q0 -22 10 -33zM312 456q3 -5 13.5 -7t14.5 -2h16q104 0 114 79q1 8 1 16q0 32 -25.5 59
t-79.5 27q-34 0 -37 -28l-19 -130v-4q0 -6 2 -10z" />
    <glyph glyph-name="C" unicode="C" horiz-adv-x="708" 
d="M53 358q22 152 144 252t281 100q37 0 78.5 -9t47.5 -9q14 0 29 8.5t26 8.5q32 0 36 -52q5 -65 5 -144q-1 -25 -8 -37.5t-25 -12.5q-16 0 -25.5 10t-25.5 38q-17 31 -29 48.5t-32 38t-44.5 30t-56.5 9.5q-87 0 -147.5 -63.5t-74.5 -163.5q-5 -34 -5 -65q0 -91 45.5 -172.5
t155.5 -81.5q94 0 196 93q13 12 23 12q7 0 13.5 -7t6.5 -16q0 -11 -9 -24q-41 -70 -123.5 -114.5t-175.5 -44.5q-153 0 -231.5 93t-78.5 213q0 30 4 62z" />
    <glyph glyph-name="D" unicode="D" horiz-adv-x="777" 
d="M15 32q2 19 18 31t35 28t27 45q5 17 9 50l47 328q4 32 4 50q0 23 -9 38.5t-19.5 22t-17 16t-6.5 21.5v6q3 18 17.5 25t46.5 7h255q99 0 172 -28.5t111.5 -76.5t50.5 -96t12 -87q0 -24 -3 -49q-22 -156 -136.5 -259.5t-281.5 -103.5h-278q-33 0 -44 6.5t-11 18.5q0 3 1 7z
M274 82q15 -15 71 -15q102 0 163 61.5t76 172.5q5 37 5 71q0 96 -49 179.5t-154 83.5q-30 0 -42.5 -8.5t-16.5 -35.5l-64 -462q-1 -8 -1 -14q0 -22 12 -33z" />
    <glyph glyph-name="E" unicode="E" horiz-adv-x="651" 
d="M14 32q2 16 10.5 25.5t19.5 15.5t22.5 16t22 34.5t15.5 62.5l47 328q3 25 3 42q0 12 -2.5 27t-11 27.5t-18 17t-14.5 13t-5 19.5q0 4 1 8q2 18 16.5 25t46.5 7h395q45 0 61.5 -7t20.5 -30q10 -46 13 -102v-6q0 -42 -25 -49q-6 -2 -11 -2q-19 0 -36 29q-25 49 -56 72
t-78 23h-42q-45 0 -62 -10.5t-21 -35.5l-13 -94q-1 -6 -1 -12q0 -18 12 -27.5t47 -9.5q41 0 70.5 17.5t43.5 17.5q15 0 20.5 -7.5t7.5 -21.5l7 -128q1 -8 1 -15q0 -13 -5 -21.5t-22 -12.5q-4 -1 -8 -1q-13 0 -25.5 13t-21 33t-29 37.5t-49.5 17.5q-36 0 -52 -10t-20 -39
l-28 -201q-1 -5 -1 -10q0 -17 14 -26.5t65 -9.5l61 1q42 0 69 25.5t67 89.5q24 39 48 39q3 0 6 -1q16 -4 18 -12.5t2 -14.5q0 -11 -3 -25q-16 -85 -34 -129q-11 -25 -30 -35t-62 -10h-413q-32 0 -43 6.5t-11 20.5v5z" />
    <glyph glyph-name="F" unicode="F" horiz-adv-x="651" 
d="M14 32q2 15 10 24t19.5 16t23 17t22 32.5t15.5 56.5l47 336q3 25 3 42q0 12 -2.5 27t-11 27.5t-18 17t-14.5 13t-5 19.5q0 4 1 8q2 18 16.5 25t46.5 7h397q45 0 61.5 -7t21.5 -30q9 -41 12 -102v-7q0 -41 -24 -48q-5 -2 -11 -2q-20 0 -37 29q-25 49 -55.5 72t-76.5 23
h-46q-44 0 -61.5 -10t-20.5 -32l-16 -107q-1 -7 -1 -12q0 -19 12 -28t45 -9h15q42 0 71 17.5t43 17.5q26 0 28 -29l8 -128q0 -6 1 -12q-1 -15 -6 -24t-22 -13q-4 -1 -8 -1q-13 0 -25 13t-20.5 33.5t-29 37.5t-50.5 17h-14q-34 0 -50 -10t-20 -39l-19 -132q-3 -19 -3 -35
q0 -18 5.5 -37.5t17 -26.5t19 -17.5t7.5 -23.5v-6q-2 -18 -16 -25t-48 -7h-183q-32 0 -43 6.5t-11 20.5v5z" />
    <glyph glyph-name="G" unicode="G" horiz-adv-x="766" 
d="M50 337q22 155 140 264t269 109q47 0 92 -9t48 -9q13 0 29 8.5t26 8.5q34 0 36 -52q3 -37 3 -73t-3 -71q-2 -25 -8.5 -37t-22.5 -12h-3q-13 0 -21.5 10t-21.5 38q-28 58 -67 91.5t-105 34.5q-86 0 -142 -64t-70 -165q-7 -48 -7 -91q0 -89 39 -167.5t143 -78.5
q36 0 70.5 17t39.5 48l12 84q1 9 1 18q0 15 -6 29t-20 21.5t-28 12.5t-22.5 12.5t-8.5 17.5v5q3 18 16.5 25.5t46.5 7.5l197 2q27 0 36.5 -6.5t9.5 -20.5v-5q-2 -13 -9.5 -23t-16 -17t-17.5 -27t-13 -51l-11 -77q-7 -58 -102.5 -106.5t-223.5 -48.5q-157 0 -233.5 85.5
t-76.5 199.5q0 30 5 62z" />
    <glyph glyph-name="H" unicode="H" horiz-adv-x="852" 
d="M14 32q2 19 18 31t35 28t27 45q7 23 9 40l48 348q3 21 3 40q0 21 -5.5 34.5t-13.5 20t-15.5 12t-11.5 13t-4 16.5q0 4 1 8q2 18 15.5 25t47.5 7h183q33 0 44 -6.5t11 -18.5q0 -3 -1 -7q-2 -16 -12.5 -26.5t-22.5 -17t-25 -22t-20 -38.5q-7 -24 -8 -40l-10 -67
q-1 -10 -1 -18q0 -15 5 -20q13 -11 106 -11h32q117 0 135 8q15 6 19 33q0 3 1 8l9 67q3 21 3 40q0 25 -8.5 40.5t-18.5 20.5t-16 14.5t-6 21.5v7q3 18 16.5 25t46.5 7h184q32 0 43 -6.5t11 -20.5v-5q-2 -16 -12.5 -26.5t-22.5 -17t-25.5 -22t-19.5 -38.5q-7 -23 -9 -40
l-48 -348q-3 -21 -3 -40q0 -25 8.5 -40.5t18.5 -20.5t16 -14.5t6 -21.5v-7q-3 -18 -16.5 -25t-46.5 -7h-184q-32 0 -43 6.5t-11 20.5v5q2 16 12.5 27t22.5 17t25.5 21.5t19.5 38.5q7 23 9 40l15 110q1 10 1 18q0 15 -5 20q-13 11 -106 11h-32q-117 0 -135 -8q-14 -6 -18 -33
l-17 -118q-3 -21 -3 -40q0 -21 5.5 -34.5t13.5 -20t16 -12t12 -13t4 -16.5q0 -4 -1 -8q-3 -18 -16.5 -25t-47.5 -7h-183q-33 0 -44 6.5t-11 18.5q0 3 1 7z" />
    <glyph glyph-name="I" unicode="I" horiz-adv-x="389" 
d="M14 32q2 19 18 31t35 28t27 45q7 23 9 40l48 348q3 21 3 40q0 21 -5.5 34.5t-13.5 20t-15.5 12t-11.5 13t-4 16.5q0 4 1 8q2 18 15.5 25t47.5 7h183q33 0 44 -6.5t11 -18.5q0 -3 -1 -7q-2 -16 -12.5 -26.5t-22.5 -17t-25 -22t-20 -38.5q-7 -24 -8 -40l-49 -348
q-3 -21 -3 -40q0 -21 5.5 -34.5t13.5 -20t16 -12t12 -13t4 -16.5q0 -4 -1 -8q-3 -18 -16.5 -25t-47.5 -7h-183q-33 0 -44 6.5t-11 18.5q0 3 1 7z" />
    <glyph glyph-name="J" unicode="J" horiz-adv-x="563" 
d="M6 162q6 38 29.5 57.5t54.5 19.5q33 0 49 -19.5t16 -50.5q0 -49 11 -73.5t39 -24.5q68 0 89 153l42 300q3 21 3 40q0 21 -6 34.5t-14 20t-15.5 12t-11 13t-3.5 15.5q0 4 1 9q2 18 15.5 25t47.5 7h184q32 0 43 -6.5t11 -18.5q0 -3 -1 -7q-2 -16 -12.5 -26.5t-22 -17
t-25 -22t-19.5 -38.5q-7 -23 -9 -40l-29 -223q-10 -73 -25.5 -123.5t-46.5 -96t-85 -68.5t-132 -23q-95 0 -137.5 45.5t-42.5 101.5q0 12 2 25z" />
    <glyph glyph-name="K" unicode="K" horiz-adv-x="775" 
d="M14 32q2 18 14.5 31t26.5 21.5t28 31.5t19 60l50 348q2 18 2 33q0 13 -3 27.5t-11.5 25.5t-17.5 16t-13.5 14t-4.5 19q0 4 1 9q2 18 15.5 25t47.5 7h183q33 0 44 -6.5t11 -20.5v-5q-3 -18 -15.5 -31t-26.5 -21.5t-28 -31.5t-19 -60l-21 -146l237 194q23 19 25 28t2 12
q0 9 -7.5 15.5t-16 16.5t-8.5 20v4q5 32 50 32h140q31 0 43.5 -7t12.5 -19q0 -3 -1 -6q-2 -16 -11.5 -25t-23 -14t-41 -19.5t-55.5 -37.5l-72 -59l115 -360q10 -30 25 -49.5t26 -26t16.5 -16t5.5 -21.5v-8q-2 -18 -15.5 -25t-45.5 -7h-175q-33 0 -44 6.5t-11 18.5q0 3 1 7
q2 15 17.5 30t23 29t7.5 27q0 11 -4 24l-80 258l-150 -123l-14 -101q-3 -21 -3 -36q0 -12 3 -25.5t11.5 -24.5t17.5 -16t14 -14t5 -20q0 -4 -1 -8q-3 -18 -17 -25t-47 -7h-183q-32 0 -43.5 7t-11.5 19q0 3 1 6z" />
    <glyph glyph-name="L" unicode="L" horiz-adv-x="601" 
d="M14 32q2 19 18 31t35 28t27 45q7 23 10 50l47 338q3 21 3 40q0 21 -6 34.5t-14 20t-15.5 12t-11.5 13t-4 16.5q0 4 1 8q3 18 16.5 25t47.5 7h183q33 0 44 -6.5t11 -18.5q0 -3 -1 -7q-2 -19 -18 -31t-35 -28t-27 -45q-7 -24 -8 -40l-57 -407q-1 -4 -1 -8q0 -18 12.5 -27.5
t54.5 -9.5l45 1q30 0 54 15.5t38 34.5t43 63q22 36 43 36q22 0 22 -27q0 -9 -3 -22q-11 -73 -34 -128q-9 -25 -28 -35t-63 -10h-375q-33 0 -44 6.5t-11 18.5q0 3 1 7z" />
    <glyph glyph-name="M" unicode="M" horiz-adv-x="947" 
d="M12 29q2 11 12.5 21t22.5 17t24 23t16 37l81 434q2 10 2 19q0 12 -5.5 25t-16.5 19t-18 16.5t-7 21.5v6q2 18 15 25t42 7h134q31 0 40 -28l116 -400l244 399q17 29 47 29h127q29 0 39 -6.5t10 -18.5q0 -3 -1 -7q-2 -15 -13 -26t-23.5 -17.5t-23.5 -22.5t-14 -41l-43 -402
q-1 -7 -1 -14q0 -18 5 -32.5t14 -22.5t18.5 -14.5t14.5 -15t5 -19.5q0 -4 -1 -9q-3 -18 -16 -25t-46 -7h-176q-33 0 -44 6.5t-11 18.5q0 3 2 14t13 23.5t23 19.5t23.5 26.5t15.5 50.5l42 341l-260 -428q-15 -25 -45 -32q-7 -1 -12 -1q-21 0 -28 20l-122 434l-63 -366
q-2 -9 -2 -16q0 -16 9 -30.5t19.5 -25.5t10.5 -23v-4q-2 -16 -14 -22t-37 -6h-99q-27 0 -36 6t-9 18v5z" />
    <glyph glyph-name="N" unicode="N" horiz-adv-x="769" 
d="M-10 29q2 13 17.5 25t32 29t19.5 44l55 396q2 16 2 29q0 16 -3.5 33t-12 27t-17 17t-13.5 15t-5 17q0 3 1 7q3 18 17 25t46 7h98q30 0 53 -28l321 -373l38 274q1 7 1 13q0 13 -5.5 26.5t-15 20.5t-15.5 16t-6 18v5q2 16 14 22t37 6h99q27 0 36 -6t9 -18v-5
q-2 -11 -12 -20.5t-21 -17t-22 -23.5t-14 -37l-75 -535q-6 -38 -33 -38h-25q-28 0 -28 25q0 4 1 9t1 9q0 29 -26 58l-344 398l-51 -372q-1 -7 -1 -13q0 -13 5.5 -26.5t15 -20.5t15.5 -16t6 -18v-5q-2 -16 -14 -22t-37 -6h-98q-28 0 -37 6t-9 18v5z" />
    <glyph glyph-name="O" unicode="O" horiz-adv-x="775" 
d="M167 587q119 121 289 121q142 0 225 -87t83 -221q0 -170 -115.5 -288.5t-282.5 -118.5h-3q-136 1 -225.5 86.5t-89.5 219.5q0 167 119 288zM270 145q46 -63 124 -63q62 0 106.5 48.5t64.5 117.5t20 146q0 104 -40 168.5t-117 64.5q-62 0 -110 -49t-71.5 -120.5
t-23.5 -149.5q0 -100 47 -163z" />
    <glyph glyph-name="P" unicode="P" horiz-adv-x="690" 
d="M15 32q2 18 14.5 30t26 19.5t28 32t19.5 63.5l48 337q3 23 3 40q0 13 -3 29t-11.5 28.5t-18 18t-14.5 13.5t-5 18q0 3 1 7q3 18 17.5 25t46.5 7h216q157 0 230 -66t73 -160q0 -20 -3 -42q-32 -224 -340 -224h-49q-12 0 -17 -3.5t-6 -16.5q-4 -21 -4 -48v-7q0 -17 5 -30
t13 -20t15.5 -12.5t11.5 -13.5t4 -17q0 -4 -1 -8q-2 -18 -16 -25t-47 -7h-183q-32 0 -43.5 7t-11.5 19q0 3 1 6zM299 285q14 -8 44 -8q72 0 117 37.5t54 103.5q3 24 3 46q0 68 -38 118.5t-108 50.5q-24 0 -32 -5.5t-10 -21.5l-41 -295q-1 -3 -1 -6q0 -13 12 -20z" />
    <glyph glyph-name="Q" unicode="Q" horiz-adv-x="775" 
d="M44 -12q0 23 17.5 41.5t58.5 18.5q26 0 69 -8q-66 40 -103.5 107t-37.5 152q0 167 119 288t289 121q142 0 225 -87t83 -221q0 -166 -109.5 -283t-272.5 -124q3 0 9 -2q170 -42 254 -42q32 0 52.5 14.5t27.5 14.5q24 0 24 -45q0 -47 -40 -81t-120 -34q-39 0 -96 16
t-90 28.5t-104 42.5q-159 64 -190 64q-16 0 -28 -7t-16 -7q-9 0 -15 10t-6 23zM223 308q0 -100 46.5 -163t124.5 -63q62 0 106.5 48.5t64.5 117.5t20 146q0 104 -40 168.5t-117 64.5q-62 0 -110 -49t-71.5 -120.5t-23.5 -149.5z" />
    <glyph glyph-name="R" unicode="R" horiz-adv-x="721" 
d="M15 32q2 18 14.5 31t26.5 21.5t28 31.5t19 60l48 338q4 26 4 44q0 12 -3 27.5t-11.5 27.5t-18 16.5t-14.5 12.5t-5 18v8q3 18 17.5 25t46.5 7h234q157 0 227 -63.5t70 -152.5q0 -19 -3 -39q-19 -139 -142 -191l48 -117q10 -24 24 -40t24.5 -21.5t16 -15t5.5 -20.5v-8
q-2 -18 -15.5 -25t-45.5 -7h-167q-24 0 -32.5 6.5t-8.5 19.5v6q2 14 11.5 26t17 18.5t9.5 17t2 14.5q0 15 -8 34l-31 81q-12 -1 -38 -1h-69q-20 0 -23 -20q-6 -42 -6 -62v-6q0 -23 7.5 -38t18 -20t16.5 -15t6 -22v-7q-2 -18 -15.5 -25t-47.5 -7h-183q-33 0 -44 6.5t-11 18.5
q0 3 1 7zM304 299q17 -8 61 -8q70 0 111 37t50 103q3 21 3 41q0 64 -36 112.5t-107 48.5q-34 0 -44.5 -5.5t-12.5 -21.5l-39 -281v-5q0 -15 14 -21z" />
    <glyph glyph-name="S" unicode="S" horiz-adv-x="615" 
d="M37 193q5 49 32 49q7 0 12 -1.5t10.5 -10t8 -13t10.5 -22.5q60 -130 185 -130h4q40 0 64.5 22t29.5 55q1 5 1 9q0 23 -18.5 47.5t-45.5 42t-71 42.5q-5 3 -8 4q-91 51 -127.5 96t-36.5 101q0 17 3 35q12 85 91.5 137.5t184.5 52.5q35 0 76 -7.5t47 -7.5q13 0 29 7.5
t26 7.5q16 0 24 -11t10 -41q2 -34 3 -65q-1 -31 -3 -59q-5 -50 -37 -50q-11 0 -20 10.5t-24 36.5q-61 109 -142 109q-41 0 -67 -20.5t-31 -54.5q-1 -7 -1 -13q0 -33 28 -61t110 -74q64 -35 101 -63t58.5 -66t21.5 -77q0 -11 -2 -23q-13 -96 -100.5 -146t-200.5 -50
q-43 0 -91 10.5t-54 10.5q-18 0 -35 -11t-27 -11q-30 0 -31 54q-1 30 -1 55q0 63 4 94z" />
    <glyph glyph-name="T" unicode="T" horiz-adv-x="669" 
d="M69 526q13 79 34 129q10 25 29 35t62 10h410q43 0 59.5 -10t19.5 -35q3 -20 3 -46q0 -36 -5 -83q-7 -49 -34 -49q-19 0 -33 36q-22 62 -41.5 86t-60.5 24q-40 0 -46 -42l-57 -405q-3 -19 -3 -40q0 -25 8.5 -40t18.5 -20t16.5 -15t6.5 -22v-7q-3 -18 -17 -25t-47 -7h-183
q-32 0 -43.5 7t-11.5 19q0 3 1 6q2 19 18 31t35 28t27 45q6 22 9 40l56 405q1 5 1 10q0 31 -35 31q-42 0 -68 -23.5t-66 -85.5q-22 -36 -43 -36q-22 0 -22 30q0 8 2 19z" />
    <glyph glyph-name="U" unicode="U" horiz-adv-x="764" 
d="M97 668q3 18 17 25t46 7h184q32 0 43.5 -7t11.5 -19q0 -3 -1 -6q-2 -16 -12.5 -27t-22.5 -17t-25.5 -21.5t-19.5 -38.5q-6 -22 -9 -40l-33 -236q-4 -29 -4 -54q0 -61 29.5 -106.5t107.5 -45.5q77 0 128 57t66 161l38 272q1 7 1 13q0 13 -5 26t-14.5 20.5t-15.5 16.5
t-6 18v5q2 17 13.5 22.5t36.5 5.5h99q28 0 36.5 -5.5t8.5 -17.5v-6q-2 -11 -12 -20.5t-21 -17t-21.5 -23.5t-13.5 -37l-36 -244q-26 -180 -107 -259t-228 -79q-146 0 -197 69t-51 171q0 41 7 90l28 204q3 20 3 40q0 25 -8.5 40t-18.5 20t-16 15t-6 22v7z" />
    <glyph glyph-name="V" unicode="V" horiz-adv-x="737" 
d="M70 668q3 18 16.5 25t44.5 7h183q27 0 37 -6.5t10 -20.5v-5q-2 -13 -13.5 -23t-22 -16t-15.5 -18.5t-5 -22.5q0 -12 4 -26l94 -375l196 380q13 32 13 45q0 4 -2.5 11t-13 18.5t-10.5 24.5v4q4 29 54 29h93q29 0 41.5 -6t12.5 -19q0 -2 -1 -11t-17.5 -19.5t-40.5 -28.5
t-40 -48l-282 -530q-9 -19 -21 -27t-44 -11q-24 -3 -38 -3q-10 0 -19 2.5t-14 21.5l-140 542q-9 35 -25.5 53t-25.5 26.5t-9 21.5v5z" />
    <glyph glyph-name="W" unicode="W" horiz-adv-x="1085" 
d="M71 670q2 18 14.5 24t36.5 6h182q25 0 35 -6t10 -19v-5q-2 -15 -16.5 -27t-21.5 -26t-7 -29q0 -11 2 -23l69 -378l166 334l-7 44q-5 25 -15.5 42.5t-20.5 24t-15.5 15t-5.5 17.5v6q2 18 14 24t37 6h182q45 0 45 -27v-3q-2 -15 -16 -27t-22.5 -26.5t-8.5 -32.5q0 -9 2 -20
l61 -371l178 374q12 31 12 45q0 5 -3 12t-13.5 18.5t-10.5 24.5v4q4 29 54 29h93q29 0 41.5 -6t12.5 -19v-4q-2 -13 -13 -23t-24.5 -16.5t-31 -23.5t-28.5 -41l-257 -532q-16 -29 -68 -37q-25 -4 -40 -4q-10 0 -21 3t-13 20l-76 392l-179 -375q-15 -28 -68 -36
q-20 -3 -34 -3q-3 0 -12 0.5t-15.5 5.5t-9.5 16l-115 548q-5 25 -16.5 42.5t-21 24t-15.5 15t-6 17.5v6z" />
    <glyph glyph-name="X" unicode="X" horiz-adv-x="773" 
d="M-7 29q2 13 14.5 22.5t28.5 15.5t39.5 21.5t42.5 37.5l187 218l-138 230q-14 23 -31 39t-28 21.5t-17 13t-6 17.5v6q4 29 53 29h210q45 0 45 -27v-3q-2 -12 -11.5 -21.5t-17.5 -15t-8 -20.5t14 -39l78 -130l112 130q22 25 25.5 36.5t3.5 15.5q0 6 -4.5 10t-10.5 12.5
t-6 17.5v5q4 29 54 29h107q28 0 40.5 -6t12.5 -19v-4q-2 -13 -14.5 -22.5t-28.5 -15.5t-39.5 -21.5t-42.5 -37.5l-170 -195l153 -253q14 -23 31 -39t28 -21.5t17 -13t6 -17.5v-6q-4 -29 -54 -29h-209q-25 0 -35 6t-10 19v5q2 12 11.5 22t17.5 15.5t8 18.5q0 1 -0.5 8.5
t-14.5 31.5l-92 153l-130 -153q-21 -25 -24.5 -36.5t-3.5 -16.5t4.5 -9.5t10.5 -12.5t6 -17v-5q-4 -29 -54 -29h-106q-28 0 -41 6t-13 19v4z" />
    <glyph glyph-name="Y" unicode="Y" horiz-adv-x="719" 
d="M53 671q4 29 53 29h209q25 0 35 -6t10 -19v-5q-2 -12 -11.5 -21.5t-17 -15.5t-8.5 -14.5t-1 -11.5q0 -14 12 -35l86 -173l122 169q19 27 21.5 38t2.5 15q0 8 -5.5 13t-11.5 13.5t-6 17.5v5q4 29 53 29h107q28 0 41 -6t13 -19v-4q-2 -13 -14 -22.5t-28 -16t-38.5 -22.5
t-40.5 -40l-197 -258l-19 -135q-3 -21 -3 -40q0 -21 5.5 -34.5t13 -20t15.5 -12t12 -13t4 -16.5q0 -4 -1 -8q-3 -18 -16.5 -25t-46.5 -7h-184q-33 0 -44 6.5t-11 18.5q0 3 1 7q2 16 12.5 27t22.5 17t25.5 21.5t19.5 38.5q7 23 9 40l18 134l-140 263q-13 24 -29 40t-27 21.5
t-17 13t-6 17.5v6z" />
    <glyph glyph-name="Z" unicode="Z" horiz-adv-x="635" 
d="M17 47l432 581h-154q-42 0 -70.5 -22t-65.5 -73q-23 -36 -43 -36q-15 0 -16.5 8.5t-1.5 14.5q0 11 3 26q10 61 31 109q9 25 28.5 35t67.5 10h413q23 0 26 -8t3 -11q0 -12 -12 -27l-429 -582l172 1q42 0 70 21.5t65 72.5q22 36 44 36q14 0 15.5 -8.5t1.5 -14.5
q0 -11 -3 -26q-8 -59 -30 -109q-10 -25 -29.5 -35t-67.5 -10h-432q-23 0 -26 8.5t-3 12.5q0 11 11 26z" />
    <glyph glyph-name="bracketleft" unicode="[" horiz-adv-x="349" 
d="M21 -91l116 833q6 37 43 37h176q22 0 27.5 -5.5t5.5 -16.5q0 -3 -1 -13.5t-9.5 -16t-30.5 -5.5h-33q-28 0 -33 -29l-103 -735v-5q0 -24 25 -24h32q22 0 28 -5t6 -16v-7q-3 -17 -11 -23t-30 -6h-176q-33 0 -33 29q0 4 1 8z" />
    <glyph glyph-name="backslash" unicode="\" horiz-adv-x="393" 
d="M106 732q7 8 30 8h7q19 0 27 -6.5t10 -24.5l132 -767q2 -10 2 -17q0 -11 -5.5 -18t-28.5 -7h-8q-19 0 -27 6.5t-10 24.5l-132 767q-1 9 -1 16q0 12 4 18z" />
    <glyph glyph-name="bracketright" unicode="]" horiz-adv-x="346" 
d="M-17 -99q2 17 10.5 22.5t30.5 5.5h33q29 0 32 29l103 735q1 4 1 8q0 21 -24 21h-33q-23 0 -29 5t-6 14q0 4 1 9q2 17 10.5 23t31.5 6h175q33 0 33 -29q0 -4 -1 -8l-117 -833q-5 -37 -42 -37h-176q-22 0 -28 5t-6 15q0 4 1 9z" />
    <glyph glyph-name="underscore" unicode="_" horiz-adv-x="423" 
d="M-29 -59q3 18 9.5 24t23.5 6h339q17 0 21.5 -5t4.5 -13q0 -5 -1 -11q-2 -17 -9 -23.5t-24 -6.5h-339q-17 0 -21.5 5t-4.5 15q0 4 1 9z" />
    <glyph glyph-name="grave" unicode="`" horiz-adv-x="500" 
d="M194 677q10 20 34 29q6 2 13 2q30 0 80 -41q65 -57 74 -85q1 -4 1 -7q0 -12 -15 -17q-16 -6 -37 -6q-31 0 -84 18t-67 59q-4 13 -4 24q0 13 5 24z" />
    <glyph glyph-name="a" unicode="a" horiz-adv-x="645" 
d="M117 396q83 92 193 92q34 0 68.5 -9.5t42.5 -9.5q12 0 46.5 10.5t47.5 10.5q19 0 26.5 -10t7.5 -23v-6l-25 -304q-1 -7 -1 -13q0 -36 20 -36q10 0 24 14t22 14q17 0 17 -22q0 -38 -39.5 -76t-100.5 -38q-90 0 -101 83q-65 -83 -164 -83q-73 0 -120.5 50.5t-47.5 131.5
q0 131 84 224zM263 86q47 0 81 66t40 146l2 33v8q0 38 -19.5 61t-52.5 23q-50 0 -82 -70.5t-33 -150.5v-7q0 -109 64 -109z" />
    <glyph glyph-name="b" unicode="b" horiz-adv-x="601" 
d="M55 224l53 322q1 7 1 14q0 11 -4.5 21.5t-13 14.5t-16 11.5t-7.5 19.5q0 14 15 27.5t60 29.5q74 26 114 26q28 0 28 -24q0 -5 -1 -10l-40 -243q65 57 147 57q80 0 129 -51t49 -128q0 -135 -90.5 -228t-228.5 -93h-3q-108 1 -152.5 54.5t-44.5 125.5q0 25 5 54zM226 98
q19 -33 55 -33h1q50 0 85 75.5t35 163.5v14q-2 35 -18 61.5t-51 26.5q-43 0 -78.5 -61.5t-42.5 -160.5q-1 -11 -1 -22q0 -39 15 -64z" />
    <glyph glyph-name="c" unicode="c" horiz-adv-x="541" 
d="M122 405q86 85 202 85q82 0 134.5 -43.5t52.5 -105.5v-2q-1 -44 -24.5 -70.5t-55.5 -26.5h-9q-56 6 -56 68v6q0 101 -65 101q-45 0 -75 -50.5t-30 -117.5q0 -69 36.5 -108t105.5 -39q64 0 123 46q11 8 19 8q6 0 11 -4.5t5 -13.5q0 -8 -5 -20q-23 -50 -86.5 -89
t-150.5 -39q-103 0 -160.5 59t-57.5 150q0 120 86 206z" />
    <glyph glyph-name="d" unicode="d" horiz-adv-x="623" 
d="M122 397q89 93 204 93q34 0 83 -15l10 71q1 7 1 14q0 12 -4.5 22.5t-13 15t-16 11.5t-7.5 18q0 14 15 27.5t60 29.5q74 26 115 26q28 0 28 -24q0 -5 -1 -10l-77 -529q-2 -12 -2 -21q0 -28 18 -28q10 0 24 14t22 14q17 0 17 -20v-2q0 -39 -41 -76.5t-107 -37.5
q-37 0 -62.5 20t-29.5 60q-63 -80 -156 -80q-80 0 -125 49.5t-45 130.5q0 133 90 227zM209 120q16 -29 49 -29q45 0 77.5 55t43.5 138q4 25 4 46q0 35 -14 63.5t-53 28.5q-56 0 -89.5 -68t-33.5 -159v-5q0 -43 16 -70z" />
    <glyph glyph-name="e" unicode="e" horiz-adv-x="545" 
d="M125 401q90 89 227 89q66 0 110.5 -30t44.5 -85q0 -49 -29.5 -88t-78 -62.5t-96.5 -37t-100 -19.5q15 -33 45 -52t67 -19q72 0 141 51q11 9 20 9q5 0 10 -4.5t5 -12.5q0 -9 -6 -21q-23 -50 -86.5 -89.5t-149.5 -39.5q-100 0 -157 53.5t-57 149.5q0 118 90 208zM209 236
q24 4 48 10.5t55 19.5t50 37t19 54q0 28 -18.5 47.5t-49.5 19.5q-58 0 -93.5 -50t-35.5 -115q0 -23 20 -23h5z" />
    <glyph glyph-name="f" unicode="f" horiz-adv-x="398" 
d="M34 382q8 35 41 41l50 12l5 37q16 110 79 174t147 64q50 0 79 -29t29 -65q0 -8 -1 -16q-4 -32 -22.5 -48.5t-44.5 -16.5q-40 0 -44 38q-6 59 -44 59q-23 0 -40 -19.5t-20 -61.5q0 -13 -0.5 -23.5t-0.5 -11.5q0 -20 9 -33.5t22 -13.5q4 0 9 1l80 17q9 2 16 2q13 0 16 -5.5
t3 -11.5q0 -11 -9 -32q-8 -20 -20 -31t-19 -13t-23 -5l-57 -10l-61 -435q-3 -20 -31 -27l-114 -24q-6 -2 -11 -2q-12 0 -16 6.5t-4 11.5q0 10 9 24q2 3 3.5 6t3 7t2.5 7.5t2 9.5t1.5 10.5t2 13t2.5 14.5l3 18l48 341l-52 -10q-5 -1 -9 -1q-10 0 -15 5t-5 15q0 5 1 11z" />
    <glyph glyph-name="g" unicode="g" horiz-adv-x="583" 
d="M10 -92q4 24 23.5 45t49.5 32q-51 26 -51 75q0 7 1 13q11 62 88 96q-60 39 -60 111q0 86 78 147.5t187 61.5h1q19 0 39 -1.5t30 -1.5q50 0 101 52q22 25 48 25q18 0 29 -12.5t11 -29.5v-3q-2 -33 -33.5 -52.5t-72.5 -23.5q45 -40 45 -103q0 -89 -73 -146t-182 -57
q-51 0 -95 11q-23 -14 -26 -33v-4q0 -41 91 -41q30 0 93.5 6t85.5 6q68 0 97.5 -26t29.5 -66q0 -9 -1 -18q-12 -82 -101.5 -131.5t-219.5 -49.5q-99 0 -156.5 27.5t-57.5 77.5q0 6 1 13zM215 292q0 -43 18 -69.5t53 -26.5q41 0 64 41t23 94q0 42 -17.5 69.5t-52.5 27.5
q-40 0 -64 -42t-24 -94zM261 -143q131 0 138 64v5q0 14 -8.5 22.5t-30.5 8.5h-5q-26 0 -72.5 -2.5t-74.5 -2.5h-18h-5q-46 0 -53 -37v-5q0 -53 129 -53z" />
    <glyph glyph-name="h" unicode="h" horiz-adv-x="654" 
d="M39 20l81 537q1 6 1 12q0 12 -6 22t-16.5 13t-20 9.5t-9.5 18.5q0 13 15.5 25.5t60.5 31.5q61 26 115 26q29 0 29 -26q0 -4 -1 -8l-43 -292q67 101 169 101q139 0 139 -161q0 -17 -2 -37l-11 -145q-1 -10 -1 -18q0 -14 3 -22.5t14 -8.5q10 0 24 14t22 14q18 0 18 -22
q-1 -38 -41 -76t-103 -38q-47 0 -69.5 30t-22.5 78q0 12 1 25l14 162q4 27 4 48q0 20 -5.5 42t-36.5 22q-17 0 -36.5 -14.5t-41.5 -45t-43 -89.5t-34 -138l-11 -67q-4 -25 -30 -31l-99 -23q-3 -1 -6 -1q-10 0 -15.5 7.5t-5.5 18.5v6z" />
    <glyph glyph-name="i" unicode="i" horiz-adv-x="332" 
d="M54 434q15 13 60 29q77 27 106 27t29 -25q0 -5 -1 -10l-44 -308q-2 -12 -2 -20q0 -29 20 -29q10 0 24.5 14t21.5 14q18 0 18 -22q-1 -39 -42 -76.5t-107 -37.5q-48 0 -70.5 28.5t-22.5 68.5q0 15 3 33l32 206q1 7 1 14q0 11 -4.5 21.5t-13 14.5t-16 11.5t-7.5 18.5
q0 14 15 28zM89 601q0 39 35.5 72.5t76.5 33.5h2q30 0 51 -19.5t21 -48.5q-1 -41 -37.5 -72.5t-80.5 -31.5q-32 0 -50 19t-18 44v3z" />
    <glyph glyph-name="j" unicode="j" horiz-adv-x="295" 
d="M-80 -154q61 23 83.5 53.5t33.5 110.5l46 316q1 8 1 16q0 28 -19 36q-22 13 -22 28q0 14 15 27.5t60 29.5q77 27 114 27q28 0 28 -28v-7l-71 -474q-7 -45 -18 -76.5t-33 -59t-59.5 -41.5t-90.5 -14q-76 0 -88 28q-1 4 -1 7q0 13 21 21zM105 601q0 39 35.5 72.5t76.5 33.5
h2q30 0 51 -19.5t21 -48.5q-1 -41 -37.5 -72.5t-80.5 -31.5q-32 0 -50 19t-18 44v3z" />
    <glyph glyph-name="k" unicode="k" horiz-adv-x="578" 
d="M46 21l74 536q1 6 1 12q0 12 -6 22t-16.5 13t-20 9.5t-9.5 18.5q0 13 15.5 25.5t60.5 31.5q61 26 115 26q28 0 28 -27v-7l-35 -262q66 71 163 71q49 0 84 -27.5t35 -73.5q0 -108 -167 -167q54 -131 111 -131q13 0 27 13t20 13q16 0 16 -24q0 -37 -36.5 -70t-93.5 -33
q-67 0 -105.5 53t-58.5 148q-9 -2 -27 -4l-19 -143q-4 -25 -30 -31l-99 -23q-3 -1 -6 -1q-10 0 -15.5 7.5t-5.5 18.5v6zM230 249q57 1 111 28t55 69v3q0 22 -15 37.5t-42 15.5q-34 0 -64 -35.5t-42 -91.5z" />
    <glyph glyph-name="l" unicode="l" horiz-adv-x="325" 
d="M52 122l59 425q1 7 1 13q0 12 -5 23t-14 15t-16.5 11t-7.5 18q0 9 4 16.5t21.5 18.5t48.5 22q76 26 115 26q28 0 28 -24q0 -5 -1 -10l-75 -529q-1 -9 -1 -16q0 -33 18 -33q10 0 24.5 14t21.5 14q18 0 18 -22q-1 -38 -40 -76t-99 -38q-59 0 -81 25.5t-22 67.5q0 18 3 39z
" />
    <glyph glyph-name="m" unicode="m" horiz-adv-x="938" 
d="M30 20l50 305q1 7 1 13q0 12 -5 23t-13 15t-15.5 11t-7.5 18q0 14 14.5 27.5t59.5 29.5q77 27 98 27q28 0 28 -25q0 -4 -1 -9l-11 -70q73 105 180 105q100 0 126 -96q34 47 77.5 71.5t84.5 24.5q80 0 110.5 -48t30.5 -116q0 -16 -2 -34l-11 -145q-1 -10 -1 -18
q0 -14 3 -22.5t14 -8.5q10 0 24.5 14t21.5 14q18 0 18 -22q-1 -39 -42 -76.5t-107 -37.5q-87 0 -87 109q0 11 1 24l13 162q2 27 2 47q0 24 -4.5 44.5t-30.5 20.5q-36 0 -73 -67t-67 -220l-12 -65q-6 -26 -30 -31l-100 -24q-3 -1 -6 -1q-9 0 -14.5 7t-5.5 19v6l33 227
q8 58 8 92q0 14 -3 35.5t-30 21.5q-17 0 -35.5 -14.5t-39 -45.5t-40.5 -89.5t-35 -137.5l-12 -65q-4 -26 -30 -32l-100 -23q-3 -1 -6 -1q-9 0 -15 7t-6 18v6z" />
    <glyph glyph-name="n" unicode="n" horiz-adv-x="650" 
d="M35 21l44 304q1 7 1 14q0 12 -4.5 22.5t-13 14.5t-16 11t-7.5 18q0 14 14.5 27.5t60.5 29.5q75 27 97 27q28 0 28 -25q0 -4 -1 -9l-13 -82q72 117 185 117q139 0 139 -161q0 -17 -2 -37l-11 -145q-1 -10 -1 -18q0 -14 3 -22.5t14 -8.5q10 0 24 14t22 14q18 0 18 -22
q-1 -38 -41 -76t-103 -38q-47 0 -69.5 30t-22.5 78q0 12 1 25l14 162q4 27 4 48q0 20 -5.5 42t-36.5 22q-17 0 -36 -14.5t-41.5 -45t-43 -89.5t-34.5 -138l-11 -65q-4 -25 -29 -31l-100 -24q-3 -1 -6 -1q-10 0 -15.5 7.5t-5.5 18.5v6z" />
    <glyph glyph-name="o" unicode="o" horiz-adv-x="598" 
d="M126 406q90 84 213 84q104 0 164.5 -58t60.5 -149q0 -128 -85.5 -210.5t-213.5 -82.5q-106 0 -167.5 57t-61.5 155q0 119 90 204zM218 96q18 -36 55 -36q36 0 64.5 39t42 91.5t13.5 105.5q0 125 -71 125q-56 0 -89.5 -72.5t-34.5 -158.5q1 -59 20 -94z" />
    <glyph glyph-name="p" unicode="p" horiz-adv-x="601" 
d="M-31 -175q1 11 10.5 20.5t19.5 17t20 22t13 34.5l56 401q1 6 1 12q0 13 -6 24.5t-16 16.5t-19 13.5t-9 19.5q0 14 15.5 26.5t60.5 30.5q64 27 105 27q29 0 29 -25q0 -4 -1 -9l-7 -51q73 83 179 83q75 0 113 -52t38 -122q0 -19 -3 -41q-15 -118 -96.5 -197.5t-179.5 -79.5
q-39 0 -91 16l-12 -93q-1 -6 -1 -11q0 -18 9 -32t18.5 -25t9.5 -23v-4q-4 -24 -50 -24h-160q-25 0 -35.5 5.5t-10.5 15.5v4zM232 93q18 -32 54 -32h1q52 0 88 68t36 171q0 37 -14 65t-48 28q-42 0 -80 -60.5t-49 -152.5q-1 -14 -1 -26q0 -37 13 -61z" />
    <glyph glyph-name="q" unicode="q" horiz-adv-x="607" 
d="M33 171q0 131 87.5 225t202.5 94q35 0 70 -10.5t43 -10.5q12 0 45 12t46 12q19 0 26.5 -11.5t7.5 -24.5v-6l-75 -532q-1 -5 -1 -10q0 -26 18.5 -47t18.5 -35v-3q-4 -24 -50 -24h-160q-25 0 -35.5 5.5t-10.5 15.5v4q1 11 10.5 20.5t19.5 17t20 22t13 34.5l15 124
q-59 -53 -140 -53t-126 49.5t-45 131.5zM213 117q19 -34 55 -34q47 0 74 54t36 130l14 119v1q0 8 -12 15.5t-30 12.5t-34 5q-58 0 -89 -64t-32 -153v-5q0 -49 18 -81z" />
    <glyph glyph-name="r" unicode="r" horiz-adv-x="459" 
d="M34 20l45 305q1 7 1 14q0 12 -4.5 22.5t-13 14.5t-16 11t-7.5 18q0 14 14.5 27.5t60.5 29.5q75 27 97 27q28 0 28 -25q0 -4 -1 -9l-7 -54q67 87 146 87q39 0 57 -23.5t18 -54.5q0 -8 -1 -16q-4 -36 -21.5 -56t-41.5 -20q-17 0 -29 8.5t-16.5 19.5t-13 20t-21.5 9
q-19 0 -37 -18t-38.5 -78.5t-32.5 -160.5l-9 -74q-3 -24 -30 -31l-100 -23q-3 -1 -6 -1q-9 0 -15 7t-6 18v6z" />
    <glyph glyph-name="s" unicode="s" horiz-adv-x="500" 
d="M39 179h5q4 0 4.5 0.5t1.5 0.5q3 0 8.5 -4.5t7.5 -6.5t9.5 -10.5t11.5 -12.5q81 -91 158 -91q46 0 51 36v6q0 20 -26.5 40.5t-93.5 52.5q-114 56 -114 142q0 12 2 24q11 65 74.5 99.5t147.5 34.5q136 0 157 -52q7 -20 13 -49q2 -12 2 -21q0 -25 -17 -29q-3 -1 -6.5 -1
t-6 0.5t-6 2.5t-5.5 3.5t-6.5 5t-6.5 5.5t-8 7t-9 8q-65 55 -114 55q-24 0 -38 -11.5t-17 -25.5q-1 -3 -1 -6q0 -19 21.5 -35.5t79.5 -44.5q82 -40 110.5 -72.5t28.5 -69.5q0 -11 -2 -22q-12 -68 -70.5 -108t-137.5 -40q-89 0 -142.5 14t-65.5 54q-8 24 -18 77q-2 8 -2 15
q0 24 20 29z" />
    <glyph glyph-name="t" unicode="t" horiz-adv-x="417" 
d="M27 411q6 33 41 38l49 8l17 95q4 25 30 31l98 23q3 1 7 1q9 0 15 -7t6 -19v-6q-4 -19 -9.5 -52t-8.5 -48l114 14q6 1 12 1q16 0 19.5 -7t3.5 -13q0 -12 -9 -33q-8 -20 -20.5 -29.5t-18 -11t-23.5 -3.5l-92 -7q-17 -119 -24 -173q-4 -31 -4 -52q0 -26 7.5 -45t33.5 -19
q35 0 59 32q10 10 18 10q2 0 8.5 -3t6.5 -18q0 -45 -50 -86.5t-114 -41.5q-71 0 -101.5 37.5t-30.5 91.5q0 15 2 33q10 85 35 226l-48 -5h-6q-13 0 -18.5 6.5t-5.5 17.5q0 6 1 14z" />
    <glyph glyph-name="u" unicode="u" horiz-adv-x="649" 
d="M54 433q14 13 60 29q75 27 112 27q28 0 28 -25q0 -4 -1 -9l-37 -227q-10 -53 -10 -86q0 -16 4.5 -39t41.5 -23q44 0 86.5 63.5t66.5 214.5l12 76q4 25 30 31l100 23q4 1 7 1q8 0 14 -7t6 -18v-6l-47 -310q-2 -12 -2 -21q0 -29 18 -29q10 0 24.5 14t21.5 14q18 0 18 -22
q-1 -39 -42 -76.5t-106 -37.5q-39 0 -64.5 21t-27.5 65q-73 -86 -164 -86q-90 0 -120 44.5t-30 102.5q0 23 4 50l22 138q1 7 1 14q0 12 -4.5 22.5t-13 14.5t-16 11t-7.5 18q0 14 15 28z" />
    <glyph glyph-name="v" unicode="v" horiz-adv-x="523" 
d="M60 433q14 13 60 29q75 27 109 27q27 0 27 -25q0 -4 -1 -9l-33 -247q-4 -25 -4 -45q0 -70 48 -70q41 0 84.5 64.5t43.5 127.5q0 33 -20.5 70.5t-20.5 57.5q0 32 27.5 56t57.5 24q36 0 53.5 -24.5t17.5 -56.5q0 -63 -25 -136t-66.5 -137t-103.5 -106.5t-129 -42.5
q-66 0 -94 43.5t-28 104.5q0 25 4 53l18 134q1 7 1 14q0 12 -4.5 22.5t-13 14.5t-16 11t-7.5 18q0 14 15 28z" />
    <glyph glyph-name="w" unicode="w" horiz-adv-x="808" 
d="M45 405q0 14 14.5 27.5t60.5 29.5q75 27 109 27q27 0 27 -25q0 -4 -1 -9l-33 -247q-4 -26 -4 -46q0 -25 8 -47t40 -22q72 0 103 164l21 163q3 20 9.5 29.5t20.5 15.5q50 25 100 25q28 0 28 -29v-6l-32 -247q-3 -23 -3 -42q0 -73 47 -73t81.5 57t34.5 135q0 33 -20.5 70.5
t-20.5 57.5q0 32 27.5 56t57.5 24q71 0 71 -95q0 -47 -11 -100.5t-35.5 -108t-57.5 -99t-82 -72.5t-105 -28q-101 0 -131 79q-59 -79 -167 -79q-73 0 -105.5 44.5t-32.5 108.5q0 23 3 48l18 134q1 7 1 14q0 12 -4.5 22.5t-13 14.5t-16 11t-7.5 18z" />
    <glyph glyph-name="x" unicode="x" horiz-adv-x="554" 
d="M16 110q18 18 39 18q12 0 24 -12t21 -12q41 0 100 104l-50 111q-27 59 -53 66q-9 2 -12 2.5t-9.5 3t-8.5 7t-2 10.5q0 24 57 54t86 30q27 0 41 -31l63 -140q101 170 176 170q34 0 50.5 -19t16.5 -43q0 -6 -1 -13q-4 -29 -20 -45.5t-36 -16.5q-12 0 -24 11.5t-21 11.5
q-34 0 -109 -127l27 -59q45 -97 82 -97q7 0 19 4.5t20 4.5q18 0 18 -20q0 -32 -47 -62.5t-92 -30.5q-43 0 -69.5 26.5t-52.5 82.5l-17 39q-48 -76 -84.5 -112t-77.5 -36q-33 0 -52.5 20.5t-19.5 50.5q0 31 18 49z" />
    <glyph glyph-name="y" unicode="y" horiz-adv-x="533" 
d="M-39 -46q21 23 49 23q39 0 56 -44q1 -1 5.5 -13t5.5 -14l6 -11q4 -9 7 -10.5t9 -6.5t13.5 -6t16.5 -1q24 0 43.5 18t23.5 46q2 10 2 23q0 29 -9 69q-30 146 -97 304q-13 28 -24 36.5t-34 10.5q-13 1 -20 7.5t-7 14.5q0 26 56.5 58t93.5 32q35 0 50 -42q66 -162 118 -374
q73 124 73 211q0 33 -20.5 70.5t-20.5 57.5q0 32 27.5 56t57.5 24q37 0 54 -24.5t17 -58.5q0 -89 -51 -211.5t-99 -197.5q-134 -211 -297 -211q-60 0 -92.5 28.5t-32.5 72.5q0 40 20 63z" />
    <glyph glyph-name="z" unicode="z" horiz-adv-x="514" 
d="M42 84l276 270q-12 -2 -30 -2q-20 0 -59.5 3t-54.5 3q-22 0 -38 -14.5t-27 -29t-20 -14.5q-16 0 -16 29q0 6 1 13q6 59 38 104.5t83 45.5q26 0 98.5 -6.5t102.5 -6.5q36 0 63 5.5t34 5.5q17 0 17 -19q0 -28 -32 -58l-287 -284q15 2 38 2q19 0 51.5 -1.5t50.5 -1.5h10
q27 2 47.5 11.5t29.5 20t19 19t19 8.5q16 0 16 -29q0 -25 -7.5 -50.5t-24 -53t-51 -45t-81.5 -17.5q-30 0 -99.5 6.5t-89.5 6.5q-26 0 -55 -6t-39 -6q-21 0 -21 25q0 28 38 66z" />
    <glyph glyph-name="braceleft" unicode="{" horiz-adv-x="364" 
d="M45 334q3 19 10.5 26t27.5 11q40 10 46 55l25 177q12 82 62.5 125.5t156.5 50.5h6q16 0 21 -4.5t5 -15.5v-7q-1 -13 -8.5 -19.5t-27.5 -13.5q-43 -16 -54 -98l-22 -155q-14 -96 -112 -130q77 -31 77 -106q0 -12 -2 -25l-24 -175q-3 -21 -3 -38q0 -49 29 -59q17 -7 22 -13
t5 -14q0 -4 -1 -7q-2 -17 -9.5 -22t-22.5 -5h-6q-104 6 -138.5 45t-34.5 95q0 17 3 36l28 197q1 6 1 12q0 34 -33 43q-18 5 -23 10.5t-5 15.5q0 4 1 8z" />
    <glyph glyph-name="bar" unicode="|" horiz-adv-x="288" 
d="M49 -171l118 842q3 29 33 29h16q25 0 25 -24v-5l-119 -842q-3 -29 -33 -29h-16q-25 0 -25 21q0 4 1 8z" />
    <glyph glyph-name="braceright" unicode="}" horiz-adv-x="362" 
d="M-18 -101q2 13 9.5 20t26.5 14q26 8 37 30.5t18 66.5l24 175q14 95 113 131q-78 30 -78 106q0 11 2 24l22 155q2 18 2 33q0 52 -29 65q-17 7 -22 13t-5 16v4q2 17 9.5 22t20.5 6q5 -1 10 -1q104 -7 138 -45.5t34 -93.5q0 -18 -3 -37l-25 -177q-1 -6 -1 -12q0 -34 32 -43
q19 -4 23.5 -10t4.5 -15q0 -5 -1 -12q-2 -16 -9.5 -22.5t-27.5 -11.5q-40 -10 -46 -55l-28 -197q-12 -82 -62.5 -126t-155.5 -50h-6q-17 0 -22 4.5t-5 15.5v7z" />
    <glyph glyph-name="exclamdown" unicode="&#xa1;" horiz-adv-x="286" 
d="M2 -133q5 32 50.5 150t61.5 191q3 19 8.5 25.5t18.5 6.5q14 0 17 -5.5t3 -14.5q0 -5 -1 -12q-1 -19 -1 -42q0 -63 10 -149.5t10 -126.5q0 -15 -1 -23q-6 -44 -35 -71q-29 -26 -67 -26t-56.5 23.5t-18.5 54.5q0 9 1 19zM79 396q0 43 29.5 70t67.5 27q32 0 53.5 -20.5
t21.5 -56.5q0 -43 -29 -69t-68 -26q-32 0 -53.5 19.5t-21.5 55.5z" />
    <glyph glyph-name="cent" unicode="&#xa2;" horiz-adv-x="568" 
d="M77 265q14 100 84 171.5t168 88.5l7 46q2 16 9 22.5t25 6.5q17 0 22 -5.5t5 -15.5q0 -4 -1 -8l-6 -41q79 -2 126 -41t47 -87q0 -8 -1 -17q-4 -36 -26 -55t-52 -19q-32 0 -46.5 17t-22.5 48q-10 38 -26.5 59.5t-48.5 21.5q-41 0 -67.5 -34t-34.5 -93q-3 -20 -3 -39
q0 -58 34 -103.5t114 -45.5q65 0 124 46q11 8 19 8q6 0 11 -5t6 -13q-1 -9 -6 -20q-22 -46 -78.5 -83t-138.5 -44l-6 -45q-2 -16 -9.5 -22.5t-25.5 -6.5t-22.5 5.5t-4.5 15.5q0 3 1 8l6 45q-99 9 -142 69.5t-43 127.5q0 18 3 37z" />
    <glyph glyph-name="sterling" unicode="&#xa3;" horiz-adv-x="662" 
d="M26 87q6 42 42 71t97 29q35 0 83 -19q1 7 1 14q0 43 -20 109h-61q-17 0 -21 5.5t-4 13.5q0 5 1 11q1 17 8 23t24 6h37q-8 36 -8 69q0 16 2 32q10 72 74 120.5t145 48.5q58 0 99.5 -20.5t55.5 -54.5q4 -10 4 -19q0 -14 -8.5 -21.5t-16.5 -7.5q-9 0 -19 10q-55 50 -96 50
q-29 0 -49 -17t-24 -49q-1 -4 -1 -13q0 -33 9 -128h88q16 0 20.5 -5.5t4.5 -18.5v-6q-3 -17 -10 -23t-24 -6h-75q0 -40 -4 -73q-7 -47 -36 -91q63 -25 109 -25q77 0 112 48q16 21 29 21q5 0 12.5 -4t7.5 -17q0 -10 -6 -24q-24 -54 -74 -95t-131 -41q-80 0 -157 44
q-72 -44 -127 -44q-53 0 -73.5 24t-20.5 56q0 8 1 17zM103 52q10 -9 25 -9q33 0 67 27q-49 38 -65 38q-32 0 -35 -30q-1 -4 -1 -7q0 -12 9 -19z" />
    <glyph glyph-name="yen" unicode="&#xa5;" horiz-adv-x="659" 
d="M72 588q4 22 43 22h189q40 0 40 -19v-3q-2 -11 -15 -23.5t-17 -18.5t-4 -12q0 -9 5 -23l81 -165l101 146q16 22 18.5 33.5t2.5 16.5q0 6 -3 11.5t-7.5 13.5t-4.5 15q0 3 1 6q3 21 43 21h99q40 0 40 -19v-3q-2 -12 -17 -22t-41.5 -27.5t-46.5 -44.5l-88 -119h64
q17 0 21.5 -5t4.5 -15q0 -4 -1.5 -15t-8.5 -17t-24 -6h-98l-40 -53h131q17 0 21 -5t4 -15q0 -4 -1 -10q-2 -17 -9 -22.5t-24 -5.5h-131l-14 -97q-1 -5 -1 -10q0 -23 17 -42t17 -32v-2q-4 -21 -45 -21h-151q-41 0 -41 19v3q2 12 27 34t29 51l14 97h-134q-17 0 -21 5t-4 13
q0 5 1 11q1 17 8 23t24 6h133l-27 53h-98q-17 0 -21.5 5t-4.5 15q0 4 1.5 15t8 17t23.5 6h61l-71 137q-10 19 -34.5 38.5t-24.5 34.5v4z" />
    <glyph glyph-name="section" unicode="&#xa7;" horiz-adv-x="567" 
d="M3 -94q4 26 25 43.5t46 17.5q24 0 41 -16t26 -35.5t26 -35.5t40 -16q46 0 91 43q-228 206 -228 419q0 28 4 56q21 147 115 235.5t219 90.5h4q71 0 113.5 -30.5t42.5 -71.5q0 -6 -1 -13q-3 -25 -24 -43t-45 -18t-41.5 16t-26.5 35.5t-26 35.5t-40 16q-45 0 -91 -43
q61 -50 126 -143q53 -73 72.5 -151.5t19.5 -134.5q0 -24 -3 -47q-21 -151 -117 -240q-41 -39 -97 -61.5t-111 -23.5h-4q-71 0 -114 30.5t-43 71.5q0 6 1 13zM188 385q17 -96 55 -188q29 -72 64.5 -130.5t55.5 -58.5q3 0 6 1q13 10 13 45q0 29 -15.5 106t-59.5 180
q-9 21 -21 45.5t-28.5 54.5t-31 44.5t-24.5 14.5q-3 0 -6 -1q-15 -10 -15 -48q0 -26 7 -65z" />
    <glyph glyph-name="dieresis" unicode="&#xa8;" horiz-adv-x="500" 
d="M276 650q22 24 54 24q27 0 44 -16t17 -43q0 -32 -24 -53t-57 -21q-24 0 -40.5 14.5t-16.5 38.5q0 31 23 56zM102 650q22 24 55 24q27 0 43.5 -16t16.5 -43q0 -32 -24 -53t-58 -21q-23 0 -39 15t-16 38q0 32 22 56z" />
    <glyph glyph-name="copyright" unicode="&#xa9;" horiz-adv-x="832" 
d="M30 321q0 160 113 273t273 113t273 -113t113 -273t-113 -273t-273 -113t-273 113t-113 273zM106 321q0 -132 91 -226t219 -94q129 0 220 94t91 226t-91 226t-220 94q-128 0 -219 -94t-91 -226zM209 318q0 95 64.5 158t156.5 63q76 0 124 -41t48 -98q0 -32 -17.5 -48.5
t-42.5 -16.5q-47 0 -63 58q-24 85 -77 86q-32 0 -50 -26.5t-18 -70.5q0 -75 37.5 -121.5t100.5 -46.5q53 0 105 46q8 7 15 7q5 0 10 -4.5t5 -14.5q0 -6 -2 -13q-14 -43 -64 -78.5t-127 -35.5q-96 0 -150.5 57.5t-54.5 139.5z" />
    <glyph glyph-name="ordfeminine" unicode="&#xaa;" horiz-adv-x="425" 
d="M132 652q52 57 121 57q21 0 42.5 -6t26.5 -6q8 0 29 6.5t30 6.5q21 0 21 -20v-4l-15 -190v-9q0 -22 12 -22q6 0 14.5 9t13.5 9q11 0 11 -14q0 -23 -25 -47t-63 -24q-56 0 -63 51q-39 -51 -102 -51q-46 0 -75.5 31.5t-29.5 82.5q0 82 52 140zM183 530q0 -73 41 -73
q30 0 51 42t24 91l1 21v4q0 24 -12 38.5t-33 14.5q-31 0 -51 -44t-21 -94z" />
    <glyph glyph-name="guillemotleft" unicode="&#xab;" horiz-adv-x="495" 
d="M13 247q2 16 12 30t20.5 24t42.5 37q113 100 141 100q13 0 13 -13v-5q-4 -29 -108 -157q-10 -11 -14 -16q73 -134 73 -169v-4q-1 -18 -18 -18q-25 0 -113 100q-41 47 -47 63q-3 9 -3 18q0 5 1 10zM205 247q2 16 12 30t20.5 24t42.5 37q116 100 141 100q13 0 13 -13v-5
q-4 -29 -108 -157q-10 -11 -14 -16q73 -134 73 -169v-4q-1 -18 -18 -18q-25 0 -113 100q-23 26 -31 36.5t-13 23t-5 24.5v7z" />
    <glyph glyph-name="registered" unicode="&#xae;" horiz-adv-x="832" 
d="M143 594q113 113 273 113t273 -113t113 -273t-113 -273t-273 -113t-273 113t-113 273t113 273zM197 95q91 -94 219 -94q129 0 220 94t91 226t-91 226t-220 94q-128 0 -219 -94t-91 -226t91 -226zM242 172l3 3q2 2 3 2.5t3.5 3t3 4t2.5 4.5t3 5.5t2 6.5t1.5 8t1 9t0.5 11
v193q0 11 -2 27q-2 20 -20 32q-17 15 -17 28q0 23 38 23h134q89 0 141 -40t52 -110q0 -78 -62 -111l36 -62q11 -19 31 -33q19 -13 19 -30q0 -23 -38 -23h-95q-31 0 -31 23q0 10 9 23q7 10 7 19t-5 17l-26 45q-7 -1 -21 -1h-40q-7 0 -7 -6v-14q0 -19 4 -31t7.5 -15.5
t11.5 -10.5q16 -10 16 -26q0 -13 -8.5 -18t-30.5 -5h-104q-38 0 -38 23q0 16 16 26zM368 474v-161q0 -15 42 -15q76 0 76 76q0 49 -25.5 79.5t-66.5 30.5q-18 0 -22 -1.5t-4 -8.5z" />
    <glyph glyph-name="macron" unicode="&#xaf;" horiz-adv-x="500" 
d="M86 583q5 27 13.5 33.5t40.5 6.5h225q34 0 41.5 -5.5t7.5 -16.5q0 -5 -1 -11q-3 -27 -12.5 -33.5t-46.5 -6.5h-225q-31 0 -37.5 5t-6.5 17q0 5 1 11z" />
    <glyph glyph-name="degree" unicode="&#xb0;" horiz-adv-x="402" 
d="M123 661q50 49 120 49t119.5 -49.5t49.5 -119.5q0 -71 -50 -120.5t-122 -49.5q-68 0 -117.5 50t-49.5 120t50 120zM180 459q28 -38 67 -38q38 0 62.5 31.5t24.5 77.5q0 55 -28.5 92.5t-68.5 37.5q-37 0 -61.5 -31.5t-24.5 -77.5q0 -55 29 -92z" />
    <glyph glyph-name="twosuperior" unicode="&#xb2;" horiz-adv-x="404" 
d="M14 281q0 17 16 31q114 101 162.5 160t55.5 108q1 6 1 11q0 18 -13 32.5t-41 14.5q-50 0 -98 -45q-7 -7 -12 -7q-3 0 -6 3.5t-3 8.5q0 6 3 13q17 35 62 67t101 32t87 -28t31 -67q0 -8 -1 -17q-6 -46 -54.5 -103.5t-134.5 -112.5q15 -2 49 -12.5t54 -10.5q22 0 36.5 10
t21.5 20t13 10q10 0 10 -15v-6q-2 -50 -30 -82.5t-71 -32.5q-33 0 -77.5 18t-67.5 18q-20 0 -41.5 -18.5t-32.5 -18.5q-20 0 -20 19z" />
    <glyph glyph-name="threesuperior" unicode="&#xb3;" horiz-adv-x="368" 
d="M32 370q4 2 8 2q6 0 12 -6q44 -42 100 -42q33 0 58.5 19t30.5 53q1 6 1 12q0 25 -20 43.5t-74 27.5q-12 3 -12 13q0 1 0.5 7.5t9.5 13.5q69 54 97 81q-7 1 -22.5 5.5t-31 7t-31.5 2.5q-28 0 -47 -16q-24 -22 -30 -22q-11 0 -11 16q0 10 4 26q11 47 29.5 70t54.5 23
q26 0 78.5 -15t77.5 -15q8 0 23.5 11t24.5 11q13 0 14.5 -7t1.5 -9q0 -8 -6 -13q-58 -67 -143 -141q61 -8 93 -38.5t32 -74.5q0 -12 -2 -24q-8 -57 -55.5 -97t-121.5 -40q-64 0 -104 29.5t-47 64.5v5q0 11 8 17z" />
    <glyph glyph-name="acute" unicode="&#xb4;" horiz-adv-x="500" 
d="M126 582q10 29 75 85q49 41 79 41q8 0 14 -2q23 -9 30.5 -24.5t7.5 -28.5q0 -11 -4 -24q-14 -41 -67 -59t-84 -18q-21 0 -37 6q-15 5 -15 17q0 3 1 7z" />
    <glyph glyph-name="paragraph" unicode="&#xb6;" horiz-adv-x="614" 
d="M2 -95q3 27 22.5 44t45.5 17q10 0 18.5 -2.5t14 -5.5t12 -10.5t9 -10.5t8.5 -13.5t8 -12.5q17 -27 31 -39t38 -12q28 0 48 14t31.5 41t17.5 50.5t11 57.5l85 605h-48q-59 0 -91 -36.5t-42 -111.5q-5 -33 -5 -60q0 -100 63 -135q18 -10 18 -26q0 -5 -5 -19t-29 -14h-4
q-102 8 -149 64.5t-47 130.5q0 18 3 38q14 102 93 171.5t188 69.5h232q32 0 42.5 -6.5t10.5 -20.5v-5q-2 -17 -10.5 -26.5t-19.5 -16.5t-22.5 -17t-22 -33.5t-15.5 -60.5l-68 -488q-15 -106 -95 -169.5t-192 -63.5q-88 0 -137 27.5t-49 70.5q0 7 1 14z" />
    <glyph glyph-name="periodcentered" unicode="&#xb7;" horiz-adv-x="287" 
d="M91 319q30 26 67 26q32 0 54 -20.5t22 -56.5q0 -42 -29 -68.5t-68 -26.5q-33 0 -54.5 19.5t-21.5 56.5q0 43 30 70z" />
    <glyph glyph-name="cedilla" unicode="&#xb8;" horiz-adv-x="500" 
d="M164 -159q5 5 11 5q7 0 15 -5q19 -12 39 -12q19 0 30 10.5t11 25.5q0 34 -64 48q-15 3 -15 11q0 4 3 9l36 67h56l-27 -50q94 -15 94 -80q0 -38 -29 -62t-72 -24q-60 0 -87 35q-5 7 -5 13q0 5 4 9z" />
    <glyph glyph-name="onesuperior" unicode="&#xb9;" horiz-adv-x="277" 
d="M55 306q20 14 23 33l34 239q1 9 1 16q0 11 -3.5 18t-23.5 15q-15 5 -15 16v3q1 7 5.5 10.5t19.5 10.5q100 41 122 41q12 0 13 -15q-1 -3 -1 -6l-49 -348v-6q0 -16 15.5 -30t15.5 -23q0 -15 -29 -15h-117q-31 0 -31 15q0 12 20 26z" />
    <glyph glyph-name="ordmasculine" unicode="&#xba;" horiz-adv-x="403" 
d="M139 657q56 53 132 53q64 0 102 -36.5t38 -92.5q0 -80 -53 -131.5t-133 -51.5q-67 0 -105 35.5t-38 96.5q0 74 57 127zM183 523q0 -81 47 -81q33 0 54 47.5t21 99.5q0 78 -45 78q-35 0 -56 -45.5t-21 -98.5z" />
    <glyph glyph-name="guillemotright" unicode="&#xbb;" horiz-adv-x="485" 
d="M159 74q5 32 123 173q-3 6 -11 21t-12 22t-11.5 21.5t-11.5 22.5t-10 20.5t-8.5 20.5t-5.5 17t-3.5 14t-0.5 9v5q3 18 20 18q23 0 111 -100q42 -47 47 -63q3 -9 3 -18q0 -5 -1 -10q-3 -22 -17.5 -38.5t-56.5 -52.5q-116 -100 -140 -100q-15 0 -15 16v2zM8 74q1 5 3.5 12
t8.5 16t11 17t14.5 20.5t15 20.5t17.5 22.5t17.5 21.5t18.5 22.5t17 20.5q-3 6 -11 21t-12 22t-11.5 21.5t-11.5 22.5t-10 20.5t-8.5 20.5t-5.5 17t-3.5 14t-0.5 9v5q3 18 20 18q21 0 112 -100q25 -28 32 -37t12 -22t5 -24q0 -4 -1 -8q-3 -22 -17 -38t-57 -53
q-116 -100 -140 -100q-15 0 -15 16v2z" />
    <glyph glyph-name="questiondown" unicode="&#xbf;" horiz-adv-x="454" 
d="M-29 -87q7 45 42 85t87 78.5t68 56.5q10 12 25.5 38.5t17.5 39.5q5 25 17.5 30.5t18.5 5.5q11 0 21.5 -10t10.5 -30q0 -5 -1 -11q-6 -45 -28 -88t-44.5 -71t-43.5 -65t-26 -71q-1 -6 -1 -11q0 -17 8.5 -32.5t33.5 -15.5q12 0 22 4.5t19 15.5t14.5 19.5t15.5 26t15 25.5
q25 36 40 46q16 10 38 10q38 0 50.5 -18.5t12.5 -38.5q0 -7 -1 -14q-9 -62 -71.5 -105t-166.5 -43q-100 0 -147.5 37.5t-47.5 88.5q0 8 1 17zM204 465q29 26 67 26q32 0 53.5 -20.5t21.5 -56.5q0 -43 -29 -69t-68 -26q-33 0 -54 19.5t-21 56.5q0 43 30 70z" />
    <glyph glyph-name="Agrave" unicode="&#xc0;" horiz-adv-x="731" 
d="M-22 29q2 16 18.5 26.5t41.5 28.5t41 48l235 432q12 28 12 41q0 5 -3.5 12t-15 21t-11.5 28v4q4 30 38 30h124q30 0 39 -29l137 -533q9 -35 25.5 -53t25 -26t8.5 -21v-6q-3 -18 -16 -25t-44 -7h-183q-28 0 -38 6.5t-10 18.5q0 3 1 7q2 13 13.5 23t22 16t15.5 18.5t5 22.5
q0 12 -4 26l-6 23q-5 22 -16 26q-14 6 -112 6q-89 0 -106 -3.5t-28 -23.5l-19 -34q-15 -33 -15 -46q0 -3 2.5 -10t13 -19t10.5 -24v-4q-4 -29 -53 -29h-94q-29 0 -41.5 6t-12.5 19v4zM293 893q16 17 36 18h1q29 0 85 -49q70 -61 70 -87q0 -21 -49 -21h-5q-29 0 -63 10.5
t-61.5 34.5t-28.5 54v3q0 21 15 37zM252 271q7 -5 80 -5q68 0 77 3t9 13q0 5 -2 11l-51 204l-107 -198q-8 -15 -8 -22q0 -4 2 -6z" />
    <glyph glyph-name="Aacute" unicode="&#xc1;" horiz-adv-x="731" 
d="M-22 29q2 16 18.5 26.5t41.5 28.5t41 48l235 432q12 28 12 41q0 5 -3.5 12t-15 21t-11.5 28v4q4 30 38 30h124q30 0 39 -29l137 -533q9 -35 25.5 -53t25 -26t8.5 -21v-6q-3 -18 -16 -25t-44 -7h-183q-28 0 -38 6.5t-10 18.5q0 3 1 7q2 13 13.5 23t22 16t15.5 18.5t5 22.5
q0 12 -4 26l-6 23q-5 22 -16 26q-14 6 -112 6q-89 0 -106 -3.5t-28 -23.5l-19 -34q-15 -33 -15 -46q0 -3 2.5 -10t13 -19t10.5 -24v-4q-4 -29 -53 -29h-94q-29 0 -41.5 6t-12.5 19v4zM356 775q1 24 70 87q58 49 85 49h1q20 -1 35.5 -17.5t15.5 -37.5v-3q-1 -44 -52.5 -71.5
t-98.5 -27.5h-7q-49 0 -49 21zM252 271q7 -5 80 -5q68 0 77 3t9 13q0 5 -2 11l-51 204l-107 -198q-8 -15 -8 -22q0 -4 2 -6z" />
    <glyph glyph-name="Acircumflex" unicode="&#xc2;" horiz-adv-x="731" 
d="M-22 29q2 16 18.5 26.5t41.5 28.5t41 48l235 432q12 28 12 41q0 5 -3.5 12t-15 21t-11.5 28v4q4 30 38 30h124q30 0 39 -29l137 -533q9 -35 25.5 -53t25 -26t8.5 -21v-6q-3 -18 -16 -25t-44 -7h-183q-28 0 -38 6.5t-10 18.5q0 3 1 7q2 13 13.5 23t22 16t15.5 18.5t5 22.5
q0 12 -4 26l-6 23q-5 22 -16 26q-14 6 -112 6q-89 0 -106 -3.5t-28 -23.5l-19 -34q-15 -33 -15 -46q0 -3 2.5 -10t13 -19t10.5 -24v-4q-4 -29 -53 -29h-94q-29 0 -41.5 6t-12.5 19v4zM269 766q2 11 65 65q10 9 25.5 22.5t21 18.5t16 11.5t20 8.5t22.5 2q16 0 27 -4.5
t15.5 -8.5t18 -20.5t22.5 -26.5q5 -6 12.5 -14.5t11 -13t9 -10.5t8 -9.5t5 -8t3 -6t0.5 -2.5q0 -2 -1 -4q-2 -15 -20 -17q-24 0 -61.5 15.5t-63.5 34.5q-32 -19 -74 -34.5t-65 -15.5q-17 1 -17 17zM252 271q7 -5 80 -5q68 0 77 3t9 13q0 5 -2 11l-51 204l-107 -198
q-8 -15 -8 -22q0 -4 2 -6z" />
    <glyph glyph-name="Atilde" unicode="&#xc3;" horiz-adv-x="731" 
d="M-22 29q2 16 18.5 26.5t41.5 28.5t41 48l235 432q12 28 12 41q0 5 -3.5 12t-15 21t-11.5 28v4q4 30 38 30h124q30 0 39 -29l137 -533q9 -35 25.5 -53t25 -26t8.5 -21v-6q-3 -18 -16 -25t-44 -7h-183q-28 0 -38 6.5t-10 18.5q0 3 1 7q2 13 13.5 23t22 16t15.5 18.5t5 22.5
q0 12 -4 26l-6 23q-5 22 -16 26q-14 6 -112 6q-89 0 -106 -3.5t-28 -23.5l-19 -34q-15 -33 -15 -46q0 -3 2.5 -10t13 -19t10.5 -24v-4q-4 -29 -53 -29h-94q-29 0 -41.5 6t-12.5 19v4zM258 800q4 30 28 52.5t65 22.5q30 0 91 -21t74 -21q36 0 40 30q2 13 10 13q3 0 7 -2
q19 -7 19 -36v-6q-1 -4 -1 -7q-4 -29 -27.5 -51.5t-64.5 -22.5q-25 0 -80 21t-86 21q-37 0 -39 -30q-2 -13 -12 -13q-2 0 -5 1q-19 6 -20 36zM252 271q7 -5 80 -5q68 0 77 3t9 13q0 5 -2 11l-51 204l-107 -198q-8 -15 -8 -22q0 -4 2 -6z" />
    <glyph glyph-name="Adieresis" unicode="&#xc4;" horiz-adv-x="731" 
d="M-22 29q2 16 18.5 26.5t41.5 28.5t41 48l235 432q12 28 12 41q0 5 -3.5 12t-15 21t-11.5 28v4q4 30 38 30h124q30 0 39 -29l137 -533q9 -35 25.5 -53t25 -26t8.5 -21v-6q-3 -18 -16 -25t-44 -7h-183q-28 0 -38 6.5t-10 18.5q0 3 1 7q2 13 13.5 23t22 16t15.5 18.5t5 22.5
q0 12 -4 26l-6 23q-5 22 -16 26q-14 6 -112 6q-89 0 -106 -3.5t-28 -23.5l-19 -34q-15 -33 -15 -46q0 -3 2.5 -10t13 -19t10.5 -24v-4q-4 -29 -53 -29h-94q-29 0 -41.5 6t-12.5 19v4zM252 271q7 -5 80 -5q68 0 77 3t9 13q0 5 -2 11l-51 204l-107 -198q-8 -15 -8 -22
q0 -4 2 -6zM482 870q22 24 54 24q27 0 44 -16t17 -43q0 -32 -24 -53t-57 -21q-24 0 -40.5 14.5t-16.5 38.5q0 31 23 56zM286 814q0 32 22 56t55 24q27 0 43.5 -16t16.5 -43q0 -32 -24 -53t-58 -21q-23 0 -39 15t-16 38z" />
    <glyph glyph-name="Aring" unicode="&#xc5;" horiz-adv-x="731" 
d="M-22 29q2 16 18.5 26.5t41.5 28.5t41 48l235 432q12 28 12 41q0 5 -3.5 12t-15 21t-11.5 28v4q4 30 38 30h124q30 0 39 -29l137 -533q9 -35 25.5 -53t25 -26t8.5 -21v-6q-3 -18 -16 -25t-44 -7h-183q-28 0 -38 6.5t-10 18.5q0 3 1 7q2 13 13.5 23t22 16t15.5 18.5t5 22.5
q0 12 -4 26l-6 23q-5 22 -16 26q-14 6 -112 6q-89 0 -106 -3.5t-28 -23.5l-19 -34q-15 -33 -15 -46q0 -3 2.5 -10t13 -19t10.5 -24v-4q-4 -29 -53 -29h-94q-29 0 -41.5 6t-12.5 19v4zM319 842q6 48 43 78t86 30q47 0 71.5 -26t24.5 -61q0 -8 -1 -18q-7 -48 -44 -78t-85 -30
q-47 0 -71.5 26t-24.5 61q0 8 1 18zM252 271q7 -5 80 -5q68 0 77 3t9 13q0 5 -2 11l-51 204l-107 -198q-8 -15 -8 -22q0 -4 2 -6zM387 844q0 -20 10.5 -32.5t29.5 -12.5q20 0 33 13.5t15 34.5q0 20 -10.5 32t-28.5 12q-21 0 -34 -13t-15 -34z" />
    <glyph glyph-name="AE" unicode="&#xc6;" horiz-adv-x="961" 
d="M-50 23q0 7 4.5 12t7 6.5t10.5 5.5q50 25 81 65l365 479q13 16 13 31q0 13 -10 25q-14 14 -14 27v3q1 13 6.5 18t21.5 5h437q45 0 61.5 -7t21.5 -30q9 -41 12 -102v-7q0 -41 -24 -48q-5 -2 -11 -2q-20 0 -37 29q-25 49 -56 72t-78 23h-42q-45 0 -62.5 -10.5t-20.5 -35.5
l-13 -94q-1 -6 -1 -12q0 -18 12.5 -27.5t46.5 -9.5q42 0 71 17.5t43 17.5q26 0 28 -29l8 -128v-7q0 -20 -5 -29t-22 -13q-4 -1 -8 -1q-13 0 -25.5 13t-21 33t-29 37.5t-49.5 17.5q-36 0 -52 -10t-20 -39l-28 -201v-8q0 -20 13.5 -29t64.5 -9l44 1q54 0 83 25t70 90
q25 39 48 39q3 0 6 -1q16 -4 18 -12.5t2 -14.5q0 -11 -3 -25q-16 -85 -34 -129q-11 -25 -30 -35t-62 -10h-406q-32 0 -43 7t-11 19q0 3 1 6q2 15 12.5 26.5t23 18t25.5 23t19 41.5l8 35h-124q-63 0 -82.5 -5.5t-33.5 -24.5l-26 -34q-6 -8 -9 -14t-4.5 -12t-1.5 -9
q0 -6 5.5 -14t20.5 -16q16 -8 16 -21v-3q-2 -13 -7.5 -18t-21.5 -5h-179q-16 0 -20 4t-4 12q0 3 1 7zM315 252l26 -1h89l39 288l-187 -253q-6 -8 -6 -14q0 -16 39 -20z" />
    <glyph glyph-name="Ccedilla" unicode="&#xc7;" horiz-adv-x="708" 
d="M53 358q22 152 144 252t281 100q37 0 78.5 -9t47.5 -9q14 0 29 8.5t26 8.5q32 0 36 -52q5 -65 5 -144q-1 -25 -8 -37.5t-25 -12.5q-16 0 -25.5 10t-25.5 38q-17 31 -29 48.5t-32 38t-44.5 30t-56.5 9.5q-87 0 -147.5 -63.5t-74.5 -163.5q-5 -34 -5 -65q0 -91 45.5 -172.5
t155.5 -81.5q94 0 196 93q13 12 23 12q7 0 13.5 -7t6.5 -16q0 -11 -9 -24q-40 -69 -122 -113.5t-173 -45.5l-22 -40q94 -15 94 -80q0 -38 -29 -62t-72 -24q-60 0 -87 35q-5 7 -5 13q0 5 4 9.5t11 4.5q6 0 15 -5q19 -12 39 -12q19 0 30 10.5t11 25.5q0 34 -64 48
q-15 3 -15 11q0 4 3 9l32 60q-131 18 -195 107.5t-64 196.5q0 29 4 61z" />
    <glyph glyph-name="Egrave" unicode="&#xc8;" horiz-adv-x="651" 
d="M14 32q2 16 10.5 25.5t19.5 15.5t22.5 16t22 34.5t15.5 62.5l47 328q3 25 3 42q0 12 -2.5 27t-11 27.5t-18 17t-14.5 13t-5 19.5q0 4 1 8q2 18 16.5 25t46.5 7h395q45 0 61.5 -7t20.5 -30q10 -46 13 -102v-6q0 -42 -25 -49q-6 -2 -11 -2q-19 0 -36 29q-25 49 -56 72
t-78 23h-42q-45 0 -62 -10.5t-21 -35.5l-13 -94q-1 -6 -1 -12q0 -18 12 -27.5t47 -9.5q41 0 70.5 17.5t43.5 17.5q15 0 20.5 -7.5t7.5 -21.5l7 -128q1 -8 1 -15q0 -13 -5 -21.5t-22 -12.5q-4 -1 -8 -1q-13 0 -25.5 13t-21 33t-29 37.5t-49.5 17.5q-36 0 -52 -10t-20 -39
l-28 -201q-1 -5 -1 -10q0 -17 14 -26.5t65 -9.5l61 1q42 0 69 25.5t67 89.5q24 39 48 39q3 0 6 -1q16 -4 18 -12.5t2 -14.5q0 -11 -3 -25q-16 -85 -34 -129q-11 -25 -30 -35t-62 -10h-413q-32 0 -43 6.5t-11 20.5v5zM256 893q16 17 36 18h1q29 0 85 -49q70 -61 70 -87
q0 -21 -49 -21h-5q-29 0 -63 10.5t-61.5 34.5t-28.5 54v3q0 21 15 37z" />
    <glyph glyph-name="Eacute" unicode="&#xc9;" horiz-adv-x="651" 
d="M14 32q2 16 10.5 25.5t19.5 15.5t22.5 16t22 34.5t15.5 62.5l47 328q3 25 3 42q0 12 -2.5 27t-11 27.5t-18 17t-14.5 13t-5 19.5q0 4 1 8q2 18 16.5 25t46.5 7h395q45 0 61.5 -7t20.5 -30q10 -46 13 -102v-6q0 -42 -25 -49q-6 -2 -11 -2q-19 0 -36 29q-25 49 -56 72
t-78 23h-42q-45 0 -62 -10.5t-21 -35.5l-13 -94q-1 -6 -1 -12q0 -18 12 -27.5t47 -9.5q41 0 70.5 17.5t43.5 17.5q15 0 20.5 -7.5t7.5 -21.5l7 -128q1 -8 1 -15q0 -13 -5 -21.5t-22 -12.5q-4 -1 -8 -1q-13 0 -25.5 13t-21 33t-29 37.5t-49.5 17.5q-36 0 -52 -10t-20 -39
l-28 -201q-1 -5 -1 -10q0 -17 14 -26.5t65 -9.5l61 1q42 0 69 25.5t67 89.5q24 39 48 39q3 0 6 -1q16 -4 18 -12.5t2 -14.5q0 -11 -3 -25q-16 -85 -34 -129q-11 -25 -30 -35t-62 -10h-413q-32 0 -43 6.5t-11 20.5v5zM389 862q58 49 85 49h1q20 -1 35.5 -17.5t15.5 -37.5v-3
q-1 -44 -52.5 -71.5t-98.5 -27.5h-7q-49 0 -49 21q1 24 70 87z" />
    <glyph glyph-name="Ecircumflex" unicode="&#xca;" horiz-adv-x="651" 
d="M14 32q2 16 10.5 25.5t19.5 15.5t22.5 16t22 34.5t15.5 62.5l47 328q3 25 3 42q0 12 -2.5 27t-11 27.5t-18 17t-14.5 13t-5 19.5q0 4 1 8q2 18 16.5 25t46.5 7h395q45 0 61.5 -7t20.5 -30q10 -46 13 -102v-6q0 -42 -25 -49q-6 -2 -11 -2q-19 0 -36 29q-25 49 -56 72
t-78 23h-42q-45 0 -62 -10.5t-21 -35.5l-13 -94q-1 -6 -1 -12q0 -18 12 -27.5t47 -9.5q41 0 70.5 17.5t43.5 17.5q15 0 20.5 -7.5t7.5 -21.5l7 -128q1 -8 1 -15q0 -13 -5 -21.5t-22 -12.5q-4 -1 -8 -1q-13 0 -25.5 13t-21 33t-29 37.5t-49.5 17.5q-36 0 -52 -10t-20 -39
l-28 -201q-1 -5 -1 -10q0 -17 14 -26.5t65 -9.5l61 1q42 0 69 25.5t67 89.5q24 39 48 39q3 0 6 -1q16 -4 18 -12.5t2 -14.5q0 -11 -3 -25q-16 -85 -34 -129q-11 -25 -30 -35t-62 -10h-413q-32 0 -43 6.5t-11 20.5v5zM296 831q10 9 25.5 22.5t21 18.5t16 11.5t20 8.5t22.5 2
q16 0 27 -4.5t15.5 -8.5t18 -20.5t22.5 -26.5q5 -6 12.5 -14.5t11 -13t9 -10.5t8 -9.5t5 -8t3 -6t0.5 -2.5q0 -2 -1 -4q-2 -15 -20 -17q-24 0 -61.5 15.5t-63.5 34.5q-32 -19 -74 -34.5t-65 -15.5q-17 1 -17 17q2 11 65 65z" />
    <glyph glyph-name="Edieresis" unicode="&#xcb;" horiz-adv-x="651" 
d="M14 32q2 16 10.5 25.5t19.5 15.5t22.5 16t22 34.5t15.5 62.5l47 328q3 25 3 42q0 12 -2.5 27t-11 27.5t-18 17t-14.5 13t-5 19.5q0 4 1 8q2 18 16.5 25t46.5 7h395q45 0 61.5 -7t20.5 -30q10 -46 13 -102v-6q0 -42 -25 -49q-6 -2 -11 -2q-19 0 -36 29q-25 49 -56 72
t-78 23h-42q-45 0 -62 -10.5t-21 -35.5l-13 -94q-1 -6 -1 -12q0 -18 12 -27.5t47 -9.5q41 0 70.5 17.5t43.5 17.5q15 0 20.5 -7.5t7.5 -21.5l7 -128q1 -8 1 -15q0 -13 -5 -21.5t-22 -12.5q-4 -1 -8 -1q-13 0 -25.5 13t-21 33t-29 37.5t-49.5 17.5q-36 0 -52 -10t-20 -39
l-28 -201q-1 -5 -1 -10q0 -17 14 -26.5t65 -9.5l61 1q42 0 69 25.5t67 89.5q24 39 48 39q3 0 6 -1q16 -4 18 -12.5t2 -14.5q0 -11 -3 -25q-16 -85 -34 -129q-11 -25 -30 -35t-62 -10h-413q-32 0 -43 6.5t-11 20.5v5zM422 814q0 31 22.5 55.5t54.5 24.5q27 0 44 -16t17 -43
q0 -32 -24 -53t-57 -21q-24 0 -40.5 14.5t-16.5 38.5zM249 814q0 32 22 56t55 24q27 0 43.5 -16t16.5 -43q0 -32 -24 -53t-58 -21q-23 0 -39 15t-16 38z" />
    <glyph glyph-name="Igrave" unicode="&#xcc;" horiz-adv-x="389" 
d="M14 32q2 19 18 31t35 28t27 45q7 23 9 40l48 348q3 21 3 40q0 21 -5.5 34.5t-13.5 20t-15.5 12t-11.5 13t-4 16.5q0 4 1 8q2 18 15.5 25t47.5 7h183q33 0 44 -6.5t11 -18.5q0 -3 -1 -7q-2 -16 -12.5 -26.5t-22.5 -17t-25 -22t-20 -38.5q-7 -24 -8 -40l-49 -348
q-3 -21 -3 -40q0 -21 5.5 -34.5t13.5 -20t16 -12t12 -13t4 -16.5q0 -4 -1 -8q-3 -18 -16.5 -25t-47.5 -7h-183q-33 0 -44 6.5t-11 18.5q0 3 1 7zM146 893q16 17 36 18h1q29 0 85 -49q70 -61 70 -87q0 -21 -49 -21h-5q-29 0 -63 10.5t-61.5 34.5t-28.5 54v3q0 21 15 37z" />
    <glyph glyph-name="Iacute" unicode="&#xcd;" horiz-adv-x="389" 
d="M14 32q2 19 18 31t35 28t27 45q7 23 9 40l48 348q3 21 3 40q0 21 -5.5 34.5t-13.5 20t-15.5 12t-11.5 13t-4 16.5q0 4 1 8q2 18 15.5 25t47.5 7h183q33 0 44 -6.5t11 -18.5q0 -3 -1 -7q-2 -16 -12.5 -26.5t-22.5 -17t-25 -22t-20 -38.5q-7 -24 -8 -40l-49 -348
q-3 -21 -3 -40q0 -21 5.5 -34.5t13.5 -20t16 -12t12 -13t4 -16.5q0 -4 -1 -8q-3 -18 -16.5 -25t-47.5 -7h-183q-33 0 -44 6.5t-11 18.5q0 3 1 7zM209 775q1 24 70 87q58 49 85 49h1q20 -1 35.5 -17.5t15.5 -37.5v-3q-1 -44 -52.5 -71.5t-98.5 -27.5h-7q-49 0 -49 21z" />
    <glyph glyph-name="Icircumflex" unicode="&#xce;" horiz-adv-x="389" 
d="M14 32q2 19 18 31t35 28t27 45q7 23 9 40l48 348q3 21 3 40q0 21 -5.5 34.5t-13.5 20t-15.5 12t-11.5 13t-4 16.5q0 4 1 8q2 18 15.5 25t47.5 7h183q33 0 44 -6.5t11 -18.5q0 -3 -1 -7q-2 -16 -12.5 -26.5t-22.5 -17t-25 -22t-20 -38.5q-7 -24 -8 -40l-49 -348
q-3 -21 -3 -40q0 -21 5.5 -34.5t13.5 -20t16 -12t12 -13t4 -16.5q0 -4 -1 -8q-3 -18 -16.5 -25t-47.5 -7h-183q-33 0 -44 6.5t-11 18.5q0 3 1 7zM122 766q2 11 65 65q10 9 25.5 22.5t21 18.5t16 11.5t20 8.5t22.5 2q16 0 27 -4.5t15.5 -8.5t18 -20.5t22.5 -26.5
q5 -6 12.5 -14.5t11 -13t9 -10.5t8 -9.5t5 -8t3 -6t0.5 -2.5q0 -2 -1 -4q-2 -15 -20 -17q-24 0 -61.5 15.5t-63.5 34.5q-32 -19 -74 -34.5t-65 -15.5q-17 1 -17 17z" />
    <glyph glyph-name="Idieresis" unicode="&#xcf;" horiz-adv-x="389" 
d="M14 32q2 19 18 31t35 28t27 45q7 23 9 40l48 348q3 21 3 40q0 21 -5.5 34.5t-13.5 20t-15.5 12t-11.5 13t-4 16.5q0 4 1 8q2 18 15.5 25t47.5 7h183q33 0 44 -6.5t11 -18.5q0 -3 -1 -7q-2 -16 -12.5 -26.5t-22.5 -17t-25 -22t-20 -38.5q-7 -24 -8 -40l-49 -348
q-3 -21 -3 -40q0 -21 5.5 -34.5t13.5 -20t16 -12t12 -13t4 -16.5q0 -4 -1 -8q-3 -18 -16.5 -25t-47.5 -7h-183q-33 0 -44 6.5t-11 18.5q0 3 1 7zM312 814q0 31 22.5 55.5t54.5 24.5q27 0 44 -16t17 -43q0 -32 -24 -53t-57 -21q-24 0 -40.5 14.5t-16.5 38.5zM161 870
q22 24 55 24q27 0 43.5 -16t16.5 -43q0 -32 -24 -53t-58 -21q-23 0 -39 15t-16 38q0 32 22 56z" />
    <glyph glyph-name="Eth" unicode="&#xd0;" horiz-adv-x="777" 
d="M15 32q2 19 18 31t35 28t27 45q5 17 9 50l18 127h-27q-19 0 -22 8.5t-3 16.5t2 19q3 29 34 29h27l18 128q4 32 4 50q0 23 -9 38.5t-19.5 22t-17 16t-6.5 21.5v6q3 18 17.5 25t46.5 7h255q99 0 172 -28.5t111.5 -76.5t50.5 -96t12 -87q0 -24 -3 -49
q-22 -156 -136.5 -259.5t-281.5 -103.5h-278q-33 0 -44 6.5t-11 18.5q0 3 1 7zM274 82q15 -15 71 -15q102 0 163 61.5t76 172.5q5 37 5 71q0 96 -49 179.5t-154 83.5q-30 0 -42.5 -8.5t-16.5 -35.5l-28 -205h60q26 0 26 -24v-5q-4 -25 -11 -34.5t-25 -9.5h-61l-25 -184
q-1 -8 -1 -14q0 -22 12 -33z" />
    <glyph glyph-name="Ntilde" unicode="&#xd1;" horiz-adv-x="769" 
d="M-10 29q2 13 17.5 25t32 29t19.5 44l55 396q2 16 2 29q0 16 -3.5 33t-12 27t-17 17t-13.5 15t-5 17q0 3 1 7q3 18 17 25t46 7h98q30 0 53 -28l321 -373l38 274q1 7 1 13q0 13 -5.5 26.5t-15 20.5t-15.5 16t-6 18v5q2 16 14 22t37 6h99q27 0 36 -6t9 -18v-5
q-2 -11 -12 -20.5t-21 -17t-22 -23.5t-14 -37l-75 -535q-6 -38 -33 -38h-25q-28 0 -28 25q0 4 1 9t1 9q0 29 -26 58l-344 398l-51 -372q-1 -7 -1 -13q0 -13 5.5 -26.5t15 -20.5t15.5 -16t6 -18v-5q-2 -16 -14 -22t-37 -6h-98q-28 0 -37 6t-9 18v5zM282 800q4 30 28 52.5
t65 22.5q30 0 91 -21t74 -21q36 0 40 30q2 13 10 13q3 0 7 -2q19 -7 19 -36v-6q-1 -4 -1 -7q-4 -29 -27.5 -51.5t-64.5 -22.5q-25 0 -80 21t-86 21q-37 0 -39 -30q-2 -13 -12 -13q-2 0 -5 1q-19 6 -20 36z" />
    <glyph glyph-name="Ograve" unicode="&#xd2;" horiz-adv-x="775" 
d="M167 587q119 121 289 121q142 0 225 -87t83 -221q0 -170 -115.5 -288.5t-282.5 -118.5h-3q-136 1 -225.5 86.5t-89.5 219.5q0 167 119 288zM270 145q46 -63 124 -63q62 0 106.5 48.5t64.5 117.5t20 146q0 104 -40 168.5t-117 64.5q-62 0 -110 -49t-71.5 -120.5
t-23.5 -149.5q0 -100 47 -163zM338 893q16 17 36 18h1q29 0 85 -49q70 -61 70 -87q0 -21 -49 -21h-5q-29 0 -63 10.5t-61.5 34.5t-28.5 54v3q0 21 15 37z" />
    <glyph glyph-name="Oacute" unicode="&#xd3;" horiz-adv-x="775" 
d="M167 587q119 121 289 121q142 0 225 -87t83 -221q0 -170 -115.5 -288.5t-282.5 -118.5h-3q-136 1 -225.5 86.5t-89.5 219.5q0 167 119 288zM223 308q0 -100 46.5 -163t124.5 -63q62 0 106.5 48.5t64.5 117.5t20 146q0 104 -40 168.5t-117 64.5q-62 0 -110 -49
t-71.5 -120.5t-23.5 -149.5zM401 775q1 24 70 87q58 49 85 49h1q20 -1 35.5 -17.5t15.5 -37.5v-3q-1 -44 -52.5 -71.5t-98.5 -27.5h-7q-49 0 -49 21z" />
    <glyph glyph-name="Ocircumflex" unicode="&#xd4;" horiz-adv-x="775" 
d="M167 587q119 121 289 121q142 0 225 -87t83 -221q0 -170 -115.5 -288.5t-282.5 -118.5h-3q-136 1 -225.5 86.5t-89.5 219.5q0 167 119 288zM270 145q46 -63 124 -63q62 0 106.5 48.5t64.5 117.5t20 146q0 104 -40 168.5t-117 64.5q-62 0 -110 -49t-71.5 -120.5
t-23.5 -149.5q0 -100 47 -163zM314 766q2 11 65 65q10 9 25.5 22.5t21 18.5t16 11.5t20 8.5t22.5 2q16 0 27 -4.5t15.5 -8.5t18 -20.5t22.5 -26.5q5 -6 12.5 -14.5t11 -13t9 -10.5t8 -9.5t5 -8t3 -6t0.5 -2.5q0 -2 -1 -4q-2 -15 -20 -17q-24 0 -61.5 15.5t-63.5 34.5
q-32 -19 -74 -34.5t-65 -15.5q-17 1 -17 17z" />
    <glyph glyph-name="Otilde" unicode="&#xd5;" horiz-adv-x="775" 
d="M167 587q119 121 289 121q142 0 225 -87t83 -221q0 -170 -115.5 -288.5t-282.5 -118.5h-3q-136 1 -225.5 86.5t-89.5 219.5q0 167 119 288zM270 145q46 -63 124 -63q62 0 106.5 48.5t64.5 117.5t20 146q0 104 -40 168.5t-117 64.5q-62 0 -110 -49t-71.5 -120.5
t-23.5 -149.5q0 -100 47 -163zM303 800q4 30 28 52.5t65 22.5q30 0 91 -21t74 -21q36 0 40 30q2 13 10 13q3 0 7 -2q19 -7 19 -36v-6q-1 -4 -1 -7q-4 -29 -27.5 -51.5t-64.5 -22.5q-25 0 -80 21t-86 21q-36 0 -39 -30q-2 -13 -12 -13q-2 0 -5 1q-19 6 -20 36z" />
    <glyph glyph-name="Odieresis" unicode="&#xd6;" horiz-adv-x="775" 
d="M48 299q0 167 119 288t289 121q142 0 225 -87t83 -221q0 -170 -115.5 -288.5t-282.5 -118.5h-3q-136 1 -225.5 86.5t-89.5 219.5zM270 145q46 -63 124 -63q62 0 106.5 48.5t64.5 117.5t20 146q0 104 -40 168.5t-117 64.5q-62 0 -110 -49t-71.5 -120.5t-23.5 -149.5
q0 -100 47 -163zM527 870q22 24 54 24q27 0 44 -16t17 -43q0 -32 -24 -53t-57 -21q-24 0 -40.5 14.5t-16.5 38.5q0 31 23 56zM353 870q22 24 55 24q27 0 43.5 -16t16.5 -43q0 -32 -24 -53t-58 -21q-23 0 -39 15t-16 38q0 32 22 56z" />
    <glyph glyph-name="multiply" unicode="&#xd7;" horiz-adv-x="426" 
d="M37 238q1 8 16 21l123 108l-93 107q-10 11 -10 19q0 1 1 5.5t15 17.5l15 14q15 13 23 13t19 -13l93 -108l122 108q15 13 23.5 13t18.5 -13l12 -14q10 -12 10 -20l-0.5 -4.5t-15.5 -17.5l-123 -107l93 -108q10 -11 10 -19q0 -1 -1 -5.5t-15 -17.5l-15 -13
q-15 -13 -23.5 -13t-18.5 13l-93 107l-122 -107q-15 -13 -23.5 -13t-18.5 13l-12 13q-10 12 -10 20v1z" />
    <glyph glyph-name="Oslash" unicode="&#xd8;" horiz-adv-x="775" 
d="M48 299q0 167 119 288t289 121q60 0 107 -16l55 95q9 15 23 15q9 0 21 -7q18 -11 20.5 -16.5t2.5 -8.5q0 -8 -5 -19l-51 -88q65 -40 100 -109t35 -154q0 -170 -115.5 -288.5t-282.5 -118.5h-3q-59 0 -111 18l-52 -91q-9 -16 -20.5 -16t-25.5 10q-20 11 -20 26q0 8 4 16
l49 85q-65 40 -102 107t-37 151zM223 308q0 -86 34 -145l253 438q-34 26 -82 26q-62 0 -110 -49t-71.5 -120.5t-23.5 -149.5zM394 82q62 0 106.5 48.5t64.5 117.5t20 146q0 86 -27 145l-250 -432q38 -25 86 -25z" />
    <glyph glyph-name="Ugrave" unicode="&#xd9;" horiz-adv-x="764" 
d="M97 668q3 18 17 25t46 7h184q32 0 43.5 -7t11.5 -19q0 -3 -1 -6q-2 -16 -12.5 -27t-22.5 -17t-25.5 -21.5t-19.5 -38.5q-6 -22 -9 -40l-33 -236q-4 -29 -4 -54q0 -61 29.5 -106.5t107.5 -45.5q77 0 128 57t66 161l38 272q1 7 1 13q0 13 -5 26t-14.5 20.5t-15.5 16.5
t-6 18v5q2 17 13.5 22.5t36.5 5.5h99q28 0 36.5 -5.5t8.5 -17.5v-6q-2 -11 -12 -20.5t-21 -17t-21.5 -23.5t-13.5 -37l-36 -244q-26 -180 -107 -259t-228 -79q-146 0 -197 69t-51 171q0 41 7 90l28 204q3 20 3 40q0 25 -8.5 40t-18.5 20t-16 15t-6 22v7zM371 893
q16 17 36 18h1q29 0 85 -49q70 -61 70 -87q0 -21 -49 -21h-5q-29 0 -63 10.5t-61.5 34.5t-28.5 54v3q0 21 15 37z" />
    <glyph glyph-name="Uacute" unicode="&#xda;" horiz-adv-x="764" 
d="M97 668q3 18 17 25t46 7h184q32 0 43.5 -7t11.5 -19q0 -3 -1 -6q-2 -16 -12.5 -27t-22.5 -17t-25.5 -21.5t-19.5 -38.5q-6 -22 -9 -40l-33 -236q-4 -29 -4 -54q0 -61 29.5 -106.5t107.5 -45.5q77 0 128 57t66 161l38 272q1 7 1 13q0 13 -5 26t-14.5 20.5t-15.5 16.5
t-6 18v5q2 17 13.5 22.5t36.5 5.5h99q28 0 36.5 -5.5t8.5 -17.5v-6q-2 -11 -12 -20.5t-21 -17t-21.5 -23.5t-13.5 -37l-36 -244q-26 -180 -107 -259t-228 -79q-146 0 -197 69t-51 171q0 41 7 90l28 204q3 20 3 40q0 25 -8.5 40t-18.5 20t-16 15t-6 22v7zM434 775q1 24 70 87
q58 49 85 49h1q20 -1 35.5 -17.5t15.5 -37.5v-3q-1 -44 -52.5 -71.5t-98.5 -27.5h-7q-49 0 -49 21z" />
    <glyph glyph-name="Ucircumflex" unicode="&#xdb;" horiz-adv-x="764" 
d="M97 668q3 18 17 25t46 7h184q32 0 43.5 -7t11.5 -19q0 -3 -1 -6q-2 -16 -12.5 -27t-22.5 -17t-25.5 -21.5t-19.5 -38.5q-6 -22 -9 -40l-33 -236q-4 -29 -4 -54q0 -61 29.5 -106.5t107.5 -45.5q77 0 128 57t66 161l38 272q1 7 1 13q0 13 -5 26t-14.5 20.5t-15.5 16.5
t-6 18v5q2 17 13.5 22.5t36.5 5.5h99q28 0 36.5 -5.5t8.5 -17.5v-6q-2 -11 -12 -20.5t-21 -17t-21.5 -23.5t-13.5 -37l-36 -244q-26 -180 -107 -259t-228 -79q-146 0 -197 69t-51 171q0 41 7 90l28 204q3 20 3 40q0 25 -8.5 40t-18.5 20t-16 15t-6 22v7zM347 766q2 11 65 65
q10 9 25.5 22.5t21 18.5t16 11.5t20 8.5t22.5 2q16 0 27 -4.5t15.5 -8.5t18 -20.5t22.5 -26.5q5 -6 12.5 -14.5t11 -13t9 -10.5t8 -9.5t5 -8t3 -6t0.5 -2.5q0 -2 -1 -4q-2 -15 -20 -17q-24 0 -61.5 15.5t-63.5 34.5q-32 -19 -74 -34.5t-65 -15.5q-17 1 -17 17z" />
    <glyph glyph-name="Udieresis" unicode="&#xdc;" horiz-adv-x="764" 
d="M97 668q3 18 17 25t46 7h184q32 0 43.5 -7t11.5 -19q0 -3 -1 -6q-2 -16 -12.5 -27t-22.5 -17t-25.5 -21.5t-19.5 -38.5q-6 -22 -9 -40l-33 -236q-4 -29 -4 -54q0 -61 29.5 -106.5t107.5 -45.5q77 0 128 57t66 161l38 272q1 7 1 13q0 13 -5 26t-14.5 20.5t-15.5 16.5
t-6 18v5q2 17 13.5 22.5t36.5 5.5h99q28 0 36.5 -5.5t8.5 -17.5v-6q-2 -11 -12 -20.5t-21 -17t-21.5 -23.5t-13.5 -37l-36 -244q-26 -180 -107 -259t-228 -79q-146 0 -197 69t-51 171q0 41 7 90l28 204q3 20 3 40q0 25 -8.5 40t-18.5 20t-16 15t-6 22v7zM560 870
q22 24 54 24q27 0 44 -16t17 -43q0 -32 -24 -53t-57 -21q-24 0 -40.5 14.5t-16.5 38.5q0 31 23 56zM364 814q0 32 22 56t55 24q27 0 43.5 -16t16.5 -43q0 -32 -24 -53t-58 -21q-23 0 -39 15t-16 38z" />
    <glyph glyph-name="Yacute" unicode="&#xdd;" horiz-adv-x="719" 
d="M53 671q4 29 53 29h209q25 0 35 -6t10 -19v-5q-2 -12 -11.5 -21.5t-17 -15.5t-8.5 -14.5t-1 -11.5q0 -14 12 -35l86 -173l122 169q19 27 21.5 38t2.5 15q0 8 -5.5 13t-11.5 13.5t-6 17.5v5q4 29 53 29h107q28 0 41 -6t13 -19v-4q-2 -13 -14 -22.5t-28 -16t-38.5 -22.5
t-40.5 -40l-197 -258l-19 -135q-3 -21 -3 -40q0 -21 5.5 -34.5t13 -20t15.5 -12t12 -13t4 -16.5q0 -4 -1 -8q-3 -18 -16.5 -25t-46.5 -7h-184q-33 0 -44 6.5t-11 18.5q0 3 1 7q2 16 12.5 27t22.5 17t25.5 21.5t19.5 38.5q7 23 9 40l18 134l-140 263q-13 24 -29 40t-27 21.5
t-17 13t-6 17.5v6zM407 775q1 24 70 87q58 49 85 49h1q20 -1 35.5 -17.5t15.5 -37.5v-3q-1 -44 -52.5 -71.5t-98.5 -27.5h-7q-49 0 -49 21z" />
    <glyph glyph-name="Thorn" unicode="&#xde;" horiz-adv-x="671" 
d="M14 33q2 19 18 31t35 28t27 45q7 23 9 40l55 402q1 7 1 14q0 17 -8.5 31.5t-18 25t-9.5 21.5v4q3 25 52 25h169q44 0 44 -21v-3q-3 -16 -30.5 -38t-31.5 -50h57q151 0 212.5 -54.5t61.5 -131.5q0 -17 -3 -35q-15 -105 -95 -152t-223 -47h-48q-23 0 -23 -31
q0 -25 8.5 -40.5t18.5 -20.5t16.5 -14.5t6.5 -21.5v-7q-3 -18 -16.5 -25t-47.5 -7h-183q-33 0 -44 6.5t-11 18.5q0 3 1 7zM289 242q11 -5 46 -5q58 0 97 32.5t48 92.5q2 13 2 26q0 52 -33.5 92.5t-109.5 40.5q-12 0 -18 -6t-8 -21l-32 -229q-1 -4 -1 -7q0 -13 9 -16z" />
    <glyph glyph-name="germandbls" unicode="&#xdf;" horiz-adv-x="613" 
d="M113 -81l-114 -24q-21 -5 -28.5 6.5t6.5 33.5q2 3 3.5 6t3 7t2.5 7.5t2 9.5t1.5 10.5t2 13t2.5 14.5t2.5 18l2.5 20l63 436q15 102 87 168t178 66q69 0 106 -32t30 -86q-5 -35 -31 -67.5t-51 -56.5t-27 -38q-2 -18 18 -34t98 -65q57 -36 89 -77t25 -99
q-11 -73 -71.5 -120t-148.5 -47q-37 0 -76.5 12.5t-59.5 34.5q-24 28 -15 86q6 46 30 46q11 0 28 -27q59 -84 126 -84q43 0 50 43q3 24 -18 47.5t-70 56.5q-61 41 -77 61q-28 33 -21 83q4 30 38 113.5t39 114.5q8 66 -40 66q-45 0 -63 -69q-6 -23 -16 -93l-75 -534
q-3 -20 -31 -27z" />
    <glyph glyph-name="agrave" unicode="&#xe0;" horiz-adv-x="645" 
d="M33 172q0 131 83.5 223.5t193.5 92.5q34 0 68.5 -9.5t42.5 -9.5q12 0 46.5 10.5t47.5 10.5q19 0 26.5 -10t7.5 -23v-6l-25 -304q-1 -7 -1 -13q0 -36 20 -36q10 0 24 14t22 14q17 0 17 -22q0 -38 -39.5 -76t-100.5 -38q-90 0 -101 83q-65 -83 -164 -83q-73 0 -120.5 50.5
t-47.5 131.5zM263 86q47 0 81 66t40 146l2 33v8q0 38 -19.5 61t-52.5 23q-50 0 -82 -70.5t-33 -150.5v-7q0 -109 64 -109zM286 677q10 20 34 29q6 2 13 2q30 0 80 -41q65 -57 74 -85q1 -4 1 -7q0 -12 -15 -17q-16 -6 -37 -6q-31 0 -84 18t-67 59q-4 13 -4 24q0 13 5 24z" />
    <glyph glyph-name="aacute" unicode="&#xe1;" horiz-adv-x="645" 
d="M117 396q83 92 193 92q34 0 68.5 -9.5t42.5 -9.5q12 0 46.5 10.5t47.5 10.5q19 0 26.5 -10t7.5 -23v-6l-25 -304q-1 -7 -1 -13q0 -36 20 -36q10 0 24 14t22 14q17 0 17 -22q0 -38 -39.5 -76t-100.5 -38q-90 0 -101 83q-65 -83 -164 -83q-73 0 -120.5 50.5t-47.5 131.5
q0 131 84 224zM263 86q47 0 81 66t40 146l2 33v8q0 38 -19.5 61t-52.5 23q-50 0 -82 -70.5t-33 -150.5v-7q0 -109 64 -109zM305 582q10 29 75 85q50 41 78 41q32 0 43 -18.5t11 -33.5q0 -13 -5 -27q-14 -41 -67 -59t-84 -18q-21 0 -37 6q-15 5 -15 17q0 3 1 7z" />
    <glyph glyph-name="acircumflex" unicode="&#xe2;" horiz-adv-x="645" 
d="M33 172q0 131 83.5 223.5t193.5 92.5q34 0 68.5 -9.5t42.5 -9.5q12 0 46.5 10.5t47.5 10.5q19 0 26.5 -10t7.5 -23v-6l-25 -304q-1 -7 -1 -13q0 -36 20 -36q10 0 24 14t22 14q17 0 17 -22q0 -38 -39.5 -76t-100.5 -38q-90 0 -101 83q-65 -83 -164 -83q-73 0 -120.5 50.5
t-47.5 131.5zM263 86q47 0 81 66t40 146l2 33v8q0 38 -19.5 61t-52.5 23q-50 0 -82 -70.5t-33 -150.5v-7q0 -109 64 -109zM266 552q4 19 60 84q26 29 36.5 39t26.5 18t36 8q8 0 14.5 -0.5t12 -2t9 -2.5t8 -4.5t6.5 -5.5t6.5 -8.5t6.5 -10t7.5 -13t8.5 -14.5q39 -66 39 -85
v-3q-2 -16 -20 -16h-1q-38 0 -109 77q-90 -77 -130 -77h-1q-16 0 -16 13v3z" />
    <glyph glyph-name="atilde" unicode="&#xe3;" horiz-adv-x="645" 
d="M117 396q83 92 193 92q34 0 68.5 -9.5t42.5 -9.5q12 0 46.5 10.5t47.5 10.5q19 0 26.5 -10t7.5 -23v-6l-25 -304q-1 -7 -1 -13q0 -36 20 -36q10 0 24 14t22 14q17 0 17 -22q0 -38 -39.5 -76t-100.5 -38q-90 0 -101 83q-65 -83 -164 -83q-73 0 -120.5 50.5t-47.5 131.5
q0 131 84 224zM263 86q47 0 81 66t40 146l2 33v8q0 38 -19.5 61t-52.5 23q-50 0 -82 -70.5t-33 -150.5v-7q0 -109 64 -109zM232 580q4 30 28 52.5t65 22.5q30 0 91 -21t74 -21q36 0 40 30q2 13 10 13q3 0 7 -2q19 -7 19 -36v-6q-1 -4 -1 -7q-4 -29 -27.5 -51.5t-64.5 -22.5
q-25 0 -80 21t-86 21q-37 0 -39 -30q-2 -13 -12 -13q-2 0 -5 1q-19 6 -20 36z" />
    <glyph glyph-name="adieresis" unicode="&#xe4;" horiz-adv-x="645" 
d="M117 396q83 92 193 92q34 0 68.5 -9.5t42.5 -9.5q12 0 46.5 10.5t47.5 10.5q19 0 26.5 -10t7.5 -23v-6l-25 -304q-1 -7 -1 -13q0 -36 20 -36q10 0 24 14t22 14q17 0 17 -22q0 -38 -39.5 -76t-100.5 -38q-90 0 -101 83q-65 -83 -164 -83q-73 0 -120.5 50.5t-47.5 131.5
q0 131 84 224zM263 86q47 0 81 66t40 146l2 33v8q0 38 -19.5 61t-52.5 23q-50 0 -82 -70.5t-33 -150.5v-7q0 -109 64 -109zM436 656q22 24 54 24q28 0 44.5 -16t16.5 -43q0 -32 -24 -53t-56 -21q-25 0 -41.5 14.5t-16.5 38.5q0 31 23 56zM240 600q0 32 22.5 56t54.5 24
q27 0 44 -16t17 -43q0 -32 -24.5 -53t-57.5 -21q-24 0 -40 14.5t-16 38.5z" />
    <glyph glyph-name="aring" unicode="&#xe5;" horiz-adv-x="645" 
d="M117 396q83 92 193 92q34 0 68.5 -9.5t42.5 -9.5q12 0 46.5 10.5t47.5 10.5q19 0 26.5 -10t7.5 -23v-6l-25 -304q-1 -7 -1 -13q0 -36 20 -36q10 0 24 14t22 14q17 0 17 -22q0 -38 -39.5 -76t-100.5 -38q-90 0 -101 83q-65 -83 -164 -83q-73 0 -120.5 50.5t-47.5 131.5
q0 131 84 224zM263 86q47 0 81 66t40 146l2 33v8q0 38 -19.5 61t-52.5 23q-50 0 -82 -70.5t-33 -150.5v-7q0 -109 64 -109zM290 622q6 48 43 78t86 30q47 0 71.5 -26t24.5 -61q0 -8 -1 -18q-7 -48 -44 -78t-85 -30q-47 0 -71.5 26t-24.5 61q0 8 1 18zM358 624
q0 -20 10.5 -32.5t29.5 -12.5q20 0 33 13.5t15 34.5q0 20 -10.5 32t-28.5 12q-21 0 -34 -13t-15 -34z" />
    <glyph glyph-name="ae" unicode="&#xe6;" horiz-adv-x="884" 
d="M123 396q90 94 201 94q104 0 168 -65q86 65 199 65q66 0 110 -30t44 -85q0 -40 -20 -73t-51 -55t-73 -39t-80.5 -26t-78.5 -14q15 -33 45 -52t67 -19q72 0 141 51q11 9 20 9q5 0 10 -4.5t5 -12.5q0 -9 -6 -21q-23 -50 -87 -89.5t-150 -39.5q-79 0 -131.5 34t-71.5 98
q-67 -132 -182 -132q-74 0 -121.5 51t-47.5 133q0 128 90 222zM213 116q17 -35 54 -35q90 0 116 217l10 88v1q0 11 -23 23t-46 12q-60 0 -93 -67t-35 -151v-6q0 -50 17 -82zM547 236q24 4 48 10.5t55 19.5t50 37t19 54q0 28 -18 47.5t-50 19.5q-58 0 -93.5 -50.5
t-35.5 -114.5q0 -23 20 -23h5z" />
    <glyph glyph-name="ccedilla" unicode="&#xe7;" horiz-adv-x="541" 
d="M122 405q86 85 202 85q82 0 134.5 -43.5t52.5 -105.5v-2q-1 -44 -24.5 -70.5t-55.5 -26.5h-9q-56 6 -56 68v6q0 101 -65 101q-45 0 -75 -50.5t-30 -117.5q0 -69 36.5 -108t105.5 -39q64 0 123 46q11 8 19 8q6 0 11 -4.5t5 -13.5q0 -8 -5 -20q-23 -49 -85 -88t-146 -40
l-22 -40q94 -15 94 -80q0 -38 -29 -62t-72 -24q-60 0 -87 35q-5 7 -5 13q0 5 4 9.5t11 4.5q6 0 15 -5q19 -12 39 -12q19 0 30 10.5t11 25.5q0 34 -64 48q-15 3 -15 11q0 4 3 9l33 61q-81 13 -125.5 69t-44.5 136q0 120 86 206z" />
    <glyph glyph-name="egrave" unicode="&#xe8;" horiz-adv-x="545" 
d="M125 401q90 89 227 89q66 0 110.5 -30t44.5 -85q0 -49 -29.5 -88t-78 -62.5t-96.5 -37t-100 -19.5q15 -33 45 -52t67 -19q72 0 141 51q11 9 20 9q5 0 10 -4.5t5 -12.5q0 -9 -6 -21q-23 -50 -86.5 -89.5t-149.5 -39.5q-100 0 -157 53.5t-57 149.5q0 118 90 208zM184 259
q0 -23 20 -23h5q24 4 48 10.5t55 19.5t50 37t19 54q0 28 -18.5 47.5t-49.5 19.5q-58 0 -93.5 -50t-35.5 -115zM202 665q10 20 34 29q6 2 13 2q30 0 80 -41q65 -57 74 -85q1 -4 1 -7q0 -12 -15 -17q-16 -6 -37 -6q-31 0 -84 18t-67 59q-4 13 -4 24q0 13 5 24z" />
    <glyph glyph-name="eacute" unicode="&#xe9;" horiz-adv-x="545" 
d="M125 401q90 89 227 89q66 0 110.5 -30t44.5 -85q0 -49 -29.5 -88t-78 -62.5t-96.5 -37t-100 -19.5q15 -33 45 -52t67 -19q72 0 141 51q11 9 20 9q5 0 10 -4.5t5 -12.5q0 -9 -6 -21q-23 -50 -86.5 -89.5t-149.5 -39.5q-100 0 -157 53.5t-57 149.5q0 118 90 208zM184 259
q0 -23 20 -23h5q24 4 48 10.5t55 19.5t50 37t19 54q0 28 -18.5 47.5t-49.5 19.5q-58 0 -93.5 -50t-35.5 -115zM221 570q10 29 75 85q50 41 78 41q32 0 43 -18.5t11 -33.5q0 -13 -5 -27q-14 -41 -67 -59t-84 -18q-21 0 -37 6q-15 5 -15 17q0 3 1 7z" />
    <glyph glyph-name="ecircumflex" unicode="&#xea;" horiz-adv-x="545" 
d="M125 401q90 89 227 89q66 0 110.5 -30t44.5 -85q0 -49 -29.5 -88t-78 -62.5t-96.5 -37t-100 -19.5q15 -33 45 -52t67 -19q72 0 141 51q11 9 20 9q5 0 10 -4.5t5 -12.5q0 -9 -6 -21q-23 -50 -86.5 -89.5t-149.5 -39.5q-100 0 -157 53.5t-57 149.5q0 118 90 208zM209 236
q24 4 48 10.5t55 19.5t50 37t19 54q0 28 -18.5 47.5t-49.5 19.5q-58 0 -93.5 -50t-35.5 -115q0 -23 20 -23h5zM182 540q4 19 60 84q26 29 36.5 39t26.5 18t36 8q8 0 14.5 -0.5t12 -2t9 -2.5t8 -4.5t6.5 -5.5t6.5 -8.5t6.5 -10t7.5 -13t8.5 -14.5q39 -66 39 -85v-3
q-2 -16 -20 -16h-1q-38 0 -109 77q-90 -77 -130 -77h-1q-16 0 -16 13v3z" />
    <glyph glyph-name="edieresis" unicode="&#xeb;" horiz-adv-x="545" 
d="M35 193q0 118 90 207.5t227 89.5q66 0 110.5 -30t44.5 -85q0 -49 -29.5 -88t-78 -62.5t-96.5 -37t-100 -19.5q15 -33 45 -52t67 -19q72 0 141 51q11 9 20 9q5 0 10 -4.5t5 -12.5q0 -9 -6 -21q-23 -50 -86.5 -89.5t-149.5 -39.5q-100 0 -157 53.5t-57 149.5zM209 236
q24 4 48 10.5t55 19.5t50 37t19 54q0 28 -18.5 47.5t-49.5 19.5q-58 0 -93.5 -50t-35.5 -115q0 -23 20 -23h5zM329 588q0 31 22.5 55.5t54.5 24.5q28 0 44.5 -16t16.5 -43q0 -32 -24 -53t-56 -21q-25 0 -41.5 14.5t-16.5 38.5zM156 588q0 32 22.5 56t54.5 24q27 0 44 -16
t17 -43q0 -32 -24.5 -53t-57.5 -21q-24 0 -40 14.5t-16 38.5z" />
    <glyph glyph-name="igrave" unicode="&#xec;" horiz-adv-x="332" 
d="M39 406q0 14 15 27.5t60 29.5q77 27 106 27t29 -25q0 -5 -1 -10l-44 -308q-2 -12 -2 -20q0 -29 20 -29q10 0 24.5 14t21.5 14q18 0 18 -22q-1 -39 -42 -76.5t-107 -37.5q-48 0 -70.5 28.5t-22.5 68.5q0 15 3 33l32 206q1 7 1 14q0 11 -4.5 21.5t-13 14.5t-16 11.5
t-7.5 18.5zM72 677q10 20 34 29q6 2 13 2q30 0 80 -41q65 -57 74 -85q1 -4 1 -7q0 -12 -15 -17q-16 -6 -37 -6q-31 0 -84 18t-67 59q-4 13 -4 24q0 13 5 24z" />
    <glyph glyph-name="iacute" unicode="&#xed;" horiz-adv-x="332" 
d="M39 406q0 14 15 27.5t60 29.5q77 27 106 27t29 -25q0 -5 -1 -10l-44 -308q-2 -12 -2 -20q0 -29 20 -29q10 0 24.5 14t21.5 14q18 0 18 -22q-1 -39 -42 -76.5t-107 -37.5q-48 0 -70.5 28.5t-22.5 68.5q0 15 3 33l32 206q1 7 1 14q0 11 -4.5 21.5t-13 14.5t-16 11.5
t-7.5 18.5zM91 582q10 29 75 85q50 41 78 41q32 0 43 -18.5t11 -33.5q0 -13 -5 -27q-14 -41 -67 -59t-84 -18q-21 0 -37 6q-15 5 -15 17q0 3 1 7z" />
    <glyph glyph-name="icircumflex" unicode="&#xee;" horiz-adv-x="332" 
d="M54 434q15 13 60 29q77 27 106 27t29 -25q0 -5 -1 -10l-44 -308q-2 -12 -2 -20q0 -29 20 -29q10 0 24.5 14t21.5 14q18 0 18 -22q-1 -39 -42 -76.5t-107 -37.5q-48 0 -70.5 28.5t-22.5 68.5q0 15 3 33l32 206q1 7 1 14q0 11 -4.5 21.5t-13 14.5t-16 11.5t-7.5 18.5
q0 14 15 28zM52 552q4 19 60 84q26 29 36.5 39t26.5 18t36 8q8 0 14.5 -0.5t12 -2t9 -2.5t8 -4.5t6.5 -5.5t6.5 -8.5t6.5 -10t7.5 -13t8.5 -14.5q39 -66 39 -85v-3q-2 -16 -20 -16h-1q-38 0 -109 77q-90 -77 -130 -77h-1q-16 0 -16 13v3z" />
    <glyph glyph-name="idieresis" unicode="&#xef;" horiz-adv-x="332" 
d="M54 434q15 13 60 29q77 27 106 27t29 -25q0 -5 -1 -10l-44 -308q-2 -12 -2 -20q0 -29 20 -29q10 0 24.5 14t21.5 14q18 0 18 -22q-1 -39 -42 -76.5t-107 -37.5q-48 0 -70.5 28.5t-22.5 68.5q0 15 3 33l32 206q1 7 1 14q0 11 -4.5 21.5t-13 14.5t-16 11.5t-7.5 18.5
q0 14 15 28zM222 656q22 24 54 24q28 0 44.5 -16t16.5 -43q0 -32 -24 -53t-56 -21q-25 0 -41.5 14.5t-16.5 38.5q0 31 23 56zM49 656q22 24 54 24q27 0 44 -16t17 -43q0 -32 -24.5 -53t-57.5 -21q-24 0 -40 14.5t-16 38.5q0 32 23 56z" />
    <glyph glyph-name="eth" unicode="&#xf0;" horiz-adv-x="590" 
d="M508 634l-57 -20q109 -136 109 -288q0 -157 -86 -246.5t-216 -89.5q-93 0 -156 58.5t-63 164.5q0 70 31 132.5t90 102.5t133 40q59 0 100 -24q-16 63 -44 115l-79 -27q-28 -9 -35 21q-8 29 21 39l58 20q-17 20 -31 33q-25 23 -6 48q23 28 48 13q37 -21 81 -62l88 30
q29 11 35 -19q7 -30 -21 -41zM271 60q38 1 67 42t42 95.5t12 108.5q-1 51 -18 83t-52 32q-38 -1 -67.5 -39.5t-43 -92t-12.5 -107.5q0 -55 18.5 -88.5t53.5 -33.5z" />
    <glyph glyph-name="ntilde" unicode="&#xf1;" horiz-adv-x="650" 
d="M35 21l44 304q1 7 1 14q0 12 -4.5 22.5t-13 14.5t-16 11t-7.5 18q0 14 14.5 27.5t60.5 29.5q75 27 97 27q28 0 28 -25q0 -4 -1 -9l-13 -82q72 117 185 117q139 0 139 -161q0 -17 -2 -37l-11 -145q-1 -10 -1 -18q0 -14 3 -22.5t14 -8.5q10 0 24 14t22 14q18 0 18 -22
q-1 -38 -41 -76t-103 -38q-47 0 -69.5 30t-22.5 78q0 12 1 25l14 162q4 27 4 48q0 20 -5.5 42t-36.5 22q-17 0 -36 -14.5t-41.5 -45t-43 -89.5t-34.5 -138l-11 -65q-4 -25 -29 -31l-100 -24q-3 -1 -6 -1q-10 0 -15.5 7.5t-5.5 18.5v6zM195 571l1 13q4 30 28 52.5t65 22.5
q30 0 91 -21t74 -21q36 0 40 30q2 13 10 13q3 0 7 -2q19 -7 19 -36v-6q-1 -4 -1 -7q-4 -29 -27.5 -51.5t-64.5 -22.5q-25 0 -80 21t-86 21q-37 0 -39 -30q-2 -13 -12 -13q-2 0 -5 1q-19 6 -20 36z" />
    <glyph glyph-name="ograve" unicode="&#xf2;" horiz-adv-x="598" 
d="M36 202q0 119 90 203.5t213 84.5q104 0 164.5 -58t60.5 -149q0 -128 -85.5 -210.5t-213.5 -82.5q-106 0 -167.5 57t-61.5 155zM198 190q1 -59 19.5 -94.5t55.5 -35.5q36 0 64.5 39t42 91.5t13.5 105.5q0 125 -71 125q-56 0 -89.5 -72.5t-34.5 -158.5zM239 677
q10 20 34 29q6 2 13 2q30 0 80 -41q65 -57 74 -85q1 -4 1 -7q0 -12 -15 -17q-16 -6 -37 -6q-31 0 -84 18t-67 59q-4 13 -4 24q0 13 5 24z" />
    <glyph glyph-name="oacute" unicode="&#xf3;" horiz-adv-x="598" 
d="M126 406q90 84 213 84q104 0 164.5 -58t60.5 -149q0 -128 -85.5 -210.5t-213.5 -82.5q-106 0 -167.5 57t-61.5 155q0 119 90 204zM218 96q18 -36 55 -36q36 0 64.5 39t42 91.5t13.5 105.5q0 125 -71 125q-56 0 -89.5 -72.5t-34.5 -158.5q1 -59 20 -94zM257 582
q10 29 75 85q50 41 78 41q32 0 43 -18.5t11 -33.5q0 -13 -5 -27q-14 -41 -67 -59t-84 -18q-21 0 -37 6q-15 5 -15 17q0 3 1 7z" />
    <glyph glyph-name="ocircumflex" unicode="&#xf4;" horiz-adv-x="598" 
d="M126 406q90 84 213 84q104 0 164.5 -58t60.5 -149q0 -128 -85.5 -210.5t-213.5 -82.5q-106 0 -167.5 57t-61.5 155q0 119 90 204zM198 190q1 -59 19.5 -94.5t55.5 -35.5q36 0 64.5 39t42 91.5t13.5 105.5q0 125 -71 125q-56 0 -89.5 -72.5t-34.5 -158.5zM219 552
q4 19 60 84q26 29 36.5 39t26.5 18t36 8q8 0 14.5 -0.5t12 -2t9 -2.5t8 -4.5t6.5 -5.5t6.5 -8.5t6.5 -10t7.5 -13t8.5 -14.5q39 -66 39 -85v-3q-2 -16 -20 -16h-1q-38 0 -109 77q-90 -77 -130 -77h-1q-16 0 -16 13v3z" />
    <glyph glyph-name="otilde" unicode="&#xf5;" horiz-adv-x="598" 
d="M126 406q90 84 213 84q104 0 164.5 -58t60.5 -149q0 -128 -85.5 -210.5t-213.5 -82.5q-106 0 -167.5 57t-61.5 155q0 119 90 204zM218 96q18 -36 55 -36q36 0 64.5 39t42 91.5t13.5 105.5q0 125 -71 125q-56 0 -89.5 -72.5t-34.5 -158.5q1 -59 20 -94zM185 580
q4 30 28 52.5t65 22.5q30 0 91 -21t74 -21q36 0 40 30q2 13 10 13q3 0 7 -2q19 -7 19 -36v-6q-1 -4 -1 -7q-4 -29 -27.5 -51.5t-64.5 -22.5q-25 0 -80 21t-86 21q-36 0 -39 -30q-2 -13 -12 -13q-2 0 -5 1q-19 6 -20 36z" />
    <glyph glyph-name="odieresis" unicode="&#xf6;" horiz-adv-x="598" 
d="M36 202q0 119 90 203.5t213 84.5q104 0 164.5 -58t60.5 -149q0 -128 -85.5 -210.5t-213.5 -82.5q-106 0 -167.5 57t-61.5 155zM198 190q1 -59 19.5 -94.5t55.5 -35.5q36 0 64.5 39t42 91.5t13.5 105.5q0 125 -71 125q-56 0 -89.5 -72.5t-34.5 -158.5zM366 600
q0 31 22.5 55.5t54.5 24.5q28 0 44.5 -16t16.5 -43q0 -32 -24 -53t-56 -21q-25 0 -41.5 14.5t-16.5 38.5zM193 600q0 32 22.5 56t54.5 24q27 0 44 -16t17 -43q0 -32 -24.5 -53t-57.5 -21q-24 0 -40 14.5t-16 38.5z" />
    <glyph glyph-name="divide" unicode="&#xf7;" horiz-adv-x="427" 
d="M223 447q-27 0 -45 16.5t-18 46.5q0 36 25 58t56 22q26 0 44.5 -17t18.5 -47q0 -35 -24.5 -57t-56.5 -22zM369 328h-325q-18 0 -22.5 6t-2.5 24l2 18q1 18 9 24t26 6h324q18 0 22.5 -6t2.5 -24l-1 -18q-1 -18 -9 -24t-26 -6zM184 138q-27 0 -45 16t-18 46q0 36 25 58.5
t56 22.5q27 0 45 -17t18 -48q0 -35 -24 -56.5t-57 -21.5z" />
    <glyph glyph-name="oslash" unicode="&#xf8;" horiz-adv-x="598" 
d="M36 202q0 119 90 203.5t213 84.5q34 0 68 -8l53 92q11 21 36 21q12 0 21 -6.5t9 -17.5q0 -7 -5 -17l-55 -95q98 -56 98 -176q0 -128 -85.5 -210.5t-213.5 -82.5q-38 0 -66 7l-54 -94q-13 -22 -37 -22q-12 0 -21 6.5t-9 17.5q0 6 6 18l55 95q-103 53 -103 184zM204 131
l158 274q-16 16 -40 16q-56 0 -89.5 -72.5t-34.5 -158.5q0 -32 6 -59zM273 60q36 0 64.5 39t42 91.5t13.5 105.5q0 13 -2 33l-150 -260q13 -9 32 -9z" />
    <glyph glyph-name="ugrave" unicode="&#xf9;" horiz-adv-x="649" 
d="M54 433q14 13 60 29q75 27 112 27q28 0 28 -25q0 -4 -1 -9l-37 -227q-10 -53 -10 -86q0 -16 4.5 -39t41.5 -23q44 0 86.5 63.5t66.5 214.5l12 76q4 25 30 31l100 23q4 1 7 1q8 0 14 -7t6 -18v-6l-47 -310q-2 -12 -2 -21q0 -29 18 -29q10 0 24.5 14t21.5 14q18 0 18 -22
q-1 -39 -42 -76.5t-106 -37.5q-39 0 -64.5 21t-27.5 65q-73 -86 -164 -86q-90 0 -120 44.5t-30 102.5q0 23 4 50l22 138q1 7 1 14q0 12 -4.5 22.5t-13 14.5t-16 11t-7.5 18q0 14 15 28zM267 665q10 20 34 29q6 2 13 2q30 0 80 -41q65 -57 74 -85q1 -4 1 -7q0 -12 -15 -17
q-16 -6 -37 -6q-31 0 -84 18t-67 59q-4 13 -4 24q0 13 5 24z" />
    <glyph glyph-name="uacute" unicode="&#xfa;" horiz-adv-x="649" 
d="M39 405q0 14 14.5 27.5t60.5 29.5q75 27 112 27q28 0 28 -25q0 -4 -1 -9l-37 -227q-10 -53 -10 -86q0 -16 4.5 -39t41.5 -23q44 0 86.5 63.5t66.5 214.5l12 76q4 25 30 31l100 23q4 1 7 1q8 0 14 -7t6 -18v-6l-47 -310q-2 -12 -2 -21q0 -29 18 -29q10 0 24.5 14t21.5 14
q18 0 18 -22q-1 -39 -42 -76.5t-106 -37.5q-39 0 -64.5 21t-27.5 65q-73 -86 -164 -86q-90 0 -120 44.5t-30 102.5q0 23 4 50l22 138q1 7 1 14q0 12 -4.5 22.5t-13 14.5t-16 11t-7.5 18zM286 570q10 29 75 85q50 41 78 41q32 0 43 -18.5t11 -33.5q0 -13 -5 -27
q-14 -41 -67 -59t-84 -18q-21 0 -37 6q-15 5 -15 17q0 3 1 7z" />
    <glyph glyph-name="ucircumflex" unicode="&#xfb;" horiz-adv-x="649" 
d="M39 405q0 14 14.5 27.5t60.5 29.5q75 27 112 27q28 0 28 -25q0 -4 -1 -9l-37 -227q-10 -53 -10 -86q0 -16 4.5 -39t41.5 -23q44 0 86.5 63.5t66.5 214.5l12 76q4 25 30 31l100 23q4 1 7 1q8 0 14 -7t6 -18v-6l-47 -310q-2 -12 -2 -21q0 -29 18 -29q10 0 24.5 14t21.5 14
q18 0 18 -22q-1 -39 -42 -76.5t-106 -37.5q-39 0 -64.5 21t-27.5 65q-73 -86 -164 -86q-90 0 -120 44.5t-30 102.5q0 23 4 50l22 138q1 7 1 14q0 12 -4.5 22.5t-13 14.5t-16 11t-7.5 18zM247 540q4 19 60 84q26 29 36.5 39t26.5 18t36 8q8 0 14.5 -0.5t12 -2t9 -2.5t8 -4.5
t6.5 -5.5t6.5 -8.5t6.5 -10t7.5 -13t8.5 -14.5q39 -66 39 -85v-3q-2 -16 -20 -16h-1q-38 0 -109 77q-90 -77 -130 -77h-1q-16 0 -16 13v3z" />
    <glyph glyph-name="udieresis" unicode="&#xfc;" horiz-adv-x="649" 
d="M39 405q0 14 14.5 27.5t60.5 29.5q75 27 112 27q28 0 28 -25q0 -4 -1 -9l-37 -227q-10 -53 -10 -86q0 -16 4.5 -39t41.5 -23q44 0 86.5 63.5t66.5 214.5l12 76q4 25 30 31l100 23q4 1 7 1q8 0 14 -7t6 -18v-6l-47 -310q-2 -12 -2 -21q0 -29 18 -29q10 0 24.5 14t21.5 14
q18 0 18 -22q-1 -39 -42 -76.5t-106 -37.5q-39 0 -64.5 21t-27.5 65q-73 -86 -164 -86q-90 0 -120 44.5t-30 102.5q0 23 4 50l22 138q1 7 1 14q0 12 -4.5 22.5t-13 14.5t-16 11t-7.5 18zM244 644q22 24 54 24q27 0 44 -16t17 -43q0 -32 -24.5 -53t-57.5 -21q-24 0 -40 14.5
t-16 38.5q0 32 23 56zM394 588q0 31 22.5 55.5t54.5 24.5q28 0 44.5 -16t16.5 -43q0 -32 -24 -53t-56 -21q-25 0 -41.5 14.5t-16.5 38.5z" />
    <glyph glyph-name="yacute" unicode="&#xfd;" horiz-adv-x="533" 
d="M-39 -46q21 23 49 23q39 0 56 -44q1 -1 5.5 -13t5.5 -14l6 -11q4 -9 7 -10.5t9 -6.5t13.5 -6t16.5 -1q24 0 43.5 18t23.5 46q2 10 2 23q0 29 -9 69q-30 146 -97 304q-13 28 -24 36.5t-34 10.5q-13 1 -20 7.5t-7 14.5q0 26 56.5 58t93.5 32q35 0 50 -42q66 -162 118 -374
q73 124 73 211q0 33 -20.5 70.5t-20.5 57.5q0 32 27.5 56t57.5 24q37 0 54 -24.5t17 -58.5q0 -89 -51 -211.5t-99 -197.5q-134 -211 -297 -211q-60 0 -92.5 28.5t-32.5 72.5q0 40 20 63zM214 580q10 29 75 85q50 41 78 41q32 0 43 -18.5t11 -33.5q0 -13 -5 -27
q-14 -41 -67 -59t-84 -18q-21 0 -37 6q-15 5 -15 17q0 3 1 7z" />
    <glyph glyph-name="thorn" unicode="&#xfe;" horiz-adv-x="592" 
d="M-46 -174q2 13 16 24.5t29 28t19 41.5l85 620q1 6 1 12q0 29 -21 47q-13 15 -13 26v3q1 11 9 18.5t27 15.5q33 14 88 31.5t67 17.5q22 0 22 -24q0 -5 -1 -10l-39 -275q72 88 177 88q70 0 106 -52.5t36 -120.5q0 -20 -3 -42q-14 -119 -95.5 -199t-179.5 -80q-42 0 -95 21
l-14 -97q-1 -6 -1 -12q0 -25 18 -45t18 -34v-4q-3 -24 -49 -24h-161q-46 0 -46 22v3zM223 94q18 -33 54 -33h1q52 0 88 67.5t36 167.5v5q0 37 -13.5 65t-47.5 28q-41 0 -77 -52.5t-49 -141.5l-1 -7q-1 -2 -1.5 -6.5t-0.5 -6.5q-2 -15 -2 -29q0 -34 13 -57z" />
    <glyph glyph-name="ydieresis" unicode="&#xff;" horiz-adv-x="533" 
d="M-59 -109q0 40 20.5 63t48.5 23q39 0 56 -44q1 -1 5.5 -13t5.5 -14l6 -11q4 -9 7 -10.5t9 -6.5t13.5 -6t16.5 -1q24 0 43.5 18t23.5 46q2 10 2 23q0 29 -9 69q-30 146 -97 304q-13 28 -24 36.5t-34 10.5q-13 1 -20 7.5t-7 14.5q0 26 56.5 58t93.5 32q35 0 50 -42
q66 -162 118 -374q73 124 73 211q0 33 -20.5 70.5t-20.5 57.5q0 32 27.5 56t57.5 24q37 0 54 -24.5t17 -58.5q0 -89 -51 -211.5t-99 -197.5q-134 -211 -297 -211q-60 0 -92.5 28.5t-32.5 72.5zM345 654q22 24 54 24q28 0 44.5 -16t16.5 -43q0 -32 -24 -53t-56 -21
q-25 0 -41.5 14.5t-16.5 38.5q0 31 23 56zM149 598q0 32 22.5 56t54.5 24q27 0 44 -16t17 -43q0 -32 -24.5 -53t-57.5 -21q-24 0 -40 14.5t-16 38.5z" />
    <glyph glyph-name="Amacron" unicode="&#x100;" horiz-adv-x="731" 
d="M-22 29q2 16 18.5 26.5t41.5 28.5t41 48l235 432q12 28 12 41q0 5 -3.5 12t-15 21t-11.5 28v4q4 30 38 30h124q30 0 39 -29l137 -533q9 -35 25.5 -53t25 -26t8.5 -21v-6q-3 -18 -16 -25t-44 -7h-183q-28 0 -38 6.5t-10 18.5q0 3 1 7q2 13 13.5 23t22 16t15.5 18.5t5 22.5
q0 12 -4 26l-6 23q-5 22 -16 26q-14 6 -112 6q-89 0 -106 -3.5t-28 -23.5l-19 -34q-15 -33 -15 -46q0 -3 2.5 -10t13 -19t10.5 -24v-4q-4 -29 -53 -29h-94q-29 0 -41.5 6t-12.5 19v4zM245 803q5 27 13.5 33.5t40.5 6.5h225q34 0 41.5 -5.5t7.5 -16.5q0 -5 -1 -11
q-3 -27 -12.5 -33.5t-46.5 -6.5h-225q-31 0 -37.5 5t-6.5 17q0 5 1 11zM252 271q7 -5 80 -5q68 0 77 3t9 13q0 5 -2 11l-51 204l-107 -198q-8 -15 -8 -22q0 -4 2 -6z" />
    <glyph glyph-name="amacron" unicode="&#x101;" horiz-adv-x="645" 
d="M33 172q0 131 83.5 223.5t193.5 92.5q34 0 68.5 -9.5t42.5 -9.5q12 0 46.5 10.5t47.5 10.5q19 0 26.5 -10t7.5 -23v-6l-25 -304q-1 -7 -1 -13q0 -36 20 -36q10 0 24 14t22 14q17 0 17 -22q0 -38 -39.5 -76t-100.5 -38q-90 0 -101 83q-65 -83 -164 -83q-73 0 -120.5 50.5
t-47.5 131.5zM263 86q47 0 81 66t40 146l2 33v8q0 38 -19.5 61t-52.5 23q-50 0 -82 -70.5t-33 -150.5v-7q0 -109 64 -109zM231 583q8 27 17.5 33.5t41.5 6.5h225q34 0 40.5 -4.5t6.5 -13.5q0 -6 -3 -15q-8 -27 -18 -33.5t-47 -6.5h-225q-31 0 -36 4.5t-5 11.5t3 17z" />
    <glyph glyph-name="Abreve" unicode="&#x102;" horiz-adv-x="731" 
d="M-22 29q2 16 18.5 26.5t41.5 28.5t41 48l235 432q12 28 12 41q0 5 -3.5 12t-15 21t-11.5 28v4q4 30 38 30h124q30 0 39 -29l137 -533q9 -35 25.5 -53t25 -26t8.5 -21v-6q-3 -18 -16 -25t-44 -7h-183q-28 0 -38 6.5t-10 18.5q0 3 1 7q2 13 13.5 23t22 16t15.5 18.5t5 22.5
q0 12 -4 26l-6 23q-5 22 -16 26q-14 6 -112 6q-89 0 -106 -3.5t-28 -23.5l-19 -34q-15 -33 -15 -46q0 -3 2.5 -10t13 -19t10.5 -24v-4q-4 -29 -53 -29h-94q-29 0 -41.5 6t-12.5 19v4zM286 891q3 33 22 33q11 0 21 -15q20 -29 43 -41.5t60 -12.5q65 0 116 54q15 15 24 15
q15 0 15 -21q0 -5 -1 -12q-8 -60 -56 -98.5t-113 -38.5q-67 0 -99.5 35.5t-32.5 80.5q0 10 1 21zM252 271q7 -5 80 -5q68 0 77 3t9 13q0 5 -2 11l-51 204l-107 -198q-8 -15 -8 -22q0 -4 2 -6z" />
    <glyph glyph-name="abreve" unicode="&#x103;" horiz-adv-x="645" 
d="M117 396q83 92 193 92q34 0 68.5 -9.5t42.5 -9.5q12 0 46.5 10.5t47.5 10.5q19 0 26.5 -10t7.5 -23v-6l-25 -304q-1 -7 -1 -13q0 -36 20 -36q10 0 24 14t22 14q17 0 17 -22q0 -38 -39.5 -76t-100.5 -38q-90 0 -101 83q-65 -83 -164 -83q-73 0 -120.5 50.5t-47.5 131.5
q0 131 84 224zM263 86q47 0 81 66t40 146l2 33v8q0 38 -19.5 61t-52.5 23q-50 0 -82 -70.5t-33 -150.5v-7q0 -109 64 -109zM257 671q3 33 22 33q11 0 21 -15q20 -29 43 -41.5t60 -12.5q65 0 116 54q15 15 24 15q15 0 15 -21q0 -5 -1 -12q-8 -60 -56 -98.5t-113 -38.5
q-67 0 -99.5 35.5t-32.5 80.5q0 10 1 21z" />
    <glyph glyph-name="Aogonek" unicode="&#x104;" horiz-adv-x="731" 
d="M-22 29q2 16 18.5 26.5t41.5 28.5t41 48l235 432q12 28 12 41q0 5 -3.5 12t-15 21t-11.5 28v4q4 30 38 30h124q30 0 39 -29l137 -533q9 -35 25.5 -53t25 -26t8.5 -21v-6q-3 -17 -13.5 -24t-35.5 -8q-37 -45 -37 -83q0 -21 12 -34.5t35 -13.5q16 0 29.5 6.5t19.5 6.5
q8 0 11 -6t3 -10q0 -9 -9 -18q-35 -38 -92 -38q-45 0 -73 24t-28 63q0 60 69 103h-134q-28 0 -38 6.5t-10 18.5q0 3 1 7q2 13 13.5 23t22 16t15.5 18.5t5 22.5q0 12 -4 26l-6 23q-5 22 -16 26q-14 6 -112 6q-89 0 -106 -3.5t-28 -23.5l-19 -34q-15 -33 -15 -46q0 -3 2.5 -10
t13 -19t10.5 -24v-4q-4 -29 -53 -29h-94q-29 0 -41.5 6t-12.5 19v4zM252 271q7 -5 80 -5q68 0 77 3t9 13q0 5 -2 11l-51 204l-107 -198q-8 -15 -8 -22q0 -4 2 -6z" />
    <glyph glyph-name="aogonek" unicode="&#x105;" horiz-adv-x="645" 
d="M117 396q83 92 193 92q34 0 68.5 -9.5t42.5 -9.5q12 0 46.5 10.5t47.5 10.5q19 0 26.5 -10t7.5 -23v-6l-25 -304q-1 -7 -1 -13q0 -36 20 -36q10 0 24 14t22 14q17 0 17 -22q0 -28 -23.5 -59t-62.5 -46q-35 -44 -35 -80q0 -21 12 -34.5t35 -13.5q15 0 35 9q8 4 14 4
q8 0 11 -6t3 -10q0 -9 -9 -18q-35 -38 -92 -38q-45 0 -73 24t-28 63q0 52 53 92q-71 8 -81 82q-65 -83 -164 -83q-73 0 -120.5 50.5t-47.5 131.5q0 131 84 224zM263 86q47 0 81 66t40 146l2 33v8q0 38 -19.5 61t-52.5 23q-50 0 -82 -70.5t-33 -150.5v-7q0 -109 64 -109z" />
    <glyph glyph-name="Cacute" unicode="&#x106;" horiz-adv-x="708" 
d="M53 358q22 152 144 252t281 100q37 0 78.5 -9t47.5 -9q14 0 29 8.5t26 8.5q32 0 36 -52q5 -65 5 -144q-1 -25 -8 -37.5t-25 -12.5q-16 0 -25.5 10t-25.5 38q-17 31 -29 48.5t-32 38t-44.5 30t-56.5 9.5q-87 0 -147.5 -63.5t-74.5 -163.5q-5 -34 -5 -65q0 -91 45.5 -172.5
t155.5 -81.5q94 0 196 93q13 12 23 12q7 0 13.5 -7t6.5 -16q0 -11 -9 -24q-41 -70 -123.5 -114.5t-175.5 -44.5q-153 0 -231.5 93t-78.5 213q0 30 4 62zM377 775q1 24 70 87q58 49 85 49h1q20 -1 35.5 -17.5t15.5 -37.5v-3q-1 -44 -52.5 -71.5t-98.5 -27.5h-7q-49 0 -49 21z
" />
    <glyph glyph-name="cacute" unicode="&#x107;" horiz-adv-x="541" 
d="M36 199q0 120 86 205.5t202 85.5q82 0 134.5 -43.5t52.5 -105.5v-2q-1 -44 -24.5 -70.5t-55.5 -26.5h-9q-56 6 -56 68v6q0 101 -65 101q-45 0 -75 -50.5t-30 -117.5q0 -69 36.5 -108t105.5 -39q64 0 123 46q11 8 19 8q6 0 11 -4.5t5 -13.5q0 -8 -5 -20q-23 -50 -86.5 -89
t-150.5 -39q-103 0 -160.5 59t-57.5 150zM222 582q10 29 75 85q50 41 78 41q32 0 43 -18.5t11 -33.5q0 -13 -5 -27q-14 -41 -67 -59t-84 -18q-21 0 -37 6q-15 5 -15 17q0 3 1 7z" />
    <glyph glyph-name="Cdotaccent" unicode="&#x10a;" horiz-adv-x="708" 
d="M53 358q22 152 144 252t281 100q37 0 78.5 -9t47.5 -9q14 0 29 8.5t26 8.5q32 0 36 -52q5 -65 5 -144q-1 -25 -8 -37.5t-25 -12.5q-16 0 -25.5 10t-25.5 38q-17 31 -29 48.5t-32 38t-44.5 30t-56.5 9.5q-87 0 -147.5 -63.5t-74.5 -163.5q-5 -34 -5 -65q0 -91 45.5 -172.5
t155.5 -81.5q94 0 196 93q13 12 23 12q7 0 13.5 -7t6.5 -16q0 -11 -9 -24q-41 -70 -123.5 -114.5t-175.5 -44.5q-153 0 -231.5 93t-78.5 213q0 30 4 62zM348 821q0 39 35.5 72.5t76.5 33.5h2q30 0 51 -19.5t21 -48.5q-1 -41 -37.5 -72.5t-80.5 -31.5q-32 0 -50 19t-18 44v3z
" />
    <glyph glyph-name="cdotaccent" unicode="&#x10b;" horiz-adv-x="541" 
d="M122 405q86 85 202 85q82 0 134.5 -43.5t52.5 -105.5v-2q-1 -44 -24.5 -70.5t-55.5 -26.5h-9q-56 6 -56 68v6q0 101 -65 101q-45 0 -75 -50.5t-30 -117.5q0 -69 36.5 -108t105.5 -39q64 0 123 46q11 8 19 8q6 0 11 -4.5t5 -13.5q0 -8 -5 -20q-23 -50 -86.5 -89
t-150.5 -39q-103 0 -160.5 59t-57.5 150q0 120 86 206zM220 601q0 39 35.5 72.5t76.5 33.5h2q30 0 51 -19.5t21 -48.5q-1 -41 -37.5 -72.5t-80.5 -31.5q-32 0 -50 19t-18 44v3z" />
    <glyph glyph-name="Ccaron" unicode="&#x10c;" horiz-adv-x="708" 
d="M53 358q22 152 144 252t281 100q37 0 78.5 -9t47.5 -9q14 0 29 8.5t26 8.5q32 0 36 -52q5 -65 5 -144q-1 -25 -8 -37.5t-25 -12.5q-16 0 -25.5 10t-25.5 38q-17 31 -29 48.5t-32 38t-44.5 30t-56.5 9.5q-87 0 -147.5 -63.5t-74.5 -163.5q-5 -34 -5 -65q0 -91 45.5 -172.5
t155.5 -81.5q94 0 196 93q13 12 23 12q7 0 13.5 -7t6.5 -16q0 -11 -9 -24q-41 -70 -123.5 -114.5t-175.5 -44.5q-153 0 -231.5 93t-78.5 213q0 30 4 62zM307 884q3 16 22 16q23 0 60.5 -15t64.5 -34q30 19 72 34t66 15q16 0 16 -13v-3q0 -3 -2.5 -7.5t-9.5 -11.5
t-13.5 -12.5t-19.5 -17t-22 -19.5q-11 -9 -30 -26.5t-24.5 -21t-18 -8t-28.5 -4.5q-13 0 -22 1.5t-17.5 8.5t-12.5 11.5t-16 19t-19 22.5q-46 51 -46 64v1z" />
    <glyph glyph-name="ccaron" unicode="&#x10d;" horiz-adv-x="541" 
d="M36 199q0 120 86 205.5t202 85.5q82 0 134.5 -43.5t52.5 -105.5v-2q-1 -44 -24.5 -70.5t-55.5 -26.5h-9q-56 6 -56 68v6q0 101 -65 101q-45 0 -75 -50.5t-30 -117.5q0 -69 36.5 -108t105.5 -39q64 0 123 46q11 8 19 8q6 0 11 -4.5t5 -13.5q0 -8 -5 -20q-23 -50 -86.5 -89
t-150.5 -39q-103 0 -160.5 59t-57.5 150zM207 725q3 16 21 16q39 0 110 -77q89 77 131 77q15 0 15 -12v-4q-2 -19 -63 -88q-4 -5 -11.5 -13.5t-10.5 -11.5t-8.5 -9.5t-7.5 -8.5l-8 -6q-5 -4 -8 -5t-8 -3t-10 -2.5t-11 -1t-14 -0.5q-28 0 -42 12.5t-38 52.5q-37 61 -37 83v1z
" />
    <glyph glyph-name="Dcaron" unicode="&#x10e;" horiz-adv-x="777" 
d="M15 32q2 19 18 31t35 28t27 45q5 17 9 50l47 328q4 32 4 50q0 23 -9 38.5t-19.5 22t-17 16t-6.5 21.5v6q3 18 17.5 25t46.5 7h255q99 0 172 -28.5t111.5 -76.5t50.5 -96t12 -87q0 -24 -3 -49q-22 -156 -136.5 -259.5t-281.5 -103.5h-278q-33 0 -44 6.5t-11 18.5q0 3 1 7z
M274 82q15 -15 71 -15q102 0 163 61.5t76 172.5q5 37 5 71q0 96 -49 179.5t-154 83.5q-30 0 -42.5 -8.5t-16.5 -35.5l-64 -462q-1 -8 -1 -14q0 -22 12 -33zM270 884q3 16 22 16q23 0 60.5 -15t64.5 -34q30 19 72 34t66 15q16 0 16 -13v-3q0 -3 -2.5 -7.5t-9.5 -11.5
t-13.5 -12.5t-19.5 -17t-22 -19.5q-11 -9 -30 -26.5t-24.5 -21t-18 -8t-28.5 -4.5q-13 0 -22 1.5t-17.5 8.5t-12.5 11.5t-16 19t-19 22.5q-46 51 -46 64v1z" />
    <glyph glyph-name="dcaron" unicode="&#x10f;" horiz-adv-x="623" 
d="M122 397q89 93 204 93q34 0 83 -15l10 71q1 7 1 14q0 12 -4.5 22.5t-13 15t-16 11.5t-7.5 18q0 14 15 27.5t60 29.5q74 26 115 26q28 0 28 -24q0 -5 -1 -10l-77 -529q-2 -12 -2 -21q0 -28 18 -28q10 0 24 14t22 14q17 0 17 -20v-2q0 -39 -41 -76.5t-107 -37.5
q-37 0 -62.5 20t-29.5 60q-63 -80 -156 -80q-80 0 -125 49.5t-45 130.5q0 133 90 227zM209 120q16 -29 49 -29q45 0 77.5 55t43.5 138q4 25 4 46q0 35 -14 63.5t-53 28.5q-56 0 -89.5 -68t-33.5 -159v-5q0 -43 16 -70zM632 488q38 161 38 162q16 59 62 59q25 0 36 -14.5
t11 -32.5q0 -6 -1 -12q-6 -44 -54.5 -115t-75.5 -71q-17 0 -17 15q0 4 1 9z" />
    <glyph glyph-name="Dcroat" unicode="&#x110;" horiz-adv-x="777" 
d="M15 32q2 19 18 31t35 28t27 45q5 17 9 50l18 127h-27q-19 0 -22 8.5t-3 16.5t2 19q3 29 34 29h27l18 128q4 32 4 50q0 23 -9 38.5t-19.5 22t-17 16t-6.5 21.5v6q3 18 17.5 25t46.5 7h255q99 0 172 -28.5t111.5 -76.5t50.5 -96t12 -87q0 -24 -3 -49
q-22 -156 -136.5 -259.5t-281.5 -103.5h-278q-33 0 -44 6.5t-11 18.5q0 3 1 7zM274 82q15 -15 71 -15q102 0 163 61.5t76 172.5q5 37 5 71q0 96 -49 179.5t-154 83.5q-30 0 -42.5 -8.5t-16.5 -35.5l-28 -205h60q26 0 26 -24v-5q-4 -25 -11 -34.5t-25 -9.5h-61l-25 -184
q-1 -8 -1 -14q0 -22 12 -33z" />
    <glyph glyph-name="dcroat" unicode="&#x111;" horiz-adv-x="623" 
d="M122 397q89 93 204 93q34 0 83 -15l4 27h-89q-28 0 -28 32q0 31 28 31h96q-2 22 -21.5 35t-19.5 27t15 27.5t60 29.5q74 26 115 26q28 0 28 -24q0 -5 -1 -10l-17 -113q15 -7 15 -29q0 -29 -23 -32l-52 -355q-2 -12 -2 -21q0 -28 18 -28q10 0 24 14t22 14q17 0 17 -20v-2
q0 -39 -41 -76.5t-107 -37.5q-37 0 -62.5 20t-29.5 60q-63 -80 -156 -80q-80 0 -125 49.5t-45 130.5q0 133 90 227zM209 120q16 -29 49 -29q45 0 77.5 55t43.5 138q4 25 4 46q0 35 -14 63.5t-53 28.5q-56 0 -89.5 -68t-33.5 -159v-5q0 -43 16 -70z" />
    <glyph glyph-name="Emacron" unicode="&#x112;" horiz-adv-x="651" 
d="M14 32q2 16 10.5 25.5t19.5 15.5t22.5 16t22 34.5t15.5 62.5l47 328q3 25 3 42q0 12 -2.5 27t-11 27.5t-18 17t-14.5 13t-5 19.5q0 4 1 8q2 18 16.5 25t46.5 7h395q45 0 61.5 -7t20.5 -30q10 -46 13 -102v-6q0 -42 -25 -49q-6 -2 -11 -2q-19 0 -36 29q-25 49 -56 72
t-78 23h-42q-45 0 -62 -10.5t-21 -35.5l-13 -94q-1 -6 -1 -12q0 -18 12 -27.5t47 -9.5q41 0 70.5 17.5t43.5 17.5q15 0 20.5 -7.5t7.5 -21.5l7 -128q1 -8 1 -15q0 -13 -5 -21.5t-22 -12.5q-4 -1 -8 -1q-13 0 -25.5 13t-21 33t-29 37.5t-49.5 17.5q-36 0 -52 -10t-20 -39
l-28 -201q-1 -5 -1 -10q0 -17 14 -26.5t65 -9.5l61 1q42 0 69 25.5t67 89.5q24 39 48 39q3 0 6 -1q16 -4 18 -12.5t2 -14.5q0 -11 -3 -25q-16 -85 -34 -129q-11 -25 -30 -35t-62 -10h-413q-32 0 -43 6.5t-11 20.5v5zM208 803q5 27 13.5 33.5t40.5 6.5h225q34 0 41.5 -5.5
t7.5 -16.5q0 -5 -1 -11q-3 -27 -12.5 -33.5t-46.5 -6.5h-225q-31 0 -37.5 5t-6.5 17q0 5 1 11z" />
    <glyph glyph-name="emacron" unicode="&#x113;" horiz-adv-x="545" 
d="M35 193q0 118 90 207.5t227 89.5q66 0 110.5 -30t44.5 -85q0 -49 -29.5 -88t-78 -62.5t-96.5 -37t-100 -19.5q15 -33 45 -52t67 -19q72 0 141 51q11 9 20 9q5 0 10 -4.5t5 -12.5q0 -9 -6 -21q-23 -50 -86.5 -89.5t-149.5 -39.5q-100 0 -157 53.5t-57 149.5zM184 259
q0 -23 20 -23h5q24 4 48 10.5t55 19.5t50 37t19 54q0 28 -18.5 47.5t-49.5 19.5q-58 0 -93.5 -50t-35.5 -115zM147 571q8 27 17.5 33.5t41.5 6.5h225q34 0 40.5 -4.5t6.5 -13.5q0 -6 -3 -15q-8 -27 -18 -33.5t-47 -6.5h-225q-31 0 -36 4.5t-5 11.5t3 17z" />
    <glyph glyph-name="Edotaccent" unicode="&#x116;" horiz-adv-x="651" 
d="M14 32q2 16 10.5 25.5t19.5 15.5t22.5 16t22 34.5t15.5 62.5l47 328q3 25 3 42q0 12 -2.5 27t-11 27.5t-18 17t-14.5 13t-5 19.5q0 4 1 8q2 18 16.5 25t46.5 7h395q45 0 61.5 -7t20.5 -30q10 -46 13 -102v-6q0 -42 -25 -49q-6 -2 -11 -2q-19 0 -36 29q-25 49 -56 72
t-78 23h-42q-45 0 -62 -10.5t-21 -35.5l-13 -94q-1 -6 -1 -12q0 -18 12 -27.5t47 -9.5q41 0 70.5 17.5t43.5 17.5q15 0 20.5 -7.5t7.5 -21.5l7 -128q1 -8 1 -15q0 -13 -5 -21.5t-22 -12.5q-4 -1 -8 -1q-13 0 -25.5 13t-21 33t-29 37.5t-49.5 17.5q-36 0 -52 -10t-20 -39
l-28 -201q-1 -5 -1 -10q0 -17 14 -26.5t65 -9.5l61 1q42 0 69 25.5t67 89.5q24 39 48 39q3 0 6 -1q16 -4 18 -12.5t2 -14.5q0 -11 -3 -25q-16 -85 -34 -129q-11 -25 -30 -35t-62 -10h-413q-32 0 -43 6.5t-11 20.5v5zM290 821q0 39 35.5 72.5t76.5 33.5h2q30 0 51 -19.5
t21 -48.5q-1 -41 -37.5 -72.5t-80.5 -31.5q-32 0 -50 19t-18 44v3z" />
    <glyph glyph-name="edotaccent" unicode="&#x117;" horiz-adv-x="545" 
d="M125 401q90 89 227 89q66 0 110.5 -30t44.5 -85q0 -49 -29.5 -88t-78 -62.5t-96.5 -37t-100 -19.5q15 -33 45 -52t67 -19q72 0 141 51q11 9 20 9q5 0 10 -4.5t5 -12.5q0 -9 -6 -21q-23 -50 -86.5 -89.5t-149.5 -39.5q-100 0 -157 53.5t-57 149.5q0 118 90 208zM209 236
q24 4 48 10.5t55 19.5t50 37t19 54q0 28 -18.5 47.5t-49.5 19.5q-58 0 -93.5 -50t-35.5 -115q0 -23 20 -23h5zM219 589q0 39 35.5 72.5t76.5 33.5h2q30 0 51 -19.5t21 -48.5q-1 -41 -37.5 -72.5t-80.5 -31.5q-32 0 -50 19t-18 44v3z" />
    <glyph glyph-name="Eogonek" unicode="&#x118;" horiz-adv-x="651" 
d="M14 32q2 16 10.5 25.5t19.5 15.5t22.5 16t22 34.5t15.5 62.5l47 328q3 25 3 42q0 12 -2.5 27t-11 27.5t-18 17t-14.5 13t-5 19.5q0 4 1 8q2 18 16.5 25t46.5 7h395q45 0 61.5 -7t20.5 -30q10 -46 13 -102v-6q0 -42 -25 -49q-6 -2 -11 -2q-19 0 -36 29q-25 49 -56 72
t-78 23h-42q-45 0 -62 -10.5t-21 -35.5l-13 -94q-1 -6 -1 -12q0 -18 12 -27.5t47 -9.5q41 0 70.5 17.5t43.5 17.5q15 0 20.5 -7.5t7.5 -21.5l7 -128q1 -8 1 -15q0 -13 -5 -21.5t-22 -12.5q-4 -1 -8 -1q-13 0 -25.5 13t-21 33t-29 37.5t-49.5 17.5q-36 0 -52 -10t-20 -39
l-28 -201q-1 -5 -1 -10q0 -17 14 -26.5t65 -9.5l61 1q42 0 69 25.5t67 89.5q24 39 48 39q3 0 6 -1q16 -4 18 -12.5t2 -14.5q0 -11 -3 -25q-16 -85 -34 -129q-9 -21 -24.5 -31.5t-44.5 -12.5q-37 -46 -37 -84q0 -21 12 -34.5t35 -13.5q16 0 29.5 6.5t19.5 6.5q8 0 11 -6
t3 -10q0 -9 -9 -18q-35 -38 -92 -38q-45 0 -73 24t-28 63q0 60 69 103h-376q-32 0 -43 6.5t-11 20.5v5z" />
    <glyph glyph-name="eogonek" unicode="&#x119;" horiz-adv-x="545" 
d="M35 193q0 118 90 207.5t227 89.5q66 0 110.5 -30t44.5 -85q0 -49 -29.5 -88t-78 -62.5t-96.5 -37t-100 -19.5q15 -33 45 -52t67 -19q72 0 141 51q11 9 20 9q5 0 10 -4.5t5 -12.5q0 -9 -6 -21q-20 -44 -74 -81.5t-127 -45.5q-30 -41 -30 -75q0 -21 12 -34.5t35 -13.5
q15 0 35 9q8 4 14 4q8 0 11 -6t3 -10q0 -9 -9 -18q-35 -38 -92 -38q-45 0 -73 24t-28 63q0 54 56 94q-86 8 -134.5 61t-48.5 141zM209 236q24 4 48 10.5t55 19.5t50 37t19 54q0 28 -18.5 47.5t-49.5 19.5q-58 0 -93.5 -50t-35.5 -115q0 -23 20 -23h5z" />
    <glyph glyph-name="Ecaron" unicode="&#x11a;" horiz-adv-x="651" 
d="M14 32q2 16 10.5 25.5t19.5 15.5t22.5 16t22 34.5t15.5 62.5l47 328q3 25 3 42q0 12 -2.5 27t-11 27.5t-18 17t-14.5 13t-5 19.5q0 4 1 8q2 18 16.5 25t46.5 7h395q45 0 61.5 -7t20.5 -30q10 -46 13 -102v-6q0 -42 -25 -49q-6 -2 -11 -2q-19 0 -36 29q-25 49 -56 72
t-78 23h-42q-45 0 -62 -10.5t-21 -35.5l-13 -94q-1 -6 -1 -12q0 -18 12 -27.5t47 -9.5q41 0 70.5 17.5t43.5 17.5q15 0 20.5 -7.5t7.5 -21.5l7 -128q1 -8 1 -15q0 -13 -5 -21.5t-22 -12.5q-4 -1 -8 -1q-13 0 -25.5 13t-21 33t-29 37.5t-49.5 17.5q-36 0 -52 -10t-20 -39
l-28 -201q-1 -5 -1 -10q0 -17 14 -26.5t65 -9.5l61 1q42 0 69 25.5t67 89.5q24 39 48 39q3 0 6 -1q16 -4 18 -12.5t2 -14.5q0 -11 -3 -25q-16 -85 -34 -129q-11 -25 -30 -35t-62 -10h-413q-32 0 -43 6.5t-11 20.5v5zM249 884q3 16 22 16q23 0 60.5 -15t64.5 -34q30 19 72 34
t66 15q16 0 16 -13v-3q0 -3 -2.5 -7.5t-9.5 -11.5t-13.5 -12.5t-19.5 -17t-22 -19.5q-11 -9 -30 -26.5t-24.5 -21t-18 -8t-28.5 -4.5q-13 0 -22 1.5t-17.5 8.5t-12.5 11.5t-16 19t-19 22.5q-46 51 -46 64v1z" />
    <glyph glyph-name="ecaron" unicode="&#x11b;" horiz-adv-x="545" 
d="M125 401q90 89 227 89q66 0 110.5 -30t44.5 -85q0 -49 -29.5 -88t-78 -62.5t-96.5 -37t-100 -19.5q15 -33 45 -52t67 -19q72 0 141 51q11 9 20 9q5 0 10 -4.5t5 -12.5q0 -9 -6 -21q-23 -50 -86.5 -89.5t-149.5 -39.5q-100 0 -157 53.5t-57 149.5q0 118 90 208zM209 236
q24 4 48 10.5t55 19.5t50 37t19 54q0 28 -18.5 47.5t-49.5 19.5q-58 0 -93.5 -50t-35.5 -115q0 -23 20 -23h5zM206 713q3 16 21 16q39 0 110 -77q89 77 131 77q15 0 15 -12v-4q-2 -19 -63 -88q-4 -5 -11.5 -13.5t-10.5 -11.5t-8.5 -9.5t-7.5 -8.5l-8 -6q-5 -4 -8 -5t-8 -3
t-10 -2.5t-11 -1t-14 -0.5q-28 0 -42 12.5t-38 52.5q-37 61 -37 83v1z" />
    <glyph glyph-name="Gbreve" unicode="&#x11e;" horiz-adv-x="766" 
d="M50 337q22 155 140 264t269 109q47 0 92 -9t48 -9q13 0 29 8.5t26 8.5q34 0 36 -52q3 -37 3 -73t-3 -71q-2 -25 -8.5 -37t-22.5 -12h-3q-13 0 -21.5 10t-21.5 38q-28 58 -67 91.5t-105 34.5q-86 0 -142 -64t-70 -165q-7 -48 -7 -91q0 -89 39 -167.5t143 -78.5
q36 0 70.5 17t39.5 48l12 84q1 9 1 18q0 15 -6 29t-20 21.5t-28 12.5t-22.5 12.5t-8.5 17.5v5q3 18 16.5 25.5t46.5 7.5l197 2q27 0 36.5 -6.5t9.5 -20.5v-5q-2 -13 -9.5 -23t-16 -17t-17.5 -27t-13 -51l-11 -77q-7 -58 -102.5 -106.5t-223.5 -48.5q-157 0 -233.5 85.5
t-76.5 199.5q0 30 5 62zM332 891q3 33 22 33q11 0 21 -15q20 -29 43 -41.5t60 -12.5q65 0 116 54q15 15 24 15q15 0 15 -21q0 -5 -1 -12q-8 -60 -56 -98.5t-113 -38.5q-67 0 -99.5 35.5t-32.5 80.5q0 10 1 21z" />
    <glyph glyph-name="gbreve" unicode="&#x11f;" horiz-adv-x="583" 
d="M10 -92q4 24 23.5 45t49.5 32q-51 26 -51 75q0 7 1 13q11 62 88 96q-60 39 -60 111q0 86 78 147.5t187 61.5h1q19 0 39 -1.5t30 -1.5q50 0 101 52q22 25 48 25q18 0 29 -12.5t11 -29.5v-3q-2 -33 -33.5 -52.5t-72.5 -23.5q45 -40 45 -103q0 -89 -73 -146t-182 -57
q-51 0 -95 11q-23 -14 -26 -33v-4q0 -41 91 -41q30 0 93.5 6t85.5 6q68 0 97.5 -26t29.5 -66q0 -9 -1 -18q-12 -82 -101.5 -131.5t-219.5 -49.5q-99 0 -156.5 27.5t-57.5 77.5q0 6 1 13zM201 670q3 33 22 33q11 0 21 -15q20 -29 43 -41.5t60 -12.5q65 0 116 54q15 15 24 15
q15 0 15 -21q0 -5 -1 -12q-8 -60 -56 -98.5t-113 -38.5q-67 0 -99.5 35.5t-32.5 80.5q0 10 1 21zM215 292q0 -43 18 -69.5t53 -26.5q41 0 64 41t23 94q0 42 -17.5 69.5t-52.5 27.5q-40 0 -64 -42t-24 -94zM261 -143q131 0 138 64v5q0 14 -8.5 22.5t-30.5 8.5h-5
q-26 0 -72.5 -2.5t-74.5 -2.5h-18h-5q-46 0 -53 -37v-5q0 -53 129 -53z" />
    <glyph glyph-name="Gdotaccent" unicode="&#x120;" horiz-adv-x="766" 
d="M50 337q22 155 140 264t269 109q47 0 92 -9t48 -9q13 0 29 8.5t26 8.5q34 0 36 -52q3 -37 3 -73t-3 -71q-2 -25 -8.5 -37t-22.5 -12h-3q-13 0 -21.5 10t-21.5 38q-28 58 -67 91.5t-105 34.5q-86 0 -142 -64t-70 -165q-7 -48 -7 -91q0 -89 39 -167.5t143 -78.5
q36 0 70.5 17t39.5 48l12 84q1 9 1 18q0 15 -6 29t-20 21.5t-28 12.5t-22.5 12.5t-8.5 17.5v5q3 18 16.5 25.5t46.5 7.5l197 2q27 0 36.5 -6.5t9.5 -20.5v-5q-2 -13 -9.5 -23t-16 -17t-17.5 -27t-13 -51l-11 -77q-7 -58 -102.5 -106.5t-223.5 -48.5q-157 0 -233.5 85.5
t-76.5 199.5q0 30 5 62zM373 821q0 39 35.5 72.5t76.5 33.5h2q30 0 51 -19.5t21 -48.5q-1 -41 -37.5 -72.5t-80.5 -31.5q-32 0 -50 19t-18 44v3z" />
    <glyph glyph-name="gdotaccent" unicode="&#x121;" horiz-adv-x="583" 
d="M10 -92q4 24 23.5 45t49.5 32q-51 26 -51 75q0 7 1 13q11 62 88 96q-60 39 -60 111q0 86 78 147.5t187 61.5h1q19 0 39 -1.5t30 -1.5q50 0 101 52q22 25 48 25q18 0 29 -12.5t11 -29.5v-3q-2 -33 -33.5 -52.5t-72.5 -23.5q45 -40 45 -103q0 -89 -73 -146t-182 -57
q-51 0 -95 11q-23 -14 -26 -33v-4q0 -41 91 -41q30 0 93.5 6t85.5 6q68 0 97.5 -26t29.5 -66q0 -9 -1 -18q-12 -82 -101.5 -131.5t-219.5 -49.5q-99 0 -156.5 27.5t-57.5 77.5q0 6 1 13zM233 223q18 -27 53 -27q41 0 64 41t23 94q0 42 -17.5 69.5t-52.5 27.5q-40 0 -64 -42
t-24 -94q0 -43 18 -69zM247 600q0 39 35.5 72.5t76.5 33.5h2q30 0 51 -19.5t21 -48.5q-1 -41 -37.5 -72.5t-80.5 -31.5q-32 0 -50 19t-18 44v3zM261 -143q131 0 138 64v5q0 14 -8.5 22.5t-30.5 8.5h-5q-26 0 -72.5 -2.5t-74.5 -2.5h-18h-5q-46 0 -53 -37v-5q0 -53 129 -53z
" />
    <glyph glyph-name="uni0122" unicode="&#x122;" horiz-adv-x="766" 
d="M50 337q22 155 140 264t269 109q47 0 92 -9t48 -9q13 0 29 8.5t26 8.5q34 0 36 -52q3 -37 3 -73t-3 -71q-2 -25 -8.5 -37t-22.5 -12h-3q-13 0 -21.5 10t-21.5 38q-28 58 -67 91.5t-105 34.5q-86 0 -142 -64t-70 -165q-7 -48 -7 -91q0 -89 39 -167.5t143 -78.5
q36 0 70.5 17t39.5 48l12 84q1 9 1 18q0 15 -6 29t-20 21.5t-28 12.5t-22.5 12.5t-8.5 17.5v5q3 18 16.5 25.5t46.5 7.5l197 2q27 0 36.5 -6.5t9.5 -20.5v-5q-2 -13 -9.5 -23t-16 -17t-17.5 -27t-13 -51l-11 -77q-7 -58 -102.5 -106.5t-223.5 -48.5q-157 0 -233.5 85.5
t-76.5 199.5q0 30 5 62zM299 -279q0 7 19.5 28t19.5 40q0 15 -18.5 39t-18.5 51q0 33 23 53.5t51 20.5q30 0 49 -20.5t19 -56.5q0 -62 -44.5 -115t-83.5 -53q-16 0 -16 13z" />
    <glyph glyph-name="uni0123" unicode="&#x123;" horiz-adv-x="583" 
d="M10 -92q4 24 23.5 45t49.5 32q-51 26 -51 75q0 7 1 13q11 62 88 96q-60 39 -60 111q0 86 78 147.5t187 61.5h1q19 0 39 -1.5t30 -1.5q50 0 101 52q22 25 48 25q18 0 29 -12.5t11 -29.5v-3q-2 -33 -33.5 -52.5t-72.5 -23.5q45 -40 45 -103q0 -89 -73 -146t-182 -57
q-51 0 -95 11q-23 -14 -26 -33v-4q0 -41 91 -41q30 0 93.5 6t85.5 6q68 0 97.5 -26t29.5 -66q0 -9 -1 -18q-12 -82 -101.5 -131.5t-219.5 -49.5q-99 0 -156.5 27.5t-57.5 77.5q0 6 1 13zM233 223q18 -27 53 -27q41 0 64 41t23 94q0 42 -17.5 69.5t-52.5 27.5q-40 0 -64 -42
t-24 -94q0 -43 18 -69zM261 -143q131 0 138 64v5q0 14 -8.5 22.5t-30.5 8.5h-5q-26 0 -72.5 -2.5t-74.5 -2.5h-18h-5q-46 0 -53 -37v-5q0 -53 129 -53zM277 595q9 66 66 111q20 17 33 17q6 0 10 -3q3 -2 3 -5q0 -4 -5 -9q-22 -21 -25 -36v-4q0 -14 17 -26q28 -22 28 -48
q0 -5 -1 -9q-4 -26 -22.5 -42.5t-44.5 -16.5q-30 0 -45 16.5t-15 39.5q0 7 1 15z" />
    <glyph glyph-name="Hbar" unicode="&#x126;" horiz-adv-x="852" 
d="M14 32q2 19 18 31t35 28t27 45q7 23 9 40l42 307h-18q-28 0 -28 29v15q0 29 28 29h27v8q0 21 -5.5 34.5t-13.5 20t-15.5 12t-11.5 13t-4 16.5q0 4 1 8q2 18 15.5 25t47.5 7h183q33 0 44 -6.5t11 -18.5q0 -3 -1 -7q-2 -16 -12.5 -26.5t-22.5 -17t-25 -22t-20 -38.5
q-2 -6 -2 -8h293v8q0 25 -8.5 40.5t-18.5 20.5t-16 14.5t-6 21.5v7q3 18 16.5 25t46.5 7h184q32 0 43 -6.5t11 -20.5v-5q-2 -16 -12.5 -26.5t-22.5 -17t-25.5 -22t-19.5 -38.5q-2 -6 -2 -8h33q28 0 28 -29v-15q0 -29 -28 -29h-46l-42 -307q-3 -21 -3 -40q0 -25 8.5 -40.5
t18.5 -20.5t16 -14.5t6 -21.5v-7q-3 -18 -16.5 -25t-46.5 -7h-184q-32 0 -43 6.5t-11 20.5v5q2 16 12.5 27t22.5 17t25.5 21.5t19.5 38.5q7 23 9 40l15 110q1 10 1 18q0 15 -5 20q-13 11 -106 11h-32q-117 0 -135 -8q-14 -6 -18 -33l-17 -118q-3 -21 -3 -40q0 -21 5.5 -34.5
t13.5 -20t16 -12t12 -13t4 -16.5q0 -4 -1 -8q-3 -18 -16.5 -25t-47.5 -7h-183q-33 0 -44 6.5t-11 18.5q0 3 1 7zM311 419q13 -11 106 -11h32q117 0 135 8q15 6 19 33q0 3 1 8l3 26h-296l-4 -26q-1 -10 -1 -18q0 -15 5 -20z" />
    <glyph glyph-name="hbar" unicode="&#x127;" horiz-adv-x="654" 
d="M57 549h62l1 8q1 6 1 12q0 12 -6 22t-16.5 13t-20 9.5t-9.5 18.5q0 13 15.5 25.5t60.5 31.5q61 26 115 26q29 0 29 -26q0 -4 -1 -8l-20 -132h31q28 0 28 -31q0 -32 -28 -32h-40l-14 -97q67 101 169 101q139 0 139 -161q0 -17 -2 -37l-11 -145q-1 -10 -1 -18
q0 -14 3 -22.5t14 -8.5q10 0 24 14t22 14q18 0 18 -22q-1 -38 -41 -76t-103 -38q-47 0 -69.5 30t-22.5 78q0 12 1 25l14 162q4 27 4 48q0 20 -5.5 42t-36.5 22q-17 0 -36.5 -14.5t-41.5 -45t-43 -89.5t-34 -138l-11 -67q-4 -25 -30 -31l-99 -23q-3 -1 -6 -1q-10 0 -15.5 7.5
t-5.5 18.5v6l70 466h-52q-28 0 -28 32q0 31 28 31z" />
    <glyph glyph-name="Imacron" unicode="&#x12a;" horiz-adv-x="389" 
d="M14 32q2 19 18 31t35 28t27 45q7 23 9 40l48 348q3 21 3 40q0 21 -5.5 34.5t-13.5 20t-15.5 12t-11.5 13t-4 16.5q0 4 1 8q2 18 15.5 25t47.5 7h183q33 0 44 -6.5t11 -18.5q0 -3 -1 -7q-2 -16 -12.5 -26.5t-22.5 -17t-25 -22t-20 -38.5q-7 -24 -8 -40l-49 -348
q-3 -21 -3 -40q0 -21 5.5 -34.5t13.5 -20t16 -12t12 -13t4 -16.5q0 -4 -1 -8q-3 -18 -16.5 -25t-47.5 -7h-183q-33 0 -44 6.5t-11 18.5q0 3 1 7zM98 803q5 27 13.5 33.5t40.5 6.5h225q34 0 41.5 -5.5t7.5 -16.5q0 -5 -1 -11q-3 -27 -12.5 -33.5t-46.5 -6.5h-225
q-31 0 -37.5 5t-6.5 17q0 5 1 11z" />
    <glyph glyph-name="imacron" unicode="&#x12b;" horiz-adv-x="332" 
d="M39 406q0 14 15 27.5t60 29.5q77 27 106 27t29 -25q0 -5 -1 -10l-44 -308q-2 -12 -2 -20q0 -29 20 -29q10 0 24.5 14t21.5 14q18 0 18 -22q-1 -39 -42 -76.5t-107 -37.5q-48 0 -70.5 28.5t-22.5 68.5q0 15 3 33l32 206q1 7 1 14q0 11 -4.5 21.5t-13 14.5t-16 11.5
t-7.5 18.5zM17 583q8 27 17.5 33.5t41.5 6.5h225q34 0 40.5 -4.5t6.5 -13.5q0 -6 -3 -15q-8 -27 -18 -33.5t-47 -6.5h-225q-31 0 -36 4.5t-5 11.5t3 17z" />
    <glyph glyph-name="Iogonek" unicode="&#x12e;" horiz-adv-x="389" 
d="M14 32q2 19 18 31t35 28t27 45q7 23 9 40l48 348q3 21 3 40q0 21 -5.5 34.5t-13.5 20t-15.5 12t-11.5 13t-4 16.5q0 4 1 8q2 18 15.5 25t47.5 7h183q33 0 44 -6.5t11 -18.5q0 -3 -1 -7q-2 -16 -12.5 -26.5t-22.5 -17t-25 -22t-20 -38.5q-7 -24 -8 -40l-49 -348
q-3 -21 -3 -40q0 -21 5.5 -34.5t13.5 -20t16 -12t12 -13t4 -16.5q0 -4 -1 -8q-4 -28 -43 -31q-37 -46 -37 -84q0 -21 12 -34.5t35 -13.5q16 0 29.5 6.5t19.5 6.5q8 0 11 -6t3 -10q0 -9 -9 -18q-35 -38 -92 -38q-45 0 -73 24t-28 63q0 60 69 103h-144q-33 0 -44 6.5t-11 18.5
q0 3 1 7z" />
    <glyph glyph-name="iogonek" unicode="&#x12f;" horiz-adv-x="332" 
d="M39 406q0 14 15 27.5t60 29.5q77 27 106 27t29 -25q0 -5 -1 -10l-44 -308q-2 -12 -2 -20q0 -29 20 -29q10 0 24.5 14t21.5 14q18 0 18 -22q-2 -49 -54 -86q-37 -45 -37 -83q0 -21 12 -34.5t35 -13.5q16 0 29.5 6.5t19.5 6.5q8 0 11 -6t3 -10q0 -9 -9 -18q-35 -38 -92 -38
q-45 0 -73 24t-28 63q0 41 34 75q-48 0 -70.5 28.5t-22.5 68.5q0 15 3 33l32 206q1 7 1 14q0 11 -4.5 21.5t-13 14.5t-16 11.5t-7.5 18.5zM89 601q0 39 35.5 72.5t76.5 33.5h2q30 0 51 -19.5t21 -48.5q-1 -41 -37.5 -72.5t-80.5 -31.5q-32 0 -50 19t-18 44v3z" />
    <glyph glyph-name="Idotaccent" unicode="&#x130;" horiz-adv-x="389" 
d="M14 32q2 19 18 31t35 28t27 45q7 23 9 40l48 348q3 21 3 40q0 21 -5.5 34.5t-13.5 20t-15.5 12t-11.5 13t-4 16.5q0 4 1 8q2 18 15.5 25t47.5 7h183q33 0 44 -6.5t11 -18.5q0 -3 -1 -7q-2 -16 -12.5 -26.5t-22.5 -17t-25 -22t-20 -38.5q-7 -24 -8 -40l-49 -348
q-3 -21 -3 -40q0 -21 5.5 -34.5t13.5 -20t16 -12t12 -13t4 -16.5q0 -4 -1 -8q-3 -18 -16.5 -25t-47.5 -7h-183q-33 0 -44 6.5t-11 18.5q0 3 1 7zM180 821q0 39 35.5 72.5t76.5 33.5h2q30 0 51 -19.5t21 -48.5q-1 -41 -37.5 -72.5t-80.5 -31.5q-32 0 -50 19t-18 44v3z" />
    <glyph glyph-name="dotlessi" unicode="&#x131;" horiz-adv-x="332" 
d="M54 434q15 13 60 29q77 27 106 27t29 -25q0 -5 -1 -10l-44 -308q-2 -12 -2 -20q0 -29 20 -29q10 0 24.5 14t21.5 14q18 0 18 -22q-1 -39 -42 -76.5t-107 -37.5q-48 0 -70.5 28.5t-22.5 68.5q0 15 3 33l32 206q1 7 1 14q0 11 -4.5 21.5t-13 14.5t-16 11.5t-7.5 18.5
q0 14 15 28z" />
    <glyph glyph-name="uni0136" unicode="&#x136;" horiz-adv-x="775" 
d="M14 32q2 18 14.5 31t26.5 21.5t28 31.5t19 60l50 348q2 18 2 33q0 13 -3 27.5t-11.5 25.5t-17.5 16t-13.5 14t-4.5 19q0 4 1 9q2 18 15.5 25t47.5 7h183q33 0 44 -6.5t11 -20.5v-5q-3 -18 -15.5 -31t-26.5 -21.5t-28 -31.5t-19 -60l-21 -146l237 194q23 19 25 28t2 12
q0 9 -7.5 15.5t-16 16.5t-8.5 20v4q5 32 50 32h140q31 0 43.5 -7t12.5 -19q0 -3 -1 -6q-2 -16 -11.5 -25t-23 -14t-41 -19.5t-55.5 -37.5l-72 -59l115 -360q10 -30 25 -49.5t26 -26t16.5 -16t5.5 -21.5v-8q-2 -18 -15.5 -25t-45.5 -7h-175q-33 0 -44 6.5t-11 18.5q0 3 1 7
q2 15 17.5 30t23 29t7.5 27q0 11 -4 24l-80 258l-150 -123l-14 -101q-3 -21 -3 -36q0 -12 3 -25.5t11.5 -24.5t17.5 -16t14 -14t5 -20q0 -4 -1 -8q-3 -18 -17 -25t-47 -7h-183q-32 0 -43.5 7t-11.5 19q0 3 1 6zM346 -251q19 21 19 40q0 15 -18.5 39t-18.5 51q0 33 23 53.5
t51 20.5q30 0 49 -20.5t19 -56.5q0 -62 -44.5 -115t-83.5 -53q-16 0 -16 13q0 7 20 28z" />
    <glyph glyph-name="uni0137" unicode="&#x137;" horiz-adv-x="578" 
d="M46 21l74 536q1 6 1 12q0 12 -6 22t-16.5 13t-20 9.5t-9.5 18.5q0 13 15.5 25.5t60.5 31.5q61 26 115 26q28 0 28 -27v-7l-35 -262q66 71 163 71q49 0 84 -27.5t35 -73.5q0 -108 -167 -167q54 -131 111 -131q13 0 27 13t20 13q16 0 16 -24q0 -37 -36.5 -70t-93.5 -33
q-67 0 -105.5 53t-58.5 148q-9 -2 -27 -4l-19 -143q-4 -25 -30 -31l-99 -23q-3 -1 -6 -1q-10 0 -15.5 7.5t-5.5 18.5v6zM203 -251q19 21 19 40q0 15 -18.5 39t-18.5 51q0 33 23 53.5t51 20.5q30 0 49 -20.5t19 -56.5q0 -62 -44.5 -115t-83.5 -53q-16 0 -16 13q0 7 20 28z
M341 277q54 27 55 69v3q0 22 -15 37.5t-42 15.5q-34 0 -64 -35.5t-42 -91.5l-3 -26q57 1 111 28z" />
    <glyph glyph-name="Lacute" unicode="&#x139;" horiz-adv-x="601" 
d="M14 32q2 19 18 31t35 28t27 45q7 23 10 50l47 338q3 21 3 40q0 21 -6 34.5t-14 20t-15.5 12t-11.5 13t-4 16.5q0 4 1 8q3 18 16.5 25t47.5 7h183q33 0 44 -6.5t11 -18.5q0 -3 -1 -7q-2 -19 -18 -31t-35 -28t-27 -45q-7 -24 -8 -40l-57 -407q-1 -4 -1 -8q0 -18 12.5 -27.5
t54.5 -9.5l45 1q30 0 54 15.5t38 34.5t43 63q22 36 43 36q22 0 22 -27q0 -9 -3 -22q-11 -73 -34 -128q-9 -25 -28 -35t-63 -10h-375q-33 0 -44 6.5t-11 18.5q0 3 1 7zM206 775q1 24 70 87q58 49 85 49h1q20 -1 35.5 -17.5t15.5 -37.5v-3q-1 -44 -52.5 -71.5t-98.5 -27.5h-7
q-49 0 -49 21z" />
    <glyph glyph-name="lacute" unicode="&#x13a;" horiz-adv-x="325" 
d="M52 122l59 425q1 7 1 13q0 12 -5 23t-14 15t-16.5 11t-7.5 18q0 9 4 16.5t21.5 18.5t48.5 22q76 26 115 26q28 0 28 -24q0 -5 -1 -10l-75 -529q-1 -9 -1 -16q0 -33 18 -33q10 0 24.5 14t21.5 14q18 0 18 -22q-1 -38 -40 -76t-99 -38q-59 0 -81 25.5t-22 67.5q0 18 3 39z
M155 813q10 29 75 85q50 41 78 41q32 0 43 -18.5t11 -33.5q0 -13 -5 -27q-14 -41 -67 -59t-84 -18q-21 0 -37 6q-15 5 -15 17q0 3 1 7z" />
    <glyph glyph-name="uni013B" unicode="&#x13b;" horiz-adv-x="601" 
d="M14 32q2 19 18 31t35 28t27 45q7 23 10 50l47 338q3 21 3 40q0 21 -6 34.5t-14 20t-15.5 12t-11.5 13t-4 16.5q0 4 1 8q3 18 16.5 25t47.5 7h183q33 0 44 -6.5t11 -18.5q0 -3 -1 -7q-2 -19 -18 -31t-35 -28t-27 -45q-7 -24 -8 -40l-57 -407q-1 -4 -1 -8q0 -18 12.5 -27.5
t54.5 -9.5l45 1q30 0 54 15.5t38 34.5t43 63q22 36 43 36q22 0 22 -27q0 -9 -3 -22q-11 -73 -34 -128q-9 -25 -28 -35t-63 -10h-375q-33 0 -44 6.5t-11 18.5q0 3 1 7zM241 -251q19 21 19 40q0 15 -18.5 39t-18.5 51q0 33 23 53.5t51 20.5q30 0 49 -20.5t19 -56.5
q0 -62 -44.5 -115t-83.5 -53q-16 0 -16 13q0 7 20 28z" />
    <glyph glyph-name="uni013C" unicode="&#x13c;" horiz-adv-x="325" 
d="M52 122l59 425q1 7 1 13q0 12 -5 23t-14 15t-16.5 11t-7.5 18q0 9 4 16.5t21.5 18.5t48.5 22q76 26 115 26q28 0 28 -24q0 -5 -1 -10l-75 -529q-1 -9 -1 -16q0 -33 18 -33q10 0 24.5 14t21.5 14q18 0 18 -22q-1 -38 -40 -76t-99 -38q-59 0 -81 25.5t-22 67.5q0 18 3 39z
M67 -290q0 7 19.5 27.5t19.5 40.5q0 14 -18.5 39t-18.5 51q0 33 23 53.5t51 20.5q30 0 49 -20.5t19 -56.5q0 -62 -44.5 -115t-83.5 -53q-16 0 -16 13z" />
    <glyph glyph-name="Lcaron" unicode="&#x13d;" horiz-adv-x="601" 
d="M14 32q2 19 18 31t35 28t27 45q7 23 10 50l47 338q3 21 3 40q0 21 -6 34.5t-14 20t-15.5 12t-11.5 13t-4 16.5q0 4 1 8q3 18 16.5 25t47.5 7h183q33 0 44 -6.5t11 -18.5q0 -3 -1 -7q-2 -19 -18 -31t-35 -28t-27 -45q-7 -24 -8 -40l-57 -407q-1 -4 -1 -8q0 -18 12.5 -27.5
t54.5 -9.5l45 1q30 0 54 15.5t38 34.5t43 63q22 36 43 36q22 0 22 -27q0 -9 -3 -22q-11 -73 -34 -128q-9 -25 -28 -35t-63 -10h-375q-33 0 -44 6.5t-11 18.5q0 3 1 7zM404 488q7 27 22 92t16 70q17 59 62 59q25 0 36.5 -14.5t11.5 -32.5q0 -6 -1 -12q-7 -45 -55.5 -115.5
t-75.5 -70.5q-17 0 -17 15q0 4 1 9z" />
    <glyph glyph-name="lcaron" unicode="&#x13e;" horiz-adv-x="325" 
d="M52 122l59 425q1 7 1 13q0 12 -5 23t-14 15t-16.5 11t-7.5 18q0 9 4 16.5t21.5 18.5t48.5 22q76 26 115 26q28 0 28 -24q0 -5 -1 -10l-75 -529q-1 -9 -1 -16q0 -33 18 -33q10 0 24.5 14t21.5 14q18 0 18 -22q-1 -38 -40 -76t-99 -38q-59 0 -81 25.5t-22 67.5q0 18 3 39z
M292 486q5 19 14 57.5t16 68t9 35.5q15 59 62 59q24 0 35.5 -14.5t11.5 -32.5q0 -5 -1 -11q-6 -44 -54.5 -115t-75.5 -71q-18 0 -18 17q0 3 1 7z" />
    <glyph glyph-name="Lslash" unicode="&#x141;" horiz-adv-x="601" 
d="M14 32q2 19 18 31t35 28t27 45q7 23 10 50l10 71l-18 -10q-8 -5 -15 -5q-15 0 -26 21q-8 14 -8 24q0 14 14 21l65 38l25 178q3 21 3 40q0 21 -6 34.5t-14 20t-15.5 12t-11.5 13t-4 16.5q0 4 1 8q3 18 16.5 25t47.5 7h183q33 0 44 -6.5t11 -18.5q0 -3 -1 -7
q-2 -19 -18 -31t-35 -28t-27 -45q-7 -24 -8 -40l-10 -73l15 9q8 4 15 4q16 0 28 -22q8 -12 8 -22q0 -13 -15 -22l-64 -37l-34 -244q-1 -4 -1 -8q0 -18 12.5 -27.5t54.5 -9.5l45 1q30 0 54 15.5t38 34.5t43 63q22 36 43 36q22 0 22 -27q0 -9 -3 -22q-11 -73 -34 -128
q-9 -25 -28 -35t-63 -10h-375q-33 0 -44 6.5t-11 18.5q0 3 1 7z" />
    <glyph glyph-name="lslash" unicode="&#x142;" horiz-adv-x="325" 
d="M10 287l71 41l30 219q1 7 1 13q0 12 -5 23t-14 15t-16.5 11t-7.5 18q0 9 4 16.5t21.5 18.5t48.5 22q76 26 115 26q28 0 28 -24q0 -5 -1 -10l-35 -249l21 12q8 4 15 4q16 0 28 -22q8 -12 8 -22q0 -13 -15 -22l-70 -40l-27 -190q-1 -9 -1 -16q0 -33 18 -33q10 0 24.5 14
t21.5 14q18 0 18 -22q-1 -38 -40 -76t-99 -38q-59 0 -81 25.5t-22 67.5q0 18 3 39l16 117l-23 -13q-8 -5 -15 -5q-15 0 -26 21q-8 14 -8 24q0 14 14 21z" />
    <glyph glyph-name="Nacute" unicode="&#x143;" horiz-adv-x="769" 
d="M-10 29q2 13 17.5 25t32 29t19.5 44l55 396q2 16 2 29q0 16 -3.5 33t-12 27t-17 17t-13.5 15t-5 17q0 3 1 7q3 18 17 25t46 7h98q30 0 53 -28l321 -373l38 274q1 7 1 13q0 13 -5.5 26.5t-15 20.5t-15.5 16t-6 18v5q2 16 14 22t37 6h99q27 0 36 -6t9 -18v-5
q-2 -11 -12 -20.5t-21 -17t-22 -23.5t-14 -37l-75 -535q-6 -38 -33 -38h-25q-28 0 -28 25q0 4 1 9t1 9q0 29 -26 58l-344 398l-51 -372q-1 -7 -1 -13q0 -13 5.5 -26.5t15 -20.5t15.5 -16t6 -18v-5q-2 -16 -14 -22t-37 -6h-98q-28 0 -37 6t-9 18v5zM380 775q1 24 70 87
q58 49 85 49h1q20 -1 35.5 -17.5t15.5 -37.5v-3q-1 -44 -52.5 -71.5t-98.5 -27.5h-7q-49 0 -49 21z" />
    <glyph glyph-name="nacute" unicode="&#x144;" horiz-adv-x="650" 
d="M35 21l44 304q1 7 1 14q0 12 -4.5 22.5t-13 14.5t-16 11t-7.5 18q0 14 14.5 27.5t60.5 29.5q75 27 97 27q28 0 28 -25q0 -4 -1 -9l-13 -82q72 117 185 117q139 0 139 -161q0 -17 -2 -37l-11 -145q-1 -10 -1 -18q0 -14 3 -22.5t14 -8.5q10 0 24 14t22 14q18 0 18 -22
q-1 -38 -41 -76t-103 -38q-47 0 -69.5 30t-22.5 78q0 12 1 25l14 162q4 27 4 48q0 20 -5.5 42t-36.5 22q-17 0 -36 -14.5t-41.5 -45t-43 -89.5t-34.5 -138l-11 -65q-4 -25 -29 -31l-100 -24q-3 -1 -6 -1q-10 0 -15.5 7.5t-5.5 18.5v6zM269 586q10 29 75 85q50 41 78 41
q32 0 43 -18.5t11 -33.5q0 -13 -5 -27q-14 -41 -67 -59t-84 -18q-21 0 -37 6q-15 5 -15 17q0 3 1 7z" />
    <glyph glyph-name="uni0145" unicode="&#x145;" horiz-adv-x="769" 
d="M-10 29q2 13 17.5 25t32 29t19.5 44l55 396q2 16 2 29q0 16 -3.5 33t-12 27t-17 17t-13.5 15t-5 17q0 3 1 7q3 18 17 25t46 7h98q30 0 53 -28l321 -373l38 274q1 7 1 13q0 13 -5.5 26.5t-15 20.5t-15.5 16t-6 18v5q2 16 14 22t37 6h99q27 0 36 -6t9 -18v-5
q-2 -11 -12 -20.5t-21 -17t-22 -23.5t-14 -37l-75 -535q-6 -38 -33 -38h-25q-28 0 -28 25q0 4 1 9t1 9q0 29 -26 58l-344 398l-51 -372q-1 -7 -1 -13q0 -13 5.5 -26.5t15 -20.5t15.5 -16t6 -18v-5q-2 -16 -14 -22t-37 -6h-98q-28 0 -37 6t-9 18v5zM277 -279q0 7 19.5 28
t19.5 40q0 15 -18.5 39t-18.5 51q0 33 23 53.5t51 20.5q30 0 49 -20.5t19 -56.5q0 -62 -44.5 -115t-83.5 -53q-16 0 -16 13z" />
    <glyph glyph-name="uni0146" unicode="&#x146;" horiz-adv-x="650" 
d="M35 21l44 304q1 7 1 14q0 12 -4.5 22.5t-13 14.5t-16 11t-7.5 18q0 14 14.5 27.5t60.5 29.5q75 27 97 27q28 0 28 -25q0 -4 -1 -9l-13 -82q72 117 185 117q139 0 139 -161q0 -17 -2 -37l-11 -145q-1 -10 -1 -18q0 -14 3 -22.5t14 -8.5q10 0 24 14t22 14q18 0 18 -22
q-1 -38 -41 -76t-103 -38q-47 0 -69.5 30t-22.5 78q0 12 1 25l14 162q4 27 4 48q0 20 -5.5 42t-36.5 22q-17 0 -36 -14.5t-41.5 -45t-43 -89.5t-34.5 -138l-11 -65q-4 -25 -29 -31l-100 -24q-3 -1 -6 -1q-10 0 -15.5 7.5t-5.5 18.5v6zM212 -279q0 7 19.5 28t19.5 40
q0 15 -18.5 39t-18.5 51q0 33 23 53.5t51 20.5q30 0 49 -20.5t19 -56.5q0 -62 -44.5 -115t-83.5 -53q-16 0 -16 13z" />
    <glyph glyph-name="Ncaron" unicode="&#x147;" horiz-adv-x="769" 
d="M-10 29q2 13 17.5 25t32 29t19.5 44l55 396q2 16 2 29q0 16 -3.5 33t-12 27t-17 17t-13.5 15t-5 17q0 3 1 7q3 18 17 25t46 7h98q30 0 53 -28l321 -373l38 274q1 7 1 13q0 13 -5.5 26.5t-15 20.5t-15.5 16t-6 18v5q2 16 14 22t37 6h99q27 0 36 -6t9 -18v-5
q-2 -11 -12 -20.5t-21 -17t-22 -23.5t-14 -37l-75 -535q-6 -38 -33 -38h-25q-28 0 -28 25q0 4 1 9t1 9q0 29 -26 58l-344 398l-51 -372q-1 -7 -1 -13q0 -13 5.5 -26.5t15 -20.5t15.5 -16t6 -18v-5q-2 -16 -14 -22t-37 -6h-98q-28 0 -37 6t-9 18v5zM310 884q3 16 22 16
q23 0 60.5 -15t64.5 -34q30 19 72 34t66 15q16 0 16 -13v-3q0 -3 -2.5 -7.5t-9.5 -11.5t-13.5 -12.5t-19.5 -17t-22 -19.5q-11 -9 -30 -26.5t-24.5 -21t-18 -8t-28.5 -4.5q-13 0 -22 1.5t-17.5 8.5t-12.5 11.5t-16 19t-19 22.5q-46 51 -46 64v1z" />
    <glyph glyph-name="ncaron" unicode="&#x148;" horiz-adv-x="650" 
d="M35 21l44 304q1 7 1 14q0 12 -4.5 22.5t-13 14.5t-16 11t-7.5 18q0 14 14.5 27.5t60.5 29.5q75 27 97 27q28 0 28 -25q0 -4 -1 -9l-13 -82q72 117 185 117q139 0 139 -161q0 -17 -2 -37l-11 -145q-1 -10 -1 -18q0 -14 3 -22.5t14 -8.5q10 0 24 14t22 14q18 0 18 -22
q-1 -38 -41 -76t-103 -38q-47 0 -69.5 30t-22.5 78q0 12 1 25l14 162q4 27 4 48q0 20 -5.5 42t-36.5 22q-17 0 -36 -14.5t-41.5 -45t-43 -89.5t-34.5 -138l-11 -65q-4 -25 -29 -31l-100 -24q-3 -1 -6 -1q-10 0 -15.5 7.5t-5.5 18.5v6zM254 729q3 16 21 16q39 0 110 -77
q89 77 131 77q15 0 15 -12v-4q-2 -19 -63 -88q-4 -5 -11.5 -13.5t-10.5 -11.5t-8.5 -9.5t-7.5 -8.5l-8 -6q-5 -4 -8 -5t-8 -3t-10 -2.5t-11 -1t-14 -0.5q-28 0 -42 12.5t-38 52.5q-37 61 -37 83v1z" />
    <glyph glyph-name="Omacron" unicode="&#x14c;" horiz-adv-x="775" 
d="M167 587q119 121 289 121q142 0 225 -87t83 -221q0 -170 -115.5 -288.5t-282.5 -118.5h-3q-136 1 -225.5 86.5t-89.5 219.5q0 167 119 288zM270 145q46 -63 124 -63q62 0 106.5 48.5t64.5 117.5t20 146q0 104 -40 168.5t-117 64.5q-62 0 -110 -49t-71.5 -120.5
t-23.5 -149.5q0 -100 47 -163zM290 803q5 27 13.5 33.5t40.5 6.5h225q34 0 41.5 -5.5t7.5 -16.5q0 -5 -1 -11q-3 -27 -12.5 -33.5t-46.5 -6.5h-225q-31 0 -37.5 5t-6.5 17q0 5 1 11z" />
    <glyph glyph-name="omacron" unicode="&#x14d;" horiz-adv-x="598" 
d="M126 406q90 84 213 84q104 0 164.5 -58t60.5 -149q0 -128 -85.5 -210.5t-213.5 -82.5q-106 0 -167.5 57t-61.5 155q0 119 90 204zM218 96q18 -36 55 -36q36 0 64.5 39t42 91.5t13.5 105.5q0 125 -71 125q-56 0 -89.5 -72.5t-34.5 -158.5q1 -59 20 -94zM184 583
q8 27 17.5 33.5t41.5 6.5h225q34 0 40.5 -4.5t6.5 -13.5q0 -6 -3 -15q-8 -27 -18 -33.5t-47 -6.5h-225q-31 0 -36 4.5t-5 11.5t3 17z" />
    <glyph glyph-name="Ohungarumlaut" unicode="&#x150;" horiz-adv-x="775" 
d="M48 299q0 167 119 288t289 121q142 0 225 -87t83 -221q0 -170 -115.5 -288.5t-282.5 -118.5h-3q-136 1 -225.5 86.5t-89.5 219.5zM270 145q46 -63 124 -63q62 0 106.5 48.5t64.5 117.5t20 146q0 104 -40 168.5t-117 64.5q-62 0 -110 -49t-71.5 -120.5t-23.5 -149.5
q0 -100 47 -163zM283 775q0 22 71 84q57 50 84 50q23 0 38.5 -15t15.5 -32q0 -38 -59.5 -71.5t-109.5 -33.5q-40 0 -40 18zM483 775q1 13 25.5 37.5t48.5 42.5q61 46 87 46h1q22 -1 36 -16.5t14 -31.5v-2q-2 -38 -60.5 -67t-106.5 -29h-6q-39 2 -39 18v2z" />
    <glyph glyph-name="ohungarumlaut" unicode="&#x151;" horiz-adv-x="598" 
d="M36 202q0 119 90 203.5t213 84.5q104 0 164.5 -58t60.5 -149q0 -128 -85.5 -210.5t-213.5 -82.5q-106 0 -167.5 57t-61.5 155zM218 96q18 -36 55 -36q36 0 64.5 39t42 91.5t13.5 105.5q0 125 -71 125q-56 0 -89.5 -72.5t-34.5 -158.5q1 -59 20 -94zM222 553q0 24 36 92
q33 59 63 59q23 0 37.5 -14t14.5 -39q0 -37 -47 -75.5t-86 -38.5q-18 0 -18 16zM422 643q37 56 65 56q21 0 35 -14t14 -38q0 -37 -47.5 -74t-87.5 -37q-21 0 -21 15q0 23 42 92z" />
    <glyph glyph-name="OE" unicode="&#x152;" horiz-adv-x="1121" 
d="M167 587q119 121 289 121q113 0 189 -56l2 15q2 15 13 24t25 9h347q45 0 61.5 -7t20.5 -30q10 -46 13 -102v-6q0 -42 -25 -49q-6 -2 -11 -2q-19 0 -36 29q-25 49 -56 72t-78 23h-42q-45 0 -62.5 -10.5t-20.5 -35.5l-13 -94q-1 -6 -1 -12q0 -18 12.5 -27.5t46.5 -9.5
q41 0 70.5 17.5t43.5 17.5q15 0 20.5 -7.5t7.5 -21.5l7 -128q1 -7 1 -12q0 -16 -5 -24.5t-22 -12.5q-4 -1 -8 -1q-13 0 -25.5 13t-21 33t-29 37.5t-49.5 17.5q-36 0 -52 -10t-20 -39l-28 -201v-8q0 -20 13.5 -29t64.5 -9l61 1q42 0 69 25.5t67 89.5q24 39 48 39q3 0 6 -1
q16 -4 18 -12.5t2 -14.5q0 -11 -3 -25q-16 -85 -34 -129q-11 -25 -30 -35t-62 -10h-351q-18 0 -29.5 11t-11.5 28v3q-92 -49 -196 -49q-136 1 -225.5 86.5t-89.5 219.5q0 167 119 288zM270 145q46 -63 124 -63q62 0 106.5 48.5t64.5 117.5t20 146q0 104 -40 168.5t-117 64.5
q-62 0 -110 -49t-71.5 -120.5t-23.5 -149.5q0 -100 47 -163z" />
    <glyph glyph-name="oe" unicode="&#x153;" horiz-adv-x="926" 
d="M36 202q0 119 90 203.5t213 84.5q119 0 182 -77q88 77 213 77q65 0 109.5 -30.5t44.5 -84.5q0 -49 -29 -87.5t-77.5 -62t-96.5 -37t-100 -20.5q15 -33 45 -52t67 -19q73 0 140 51q11 9 20 9q6 0 10.5 -4.5t5.5 -12.5q-1 -9 -6 -21q-23 -50 -87 -89.5t-150 -39.5
q-113 0 -169 67q-81 -67 -196 -67q-106 0 -167.5 57t-61.5 155zM218 96q18 -36 55 -36q36 0 64.5 39t42 91.5t13.5 105.5q0 125 -71 125q-56 0 -89.5 -72.5t-34.5 -158.5q1 -59 20 -94zM565 259q0 -23 20 -23h5q24 4 48 10.5t55 19.5t50 37t19 54q0 28 -18.5 47.5
t-49.5 19.5q-58 0 -93.5 -50t-35.5 -115z" />
    <glyph glyph-name="Racute" unicode="&#x154;" horiz-adv-x="721" 
d="M15 32q2 18 14.5 31t26.5 21.5t28 31.5t19 60l48 338q4 26 4 44q0 12 -3 27.5t-11.5 27.5t-18 16.5t-14.5 12.5t-5 18v8q3 18 17.5 25t46.5 7h234q157 0 227 -63.5t70 -152.5q0 -19 -3 -39q-19 -139 -142 -191l48 -117q10 -24 24 -40t24.5 -21.5t16 -15t5.5 -20.5v-8
q-2 -18 -15.5 -25t-45.5 -7h-167q-24 0 -32.5 6.5t-8.5 19.5v6q2 14 11.5 26t17 18.5t9.5 17t2 14.5q0 15 -8 34l-31 81q-12 -1 -38 -1h-69q-20 0 -23 -20q-6 -42 -6 -62v-6q0 -23 7.5 -38t18 -20t16.5 -15t6 -22v-7q-2 -18 -15.5 -25t-47.5 -7h-183q-33 0 -44 6.5t-11 18.5
q0 3 1 7zM304 299q17 -8 61 -8q70 0 111 37t50 103q3 21 3 41q0 64 -36 112.5t-107 48.5q-34 0 -44.5 -5.5t-12.5 -21.5l-39 -281v-5q0 -15 14 -21zM268 775q1 24 70 87q58 49 85 49h1q20 -1 35.5 -17.5t15.5 -37.5v-3q-1 -44 -52.5 -71.5t-98.5 -27.5h-7q-49 0 -49 21z" />
    <glyph glyph-name="racute" unicode="&#x155;" horiz-adv-x="459" 
d="M34 20l45 305q1 7 1 14q0 12 -4.5 22.5t-13 14.5t-16 11t-7.5 18q0 14 14.5 27.5t60.5 29.5q75 27 97 27q28 0 28 -25q0 -4 -1 -9l-7 -54q67 87 146 87q39 0 57 -23.5t18 -54.5q0 -8 -1 -16q-4 -36 -21.5 -56t-41.5 -20q-17 0 -29 8.5t-16.5 19.5t-13 20t-21.5 9
q-19 0 -37 -18t-38.5 -78.5t-32.5 -160.5l-9 -74q-3 -24 -30 -31l-100 -23q-3 -1 -6 -1q-9 0 -15 7t-6 18v6zM170 571q10 29 75 85q50 41 78 41q32 0 43 -18.5t11 -33.5q0 -13 -5 -27q-14 -41 -67 -59t-84 -18q-21 0 -37 6q-15 5 -15 17q0 3 1 7z" />
    <glyph glyph-name="uni0156" unicode="&#x156;" horiz-adv-x="721" 
d="M15 32q2 18 14.5 31t26.5 21.5t28 31.5t19 60l48 338q4 26 4 44q0 12 -3 27.5t-11.5 27.5t-18 16.5t-14.5 12.5t-5 18v8q3 18 17.5 25t46.5 7h234q157 0 227 -63.5t70 -152.5q0 -19 -3 -39q-19 -139 -142 -191l48 -117q10 -24 24 -40t24.5 -21.5t16 -15t5.5 -20.5v-8
q-2 -18 -15.5 -25t-45.5 -7h-167q-24 0 -32.5 6.5t-8.5 19.5v6q2 14 11.5 26t17 18.5t9.5 17t2 14.5q0 15 -8 34l-31 81q-12 -1 -38 -1h-69q-20 0 -23 -20q-6 -42 -6 -62v-6q0 -23 7.5 -38t18 -20t16.5 -15t6 -22v-7q-2 -18 -15.5 -25t-47.5 -7h-183q-33 0 -44 6.5t-11 18.5
q0 3 1 7zM304 299q17 -8 61 -8q70 0 111 37t50 103q3 21 3 41q0 64 -36 112.5t-107 48.5q-34 0 -44.5 -5.5t-12.5 -21.5l-39 -281v-5q0 -15 14 -21zM246 -279q0 7 19.5 28t19.5 40q0 15 -18.5 39t-18.5 51q0 33 23 53.5t51 20.5q30 0 49 -20.5t19 -56.5q0 -62 -44.5 -115
t-83.5 -53q-16 0 -16 13z" />
    <glyph glyph-name="uni0157" unicode="&#x157;" horiz-adv-x="459" 
d="M34 20l45 305q1 7 1 14q0 12 -4.5 22.5t-13 14.5t-16 11t-7.5 18q0 14 14.5 27.5t60.5 29.5q75 27 97 27q28 0 28 -25q0 -4 -1 -9l-7 -54q67 87 146 87q39 0 57 -23.5t18 -54.5q0 -8 -1 -16q-4 -36 -21.5 -56t-41.5 -20q-17 0 -29 8.5t-16.5 19.5t-13 20t-21.5 9
q-19 0 -37 -18t-38.5 -78.5t-32.5 -160.5l-9 -74q-3 -24 -30 -31l-100 -23q-3 -1 -6 -1q-9 0 -15 7t-6 18v6zM34 -251q19 21 19 40q0 15 -18.5 39t-18.5 51q0 33 23 53.5t51 20.5q30 0 49 -20.5t19 -56.5q0 -62 -44.5 -115t-83.5 -53q-16 0 -16 13q0 7 20 28z" />
    <glyph glyph-name="Rcaron" unicode="&#x158;" horiz-adv-x="721" 
d="M15 32q2 18 14.5 31t26.5 21.5t28 31.5t19 60l48 338q4 26 4 44q0 12 -3 27.5t-11.5 27.5t-18 16.5t-14.5 12.5t-5 18v8q3 18 17.5 25t46.5 7h234q157 0 227 -63.5t70 -152.5q0 -19 -3 -39q-19 -139 -142 -191l48 -117q10 -24 24 -40t24.5 -21.5t16 -15t5.5 -20.5v-8
q-2 -18 -15.5 -25t-45.5 -7h-167q-24 0 -32.5 6.5t-8.5 19.5v6q2 14 11.5 26t17 18.5t9.5 17t2 14.5q0 15 -8 34l-31 81q-12 -1 -38 -1h-69q-20 0 -23 -20q-6 -42 -6 -62v-6q0 -23 7.5 -38t18 -20t16.5 -15t6 -22v-7q-2 -18 -15.5 -25t-47.5 -7h-183q-33 0 -44 6.5t-11 18.5
q0 3 1 7zM304 299q17 -8 61 -8q70 0 111 37t50 103q3 21 3 41q0 64 -36 112.5t-107 48.5q-34 0 -44.5 -5.5t-12.5 -21.5l-39 -281v-5q0 -15 14 -21zM199 884q3 16 22 16q23 0 60.5 -15t64.5 -34q30 19 72 34t66 15q16 0 16 -13v-3q0 -3 -2.5 -7.5t-9.5 -11.5t-13.5 -12.5
t-19.5 -17t-22 -19.5q-11 -9 -30 -26.5t-24.5 -21t-18 -8t-28.5 -4.5q-13 0 -22 1.5t-17.5 8.5t-12.5 11.5t-16 19t-19 22.5q-46 51 -46 64v1z" />
    <glyph glyph-name="rcaron" unicode="&#x159;" horiz-adv-x="459" 
d="M34 20l45 305q1 7 1 14q0 12 -4.5 22.5t-13 14.5t-16 11t-7.5 18q0 14 14.5 27.5t60.5 29.5q75 27 97 27q28 0 28 -25q0 -4 -1 -9l-7 -54q67 87 146 87q39 0 57 -23.5t18 -54.5q0 -8 -1 -16q-4 -36 -21.5 -56t-41.5 -20q-17 0 -29 8.5t-16.5 19.5t-13 20t-21.5 9
q-19 0 -37 -18t-38.5 -78.5t-32.5 -160.5l-9 -74q-3 -24 -30 -31l-100 -23q-3 -1 -6 -1q-9 0 -15 7t-6 18v6zM155 714q3 16 21 16q39 0 110 -77q89 77 131 77q15 0 15 -12v-4q-2 -19 -63 -88q-4 -5 -11.5 -13.5t-10.5 -11.5t-8.5 -9.5t-7.5 -8.5l-8 -6q-5 -4 -8 -5t-8 -3
t-10 -2.5t-11 -1t-14 -0.5q-28 0 -42 12.5t-38 52.5q-37 61 -37 83v1z" />
    <glyph glyph-name="Sacute" unicode="&#x15a;" horiz-adv-x="615" 
d="M37 193q5 49 32 49q7 0 12 -1.5t10.5 -10t8 -13t10.5 -22.5q60 -130 185 -130h4q40 0 64.5 22t29.5 55q1 5 1 9q0 23 -18.5 47.5t-45.5 42t-71 42.5q-5 3 -8 4q-91 51 -127.5 96t-36.5 101q0 17 3 35q12 85 91.5 137.5t184.5 52.5q35 0 76 -7.5t47 -7.5q13 0 29 7.5
t26 7.5q16 0 24 -11t10 -41q2 -34 3 -65q-1 -31 -3 -59q-5 -50 -37 -50q-11 0 -20 10.5t-24 36.5q-61 109 -142 109q-41 0 -67 -20.5t-31 -54.5q-1 -7 -1 -13q0 -33 28 -61t110 -74q64 -35 101 -63t58.5 -66t21.5 -77q0 -11 -2 -23q-13 -96 -100.5 -146t-200.5 -50
q-43 0 -91 10.5t-54 10.5q-18 0 -35 -11t-27 -11q-30 0 -31 54q-1 30 -1 55q0 63 4 94zM362 863q58 49 85 49h1q20 -1 35.5 -17.5t15.5 -37.5v-3q-1 -44 -52.5 -71.5t-98.5 -27.5h-7q-49 0 -49 21q1 24 70 87z" />
    <glyph glyph-name="sacute" unicode="&#x15b;" horiz-adv-x="500" 
d="M39 179h5q4 0 4.5 0.5t1.5 0.5q3 0 8.5 -4.5t7.5 -6.5t9.5 -10.5t11.5 -12.5q81 -91 158 -91q46 0 51 36v6q0 20 -26.5 40.5t-93.5 52.5q-114 56 -114 142q0 12 2 24q11 65 74.5 99.5t147.5 34.5q136 0 157 -52q7 -20 13 -49q2 -12 2 -21q0 -25 -17 -29q-3 -1 -6.5 -1
t-6 0.5t-6 2.5t-5.5 3.5t-6.5 5t-6.5 5.5t-8 7t-9 8q-65 55 -114 55q-24 0 -38 -11.5t-17 -25.5q-1 -3 -1 -6q0 -19 21.5 -35.5t79.5 -44.5q82 -40 110.5 -72.5t28.5 -69.5q0 -11 -2 -22q-12 -68 -70.5 -108t-137.5 -40q-89 0 -142.5 14t-65.5 54q-8 24 -18 77q-2 8 -2 15
q0 24 20 29zM192 582q10 29 75 85q50 41 78 41q32 0 43 -18.5t11 -33.5q0 -13 -5 -27q-14 -41 -67 -59t-84 -18q-21 0 -37 6q-15 5 -15 17q0 3 1 7z" />
    <glyph glyph-name="Scedilla" unicode="&#x15e;" horiz-adv-x="615" 
d="M37 193q5 49 32 49q7 0 12 -1.5t10.5 -10t8 -13t10.5 -22.5q60 -130 185 -130h4q40 0 64.5 22t29.5 55q1 5 1 9q0 23 -18.5 47.5t-45.5 42t-71 42.5q-5 3 -8 4q-91 51 -127.5 96t-36.5 101q0 17 3 35q12 85 91.5 137.5t184.5 52.5q35 0 76 -7.5t47 -7.5q13 0 29 7.5
t26 7.5q16 0 24 -11t10 -41q2 -34 3 -65q-1 -31 -3 -59q-5 -50 -37 -50q-11 0 -20 10.5t-24 36.5q-61 109 -142 109q-41 0 -67 -20.5t-31 -54.5q-1 -7 -1 -13q0 -33 28 -61t110 -74q64 -35 101 -63t58.5 -66t21.5 -77q0 -11 -2 -23q-13 -95 -97.5 -144.5t-196.5 -51.5
l-22 -41q94 -15 94 -80q0 -38 -29 -62t-72 -24q-60 0 -87 35q-5 7 -5 13q0 5 4 9.5t11 4.5q6 0 15 -5q19 -12 39 -12q19 0 30 10.5t11 25.5q0 34 -64 48q-15 3 -15 11q0 4 3 9l33 61q-25 3 -57 10.5t-41 7.5q-18 0 -35 -11t-27 -11q-30 0 -31 54q-1 30 -1 55q0 63 4 94z" />
    <glyph glyph-name="scedilla" unicode="&#x15f;" horiz-adv-x="500" 
d="M39 179h5q4 0 4.5 0.5t1.5 0.5q3 0 8.5 -4.5t7.5 -6.5t9.5 -10.5t11.5 -12.5q81 -91 158 -91q46 0 51 36v6q0 20 -26.5 40.5t-93.5 52.5q-114 56 -114 142q0 12 2 24q11 65 74.5 99.5t147.5 34.5q136 0 157 -52q7 -20 13 -49q2 -12 2 -21q0 -25 -17 -29q-3 -1 -6.5 -1
t-6 0.5t-6 2.5t-5.5 3.5t-6.5 5t-6.5 5.5t-8 7t-9 8q-65 55 -114 55q-24 0 -38 -11.5t-17 -25.5q-1 -3 -1 -6q0 -19 21.5 -35.5t79.5 -44.5q82 -40 110.5 -72.5t28.5 -69.5q0 -11 -2 -22q-12 -68 -70.5 -108t-137.5 -40h-17l-22 -40q94 -15 94 -80q0 -38 -29 -62t-72 -24
q-60 0 -87 35q-5 7 -5 13q0 5 4 9.5t11 4.5q6 0 15 -5q19 -12 39 -12q19 0 30 10.5t11 25.5q0 34 -64 48q-15 3 -15 11q0 4 3 9l32 59q-118 10 -136 66q-8 24 -18 77q-2 8 -2 15q0 24 20 29z" />
    <glyph glyph-name="Scaron" unicode="&#x160;" horiz-adv-x="615" 
d="M37 193q5 49 32 49q7 0 12 -1.5t10.5 -10t8 -13t10.5 -22.5q60 -130 185 -130h4q40 0 64.5 22t29.5 55q1 5 1 9q0 23 -18.5 47.5t-45.5 42t-71 42.5q-5 3 -8 4q-91 51 -127.5 96t-36.5 101q0 17 3 35q12 85 91.5 137.5t184.5 52.5q35 0 76 -7.5t47 -7.5q13 0 29 7.5
t26 7.5q16 0 24 -11t10 -41q2 -34 3 -65q-1 -31 -3 -59q-5 -50 -37 -50q-11 0 -20 10.5t-24 36.5q-61 109 -142 109q-41 0 -67 -20.5t-31 -54.5q-1 -7 -1 -13q0 -33 28 -61t110 -74q64 -35 101 -63t58.5 -66t21.5 -77q0 -11 -2 -23q-13 -96 -100.5 -146t-200.5 -50
q-43 0 -91 10.5t-54 10.5q-18 0 -35 -11t-27 -11q-30 0 -31 54q-1 30 -1 55q0 63 4 94zM222 885q3 16 22 16q23 0 60.5 -15t64.5 -34q30 19 72 34t66 15q16 0 16 -13v-3q0 -3 -2.5 -7.5t-9.5 -11.5t-13.5 -12.5t-19.5 -17t-22 -19.5q-11 -9 -30 -26.5t-24.5 -21t-18 -8
t-28.5 -4.5q-13 0 -22 1.5t-17.5 8.5t-12.5 11.5t-16 19t-19 22.5q-46 51 -46 64v1z" />
    <glyph glyph-name="scaron" unicode="&#x161;" horiz-adv-x="500" 
d="M39 179h5q4 0 4.5 0.5t1.5 0.5q3 0 8.5 -4.5t7.5 -6.5t9.5 -10.5t11.5 -12.5q81 -91 158 -91q46 0 51 36v6q0 20 -26.5 40.5t-93.5 52.5q-114 56 -114 142q0 12 2 24q11 65 74.5 99.5t147.5 34.5q136 0 157 -52q7 -20 13 -49q2 -12 2 -21q0 -25 -17 -29q-3 -1 -6.5 -1
t-6 0.5t-6 2.5t-5.5 3.5t-6.5 5t-6.5 5.5t-8 7t-9 8q-65 55 -114 55q-24 0 -38 -11.5t-17 -25.5q-1 -3 -1 -6q0 -19 21.5 -35.5t79.5 -44.5q82 -40 110.5 -72.5t28.5 -69.5q0 -11 -2 -22q-12 -68 -70.5 -108t-137.5 -40q-89 0 -142.5 14t-65.5 54q-8 24 -18 77q-2 8 -2 15
q0 24 20 29zM177 725q3 16 21 16q39 0 110 -77q89 77 131 77q15 0 15 -12v-4q-2 -19 -63 -88q-4 -5 -11.5 -13.5t-10.5 -11.5t-8.5 -9.5t-7.5 -8.5l-8 -6q-5 -4 -8 -5t-8 -3t-10 -2.5t-11 -1t-14 -0.5q-28 0 -42 12.5t-38 52.5q-37 61 -37 83v1z" />
    <glyph glyph-name="uni0162" unicode="&#x162;" horiz-adv-x="669" 
d="M69 526q13 79 34 129q10 25 29 35t62 10h410q43 0 59.5 -10t19.5 -35q3 -20 3 -46q0 -36 -5 -83q-7 -49 -34 -49q-19 0 -33 36q-22 62 -41.5 86t-60.5 24q-40 0 -46 -42l-57 -405q-3 -19 -3 -40q0 -25 8.5 -40t18.5 -20t16.5 -15t6.5 -22v-7q-3 -18 -17 -25t-47 -7h-46
l-27 -50q94 -15 94 -80q0 -38 -29 -62t-72 -24q-60 0 -87 35q-5 7 -5 13q0 5 4 9.5t11 4.5q6 0 15 -5q19 -12 39 -12q19 0 30 10.5t11 25.5q0 34 -64 48q-15 3 -15 11q0 4 3 9l36 67h-81q-32 0 -43.5 7t-11.5 19q0 3 1 6q2 19 18 31t35 28t27 45q6 22 9 40l56 405q1 5 1 10
q0 31 -35 31q-42 0 -68 -23.5t-66 -85.5q-22 -36 -43 -36q-22 0 -22 30q0 8 2 19z" />
    <glyph glyph-name="uni0163" unicode="&#x163;" horiz-adv-x="417" 
d="M27 411q6 33 41 38l49 8l17 95q4 25 30 31l98 23q3 1 7 1q9 0 15 -7t6 -19v-6q-4 -19 -9.5 -52t-8.5 -48l114 14q6 1 12 1q16 0 19.5 -7t3.5 -13q0 -12 -9 -33q-8 -20 -20.5 -29.5t-18 -11t-23.5 -3.5l-92 -7q-17 -119 -24 -173q-4 -31 -4 -52q0 -26 7.5 -45t33.5 -19
q35 0 59 32q10 10 18 10q2 0 8.5 -3t6.5 -18q0 -44 -46.5 -84t-107.5 -44l-22 -40q94 -15 94 -80q0 -38 -29 -62t-72 -24q-60 0 -87 35q-5 7 -5 13q0 5 4 9.5t11 4.5q6 0 15 -5q19 -12 39 -12q19 0 30 10.5t11 25.5q0 34 -64 48q-15 3 -15 11q0 4 3 9l33 62q-49 12 -68.5 47
t-19.5 78q0 15 2 32q10 85 35 226l-48 -5h-6q-13 0 -18.5 6.5t-5.5 17.5q0 6 1 14z" />
    <glyph glyph-name="Tcaron" unicode="&#x164;" horiz-adv-x="669" 
d="M69 526q13 79 34 129q10 25 29 35t62 10h410q43 0 59.5 -10t19.5 -35q3 -20 3 -46q0 -36 -5 -83q-7 -49 -34 -49q-19 0 -33 36q-22 62 -41.5 86t-60.5 24q-40 0 -46 -42l-57 -405q-3 -19 -3 -40q0 -25 8.5 -40t18.5 -20t16.5 -15t6.5 -22v-7q-3 -18 -17 -25t-47 -7h-183
q-32 0 -43.5 7t-11.5 19q0 3 1 6q2 19 18 31t35 28t27 45q6 22 9 40l56 405q1 5 1 10q0 31 -35 31q-42 0 -68 -23.5t-66 -85.5q-22 -36 -43 -36q-22 0 -22 30q0 8 2 19zM287 884q3 16 22 16q23 0 60.5 -15t64.5 -34q30 19 72 34t66 15q16 0 16 -13v-3q0 -3 -2.5 -7.5
t-9.5 -11.5t-13.5 -12.5t-19.5 -17t-22 -19.5q-11 -9 -30 -26.5t-24.5 -21t-18 -8t-28.5 -4.5q-13 0 -22 1.5t-17.5 8.5t-12.5 11.5t-16 19t-19 22.5q-46 51 -46 64v1z" />
    <glyph glyph-name="tcaron" unicode="&#x165;" horiz-adv-x="417" 
d="M27 411q6 33 41 38l49 8l17 95q4 25 30 31l98 23q3 1 7 1q9 0 15 -7t6 -19v-6q-4 -19 -9.5 -52t-8.5 -48l114 14q6 1 12 1q16 0 19.5 -7t3.5 -13q0 -12 -9 -33q-8 -20 -20.5 -29.5t-18 -11t-23.5 -3.5l-92 -7q-17 -119 -24 -173q-4 -31 -4 -52q0 -26 7.5 -45t33.5 -19
q35 0 59 32q10 10 18 10q2 0 8.5 -3t6.5 -18q0 -45 -50 -86.5t-114 -41.5q-71 0 -101.5 37.5t-30.5 91.5q0 15 2 33q10 85 35 226l-48 -5h-6q-13 0 -18.5 6.5t-5.5 17.5q0 6 1 14zM335 565q5 19 14 57.5t16 68t9 35.5q15 59 62 59q24 0 35.5 -14.5t11.5 -32.5q0 -5 -1 -11
q-6 -44 -54.5 -115t-75.5 -71q-18 0 -18 16q0 4 1 8z" />
    <glyph glyph-name="Tbar" unicode="&#x166;" horiz-adv-x="669" 
d="M69 526q13 79 34 129q10 25 29 35t62 10h410q43 0 59.5 -10t19.5 -35q3 -20 3 -46q0 -36 -5 -83q-7 -49 -34 -49q-19 0 -33 36q-22 62 -41.5 86t-60.5 24q-40 0 -46 -42l-27 -195h58q26 0 26 -24v-5q-4 -25 -11 -34.5t-25 -9.5h-59l-19 -137q-3 -19 -3 -40q0 -25 8.5 -40
t18.5 -20t16.5 -15t6.5 -22v-7q-3 -18 -17 -25t-47 -7h-183q-32 0 -43.5 7t-11.5 19q0 3 1 6q2 19 18 31t35 28t27 45q6 22 9 40l19 137h-30q-19 0 -22 8.5t-3 16.5t2 19q3 29 34 29h29l27 195q1 5 1 10q0 31 -35 31q-42 0 -68 -23.5t-66 -85.5q-22 -36 -43 -36
q-22 0 -22 30q0 8 2 19z" />
    <glyph glyph-name="tbar" unicode="&#x167;" horiz-adv-x="417" 
d="M41 315h52q2 11 5.5 32t5.5 31l-48 -5h-6q-13 0 -18.5 6.5t-5.5 17.5q0 6 1 14q6 33 41 38l49 8l17 95q4 25 30 31l98 23q3 1 7 1q9 0 15 -7t6 -19v-6q-4 -19 -9.5 -52t-8.5 -48l114 14q6 1 12 1q16 0 19.5 -7t3.5 -13q0 -12 -9 -33q-8 -20 -20.5 -29.5t-18 -11
t-23.5 -3.5l-92 -7q-2 -13 -5.5 -37t-4.5 -34h35q28 0 28 -31q0 -32 -28 -32h-44q-1 -13 -5 -39q-4 -31 -4 -52q0 -26 7.5 -45t33.5 -19q35 0 59 32q10 10 18 10q2 0 8.5 -3t6.5 -18q0 -45 -50 -86.5t-114 -41.5q-71 0 -101.5 37.5t-30.5 91.5q0 15 2 33q4 36 14 100h-42
q-28 0 -28 32q0 31 28 31z" />
    <glyph glyph-name="Umacron" unicode="&#x16a;" horiz-adv-x="764" 
d="M97 668q3 18 17 25t46 7h184q32 0 43.5 -7t11.5 -19q0 -3 -1 -6q-2 -16 -12.5 -27t-22.5 -17t-25.5 -21.5t-19.5 -38.5q-6 -22 -9 -40l-33 -236q-4 -29 -4 -54q0 -61 29.5 -106.5t107.5 -45.5q77 0 128 57t66 161l38 272q1 7 1 13q0 13 -5 26t-14.5 20.5t-15.5 16.5
t-6 18v5q2 17 13.5 22.5t36.5 5.5h99q28 0 36.5 -5.5t8.5 -17.5v-6q-2 -11 -12 -20.5t-21 -17t-21.5 -23.5t-13.5 -37l-36 -244q-26 -180 -107 -259t-228 -79q-146 0 -197 69t-51 171q0 41 7 90l28 204q3 20 3 40q0 25 -8.5 40t-18.5 20t-16 15t-6 22v7zM323 803
q5 27 13.5 33.5t40.5 6.5h225q34 0 41.5 -5.5t7.5 -16.5q0 -5 -1 -11q-3 -27 -12.5 -33.5t-46.5 -6.5h-225q-31 0 -37.5 5t-6.5 17q0 5 1 11z" />
    <glyph glyph-name="umacron" unicode="&#x16b;" horiz-adv-x="649" 
d="M39 405q0 14 14.5 27.5t60.5 29.5q75 27 112 27q28 0 28 -25q0 -4 -1 -9l-37 -227q-10 -53 -10 -86q0 -16 4.5 -39t41.5 -23q44 0 86.5 63.5t66.5 214.5l12 76q4 25 30 31l100 23q4 1 7 1q8 0 14 -7t6 -18v-6l-47 -310q-2 -12 -2 -21q0 -29 18 -29q10 0 24.5 14t21.5 14
q18 0 18 -22q-1 -39 -42 -76.5t-106 -37.5q-39 0 -64.5 21t-27.5 65q-73 -86 -164 -86q-90 0 -120 44.5t-30 102.5q0 23 4 50l22 138q1 7 1 14q0 12 -4.5 22.5t-13 14.5t-16 11t-7.5 18zM212 571q8 27 17.5 33.5t41.5 6.5h225q34 0 40.5 -4.5t6.5 -13.5q0 -6 -3 -15
q-8 -27 -18 -33.5t-47 -6.5h-225q-31 0 -36 4.5t-5 11.5t3 17z" />
    <glyph glyph-name="Uring" unicode="&#x16e;" horiz-adv-x="764" 
d="M97 668q3 18 17 25t46 7h184q32 0 43.5 -7t11.5 -19q0 -3 -1 -6q-2 -16 -12.5 -27t-22.5 -17t-25.5 -21.5t-19.5 -38.5q-6 -22 -9 -40l-33 -236q-4 -29 -4 -54q0 -61 29.5 -106.5t107.5 -45.5q77 0 128 57t66 161l38 272q1 7 1 13q0 13 -5 26t-14.5 20.5t-15.5 16.5
t-6 18v5q2 17 13.5 22.5t36.5 5.5h99q28 0 36.5 -5.5t8.5 -17.5v-6q-2 -11 -12 -20.5t-21 -17t-21.5 -23.5t-13.5 -37l-36 -244q-26 -180 -107 -259t-228 -79q-146 0 -197 69t-51 171q0 41 7 90l28 204q3 20 3 40q0 25 -8.5 40t-18.5 20t-16 15t-6 22v7zM397 842q6 48 43 78
t86 30q47 0 71.5 -26t24.5 -61q0 -8 -1 -18q-7 -48 -44 -78t-85 -30q-47 0 -71.5 26t-24.5 61q0 8 1 18zM465 844q0 -20 10.5 -32.5t29.5 -12.5q20 0 33 13.5t15 34.5q0 20 -10.5 32t-28.5 12q-21 0 -34 -13t-15 -34z" />
    <glyph glyph-name="uring" unicode="&#x16f;" horiz-adv-x="649" 
d="M39 405q0 14 14.5 27.5t60.5 29.5q75 27 112 27q28 0 28 -25q0 -4 -1 -9l-37 -227q-10 -53 -10 -86q0 -16 4.5 -39t41.5 -23q44 0 86.5 63.5t66.5 214.5l12 76q4 25 30 31l100 23q4 1 7 1q8 0 14 -7t6 -18v-6l-47 -310q-2 -12 -2 -21q0 -29 18 -29q10 0 24.5 14t21.5 14
q18 0 18 -22q-1 -39 -42 -76.5t-106 -37.5q-39 0 -64.5 21t-27.5 65q-73 -86 -164 -86q-90 0 -120 44.5t-30 102.5q0 23 4 50l22 138q1 7 1 14q0 12 -4.5 22.5t-13 14.5t-16 11t-7.5 18zM271 610q6 48 43 78t86 30q47 0 71.5 -26t24.5 -61q0 -8 -1 -18q-7 -48 -44 -78
t-85 -30q-47 0 -71.5 26t-24.5 61q0 8 1 18zM350 580q10 -13 29 -13q20 0 33 13.5t15 34.5q0 20 -10.5 32t-28.5 12q-21 0 -34 -13t-15 -34q0 -20 11 -32z" />
    <glyph glyph-name="Uhungarumlaut" unicode="&#x170;" horiz-adv-x="764" 
d="M97 668q3 18 17 25t46 7h184q32 0 43.5 -7t11.5 -19q0 -3 -1 -6q-2 -16 -12.5 -27t-22.5 -17t-25.5 -21.5t-19.5 -38.5q-6 -22 -9 -40l-33 -236q-4 -29 -4 -54q0 -61 29.5 -106.5t107.5 -45.5q77 0 128 57t66 161l38 272q1 7 1 13q0 13 -5 26t-14.5 20.5t-15.5 16.5
t-6 18v5q2 17 13.5 22.5t36.5 5.5h99q28 0 36.5 -5.5t8.5 -17.5v-6q-2 -11 -12 -20.5t-21 -17t-21.5 -23.5t-13.5 -37l-36 -244q-26 -180 -107 -259t-228 -79q-146 0 -197 69t-51 171q0 41 7 90l28 204q3 20 3 40q0 25 -8.5 40t-18.5 20t-16 15t-6 22v7zM316 775q0 22 71 84
q57 50 84 50q23 0 38.5 -15t15.5 -32q0 -38 -59.5 -71.5t-109.5 -33.5q-40 0 -40 18zM516 775q1 13 25.5 37.5t48.5 42.5q61 46 87 46h1q22 -1 36 -16.5t14 -31.5v-2q-2 -38 -60.5 -67t-106.5 -29h-6q-39 2 -39 18v2z" />
    <glyph glyph-name="uhungarumlaut" unicode="&#x171;" horiz-adv-x="649" 
d="M39 405q0 14 14.5 27.5t60.5 29.5q75 27 112 27q28 0 28 -25q0 -4 -1 -9l-37 -227q-10 -53 -10 -86q0 -16 4.5 -39t41.5 -23q44 0 86.5 63.5t66.5 214.5l12 76q4 25 30 31l100 23q4 1 7 1q8 0 14 -7t6 -18v-6l-47 -310q-2 -12 -2 -21q0 -29 18 -29q10 0 24.5 14t21.5 14
q18 0 18 -22q-1 -39 -42 -76.5t-106 -37.5q-39 0 -64.5 21t-27.5 65q-73 -86 -164 -86q-90 0 -120 44.5t-30 102.5q0 23 4 50l22 138q1 7 1 14q0 12 -4.5 22.5t-13 14.5t-16 11t-7.5 18zM250 541q0 24 36 92q33 59 63 59q23 0 37.5 -14t14.5 -39q0 -37 -47 -75.5t-86 -38.5
q-18 0 -18 16zM408 539q0 23 42 92q37 56 65 56q21 0 35 -14t14 -38q0 -37 -47.5 -74t-87.5 -37q-21 0 -21 15z" />
    <glyph glyph-name="Uogonek" unicode="&#x172;" horiz-adv-x="764" 
d="M97 668q3 18 17 25t46 7h184q32 0 43.5 -7t11.5 -19q0 -3 -1 -6q-2 -16 -12.5 -27t-22.5 -17t-25.5 -21.5t-19.5 -38.5q-6 -22 -9 -40l-33 -236q-4 -29 -4 -54q0 -61 29.5 -106.5t107.5 -45.5q77 0 128 57t66 161l38 272q1 7 1 13q0 13 -5 26t-14.5 20.5t-15.5 16.5
t-6 18v5q2 17 13.5 22.5t36.5 5.5h99q28 0 36.5 -5.5t8.5 -17.5v-6q-2 -11 -12 -20.5t-21 -17t-21.5 -23.5t-13.5 -37l-36 -244q-20 -142 -74 -220t-147 -104q-40 -48 -40 -87q0 -21 12 -34.5t35 -13.5q15 0 35 9q8 4 14 4q8 0 11 -6t3 -10q0 -9 -9 -18q-35 -38 -92 -38
q-45 0 -73 24t-28 63q0 54 56 94q-12 -1 -38 -1q-146 0 -197 69t-51 171q0 41 7 90l28 204q3 20 3 40q0 25 -8.5 40t-18.5 20t-16 15t-6 22v7z" />
    <glyph glyph-name="uogonek" unicode="&#x173;" horiz-adv-x="649" 
d="M54 433q14 13 60 29q75 27 112 27q28 0 28 -25q0 -4 -1 -9l-37 -227q-10 -53 -10 -86q0 -16 4.5 -39t41.5 -23q44 0 86.5 63.5t66.5 214.5l12 76q4 25 30 31l100 23q4 1 7 1q8 0 14 -7t6 -18v-6l-47 -310q-2 -12 -2 -21q0 -29 18 -29q10 0 24.5 14t21.5 14q18 0 18 -22
q-1 -28 -25 -58.5t-64 -45.5q-36 -45 -36 -82q0 -21 12 -34.5t35 -13.5q15 0 35 9q8 4 14 4q8 0 11 -6t3 -10q0 -9 -9 -18q-35 -38 -92 -38q-45 0 -73 24t-28 63q0 52 54 93q-73 9 -77 85q-73 -86 -164 -86q-90 0 -120 44.5t-30 102.5q0 23 4 50l22 138q1 7 1 14
q0 12 -4.5 22.5t-13 14.5t-16 11t-7.5 18q0 14 15 28z" />
    <glyph glyph-name="Wcircumflex" unicode="&#x174;" horiz-adv-x="1085" 
d="M71 670q2 18 14.5 24t36.5 6h182q25 0 35 -6t10 -19v-5q-2 -15 -16.5 -27t-21.5 -26t-7 -29q0 -11 2 -23l69 -378l166 334l-7 44q-5 25 -15.5 42.5t-20.5 24t-15.5 15t-5.5 17.5v6q2 18 14 24t37 6h182q45 0 45 -27v-3q-2 -15 -16 -27t-22.5 -26.5t-8.5 -32.5q0 -9 2 -20
l61 -371l178 374q12 31 12 45q0 5 -3 12t-13.5 18.5t-10.5 24.5v4q4 29 54 29h93q29 0 41.5 -6t12.5 -19v-4q-2 -13 -13 -23t-24.5 -16.5t-31 -23.5t-28.5 -41l-257 -532q-16 -29 -68 -37q-25 -4 -40 -4q-10 0 -21 3t-13 20l-76 392l-179 -375q-15 -28 -68 -36
q-20 -3 -34 -3q-3 0 -12 0.5t-15.5 5.5t-9.5 16l-115 548q-5 25 -16.5 42.5t-21 24t-15.5 15t-6 17.5v6zM471 766q2 11 65 65q10 9 25.5 22.5t21 18.5t16 11.5t20 8.5t22.5 2q16 0 27 -4.5t15.5 -8.5t18 -20.5t22.5 -26.5q5 -6 12.5 -14.5t11 -13t9 -10.5t8 -9.5t5 -8t3 -6
t0.5 -2.5q0 -2 -1 -4q-2 -15 -20 -17q-24 0 -61.5 15.5t-63.5 34.5q-32 -19 -74 -34.5t-65 -15.5q-17 1 -17 17z" />
    <glyph glyph-name="wcircumflex" unicode="&#x175;" horiz-adv-x="808" 
d="M45 405q0 14 14.5 27.5t60.5 29.5q75 27 109 27q27 0 27 -25q0 -4 -1 -9l-33 -247q-4 -26 -4 -46q0 -25 8 -47t40 -22q72 0 103 164l21 163q3 20 9.5 29.5t20.5 15.5q50 25 100 25q28 0 28 -29v-6l-32 -247q-3 -23 -3 -42q0 -73 47 -73t81.5 57t34.5 135q0 33 -20.5 70.5
t-20.5 57.5q0 32 27.5 56t57.5 24q71 0 71 -95q0 -47 -11 -100.5t-35.5 -108t-57.5 -99t-82 -72.5t-105 -28q-101 0 -131 79q-59 -79 -167 -79q-73 0 -105.5 44.5t-32.5 108.5q0 23 3 48l18 134q1 7 1 14q0 12 -4.5 22.5t-13 14.5t-16 11t-7.5 18zM347 540q4 19 60 84
q26 29 36.5 39t26.5 18t36 8q8 0 14.5 -0.5t12 -2t9 -2.5t8 -4.5t6.5 -5.5t6.5 -8.5t6.5 -10t7.5 -13t8.5 -14.5q39 -66 39 -85v-3q-2 -16 -20 -16h-1q-38 0 -109 77q-90 -77 -130 -77h-1q-16 0 -16 13v3z" />
    <glyph glyph-name="Ycircumflex" unicode="&#x176;" horiz-adv-x="719" 
d="M53 671q4 29 53 29h209q25 0 35 -6t10 -19v-5q-2 -12 -11.5 -21.5t-17 -15.5t-8.5 -14.5t-1 -11.5q0 -14 12 -35l86 -173l122 169q19 27 21.5 38t2.5 15q0 8 -5.5 13t-11.5 13.5t-6 17.5v5q4 29 53 29h107q28 0 41 -6t13 -19v-4q-2 -13 -14 -22.5t-28 -16t-38.5 -22.5
t-40.5 -40l-197 -258l-19 -135q-3 -21 -3 -40q0 -21 5.5 -34.5t13 -20t15.5 -12t12 -13t4 -16.5q0 -4 -1 -8q-3 -18 -16.5 -25t-46.5 -7h-184q-33 0 -44 6.5t-11 18.5q0 3 1 7q2 16 12.5 27t22.5 17t25.5 21.5t19.5 38.5q7 23 9 40l18 134l-140 263q-13 24 -29 40t-27 21.5
t-17 13t-6 17.5v6zM319 766q2 11 65 65q10 9 25.5 22.5t21 18.5t16 11.5t20 8.5t22.5 2q16 0 27 -4.5t15.5 -8.5t18 -20.5t22.5 -26.5q5 -6 12.5 -14.5t11 -13t9 -10.5t8 -9.5t5 -8t3 -6t0.5 -2.5q0 -2 -1 -4q-2 -15 -20 -17q-24 0 -61.5 15.5t-63.5 34.5q-32 -19 -74 -34.5
t-65 -15.5q-17 1 -17 17z" />
    <glyph glyph-name="ycircumflex" unicode="&#x177;" horiz-adv-x="533" 
d="M-59 -109q0 40 20.5 63t48.5 23q39 0 56 -44q1 -1 5.5 -13t5.5 -14l6 -11q4 -9 7 -10.5t9 -6.5t13.5 -6t16.5 -1q24 0 43.5 18t23.5 46q2 10 2 23q0 29 -9 69q-30 146 -97 304q-13 28 -24 36.5t-34 10.5q-13 1 -20 7.5t-7 14.5q0 26 56.5 58t93.5 32q35 0 50 -42
q66 -162 118 -374q73 124 73 211q0 33 -20.5 70.5t-20.5 57.5q0 32 27.5 56t57.5 24q37 0 54 -24.5t17 -58.5q0 -89 -51 -211.5t-99 -197.5q-134 -211 -297 -211q-60 0 -92.5 28.5t-32.5 72.5zM175 550q4 19 60 84q26 29 36.5 39t26.5 18t36 8q8 0 14.5 -0.5t12 -2t9 -2.5
t8 -4.5t6.5 -5.5t6.5 -8.5t6.5 -10t7.5 -13t8.5 -14.5q39 -66 39 -85v-3q-2 -16 -20 -16h-1q-38 0 -109 77q-90 -77 -130 -77h-1q-16 0 -16 13v3z" />
    <glyph glyph-name="Ydieresis" unicode="&#x178;" horiz-adv-x="719" 
d="M53 671q4 29 53 29h209q25 0 35 -6t10 -19v-5q-2 -12 -11.5 -21.5t-17 -15.5t-8.5 -14.5t-1 -11.5q0 -14 12 -35l86 -173l122 169q19 27 21.5 38t2.5 15q0 8 -5.5 13t-11.5 13.5t-6 17.5v5q4 29 53 29h107q28 0 41 -6t13 -19v-4q-2 -13 -14 -22.5t-28 -16t-38.5 -22.5
t-40.5 -40l-197 -258l-19 -135q-3 -21 -3 -40q0 -21 5.5 -34.5t13 -20t15.5 -12t12 -13t4 -16.5q0 -4 -1 -8q-3 -18 -16.5 -25t-46.5 -7h-184q-33 0 -44 6.5t-11 18.5q0 3 1 7q2 16 12.5 27t22.5 17t25.5 21.5t19.5 38.5q7 23 9 40l18 134l-140 263q-13 24 -29 40t-27 21.5
t-17 13t-6 17.5v6zM510 814q0 31 22.5 55.5t54.5 24.5q27 0 44 -16t17 -43q0 -32 -24 -53t-57 -21q-24 0 -40.5 14.5t-16.5 38.5zM337 814q0 32 22 56t55 24q27 0 43.5 -16t16.5 -43q0 -32 -24 -53t-58 -21q-23 0 -39 15t-16 38z" />
    <glyph glyph-name="Zacute" unicode="&#x179;" horiz-adv-x="635" 
d="M17 47l432 581h-154q-42 0 -70.5 -22t-65.5 -73q-23 -36 -43 -36q-15 0 -16.5 8.5t-1.5 14.5q0 11 3 26q10 61 31 109q9 25 28.5 35t67.5 10h413q23 0 26 -8t3 -11q0 -12 -12 -27l-429 -582l172 1q42 0 70 21.5t65 72.5q22 36 44 36q14 0 15.5 -8.5t1.5 -14.5
q0 -11 -3 -26q-8 -59 -30 -109q-10 -25 -29.5 -35t-67.5 -10h-432q-23 0 -26 8.5t-3 12.5q0 11 11 26zM394 862q58 49 85 49h1q20 -1 35.5 -17.5t15.5 -37.5v-3q-1 -44 -52.5 -71.5t-98.5 -27.5h-7q-49 0 -49 21q1 24 70 87z" />
    <glyph glyph-name="zacute" unicode="&#x17a;" horiz-adv-x="514" 
d="M4 18q0 28 38 66l276 270q-12 -2 -30 -2q-20 0 -59.5 3t-54.5 3q-22 0 -38 -14.5t-27 -29t-20 -14.5q-16 0 -16 29q0 6 1 13q6 59 38 104.5t83 45.5q26 0 98.5 -6.5t102.5 -6.5q36 0 63 5.5t34 5.5q17 0 17 -19q0 -28 -32 -58l-287 -284q15 2 38 2q19 0 51.5 -1.5
t50.5 -1.5h10q27 2 47.5 11.5t29.5 20t19 19t19 8.5q16 0 16 -29q0 -25 -7.5 -50.5t-24 -53t-51 -45t-81.5 -17.5q-30 0 -99.5 6.5t-89.5 6.5q-26 0 -55 -6t-39 -6q-21 0 -21 25zM198 568q10 29 75 85q50 41 78 41q32 0 43 -18.5t11 -33.5q0 -13 -5 -27q-14 -41 -67 -59
t-84 -18q-21 0 -37 6q-15 5 -15 17q0 3 1 7z" />
    <glyph glyph-name="Zdotaccent" unicode="&#x17b;" horiz-adv-x="635" 
d="M17 47l432 581h-154q-42 0 -70.5 -22t-65.5 -73q-23 -36 -43 -36q-15 0 -16.5 8.5t-1.5 14.5q0 11 3 26q10 61 31 109q9 25 28.5 35t67.5 10h413q23 0 26 -8t3 -11q0 -12 -12 -27l-429 -582l172 1q42 0 70 21.5t65 72.5q22 36 44 36q14 0 15.5 -8.5t1.5 -14.5
q0 -11 -3 -26q-8 -59 -30 -109q-10 -25 -29.5 -35t-67.5 -10h-432q-23 0 -26 8.5t-3 12.5q0 11 11 26zM295 821q0 39 35.5 72.5t76.5 33.5h2q30 0 51 -19.5t21 -48.5q-1 -41 -37.5 -72.5t-80.5 -31.5q-32 0 -50 19t-18 44v3z" />
    <glyph glyph-name="zdotaccent" unicode="&#x17c;" horiz-adv-x="514" 
d="M42 84l276 270q-12 -2 -30 -2q-20 0 -59.5 3t-54.5 3q-22 0 -38 -14.5t-27 -29t-20 -14.5q-16 0 -16 29q0 6 1 13q6 59 38 104.5t83 45.5q26 0 98.5 -6.5t102.5 -6.5q36 0 63 5.5t34 5.5q17 0 17 -19q0 -28 -32 -58l-287 -284q15 2 38 2q19 0 51.5 -1.5t50.5 -1.5h10
q27 2 47.5 11.5t29.5 20t19 19t19 8.5q16 0 16 -29q0 -25 -7.5 -50.5t-24 -53t-51 -45t-81.5 -17.5q-30 0 -99.5 6.5t-89.5 6.5q-26 0 -55 -6t-39 -6q-21 0 -21 25q0 28 38 66zM196 587q0 39 35.5 72.5t76.5 33.5h2q30 0 51 -19.5t21 -48.5q-1 -41 -37.5 -72.5t-80.5 -31.5
q-32 0 -50 19t-18 44v3z" />
    <glyph glyph-name="Zcaron" unicode="&#x17d;" horiz-adv-x="635" 
d="M17 47l432 581h-154q-42 0 -70.5 -22t-65.5 -73q-23 -36 -43 -36q-15 0 -16.5 8.5t-1.5 14.5q0 11 3 26q10 61 31 109q9 25 28.5 35t67.5 10h413q23 0 26 -8t3 -11q0 -12 -12 -27l-429 -582l172 1q42 0 70 21.5t65 72.5q22 36 44 36q14 0 15.5 -8.5t1.5 -14.5
q0 -11 -3 -26q-8 -59 -30 -109q-10 -25 -29.5 -35t-67.5 -10h-432q-23 0 -26 8.5t-3 12.5q0 11 11 26zM254 884q3 16 22 16q23 0 60.5 -15t64.5 -34q30 19 72 34t66 15q16 0 16 -13v-3q0 -3 -2.5 -7.5t-9.5 -11.5t-13.5 -12.5t-19.5 -17t-22 -19.5q-11 -9 -30 -26.5
t-24.5 -21t-18 -8t-28.5 -4.5q-13 0 -22 1.5t-17.5 8.5t-12.5 11.5t-16 19t-19 22.5q-46 51 -46 64v1z" />
    <glyph glyph-name="zcaron" unicode="&#x17e;" horiz-adv-x="514" 
d="M42 84l276 270q-12 -2 -30 -2q-20 0 -59.5 3t-54.5 3q-22 0 -38 -14.5t-27 -29t-20 -14.5q-16 0 -16 29q0 6 1 13q6 59 38 104.5t83 45.5q26 0 98.5 -6.5t102.5 -6.5q36 0 63 5.5t34 5.5q17 0 17 -19q0 -28 -32 -58l-287 -284q15 2 38 2q19 0 51.5 -1.5t50.5 -1.5h10
q27 2 47.5 11.5t29.5 20t19 19t19 8.5q16 0 16 -29q0 -25 -7.5 -50.5t-24 -53t-51 -45t-81.5 -17.5q-30 0 -99.5 6.5t-89.5 6.5q-26 0 -55 -6t-39 -6q-21 0 -21 25q0 28 38 66zM183 711q3 16 21 16q39 0 110 -77q89 77 131 77q15 0 15 -12v-4q-2 -19 -63 -88
q-4 -5 -11.5 -13.5t-10.5 -11.5t-8.5 -9.5t-7.5 -8.5l-8 -6q-5 -4 -8 -5t-8 -3t-10 -2.5t-11 -1t-14 -0.5q-28 0 -42 12.5t-38 52.5q-37 61 -37 83v1z" />
    <glyph glyph-name="uni0218" unicode="&#x218;" horiz-adv-x="633" 
d="M34 169q3 46 27 52q4 1 7 1q7 0 11.5 -4t14.5 -18q2 -3 3 -5q58 -108 165 -108q35 0 56 17.5t25 41.5q1 5 1 10q0 7 -3 15.5t-14.5 19.5t-23 18.5t-31 20.5t-30.5 21q-72 47 -96 82t-24 81q0 19 3 40q13 86 80 144t155 63q12 2 29.5 2t28.5 1.5t20 8.5q8 4 22 14t28 16
t32 6q36 0 43 -47q6 -33 6 -68q0 -20 -2 -41q0 -45 -31 -52h-5q-7 0 -13.5 5t-20.5 24q-52 90 -124 90q-34 0 -56 -16.5t-27 -42.5q-2 -8 -2 -14q0 -20 17.5 -38t82.5 -60q40 -25 61 -40.5t43 -39.5t27 -46.5t5 -40.5q0 -15 -2 -31q-13 -93 -85.5 -148.5t-161.5 -60.5
q-16 -2 -29 -2q-8 0 -20.5 1.5t-28 1.5t-25.5 -7q-10 -5 -27 -18t-32 -20.5t-31 -7.5q-20 0 -30.5 10.5t-14.5 38.5q-4 51 -4 92q0 20 1 38zM68 -223q25 22 25 36v2q0 11 -13 29q-14 16 -14 34q0 11 5 23q10 24 27.5 35t33.5 11q6 0 11 -1q26 -3 34 -17t8 -27q0 -14 -6 -31
q-20 -61 -79 -100q-17 -12 -27 -12q-6 0 -9 3q-2 2 -2 5q0 4 6 10z" />
    <glyph glyph-name="uni0219" unicode="&#x219;" horiz-adv-x="500" 
d="M39 179h5q4 0 4.5 0.5t1.5 0.5q3 0 8.5 -4.5t7.5 -6.5t9.5 -10.5t11.5 -12.5q81 -91 158 -91q46 0 51 36v6q0 20 -26.5 40.5t-93.5 52.5q-114 56 -114 142q0 12 2 24q11 65 74.5 99.5t147.5 34.5q136 0 157 -52q7 -20 13 -49q2 -12 2 -21q0 -25 -17 -29q-3 -1 -6.5 -1
t-6 0.5t-6 2.5t-5.5 3.5t-6.5 5t-6.5 5.5t-8 7t-9 8q-65 55 -114 55q-24 0 -38 -11.5t-17 -25.5q-1 -3 -1 -6q0 -19 21.5 -35.5t79.5 -44.5q82 -40 110.5 -72.5t28.5 -69.5q0 -11 -2 -22q-12 -68 -70.5 -108t-137.5 -40q-89 0 -142.5 14t-65.5 54q-8 24 -18 77q-2 8 -2 15
q0 24 20 29zM141 -279q0 7 19.5 28t19.5 40q0 15 -18.5 39t-18.5 51q0 33 23 53.5t51 20.5q30 0 49 -20.5t19 -56.5q0 -62 -44.5 -115t-83.5 -53q-16 0 -16 13z" />
    <glyph glyph-name="uni021A" unicode="&#x21a;" horiz-adv-x="669" 
d="M69 526q13 79 34 129q10 25 29 35t62 10h410q43 0 59.5 -10t19.5 -35q3 -20 3 -46q0 -36 -5 -83q-7 -49 -34 -49q-19 0 -33 36q-22 62 -41.5 86t-60.5 24q-40 0 -46 -42l-57 -405q-3 -19 -3 -40q0 -25 8.5 -40t18.5 -20t16.5 -15t6.5 -22v-7q-3 -18 -17 -25t-47 -7h-183
q-32 0 -43.5 7t-11.5 19q0 3 1 6q2 19 18 31t35 28t27 45q6 22 9 40l56 405q1 5 1 10q0 31 -35 31q-42 0 -68 -23.5t-66 -85.5q-22 -36 -43 -36q-22 0 -22 30q0 8 2 19zM252 -279q0 7 19.5 28t19.5 40q0 15 -18.5 39t-18.5 51q0 33 23 53.5t51 20.5q30 0 49 -20.5t19 -56.5
q0 -62 -44.5 -115t-83.5 -53q-16 0 -16 13z" />
    <glyph glyph-name="uni021B" unicode="&#x21b;" horiz-adv-x="417" 
d="M27 411q6 33 41 38l49 8l17 95q4 25 30 31l98 23q3 1 7 1q9 0 15 -7t6 -19v-6q-4 -19 -9.5 -52t-8.5 -48l114 14q6 1 12 1q16 0 19.5 -7t3.5 -13q0 -12 -9 -33q-8 -20 -20.5 -29.5t-18 -11t-23.5 -3.5l-92 -7q-17 -119 -24 -173q-4 -31 -4 -52q0 -26 7.5 -45t33.5 -19
q35 0 59 32q10 10 18 10q2 0 8.5 -3t6.5 -18q0 -45 -50 -86.5t-114 -41.5q-71 0 -101.5 37.5t-30.5 91.5q0 15 2 33q10 85 35 226l-48 -5h-6q-13 0 -18.5 6.5t-5.5 17.5q0 6 1 14zM120 -279q0 7 19.5 28t19.5 40q0 15 -18.5 39t-18.5 51q0 33 23 53.5t51 20.5q30 0 49 -20.5
t19 -56.5q0 -62 -44.5 -115t-83.5 -53q-16 0 -16 13z" />
    <glyph glyph-name="uni0237" unicode="&#x237;" horiz-adv-x="295" 
d="M-80 -154q61 23 83.5 53.5t33.5 110.5l46 316q1 8 1 16q0 28 -19 36q-22 13 -22 28q0 14 15 27.5t60 29.5q77 27 114 27q28 0 28 -28v-7l-71 -474q-7 -45 -18 -76.5t-33 -59t-59.5 -41.5t-90.5 -14q-76 0 -88 28q-1 4 -1 7q0 13 21 21z" />
    <glyph glyph-name="circumflex" unicode="&#x2c6;" horiz-adv-x="500" 
d="M118 532q-18 0 -15 16q2 18 60 84q25 28 35.5 38.5t26.5 18.5t36 8q9 0 16.5 -1t12.5 -1.5t10 -4t8 -5t8 -9t7 -10t8.5 -14t9.5 -16.5q41 -70 39 -88q-3 -16 -21 -16q-39 -1 -109 77q-93 -78 -132 -77z" />
    <glyph glyph-name="caron" unicode="&#x2c7;" horiz-adv-x="500" 
d="M238 534q-28 0 -42 12.5t-38 52.5q-38 66 -37 84q3 16 21 16q39 0 110 -77q89 77 131 77q18 0 15 -16q-2 -19 -63 -88q-4 -5 -11.5 -13.5t-10.5 -11.5t-8.5 -9.5t-8 -8.5l-7.5 -6t-8 -5t-8 -3t-10 -2.5t-11 -1t-14 -0.5z" />
    <glyph glyph-name="breve" unicode="&#x2d8;" horiz-adv-x="500" 
d="M227 534q-67 0 -103 39t-28 98q3 33 22 33q11 0 21 -15q20 -29 43 -41.5t60 -12.5q65 0 116 54q15 15 24 15q19 0 14 -33q-8 -60 -56 -98.5t-113 -38.5z" />
    <glyph glyph-name="dotaccent" unicode="&#x2d9;" horiz-adv-x="500" 
d="M232 539q-32 0 -50.5 19t-17.5 47q0 39 35.5 72.5t78.5 33.5q31 -1 51.5 -20t20.5 -49q-1 -41 -37.5 -72.5t-80.5 -30.5z" />
    <glyph glyph-name="ring" unicode="&#x2da;" horiz-adv-x="500" 
d="M221 497q-47 0 -74.5 29t-20.5 76q7 48 44 78t86 30q47 0 74 -29t21 -76q-7 -48 -44.5 -78t-85.5 -30zM234 559q20 0 33 13.5t15 34.5q0 20 -10.5 32t-28.5 12q-21 0 -34 -13t-14 -34q-1 -20 9.5 -32.5t29.5 -12.5z" />
    <glyph glyph-name="ogonek" unicode="&#x2db;" horiz-adv-x="500" 
d="M241 -200q-45 0 -73 24t-28 63q0 69 87 113h50q-45 -52 -45 -93q0 -21 12 -34.5t35 -13.5q15 0 35 9q19 9 25.5 -3.5t-6.5 -26.5q-35 -38 -92 -38z" />
    <glyph glyph-name="tilde" unicode="&#x2dc;" horiz-adv-x="500" 
d="M308 531q-25 0 -80 21t-86 21q-36 0 -39 -30q-3 -16 -17 -12q-19 6 -20 36l1 13q4 30 28 52.5t65 22.5q30 0 91 -21t74 -21q36 0 40 30q3 17 17 11q21 -8 19 -42q-1 -4 -1 -7q-4 -29 -27.5 -51.5t-64.5 -22.5z" />
    <glyph glyph-name="hungarumlaut" unicode="&#x2dd;" horiz-adv-x="500" 
d="M99 537q-18 0 -18 16q0 24 36 92q33 59 63 59q23 0 37.5 -14t14.5 -39q0 -37 -47 -75.5t-86 -38.5zM260 536q-21 0 -21 15q0 23 42 92q37 56 65 56q21 0 35 -14t14 -38q0 -37 -47.5 -74t-87.5 -37z" />
    <glyph glyph-name="gravecomb" unicode="&#x300;" 
d="M-306 677q10 20 34 29q6 2 13 2q30 0 80 -41q65 -57 74 -85q1 -4 1 -7q0 -12 -15 -17q-16 -6 -37 -6q-31 0 -84 18t-67 59q-4 13 -4 24q0 13 5 24z" />
    <glyph glyph-name="acutecomb" unicode="&#x301;" 
d="M-374 582q10 29 75 85q50 41 78 41q32 0 43 -18.5t11 -33.5q0 -13 -5 -27q-14 -41 -67 -59t-84 -18q-21 0 -37 6q-15 5 -15 17q0 3 1 7z" />
    <glyph glyph-name="uni0302" unicode="&#x302;" 
d="M-397 552q4 19 60 84q26 29 36.5 39t26.5 18t36 8q8 0 14.5 -0.5t12 -2t9 -2.5t8 -4.5t6.5 -5.5t6.5 -8.5t6.5 -10t7.5 -13t8.5 -14.5q39 -66 39 -85v-3q-2 -16 -20 -16h-1q-38 0 -109 77q-90 -77 -130 -77h-1q-16 0 -16 13v3z" />
    <glyph glyph-name="tildecomb" unicode="&#x303;" 
d="M-434 567l1 13q4 30 28 52.5t65 22.5q30 0 91 -21t74 -21q36 0 40 30q2 13 10 13q3 0 7 -2q19 -7 19 -36v-6q-1 -4 -1 -7q-4 -29 -27.5 -51.5t-64.5 -22.5q-25 0 -80 21t-86 21q-36 0 -39 -30q-2 -13 -12 -13q-2 0 -5 1q-19 6 -20 36z" />
    <glyph glyph-name="uni0304" unicode="&#x304;" 
d="M-430 583q8 27 17.5 33.5t41.5 6.5h225q34 0 40.5 -4.5t6.5 -13.5q0 -6 -3 -15q-8 -27 -18 -33.5t-47 -6.5h-225q-31 0 -36 4.5t-5 11.5t3 17z" />
    <glyph glyph-name="uni0306" unicode="&#x306;" 
d="M-404 671q3 33 22 33q11 0 21 -15q20 -29 43 -41.5t60 -12.5q65 0 116 54q15 15 24 15q15 0 15 -21q0 -5 -1 -12q-8 -60 -56 -98.5t-113 -38.5q-67 0 -99.5 35.5t-32.5 80.5q0 10 1 21z" />
    <glyph glyph-name="uni0307" unicode="&#x307;" 
d="M-220 601q0 39 35.5 72.5t76.5 33.5h2q30 0 51 -19.5t21 -48.5q-1 -41 -37.5 -72.5t-80.5 -31.5q-32 0 -50 19t-18 44v3z" />
    <glyph glyph-name="uni0308" unicode="&#x308;" 
d="M-242 656q23 24 55 24q28 0 44.5 -16t16.5 -43q0 -32 -24 -53t-56 -21q-25 0 -41.5 14.5t-16.5 38.5q0 31 22 56zM-415 656q23 24 55 24q27 0 44 -16t17 -43q0 -32 -24.5 -53t-57.5 -21q-24 0 -40 14.5t-16 38.5q0 32 22 56z" />
    <glyph glyph-name="uni030A" unicode="&#x30a;" 
d="M-371 622q6 48 43 78t86 30q47 0 71.5 -26t24.5 -61q0 -8 -1 -18q-7 -48 -44 -78t-85 -30q-47 0 -71.5 26t-24.5 61q0 8 1 18zM-293 592q11 -13 30 -13q20 0 33 13.5t15 34.5q0 20 -10.5 32t-28.5 12q-21 0 -34 -13t-15 -34q0 -20 10 -32z" />
    <glyph glyph-name="uni030B" unicode="&#x30b;" 
d="M-419 553q0 24 36 92q33 59 63 59q23 0 37.5 -14t14.5 -39q0 -37 -47 -75.5t-86 -38.5q-18 0 -18 16zM-219 643q37 56 65 56q21 0 35 -14t14 -38q0 -37 -47.5 -74t-87.5 -37q-21 0 -21 15q0 23 42 92z" />
    <glyph glyph-name="uni030C" unicode="&#x30c;" 
d="M-373 725q3 16 21 16q39 0 110 -77q89 77 131 77q15 0 15 -12v-4q-2 -19 -63 -88q-4 -5 -11.5 -13.5t-10.5 -11.5t-8.5 -9.5t-8.5 -8.5l-7 -6q-5 -4 -8 -5t-8 -3t-10 -2.5t-11 -1t-14 -0.5q-28 0 -42 12.5t-38 52.5q-37 61 -37 83v1z" />
    <glyph glyph-name="uni0312" unicode="&#x312;" 
d="M-329 596q9 66 66 111q20 17 33 17q6 0 10 -3q3 -2 3 -5q0 -4 -5 -9q-22 -21 -25 -36v-4q0 -14 17 -26q28 -22 28 -48q0 -5 -1 -9q-4 -26 -22.5 -42.5t-44.5 -16.5q-30 0 -45 16.5t-15 39.5q0 7 1 15z" />
    <glyph glyph-name="uni0326" unicode="&#x326;" 
d="M-408 -279q0 7 19.5 28t19.5 40q0 15 -18.5 39t-18.5 51q0 33 23 53.5t51 20.5q30 0 49 -20.5t19 -56.5q0 -62 -44.5 -115t-83.5 -53q-16 0 -16 13z" />
    <glyph glyph-name="uni0327" unicode="&#x327;" 
d="M-336 -159q5 5 11 5q7 0 15 -5q19 -12 39 -12q19 0 30 10.5t11 25.5q0 34 -64 48q-15 3 -15 11q0 4 3 9l36 67h56l-27 -50q94 -15 94 -80q0 -38 -29 -62t-72 -24q-60 0 -87 35q-5 7 -5 13q0 5 4 9z" />
    <glyph glyph-name="uni0328" unicode="&#x328;" 
d="M-273 0h50q-45 -52 -45 -93q0 -21 12 -34.5t35 -13.5q15 0 35 9q8 4 14 4q8 0 11 -6t3 -10q0 -9 -9 -18q-35 -38 -92 -38q-45 0 -73 24t-28 63q0 69 87 113z" />
    <glyph glyph-name="uni0335" unicode="&#x335;" 
d="M-697 351q0 31 28 31h242q28 0 28 -31q0 -32 -28 -32h-242q-28 0 -28 32z" />
    <glyph glyph-name="uni0336" unicode="&#x336;" 
d="M-751 555h692q28 0 28 -29v-15q0 -29 -28 -29h-692q-28 0 -28 29v15q0 29 28 29z" />
    <glyph glyph-name="uni0337" unicode="&#x337;" 
d="M-564 308l261 152q8 4 15 4q16 0 28 -22q8 -12 8 -22q0 -13 -15 -22l-262 -151q-8 -5 -15 -5q-15 0 -26 21q-8 14 -8 24q0 14 14 21z" />
    <glyph glyph-name="uni0338" unicode="&#x338;" 
d="M-612 33l376 651q11 21 36 21q12 0 21 -6.5t9 -17.5q0 -7 -5 -17l-376 -651q-13 -22 -37 -22q-12 0 -21 6.5t-9 17.5q0 6 6 18z" />
    <glyph glyph-name="uni0401" unicode="&#x401;" horiz-adv-x="651" 
d="M14 32q2 16 10.5 25.5t19.5 15.5t22.5 16t22 34.5t15.5 62.5l47 328q3 25 3 42q0 12 -2.5 27t-11 27.5t-18 17t-14.5 13t-5 19.5q0 4 1 8q2 18 16.5 25t46.5 7h395q45 0 61.5 -7t20.5 -30q10 -46 13 -102v-6q0 -42 -25 -49q-6 -2 -11 -2q-19 0 -36 29q-25 49 -56 72
t-78 23h-42q-45 0 -62 -10.5t-21 -35.5l-13 -94q-1 -6 -1 -12q0 -18 12 -27.5t47 -9.5q41 0 70.5 17.5t43.5 17.5q15 0 20.5 -7.5t7.5 -21.5l7 -128q1 -8 1 -15q0 -13 -5 -21.5t-22 -12.5q-4 -1 -8 -1q-13 0 -25.5 13t-21 33t-29 37.5t-49.5 17.5q-36 0 -52 -10t-20 -39
l-28 -201q-1 -5 -1 -10q0 -17 14 -26.5t65 -9.5l61 1q42 0 69 25.5t67 89.5q24 39 48 39q3 0 6 -1q16 -4 18 -12.5t2 -14.5q0 -11 -3 -25q-16 -85 -34 -129q-11 -25 -30 -35t-62 -10h-413q-32 0 -43 6.5t-11 20.5v5zM440 814q0 31 22.5 55.5t54.5 24.5q27 0 44 -16t17 -43
q0 -32 -24 -53t-57 -21q-24 0 -40.5 14.5t-16.5 38.5zM267 814q0 32 22 56t55 24q27 0 43.5 -16t16.5 -43q0 -32 -24 -53t-58 -21q-23 0 -39 15t-16 38z" />
    <glyph glyph-name="uni0404" unicode="&#x404;" horiz-adv-x="702" 
d="M345 -10q-146 0 -230 103.5t-62 263.5q22 155 138 254t285 99q37 0 78.5 -9t47.5 -9q14 0 29 8.5t26 8.5q32 0 36 -52q6 -75 -1 -144q-2 -25 -8.5 -37t-22.5 -12q-14 0 -22.5 10t-22.5 38q-58 125 -163 125q-87 0 -147 -63t-74 -165q42 -24 74 -24q31 0 79.5 30t78.5 30
q46 0 95.5 -37.5t44.5 -69.5q-1 -10 -9 -18.5t-23 -8.5q-12 0 -42.5 18.5t-54.5 18.5t-65.5 -28t-71.5 -28q-51 0 -109 37q5 -97 57 -156.5t140 -59.5q54 0 98.5 17t96.5 53q16 11 27 7.5t10.5 -17.5t-10.5 -33q-40 -68 -119 -109t-184 -41z" />
    <glyph glyph-name="uni0406" unicode="&#x406;" horiz-adv-x="385" 
d="M14 32q2 19 18 31t35 28t27 45q6 22 9 40l48 348q3 21 3 40q0 21 -5.5 34.5t-13.5 20t-15.5 12t-11.5 13t-4 16.5q0 4 1 8q2 18 15.5 25t47.5 7h183q33 0 44 -6.5t11 -18.5q0 -3 -1 -7q-2 -19 -18 -31t-35 -28t-27 -45q-5 -16 -8 -40l-49 -348q-3 -19 -3 -40
q0 -25 8.5 -40t18.5 -20t16.5 -15t6.5 -22v-7q-3 -18 -17 -25t-47 -7h-183q-32 0 -43.5 7t-11.5 19q0 3 1 6z" />
    <glyph glyph-name="uni0407" unicode="&#x407;" horiz-adv-x="351" 
d="M-20 32q2 19 18 31t35 28t27 45q4 14 8 40l49 348q3 21 3 40q0 21 -5.5 34.5t-13.5 20t-16 12t-12 13t-4 16.5q0 4 1 8q3 18 16.5 25t47.5 7h183q33 0 44 -6.5t11 -18.5q0 -3 -1 -7q-2 -19 -18 -31t-35 -28t-27 -45q-7 -23 -9 -40l-48 -348q-3 -19 -3 -40q0 -25 8.5 -40
t18.5 -20t16 -15t6 -22v-7q-2 -18 -16 -25t-47 -7h-183q-32 0 -43.5 7t-11.5 19q0 3 1 6zM120 814q5 32 31 56t58 24q27 0 40 -14.5t13 -33.5q0 -5 -1 -11q-4 -32 -31.5 -53t-60.5 -21q-24 0 -37 13t-13 32q0 4 1 8zM294 814q4 31 30 55.5t58 24.5q28 0 40.5 -14t12.5 -34
q0 -5 -1 -11q-4 -32 -31 -53t-59 -21q-25 0 -38 13t-13 30q0 5 1 10z" />
    <glyph glyph-name="uni0410" unicode="&#x410;" horiz-adv-x="731" 
d="M-22 29q2 16 18.5 26.5t41.5 28.5t41 48l235 432q12 28 12 41q0 5 -3.5 12t-15 21t-11.5 28v4q4 30 38 30h124q30 0 39 -29l137 -533q9 -35 25.5 -53t25 -26t8.5 -21v-6q-3 -18 -16 -25t-44 -7h-183q-28 0 -38 6.5t-10 18.5q0 3 1 7q2 13 13.5 23t22 16t15.5 18.5t5 22.5
q0 12 -4 26l-6 23q-5 22 -16 26q-14 6 -112 6q-89 0 -106 -3.5t-28 -23.5l-19 -34q-15 -33 -15 -46q0 -3 2.5 -10t13 -19t10.5 -24v-4q-4 -29 -53 -29h-94q-29 0 -41.5 6t-12.5 19v4zM252 271q7 -5 80 -5q68 0 77 3t9 13q0 5 -2 11l-51 204l-107 -198q-8 -15 -8 -22
q0 -4 2 -6z" />
    <glyph glyph-name="uni0411" unicode="&#x411;" horiz-adv-x="708" 
d="M313 0h-244q-33 0 -45 7t-9 25q2 19 18 31t35 28t27 45q5 17 9 50l47 328q4 32 4 50q0 23 -9 38.5t-19.5 22t-18 17t-5.5 26.5q3 18 17.5 25t46.5 7h397q49 0 66 -10t20 -35q5 -55 -1 -108q-2 -26 -8.5 -38t-20.5 -12q-20 0 -34 36q-21 51 -43.5 73t-64.5 22h-70
q-44 0 -61.5 -9.5t-19.5 -31.5l-14 -96q-2 -10 3 -15.5t15 -4.5q12 1 39 1q144 0 222 -69.5t62 -179.5q-31 -223 -341 -223zM314 69q72 0 117 37.5t54 102.5q12 88 -35 142t-122 54q-16 1 -22.5 -5t-8.5 -22l-38 -275q-3 -19 11 -26.5t44 -7.5z" />
    <glyph glyph-name="uni0412" unicode="&#x412;" horiz-adv-x="706" 
d="M15 32q2 19 18 31t35 28t27 45q5 17 9 50l47 328q4 32 4 50q0 23 -9 38.5t-19.5 22t-17 16t-6.5 21.5v6q3 18 17.5 25t46.5 7h225q79 0 133 -13t82.5 -44.5t28.5 -73.5q0 -10 -1 -20q-11 -92 -107 -129q76 -18 108 -63t32 -98q0 -13 -2 -27q-15 -101 -104.5 -166.5
t-232.5 -65.5h-260q-33 0 -44 6.5t-11 18.5q0 3 1 7zM272 88q14 -16 64 -16q127 0 146 128q2 15 2 28q0 54 -35.5 98.5t-117.5 44.5q-20 0 -28 -6t-10 -23l-29 -200q-2 -12 -2 -21q0 -22 10 -33zM312 456q3 -5 13.5 -7t14.5 -2h16q104 0 114 79q1 8 1 16q0 32 -25.5 59
t-79.5 27q-34 0 -37 -28l-19 -130v-4q0 -6 2 -10z" />
    <glyph glyph-name="uni0413" unicode="&#x413;" horiz-adv-x="622" 
d="M252 0h-183q-32 0 -44.5 7.5t-9.5 24.5q2 19 18 31t35 28t27 45q7 24 8 40l48 338q4 32 4 50q0 23 -9 38.5t-19.5 22t-18 17t-5.5 26.5q3 18 17.5 25t46.5 7h377q49 0 66 -10t19 -35q5 -53 0 -108q-2 -26 -8.5 -38t-20.5 -12q-20 0 -34 36q-22 51 -44 73t-65 22h-49
q-44 0 -61 -9.5t-20 -31.5l-58 -411q-3 -19 -3 -40q0 -25 8.5 -40t18.5 -20t17 -16t5 -28q-2 -18 -16 -25t-47 -7z" />
    <glyph glyph-name="uni0414" unicode="&#x414;" horiz-adv-x="787" 
d="M-37 -150q-28 0 -20 50q14 78 34 127q10 25 27.5 35t54.5 10t55 34q61 108 99 233.5t52 229.5q3 21 -5.5 35t-21 20t-22 17t-7.5 26q3 18 16.5 25.5t46.5 7.5h440q33 0 45 -7t9 -25q-2 -16 -12.5 -26.5t-22.5 -17t-25 -22t-20 -38.5t-10 -50l-56 -397q-4 -30 1 -37t28 -7
q35 0 49 -10.5t17 -35.5q6 -47 -2 -127q-5 -49 -34 -49q-17 0 -26 8t-16 27q-23 63 -42.5 88.5t-59.5 25.5h-386q-39 0 -67 -26.5t-67 -87.5q-23 -36 -52 -36zM190 72l259 1l72 514q2 22 -13 31.5t-61 9.5q-43 0 -67 -8.5t-29 -33.5q-38 -178 -69 -281.5t-92 -232.5z" />
    <glyph glyph-name="uni0415" unicode="&#x415;" horiz-adv-x="651" 
d="M14 32q2 16 10.5 25.5t19.5 15.5t22.5 16t22 34.5t15.5 62.5l47 328q3 25 3 42q0 12 -2.5 27t-11 27.5t-18 17t-14.5 13t-5 19.5q0 4 1 8q2 18 16.5 25t46.5 7h395q45 0 61.5 -7t20.5 -30q10 -46 13 -102v-6q0 -42 -25 -49q-6 -2 -11 -2q-19 0 -36 29q-25 49 -56 72
t-78 23h-42q-45 0 -62 -10.5t-21 -35.5l-13 -94q-1 -6 -1 -12q0 -18 12 -27.5t47 -9.5q41 0 70.5 17.5t43.5 17.5q15 0 20.5 -7.5t7.5 -21.5l7 -128q1 -8 1 -15q0 -13 -5 -21.5t-22 -12.5q-4 -1 -8 -1q-13 0 -25.5 13t-21 33t-29 37.5t-49.5 17.5q-36 0 -52 -10t-20 -39
l-28 -201q-1 -5 -1 -10q0 -17 14 -26.5t65 -9.5l61 1q42 0 69 25.5t67 89.5q24 39 48 39q3 0 6 -1q16 -4 18 -12.5t2 -14.5q0 -11 -3 -25q-16 -85 -34 -129q-11 -25 -30 -35t-62 -10h-413q-32 0 -43 6.5t-11 20.5v5z" />
    <glyph glyph-name="uni0416" unicode="&#x416;" horiz-adv-x="1126" 
d="M226 0h-192q-24 0 -38 6t-13 21q2 11 12.5 19.5t24.5 16t34.5 27t37.5 47.5l216 339l-86 117q-13 18 -39.5 32.5t-43.5 25t-15 24.5q3 25 58 25h141q45 0 42 -24q-2 -11 -12 -21.5t-18 -16.5t-11.5 -18t8.5 -27l162 -230l30 216q5 32 -16.5 56t-19.5 39q4 24 50 24h170
q25 0 36 -5.5t9 -19.5q-2 -13 -16 -24.5t-28.5 -28t-18.5 -41.5l-30 -220l230 234q20 25 16.5 33.5t-15.5 22.5t-10 27q3 24 48 24h142q28 0 40 -6t11 -19q-2 -14 -22 -24.5t-50.5 -25t-49.5 -32.5l-118 -116l122 -340q10 -28 25 -47.5t26.5 -27t19.5 -16t7 -19.5
q-4 -27 -58 -27h-193q-47 0 -44 25q2 12 16 26.5t20 26.5t-2 48l-71 221l-107 -106l-17 -121q-4 -32 17 -56t19 -39q-3 -24 -50 -24h-169q-25 0 -36 6t-9 19t15.5 24.5t28.5 28t18 41.5l18 125l-75 101l-132 -220q-18 -35 -15 -47.5t12.5 -27t7.5 -26.5q-3 -25 -50 -25z" />
    <glyph glyph-name="uni0417" unicode="&#x417;" horiz-adv-x="579" 
d="M199 -10q-51 1 -95 12q-37 10 -55 27.5t-23 55.5q-7 46 -2 103q4 38 30 35q22 -3 36 -43q20 -57 59.5 -87.5t88.5 -30.5q51 0 85 34.5t42 89.5q10 74 -27.5 117t-127.5 45q-20 0 -27 17t3.5 34.5t33.5 19.5q72 7 112.5 47.5t47.5 95.5q5 32 -12.5 54t-49.5 22
q-30 0 -60.5 -18.5t-48 -37.5t-42.5 -51q-20 -27 -31.5 -36.5t-25.5 -9.5t-17 13t2 36q9 51 33 124q18 52 49 52q11 0 24 -8t27 -8q6 0 48.5 8t76.5 8q101 0 153.5 -43t43.5 -116q-7 -54 -53.5 -99t-113.5 -66q79 -19 121.5 -69.5t32.5 -118.5q-14 -102 -106.5 -156.5
t-231.5 -51.5z" />
    <glyph glyph-name="uni0418" unicode="&#x418;" horiz-adv-x="845" 
d="M14 32q2 18 14.5 31t26.5 21t28.5 31.5t19.5 60.5l48 348q2 17 2 31q0 19 -5.5 38.5t-17 27t-19 17.5t-7.5 22q0 4 1 8q2 18 15.5 25t47.5 7h183q33 0 44 -6.5t11 -18.5q0 -3 -1 -7q-2 -18 -14.5 -31t-26.5 -21.5t-28 -32t-19 -59.5l-36 -258l328 283q1 10 1 20
q0 17 -6 33t-16.5 23t-19 17t-8.5 23v3q1 18 15.5 25t47.5 7h184q32 0 43 -6.5t11 -20.5v-5q-3 -18 -15.5 -31t-26.5 -21t-28 -31.5t-19 -60.5l-48 -348q-2 -19 -2 -34q0 -14 3 -28t11 -25t17 -15.5t13.5 -13t4.5 -19.5q0 -4 -1 -9q-3 -18 -17 -25t-46 -7h-184
q-31 0 -42.5 7t-11.5 20v5q3 18 15.5 31.5t26.5 21.5t28 31t19 60l39 280l-330 -285q-2 -16 -2 -30q0 -19 5.5 -37t17 -24.5t19.5 -16.5t8 -24v-7q-3 -18 -16.5 -25t-47.5 -7h-183q-33 0 -44 6.5t-11 18.5q0 3 1 7z" />
    <glyph glyph-name="uni0419" unicode="&#x419;" horiz-adv-x="845" 
d="M14 32q2 18 14.5 31t26.5 21t28.5 31.5t19.5 60.5l48 348q2 17 2 31q0 19 -5.5 38.5t-17 27t-19 17.5t-7.5 22q0 4 1 8q2 18 15.5 25t47.5 7h183q33 0 44 -6.5t11 -18.5q0 -3 -1 -7q-2 -18 -14.5 -31t-26.5 -21.5t-28 -32t-19 -59.5l-36 -258l328 283q1 10 1 20
q0 17 -6 33t-16.5 23t-19 17t-8.5 23v3q1 18 15.5 25t47.5 7h184q32 0 43 -6.5t11 -20.5v-5q-3 -18 -15.5 -31t-26.5 -21t-28 -31.5t-19 -60.5l-48 -348q-2 -19 -2 -34q0 -14 3 -28t11 -25t17 -15.5t13.5 -13t4.5 -19.5q0 -4 -1 -9q-3 -18 -17 -25t-46 -7h-184
q-31 0 -42.5 7t-11.5 20v5q3 18 15.5 31.5t26.5 21.5t28 31t19 60l39 280l-330 -285q-2 -16 -2 -30q0 -19 5.5 -37t17 -24.5t19.5 -16.5t8 -24v-7q-3 -18 -16.5 -25t-47.5 -7h-183q-33 0 -44 6.5t-11 18.5q0 3 1 7zM325 862q3 20 18.5 32.5t34.5 12.5q20 0 35 -16t23 -35.5
t23.5 -35.5t37.5 -16q21 0 41 16t33.5 35.5t33 35.5t39.5 16q19 0 30 -11.5t11 -26.5q0 -3 -1 -7q-7 -52 -65 -82t-129 -30q-79 0 -122.5 28t-43.5 69q0 7 1 15z" />
    <glyph glyph-name="uni041A" unicode="&#x41a;" horiz-adv-x="775" 
d="M14 32q2 18 14.5 31t26.5 21.5t28 31.5t19 60l50 348q2 18 2 33q0 13 -3 27.5t-11.5 25.5t-17.5 16t-13.5 14t-4.5 19q0 4 1 9q2 18 15.5 25t47.5 7h183q33 0 44 -6.5t11 -20.5v-5q-3 -18 -15.5 -31t-26.5 -21.5t-28 -31.5t-19 -60l-21 -146l237 194q23 19 25 28t2 12
q0 9 -7.5 15.5t-16 16.5t-8.5 20v4q5 32 50 32h140q31 0 43.5 -7t12.5 -19q0 -3 -1 -6q-2 -16 -11.5 -25t-23 -14t-41 -19.5t-55.5 -37.5l-72 -59l115 -360q10 -30 25 -49.5t26 -26t16.5 -16t5.5 -21.5v-8q-2 -18 -15.5 -25t-45.5 -7h-175q-33 0 -44 6.5t-11 18.5q0 3 1 7
q2 15 17.5 30t23 29t7.5 27q0 11 -4 24l-80 258l-150 -123l-14 -101q-3 -21 -3 -36q0 -12 3 -25.5t11.5 -24.5t17.5 -16t14 -14t5 -20q0 -4 -1 -8q-3 -18 -17 -25t-47 -7h-183q-32 0 -43.5 7t-11.5 19q0 3 1 6z" />
    <glyph glyph-name="uni041B" unicode="&#x41b;" horiz-adv-x="774" 
d="M66 -10q-38 0 -69 22t-25 70q5 31 26.5 51.5t45.5 20.5q19 0 30.5 -9.5t15.5 -20.5t12 -20.5t20 -9.5q41 0 94 168.5t72 306.5q3 23 -4 40.5t-18 25.5t-19 18.5t-6 21.5q3 25 53 25h434q51 0 48 -25q-2 -13 -16.5 -24.5t-30 -28t-18.5 -41.5l-56 -405q-3 -19 -3 -40
q0 -25 8.5 -40t18.5 -20t17 -16t5 -28q-3 -18 -17 -25t-46 -7h-184q-31 0 -43.5 7.5t-10.5 24.5q2 16 12.5 27t22.5 17t25.5 21.5t19.5 38.5q6 22 9 40l58 411q2 22 -14 31.5t-64 9.5q-43 0 -67.5 -8.5t-29.5 -33.5q-54 -266 -89 -371q-39 -115 -83 -167q-51 -58 -134 -58z
" />
    <glyph glyph-name="uni041C" unicode="&#x41c;" horiz-adv-x="947" 
d="M12 29q2 11 12.5 21t22.5 17t24 23t16 37l81 434q2 10 2 19q0 12 -5.5 25t-16.5 19t-18 16.5t-7 21.5v6q2 18 15 25t42 7h134q31 0 40 -28l116 -400l244 399q17 29 47 29h127q29 0 39 -6.5t10 -18.5q0 -3 -1 -7q-2 -15 -13 -26t-23.5 -17.5t-23.5 -22.5t-14 -41l-43 -402
q-1 -7 -1 -14q0 -18 5 -32.5t14 -22.5t18.5 -14.5t14.5 -15t5 -19.5q0 -4 -1 -9q-3 -18 -16 -25t-46 -7h-176q-33 0 -44 6.5t-11 18.5q0 3 2 14t13 23.5t23 19.5t23.5 26.5t15.5 50.5l42 341l-260 -428q-15 -25 -45 -32q-7 -1 -12 -1q-21 0 -28 20l-122 434l-63 -366
q-2 -9 -2 -16q0 -16 9 -30.5t19.5 -25.5t10.5 -23v-4q-2 -16 -14 -22t-37 -6h-99q-27 0 -36 6t-9 18v5z" />
    <glyph glyph-name="uni041D" unicode="&#x41d;" horiz-adv-x="852" 
d="M14 32q2 19 18 31t35 28t27 45q7 23 9 40l48 348q3 21 3 40q0 21 -5.5 34.5t-13.5 20t-15.5 12t-11.5 13t-4 16.5q0 4 1 8q2 18 15.5 25t47.5 7h183q33 0 44 -6.5t11 -18.5q0 -3 -1 -7q-2 -16 -12.5 -26.5t-22.5 -17t-25 -22t-20 -38.5q-7 -24 -8 -40l-10 -67
q-1 -10 -1 -18q0 -15 5 -20q13 -11 106 -11h32q117 0 135 8q15 6 19 33q0 3 1 8l9 67q3 21 3 40q0 25 -8.5 40.5t-18.5 20.5t-16 14.5t-6 21.5v7q3 18 16.5 25t46.5 7h184q32 0 43 -6.5t11 -20.5v-5q-2 -16 -12.5 -26.5t-22.5 -17t-25.5 -22t-19.5 -38.5q-7 -23 -9 -40
l-48 -348q-3 -21 -3 -40q0 -25 8.5 -40.5t18.5 -20.5t16 -14.5t6 -21.5v-7q-3 -18 -16.5 -25t-46.5 -7h-184q-32 0 -43 6.5t-11 20.5v5q2 16 12.5 27t22.5 17t25.5 21.5t19.5 38.5q7 23 9 40l15 110q1 10 1 18q0 15 -5 20q-13 11 -106 11h-32q-117 0 -135 -8q-14 -6 -18 -33
l-17 -118q-3 -21 -3 -40q0 -21 5.5 -34.5t13.5 -20t16 -12t12 -13t4 -16.5q0 -4 -1 -8q-3 -18 -16.5 -25t-47.5 -7h-183q-33 0 -44 6.5t-11 18.5q0 3 1 7z" />
    <glyph glyph-name="uni041E" unicode="&#x41e;" horiz-adv-x="775" 
d="M167 587q119 121 289 121q142 0 225 -87t83 -221q0 -170 -115.5 -288.5t-282.5 -118.5h-3q-136 1 -225.5 86.5t-89.5 219.5q0 167 119 288zM270 145q46 -63 124 -63q62 0 106.5 48.5t64.5 117.5t20 146q0 104 -40 168.5t-117 64.5q-62 0 -110 -49t-71.5 -120.5
t-23.5 -149.5q0 -100 47 -163z" />
    <glyph glyph-name="uni041F" unicode="&#x41f;" horiz-adv-x="814" 
d="M252 1h-183q-33 0 -45 7t-9 25q2 19 18 31t35 28t27 45q5 16 8 40l48 337q4 32 4 50q0 23 -9 38.5t-19.5 22t-18 17t-5.5 26.5q3 18 17.5 25t46.5 7h609q33 0 45 -7t9 -25q-2 -16 -12.5 -26.5t-22.5 -17t-25.5 -22t-19.5 -38.5q-7 -23 -10 -50l-47 -337q-3 -21 -3 -40
q0 -21 5.5 -34.5t13.5 -20t15.5 -12t12 -14.5t2.5 -23q-2 -18 -15.5 -25t-47.5 -7h-184q-32 0 -44 7t-10 25q2 16 12.5 27t22.5 17t25.5 21.5t19.5 38.5q7 23 9 40l57 405q4 25 -20 35t-101 10q-82 0 -107.5 -9.5t-29.5 -35.5l-57 -405q-3 -21 -3 -40q0 -21 5.5 -34.5
t13.5 -20t15.5 -12t12 -14.5t2.5 -23q-2 -18 -15.5 -25t-47.5 -7z" />
    <glyph glyph-name="uni0420" unicode="&#x420;" horiz-adv-x="690" 
d="M252 0h-183q-32 0 -44.5 7.5t-9.5 24.5q2 18 14.5 30t26 19.5t28 32t19.5 63.5l48 337q5 41 1 63t-12.5 34.5t-18 18t-15 15t-3.5 23.5q3 18 17.5 25t46.5 7h216q157 0 237 -72.5t63 -195.5q-32 -224 -340 -224h-49q-12 0 -17 -3.5t-6 -16.5q-4 -21 -4 -48
q-1 -22 4.5 -36t13.5 -21t15.5 -12.5t12 -15t2.5 -23.5q-2 -18 -16 -25t-47 -7zM343 277q72 0 117 37.5t54 103.5q14 100 -29.5 157.5t-113.5 57.5q-24 0 -32 -5.5t-10 -21.5l-41 -295q-3 -18 11 -26t44 -8z" />
    <glyph glyph-name="uni0421" unicode="&#x421;" horiz-adv-x="708" 
d="M53 358q22 152 144 252t281 100q37 0 78.5 -9t47.5 -9q14 0 29 8.5t26 8.5q32 0 36 -52q5 -65 5 -144q-1 -25 -8 -37.5t-25 -12.5q-16 0 -25.5 10t-25.5 38q-17 31 -29 48.5t-32 38t-44.5 30t-56.5 9.5q-87 0 -147.5 -63.5t-74.5 -163.5q-5 -34 -5 -65q0 -91 45.5 -172.5
t155.5 -81.5q94 0 196 93q13 12 23 12q7 0 13.5 -7t6.5 -16q0 -11 -9 -24q-41 -70 -123.5 -114.5t-175.5 -44.5q-153 0 -231.5 93t-78.5 213q0 30 4 62z" />
    <glyph glyph-name="uni0422" unicode="&#x422;" horiz-adv-x="669" 
d="M69 526q13 79 34 129q10 25 29 35t62 10h410q43 0 59.5 -10t19.5 -35q3 -20 3 -46q0 -36 -5 -83q-7 -49 -34 -49q-19 0 -33 36q-22 62 -41.5 86t-60.5 24q-40 0 -46 -42l-57 -405q-3 -19 -3 -40q0 -25 8.5 -40t18.5 -20t16.5 -15t6.5 -22v-7q-3 -18 -17 -25t-47 -7h-183
q-32 0 -43.5 7t-11.5 19q0 3 1 6q2 19 18 31t35 28t27 45q6 22 9 40l56 405q1 5 1 10q0 31 -35 31q-42 0 -68 -23.5t-66 -85.5q-22 -36 -43 -36q-22 0 -22 30q0 8 2 19z" />
    <glyph glyph-name="uni0423" unicode="&#x423;" horiz-adv-x="699" 
d="M59 675q1 24 48 24h193q25 0 35 -5.5t10 -15.5v-4q-1 -10 -10.5 -20.5t-17.5 -17t-11.5 -16t-3.5 -14.5q0 -10 5 -20l97 -234l124 216q17 34 17 47q0 2 -2 8.5t-12.5 18.5t-10.5 24v4q2 29 53 29h94q54 0 54 -26v-3q-2 -13 -13 -23t-25 -16.5t-33 -23t-33 -39.5
l-211 -356q-73 -124 -127 -173t-117 -49q-43 0 -72.5 22t-29.5 57q0 8 1 16q4 27 25.5 46.5t44.5 19.5q19 0 30.5 -8.5t15 -18.5t11.5 -18.5t20 -8.5q30 0 74 69q5 7 5 15q0 6 -3 12l-165 393q-8 21 -25 36.5t-26.5 25.5t-9.5 21q0 3 1 6z" />
    <glyph glyph-name="uni0424" unicode="&#x424;" horiz-adv-x="878" 
d="M494 0h-184q-32 0 -44 7t-9 25q2 14 14 23.5t25 14.5t25 17t15 30q2 7 0 10t-7 2q-26 -2 -54 -2q-109 0 -173 64t-50 162q13 96 90.5 155.5t181.5 59.5q32 0 68 -5q6 -1 8 2t3 9q0 21 -9.5 35t-20.5 19t-19 15t-6 25q2 18 15.5 25t46.5 7h184q32 0 44.5 -7t10.5 -25
q-2 -15 -13.5 -25t-24.5 -15t-26 -18.5t-19 -33.5q-2 -6 -0.5 -9t7.5 -2q50 3 70 3q106 0 165.5 -60t46.5 -155q-14 -99 -96 -162.5t-191 -63.5q-40 0 -54 1q-10 1 -12 -11q-2 -18 7 -30t20.5 -17t20.5 -14.5t7 -23.5q-2 -18 -15.5 -25t-47.5 -7zM314 190q21 0 34 4l43 308
q-12 4 -32 4q-62 0 -102.5 -45.5t-50.5 -116.5q-10 -69 20.5 -111.5t87.5 -42.5zM546 190q57 0 99 43t51 111q10 71 -16.5 116.5t-88.5 45.5q-21 0 -34 -3l-44 -311q13 -2 33 -2z" />
    <glyph glyph-name="uni0425" unicode="&#x425;" horiz-adv-x="766" 
d="M-27 30q2 13 14.5 22.5t28.5 15.5t39.5 21.5t42.5 37.5l187 217l-138 229q-14 23 -31 39t-28 21.5t-17 13t-6 17.5v6q4 29 53 29h210q45 0 45 -27v-3q-2 -12 -11.5 -21.5t-17.5 -15t-8 -20.5t14 -39l78 -129l112 129q22 25 25.5 36.5t3.5 15.5q0 6 -4.5 10t-10.5 12.5
t-6 17.5v5q4 29 54 29h107q28 0 40.5 -6t12.5 -19v-4q-2 -13 -14.5 -22.5t-28.5 -15.5t-39.5 -21.5t-42.5 -37.5l-170 -194l153 -252q14 -23 31 -39t28 -21.5t17 -13t6 -17.5v-6q-4 -29 -54 -29h-209q-25 0 -35 6t-10 19v5q2 12 11.5 21.5t17.5 15t8 18.5q0 1 -0.5 9
t-14.5 32l-92 152l-130 -152q-21 -25 -24.5 -36.5t-3.5 -16.5t4.5 -9.5t10.5 -12.5t6 -17v-5q-4 -29 -54 -29h-106q-29 0 -41.5 6t-12.5 19v4z" />
    <glyph glyph-name="uni0426" unicode="&#x426;" horiz-adv-x="857" 
d="M749 -149q-17 0 -26 8t-16 27q-23 63 -42.5 88.5t-58.5 25.5h-538q-33 0 -45 7t-9 25q2 19 18 31t35 28t27 45q7 23 10 50l47 338q3 21 3 40q0 21 -5.5 34.5t-13.5 20t-15.5 12t-12 14.5t-2.5 23q2 18 15.5 25t47.5 7h183q33 0 45 -7t9 -25q-2 -19 -18 -31t-35 -28
t-27 -45q-5 -16 -8 -40l-57 -406q-4 -25 20 -35t102 -10q82 0 107 9.5t29 35.5l57 406q2 14 2 40q0 21 -5.5 34.5t-13 20t-15.5 12t-12.5 14.5t-2.5 23q3 18 16.5 25t46.5 7h184q33 0 45 -7t9 -25q-3 -19 -18.5 -31t-34.5 -28t-27 -45q-7 -23 -9 -40l-57 -407q-5 -44 35 -44
q36 0 50 -10t17 -36q6 -47 -2 -127q-5 -49 -34 -49z" />
    <glyph glyph-name="uni0427" unicode="&#x427;" horiz-adv-x="770" 
d="M632 0h-184q-31 0 -43.5 7.5t-10.5 24.5q2 16 12.5 27t22.5 17t25.5 21.5t19.5 38.5q6 22 9 40l12 88q-123 -20 -191 -20q-60 0 -103 13.5t-65 37t-34.5 54t-11.5 65t5 70.5l6 38q3 21 3 40q0 21 -6 34.5t-14 20t-15.5 12t-11.5 14.5t-2 23q2 18 15.5 25t47.5 7h184
q32 0 44 -7t9 -25q-2 -16 -12.5 -26.5t-22 -17t-25 -22t-19.5 -38.5q-9 -30 -10 -40l-2 -17q-7 -54 -7.5 -95.5t23.5 -66.5t75 -25q42 0 150 17l26 189q3 21 3 40q0 25 -8.5 40.5t-18.5 20.5t-17 15.5t-5 27.5q3 18 16.5 25t46.5 7h184q32 0 44 -7t10 -25q-2 -16 -12.5 -27
t-22.5 -17t-25.5 -21.5t-19.5 -38.5q-7 -23 -9 -40l-48 -348q-3 -19 -3 -40q0 -25 8.5 -40t18.5 -20t17 -16t5 -28q-3 -18 -17 -25t-46 -7z" />
    <glyph glyph-name="uni0428" unicode="&#x428;" horiz-adv-x="1118" 
d="M981 0h-913q-33 0 -45 7t-9 25q2 19 18 31t35 28t27 45q7 23 10 50l47 338q3 21 3 40q0 21 -5.5 34.5t-13.5 20t-15.5 12t-12 14.5t-2.5 23q2 18 15.5 25t47.5 7h183q33 0 45 -7t9 -25q-2 -19 -18 -31t-35 -28t-27 -45q-5 -16 -8 -40l-57 -406q-4 -25 15.5 -35t76.5 -10
q61 0 81.5 10t24.5 35l57 406q2 14 2 40q0 21 -5.5 34.5t-13 20t-15.5 12t-12.5 14.5t-2.5 23q3 18 16.5 25t46.5 7h184q33 0 45 -7t9 -25q-3 -19 -18.5 -31t-34.5 -28t-27 -45q-7 -23 -9 -40l-56 -406q-4 -25 15.5 -35t75.5 -10q62 0 82.5 10t24.5 35l56 406q3 21 3 40
q0 25 -8.5 40.5t-18.5 20.5t-17 15.5t-5 27.5q3 18 16.5 25t46.5 7h184q32 0 44 -7t10 -25q-2 -16 -12.5 -27t-22.5 -17t-25.5 -21.5t-19.5 -38.5q-7 -23 -9 -40l-47 -338q-4 -32 -4 -50q0 -23 9 -38.5t19.5 -21.5t17.5 -17t5 -27q-3 -18 -17 -25t-46 -7z" />
    <glyph glyph-name="uni0429" unicode="&#x429;" horiz-adv-x="1161" 
d="M1053 -149q-18 0 -27 8t-16 27q-23 63 -42.5 88.5t-59.5 25.5h-840q-33 0 -45 7t-9 25q2 19 18 31t35 28t27 45q7 23 10 50l47 338q3 21 3 40q0 21 -5.5 34.5t-13.5 20t-15.5 12t-12 14.5t-2.5 23q2 18 15.5 25t47.5 7h183q33 0 45 -7t9 -25q-2 -19 -18 -31t-35 -28
t-27 -45q-5 -16 -8 -40l-57 -406q-4 -25 15.5 -35t76.5 -10q61 0 81.5 10t24.5 35l57 406q2 14 2 40q0 21 -5.5 34.5t-13 20t-15.5 12t-12.5 14.5t-2.5 23q3 18 16.5 25t46.5 7h184q33 0 45 -7t9 -25q-3 -19 -18.5 -31t-34.5 -28t-27 -45q-7 -23 -9 -40l-56 -406
q-4 -25 15.5 -35t75.5 -10q62 0 82.5 10t24.5 35l56 406q3 21 3 40q0 25 -8.5 40.5t-18.5 20.5t-17 15.5t-5 27.5q3 18 16.5 25t46.5 7h184q32 0 44 -7t10 -25q-2 -16 -12.5 -27t-22.5 -17t-25.5 -21.5t-19.5 -38.5q-7 -23 -9 -40l-57 -407q-6 -44 35 -44q35 0 49.5 -10.5
t17.5 -35.5q7 -48 -3 -127q-3 -49 -33 -49z" />
    <glyph glyph-name="uni042A" unicode="&#x42a;" horiz-adv-x="750" 
d="M392 0h-245q-32 0 -44.5 7.5t-9.5 24.5q2 16 12.5 27t22.5 17.5t25.5 22t19.5 38.5q6 20 10 49l54 391q8 51 -33 51q-29 0 -52 -26.5t-65 -92.5q-21 -35 -42 -35q-29 0 -20 49q14 80 35 132q9 23 29.5 34t69.5 11h272q32 0 44 -7t10 -25q-2 -16 -12.5 -26.5t-22.5 -17
t-25.5 -22t-19.5 -38.5q-7 -23 -10 -50l-3 -23q-2 -10 2.5 -15.5t14.5 -4.5q12 1 39 1q144 0 222 -69.5t62 -179.5q-31 -223 -340 -223zM392 69q72 0 117 37.5t54 102.5q12 88 -35 142t-122 54q-15 1 -22 -5t-9 -22l-38 -275q-3 -19 11 -26.5t44 -7.5z" />
    <glyph glyph-name="uni042B" unicode="&#x42b;" horiz-adv-x="1005" 
d="M14 32q2 19 18 31t35 28t27 45q7 23 10 50l47 338q3 21 3 40q0 21 -5.5 34.5t-13.5 20t-15.5 12t-11.5 13t-4 16.5q0 4 1 8q2 18 15.5 25t47.5 7h183q33 0 44 -6.5t11 -18.5q0 -3 -1 -7q-2 -19 -18 -31t-35 -28t-27 -45q-5 -16 -8 -40l-5 -33q-1 -3 -1 -5q0 -7 4 -11
t12 -4h3q12 1 39 1q144 0 215.5 -63.5t71.5 -149.5q0 -17 -3 -36q-31 -223 -340 -223h-245q-33 0 -44 6.5t-11 18.5q0 3 1 7zM629 32q2 16 12.5 27t22.5 17t25.5 21.5t19.5 38.5q6 22 9 40l48 348q3 21 3 40q0 21 -5.5 34.5t-13 20t-15.5 12t-12 13t-4 16.5q0 4 1 8
q3 18 16.5 25t46.5 7h184q33 0 44 -6.5t11 -18.5q0 -3 -1 -7q-2 -16 -12.5 -27t-22.5 -17t-25.5 -21.5t-19.5 -38.5q-7 -23 -9 -40l-48 -348q-3 -19 -3 -40q0 -25 8.5 -40t18.5 -20t16 -15t6 -22v-7q-2 -18 -16 -25t-47 -7h-184q-31 0 -42.5 7t-11.5 20v5zM269 77
q14 -8 44 -8q72 0 117 37.5t54 102.5q2 18 2 34q0 65 -42 113.5t-117 48.5h-4q-13 0 -19 -5.5t-8 -21.5l-38 -275q-1 -3 -1 -6q0 -14 12 -20z" />
    <glyph glyph-name="uni042C" unicode="&#x42c;" horiz-adv-x="671" 
d="M313 0h-245q-33 0 -45 7t-9 25q2 19 18 31t35 28t27 45q7 23 10 50l47 338q3 21 3 40q0 21 -5.5 34.5t-13.5 20t-15.5 12t-12 14.5t-2.5 23q2 18 15.5 25t47.5 7h183q33 0 45 -7t9 -25q-2 -19 -18 -31t-35 -28t-27 -45q-5 -16 -8 -40l-5 -33q-2 -10 3 -15.5t15 -4.5
q12 1 39 1q144 0 222 -69.5t62 -179.5q-31 -223 -340 -223zM313 69q72 0 117 37.5t54 102.5q12 88 -35 142t-122 54q-16 1 -22.5 -5t-8.5 -22l-38 -275q-3 -19 11 -26.5t44 -7.5z" />
    <glyph glyph-name="uni042D" unicode="&#x42d;" horiz-adv-x="698" 
d="M249 -9q-61 0 -135 18q-37 10 -55 27.5t-23 55.5q-7 46 -2 103q2 17 10 26.5t22 8.5q11 -1 20.5 -12.5t24.5 -39.5q62 -115 173 -115q41 0 76 18.5t58.5 47t41.5 66t27.5 71.5t14.5 68q-74 -42 -128 -42q-30 0 -63.5 28t-57.5 28t-60 -18.5t-47 -18.5q-29 0 -27 27
q5 32 65.5 69.5t106.5 37.5q30 0 69.5 -30t70.5 -30t77 22q3 113 -39.5 172.5t-113.5 59.5q-103 0 -199 -127q-22 -29 -32 -38.5t-24 -9.5q-15 0 -18.5 13t1.5 36q8 54 38 144q18 52 50 52q10 0 24 -8.5t28 -8.5q5 0 50.5 9t85.5 9q174 0 260.5 -99.5t66.5 -247.5
q-24 -170 -145.5 -271.5t-291.5 -100.5z" />
    <glyph glyph-name="uni042E" unicode="&#x42e;" horiz-adv-x="1111" 
d="M14 32q2 18 14.5 31t26.5 21.5t28 31.5t19 60l50 348q2 18 2 33q0 13 -3 27.5t-11.5 25.5t-17.5 16t-13.5 14t-4.5 19q0 4 1 9q2 18 15.5 25t47.5 7h183q33 0 44 -6.5t11 -20.5v-5q-3 -18 -15.5 -31t-26.5 -21.5t-28 -31.5t-19 -60l-19 -134h96q31 137 142 227.5
t256 90.5q142 0 225 -87t83 -221q0 -170 -115.5 -288.5t-282.5 -118.5h-3q-136 1 -225.5 86.5t-89.5 219.5v18h-96l-20 -141q-3 -21 -3 -36q0 -12 3 -25.5t11.5 -24.5t17.5 -16t14 -14t5 -20q0 -4 -1 -8q-3 -18 -17 -25t-47 -7h-183q-32 0 -43.5 7t-11.5 19q0 3 1 6z
M605 145q46 -63 124 -63q62 0 107 48.5t65 117.5t20 146q0 104 -40 168.5t-117 64.5q-62 0 -110 -49t-71.5 -120.5t-23.5 -149.5q0 -100 46 -163z" />
    <glyph glyph-name="uni042F" unicode="&#x42f;" horiz-adv-x="713" 
d="M210 0h-168q-32 0 -43.5 7t-8.5 25q3 21 17 31.5t38.5 27t44.5 46.5l87 127q-98 57 -82 183q17 114 113 183.5t252 69.5h214q33 0 45 -7t9 -25q-2 -16 -12.5 -26.5t-22.5 -17t-25 -22t-20 -38.5t-10 -50l-47 -338q-3 -19 -3 -40q0 -23 9 -38.5t19.5 -21.5t17.5 -17t5 -27
q-4 -32 -63 -32h-183q-33 0 -45 7.5t-9 24.5q2 17 12 28t21.5 16t24.5 20t20 40q4 14 8 40l4 26q1 12 -2.5 16t-14.5 4h-49q-18 0 -50 2l-55 -82q-18 -34 -15.5 -47t12 -31t7.5 -32q-4 -32 -52 -32zM381 291q60 0 65 34l38 274q2 15 -1.5 20t-15.5 7q-16 4 -37 4
q-68 0 -111 -40.5t-53 -116.5q-11 -76 20.5 -129t94.5 -53z" />
    <glyph glyph-name="uni0430" unicode="&#x430;" horiz-adv-x="645" 
d="M117 396q83 92 193 92q34 0 68.5 -9.5t42.5 -9.5q12 0 46.5 10.5t47.5 10.5q19 0 26.5 -10t7.5 -23v-6l-25 -304q-1 -7 -1 -13q0 -36 20 -36q10 0 24 14t22 14q17 0 17 -22q0 -38 -39.5 -76t-100.5 -38q-90 0 -101 83q-65 -83 -164 -83q-73 0 -120.5 50.5t-47.5 131.5
q0 131 84 224zM263 86q47 0 81 66t40 146l2 33v8q0 38 -19.5 61t-52.5 23q-50 0 -82 -70.5t-33 -150.5v-7q0 -109 64 -109z" />
    <glyph glyph-name="uni0431" unicode="&#x431;" horiz-adv-x="600" 
d="M595 749q12 2 20 -6.5t5 -27.5q-4 -39 -34.5 -73t-76.5 -56q-29 -14 -57 -18.5t-72 -6.5t-71 -5q-137 -15 -126 -185q34 54 87.5 87.5t118.5 33.5q94 0 142 -62.5t34 -166.5q-14 -115 -101 -194t-192 -79q-55 0 -99 18t-77 55.5t-46 101t-1 147.5q18 126 71 217t139 133
q57 30 168 38q89 6 121 26q7 4 15.5 9.5t12 7.5t8.5 4t11 2zM206 204q-7 -69 12.5 -106.5t57.5 -37.5q53 -1 92.5 74t39.5 178q0 37 -16.5 69t-52.5 32q-46 0 -84.5 -57t-48.5 -152z" />
    <glyph glyph-name="uni0432" unicode="&#x432;" horiz-adv-x="562" 
d="M268 -10q-101 -1 -166.5 54.5t-65.5 154.5q0 114 93.5 202.5t216.5 88.5q81 0 130 -25.5t49 -78.5q0 -44 -31 -78t-79 -47q50 -10 73.5 -37.5t23.5 -63.5q0 -72 -69.5 -120.5t-174.5 -49.5zM272 55q32 0 52.5 27.5t20.5 67.5q0 30 -20 49.5t-55 22.5q-27 1 -27 24
q1 12 10.5 22t25.5 12q45 6 70.5 31t25.5 64q0 22 -12.5 36.5t-37.5 14.5q-59 0 -96 -77.5t-37 -165.5q0 -128 80 -128z" />
    <glyph glyph-name="uni0433" unicode="&#x433;" horiz-adv-x="456" 
d="M31 142q8 20 18 33.5t31.5 31t34 25.5t40.5 25t36 22q71 43 71 82q0 35 -47 35q-50 0 -122 -43q-14 -8 -24 -8q-8 0 -14 4.5t-6 13.5q0 8 6 20q22 46 79.5 76t129.5 30q70 0 109.5 -27t39.5 -72q0 -23 -10 -45t-20 -35.5t-35 -32t-36 -25.5t-41 -25q-23 -13 -34.5 -21
t-26 -20t-21 -24t-6.5 -25q0 -42 51 -42q70 0 142 50q11 8 19 8q6 0 10.5 -5t4.5 -13q0 -9 -6 -21q-23 -48 -85 -86t-147 -38q-83 0 -116.5 32.5t-33.5 77.5q0 21 9 42z" />
    <glyph glyph-name="uni0434" unicode="&#x434;" horiz-adv-x="582" 
d="M557 379q2 -171 -83.5 -280t-220.5 -109q-96 0 -155.5 57t-59.5 161q0 119 75.5 200t186.5 78q64 -2 96 -34q-29 156 -185 205q-25 7 -25 21q0 31 75 30q42 -2 82 -14t79 -38.5t68.5 -63.5t47.5 -92t19 -121zM266 61q38 0 67 40.5t42 94.5t13 108q0 110 -68 110
q-56 0 -89.5 -72t-33.5 -160q0 -54 17.5 -87.5t51.5 -33.5z" />
    <glyph glyph-name="uni0435" unicode="&#x435;" horiz-adv-x="545" 
d="M125 401q90 89 227 89q66 0 110.5 -30t44.5 -85q0 -49 -29.5 -88t-78 -62.5t-96.5 -37t-100 -19.5q15 -33 45 -52t67 -19q72 0 141 51q11 9 20 9q5 0 10 -4.5t5 -12.5q0 -9 -6 -21q-23 -50 -86.5 -89.5t-149.5 -39.5q-100 0 -157 53.5t-57 149.5q0 118 90 208zM209 236
q24 4 48 10.5t55 19.5t50 37t19 54q0 28 -18.5 47.5t-49.5 19.5q-58 0 -93.5 -50t-35.5 -115q0 -23 20 -23h5z" />
    <glyph glyph-name="uni0436" unicode="&#x436;" horiz-adv-x="845" 
d="M74 -8q-44 0 -68 13t-21 32q1 9 8 15.5t17 6.5q15 1 24.5 4.5t24 20t34.5 50.5q31 54 65 81t94 33q-27 15 -46 71q-2 4 -4.5 12t-4 12t-4 9.5t-4.5 9t-5 6.5t-6 4.5t-7 1.5q-11 0 -30 -20.5t-41 -20.5q-24 0 -38 18t-10 51q6 42 34 65t66 23q20 0 36 -7.5t25.5 -15
t19.5 -27t13 -27.5t11 -34t9 -30q10 -33 21 -49t32 -16h10q14 0 18 3.5t5 16.5l4 35q3 20 2 35q-2 25 -19.5 42t-15.5 36q4 28 50 28h162q48 0 45 -28q-3 -17 -27 -35t-32 -43q-7 -26 -8 -35l-4 -35q-2 -14 1 -17t16 -3h10q21 0 38 17.5t35 50.5q2 3 12.5 22t14 25t14.5 22
t17.5 22.5l18 18t22 16t24.5 8.5t29 4q38 0 60 -23t16 -65q-4 -33 -24 -51t-44 -18q-22 0 -35.5 20.5t-24.5 20.5q-3 0 -5.5 -1t-5.5 -3t-5 -4l-5.5 -5.5t-5.5 -6.5t-5.5 -8t-5 -8t-5.5 -9.5t-6 -9.5q-35 -53 -67 -71q59 -6 85 -33t42 -81q14 -48 26.5 -61t35.5 -14
q9 0 14.5 -6.5t4.5 -15.5q-3 -19 -30.5 -32t-71.5 -13q-63 0 -88 30t-41 104q-12 60 -23 75q-12 16 -34 16q-10 0 -14 -4.5t-7 -22.5l-6 -49q-2 -23 -1 -34q1 -26 19 -43t15 -36q-4 -28 -49 -28h-162q-24 0 -35.5 6.5t-9.5 22.5q2 14 13.5 23t25 21.5t20.5 33.5q3 13 7 34
l7 50q2 17 -0.5 21.5t-12.5 4.5q-7 0 -13.5 -1.5t-12 -5t-10 -6.5t-9.5 -10t-8 -10.5t-8 -13.5t-7 -13.5t-7.5 -15.5t-7.5 -15q-37 -74 -70 -104t-96 -30z" />
    <glyph glyph-name="uni0437" unicode="&#x437;" horiz-adv-x="478" 
d="M203 -8q-65 0 -117 26t-68 69q-8 23 7 34t31 -4q48 -46 114 -46q86 0 96 72q5 35 -22 55.5t-81 24.5q-19 1 -24 14t4.5 26.5t28.5 15.5q52 7 82.5 28t35.5 50q4 29 -12 46.5t-43 17.5q-47 0 -95 -57q-20 -23 -29 -31t-21 -8q-20 0 -14 43q8 37 21 78q17 44 42 44
q9 0 21 -6.5t25 -6.5q10 0 45.5 6.5t70.5 6.5q64 0 105 -27.5t34 -81.5q-5 -41 -38.5 -74t-77.5 -46q57 -11 82.5 -44t19.5 -73q-10 -69 -72.5 -110.5t-150.5 -41.5z" />
    <glyph glyph-name="uni0438" unicode="&#x438;" horiz-adv-x="649" 
d="M54 433q14 13 60 29q75 27 112 27q28 0 28 -25q0 -4 -1 -9l-37 -227q-10 -53 -10 -86q0 -16 4.5 -39t41.5 -23q44 0 86.5 63.5t66.5 214.5l12 76q4 25 30 31l100 23q4 1 7 1q8 0 14 -7t6 -18v-6l-47 -310q-2 -12 -2 -21q0 -29 18 -29q10 0 24.5 14t21.5 14q18 0 18 -22
q-1 -39 -42 -76.5t-106 -37.5q-39 0 -64.5 21t-27.5 65q-73 -86 -164 -86q-90 0 -120 44.5t-30 102.5q0 23 4 50l22 138q1 7 1 14q0 12 -4.5 22.5t-13 14.5t-16 11t-7.5 18q0 14 15 28z" />
    <glyph glyph-name="uni0439" unicode="&#x439;" horiz-adv-x="649" 
d="M39 405q0 14 14.5 27.5t60.5 29.5q75 27 112 27q28 0 28 -25q0 -4 -1 -9l-37 -227q-10 -53 -10 -86q0 -16 4.5 -39t41.5 -23q44 0 86.5 63.5t66.5 214.5l12 76q4 25 30 31l100 23q4 1 7 1q8 0 14 -7t6 -18v-6l-47 -310q-2 -12 -2 -21q0 -29 18 -29q10 0 24.5 14t21.5 14
q18 0 18 -22q-1 -39 -42 -76.5t-106 -37.5q-39 0 -64.5 21t-27.5 65q-73 -86 -164 -86q-90 0 -120 44.5t-30 102.5q0 23 4 50l22 138q1 7 1 14q0 12 -4.5 22.5t-13 14.5t-16 11t-7.5 18zM189 642q3 20 18.5 32.5t34.5 12.5q20 0 35 -16t23 -35.5t23.5 -35.5t37.5 -16
q21 0 41 16t33.5 35.5t33 35.5t39.5 16q19 0 30 -11.5t11 -26.5q0 -3 -1 -7q-7 -52 -65 -82t-129 -30q-79 0 -122.5 28t-43.5 69q0 7 1 15z" />
    </font>
</defs>
</svg>
