<?xml version="1.0" standalone="no"?>
<!DOCTYPE svg PUBLIC "-//W3C//DTD SVG 1.1//EN" "http://www.w3.org/Graphics/SVG/1.1/DTD/svg11.dtd" >
<svg xmlns="http://www.w3.org/2000/svg" xmlns:xlink="http://www.w3.org/1999/xlink" version="1.1">
<metadata>
Created by FontForge 20201107 at Mon Nov 16 14:49:16 2020
 By 
Copyright (c) 2020 by Elena Genova. All rights reserved.
</metadata>
<defs>
<font id="RocaOne-Hv" horiz-adv-x="0" >
  <font-face 
    font-family="RocaOne-Hv"
    font-weight="400"
    font-stretch="normal"
    units-per-em="1000"
    panose-1="0 0 10 0 0 0 0 0 0 0"
    ascent="772"
    descent="-228"
    x-height="480"
    cap-height="700"
    bbox="-783 -568 2102 954"
    underline-thickness="50"
    underline-position="-100"
    unicode-range="U+0020-E0F7"
  />
<missing-glyph horiz-adv-x="450" 
d="M84 -200v900h285v-900h-285zM240 610h60v30h-149v-30h59v-33h-60v-30h150v30h-60v33zM300 461h-60v63h-90v-94h150v31zM180 461v32h30v-32h-30zM240 376h60v30h-150v-30h60v-33h-60v-30h90v63zM150 262h150v90h-30v-60h-120v-30zM150 140h150v102h-90v-50h30v20h30v-42
h-90v72h-30v-102zM150 -16h150v102h-150v-102zM180 14v43h90v-43h-90zM271 -66h29v30h-150v-30h63l-63 -42v-30h150v30h-92z" />
    <glyph glyph-name="f_f" unicode="ff" horiz-adv-x="754" 
d="M604 629q-16 0 -26.5 -15t-10.5 -43q0 -36 14.5 -63.5t39.5 -27.5h77q38 0 31 -45q-7 -42 -48 -42l-60 1v-247q0 -35 11 -54t24.5 -23t24.5 -12.5t11 -25.5q0 -18 -12 -24.5t-36 -6.5h-201q-51 0 -51 32q0 15 8 25t17 16t17 24.5t8 48.5v251l-172 3v-254q0 -35 11 -54
t24.5 -23t24.5 -12.5t11 -25.5q0 -18 -12 -24.5t-36 -6.5h-201q-51 0 -51 32q0 15 8 25t17 16t17 24.5t8 48.5v257l-27 1q-20 0 -30.5 8.5t-7.5 28.5q7 38 54 38h11q0 105 56.5 167.5t138.5 62.5q56 0 92.5 -32t36.5 -85q0 -34 -19 -49.5t-41 -15.5q-39 0 -57 49
q-19 52 -45 52q-16 0 -26.5 -15t-10.5 -43q0 -36 14.5 -63.5t39.5 -27.5h172q0 105 56.5 167.5t138.5 62.5q56 0 92.5 -32t36.5 -85q0 -34 -19 -49.5t-41 -15.5q-39 0 -57 49q-19 52 -45 52z" />
    <glyph glyph-name="fl" unicode="fl" horiz-adv-x="701" 
d="M629 672l-1 -137l-2 -389q0 -31 8 -49t17.5 -23t17.5 -15.5t8 -28.5q0 -30 -48 -30h-180q-52 0 -52 32q0 17 8 27t17 15t17 23t8 49l2 364q-4 120 -91 120q-42 0 -65 -39.5t-23 -110.5h75q39 0 31 -45q-7 -44 -48 -42l-58 3v-249q0 -35 11 -54t24.5 -23t24.5 -12.5
t11 -25.5q0 -18 -12 -24.5t-36 -6.5h-201q-51 0 -51 32q0 15 8 25t17 16t17 24.5t8 48.5v257l-27 1q-21 1 -31 9t-7 28q7 38 54 38h15q15 100 82 165t175 65q78 0 128 -37q99 37 122 37q27 0 27 -38z" />
    <glyph glyph-name=".notdef" horiz-adv-x="450" 
d="M84 -200v900h285v-900h-285zM240 610h60v30h-149v-30h59v-33h-60v-30h150v30h-60v33zM300 461h-60v63h-90v-94h150v31zM180 461v32h30v-32h-30zM240 376h60v30h-150v-30h60v-33h-60v-30h90v63zM150 262h150v90h-30v-60h-120v-30zM150 140h150v102h-90v-50h30v20h30v-42
h-90v72h-30v-102zM150 -16h150v102h-150v-102zM180 14v43h90v-43h-90zM271 -66h29v30h-150v-30h63l-63 -42v-30h150v30h-92z" />
    <glyph glyph-name=".null" 
 />
    <glyph glyph-name="uni000D" horiz-adv-x="333" 
 />
    <glyph glyph-name="space" unicode=" " horiz-adv-x="200" 
 />
    <glyph glyph-name="exclam" unicode="!" horiz-adv-x="245" 
d="M143 246q-6 -8 -21 -8t-20.5 8t-6.5 30q-5 62 -37 176.5t-32 150.5q0 48 27.5 77.5t68.5 29.5q42 0 70 -29.5t28 -77.5q0 -36 -33 -150.5t-38 -176.5q-1 -22 -6 -30zM116 -10q-37 0 -63 23t-26 64q0 45 30.5 73t70.5 28q37 0 63.5 -24.5t26.5 -65.5q0 -44 -30 -71
t-72 -27z" />
    <glyph glyph-name="quotedbl" unicode="&#x22;" horiz-adv-x="452" 
d="M119 387q-29 0 -38 45q-12 39 -23.5 103.5t-11.5 92.5q0 83 73 83t73 -82q0 -25 -12 -87.5t-24 -104.5q-12 -50 -37 -50zM333 387q-29 0 -38 45q-12 39 -24 104t-12 92q0 83 74 83q72 0 72 -82q0 -25 -11.5 -88t-23.5 -104q-7 -26 -14.5 -38t-22.5 -12z" />
    <glyph glyph-name="numbersign" unicode="#" horiz-adv-x="713" 
d="M572 678l-45 -184h141q20 0 20 -20v-41q0 -20 -20 -20h-161l-30 -119h171q20 0 20 -20v-41q0 -20 -20 -20h-191l-48 -196q-5 -17 -22 -17h-40q-23 0 -18 22l47 191h-129l-48 -196q-5 -17 -22 -17h-40q-23 0 -18 22l47 191h-117q-20 0 -20 20v41q0 20 20 20h137l29 119
h-146q-20 0 -20 20v41q0 20 20 20h166l47 189q5 17 22 17h40q23 0 18 -22l-45 -184h128l47 189q5 17 22 17h40q23 0 18 -22zM297 413l-30 -119h129l29 119h-128z" />
    <glyph glyph-name="dollar" unicode="$" horiz-adv-x="567" 
d="M346 366q52 -27 75.5 -40.5t52 -36.5t38.5 -48t10 -58q0 -88 -71.5 -139.5t-167.5 -52.5v-43q0 -18 -6.5 -24.5t-25.5 -6.5q-20 0 -27 6.5t-7 24.5v49q-13 2 -28 6t-24.5 6t-15.5 2q-17 0 -31.5 -10.5t-23.5 -10.5q-29 0 -35 47q-15 84 -15 121q-2 47 21 47q13 0 22.5 -9
t25.5 -36q23 -36 69 -65t100 -29q32 0 49 15.5t16 38.5q0 32 -33.5 59.5t-99.5 62.5q-91 47 -127 83t-36 104q0 65 47 115t119 68v37q0 18 7 24.5t27 6.5q19 0 25.5 -6.5t6.5 -24.5v-29q27 0 63 -7.5t39 -7.5q13 0 26.5 7.5t24.5 7.5q29 0 37 -46q12 -61 13 -103
q3 -48 -21 -48q-23 0 -52 45q-52 81 -134 81q-27 0 -45.5 -15.5t-18.5 -41.5q0 -33 28 -60t103 -66z" />
    <glyph glyph-name="percent" unicode="%" horiz-adv-x="875" 
d="M220 328q-76 0 -128 52t-52 135q0 85 54 140t132 55q77 0 128.5 -52t51.5 -134q0 -84 -53 -140t-133 -56zM213 14l-6 4q-24 20 -6 44l424 611q17 25 44 9l6 -4q27 -19 9 -44l-428 -613q-18 -27 -43 -7zM232 397q20 0 33.5 26t13.5 79q0 62 -19.5 101t-45.5 39
q-46 0 -46 -102q0 -65 19.5 -104t44.5 -39zM666 -9q-78 0 -129 52t-51 135q0 86 53.5 140.5t132.5 54.5q76 0 128 -52t52 -134q0 -83 -53.5 -139.5t-132.5 -56.5zM678 61q20 0 33.5 25.5t13.5 79.5q0 62 -20 100.5t-45 38.5q-46 0 -46 -102q0 -65 19 -103.5t45 -38.5z" />
    <glyph glyph-name="ampersand" unicode="&#x26;" horiz-adv-x="914" 
d="M386 -10q-140 0 -240 63t-100 180q0 69 41.5 124.5t104.5 83.5q-72 45 -72 121q0 67 55 108.5t129 41.5q117 0 177 -70q19 -21 3.5 -40.5t-43.5 -3.5q-42 25 -84 25q-38 0 -60.5 -20.5t-22.5 -53.5q0 -49 42 -76q91 12 91 -39q0 -32 -42.5 -40t-78.5 6q-48 -49 -48 -135
t51 -139t140 -53q74 0 113 33.5t38 90.5q0 35 -22.5 56t-51.5 21q-33 0 -54 -20t-21 -50q0 -12 -19 -10q-29 3 -40 34q-4 12 -4 25q0 59 86 115q17 11 39 23.5t53.5 29.5t51.5 28q134 76 134 126q0 34 -39 34q-19 0 -33 -5q-27 -11 -31.5 10t10.5 39q32 53 117 54
q47 1 88 -26t41 -83q0 -78 -71.5 -135.5t-186.5 -88.5q36 -15 62 -49t26 -88q0 -50 -19.5 -92t-51.5 -70t-75 -47.5t-89 -28.5t-94 -9z" />
    <glyph glyph-name="quotesingle" unicode="'" horiz-adv-x="238" 
d="M119 387q-29 0 -38 45q-12 39 -23.5 103.5t-11.5 92.5q0 83 73 83t73 -82q0 -25 -12 -87.5t-24 -104.5q-12 -50 -37 -50z" />
    <glyph glyph-name="parenleft" unicode="(" horiz-adv-x="374" 
d="M302 -120q-70 32 -130 89.5t-103.5 154t-43.5 210.5q0 152 77.5 264.5t184.5 166.5q52 25 68 -3q8 -13 0 -25.5t-30 -32.5q-121 -111 -121 -373q0 -275 121 -383q21 -19 28 -32t-1 -26q-15 -25 -50 -10z" />
    <glyph glyph-name="parenright" unicode=")" horiz-adv-x="374" 
d="M76 -120q-37 -14 -51 10q-8 13 -1 26t28 32q121 108 121 383q0 262 -121 373q-22 20 -30 32.5t0 25.5q16 28 68 3q107 -54 184.5 -166.5t77.5 -264.5q0 -166 -82.5 -284.5t-193.5 -169.5z" />
    <glyph glyph-name="asterisk" unicode="*" horiz-adv-x="498" 
d="M148 290q-25 -3 -46 14t-22 43.5t16 45.5q11 14 25 22.5t35 18t35 18.5q10 8 8 16t-15 9q-15 1 -60 -2.5t-53 4.5q-25 10 -37 33t-3 48q10 25 34 34.5t49 1.5q16 -6 29 -16.5t28.5 -26.5t29.5 -26q11 -8 18 -3t3 18q-4 14 -19.5 48.5t-15.5 56.5q0 27 17.5 46t44.5 19
t44.5 -19t17.5 -46q0 -22 -16 -56.5t-20 -48.5q-4 -13 3 -18t18 3q12 9 39.5 35.5t47.5 33.5q25 8 49 -1.5t34 -34.5q9 -25 -3 -48t-37 -33q-23 -6 -35 -5.5t-36 2.5t-42 1q-13 -1 -15 -9.5t8 -15.5q14 -9 35 -18.5t35.5 -18t25.5 -22.5q16 -19 14.5 -45.5t-21.5 -43.5
q-21 -17 -46 -14t-42 24q-15 18 -26.5 56t-19.5 55q-5 11 -13 10.5t-13 -11.5q-8 -17 -19 -55t-26 -55q-17 -21 -42 -24z" />
    <glyph glyph-name="plus" unicode="+" horiz-adv-x="427" 
d="M255 529v-123h130q18 0 23 -6t1 -24l-2 -23q-3 -18 -10 -24t-25 -6h-117v-123q0 -18 -6 -24t-24 -6h-23q-18 0 -24 6t-6 24v123h-129q-18 0 -23 6t-2 24l2 23q3 18 10 24t25 6h117v123q0 18 6 24t24 6h23q18 0 24 -6t6 -24z" />
    <glyph glyph-name="comma" unicode="," horiz-adv-x="255" 
d="M81 -140q-24 0 -24 19q0 8 23 32.5t23 47.5q0 18 -16.5 34t-33 36.5t-16.5 50.5q0 43 27 70t62 27q44 0 71 -28t27 -86q0 -80 -48 -141.5t-95 -61.5z" />
    <glyph glyph-name="hyphen" unicode="-" horiz-adv-x="340" 
d="M248 247h-172q-21 0 -29.5 7t-2.5 25l7 22q5 19 14 26t28 7h173q20 0 28.5 -7t3.5 -25l-7 -22q-5 -19 -14 -26t-29 -7z" />
    <glyph glyph-name="period" unicode="." horiz-adv-x="245" 
d="M116 -10q-37 0 -63 23t-26 64q0 45 30.5 73t70.5 28q37 0 63.5 -24.5t26.5 -65.5q0 -44 -30 -71t-72 -27z" />
    <glyph glyph-name="slash" unicode="/" horiz-adv-x="369" 
d="M59 -100q-31 0 -38 9.5t3 38.5l237 757q6 21 15.5 28t32.5 7h6q27 0 32.5 -9.5t-4.5 -38.5l-236 -757q-7 -21 -16.5 -28t-31.5 -7z" />
    <glyph glyph-name="zero" unicode="0" horiz-adv-x="646" 
d="M331 -10q-131 0 -214 109.5t-83 261.5q0 147 81 248t208 101q131 0 210.5 -107t79.5 -259q0 -150 -77.5 -252t-204.5 -102zM361 74q36 0 50 39t14 119q0 82 -16.5 171t-51 156t-77.5 67q-35 0 -48 -38t-13 -120q0 -81 16.5 -170.5t50.5 -156.5t75 -67z" />
    <glyph glyph-name="one" unicode="1" horiz-adv-x="394" 
d="M310 672v-552q0 -28 25 -51.5t25 -41.5q0 -26 -47 -26h-212q-51 0 -51 27q0 15 11 26.5t24 17.5t24 18.5t11 29.5v364q0 39 -9.5 54t-43.5 29q-28 11 -28 33q0 12 6 17.5t23 14.5q53 25 127 51.5t88 26.5q27 0 27 -38z" />
    <glyph glyph-name="two" unicode="2" horiz-adv-x="614" 
d="M461 0h-373q-44 0 -54.5 18t18.5 49q171 176 229 268t58 167q0 36 -24 58.5t-63 22.5q-74 0 -143 -67q-17 -18 -29.5 -6t-4.5 38q16 55 82.5 108.5t161.5 53.5q90 0 153.5 -47t63.5 -128q0 -74 -79.5 -177t-226.5 -212q50 -6 135 -2q49 4 89.5 22t65 34t37.5 16
q25 0 23 -40q0 -58 -24 -119q-9 -23 -16.5 -33.5t-26 -17t-52.5 -6.5z" />
    <glyph glyph-name="three" unicode="3" horiz-adv-x="579" 
d="M271 -10q-96 0 -159.5 48.5t-79.5 101.5q-7 25 7.5 36.5t34.5 -3.5q74 -57 157 -57q49 0 82 28t33 78q0 46 -33 77t-118 46q-21 3 -22.5 26.5t11.5 32.5q44 38 64 56t46.5 46t45.5 54q-75 3 -149 0q-30 -1 -44 -7.5t-29 -21.5q-5 -5 -13 -13.5t-11.5 -11t-9 -5.5
t-10.5 -3q-25 0 -23 40q1 37 20 103q11 34 28 46.5t64 12.5h332q25 0 31.5 -16t-8.5 -35q-67 -90 -191 -220q99 -16 160.5 -66.5t61.5 -141.5q0 -100 -73.5 -165.5t-204.5 -65.5z" />
    <glyph glyph-name="four" unicode="4" horiz-adv-x="612" 
d="M372 -37q-44 0 -44 35v102h-257q-29 0 -40 13.5t-11 50.5q0 72 104 211l42 54l11 15q68 87 129 154q63 71 81 85q35 27 82 27q24 0 36 -8.5t12 -30.5v-434q16 0 33.5 5t23.5 5q13 0 16.5 -20.5t-0.5 -65.5q-9 -74 -60 -74h-13v-47q0 -31 -31 -49q-51 -28 -114 -28z
M165 237l160 5v256q-100 -119 -165 -209q-17 -25 -15.5 -39t20.5 -13z" />
    <glyph glyph-name="five" unicode="5" horiz-adv-x="590" 
d="M295 -10q-117 0 -186.5 47.5t-85.5 102.5q-7 25 8 36.5t34 -4.5q79 -59 176 -59q51 0 83 25.5t32 78.5q0 43 -32.5 73t-80 45.5t-119.5 26.5q-28 4 -35.5 14.5t0.5 37.5l73 251q7 22 16.5 29t31.5 6q53 -4 139 0q63 3 101 14.5t48 11.5q23 0 21 -41q-2 -25 -13 -68
q-10 -35 -28 -47.5t-70 -14.5q-98 -3 -192 3l-22 -66q191 -24 278 -88.5t86 -175.5q-1 -98 -75.5 -168t-187.5 -70z" />
    <glyph glyph-name="six" unicode="6" horiz-adv-x="589" 
d="M301 -11q-120 0 -191.5 85.5t-74.5 244.5q-3 97 35 186t111.5 147t163.5 58q55 1 99 -20.5t58 -47.5q13 -23 2 -39t-29 -8q-57 23 -106 23q-20 0 -40 -6.5t-42.5 -23t-37 -52t-16.5 -86.5q53 43 134 43q86 0 141.5 -68t55.5 -168q0 -113 -78 -190.5t-185 -77.5zM335 73
q62 0 62 100q0 81 -31 150t-80 69q-21 0 -35 -10.5t-19.5 -29.5t-7.5 -35.5t-2 -38.5q0 -77 32.5 -141t80.5 -64z" />
    <glyph glyph-name="seven" unicode="7" horiz-adv-x="541" 
d="M275 -12q-24 -1 -64 7t-66 23q-30 16 -30 48q0 61 34 135t71 124.5t98 126t81 103.5q-106 11 -211 0q-30 -3 -52 -16.5t-32 -28t-24 -26t-30 -11.5q-27 0 -23 41q2 50 23 126q11 35 29 47.5t69 12.5h335q35 0 45 -12t-3 -41q-16 -34 -57.5 -117t-63.5 -131.5
t-50.5 -119.5t-41.5 -133t-13 -119q0 -15 -1 -21.5t-6.5 -12t-16.5 -5.5z" />
    <glyph glyph-name="eight" unicode="8" horiz-adv-x="608" 
d="M447 391q129 -85 129 -192q0 -59 -25 -102.5t-67 -66t-88 -32.5t-98 -10q-43 0 -86 10t-85.5 31.5t-68.5 63.5t-26 99q0 111 111 171q-91 70 -91 152q0 50 24 89t64 60.5t85 32t92 10.5q35 0 71.5 -7.5t73.5 -24.5t60.5 -51t23.5 -80q0 -52 -29 -90.5t-70 -62.5zM306 625
q-30 0 -49 -18t-19 -48q0 -17 9 -32t31.5 -32t38 -26t51.5 -30l3 -2q18 39 18 88q0 45 -22 72.5t-61 27.5zM313 71q46 0 65 26.5t19 57.5q0 25 -21 50t-46 41t-66 40q-7 4 -11 6l-37 22q-24 -44 -24 -99q0 -65 34.5 -104.5t86.5 -39.5z" />
    <glyph glyph-name="nine" unicode="9" horiz-adv-x="594" 
d="M292 710q120 0 191.5 -85.5t75.5 -244.5q2 -97 -36 -186t-111.5 -147t-163.5 -58q-55 -1 -99 20.5t-58 47.5q-12 24 -1 39.5t29 7.5q55 -23 105 -23q20 0 40 6.5t42.5 23t37.5 52t16 86.5q-51 -43 -133 -43q-87 0 -142 68t-55 168q0 113 77.5 190.5t184.5 77.5zM258 626
q-62 0 -62 -100q0 -81 31 -150t80 -69q22 0 35.5 10.5t19.5 30t7.5 35t1.5 38.5q0 77 -32.5 141t-80.5 64z" />
    <glyph glyph-name="colon" unicode=":" horiz-adv-x="245" 
d="M116 302q-37 0 -63 23t-26 64q0 45 30.5 73t70.5 28q37 0 63.5 -24.5t26.5 -65.5q0 -44 -30 -71t-72 -27zM116 -10q-37 0 -63 23t-26 64q0 45 30.5 73t70.5 28q37 0 63.5 -24.5t26.5 -65.5q0 -44 -30 -71t-72 -27z" />
    <glyph glyph-name="semicolon" unicode=";" horiz-adv-x="255" 
d="M116 302q-37 0 -63 23t-26 64q0 45 30.5 73t70.5 28q37 0 63.5 -24.5t26.5 -65.5q0 -44 -30 -71t-72 -27zM81 -140q-24 0 -24 19q0 8 23 32.5t23 47.5q0 18 -16.5 34t-33 36.5t-16.5 50.5q0 43 27 70t62 27q44 0 71 -28t27 -86q0 -80 -48 -141.5t-95 -61.5z" />
    <glyph glyph-name="equal" unicode="=" horiz-adv-x="527" 
d="M467 397h-407q-18 0 -24 6t-6 24v23q0 18 6 24t24 6h407q18 0 24 -6t6 -24v-23q0 -18 -6 -24t-24 -6zM467 238h-407q-18 0 -24 6t-6 24v23q0 18 6 24t24 6h407q18 0 24 -6t6 -24v-23q0 -18 -6 -24t-24 -6z" />
    <glyph glyph-name="question" unicode="?" horiz-adv-x="489" 
d="M263 269q-2 -34 -28.5 -39t-42.5 22q-8 15 -8 36q0 45 15 88t33.5 71t33.5 64t15 70q0 47 -39 47q-18 0 -28.5 -13t-20 -38.5t-15.5 -35.5q0 -1 -6 -11t-8 -12t-8 -10.5t-10.5 -11t-11.5 -7.5t-15.5 -6.5t-18.5 -1.5q-44 0 -62 23.5t-18 53.5q0 65 57 108.5t168 43.5
q105 0 163.5 -40t58.5 -105q0 -36 -21 -71t-46 -57t-57.5 -48.5t-44.5 -41.5q-6 -7 -20 -36.5t-15 -41.5zM233 -10q-37 0 -63 23t-26 64q0 45 30.5 73t70.5 28q37 0 63.5 -24.5t26.5 -65.5q0 -44 -30 -71t-72 -27z" />
    <glyph glyph-name="at" unicode="@" horiz-adv-x="833" 
d="M614 462l-32 -215q-6 -43 31 -44q39 -2 70 50t31 117q0 105 -77 173.5t-197 68.5q-138 0 -228 -86.5t-90 -223.5q0 -133 87 -214t228 -81q78 0 145 20q33 9 39.5 -17t-20.5 -38q-71 -34 -170 -34q-179 0 -286.5 99t-107.5 258q0 163 114 277t287 114q156 0 255.5 -89.5
t99.5 -223.5q0 -98 -62 -174t-155 -76q-82 0 -110 74q-50 -75 -128 -75q-56 0 -90.5 38t-34.5 96q0 98 69 166.5t150 68.5q27 0 51.5 -8t29.5 -8q8 0 35 9t37 9q15 0 23 -9.5t6 -21.5zM392 207q27 0 47.5 40.5t26.5 104.5l7 64q0 8 -14.5 14t-26.5 6q-39 0 -59.5 -48
t-22.5 -110q-2 -71 42 -71z" />
    <glyph glyph-name="A" unicode="A" horiz-adv-x="746" 
d="M203 161l-10 -24q-13 -40 -7 -50.5t19.5 -24.5t13.5 -30q0 -31 -55 -31h-98q-32 0 -47 7t-15 26q0 14 10 24.5t23 17.5t29 23t25 38l170 415q12 39 4.5 52t-22.5 29.5t-15 32.5q0 34 36 34h134q37 0 49 -33l209 -523q11 -27 25.5 -44.5t24.5 -23.5t17 -15.5t7 -24.5
q0 -20 -13 -28t-46 -8h-205q-54 0 -54 36q0 18 17 31t25.5 24.5t-3.5 53.5l-4 8q-9 23 -20 28q-15 6 -105 6q-94 0 -106 -7q-6 -4 -13 -19zM323 270q59 0 67 3.5t1 23.5l-65 168l-65 -158q-11 -28 -3.5 -32.5t65.5 -4.5z" />
    <glyph glyph-name="B" unicode="B" horiz-adv-x="689" 
d="M518 422q74 -20 112.5 -69.5t38.5 -116.5q0 -98 -80 -167t-222 -69h-287q-34 0 -48 8t-14 28q0 18 7.5 28.5t18 17.5t21 17.5t18 36t7.5 66.5v296q0 41 -7.5 66.5t-18 36t-21 17.5t-18 17.5t-7.5 28.5q0 20 14 28t48 8h246q270 0 272 -150q1 -86 -80 -128zM280 595v-121
q0 -5 1.5 -9t3.5 -6.5t6 -4t6 -2.5t7.5 -1.5t7.5 -0.5h8h5q41 0 65.5 19t24.5 53q0 38 -30.5 67t-80.5 29q-9 0 -16.5 -6t-7.5 -17zM363 81q101 0 101 117q0 68 -42 117.5t-115 49.5q-15 0 -21 -5.5t-6 -21.5v-187q0 -39 16 -54.5t67 -15.5z" />
    <glyph glyph-name="C" unicode="C" horiz-adv-x="715" 
d="M397 -10q-156 0 -256.5 94t-100.5 255q0 153 109 262t267 109q38 0 77.5 -9.5t43.5 -9.5q13 0 29.5 9t31.5 9t25.5 -11t19.5 -41q25 -84 32 -149q8 -52 -30 -55q-6 0 -11.5 1t-9 3t-9 8t-8.5 9.5t-10.5 14t-11.5 16.5q-87 126 -177 126q-81 0 -128 -57t-47 -153
q0 -83 24.5 -152.5t77 -115.5t124.5 -46q98 0 183 89q21 22 39 6t7 -42q-34 -79 -115 -124.5t-176 -45.5z" />
    <glyph glyph-name="D" unicode="D" horiz-adv-x="785" 
d="M80 700h272q97 0 173 -28t122 -75.5t69.5 -107t23.5 -126.5q0 -158 -103 -260.5t-264 -102.5h-293q-34 0 -48 8t-14 28q0 18 7.5 28.5t18 17.5t21 17.5t18 36t7.5 66.5v296q0 41 -7.5 66.5t-18 36t-21 17.5t-18 17.5t-7.5 28.5q0 20 14 28t48 8zM361 75q85 0 134 56.5
t49 165.5q0 139 -64 234.5t-152 95.5q-26 0 -37 -9t-11 -35v-446q0 -31 15 -46.5t66 -15.5z" />
    <glyph glyph-name="E" unicode="E" horiz-adv-x="639" 
d="M578 242q18 -4 23 -16.5t4 -41.5q-3 -87 -16 -135q-7 -28 -25.5 -38.5t-61.5 -10.5h-422q-34 0 -48 8t-14 28q0 18 7.5 28.5t18 17.5t21 17.5t18 36t7.5 66.5v296q0 41 -7.5 66.5t-18 36t-21 17.5t-18 17.5t-7.5 28.5q0 20 14 28t48 8h401q46 0 65.5 -7.5t28.5 -31.5
q15 -39 27 -100q9 -53 -18 -63q-28 -10 -54 27q-35 48 -69.5 70.5t-78.5 22.5h-38q-37 0 -50.5 -10t-13.5 -34v-86q0 -27 13 -37.5t42 -11.5q33 1 60 18t43 17q30 0 34 -27l30 -144q4 -24 -1 -33.5t-23 -13.5q-19 -4 -36 10.5t-28.5 34.5t-32.5 38t-47 19
q-29 -1 -41.5 -11.5t-12.5 -37.5v-183q0 -24 15.5 -34t59.5 -10h56q25 0 46 17t33.5 38t35.5 68q23 45 52 37z" />
    <glyph glyph-name="F" unicode="F" horiz-adv-x="619" 
d="M608 561q9 -53 -18 -63q-28 -10 -55 27q-34 48 -68.5 70.5t-78.5 22.5h-45q-63 0 -63 -38v-101q0 -28 14 -38.5t45 -10.5h9q36 0 63.5 17.5t43.5 17.5q30 0 34 -27l30 -143q4 -25 -1 -34.5t-23 -13.5q-16 -3 -29.5 6t-24.5 25t-23 32t-30 27.5t-40 11.5h-9
q-31 0 -45 -10.5t-14 -38.5v-110q0 -43 11 -68.5t23.5 -33.5t23.5 -20.5t11 -31.5q0 -20 -13 -28t-48 -8h-208q-34 0 -48 8t-14 28q0 19 11 31.5t25 20.5t25 33.5t11 68.5v308q0 41 -7.5 66.5t-18 36t-21 17.5t-18 17.5t-7.5 28.5q0 20 14 28t48 8h407q46 0 65.5 -7.5
t28.5 -31.5q15 -39 27 -100z" />
    <glyph glyph-name="G" unicode="G" horiz-adv-x="795" 
d="M396 -10q-156 0 -256 95t-100 254q0 153 102 262t250 109q52 0 101 -10t50 -10q14 0 31 9.5t32 9.5q34 0 44 -52q11 -52 24 -148q6 -53 -34 -56q-12 -1 -22.5 6.5t-16 14.5t-24.5 32q-43 63 -82 94t-100 32q-79 0 -120.5 -58.5t-41.5 -156.5q0 -152 54 -244.5t152 -92.5
q28 0 54.5 15t26.5 46v54q0 34 -15 53.5t-33.5 24.5t-34 15t-15.5 27q0 20 13 28t48 8l212 3q30 0 43 -8t13 -28q0 -17 -10.5 -29t-20.5 -33t-10 -59v-46q0 -62 -89 -111.5t-225 -49.5z" />
    <glyph glyph-name="H" unicode="H" horiz-adv-x="827" 
d="M737 510v-320q0 -43 11 -68.5t24 -33.5t24 -20.5t11 -31.5q0 -20 -13.5 -28t-48.5 -8h-208q-34 0 -47.5 8t-13.5 28q0 19 11 31.5t24.5 20.5t24.5 33.5t11 68.5v102q0 25 -10 30q-17 8 -125 8t-122 -7q-10 -7 -10 -31v-102q0 -43 11 -68.5t23.5 -33.5t23.5 -20.5
t11 -31.5q0 -20 -13 -28t-48 -8h-208q-34 0 -48 8t-14 28q0 19 11 31.5t25 20.5t25 33.5t11 68.5v320q0 43 -11 68.5t-24 33.5t-24 20.5t-11 31.5q0 20 13.5 28t48.5 8h208q34 0 47.5 -8t13.5 -28q0 -19 -11 -31.5t-24.5 -20.5t-24.5 -33.5t-11 -68.5v-60q0 -25 9 -30
q17 -8 124 -8q110 0 124 7q10 7 10 31v60q0 43 -11 68.5t-23.5 33.5t-23.5 20.5t-11 31.5q0 20 13 28t48 8h208q34 0 48 -8t14 -28q0 -19 -11.5 -31.5t-24.5 -20.5t-24.5 -33.5t-11.5 -68.5z" />
    <glyph glyph-name="I" unicode="I" horiz-adv-x="369" 
d="M90 190v320q0 43 -11 68.5t-24 33.5t-24 20.5t-11 31.5q0 20 13.5 28t48.5 8h208q34 0 47.5 -8t13.5 -28q0 -19 -11 -31.5t-24.5 -20.5t-24.5 -33.5t-11 -68.5v-320q0 -43 11 -68.5t23.5 -33.5t23.5 -20.5t11 -31.5q0 -20 -13 -28t-48 -8h-208q-34 0 -48 8t-14 28
q0 19 11 31.5t25 20.5t25 33.5t11 68.5z" />
    <glyph glyph-name="J" unicode="J" horiz-adv-x="544" 
d="M272 212v298q0 43 -11 68.5t-23.5 33.5t-23.5 20.5t-11 31.5q0 20 13 28t48 8h209q34 0 47.5 -8t13.5 -28q0 -19 -11 -31.5t-24.5 -20.5t-24.5 -33.5t-11 -68.5l2 -203q0 -48 -3 -83t-11 -74.5t-25.5 -65.5t-45 -49t-70 -34t-99.5 -11q-98 0 -153 50.5t-55 123.5
q0 42 24 63.5t58 21.5q72 0 83 -76q7 -48 18 -70t33 -22q53 0 53 131z" />
    <glyph glyph-name="K" unicode="K" horiz-adv-x="786" 
d="M592 563l-54 -50l160 -344q15 -32 33.5 -53.5t31 -29t21 -19.5t8.5 -31q0 -20 -13.5 -28t-49.5 -8h-197q-34 0 -47.5 8t-13.5 28q0 16 15 35t22 32t-5 49l-105 231l-118 -109v-84q0 -43 11 -68.5t23.5 -33.5t23.5 -20.5t11 -31.5q0 -20 -13 -28t-48 -8h-208q-34 0 -48 8
t-14 28q0 19 11 31.5t25 20.5t25 33.5t11 68.5v320q0 43 -11 68.5t-24 33.5t-24 20.5t-11 31.5q0 20 13.5 28t48.5 8h208q34 0 47.5 -8t13.5 -28q0 -19 -11 -31.5t-24.5 -20.5t-24.5 -33.5t-11 -68.5v-123l189 176q20 19 21 34t-9 23t-21.5 20t-11.5 24q0 19 11 27.5t37 8.5
h154q62 0 62 -36q0 -18 -8.5 -27.5t-21.5 -14.5t-38.5 -20t-51.5 -39z" />
    <glyph glyph-name="L" unicode="L" horiz-adv-x="596" 
d="M541 242q19 -4 24 -16.5t4 -41.5q-3 -87 -16 -135q-8 -28 -26 -38.5t-61 -10.5h-386q-34 0 -48 8t-14 28q0 18 7.5 28.5t18 17.5t21 17.5t18 36t7.5 66.5v308q0 43 -11 68.5t-24 33.5t-24 20.5t-11 31.5q0 20 13.5 28t48.5 8h208q34 0 47.5 -8t13.5 -28q0 -19 -11 -31.5
t-24.5 -20.5t-24.5 -33.5t-11 -68.5v-385q0 -23 14 -33t53 -10h28q19 0 34 7t30 27.5t23.5 35.5t27.5 53q23 45 51 37z" />
    <glyph glyph-name="M" unicode="M" horiz-adv-x="922" 
d="M816 553l14 -384q1 -28 9.5 -45.5t19.5 -25t22 -14t18.5 -18t7.5 -30.5q0 -20 -13.5 -28t-48.5 -8h-198q-34 0 -48 8t-14 28t9.5 34t21 21t20.5 27t8 51l-3 305l-188 -400q-14 -30 -46 -36q-33 -7 -45 23l-173 405l-11 -336q-1 -31 25.5 -56.5t26.5 -42.5
q0 -18 -10.5 -24t-36.5 -6h-110q-29 0 -40 7t-11 24q0 11 9.5 22t20.5 18.5t21 23t11 34.5l21 423q1 24 -9 40t-22 22.5t-22.5 19t-10.5 29.5q0 20 13.5 28t44.5 8h152q34 0 48 -32l158 -360l172 359q15 33 48 33h145q31 0 44.5 -8t13.5 -28q0 -17 -10.5 -29.5t-23 -19
t-22 -22.5t-8.5 -40z" />
    <glyph glyph-name="N" unicode="N" horiz-adv-x="775" 
d="M598 699h109q30 0 40.5 -6.5t10.5 -24.5q0 -15 -27.5 -41t-27.5 -57v-517q0 -29 -11 -41t-37 -12q-24 0 -36.5 11t-12.5 27q0 20 -8 33.5t-28 34.5l-386 371v-347q1 -31 28.5 -56.5t27.5 -42.5q0 -18 -10.5 -24t-36.5 -6h-110q-29 0 -39.5 7t-10.5 24q0 15 27.5 41
t27.5 57v368q0 41 -7.5 66.5t-18 36t-21 17.5t-18 17.5t-7.5 28.5q0 20 14 28t48 8h116q31 0 65 -32l347 -333v235q0 31 -27.5 56.5t-27.5 42.5q0 18 10.5 24t36.5 6z" />
    <glyph glyph-name="O" unicode="O" horiz-adv-x="796" 
d="M375 -10q-140 0 -237.5 94t-97.5 240q0 161 109 273.5t268 112.5q150 0 242 -98.5t92 -246.5q0 -160 -107.5 -267.5t-268.5 -107.5zM436 89q133 0 133 181q0 81 -24.5 160.5t-73.5 135.5t-110 56q-68 0 -101.5 -52t-33.5 -137q0 -79 24 -156t73.5 -132.5t112.5 -55.5z
" />
    <glyph glyph-name="P" unicode="P" horiz-adv-x="681" 
d="M80 700h249q159 0 250 -73t91 -201q0 -222 -311 -222h-59q-19 0 -20 -18q1 -41 12 -66t23.5 -32.5t23 -20t10.5 -31.5q0 -20 -13 -28t-48 -8h-208q-34 0 -48 8t-14 28q0 19 11 31.5t25 20.5t25 33.5t11 68.5v308q0 41 -7.5 66.5t-18 36t-21 17.5t-18 17.5t-7.5 28.5
q0 20 14 28t48 8zM347 281q65 0 99.5 36.5t34.5 94.5q0 101 -47.5 157t-106.5 56q-32 0 -39.5 -5t-7.5 -22v-281q0 -20 16 -28t51 -8z" />
    <glyph glyph-name="Q" unicode="Q" horiz-adv-x="796" 
d="M733 -20q10 0 18 -12t8 -37q0 -50 -43.5 -86.5t-130.5 -36.5q-40 0 -95.5 15.5t-88 29t-98.5 42.5q-158 64 -184 64q-17 0 -29.5 -6t-16.5 -6q-11 0 -17 11t-6 25q0 23 18 43.5t62 20.5q27 0 63 -6q-71 43 -112 117t-41 166q0 161 109 273.5t268 112.5q150 0 242 -98.5
t92 -246.5q0 -151 -97.5 -257t-247.5 -117q1 -1 4 -1t5 -1q162 -38 234 -38q33 0 55 14.5t29 14.5zM361 622q-68 0 -101.5 -52t-33.5 -137q0 -79 24 -156t73.5 -132.5t112.5 -55.5q133 0 133 181q0 81 -24.5 160.5t-73.5 135.5t-110 56z" />
    <glyph glyph-name="R" unicode="R" horiz-adv-x="726" 
d="M559 252l61 -105q17 -30 40.5 -47t36 -28.5t12.5 -35.5q0 -20 -13.5 -28t-49.5 -8h-187q-48 0 -48 36q0 16 12.5 35.5t17 32.5t-10.5 48l-37 65q-11 -1 -33 -1h-60q-20 0 -20 -20v-6q0 -43 11 -68.5t23.5 -33.5t23.5 -20.5t11 -31.5q0 -20 -13 -28t-48 -8h-208
q-34 0 -48 8t-14 28q0 19 11 31.5t25 20.5t25 33.5t11 68.5v308q0 41 -7.5 66.5t-18 36t-21 17.5t-18 17.5t-7.5 28.5q0 20 14 28t48 8h252q155 0 242.5 -71t87.5 -190q0 -135 -103 -187zM349 294q123 0 123 131q0 94 -43.5 147t-103.5 53q-29 0 -37 -5.5t-8 -21.5v-269
q0 -20 17 -27.5t52 -7.5z" />
    <glyph glyph-name="S" unicode="S" horiz-adv-x="651" 
d="M323 -9q-43 0 -94 11.5t-57 11.5q-19 0 -35 -12t-27 -12q-30 0 -39 54q-18 105 -18 151q-2 55 29 55q5 0 9.5 -1.5t8 -3.5t7.5 -7.5t6.5 -9t9 -13.5t10.5 -16q82 -126 203 -126q35 1 52 20t16 46q0 19 -11.5 37t-38 37t-48 31t-60.5 33q-37 20 -55.5 30.5t-44.5 27.5
t-38 30.5t-25 33t-18 42t-5 50.5q0 92 78.5 155t186.5 63q31 0 72 -8t46 -8q15 0 30 8t27 8q32 0 43 -52q15 -77 15 -127q2 -55 -34 -55q-12 0 -22.5 10.5t-32.5 40.5q-77 105 -151 105q-35 0 -55 -18t-20 -49q0 -37 34 -68t120 -76q49 -25 70.5 -37t53.5 -34t45 -39.5
t23 -43t10 -56.5q-1 -101 -83 -160t-193 -59z" />
    <glyph glyph-name="T" unicode="T" horiz-adv-x="660" 
d="M426 573v-383q0 -43 11 -68.5t23.5 -33.5t23.5 -20.5t11 -31.5q0 -20 -13 -28t-48 -8h-209q-34 0 -47.5 8t-13.5 28q0 19 11 31.5t24.5 20.5t24.5 33.5t11 68.5v383q0 39 -35 39q-37 0 -60 -26t-56 -90q-17 -35 -38 -35q-31 0 -29 55q3 87 16 135q7 27 25.5 38t61.5 11
h420q43 0 61.5 -11t25.5 -38q13 -48 16 -135q2 -55 -29 -55q-22 0 -38 34q-32 65 -55.5 91t-60.5 26q-34 0 -34 -39z" />
    <glyph glyph-name="U" unicode="U" horiz-adv-x="749" 
d="M376 -10q-153 0 -223.5 81.5t-70.5 262.5v177q0 35 -7 58t-17.5 33t-21 17.5t-17.5 18t-7 26.5q0 20 13 28t49 8h208q35 0 48.5 -8t13.5 -28q0 -16 -7.5 -26.5t-18 -18t-21 -17.5t-18 -33t-7.5 -58v-213q0 -99 38.5 -151.5t111.5 -52.5q72 0 111.5 55t39.5 161l2 260
q0 31 -27.5 56.5t-27.5 42.5q0 18 10.5 24t36.5 6h109q30 0 40.5 -6.5t10.5 -24.5q0 -15 -27.5 -41t-28.5 -57v-228q-1 -194 -72 -273t-223 -79z" />
    <glyph glyph-name="V" unicode="V" horiz-adv-x="743" 
d="M580 699h99q62 0 62 -33q0 -17 -15.5 -29t-37.5 -29.5t-33 -45.5l-202 -519q-8 -22 -20 -30.5t-48 -13.5q-45 -5 -60 -1t-22 24l-212 533q-11 28 -25.5 45.5t-24.5 23.5t-17 15.5t-7 24.5q0 20 12.5 28t45.5 8h205q29 0 42 -8.5t13 -27.5q0 -18 -17 -31t-25.5 -24.5
t3.5 -53.5l131 -334l127 341q11 40 5 51t-19.5 25t-13.5 30q0 31 54 31z" />
    <glyph glyph-name="W" unicode="W" horiz-adv-x="1091" 
d="M928 700h99q62 0 62 -33q0 -14 -10 -24.5t-23 -18t-27.5 -24t-22.5 -38.5l-180 -523q-10 -31 -71 -41q-46 -6 -62.5 -1.5t-23.5 22.5l-120 366l-116 -347q-9 -31 -71 -40q-43 -5 -59 -1t-22 22l-190 540q-8 24 -22 41.5t-25 24.5t-19 17.5t-8 24.5q0 20 11.5 26.5
t35.5 6.5h204q26 0 38.5 -7.5t12.5 -26.5q0 -16 -12 -30.5t-18 -26.5t3 -50l109 -342l107 293l-15 49q-8 24 -21 41.5t-24 24.5t-19 17.5t-8 24.5q0 20 11.5 26.5t35.5 6.5h204q52 0 52 -34q0 -16 -12 -30.5t-18.5 -27t1.5 -50.5l97 -333l112 337q10 41 3.5 52t-20 25
t-13.5 30q0 31 54 31z" />
    <glyph glyph-name="X" unicode="X" horiz-adv-x="784" 
d="M617 566l-132 -183l186 -253q21 -29 46.5 -45.5t37.5 -25.5t12 -28q0 -31 -50 -31h-233q-26 0 -38.5 7.5t-12.5 26.5q0 13 7.5 22.5t14 15t3.5 20t-20 38.5l-101 137l-95 -132q-18 -26 -20.5 -42t4.5 -22t15.5 -16.5t8.5 -23.5q0 -31 -54 -31h-116q-62 0 -62 33
q0 14 11.5 24t27.5 16.5t38 22.5t38 38l149 208h1l-168 228q-21 29 -47 45.5t-38 25.5t-12 28q0 31 51 31h232q27 0 39.5 -7.5t12.5 -26.5q0 -13 -7.5 -22.5t-14 -15t-4 -20t20.5 -38.5l82 -112l78 108q19 26 21.5 42t-4.5 21.5t-15.5 16t-8.5 23.5q0 31 54 31h116
q62 0 62 -33q0 -14 -11.5 -24t-27.5 -16.5t-38.5 -22.5t-38.5 -38z" />
    <glyph glyph-name="Y" unicode="Y" horiz-adv-x="738" 
d="M551 699h115q32 0 47.5 -7t15.5 -26q0 -14 -11.5 -24t-27 -17t-36 -24t-35.5 -40l-152 -246l-3 1v-126q0 -43 11 -68.5t24 -33.5t24 -20.5t11 -31.5q0 -20 -13.5 -28t-48.5 -8h-208q-34 0 -47.5 8t-13.5 28q0 19 11 31.5t24.5 20.5t24.5 33.5t11 68.5v120l-172 258
q-20 30 -44.5 47t-36.5 26t-12 28q0 31 50 31h233q26 0 38.5 -7.5t12.5 -26.5q0 -15 -12.5 -28t-15 -22.5t17.5 -48.5l97 -155l83 147q16 28 16.5 45t-7.5 23.5t-17 17t-9 23.5q0 31 55 31z" />
    <glyph glyph-name="Z" unicode="Z" horiz-adv-x="644" 
d="M614 202q28 -11 17 -63q-12 -61 -27 -100q-9 -24 -28 -31.5t-66 -7.5h-440q-24 0 -31 14.5t5 35.5l328 569h-110q-44 0 -78 -23t-69 -71q-26 -37 -55 -26q-28 10 -17 62q12 61 27 100q9 24 28 31.5t66 7.5h418q24 0 31 -13.5t-5 -35.5l-324 -569h128q44 0 78 22.5
t69 70.5q25 37 55 27z" />
    <glyph glyph-name="bracketleft" unicode="[" horiz-adv-x="347" 
d="M288 -128h-183q-43 0 -43 42v823q0 42 43 42h183q25 0 33.5 -6t8.5 -25t-8 -25t-34 -6h-24q-32 0 -32 -32v-719q0 -32 32 -32h24q26 0 34 -6t8 -25t-8.5 -25t-33.5 -6z" />
    <glyph glyph-name="backslash" unicode="\" horiz-adv-x="370" 
d="M317 -100h-6q-22 0 -31.5 7t-16.5 28l-236 757q-10 29 -4.5 38.5t33.5 9.5h5q22 0 31.5 -7t16.5 -28l237 -757q10 -29 4.5 -38.5t-33.5 -9.5z" />
    <glyph glyph-name="bracketright" unicode="]" horiz-adv-x="347" 
d="M242 -128h-182q-26 0 -34.5 6t-8.5 25t8.5 25t34.5 6h23q32 0 32 32v719q0 32 -32 32h-23q-26 0 -34.5 6t-8.5 25t8.5 25t34.5 6h182q43 0 43 -42v-823q0 -42 -43 -42z" />
    <glyph glyph-name="underscore" unicode="_" horiz-adv-x="397" 
d="M366 -93h-335q-19 0 -25 6.5t-6 25.5t6 25.5t25 6.5h335q19 0 25 -6t6 -25q0 -20 -6 -26.5t-25 -6.5z" />
    <glyph glyph-name="grave" unicode="`" horiz-adv-x="500" 
d="M383 562q-44 -17 -111 4.5t-83 66.5q-11 28 0 50.5t38 32.5q34 12 95 -38q63 -56 77 -90q6 -18 -16 -26z" />
    <glyph glyph-name="a" unicode="a" horiz-adv-x="601" 
d="M585 92q8 1 13 -5.5t5 -15.5q0 -31 -40.5 -55t-81.5 -24q-73 0 -100 71q-71 -71 -181 -71q-75 0 -125 40t-50 102q0 74 63 120.5t180 46.5q6 0 22 -1t30 -1q-30 88 -105 88q-46 0 -107 -36q-15 -11 -28 1t-1 33q22 40 79.5 72.5t128.5 32.5q42 0 75 -13t52 -28.5
t36 -45.5t23.5 -47.5t17.5 -51.5l51 -158q6 -20 10 -29t12.5 -17.5t20.5 -7.5zM283 81q34 0 57.5 18.5t17.5 45.5q-3 13 -21 61q-11 33 -54 33q-41 0 -66 -20t-26 -52q0 -37 26 -61.5t66 -24.5z" />
    <glyph glyph-name="b" unicode="b" horiz-adv-x="595" 
d="M365 490q81 2 140 -58.5t59 -162.5q0 -76 -24.5 -133.5t-62 -87t-75 -44t-72.5 -14.5q-53 0 -95 22t-56 21q-16 -1 -50.5 -18.5t-49.5 -17.5q-41 0 -33 38q9 54 9 118l-1 382q0 22 -11.5 36.5t-23 25t-11.5 22.5t7.5 19.5t26.5 16.5q29 14 91 34.5t75 20.5q27 0 27 -38
l-1 -137v-102q46 56 131 57zM326 69q19 0 33.5 12t22 31.5t10.5 38.5t3 38q0 86 -24.5 144t-69.5 58q-30 0 -51.5 -28.5t-20.5 -82.5l2 -63q1 -69 28 -108.5t67 -39.5z" />
    <glyph glyph-name="c" unicode="c" horiz-adv-x="546" 
d="M281 -10q-118 0 -183.5 69t-65.5 166q0 115 78.5 190t189.5 75q92 0 151 -49t59 -120q0 -41 -24 -63t-58 -22q-62 0 -83 77q-28 96 -81 96q-29 0 -45 -26t-16 -71q0 -87 43 -141.5t115 -54.5q26 0 49 8.5t34 16t35 25.5q19 15 31 4t4 -37q-17 -55 -77.5 -99t-155.5 -44z
" />
    <glyph glyph-name="d" unicode="d" horiz-adv-x="615" 
d="M542 672l-1 -136l-2 -366q0 -20 6 -33.5t14.5 -20.5t17 -12t14.5 -11t6 -14q0 -23 -40 -44q-28 -14 -72.5 -28t-66.5 -14q-24 0 -35.5 13.5t-14.5 47.5q-56 -68 -151 -63q-79 4 -132 61.5t-53 152.5q0 68 25 124t64 90t82.5 52.5t84.5 18.5q36 0 73 -11v56q0 27 -22.5 49
t-22.5 35q0 21 33 36q30 14 92 34.5t75 20.5q26 0 26 -38zM300 101q52 0 61 82v98q-4 49 -11 73q-20 60 -72 60q-37 0 -57.5 -34.5t-20.5 -98.5q0 -78 27 -129t73 -51z" />
    <glyph glyph-name="e" unicode="e" horiz-adv-x="544" 
d="M487 177q18 16 30.5 4t4.5 -37q-17 -55 -85 -104.5t-163 -49.5q-109 0 -175.5 65t-66.5 171q0 114 80 189t183 75q92 0 145 -48t60 -118q3 -24 -21 -38q-120 -61 -245 -112q36 -59 119 -59q64 0 134 62zM239 405q-44 -19 -44 -95q0 -41 11 -66q54 19 105 46q1 1 5 2.5
t5.5 2.5t5 2.5t4.5 3t3.5 4t3.5 4.5t2 5t1 6.5t-0.5 8t-2.5 9.5q-15 41 -42 60t-57 7z" />
    <glyph glyph-name="f" unicode="f" horiz-adv-x="403" 
d="M253 629q-16 0 -26.5 -15t-10.5 -43q0 -36 14.5 -63.5t39.5 -27.5h75q39 0 31 -45q-7 -44 -48 -42l-58 3v-250q0 -35 11 -54t24.5 -23t24.5 -13t11 -26q0 -30 -48 -30h-201q-51 0 -51 32q0 15 8 25t17 16t17 24.5t8 48.5v258l-27 1q-21 1 -31 9t-7 28q7 38 54 38h11
q0 104 56.5 167t138.5 63q56 0 92.5 -32t36.5 -85q0 -34 -19 -49.5t-41 -15.5q-39 0 -57 49q-19 52 -45 52z" />
    <glyph glyph-name="g" unicode="g" horiz-adv-x="590" 
d="M437 100q65 0 101.5 -34t36.5 -90q0 -85 -85 -135.5t-214 -50.5q-55 0 -105 11t-88 38.5t-38 66.5q0 23 17 43t44 30q-62 27 -62 88q0 63 76 100q-70 42 -70 122q0 79 69 138t172 63q27 1 56 -2q8 -1 25 -1q55 0 103 52q23 25 50 25q21 0 34.5 -14t13.5 -34
q0 -36 -32 -54t-76 -22q52 -46 52 -122q0 -78 -64.5 -130t-166.5 -57q-59 -2 -104 11q-13 -13 -13 -27q0 -28 59 -28q30 0 107 6.5t102 6.5zM269 422q-23 0 -36 -22.5t-13 -55.5q0 -62 20 -104t62 -42q20 0 33.5 20.5t13.5 59.5q0 53 -21 98.5t-59 45.5zM306 -135
q116 0 116 55q0 25 -34 27q-31 0 -84 -3t-84 -2q-38 2 -38 -29q0 -48 124 -48z" />
    <glyph glyph-name="h" unicode="h" horiz-adv-x="663" 
d="M574 288l38 -166q5 -20 14 -33.5t17 -19t14.5 -15.5t6.5 -24q0 -18 -11.5 -24t-36.5 -6h-173q-52 0 -52 32q0 15 13 27.5t22.5 29.5t3.5 46l-34 150q-20 92 -74 93q-30 0 -48.5 -25.5t-18.5 -65.5v-141q0 -31 8 -49t17 -23t17 -15.5t8 -28.5t-11.5 -24t-36.5 -6h-180
q-52 0 -52 32q0 17 8 27t17.5 15t17.5 23t8 49l-2 389q0 22 -11 36.5t-22.5 25t-11.5 22.5t7.5 19.5t26.5 16.5q29 14 90.5 34.5t75.5 20.5q27 0 27 -38l-1 -137v-95q52 50 132 50q46 0 79.5 -15t54 -46t31.5 -62t22 -79z" />
    <glyph glyph-name="i" unicode="i" horiz-adv-x="316" 
d="M128 525q-35 0 -55 21t-20 51q-1 42 37.5 79t85.5 37q34 1 57 -20t24 -54q0 -46 -39.5 -80t-89.5 -34zM70 146l-1 168q0 17 -7 30t-15.5 19.5t-15.5 15.5t-7 19q0 21 33 36q30 14 91.5 34.5t74.5 20.5q27 0 27 -38l-1 -137v-168q0 -31 8 -49t17.5 -23t17.5 -15.5t8 -28.5
q0 -30 -48 -30h-180q-52 0 -52 32q0 17 8 27t17 15t17 23t8 49z" />
    <glyph glyph-name="j" unicode="j" horiz-adv-x="301" 
d="M135 525q-35 0 -55 21t-20 51q-1 42 37.5 79t85.5 37q34 1 57 -20t24 -54q0 -46 -39.5 -80t-89.5 -34zM68 17l-1 300q0 27 -22.5 49t-22.5 35q0 12 7.5 19.5t26.5 16.5q29 14 90.5 34.5t75.5 20.5q27 0 27 -38l-1 -136l-1 -301v-24q0 -59 -18 -100.5t-49.5 -62.5
t-64.5 -29.5t-73 -8.5q-73 0 -95 34q-14 21 5 31q7 4 17 4q41 0 69.5 38t29.5 118z" />
    <glyph glyph-name="k" unicode="k" horiz-adv-x="648" 
d="M465 371l-13 -14l112 -250q8 -17 38.5 -38.5t30.5 -42.5q0 -26 -47 -26h-175q-52 0 -52 27q0 14 12.5 24.5t18.5 17.5t-3 33l-57 124l-75 -81q0 -30 8 -48t17 -23t17 -15.5t8 -28.5t-11.5 -24t-36.5 -6h-180q-52 0 -52 32q0 17 8 27t17.5 15t17.5 23t8 49l-2 389
q0 22 -11 36.5t-22.5 25t-11.5 22.5t7.5 19.5t26.5 16.5q29 14 90.5 34.5t75.5 20.5q27 0 27 -38l-1 -137v-280l109 115q17 18 17 29.5t-9 17t-19 15.5t-10 22q0 26 50 26h143q44 0 44 -27q0 -12 -11.5 -21t-27.5 -14t-38 -17.5t-38 -29.5z" />
    <glyph glyph-name="l" unicode="l" horiz-adv-x="329" 
d="M76 146l-2 389q0 22 -11 36.5t-22.5 25t-11.5 22.5t7.5 19.5t26.5 16.5q29 14 90.5 34.5t75.5 20.5q27 0 27 -38l-1 -137v-389q0 -31 8 -49t17 -23t17 -15.5t8 -28.5t-11.5 -24t-36.5 -6h-180q-52 0 -52 32q0 17 8 27t17.5 15t17.5 23t8 49z" />
    <glyph glyph-name="m" unicode="m" horiz-adv-x="965" 
d="M877 288l38 -166q7 -30 29.5 -51t22.5 -41q0 -30 -48 -30h-174q-51 0 -51 32q0 15 13 27.5t22.5 29.5t3.5 46l-34 150q-5 21 -7 28.5t-8 23.5t-12 22.5t-16.5 12.5t-24.5 6q-28 0 -47 -24.5t-19 -66.5l-1 -141q0 -31 8 -49t17.5 -23t17.5 -15.5t8 -28.5q0 -30 -48 -30
h-180q-52 0 -52 32q0 17 8 27t17 15t17 23t8 49v123q0 27 -1.5 43t-7 34t-18 26.5t-32.5 8.5q-30 0 -53 -27.5t-23 -66.5v-141q0 -31 8 -49t17 -23t17 -15.5t8 -28.5t-11.5 -24t-36.5 -6h-180q-52 0 -52 32q0 17 8 27t17.5 15t17.5 23t8 49v179q0 7 -1.5 12.5t-6 10.5t-7 8
t-9 8.5t-8.5 7.5q-1 1 -5.5 6t-6.5 7.5t-4.5 8.5t-2.5 12q0 14 8 22t27 17q29 14 81.5 30t66.5 16q27 -1 27 -38v-43q60 80 158 80q110 0 152 -79q58 79 153 79q39 0 68 -11.5t46.5 -27t32 -46t21 -53.5t16.5 -64z" />
    <glyph glyph-name="n" unicode="n" horiz-adv-x="658" 
d="M569 288l38 -166q5 -20 14 -33.5t17 -19t14.5 -15.5t6.5 -24q0 -18 -11.5 -24t-36.5 -6h-173q-52 0 -52 32q0 15 13 27.5t22.5 29.5t3.5 46l-34 150q-20 92 -74 93q-30 0 -48.5 -25.5t-18.5 -65.5v-141q0 -31 8 -49t17 -23t17 -15.5t8 -28.5t-11.5 -24t-36.5 -6h-180
q-52 0 -52 32q0 17 8 27t17.5 15t17.5 23t8 49v179q0 7 -1.5 12.5t-6 10.5t-7 8t-9 8.5t-8.5 7.5q-1 1 -5.5 6t-6.5 7.5t-4.5 8.5t-2.5 12q0 14 8 22t27 17q29 14 81.5 30t66.5 16q27 -1 27 -38v-36q53 73 152 73q46 0 79.5 -15t54 -46t31.5 -62t22 -79z" />
    <glyph glyph-name="o" unicode="o" horiz-adv-x="586" 
d="M267 -10q-101 0 -168 63.5t-67 167.5q0 113 82.5 191t203.5 78q106 0 171 -66t65 -166q0 -115 -82 -191.5t-205 -76.5zM321 73q58 0 58 96q0 55 -13.5 109.5t-40.5 92.5t-61 38q-20 0 -32.5 -9.5t-18 -27.5t-7 -33.5t-1.5 -37.5q0 -84 33.5 -156t82.5 -72z" />
    <glyph glyph-name="p" unicode="p" horiz-adv-x="616" 
d="M383 490q82 0 142 -60t60 -168q0 -72 -22.5 -127t-58 -85t-72.5 -45t-72 -15q-58 0 -114 32v-76q0 -31 8 -49t17 -23t17 -15.5t8 -28.5t-11.5 -24t-36.5 -6h-180q-51 0 -51 31q0 17 8 27.5t17 15.5t17 23t8 49v379q0 8 -3.5 15t-6.5 11t-11 11t-10 9q-1 1 -5.5 6
t-6.5 7.5t-4.5 8.5t-2.5 12q0 15 8 23t27 17q29 14 82 29.5t66 15.5q27 0 27 -38v-35q57 73 156 73zM342 69q37 0 54 37.5t17 82.5q0 81 -24.5 140t-74.5 59q-28 0 -48.5 -30t-19.5 -81l1 -59q1 -68 28 -108.5t67 -40.5z" />
    <glyph glyph-name="q" unicode="q" horiz-adv-x="609" 
d="M540 452v-506q0 -30 8 -48.5t17 -25t17 -16.5t8 -25q0 -31 -51 -31h-201q-48 0 -48 30q0 17 11 26t24.5 13t24.5 23t11 54v109q-51 -64 -127 -65q-90 0 -146 56.5t-56 152.5q0 69 24 126t62 92t83 54t90 19q47 0 88.5 -13t50.5 -13q17 0 42 13t35 13q20 0 26.5 -9
t6.5 -29zM304 96q58 0 58 121q0 89 -13 137q-22 60 -76 60q-75 0 -75 -133q0 -74 29 -129.5t77 -55.5z" />
    <glyph glyph-name="r" unicode="r" horiz-adv-x="486" 
d="M364 490q46 0 73 -28t27 -75q0 -39 -16 -60.5t-42 -21.5q-19 0 -33 9.5t-21 20.5t-20.5 20.5t-30.5 9.5q-51 0 -51 -79v-140q0 -31 8 -49t17 -23t17 -15.5t8 -28.5t-11.5 -24t-36.5 -6h-180q-52 0 -52 32q0 17 8 27t17.5 15t17.5 23t8 49v179q0 7 -1.5 12.5t-6 10.5t-7 8
t-9 8.5t-8.5 7.5q-1 1 -5.5 6t-6.5 7.5t-4.5 8.5t-2.5 12q0 14 8 22t27 17q29 14 81.5 30t66.5 16q27 -1 27 -38v-40q54 77 134 77z" />
    <glyph glyph-name="s" unicode="s" horiz-adv-x="542" 
d="M120 -10q-16 0 -26.5 10t-22.5 37q-31 74 -36 100q-7 37 15 50q13 8 28 0t42 -31q41 -35 57 -47.5t51.5 -31t65.5 -18.5q31 0 31 29q0 21 -32.5 42.5t-106.5 55.5q-62 28 -97.5 64t-35.5 93q0 71 53.5 109t120.5 38q33 0 74 -7.5t54 -7.5t26.5 7.5t24.5 7.5q13 0 22 -8.5
t25 -36.5q16 -32 25 -55q17 -47 -10 -61q-4 -2 -7.5 -2.5t-7.5 0t-7 0.5t-7.5 2.5t-7 4t-8.5 5t-8.5 5.5t-9 6.5t-9.5 6.5q-90 60 -133 60q-20 0 -29 -8.5t-9 -19.5q0 -18 24.5 -35.5t83.5 -45.5q94 -44 134 -80t40 -87q0 -71 -57 -111t-136 -40q-55 0 -103.5 10.5
t-50.5 10.5q-6 0 -17.5 -10.5t-22.5 -10.5z" />
    <glyph glyph-name="t" unicode="t" horiz-adv-x="420" 
d="M367 134q17 12 28.5 2.5t6.5 -27.5q-16 -47 -60.5 -83t-109.5 -36q-75 0 -119 45t-44 129v74q0 99 3 163h-18q-24 0 -33 7.5t-9 22.5q0 29 22 49q75 67 146 106q34 17 46 17t20.5 -10t7.5 -22q-1 -13 -2 -28.5t-2 -34t-2 -28.5h98q40 0 32 -45q-7 -44 -48 -42l-83 3
q0 -33 0.5 -86.5t0.5 -71.5q1 -79 12.5 -104t40.5 -25q27 0 66 25z" />
    <glyph glyph-name="u" unicode="u" horiz-adv-x="611" 
d="M558 452l-1 -137l-1 -147q0 -24 9 -40t19.5 -21.5t19.5 -12.5t9 -17q0 -24 -39 -44q-28 -14 -72.5 -28t-67.5 -14q-25 0 -36.5 14.5t-13.5 51.5l-1 12q-26 -36 -67 -57t-81 -21q-85 0 -126.5 55.5t-41.5 148.5l-1 120q0 22 -11.5 36.5t-23 25t-11.5 22.5t7.5 19.5
t26.5 16.5q29 14 91 34.5t75 20.5q27 0 27 -38l-1 -137v-116q0 -49 11.5 -72.5t42.5 -23.5q31 -1 53 30t25 81l-1 101q0 22 -11.5 36.5t-23 25t-11.5 22.5t7.5 19.5t26.5 16.5q29 14 90.5 34.5t75.5 20.5q27 0 27 -38z" />
    <glyph glyph-name="v" unicode="v" horiz-adv-x="585" 
d="M439 480h84q52 0 52 -31q0 -16 -8 -26t-19 -15.5t-25.5 -23.5t-25.5 -46l-102 -278q-10 -25 -24.5 -36t-59.5 -22q-53 -11 -72 -5t-29 32l-121 309q-11 28 -26.5 46t-26 23.5t-18.5 15.5t-8 27q0 18 11.5 24t36.5 6h192q51 0 51 -31q0 -18 -13 -31.5t-18 -24t9 -55.5
l71 -182l65 182q13 45 7.5 55.5t-19 24t-13.5 32.5q0 18 12 24t37 6z" />
    <glyph glyph-name="w" unicode="w" horiz-adv-x="895" 
d="M749 482h85q51 0 51 -31q0 -16 -8 -26t-19 -15.5t-26.5 -22.5t-27.5 -45l-133 -301q-4 -10 -9 -16t-19.5 -12.5t-39.5 -10.5q-37 -6 -50.5 -2t-19.5 22l-90 230l-82 -211q-10 -27 -63 -39q-41 -8 -55.5 -3.5t-21.5 23.5l-131 319q-12 28 -27 45.5t-26 23t-19 15.5t-8 27
q0 31 48 31h194q52 0 52 -32q0 -18 -13 -31.5t-18 -23.5t10 -55l58 -141l91 238q4 9 8 15t14.5 13t26.5 11q60 15 75 -21l104 -255l61 141q16 44 11.5 54t-18 23.5t-13.5 32.5q0 30 48 30z" />
    <glyph glyph-name="x" unicode="x" horiz-adv-x="634" 
d="M499 352l-79 -92l101 -129q22 -29 48 -45t37 -25t11 -31q0 -18 -11.5 -24t-36.5 -6h-225q-52 0 -52 32q0 15 8 25.5t14.5 15t3 19t-22.5 39.5l-33 42l-32 -42q-19 -25 -22.5 -39.5t3 -19.5t14.5 -15.5t8 -26.5q0 -18 -11.5 -24t-36.5 -6h-99q-52 0 -52 32q0 21 11.5 29.5
t37.5 24t49 43.5l84 103l-91 117q-22 29 -48 45t-37 25t-11 31q0 18 11.5 24t36.5 6h226q51 0 51 -31q0 -15 -8 -26t-14.5 -15.5t-3 -19t22.5 -39.5l22 -28l27 31q21 24 24.5 37.5t-3 18.5t-14.5 15.5t-8 26.5q0 18 11.5 24t36.5 6h100q51 0 51 -31q0 -17 -7.5 -26.5
t-19 -14t-32.5 -19.5t-40 -37z" />
    <glyph glyph-name="y" unicode="y" horiz-adv-x="614" 
d="M469 480h85q51 0 51 -31q0 -16 -8 -26t-18.5 -15.5t-25.5 -23.5t-26 -46l-122 -313q-47 -123 -100 -179t-149 -56q-56 0 -101 29t-45 84q0 36 22 62t59 26q25 0 41.5 -19t23 -41.5t20.5 -41.5t35 -19q22 0 36.5 19t14.5 50q0 25 -12 55l-136 344q-11 28 -26.5 46
t-26 23.5t-18.5 15.5t-8 27q0 18 11.5 24t36.5 6h192q51 0 51 -31q0 -18 -13 -31.5t-18 -24t9 -55.5l73 -187l68 187q13 45 8 55.5t-18.5 24t-13.5 32.5q0 30 48 30z" />
    <glyph glyph-name="z" unicode="z" horiz-adv-x="537" 
d="M500 196q13 -4 14 -18t-3 -29q-5 -48 -23 -102q-8 -24 -19.5 -35.5t-33.5 -11.5h-396q-26 0 -33.5 14.5t7.5 35.5l257 348h-46q-15 0 -29 -2.5t-27.5 -9t-23.5 -11t-23.5 -15t-19 -14.5t-19 -16t-15.5 -14q-26 -23 -47 -12q-23 11 -9 50q14 40 41 91q13 22 22.5 28.5
t31.5 6.5h375q25 0 33 -14.5t-7 -35.5l-257 -348h67q33 0 62 16.5t42.5 32t33.5 43.5q23 28 45 22z" />
    <glyph glyph-name="braceleft" unicode="{" horiz-adv-x="326" 
d="M291 -63q21 -8 27 -15t6 -22q0 -18 -7.5 -23.5t-30.5 -4.5q-116 6 -163 49t-47 127v197q0 23 -8 35t-27 16q-22 4 -29 12t-7 26q0 21 6.5 29t28.5 12q36 10 36 51v177q0 84 47 126.5t163 49.5q24 1 31 -4.5t7 -24.5q0 -15 -6 -22t-27 -14q-22 -9 -29.5 -29.5t-7.5 -63.5
v-155q0 -95 -93 -130q93 -37 93 -131v-175q0 -43 7.5 -64t29.5 -29z" />
    <glyph glyph-name="bar" unicode="|" horiz-adv-x="399" 
d="M208 -200h-18q-31 0 -31 31v838q0 31 31 31h18q31 0 31 -31v-838q0 -31 -31 -31z" />
    <glyph glyph-name="braceright" unicode="}" horiz-adv-x="326" 
d="M286 375q22 -4 29 -12.5t7 -28.5q0 -18 -7.5 -25.5t-28.5 -12.5q-20 -4 -27.5 -15.5t-7.5 -35.5v-197q0 -84 -47.5 -127t-163.5 -49q-23 -1 -30.5 4.5t-7.5 23.5q0 15 6 22t27 15q22 8 30 29.5t8 63.5v175q0 95 93 131q-93 34 -93 130v155q0 42 -8 63t-30 30
q-20 7 -26.5 14.5t-6.5 21.5q0 19 7.5 24.5t30.5 4.5q116 -7 163.5 -49.5t47.5 -126.5v-177q0 -42 35 -51z" />
    <glyph glyph-name="exclamdown" unicode="&#xa1;" horiz-adv-x="245" 
d="M129 490q38 0 63.5 -23t25.5 -64q0 -45 -30.5 -73t-70.5 -28q-37 0 -63.5 24.5t-26.5 65.5q0 44 30 71t72 27zM123 242q16 0 21 -7.5t6 -30.5q5 -62 37.5 -176.5t32.5 -150.5q0 -49 -27.5 -78t-69.5 -29t-69.5 29.5t-27.5 77.5q0 36 32.5 150.5t37.5 176.5q1 23 6.5 30.5
t20.5 7.5z" />
    <glyph glyph-name="cent" unicode="&#xa2;" horiz-adv-x="572" 
d="M522 195q19 15 31 3.5t4 -36.5q-14 -48 -65.5 -85.5t-133.5 -45.5v-43q0 -18 -6.5 -24.5t-26.5 -6.5t-26.5 6.5t-6.5 24.5v44q-103 9 -160 76.5t-57 156.5q0 100 60.5 171t156.5 89v44q0 18 6.5 24.5t26.5 6.5t26.5 -6.5t6.5 -24.5v-39q79 -2 137.5 -44t58.5 -106
q0 -39 -21.5 -60t-53.5 -21q-36 0 -55 18.5t-32 52.5q-29 79 -77 79q-66 0 -66 -113q0 -81 44 -130.5t123 -49.5q55 0 106 39z" />
    <glyph glyph-name="sterling" unicode="&#xa3;" horiz-adv-x="681" 
d="M592 158q17 31 38 22.5t14 -42.5q-12 -57 -57.5 -102.5t-133.5 -45.5q-90 0 -172 43q-71 -43 -124 -43q-56 0 -83 28.5t-27 70.5q0 43 33 73.5t99 30.5q32 0 86 -18q-2 44 -36 114h-56q-19 0 -25 6.5t-6 25.5t6 25t25 6h29q-20 50 -20 99q0 72 58.5 120.5t141.5 48.5
q63 0 110 -22t64 -57q15 -31 -0.5 -45t-37.5 5q-67 51 -103 51q-24 0 -39 -14.5t-15 -42.5q0 -14 4 -34t13.5 -55.5t13.5 -53.5h74q19 0 25 -6.5t6 -25.5t-6 -25t-25 -6h-63q4 -38 4 -57q0 -53 -27 -101q61 -21 109 -21q77 0 103 48zM158 47q30 0 59 24q-49 33 -64 33
q-13 0 -20.5 -7.5t-7.5 -18.5q0 -15 10.5 -23t22.5 -8z" />
    <glyph glyph-name="yen" unicode="&#xa5;" horiz-adv-x="670" 
d="M495 609h106q46 0 46 -24q0 -11 -9.5 -20t-23 -16.5t-31.5 -24t-31 -38.5l-65 -108h58q19 0 25.5 -6t6.5 -25q0 -20 -6 -26.5t-26 -6.5h-97l-28 -47h125q19 0 25.5 -6.5t6.5 -25.5t-6 -25t-26 -6h-126v-98q0 -24 23 -45t23 -37q0 -23 -43 -23h-171q-45 0 -45 24
q0 14 22.5 35t22.5 46v98h-126q-20 0 -25.5 6t-5.5 26q0 19 6 25t25 6h125l-31 47h-94q-19 0 -25 6.5t-6 26.5q0 19 6 25t25 6h52l-87 134q-11 16 -39.5 35.5t-28.5 38.5q0 24 43 24h205q47 0 47 -24q0 -12 -17 -32t-3 -42l95 -150l65 123q16 36 15 47.5t-10.5 26.5t-9.5 27
q0 23 43 23z" />
    <glyph glyph-name="section" unicode="&#xa7;" horiz-adv-x="600" 
d="M254 -211q-76 -1 -130 33t-54 88q0 28 20.5 47t47.5 19q25 0 45.5 -16.5t32.5 -36.5t30.5 -36.5t40.5 -16.5q42 0 77 37q-288 233 -288 475q0 149 83.5 236.5t209.5 89.5q77 1 130.5 -33t53.5 -88q0 -28 -20 -47.5t-47 -19.5q-25 0 -46 16.5t-33 37t-30.5 37t-39.5 16.5
q-39 0 -79 -37q77 -61 142 -139q65 -75 101 -168t36 -167q0 -151 -82 -240q-36 -40 -90.5 -63t-110.5 -24zM425 15q21 12 -17 116.5t-96 206.5q-12 21 -26.5 44.5t-33.5 52.5t-36 45t-26 12q-21 -9 13 -108t82 -186q15 -27 32.5 -56.5t39.5 -62t40.5 -51t27.5 -13.5z" />
    <glyph glyph-name="dieresis" unicode="&#xa8;" horiz-adv-x="500" 
d="M131 536q-26 0 -43 16t-17 42q0 33 24 59.5t59 26.5q29 0 47 -17.5t18 -47.5q0 -34 -26 -56.5t-62 -22.5zM316 536q-28 0 -45.5 16t-17.5 42q0 33 24.5 59.5t58.5 26.5q30 0 48 -17.5t18 -47.5q0 -34 -25.5 -56.5t-60.5 -22.5z" />
    <glyph glyph-name="copyright" unicode="&#xa9;" horiz-adv-x="832" 
d="M689 48q-113 -113 -273 -113t-273 113t-113 273t113 273t273 113t273 -113t113 -273t-113 -273zM416 9q125 0 213.5 91.5t88.5 220.5t-88.5 220.5t-213.5 91.5q-124 0 -212.5 -91.5t-88.5 -220.5t88.5 -220.5t212.5 -91.5zM416 126q-96 0 -149.5 56.5t-53.5 135.5
q0 94 64.5 155.5t154.5 61.5q75 0 123 -40t48 -98q0 -35 -19.5 -52.5t-47.5 -17.5q-51 0 -67 62q-12 38 -29 58.5t-38 19.5q-48 0 -48 -78q0 -70 35 -114.5t93 -44.5q21 0 40 6.5t28.5 13t28.5 20.5q14 12 24 2.5t4 -29.5q-14 -45 -64 -81t-127 -36z" />
    <glyph glyph-name="ordfeminine" unicode="&#xaa;" horiz-adv-x="399" 
d="M377 461q5 1 8 -3t3 -10q0 -19 -25 -34t-51 -15q-45 0 -63 44q-43 -44 -113 -44q-47 0 -78 25t-31 64q0 46 39.5 75t112.5 29q2 0 12 -0.5t21 -0.5q-20 55 -66 55q-29 0 -67 -23q-10 -7 -18 1t0 21q14 25 50 45t80 20q26 0 46.5 -8t32.5 -17.5t22.5 -28.5t14.5 -30
t11 -32l32 -99q1 -2 2 -5.5t2 -5.5t2 -5t2 -4.5t2 -4t2.5 -3.5t3 -2.5t3 -2t4 -1t4.5 -0.5zM189 455q21 0 35.5 11.5t10.5 28.5q-2 13 -13 38q-7 20 -34 20q-26 0 -41.5 -12.5t-15.5 -32.5q0 -23 16.5 -38t41.5 -15z" />
    <glyph glyph-name="guillemotleft" unicode="&#xab;" horiz-adv-x="516" 
d="M248 46q-20 0 -138 106q-29 27 -37.5 36.5t-16.5 24.5t-8 32q0 25 12 41.5t50 51.5q114 106 138 106q18 0 17 -20q0 -7 -3 -16.5t-9.5 -23t-13 -24.5t-17.5 -28.5t-18 -28t-20 -30.5t-19 -28q6 -8 19 -28t20 -30.5t18 -28t17.5 -28.5t13 -24.5t9.5 -23t3 -16.5
q2 -20 -17 -20zM448 46q-5 0 -13.5 4t-20 12.5t-22 16.5t-24 20t-22 20t-21 19t-15.5 14q-28 26 -37.5 36t-17 24.5t-7.5 32.5q0 25 12 42t50 51q114 106 138 106q17 0 17 -20q0 -7 -3 -16.5t-9.5 -23t-13 -24.5t-17.5 -28.5t-18 -28t-20 -30.5t-19 -28q6 -8 19 -28
t20 -30.5t18 -28t17.5 -28.5t13 -24.5t9.5 -23t3 -16.5q0 -20 -17 -20z" />
    <glyph glyph-name="registered" unicode="&#xae;" horiz-adv-x="832" 
d="M689 48q-113 -113 -273 -113t-273 113t-113 273t113 273t273 113t273 -113t113 -273t-113 -273zM416 9q125 0 213.5 91.5t88.5 220.5t-88.5 220.5t-213.5 91.5q-124 0 -212.5 -91.5t-88.5 -220.5t88.5 -220.5t212.5 -91.5zM378 127h-116q-22 0 -31 5.5t-9 19.5
q0 19 17 28q8 7 11.5 11t7.5 16t4 30v172q0 12 -2 28q-2 20 -20 34t-18 30q0 14 8.5 19.5t31.5 5.5h140q88 0 138.5 -40t50.5 -110q0 -74 -56 -106l32 -52q12 -20 31 -33q19 -15 19 -33q0 -14 -8.5 -19.5t-31.5 -5.5h-105q-31 0 -31 25q0 12 9 25q13 19 2 36l-20 34h-47
q-7 0 -7 -6v-4q0 -18 4 -30t7.5 -16t11.5 -11q16 -10 16 -28q0 -14 -8.5 -19.5t-30.5 -5.5zM412 300q63 0 63 68q0 47 -22 76.5t-55 29.5q-14 0 -17 -1.5t-3 -7.5v-150q0 -15 34 -15z" />
    <glyph glyph-name="macron" unicode="&#xaf;" horiz-adv-x="500" 
d="M352 548h-223q-35 0 -43.5 6.5t-5.5 29.5q5 30 14.5 37.5t46.5 7.5h224q39 0 49.5 -6.5t6.5 -29.5q-4 -31 -15 -38t-54 -7z" />
    <glyph glyph-name="degree" unicode="&#xb0;" horiz-adv-x="379" 
d="M187 371q-68 0 -117.5 50t-49.5 120t50 119.5t120 49.5t119.5 -49.5t49.5 -119.5q0 -71 -50 -120.5t-122 -49.5zM194 427q37 0 60 29.5t23 73.5q0 53 -27.5 88.5t-65.5 35.5q-36 0 -59 -30t-23 -73q0 -53 27 -88.5t65 -35.5z" />
    <glyph glyph-name="twosuperior" unicode="&#xb2;" horiz-adv-x="400" 
d="M298 266h-233q-27 0 -33.5 11t11.5 31q106 110 142.5 167t36.5 105q0 22 -15 36t-40 14q-45 0 -89 -42q-7 -7 -13.5 -6t-8.5 8.5t1 18.5q10 34 52 67.5t101 33.5q56 0 95.5 -29.5t39.5 -79.5q0 -47 -49.5 -111.5t-141.5 -132.5q31 -4 84 -1q41 3 77.5 24t42.5 21
q15 0 15 -25q-1 -35 -15 -74q-8 -21 -18.5 -28.5t-41.5 -7.5z" />
    <glyph glyph-name="threesuperior" unicode="&#xb3;" horiz-adv-x="362" 
d="M239 524q52 -6 85.5 -34.5t33.5 -81.5q0 -62 -47.5 -105t-123.5 -43q-47 0 -89 17.5t-63 44.5q-10 12 -3.5 22.5t20.5 5.5q62 -22 107 -21q35 1 55.5 19.5t20.5 51.5q0 38 -30 57.5t-91 10.5q-17 -3 -22.5 19t9.5 27q56 19 77.5 38.5t19.5 51.5q0 19 -14 31.5t-41 12.5
q-31 0 -74 -25q-9 -6 -17 1t-1 20q14 25 52 45.5t85 20.5q64 0 94.5 -27t30.5 -61q0 -23 -16.5 -50t-57.5 -48z" />
    <glyph glyph-name="acute" unicode="&#xb4;" horiz-adv-x="500" 
d="M138 562q-22 8 -16 26q6 15 29 41.5t49 48.5q60 50 95 38q26 -10 37 -32.5t0 -50.5q-16 -45 -83 -66.5t-111 -4.5z" />
    <glyph glyph-name="paragraph" unicode="&#xb6;" horiz-adv-x="600" 
d="M257 700h259q34 0 47.5 -8t13.5 -28q0 -18 -7.5 -28.5t-17.5 -17.5t-20.5 -17.5t-18 -36t-7.5 -66.5v-472q0 -105 -76 -169t-192 -64q-96 0 -157.5 32t-61.5 92q0 32 18.5 49.5t46.5 17.5q52 0 82 -61q28 -55 77 -55q27 0 45 13t26 38t10.5 48.5t2.5 55.5l1 595h-55
q-56 0 -80 -34t-24 -104q0 -151 86 -197q30 -16 23.5 -42t-36.5 -25q-110 7 -174 71.5t-64 166.5q0 104 70.5 175t182.5 71z" />
    <glyph glyph-name="periodcentered" unicode="&#xb7;" horiz-adv-x="245" 
d="M116 180q-37 0 -63 23t-26 64q0 45 30.5 73t70.5 28q37 0 63.5 -24.5t26.5 -65.5q0 -44 -30 -71t-72 -27z" />
    <glyph glyph-name="cedilla" unicode="&#xb8;" horiz-adv-x="500" 
d="M226 0h64l-27 -48q94 -17 94 -82q0 -38 -29.5 -63t-73.5 -25q-61 0 -91 37q-10 14 0 24.5t29 -0.5q19 -12 35 -12q18 0 28.5 10t10.5 24q0 16 -12.5 26.5t-22 13.5t-29.5 8q-21 4 -12 20z" />
    <glyph glyph-name="onesuperior" unicode="&#xb9;" horiz-adv-x="285" 
d="M203 684v-345q0 -17 16 -32t16 -26q0 -16 -30 -16h-132q-32 0 -32 17q0 13 21.5 26.5t21.5 30.5v228q0 24 -6 33.5t-27 18.5q-18 7 -18 20q0 11 19 20q34 16 79.5 32.5t54.5 16.5q17 0 17 -24z" />
    <glyph glyph-name="ordmasculine" unicode="&#xba;" horiz-adv-x="389" 
d="M179 398q-64 0 -105.5 39.5t-41.5 104.5q0 70 51.5 119t127.5 49q66 0 106.5 -41t40.5 -104q0 -72 -51 -119.5t-128 -47.5zM212 450q36 0 36 60q0 55 -19.5 102.5t-51.5 47.5q-37 0 -37 -68q0 -52 20.5 -97t51.5 -45z" />
    <glyph glyph-name="guillemotright" unicode="&#xbb;" horiz-adv-x="505" 
d="M61 46q-18 0 -18 20q0 10 5.5 24.5t18 35.5t22.5 36.5t28.5 43.5t25.5 39q-7 11 -25.5 39t-28.5 43.5t-22.5 36.5t-18 35.5t-5.5 24.5q0 20 18 20q27 0 137 -106q38 -35 50.5 -51.5t12.5 -41.5q0 -17 -8 -32t-17 -24.5t-38 -36.5q-114 -106 -137 -106zM260 46
q-17 0 -17 20q0 10 5.5 24.5t18 35.5t22.5 36.5t28.5 43.5t25.5 39q-7 11 -25.5 39t-28.5 43.5t-22.5 36.5t-18 35.5t-5.5 24.5q0 20 17 20q28 0 138 -106q38 -34 50 -51t12 -42t-12 -41t-50 -52q-114 -106 -138 -106z" />
    <glyph glyph-name="questiondown" unicode="&#xbf;" horiz-adv-x="600" 
d="M340 490q38 0 63.5 -23t25.5 -64q0 -45 -30.5 -73t-70.5 -28q-37 0 -63.5 24.5t-26.5 65.5q0 44 30 71t72 27zM311 211q2 35 28 39q27 5 42 -24q8 -14 8 -34q0 -57 -24.5 -108.5t-48.5 -97t-24 -87.5q0 -47 39 -47q18 0 28.5 13t20 38.5t15.5 35.5q0 1 6 11t8 12t8 10.5
t10.5 11t11.5 7.5t15.5 6.5t18.5 1.5q44 0 62.5 -23.5t18.5 -53.5q0 -65 -57.5 -108.5t-168.5 -43.5q-105 0 -163.5 40t-58.5 105q0 36 21 71t46 57t57.5 49t44.5 41q6 7 20.5 36.5t15.5 41.5z" />
    <glyph glyph-name="Agrave" unicode="&#xc0;" horiz-adv-x="746" 
d="M366 750q-59 2 -109 29t-49 76q1 23 19 41t40 18q30 -1 86 -50q22 -18 47.5 -47t24.5 -44q0 -23 -59 -23zM203 161l-10 -24q-13 -40 -7 -50.5t19.5 -24.5t13.5 -30q0 -31 -55 -31h-98q-32 0 -47 7t-15 26q0 14 10 24.5t23 17.5t29 23t25 38l170 415q12 39 4.5 52
t-22.5 29.5t-15 32.5q0 34 36 34h134q37 0 49 -33l209 -523q11 -27 25.5 -44.5t24.5 -23.5t17 -15.5t7 -24.5q0 -20 -13 -28t-46 -8h-205q-54 0 -54 36q0 18 17 31t25.5 24.5t-3.5 53.5l-4 8q-9 23 -20 28q-15 6 -105 6q-94 0 -106 -7q-6 -4 -13 -19zM323 270q59 0 67 3.5
t1 23.5l-65 168l-65 -158q-11 -28 -3.5 -32.5t65.5 -4.5z" />
    <glyph glyph-name="Aacute" unicode="&#xc1;" horiz-adv-x="746" 
d="M353 750q-59 0 -59 23q-1 15 24.5 44t47.5 47q56 49 86 50q22 0 40 -18t19 -41q1 -49 -49 -76t-109 -29zM203 161l-10 -24q-13 -40 -7 -50.5t19.5 -24.5t13.5 -30q0 -31 -55 -31h-98q-32 0 -47 7t-15 26q0 14 10 24.5t23 17.5t29 23t25 38l170 415q12 39 4.5 52
t-22.5 29.5t-15 32.5q0 34 36 34h134q37 0 49 -33l209 -523q11 -27 25.5 -44.5t24.5 -23.5t17 -15.5t7 -24.5q0 -20 -13 -28t-46 -8h-205q-54 0 -54 36q0 18 17 31t25.5 24.5t-3.5 53.5l-4 8q-9 23 -20 28q-15 6 -105 6q-94 0 -106 -7q-6 -4 -13 -19zM323 270q59 0 67 3.5
t1 23.5l-65 168l-65 -158q-11 -28 -3.5 -32.5t65.5 -4.5z" />
    <glyph glyph-name="Acircumflex" unicode="&#xc2;" horiz-adv-x="746" 
d="M212 749q-19 0 -21 17q-1 12 55 67q9 9 22 23t19 19t16 12t20 9t25 2q18 0 31 -4.5t18.5 -9t21.5 -21.5t25 -26l15.5 -15.5l13.5 -13.5t11 -11.5t9 -10t6 -7.5t4 -7t1 -6q-2 -17 -21 -17q-25 0 -64.5 15t-70.5 35q-31 -20 -71 -35t-65 -15zM203 161l-10 -24
q-13 -40 -7 -50.5t19.5 -24.5t13.5 -30q0 -31 -55 -31h-98q-32 0 -47 7t-15 26q0 14 10 24.5t23 17.5t29 23t25 38l170 415q12 39 4.5 52t-22.5 29.5t-15 32.5q0 34 36 34h134q37 0 49 -33l209 -523q11 -27 25.5 -44.5t24.5 -23.5t17 -15.5t7 -24.5q0 -20 -13 -28t-46 -8
h-205q-54 0 -54 36q0 18 17 31t25.5 24.5t-3.5 53.5l-4 8q-9 23 -20 28q-15 6 -105 6q-94 0 -106 -7q-6 -4 -13 -19zM323 270q59 0 67 3.5t1 23.5l-65 168l-65 -158q-11 -28 -3.5 -32.5t65.5 -4.5z" />
    <glyph glyph-name="Atilde" unicode="&#xc3;" horiz-adv-x="746" 
d="M432 747q-25 0 -83 21t-91 21q-36 0 -36 -30q0 -16 -15 -12q-20 5 -27 35l-2 18q0 31 21 55t65 24q29 0 95.5 -21t78.5 -21q37 0 37 30q0 16 15 13q19 -5 27 -33q2 -10 2 -20q0 -31 -21.5 -55.5t-65.5 -24.5zM203 161l-10 -24q-13 -40 -7 -50.5t19.5 -24.5t13.5 -30
q0 -31 -55 -31h-98q-32 0 -47 7t-15 26q0 14 10 24.5t23 17.5t29 23t25 38l170 415q12 39 4.5 52t-22.5 29.5t-15 32.5q0 34 36 34h134q37 0 49 -33l209 -523q11 -27 25.5 -44.5t24.5 -23.5t17 -15.5t7 -24.5q0 -20 -13 -28t-46 -8h-205q-54 0 -54 36q0 18 17 31t25.5 24.5
t-3.5 53.5l-4 8q-9 23 -20 28q-15 6 -105 6q-94 0 -106 -7q-6 -4 -13 -19zM323 270q59 0 67 3.5t1 23.5l-65 168l-65 -158q-11 -28 -3.5 -32.5t65.5 -4.5z" />
    <glyph glyph-name="Adieresis" unicode="&#xc4;" horiz-adv-x="746" 
d="M283 756q-26 0 -43 16t-17 42q0 33 24 59.5t59 26.5q29 0 47 -17.5t18 -47.5q0 -34 -26 -56.5t-62 -22.5zM468 756q-28 0 -45.5 16t-17.5 42q0 33 24.5 59.5t58.5 26.5q30 0 48 -17.5t18 -47.5q0 -34 -25.5 -56.5t-60.5 -22.5zM203 161l-10 -24q-13 -40 -7 -50.5
t19.5 -24.5t13.5 -30q0 -31 -55 -31h-98q-32 0 -47 7t-15 26q0 14 10 24.5t23 17.5t29 23t25 38l170 415q12 39 4.5 52t-22.5 29.5t-15 32.5q0 34 36 34h134q37 0 49 -33l209 -523q11 -27 25.5 -44.5t24.5 -23.5t17 -15.5t7 -24.5q0 -20 -13 -28t-46 -8h-205q-54 0 -54 36
q0 18 17 31t25.5 24.5t-3.5 53.5l-4 8q-9 23 -20 28q-15 6 -105 6q-94 0 -106 -7q-6 -4 -13 -19zM323 270q59 0 67 3.5t1 23.5l-65 168l-65 -158q-11 -28 -3.5 -32.5t65.5 -4.5z" />
    <glyph glyph-name="Aring" unicode="&#xc5;" horiz-adv-x="746" 
d="M348 733q-49 0 -82 30.5t-33 78.5q0 49 34.5 80.5t84.5 31.5q49 0 82 -30t33 -79q0 -50 -34.5 -81t-84.5 -31zM352 801q19 0 30 13.5t9 32.5q-2 18 -14 30t-29 12q-19 0 -30.5 -12.5t-9.5 -32.5q2 -19 14.5 -31t29.5 -12zM203 161l-10 -24q-13 -40 -7 -50.5t19.5 -24.5
t13.5 -30q0 -31 -55 -31h-98q-32 0 -47 7t-15 26q0 14 10 24.5t23 17.5t29 23t25 38l170 415q12 39 4.5 52t-22.5 29.5t-15 32.5q0 34 36 34h134q37 0 49 -33l209 -523q11 -27 25.5 -44.5t24.5 -23.5t17 -15.5t7 -24.5q0 -20 -13 -28t-46 -8h-205q-54 0 -54 36q0 18 17 31
t25.5 24.5t-3.5 53.5l-4 8q-9 23 -20 28q-15 6 -105 6q-94 0 -106 -7q-6 -4 -13 -19zM323 270q59 0 67 3.5t1 23.5l-65 168l-65 -158q-11 -28 -3.5 -32.5t65.5 -4.5z" />
    <glyph glyph-name="AE" unicode="&#xc6;" horiz-adv-x="988" 
d="M926 242q19 -4 24 -16.5t4 -41.5q-3 -87 -16 -135q-7 -27 -25.5 -38t-61.5 -11h-423q-34 0 -47.5 8t-13.5 28q0 17 6 27t15 16.5t18.5 14t18 26t11.5 46.5h-205l-28 -49q-13 -30 -8 -37t18.5 -19.5t13.5 -29.5q0 -31 -54 -31h-98q-32 0 -47.5 7t-15.5 26q0 23 32 44.5
t42 39.5l286 477q16 29 -3 46q-1 1 -7.5 6t-10 8t-7 8.5t-3.5 11.5q0 26 35 26h454q46 0 65.5 -7.5t28.5 -31.5q15 -39 27 -100q9 -53 -18 -63q-28 -10 -55 27q-34 48 -68.5 70.5t-78.5 22.5h-39q-36 0 -49.5 -10t-13.5 -34v-86q0 -27 13 -37.5t42 -11.5q33 1 60 18t43 17
q30 0 34 -27l29 -144q5 -24 0 -33.5t-23 -13.5q-19 -4 -36 10.5t-28.5 34.5t-32.5 38t-47 19q-29 -1 -41.5 -11.5t-12.5 -37.5v-183q0 -24 15.5 -34t59.5 -10h56q25 0 46 17t33.5 38t35.5 68q23 45 51 37zM437 530l-158 -279h159v247q0 23 -1 32z" />
    <glyph glyph-name="Ccedilla" unicode="&#xc7;" horiz-adv-x="715" 
d="M642 196q21 22 39 6t7 -42q-34 -77 -112 -122.5t-171 -47.5l-21 -38q94 -17 94 -82q0 -38 -29.5 -63t-73.5 -25q-61 0 -91 37q-10 14 0 24.5t29 -0.5q19 -12 35 -12q18 0 28.5 10t10.5 24q0 16 -12.5 26.5t-22 13.5t-29.5 8q-21 4 -12 20l32 60q-135 16 -219 108t-84 238
q0 153 109 262t267 109q38 0 77.5 -9.5t43.5 -9.5q13 0 29.5 9t31.5 9t25.5 -11t19.5 -41q25 -84 32 -149q8 -52 -30 -55q-6 0 -11.5 1t-9 3t-9 8t-8.5 9.5t-10.5 14t-11.5 16.5q-87 126 -177 126q-81 0 -128 -57t-47 -153q0 -83 24.5 -152.5t77 -115.5t124.5 -46
q98 0 183 89z" />
    <glyph glyph-name="Egrave" unicode="&#xc8;" horiz-adv-x="639" 
d="M329 750q-59 2 -109 29t-49 76q1 23 19 41t40 18q30 -1 86 -50q22 -18 47.5 -47t24.5 -44q0 -23 -59 -23zM578 242q18 -4 23 -16.5t4 -41.5q-3 -87 -16 -135q-7 -28 -25.5 -38.5t-61.5 -10.5h-422q-34 0 -48 8t-14 28q0 18 7.5 28.5t18 17.5t21 17.5t18 36t7.5 66.5v296
q0 41 -7.5 66.5t-18 36t-21 17.5t-18 17.5t-7.5 28.5q0 20 14 28t48 8h401q46 0 65.5 -7.5t28.5 -31.5q15 -39 27 -100q9 -53 -18 -63q-28 -10 -54 27q-35 48 -69.5 70.5t-78.5 22.5h-38q-37 0 -50.5 -10t-13.5 -34v-86q0 -27 13 -37.5t42 -11.5q33 1 60 18t43 17
q30 0 34 -27l30 -144q4 -24 -1 -33.5t-23 -13.5q-19 -4 -36 10.5t-28.5 34.5t-32.5 38t-47 19q-29 -1 -41.5 -11.5t-12.5 -37.5v-183q0 -24 15.5 -34t59.5 -10h56q25 0 46 17t33.5 38t35.5 68q23 45 52 37z" />
    <glyph glyph-name="Eacute" unicode="&#xc9;" horiz-adv-x="639" 
d="M316 750q-59 0 -59 23q-1 15 24.5 44t47.5 47q56 49 86 50q22 0 40 -18t19 -41q1 -49 -49 -76t-109 -29zM578 242q18 -4 23 -16.5t4 -41.5q-3 -87 -16 -135q-7 -28 -25.5 -38.5t-61.5 -10.5h-422q-34 0 -48 8t-14 28q0 18 7.5 28.5t18 17.5t21 17.5t18 36t7.5 66.5v296
q0 41 -7.5 66.5t-18 36t-21 17.5t-18 17.5t-7.5 28.5q0 20 14 28t48 8h401q46 0 65.5 -7.5t28.5 -31.5q15 -39 27 -100q9 -53 -18 -63q-28 -10 -54 27q-35 48 -69.5 70.5t-78.5 22.5h-38q-37 0 -50.5 -10t-13.5 -34v-86q0 -27 13 -37.5t42 -11.5q33 1 60 18t43 17
q30 0 34 -27l30 -144q4 -24 -1 -33.5t-23 -13.5q-19 -4 -36 10.5t-28.5 34.5t-32.5 38t-47 19q-29 -1 -41.5 -11.5t-12.5 -37.5v-183q0 -24 15.5 -34t59.5 -10h56q25 0 46 17t33.5 38t35.5 68q23 45 52 37z" />
    <glyph glyph-name="Ecircumflex" unicode="&#xca;" horiz-adv-x="639" 
d="M174 749q-19 0 -21 17q-1 12 55 67q9 9 22 23t19 19t16 12t20 9t25 2q18 0 31 -4.5t18.5 -9t21.5 -21.5t25 -26l15.5 -15.5l13.5 -13.5t11 -11.5t9 -10t6 -7.5t4 -7t1 -6q-2 -17 -21 -17q-25 0 -64.5 15t-70.5 35q-31 -20 -71 -35t-65 -15zM578 242q18 -4 23 -16.5
t4 -41.5q-3 -87 -16 -135q-7 -28 -25.5 -38.5t-61.5 -10.5h-422q-34 0 -48 8t-14 28q0 18 7.5 28.5t18 17.5t21 17.5t18 36t7.5 66.5v296q0 41 -7.5 66.5t-18 36t-21 17.5t-18 17.5t-7.5 28.5q0 20 14 28t48 8h401q46 0 65.5 -7.5t28.5 -31.5q15 -39 27 -100q9 -53 -18 -63
q-28 -10 -54 27q-35 48 -69.5 70.5t-78.5 22.5h-38q-37 0 -50.5 -10t-13.5 -34v-86q0 -27 13 -37.5t42 -11.5q33 1 60 18t43 17q30 0 34 -27l30 -144q4 -24 -1 -33.5t-23 -13.5q-19 -4 -36 10.5t-28.5 34.5t-32.5 38t-47 19q-29 -1 -41.5 -11.5t-12.5 -37.5v-183
q0 -24 15.5 -34t59.5 -10h56q25 0 46 17t33.5 38t35.5 68q23 45 52 37z" />
    <glyph glyph-name="Edieresis" unicode="&#xcb;" horiz-adv-x="639" 
d="M246 756q-26 0 -43 16t-17 42q0 33 24 59.5t59 26.5q29 0 47 -17.5t18 -47.5q0 -34 -26 -56.5t-62 -22.5zM431 756q-28 0 -45.5 16t-17.5 42q0 33 24.5 59.5t58.5 26.5q30 0 48 -17.5t18 -47.5q0 -34 -25.5 -56.5t-60.5 -22.5zM578 242q18 -4 23 -16.5t4 -41.5
q-3 -87 -16 -135q-7 -28 -25.5 -38.5t-61.5 -10.5h-422q-34 0 -48 8t-14 28q0 18 7.5 28.5t18 17.5t21 17.5t18 36t7.5 66.5v296q0 41 -7.5 66.5t-18 36t-21 17.5t-18 17.5t-7.5 28.5q0 20 14 28t48 8h401q46 0 65.5 -7.5t28.5 -31.5q15 -39 27 -100q9 -53 -18 -63
q-28 -10 -54 27q-35 48 -69.5 70.5t-78.5 22.5h-38q-37 0 -50.5 -10t-13.5 -34v-86q0 -27 13 -37.5t42 -11.5q33 1 60 18t43 17q30 0 34 -27l30 -144q4 -24 -1 -33.5t-23 -13.5q-19 -4 -36 10.5t-28.5 34.5t-32.5 38t-47 19q-29 -1 -41.5 -11.5t-12.5 -37.5v-183
q0 -24 15.5 -34t59.5 -10h56q25 0 46 17t33.5 38t35.5 68q23 45 52 37z" />
    <glyph glyph-name="Igrave" unicode="&#xcc;" horiz-adv-x="369" 
d="M208 750q-59 2 -109 29t-49 76q1 23 19 41t40 18q30 -1 86 -50q22 -18 47.5 -47t24.5 -44q0 -23 -59 -23zM90 190v320q0 43 -11 68.5t-24 33.5t-24 20.5t-11 31.5q0 20 13.5 28t48.5 8h208q34 0 47.5 -8t13.5 -28q0 -19 -11 -31.5t-24.5 -20.5t-24.5 -33.5t-11 -68.5
v-320q0 -43 11 -68.5t23.5 -33.5t23.5 -20.5t11 -31.5q0 -20 -13 -28t-48 -8h-208q-34 0 -48 8t-14 28q0 19 11 31.5t25 20.5t25 33.5t11 68.5z" />
    <glyph glyph-name="Iacute" unicode="&#xcd;" horiz-adv-x="369" 
d="M195 750q-59 0 -59 23q-1 15 24.5 44t47.5 47q56 49 86 50q22 0 40 -18t19 -41q1 -49 -49 -76t-109 -29zM90 190v320q0 43 -11 68.5t-24 33.5t-24 20.5t-11 31.5q0 20 13.5 28t48.5 8h208q34 0 47.5 -8t13.5 -28q0 -19 -11 -31.5t-24.5 -20.5t-24.5 -33.5t-11 -68.5v-320
q0 -43 11 -68.5t23.5 -33.5t23.5 -20.5t11 -31.5q0 -20 -13 -28t-48 -8h-208q-34 0 -48 8t-14 28q0 19 11 31.5t25 20.5t25 33.5t11 68.5z" />
    <glyph glyph-name="Icircumflex" unicode="&#xce;" horiz-adv-x="369" 
d="M54 749q-19 0 -21 17q-1 12 55 67q9 9 22 23t19 19t16 12t20 9t25 2q18 0 31 -4.5t18.5 -9t21.5 -21.5t25 -26l15.5 -15.5l13.5 -13.5t11 -11.5t9 -10t6 -7.5t4 -7t1 -6q-2 -17 -21 -17q-25 0 -64.5 15t-70.5 35q-31 -20 -71 -35t-65 -15zM90 190v320q0 43 -11 68.5
t-24 33.5t-24 20.5t-11 31.5q0 20 13.5 28t48.5 8h208q34 0 47.5 -8t13.5 -28q0 -19 -11 -31.5t-24.5 -20.5t-24.5 -33.5t-11 -68.5v-320q0 -43 11 -68.5t23.5 -33.5t23.5 -20.5t11 -31.5q0 -20 -13 -28t-48 -8h-208q-34 0 -48 8t-14 28q0 19 11 31.5t25 20.5t25 33.5
t11 68.5z" />
    <glyph glyph-name="Idieresis" unicode="&#xcf;" horiz-adv-x="369" 
d="M125 756q-26 0 -43 16t-17 42q0 33 24 59.5t59 26.5q29 0 47 -17.5t18 -47.5q0 -34 -26 -56.5t-62 -22.5zM310 756q-28 0 -45.5 16t-17.5 42q0 33 24.5 59.5t58.5 26.5q30 0 48 -17.5t18 -47.5q0 -34 -25.5 -56.5t-60.5 -22.5zM90 190v320q0 43 -11 68.5t-24 33.5
t-24 20.5t-11 31.5q0 20 13.5 28t48.5 8h208q34 0 47.5 -8t13.5 -28q0 -19 -11 -31.5t-24.5 -20.5t-24.5 -33.5t-11 -68.5v-320q0 -43 11 -68.5t23.5 -33.5t23.5 -20.5t11 -31.5q0 -20 -13 -28t-48 -8h-208q-34 0 -48 8t-14 28q0 19 11 31.5t25 20.5t25 33.5t11 68.5z" />
    <glyph glyph-name="Eth" unicode="&#xd0;" horiz-adv-x="785" 
d="M80 700h272q97 0 173 -28t122 -75.5t69.5 -107t23.5 -126.5q0 -158 -103 -260.5t-264 -102.5h-293q-34 0 -48 8t-14 28q0 18 7.5 28.5t18 17.5t21 17.5t18 36t7.5 66.5v107h-28q-20 0 -25.5 11t-5.5 39q0 32 31 32h28v107q0 41 -7.5 66.5t-18 36t-21 17.5t-18 17.5
t-7.5 28.5q0 20 14 28t48 8zM361 75q85 0 134 56.5t49 165.5q0 139 -64 234.5t-152 95.5q-26 0 -37 -9t-11 -35v-192h48q31 0 31 -32q0 -29 -6 -39.5t-25 -10.5h-48v-172q0 -31 15 -46.5t66 -15.5z" />
    <glyph glyph-name="Ntilde" unicode="&#xd1;" horiz-adv-x="775" 
d="M261 759q0 -16 -15 -12q-20 5 -27 35l-2 18q0 31 21 55t65 24q29 0 95.5 -21t78.5 -21q37 0 37 30q0 16 15 13q19 -5 27 -33q2 -10 2 -20q0 -31 -21.5 -55.5t-65.5 -24.5q-25 0 -83 21t-91 21q-36 0 -36 -30zM598 699h109q30 0 40.5 -6.5t10.5 -24.5q0 -15 -27.5 -41
t-27.5 -57v-517q0 -29 -11 -41t-37 -12q-24 0 -36.5 11t-12.5 27q0 20 -8 33.5t-28 34.5l-386 371v-347q1 -31 28.5 -56.5t27.5 -42.5q0 -18 -10.5 -24t-36.5 -6h-110q-29 0 -39.5 7t-10.5 24q0 15 27.5 41t27.5 57v368q0 41 -7.5 66.5t-18 36t-21 17.5t-18 17.5t-7.5 28.5
q0 20 14 28t48 8h116q31 0 65 -32l347 -333v235q0 31 -27.5 56.5t-27.5 42.5q0 18 10.5 24t36.5 6z" />
    <glyph glyph-name="Ograve" unicode="&#xd2;" horiz-adv-x="796" 
d="M416 750q-59 2 -109 29t-49 76q1 23 19 41t40 18q30 -1 86 -50q22 -18 47.5 -47t24.5 -44q0 -23 -59 -23zM375 -10q-140 0 -237.5 94t-97.5 240q0 161 109 273.5t268 112.5q150 0 242 -98.5t92 -246.5q0 -160 -107.5 -267.5t-268.5 -107.5zM436 89q133 0 133 181
q0 81 -24.5 160.5t-73.5 135.5t-110 56q-68 0 -101.5 -52t-33.5 -137q0 -79 24 -156t73.5 -132.5t112.5 -55.5z" />
    <glyph glyph-name="Oacute" unicode="&#xd3;" horiz-adv-x="796" 
d="M403 750q-59 0 -59 23q-1 15 24.5 44t47.5 47q56 49 86 50q22 0 40 -18t19 -41q1 -49 -49 -76t-109 -29zM375 -10q-140 0 -237.5 94t-97.5 240q0 161 109 273.5t268 112.5q150 0 242 -98.5t92 -246.5q0 -160 -107.5 -267.5t-268.5 -107.5zM436 89q133 0 133 181
q0 81 -24.5 160.5t-73.5 135.5t-110 56q-68 0 -101.5 -52t-33.5 -137q0 -79 24 -156t73.5 -132.5t112.5 -55.5z" />
    <glyph glyph-name="Ocircumflex" unicode="&#xd4;" horiz-adv-x="796" 
d="M262 749q-19 0 -21 17q-1 12 55 67q9 9 22 23t19 19t16 12t20 9t25 2q18 0 31 -4.5t18.5 -9t21.5 -21.5t25 -26l15.5 -15.5l13.5 -13.5t11 -11.5t9 -10t6 -7.5t4 -7t1 -6q-2 -17 -21 -17q-25 0 -64.5 15t-70.5 35q-31 -20 -71 -35t-65 -15zM375 -10q-140 0 -237.5 94
t-97.5 240q0 161 109 273.5t268 112.5q150 0 242 -98.5t92 -246.5q0 -160 -107.5 -267.5t-268.5 -107.5zM436 89q133 0 133 181q0 81 -24.5 160.5t-73.5 135.5t-110 56q-68 0 -101.5 -52t-33.5 -137q0 -79 24 -156t73.5 -132.5t112.5 -55.5z" />
    <glyph glyph-name="Otilde" unicode="&#xd5;" horiz-adv-x="796" 
d="M482 747q-25 0 -83 21t-91 21q-36 0 -36 -30q0 -16 -15 -12q-20 5 -27 35l-2 18q0 31 21 55t65 24q29 0 95.5 -21t78.5 -21q37 0 37 30q0 16 15 13q19 -5 27 -33q2 -10 2 -20q0 -31 -21.5 -55.5t-65.5 -24.5zM375 -10q-140 0 -237.5 94t-97.5 240q0 161 109 273.5
t268 112.5q150 0 242 -98.5t92 -246.5q0 -160 -107.5 -267.5t-268.5 -107.5zM436 89q133 0 133 181q0 81 -24.5 160.5t-73.5 135.5t-110 56q-68 0 -101.5 -52t-33.5 -137q0 -79 24 -156t73.5 -132.5t112.5 -55.5z" />
    <glyph glyph-name="Odieresis" unicode="&#xd6;" horiz-adv-x="796" 
d="M333 756q-26 0 -43 16t-17 42q0 33 24 59.5t59 26.5q29 0 47 -17.5t18 -47.5q0 -34 -26 -56.5t-62 -22.5zM518 756q-28 0 -45.5 16t-17.5 42q0 33 24.5 59.5t58.5 26.5q30 0 48 -17.5t18 -47.5q0 -34 -25.5 -56.5t-60.5 -22.5zM375 -10q-140 0 -237.5 94t-97.5 240
q0 161 109 273.5t268 112.5q150 0 242 -98.5t92 -246.5q0 -160 -107.5 -267.5t-268.5 -107.5zM436 89q133 0 133 181q0 81 -24.5 160.5t-73.5 135.5t-110 56q-68 0 -101.5 -52t-33.5 -137q0 -79 24 -156t73.5 -132.5t112.5 -55.5z" />
    <glyph glyph-name="multiply" unicode="&#xd7;" horiz-adv-x="429" 
d="M382 474l-110 -110l110 -109q13 -13 13 -21t-13 -21l-17 -17q-13 -13 -21 -13t-21 13l-109 110l-110 -110q-13 -13 -21 -13t-21 13l-17 17q-13 13 -13 21t13 21l110 109l-110 110q-13 13 -13 21t13 21l17 16q13 13 21 13t21 -13l110 -109l109 109q13 13 21 13t21 -13
l17 -16q13 -13 13 -21t-13 -21z" />
    <glyph glyph-name="Oslash" unicode="&#xd8;" horiz-adv-x="796" 
d="M676 749l-58 -101q63 -47 98 -120.5t35 -162.5q0 -160 -107.5 -267.5t-268.5 -107.5q-64 0 -124 22l-55 -94q-5 -9 -10.5 -13.5t-13 -3.5t-13 3t-15.5 8q-32 19 -18 46l53 92q-65 45 -102 116t-37 158q0 161 109 273.5t268 112.5q70 0 130 -23l59 102q16 26 48 8
q20 -13 24.5 -21t-2.5 -27zM226 433q0 -117 49 -217l200 346q-50 60 -114 60q-68 0 -101.5 -52t-33.5 -137zM436 89q133 0 133 181q0 114 -46 214l-198 -342q50 -53 111 -53z" />
    <glyph glyph-name="Ugrave" unicode="&#xd9;" horiz-adv-x="749" 
d="M422 750q-59 2 -109 29t-49 76q1 23 19 41t40 18q30 -1 86 -50q22 -18 47.5 -47t24.5 -44q0 -23 -59 -23zM376 -10q-153 0 -223.5 81.5t-70.5 262.5v177q0 35 -7 58t-17.5 33t-21 17.5t-17.5 18t-7 26.5q0 20 13 28t49 8h208q35 0 48.5 -8t13.5 -28q0 -16 -7.5 -26.5
t-18 -18t-21 -17.5t-18 -33t-7.5 -58v-213q0 -99 38.5 -151.5t111.5 -52.5q72 0 111.5 55t39.5 161l2 260q0 31 -27.5 56.5t-27.5 42.5q0 18 10.5 24t36.5 6h109q30 0 40.5 -6.5t10.5 -24.5q0 -15 -27.5 -41t-28.5 -57v-228q-1 -194 -72 -273t-223 -79z" />
    <glyph glyph-name="Uacute" unicode="&#xda;" horiz-adv-x="749" 
d="M409 750q-59 0 -59 23q-1 15 24.5 44t47.5 47q56 49 86 50q22 0 40 -18t19 -41q1 -49 -49 -76t-109 -29zM376 -10q-153 0 -223.5 81.5t-70.5 262.5v177q0 35 -7 58t-17.5 33t-21 17.5t-17.5 18t-7 26.5q0 20 13 28t49 8h208q35 0 48.5 -8t13.5 -28q0 -16 -7.5 -26.5
t-18 -18t-21 -17.5t-18 -33t-7.5 -58v-213q0 -99 38.5 -151.5t111.5 -52.5q72 0 111.5 55t39.5 161l2 260q0 31 -27.5 56.5t-27.5 42.5q0 18 10.5 24t36.5 6h109q30 0 40.5 -6.5t10.5 -24.5q0 -15 -27.5 -41t-28.5 -57v-228q-1 -194 -72 -273t-223 -79z" />
    <glyph glyph-name="Ucircumflex" unicode="&#xdb;" horiz-adv-x="749" 
d="M268 749q-19 0 -21 17q-1 12 55 67q9 9 22 23t19 19t16 12t20 9t25 2q18 0 31 -4.5t18.5 -9t21.5 -21.5t25 -26l15.5 -15.5l13.5 -13.5t11 -11.5t9 -10t6 -7.5t4 -7t1 -6q-2 -17 -21 -17q-25 0 -64.5 15t-70.5 35q-31 -20 -71 -35t-65 -15zM376 -10q-153 0 -223.5 81.5
t-70.5 262.5v177q0 35 -7 58t-17.5 33t-21 17.5t-17.5 18t-7 26.5q0 20 13 28t49 8h208q35 0 48.5 -8t13.5 -28q0 -16 -7.5 -26.5t-18 -18t-21 -17.5t-18 -33t-7.5 -58v-213q0 -99 38.5 -151.5t111.5 -52.5q72 0 111.5 55t39.5 161l2 260q0 31 -27.5 56.5t-27.5 42.5
q0 18 10.5 24t36.5 6h109q30 0 40.5 -6.5t10.5 -24.5q0 -15 -27.5 -41t-28.5 -57v-228q-1 -194 -72 -273t-223 -79z" />
    <glyph glyph-name="Udieresis" unicode="&#xdc;" horiz-adv-x="749" 
d="M339 756q-26 0 -43 16t-17 42q0 33 24 59.5t59 26.5q29 0 47 -17.5t18 -47.5q0 -34 -26 -56.5t-62 -22.5zM524 756q-28 0 -45.5 16t-17.5 42q0 33 24.5 59.5t58.5 26.5q30 0 48 -17.5t18 -47.5q0 -34 -25.5 -56.5t-60.5 -22.5zM376 -10q-153 0 -223.5 81.5t-70.5 262.5
v177q0 35 -7 58t-17.5 33t-21 17.5t-17.5 18t-7 26.5q0 20 13 28t49 8h208q35 0 48.5 -8t13.5 -28q0 -16 -7.5 -26.5t-18 -18t-21 -17.5t-18 -33t-7.5 -58v-213q0 -99 38.5 -151.5t111.5 -52.5q72 0 111.5 55t39.5 161l2 260q0 31 -27.5 56.5t-27.5 42.5q0 18 10.5 24
t36.5 6h109q30 0 40.5 -6.5t10.5 -24.5q0 -15 -27.5 -41t-28.5 -57v-228q-1 -194 -72 -273t-223 -79z" />
    <glyph glyph-name="Yacute" unicode="&#xdd;" horiz-adv-x="738" 
d="M435 750q-59 0 -59 23q-1 15 24.5 44t47.5 47q56 49 86 50q22 0 40 -18t19 -41q1 -49 -49 -76t-109 -29zM551 699h115q32 0 47.5 -7t15.5 -26q0 -14 -11.5 -24t-27 -17t-36 -24t-35.5 -40l-152 -246l-3 1v-126q0 -43 11 -68.5t24 -33.5t24 -20.5t11 -31.5
q0 -20 -13.5 -28t-48.5 -8h-208q-34 0 -47.5 8t-13.5 28q0 19 11 31.5t24.5 20.5t24.5 33.5t11 68.5v120l-172 258q-20 30 -44.5 47t-36.5 26t-12 28q0 31 50 31h233q26 0 38.5 -7.5t12.5 -26.5q0 -15 -12.5 -28t-15 -22.5t17.5 -48.5l97 -155l83 147q16 28 16.5 45
t-7.5 23.5t-17 17t-9 23.5q0 31 55 31z" />
    <glyph glyph-name="Thorn" unicode="&#xde;" horiz-adv-x="646" 
d="M341 170h-41q-14 0 -18 -10q3 -30 14.5 -49t23 -25.5t20.5 -18.5t9 -30q0 -20 -13 -28t-48 -8h-208q-34 0 -48 8t-14 28q0 19 11 31.5t25 20.5t25 33.5t11 68.5v392q0 27 -25.5 50.5t-25.5 39.5q0 27 51 27h193q47 0 47 -26q0 -19 -25 -40t-25 -40h49q156 0 231 -61
t75 -160q0 -110 -75 -156.5t-219 -46.5zM280 492v-217q0 -14 6.5 -20t15 -7t29.5 -1q47 0 76 32t29 87q0 63 -36.5 108t-104.5 45q-15 0 -15 -27z" />
    <glyph glyph-name="germandbls" unicode="&#xdf;" horiz-adv-x="684" 
d="M470 -11q-38 0 -77.5 12.5t-63.5 32.5q-31 26 -31 88q0 50 25 50q4 0 8 -1.5t7.5 -5l6 -6t7 -7.5t6.5 -7q71 -80 138 -80q31 0 31 33q0 34 -102 98q-38 24 -50.5 33t-33.5 28.5t-28 40t-7 48.5q0 29 19.5 117.5t19.5 112.5q0 58 -41 58q-17 0 -27.5 -9t-14.5 -32.5
t-5 -41.5t-1 -57v-14l-1 -361q0 -28 14 -52.5t14 -39.5q0 -27 -37 -27h-173q-48 0 -48 26q0 18 25.5 42t25.5 52l1 357q0 101 66.5 167.5t179.5 66.5q69 0 113 -31t44 -86q0 -36 -21 -67t-42 -52t-21 -32q0 -17 22 -33t114 -70q140 -80 140 -183q0 -74 -54.5 -121
t-147.5 -47z" />
    <glyph glyph-name="agrave" unicode="&#xe0;" horiz-adv-x="601" 
d="M396 562q-44 -17 -111 4.5t-83 66.5q-11 28 0 50.5t38 32.5q34 12 95 -38q63 -56 77 -90q6 -18 -16 -26zM585 92q8 1 13 -5.5t5 -15.5q0 -31 -40.5 -55t-81.5 -24q-73 0 -100 71q-71 -71 -181 -71q-75 0 -125 40t-50 102q0 74 63 120.5t180 46.5q6 0 22 -1t30 -1
q-30 88 -105 88q-46 0 -107 -36q-15 -11 -28 1t-1 33q22 40 79.5 72.5t128.5 32.5q42 0 75 -13t52 -28.5t36 -45.5t23.5 -47.5t17.5 -51.5l51 -158q6 -20 10 -29t12.5 -17.5t20.5 -7.5zM283 81q34 0 57.5 18.5t17.5 45.5q-3 13 -21 61q-11 33 -54 33q-41 0 -66 -20t-26 -52
q0 -37 26 -61.5t66 -24.5z" />
    <glyph glyph-name="aacute" unicode="&#xe1;" horiz-adv-x="601" 
d="M233 562q-22 8 -16 26q6 15 29 41.5t49 48.5q60 50 95 38q26 -10 37 -32.5t0 -50.5q-16 -45 -83 -66.5t-111 -4.5zM585 92q8 1 13 -5.5t5 -15.5q0 -31 -40.5 -55t-81.5 -24q-73 0 -100 71q-71 -71 -181 -71q-75 0 -125 40t-50 102q0 74 63 120.5t180 46.5q6 0 22 -1
t30 -1q-30 88 -105 88q-46 0 -107 -36q-15 -11 -28 1t-1 33q22 40 79.5 72.5t128.5 32.5q42 0 75 -13t52 -28.5t36 -45.5t23.5 -47.5t17.5 -51.5l51 -158q6 -20 10 -29t12.5 -17.5t20.5 -7.5zM283 81q34 0 57.5 18.5t17.5 45.5q-3 13 -21 61q-11 33 -54 33q-41 0 -66 -20
t-26 -52q0 -37 26 -61.5t66 -24.5z" />
    <glyph glyph-name="acircumflex" unicode="&#xe2;" horiz-adv-x="601" 
d="M193 534q-20 0 -20 18q0 25 50 88q21 28 30 38.5t25.5 19.5t37.5 9q12 0 20.5 -0.5t16.5 -4t11.5 -4.5t11 -9t9.5 -10.5t12 -16t14 -18.5q53 -66 53 -92q0 -18 -20 -18q-41 1 -126 82q-83 -81 -125 -82zM585 92q8 1 13 -5.5t5 -15.5q0 -31 -40.5 -55t-81.5 -24
q-73 0 -100 71q-71 -71 -181 -71q-75 0 -125 40t-50 102q0 74 63 120.5t180 46.5q6 0 22 -1t30 -1q-30 88 -105 88q-46 0 -107 -36q-15 -11 -28 1t-1 33q22 40 79.5 72.5t128.5 32.5q42 0 75 -13t52 -28.5t36 -45.5t23.5 -47.5t17.5 -51.5l51 -158q6 -20 10 -29t12.5 -17.5
t20.5 -7.5zM283 81q34 0 57.5 18.5t17.5 45.5q-3 13 -21 61q-11 33 -54 33q-41 0 -66 -20t-26 -52q0 -37 26 -61.5t66 -24.5z" />
    <glyph glyph-name="atilde" unicode="&#xe3;" horiz-adv-x="601" 
d="M176 539q0 -16 -15 -12q-20 5 -27 35l-2 18q0 31 21 55t65 24q29 0 95.5 -21t78.5 -21q37 0 37 30q0 16 15 13q19 -5 27 -33q2 -10 2 -20q0 -31 -21.5 -55.5t-65.5 -24.5q-25 0 -83 21t-91 21q-36 0 -36 -30zM585 92q8 1 13 -5.5t5 -15.5q0 -31 -40.5 -55t-81.5 -24
q-73 0 -100 71q-71 -71 -181 -71q-75 0 -125 40t-50 102q0 74 63 120.5t180 46.5q6 0 22 -1t30 -1q-30 88 -105 88q-46 0 -107 -36q-15 -11 -28 1t-1 33q22 40 79.5 72.5t128.5 32.5q42 0 75 -13t52 -28.5t36 -45.5t23.5 -47.5t17.5 -51.5l51 -158q6 -20 10 -29t12.5 -17.5
t20.5 -7.5zM283 81q34 0 57.5 18.5t17.5 45.5q-3 13 -21 61q-11 33 -54 33q-41 0 -66 -20t-26 -52q0 -37 26 -61.5t66 -24.5z" />
    <glyph glyph-name="adieresis" unicode="&#xe4;" horiz-adv-x="601" 
d="M215 539q-25 0 -42.5 16.5t-17.5 42.5q0 33 24 59.5t59 26.5q30 0 47.5 -17.5t17.5 -47.5q0 -34 -26 -57t-62 -23zM400 539q-27 0 -44.5 16t-17.5 43q0 33 24.5 59.5t58.5 26.5q29 0 47 -17.5t18 -47.5q0 -34 -25.5 -57t-60.5 -23zM585 92q8 1 13 -5.5t5 -15.5
q0 -31 -40.5 -55t-81.5 -24q-73 0 -100 71q-71 -71 -181 -71q-75 0 -125 40t-50 102q0 74 63 120.5t180 46.5q6 0 22 -1t30 -1q-30 88 -105 88q-46 0 -107 -36q-15 -11 -28 1t-1 33q22 40 79.5 72.5t128.5 32.5q42 0 75 -13t52 -28.5t36 -45.5t23.5 -47.5t17.5 -51.5
l51 -158q6 -20 10 -29t12.5 -17.5t20.5 -7.5zM283 81q34 0 57.5 18.5t17.5 45.5q-3 13 -21 61q-11 33 -54 33q-41 0 -66 -20t-26 -52q0 -37 26 -61.5t66 -24.5z" />
    <glyph glyph-name="aring" unicode="&#xe5;" horiz-adv-x="601" 
d="M302 513q-49 0 -82 30.5t-33 78.5q0 49 34.5 80.5t84.5 31.5q49 0 82 -30t33 -79q0 -50 -34.5 -81t-84.5 -31zM302 669q-19 0 -30.5 -12.5t-9.5 -32.5q2 -19 14.5 -31t29.5 -12q19 0 30 13.5t9 32.5q-2 18 -14 30t-29 12zM585 92q8 1 13 -5.5t5 -15.5q0 -31 -40.5 -55
t-81.5 -24q-73 0 -100 71q-71 -71 -181 -71q-75 0 -125 40t-50 102q0 74 63 120.5t180 46.5q6 0 22 -1t30 -1q-30 88 -105 88q-46 0 -107 -36q-15 -11 -28 1t-1 33q22 40 79.5 72.5t128.5 32.5q42 0 75 -13t52 -28.5t36 -45.5t23.5 -47.5t17.5 -51.5l51 -158q6 -20 10 -29
t12.5 -17.5t20.5 -7.5zM283 81q34 0 57.5 18.5t17.5 45.5q-3 13 -21 61q-11 33 -54 33q-41 0 -66 -20t-26 -52q0 -37 26 -61.5t66 -24.5z" />
    <glyph glyph-name="ae" unicode="&#xe6;" horiz-adv-x="850" 
d="M792 177q18 16 30.5 4t4.5 -37q-17 -55 -84.5 -104.5t-163.5 -49.5q-70 0 -124.5 28.5t-84.5 79.5q-58 -106 -183 -106q-62 0 -112 37.5t-50 108.5q0 72 64 117t170 45q39 0 64 -4q-20 83 -115 83q-47 0 -95 -28q-15 -11 -28 1t-1 33q21 39 80.5 72t122.5 33
q100 0 156 -53q72 53 157 53q92 0 145 -48t61 -118q3 -24 -22 -38q-120 -61 -245 -112q38 -59 119 -59q64 0 134 62zM544 405q-44 -20 -44 -95q0 -37 11 -66q58 20 105 46q1 1 5 2.5t5.5 2.5t5 2.5t4.5 3t3.5 4t3.5 4.5t2 5t1 6.5t-0.5 8t-2.5 9.5q-15 41 -42 60t-57 7z
M252 80q26 0 51 17.5t25 43.5q0 34 -1 62q-1 21 -16 29t-50 8q-36 0 -63 -22.5t-27 -59.5t22.5 -57.5t58.5 -20.5z" />
    <glyph glyph-name="ccedilla" unicode="&#xe7;" horiz-adv-x="546" 
d="M479 166q19 15 31 4t4 -37q-16 -52 -72.5 -95.5t-144.5 -47.5l-22 -38q94 -17 94 -82q0 -38 -29.5 -63t-73.5 -25q-61 0 -91 37q-10 14 0 24.5t29 -0.5q19 -12 35 -12q18 0 28.5 10t10.5 24q0 16 -12.5 26.5t-22 13.5t-29.5 8q-21 4 -12 20l32 60q-96 14 -149 80t-53 152
q0 115 78.5 190t189.5 75q92 0 151 -49t59 -120q0 -41 -24 -63t-58 -22q-62 0 -83 77q-28 96 -81 96q-29 0 -45 -26t-16 -71q0 -87 43 -141.5t115 -54.5q26 0 49 8.5t34 16t35 25.5z" />
    <glyph glyph-name="egrave" unicode="&#xe8;" horiz-adv-x="544" 
d="M366 562q-44 -17 -111 4.5t-83 66.5q-11 28 0 50.5t38 32.5q34 12 95 -38q63 -56 77 -90q6 -18 -16 -26zM487 177q18 16 30.5 4t4.5 -37q-17 -55 -85 -104.5t-163 -49.5q-109 0 -175.5 65t-66.5 171q0 114 80 189t183 75q92 0 145 -48t60 -118q3 -24 -21 -38
q-120 -61 -245 -112q36 -59 119 -59q64 0 134 62zM239 405q-44 -19 -44 -95q0 -41 11 -66q54 19 105 46q1 1 5 2.5t5.5 2.5t5 2.5t4.5 3t3.5 4t3.5 4.5t2 5t1 6.5t-0.5 8t-2.5 9.5q-15 41 -42 60t-57 7z" />
    <glyph glyph-name="eacute" unicode="&#xe9;" horiz-adv-x="544" 
d="M203 562q-22 8 -16 26q6 15 29 41.5t49 48.5q60 50 95 38q26 -10 37 -32.5t0 -50.5q-16 -45 -83 -66.5t-111 -4.5zM487 177q18 16 30.5 4t4.5 -37q-17 -55 -85 -104.5t-163 -49.5q-109 0 -175.5 65t-66.5 171q0 114 80 189t183 75q92 0 145 -48t60 -118q3 -24 -21 -38
q-120 -61 -245 -112q36 -59 119 -59q64 0 134 62zM239 405q-44 -19 -44 -95q0 -41 11 -66q54 19 105 46q1 1 5 2.5t5.5 2.5t5 2.5t4.5 3t3.5 4t3.5 4.5t2 5t1 6.5t-0.5 8t-2.5 9.5q-15 41 -42 60t-57 7z" />
    <glyph glyph-name="ecircumflex" unicode="&#xea;" horiz-adv-x="544" 
d="M163 534q-20 0 -20 18q0 25 50 88q21 28 30 38.5t25.5 19.5t37.5 9q12 0 20.5 -0.5t16.5 -4t11.5 -4.5t11 -9t9.5 -10.5t12 -16t14 -18.5q53 -66 53 -92q0 -18 -20 -18q-41 1 -126 82q-83 -81 -125 -82zM487 177q18 16 30.5 4t4.5 -37q-17 -55 -85 -104.5t-163 -49.5
q-109 0 -175.5 65t-66.5 171q0 114 80 189t183 75q92 0 145 -48t60 -118q3 -24 -21 -38q-120 -61 -245 -112q36 -59 119 -59q64 0 134 62zM239 405q-44 -19 -44 -95q0 -41 11 -66q54 19 105 46q1 1 5 2.5t5.5 2.5t5 2.5t4.5 3t3.5 4t3.5 4.5t2 5t1 6.5t-0.5 8t-2.5 9.5
q-15 41 -42 60t-57 7z" />
    <glyph glyph-name="edieresis" unicode="&#xeb;" horiz-adv-x="544" 
d="M185 539q-25 0 -42.5 16.5t-17.5 42.5q0 33 24 59.5t59 26.5q30 0 47.5 -17.5t17.5 -47.5q0 -34 -26 -57t-62 -23zM370 539q-27 0 -44.5 16t-17.5 43q0 33 24.5 59.5t58.5 26.5q29 0 47 -17.5t18 -47.5q0 -34 -25.5 -57t-60.5 -23zM487 177q18 16 30.5 4t4.5 -37
q-17 -55 -85 -104.5t-163 -49.5q-109 0 -175.5 65t-66.5 171q0 114 80 189t183 75q92 0 145 -48t60 -118q3 -24 -21 -38q-120 -61 -245 -112q36 -59 119 -59q64 0 134 62zM239 405q-44 -19 -44 -95q0 -41 11 -66q54 19 105 46q1 1 5 2.5t5.5 2.5t5 2.5t4.5 3t3.5 4t3.5 4.5
t2 5t1 6.5t-0.5 8t-2.5 9.5q-15 41 -42 60t-57 7z" />
    <glyph glyph-name="igrave" unicode="&#xec;" horiz-adv-x="316" 
d="M235 562q-44 -17 -111 4.5t-83 66.5q-11 28 0 50.5t38 32.5q34 12 95 -38q63 -56 77 -90q6 -18 -16 -26zM70 146l-1 168q0 17 -7 30t-15.5 19.5t-15.5 15.5t-7 19q0 21 33 36q30 14 91.5 34.5t74.5 20.5q27 0 27 -38l-1 -137v-168q0 -31 8 -49t17.5 -23t17.5 -15.5
t8 -28.5q0 -30 -48 -30h-180q-52 0 -52 32q0 17 8 27t17 15t17 23t8 49z" />
    <glyph glyph-name="iacute" unicode="&#xed;" horiz-adv-x="316" 
d="M72 562q-22 8 -16 26q6 15 29 41.5t49 48.5q60 50 95 38q26 -10 37 -32.5t0 -50.5q-16 -45 -83 -66.5t-111 -4.5zM70 146l-1 168q0 17 -7 30t-15.5 19.5t-15.5 15.5t-7 19q0 21 33 36q30 14 91.5 34.5t74.5 20.5q27 0 27 -38l-1 -137v-168q0 -31 8 -49t17.5 -23
t17.5 -15.5t8 -28.5q0 -30 -48 -30h-180q-52 0 -52 32q0 17 8 27t17 15t17 23t8 49z" />
    <glyph glyph-name="icircumflex" unicode="&#xee;" horiz-adv-x="316" 
d="M32 534q-20 0 -20 18q0 25 50 88q21 28 30 38.5t25.5 19.5t37.5 9q12 0 20.5 -0.5t16.5 -4t11.5 -4.5t11 -9t9.5 -10.5t12 -16t14 -18.5q53 -66 53 -92q0 -18 -20 -18q-41 1 -126 82q-83 -81 -125 -82zM70 146l-1 168q0 17 -7 30t-15.5 19.5t-15.5 15.5t-7 19q0 21 33 36
q30 14 91.5 34.5t74.5 20.5q27 0 27 -38l-1 -137v-168q0 -31 8 -49t17.5 -23t17.5 -15.5t8 -28.5q0 -30 -48 -30h-180q-52 0 -52 32q0 17 8 27t17 15t17 23t8 49z" />
    <glyph glyph-name="idieresis" unicode="&#xef;" horiz-adv-x="316" 
d="M54 539q-25 0 -42.5 16.5t-17.5 42.5q0 33 24 59.5t59 26.5q30 0 47.5 -17.5t17.5 -47.5q0 -34 -26 -57t-62 -23zM239 539q-27 0 -44.5 16t-17.5 43q0 33 24.5 59.5t58.5 26.5q29 0 47 -17.5t18 -47.5q0 -34 -25.5 -57t-60.5 -23zM70 146l-1 168q0 17 -7 30t-15.5 19.5
t-15.5 15.5t-7 19q0 21 33 36q30 14 91.5 34.5t74.5 20.5q27 0 27 -38l-1 -137v-168q0 -31 8 -49t17.5 -23t17.5 -15.5t8 -28.5q0 -30 -48 -30h-180q-52 0 -52 32q0 17 8 27t17 15t17 23t8 49z" />
    <glyph glyph-name="eth" unicode="&#xf0;" horiz-adv-x="579" 
d="M547 294q7 -138 -71.5 -221.5t-198.5 -83.5q-110 0 -177.5 66t-67.5 185q0 96 54.5 162t149.5 69q38 3 67 -6q-32 55 -74 97l-78 -45q-28 -17 -37 20q-9 34 19 50l38 22q-27 18 -66 40q-25 13 -25 24q0 12 11.5 20.5t30.5 9.5q67 4 151 -35l84 49q27 16 35 -18
q10 -37 -18 -53l-31 -18q86 -59 143 -146t61 -188zM320 73q58 0 58 95q0 90 -30.5 165.5t-80.5 75.5q-62 0 -62 -108q0 -85 33 -156.5t82 -71.5z" />
    <glyph glyph-name="ntilde" unicode="&#xf1;" horiz-adv-x="658" 
d="M185 539q0 -16 -15 -12q-20 5 -27 35l-2 18q0 31 21 55t65 24q29 0 95.5 -21t78.5 -21q37 0 37 30q0 16 15 13q19 -5 27 -33q2 -10 2 -20q0 -31 -21.5 -55.5t-65.5 -24.5q-25 0 -83 21t-91 21q-36 0 -36 -30zM569 288l38 -166q5 -20 14 -33.5t17 -19t14.5 -15.5t6.5 -24
q0 -18 -11.5 -24t-36.5 -6h-173q-52 0 -52 32q0 15 13 27.5t22.5 29.5t3.5 46l-34 150q-20 92 -74 93q-30 0 -48.5 -25.5t-18.5 -65.5v-141q0 -31 8 -49t17 -23t17 -15.5t8 -28.5t-11.5 -24t-36.5 -6h-180q-52 0 -52 32q0 17 8 27t17.5 15t17.5 23t8 49v179q0 7 -1.5 12.5
t-6 10.5t-7 8t-9 8.5t-8.5 7.5q-1 1 -5.5 6t-6.5 7.5t-4.5 8.5t-2.5 12q0 14 8 22t27 17q29 14 81.5 30t66.5 16q27 -1 27 -38v-36q53 73 152 73q46 0 79.5 -15t54 -46t31.5 -62t22 -79z" />
    <glyph glyph-name="ograve" unicode="&#xf2;" horiz-adv-x="586" 
d="M387 562q-44 -17 -111 4.5t-83 66.5q-11 28 0 50.5t38 32.5q34 12 95 -38q63 -56 77 -90q6 -18 -16 -26zM267 -10q-101 0 -168 63.5t-67 167.5q0 113 82.5 191t203.5 78q106 0 171 -66t65 -166q0 -115 -82 -191.5t-205 -76.5zM321 73q58 0 58 96q0 55 -13.5 109.5
t-40.5 92.5t-61 38q-20 0 -32.5 -9.5t-18 -27.5t-7 -33.5t-1.5 -37.5q0 -84 33.5 -156t82.5 -72z" />
    <glyph glyph-name="oacute" unicode="&#xf3;" horiz-adv-x="586" 
d="M224 562q-22 8 -16 26q6 15 29 41.5t49 48.5q60 50 95 38q26 -10 37 -32.5t0 -50.5q-16 -45 -83 -66.5t-111 -4.5zM267 -10q-101 0 -168 63.5t-67 167.5q0 113 82.5 191t203.5 78q106 0 171 -66t65 -166q0 -115 -82 -191.5t-205 -76.5zM321 73q58 0 58 96
q0 55 -13.5 109.5t-40.5 92.5t-61 38q-20 0 -32.5 -9.5t-18 -27.5t-7 -33.5t-1.5 -37.5q0 -84 33.5 -156t82.5 -72z" />
    <glyph glyph-name="ocircumflex" unicode="&#xf4;" horiz-adv-x="586" 
d="M184 534q-20 0 -20 18q0 25 50 88q21 28 30 38.5t25.5 19.5t37.5 9q12 0 20.5 -0.5t16.5 -4t11.5 -4.5t11 -9t9.5 -10.5t12 -16t14 -18.5q53 -66 53 -92q0 -18 -20 -18q-41 1 -126 82q-83 -81 -125 -82zM267 -10q-101 0 -168 63.5t-67 167.5q0 113 82.5 191t203.5 78
q106 0 171 -66t65 -166q0 -115 -82 -191.5t-205 -76.5zM321 73q58 0 58 96q0 55 -13.5 109.5t-40.5 92.5t-61 38q-20 0 -32.5 -9.5t-18 -27.5t-7 -33.5t-1.5 -37.5q0 -84 33.5 -156t82.5 -72z" />
    <glyph glyph-name="otilde" unicode="&#xf5;" horiz-adv-x="586" 
d="M377 527q-25 0 -83 21t-91 21q-36 0 -36 -30q0 -16 -15 -12q-20 5 -27 35q-2 8 -2 18q0 31 21 55t65 24q29 0 95.5 -21t78.5 -21q37 0 37 30q0 16 15 13q19 -5 27 -33q2 -10 2 -20q0 -31 -21.5 -55.5t-65.5 -24.5zM267 -10q-101 0 -168 63.5t-67 167.5q0 113 82.5 191
t203.5 78q106 0 171 -66t65 -166q0 -115 -82 -191.5t-205 -76.5zM321 73q58 0 58 96q0 55 -13.5 109.5t-40.5 92.5t-61 38q-20 0 -32.5 -9.5t-18 -27.5t-7 -33.5t-1.5 -37.5q0 -84 33.5 -156t82.5 -72z" />
    <glyph glyph-name="odieresis" unicode="&#xf6;" horiz-adv-x="586" 
d="M206 539q-25 0 -42.5 16.5t-17.5 42.5q0 33 24 59.5t59 26.5q30 0 47.5 -17.5t17.5 -47.5q0 -34 -26 -57t-62 -23zM391 539q-27 0 -44.5 16t-17.5 43q0 33 24.5 59.5t58.5 26.5q29 0 47 -17.5t18 -47.5q0 -34 -25.5 -57t-60.5 -23zM267 -10q-101 0 -168 63.5t-67 167.5
q0 113 82.5 191t203.5 78q106 0 171 -66t65 -166q0 -115 -82 -191.5t-205 -76.5zM321 73q58 0 58 96q0 55 -13.5 109.5t-40.5 92.5t-61 38q-20 0 -32.5 -9.5t-18 -27.5t-7 -33.5t-1.5 -37.5q0 -84 33.5 -156t82.5 -72z" />
    <glyph glyph-name="divide" unicode="&#xf7;" horiz-adv-x="427" 
d="M206 455q-31 0 -52.5 19.5t-21.5 53.5q0 38 25 61t59 23q31 0 53 -20t22 -55q0 -37 -25 -59.5t-60 -22.5zM369 323h-330q-18 0 -22.5 6t-2.5 24l3 23q1 18 9 24t26 6h329q18 0 22.5 -6t2.5 -24l-2 -23q-1 -18 -9 -24t-26 -6zM206 124q-31 0 -52.5 19.5t-21.5 53.5
q0 37 25.5 60.5t58.5 23.5q30 0 52.5 -20.5t22.5 -54.5q0 -37 -25 -59.5t-60 -22.5z" />
    <glyph glyph-name="oslash" unicode="&#xf8;" horiz-adv-x="586" 
d="M518 552l-59 -103q45 -31 70 -81t25 -110q0 -115 -82 -191.5t-205 -76.5q-36 0 -69 9l-55 -96q-12 -23 -40 -23q-15 0 -25 7.5t-10 19.5q0 4 7 18l58 101q-101 65 -101 195q0 113 82.5 191t203.5 78q39 0 77 -11l54 94q12 22 40 22q14 0 24 -7t10 -19q0 -7 -5 -17z
M205 301q0 -59 19 -118l105 183q-28 43 -65 43q-20 0 -32.5 -9.5t-18 -27.5t-7 -33.5t-1.5 -37.5zM321 73q58 0 58 96q0 61 -15 116l-103 -177q27 -35 60 -35z" />
    <glyph glyph-name="ugrave" unicode="&#xf9;" horiz-adv-x="611" 
d="M452 562q-44 -17 -111 4.5t-83 66.5q-11 28 0 50.5t38 32.5q34 12 95 -38q63 -56 77 -90q6 -18 -16 -26zM558 452l-1 -137l-1 -147q0 -24 9 -40t19.5 -21.5t19.5 -12.5t9 -17q0 -24 -39 -44q-28 -14 -72.5 -28t-67.5 -14q-25 0 -36.5 14.5t-13.5 51.5l-1 12
q-26 -36 -67 -57t-81 -21q-85 0 -126.5 55.5t-41.5 148.5l-1 120q0 22 -11.5 36.5t-23 25t-11.5 22.5t7.5 19.5t26.5 16.5q29 14 91 34.5t75 20.5q27 0 27 -38l-1 -137v-116q0 -49 11.5 -72.5t42.5 -23.5q31 -1 53 30t25 81l-1 101q0 22 -11.5 36.5t-23 25t-11.5 22.5
t7.5 19.5t26.5 16.5q29 14 90.5 34.5t75.5 20.5q27 0 27 -38z" />
    <glyph glyph-name="uacute" unicode="&#xfa;" horiz-adv-x="611" 
d="M289 562q-22 8 -16 26q6 15 29 41.5t49 48.5q60 50 95 38q26 -10 37 -32.5t0 -50.5q-16 -45 -83 -66.5t-111 -4.5zM558 452l-1 -137l-1 -147q0 -24 9 -40t19.5 -21.5t19.5 -12.5t9 -17q0 -24 -39 -44q-28 -14 -72.5 -28t-67.5 -14q-25 0 -36.5 14.5t-13.5 51.5l-1 12
q-26 -36 -67 -57t-81 -21q-85 0 -126.5 55.5t-41.5 148.5l-1 120q0 22 -11.5 36.5t-23 25t-11.5 22.5t7.5 19.5t26.5 16.5q29 14 91 34.5t75 20.5q27 0 27 -38l-1 -137v-116q0 -49 11.5 -72.5t42.5 -23.5q31 -1 53 30t25 81l-1 101q0 22 -11.5 36.5t-23 25t-11.5 22.5
t7.5 19.5t26.5 16.5q29 14 90.5 34.5t75.5 20.5q27 0 27 -38z" />
    <glyph glyph-name="ucircumflex" unicode="&#xfb;" horiz-adv-x="611" 
d="M249 534q-20 0 -20 18q0 25 50 88q21 28 30 38.5t25.5 19.5t37.5 9q12 0 20.5 -0.5t16.5 -4t11.5 -4.5t11 -9t9.5 -10.5t12 -16t14 -18.5q53 -66 53 -92q0 -18 -20 -18q-41 1 -126 82q-83 -81 -125 -82zM558 452l-1 -137l-1 -147q0 -24 9 -40t19.5 -21.5t19.5 -12.5
t9 -17q0 -24 -39 -44q-28 -14 -72.5 -28t-67.5 -14q-25 0 -36.5 14.5t-13.5 51.5l-1 12q-26 -36 -67 -57t-81 -21q-85 0 -126.5 55.5t-41.5 148.5l-1 120q0 22 -11.5 36.5t-23 25t-11.5 22.5t7.5 19.5t26.5 16.5q29 14 91 34.5t75 20.5q27 0 27 -38l-1 -137v-116
q0 -49 11.5 -72.5t42.5 -23.5q31 -1 53 30t25 81l-1 101q0 22 -11.5 36.5t-23 25t-11.5 22.5t7.5 19.5t26.5 16.5q29 14 90.5 34.5t75.5 20.5q27 0 27 -38z" />
    <glyph glyph-name="udieresis" unicode="&#xfc;" horiz-adv-x="611" 
d="M271 539q-25 0 -42.5 16.5t-17.5 42.5q0 33 24 59.5t59 26.5q30 0 47.5 -17.5t17.5 -47.5q0 -34 -26 -57t-62 -23zM456 539q-27 0 -44.5 16t-17.5 43q0 33 24.5 59.5t58.5 26.5q29 0 47 -17.5t18 -47.5q0 -34 -25.5 -57t-60.5 -23zM558 452l-1 -137l-1 -147q0 -24 9 -40
t19.5 -21.5t19.5 -12.5t9 -17q0 -24 -39 -44q-28 -14 -72.5 -28t-67.5 -14q-25 0 -36.5 14.5t-13.5 51.5l-1 12q-26 -36 -67 -57t-81 -21q-85 0 -126.5 55.5t-41.5 148.5l-1 120q0 22 -11.5 36.5t-23 25t-11.5 22.5t7.5 19.5t26.5 16.5q29 14 91 34.5t75 20.5q27 0 27 -38
l-1 -137v-116q0 -49 11.5 -72.5t42.5 -23.5q31 -1 53 30t25 81l-1 101q0 22 -11.5 36.5t-23 25t-11.5 22.5t7.5 19.5t26.5 16.5q29 14 90.5 34.5t75.5 20.5q27 0 27 -38z" />
    <glyph glyph-name="yacute" unicode="&#xfd;" horiz-adv-x="614" 
d="M270 562q-22 8 -16 26q6 15 29 41.5t49 48.5q60 50 95 38q26 -10 37 -32.5t0 -50.5q-16 -45 -83 -66.5t-111 -4.5zM469 480h85q51 0 51 -31q0 -16 -8 -26t-18.5 -15.5t-25.5 -23.5t-26 -46l-122 -313q-47 -123 -100 -179t-149 -56q-56 0 -101 29t-45 84q0 36 22 62t59 26
q25 0 41.5 -19t23 -41.5t20.5 -41.5t35 -19q22 0 36.5 19t14.5 50q0 25 -12 55l-136 344q-11 28 -26.5 46t-26 23.5t-18.5 15.5t-8 27q0 18 11.5 24t36.5 6h192q51 0 51 -31q0 -18 -13 -31.5t-18 -24t9 -55.5l73 -187l68 187q13 45 8 55.5t-18.5 24t-13.5 32.5q0 30 48 30z
" />
    <glyph glyph-name="thorn" unicode="&#xfe;" horiz-adv-x="615" 
d="M383 490q82 0 142 -60t60 -168q0 -72 -22.5 -127t-58 -85t-72.5 -45t-72 -15q-58 0 -114 32v-75q0 -31 8 -49t17.5 -23t17.5 -15.5t8 -28.5q0 -30 -48 -30h-181q-51 0 -51 32q0 17 8 27t17 15t17 23t8 49l-1 589q0 22 -11 36.5t-22.5 25t-11.5 22.5q0 21 33 36
q30 14 91.5 34.5t74.5 20.5q27 0 27 -38l-1 -137v-98q54 52 137 52zM342 69q37 0 54 37.5t17 82.5q0 81 -24.5 140t-74.5 59q-27 0 -47 -28t-21 -77v-6l1 -59q1 -68 28 -108.5t67 -40.5z" />
    <glyph glyph-name="ydieresis" unicode="&#xff;" horiz-adv-x="614" 
d="M252 539q-25 0 -42.5 16.5t-17.5 42.5q0 33 24 59.5t59 26.5q30 0 47.5 -17.5t17.5 -47.5q0 -34 -26 -57t-62 -23zM437 539q-27 0 -44.5 16t-17.5 43q0 33 24.5 59.5t58.5 26.5q29 0 47 -17.5t18 -47.5q0 -34 -25.5 -57t-60.5 -23zM469 480h85q51 0 51 -31q0 -16 -8 -26
t-18.5 -15.5t-25.5 -23.5t-26 -46l-122 -313q-47 -123 -100 -179t-149 -56q-56 0 -101 29t-45 84q0 36 22 62t59 26q25 0 41.5 -19t23 -41.5t20.5 -41.5t35 -19q22 0 36.5 19t14.5 50q0 25 -12 55l-136 344q-11 28 -26.5 46t-26 23.5t-18.5 15.5t-8 27q0 18 11.5 24t36.5 6
h192q51 0 51 -31q0 -18 -13 -31.5t-18 -24t9 -55.5l73 -187l68 187q13 45 8 55.5t-18.5 24t-13.5 32.5q0 30 48 30z" />
    <glyph glyph-name="Amacron" unicode="&#x100;" horiz-adv-x="746" 
d="M449 768h-223q-35 0 -43.5 6.5t-5.5 29.5q5 30 14.5 37.5t46.5 7.5h224q39 0 49.5 -6.5t6.5 -29.5q-4 -31 -15 -38t-54 -7zM203 161l-10 -24q-13 -40 -7 -50.5t19.5 -24.5t13.5 -30q0 -31 -55 -31h-98q-32 0 -47 7t-15 26q0 14 10 24.5t23 17.5t29 23t25 38l170 415
q12 39 4.5 52t-22.5 29.5t-15 32.5q0 34 36 34h134q37 0 49 -33l209 -523q11 -27 25.5 -44.5t24.5 -23.5t17 -15.5t7 -24.5q0 -20 -13 -28t-46 -8h-205q-54 0 -54 36q0 18 17 31t25.5 24.5t-3.5 53.5l-4 8q-9 23 -20 28q-15 6 -105 6q-94 0 -106 -7q-6 -4 -13 -19zM323 270
q59 0 67 3.5t1 23.5l-65 168l-65 -158q-11 -28 -3.5 -32.5t65.5 -4.5z" />
    <glyph glyph-name="amacron" unicode="&#x101;" horiz-adv-x="601" 
d="M403 548h-223q-35 0 -43.5 6.5t-5.5 29.5q5 30 14.5 37.5t46.5 7.5h224q39 0 49.5 -6.5t6.5 -29.5q-4 -31 -15 -38t-54 -7zM585 92q8 1 13 -5.5t5 -15.5q0 -31 -40.5 -55t-81.5 -24q-73 0 -100 71q-71 -71 -181 -71q-75 0 -125 40t-50 102q0 74 63 120.5t180 46.5
q6 0 22 -1t30 -1q-30 88 -105 88q-46 0 -107 -36q-15 -11 -28 1t-1 33q22 40 79.5 72.5t128.5 32.5q42 0 75 -13t52 -28.5t36 -45.5t23.5 -47.5t17.5 -51.5l51 -158q6 -20 10 -29t12.5 -17.5t20.5 -7.5zM283 81q34 0 57.5 18.5t17.5 45.5q-3 13 -21 61q-11 33 -54 33
q-41 0 -66 -20t-26 -52q0 -37 26 -61.5t66 -24.5z" />
    <glyph glyph-name="Abreve" unicode="&#x102;" horiz-adv-x="746" 
d="M348 753q-69 0 -113.5 41t-44.5 105q0 35 20 35q11 0 25 -15q25 -30 50.5 -42t64.5 -12q37 0 62 12t51 42q14 15 25 15q20 0 20 -35q0 -65 -45 -105.5t-115 -40.5zM203 161l-10 -24q-13 -40 -7 -50.5t19.5 -24.5t13.5 -30q0 -31 -55 -31h-98q-32 0 -47 7t-15 26
q0 14 10 24.5t23 17.5t29 23t25 38l170 415q12 39 4.5 52t-22.5 29.5t-15 32.5q0 34 36 34h134q37 0 49 -33l209 -523q11 -27 25.5 -44.5t24.5 -23.5t17 -15.5t7 -24.5q0 -20 -13 -28t-46 -8h-205q-54 0 -54 36q0 18 17 31t25.5 24.5t-3.5 53.5l-4 8q-9 23 -20 28
q-15 6 -105 6q-94 0 -106 -7q-6 -4 -13 -19zM323 270q59 0 67 3.5t1 23.5l-65 168l-65 -158q-11 -28 -3.5 -32.5t65.5 -4.5z" />
    <glyph glyph-name="abreve" unicode="&#x103;" horiz-adv-x="601" 
d="M302 533q-69 0 -113.5 41t-44.5 105q0 35 20 35q11 0 25 -15q25 -30 50.5 -42t64.5 -12q37 0 62 12t51 42q14 15 25 15q20 0 20 -35q0 -65 -45 -105.5t-115 -40.5zM585 92q8 1 13 -5.5t5 -15.5q0 -31 -40.5 -55t-81.5 -24q-73 0 -100 71q-71 -71 -181 -71q-75 0 -125 40
t-50 102q0 74 63 120.5t180 46.5q6 0 22 -1t30 -1q-30 88 -105 88q-46 0 -107 -36q-15 -11 -28 1t-1 33q22 40 79.5 72.5t128.5 32.5q42 0 75 -13t52 -28.5t36 -45.5t23.5 -47.5t17.5 -51.5l51 -158q6 -20 10 -29t12.5 -17.5t20.5 -7.5zM283 81q34 0 57.5 18.5t17.5 45.5
q-3 13 -21 61q-11 33 -54 33q-41 0 -66 -20t-26 -52q0 -37 26 -61.5t66 -24.5z" />
    <glyph glyph-name="Aogonek" unicode="&#x104;" horiz-adv-x="746" 
d="M703 -118q22 11 29 -2.5t-8 -29.5q-35 -42 -96 -42q-47 0 -75 25t-28 64q0 62 68 103h-127q-54 0 -54 36q0 18 17 31t25.5 24.5t-3.5 53.5l-4 8q-9 23 -20 28q-15 6 -105 6q-94 0 -106 -7q-6 -4 -13 -19l-10 -24q-13 -40 -7 -50.5t19.5 -24.5t13.5 -30q0 -31 -55 -31h-98
q-32 0 -47 7t-15 26q0 14 10 24.5t23 17.5t29 23t25 38l170 415q12 39 4.5 52t-22.5 29.5t-15 32.5q0 34 36 34h134q37 0 49 -33l209 -523q11 -27 25.5 -44.5t24.5 -23.5t17 -15.5t7 -24.5q0 -20 -13 -28t-46 -8h-11q-33 -45 -33 -79q0 -20 11.5 -33.5t33.5 -13.5q14 0 31 8
zM323 270q59 0 67 3.5t1 23.5l-65 168l-65 -158q-11 -28 -3.5 -32.5t65.5 -4.5z" />
    <glyph glyph-name="aogonek" unicode="&#x105;" horiz-adv-x="601" 
d="M580 -118q22 11 29 -2.5t-8 -29.5q-35 -42 -96 -42q-47 0 -75 25t-28 64q0 56 58 97q-56 8 -79 69q-71 -71 -181 -71q-75 0 -125 40t-50 102q0 74 63 120.5t180 46.5q6 0 22 -1t30 -1q-30 88 -105 88q-46 0 -107 -36q-15 -11 -28 1t-1 33q22 40 79.5 72.5t128.5 32.5
q42 0 75 -13t52 -28.5t36 -45.5t23.5 -47.5t17.5 -51.5l51 -158q6 -20 10 -29t12.5 -17.5t20.5 -7.5q8 1 13 -5.5t5 -15.5q0 -40 -62 -66q-37 -48 -37 -84q0 -20 11.5 -33.5t33.5 -13.5q14 0 31 8zM283 81q34 0 57.5 18.5t17.5 45.5q-3 13 -21 61q-11 33 -54 33
q-41 0 -66 -20t-26 -52q0 -37 26 -61.5t66 -24.5z" />
    <glyph glyph-name="Cacute" unicode="&#x106;" horiz-adv-x="715" 
d="M376 750q-59 0 -59 23q-1 15 24.5 44t47.5 47q56 49 86 50q22 0 40 -18t19 -41q1 -49 -49 -76t-109 -29zM397 -10q-156 0 -256.5 94t-100.5 255q0 153 109 262t267 109q38 0 77.5 -9.5t43.5 -9.5q13 0 29.5 9t31.5 9t25.5 -11t19.5 -41q25 -84 32 -149q8 -52 -30 -55
q-6 0 -11.5 1t-9 3t-9 8t-8.5 9.5t-10.5 14t-11.5 16.5q-87 126 -177 126q-81 0 -128 -57t-47 -153q0 -83 24.5 -152.5t77 -115.5t124.5 -46q98 0 183 89q21 22 39 6t7 -42q-34 -79 -115 -124.5t-176 -45.5z" />
    <glyph glyph-name="cacute" unicode="&#x107;" horiz-adv-x="546" 
d="M190 561q-22 8 -16 26q6 15 29 41.5t49 48.5q60 50 95 38q26 -10 37 -32.5t0 -50.5q-16 -45 -83 -66.5t-111 -4.5zM281 -10q-118 0 -183.5 69t-65.5 166q0 115 78.5 190t189.5 75q92 0 151 -49t59 -120q0 -41 -24 -63t-58 -22q-62 0 -83 77q-28 96 -81 96q-29 0 -45 -26
t-16 -71q0 -87 43 -141.5t115 -54.5q26 0 49 8.5t34 16t35 25.5q19 15 31 4t4 -37q-17 -55 -77.5 -99t-155.5 -44z" />
    <glyph glyph-name="Cdotaccent" unicode="&#x10a;" horiz-adv-x="715" 
d="M358 745q-35 0 -55 21t-20 51q-1 42 37.5 79t85.5 37q34 1 57 -20t24 -54q0 -46 -39.5 -80t-89.5 -34zM397 -10q-156 0 -256.5 94t-100.5 255q0 153 109 262t267 109q38 0 77.5 -9.5t43.5 -9.5q13 0 29.5 9t31.5 9t25.5 -11t19.5 -41q25 -84 32 -149q8 -52 -30 -55
q-6 0 -11.5 1t-9 3t-9 8t-8.5 9.5t-10.5 14t-11.5 16.5q-87 126 -177 126q-81 0 -128 -57t-47 -153q0 -83 24.5 -152.5t77 -115.5t124.5 -46q98 0 183 89q21 22 39 6t7 -42q-34 -79 -115 -124.5t-176 -45.5z" />
    <glyph glyph-name="cdotaccent" unicode="&#x10b;" horiz-adv-x="546" 
d="M246 524q-35 0 -55 21t-20 51q-1 42 37.5 79t85.5 37q34 1 57 -20t24 -54q0 -46 -39.5 -80t-89.5 -34zM281 -10q-118 0 -183.5 69t-65.5 166q0 115 78.5 190t189.5 75q92 0 151 -49t59 -120q0 -41 -24 -63t-58 -22q-62 0 -83 77q-28 96 -81 96q-29 0 -45 -26t-16 -71
q0 -87 43 -141.5t115 -54.5q26 0 49 8.5t34 16t35 25.5q19 15 31 4t4 -37q-17 -55 -77.5 -99t-155.5 -44z" />
    <glyph glyph-name="Ccaron" unicode="&#x10c;" horiz-adv-x="715" 
d="M236 906q25 0 65.5 -15t70.5 -36q31 21 70.5 36t64.5 15q19 0 21 -18q0 -3 -1 -5.5t-4 -7t-6 -8t-9 -10t-11 -11t-14 -13.5l-15 -15q-10 -10 -25 -26.5t-21 -21t-19 -9.5t-31 -5t-32 5.5t-20 10t-23.5 22.5t-26.5 27q-34 34 -45 46.5t-10 20.5q1 18 21 18zM397 -10
q-156 0 -256.5 94t-100.5 255q0 153 109 262t267 109q38 0 77.5 -9.5t43.5 -9.5q13 0 29.5 9t31.5 9t25.5 -11t19.5 -41q25 -84 32 -149q8 -52 -30 -55q-6 0 -11.5 1t-9 3t-9 8t-8.5 9.5t-10.5 14t-11.5 16.5q-87 126 -177 126q-81 0 -128 -57t-47 -153q0 -83 24.5 -152.5
t77 -115.5t124.5 -46q98 0 183 89q21 22 39 6t7 -42q-34 -79 -115 -124.5t-176 -45.5z" />
    <glyph glyph-name="ccaron" unicode="&#x10d;" horiz-adv-x="546" 
d="M150 754q40 0 125 -81q87 81 126 81q20 0 20 -18q0 -26 -53 -92q-4 -6 -12 -16.5t-11 -14l-9 -10.5t-9 -9t-9 -5.5t-12 -4.5t-14.5 -2t-18.5 -1q-21 0 -37.5 9t-25.5 19.5t-30 38.5q-50 63 -50 88q0 18 20 18zM281 -10q-118 0 -183.5 69t-65.5 166q0 115 78.5 190
t189.5 75q92 0 151 -49t59 -120q0 -41 -24 -63t-58 -22q-62 0 -83 77q-28 96 -81 96q-29 0 -45 -26t-16 -71q0 -87 43 -141.5t115 -54.5q26 0 49 8.5t34 16t35 25.5q19 15 31 4t4 -37q-17 -55 -77.5 -99t-155.5 -44z" />
    <glyph glyph-name="Dcaron" unicode="&#x10e;" horiz-adv-x="785" 
d="M363 761q-13 -5 -31 -5t-32 5.5t-20 10t-23.5 22.5t-26.5 27q-34 34 -45 46.5t-10 20.5q1 18 21 18q25 0 65.5 -15t70.5 -36q31 21 70.5 36t64.5 15q19 0 21 -18q0 -3 -1 -5.5t-4 -7t-6 -8t-9 -10t-11 -11t-14 -13.5l-15 -15q-10 -10 -25 -26.5t-21 -21t-19 -9.5zM80 700
h272q97 0 173 -28t122 -75.5t69.5 -107t23.5 -126.5q0 -158 -103 -260.5t-264 -102.5h-293q-34 0 -48 8t-14 28q0 18 7.5 28.5t18 17.5t21 17.5t18 36t7.5 66.5v296q0 41 -7.5 66.5t-18 36t-21 17.5t-18 17.5t-7.5 28.5q0 20 14 28t48 8zM361 75q85 0 134 56.5t49 165.5
q0 139 -64 234.5t-152 95.5q-26 0 -37 -9t-11 -35v-446q0 -31 15 -46.5t66 -15.5z" />
    <glyph glyph-name="dcaron" unicode="&#x10f;" horiz-adv-x="615" 
d="M653 711q28 0 44 -18t16 -45q0 -48 -42 -119t-72 -71q-24 0 -20 26q2 17 5.5 59t6.5 70.5t4 35.5q8 62 58 62zM542 672l-1 -136l-2 -366q0 -20 6 -33.5t14.5 -20.5t17 -12t14.5 -11t6 -14q0 -23 -40 -44q-28 -14 -72.5 -28t-66.5 -14q-24 0 -35.5 13.5t-14.5 47.5
q-56 -68 -151 -63q-79 4 -132 61.5t-53 152.5q0 68 25 124t64 90t82.5 52.5t84.5 18.5q36 0 73 -11v56q0 27 -22.5 49t-22.5 35q0 21 33 36q30 14 92 34.5t75 20.5q26 0 26 -38zM300 101q52 0 61 82v98q-4 49 -11 73q-20 60 -72 60q-37 0 -57.5 -34.5t-20.5 -98.5
q0 -78 27 -129t73 -51z" />
    <glyph glyph-name="Dcroat" unicode="&#x110;" horiz-adv-x="785" 
d="M80 700h272q97 0 173 -28t122 -75.5t69.5 -107t23.5 -126.5q0 -158 -103 -260.5t-264 -102.5h-293q-34 0 -48 8t-14 28q0 18 7.5 28.5t18 17.5t21 17.5t18 36t7.5 66.5v107h-28q-20 0 -25.5 11t-5.5 39q0 32 31 32h28v107q0 41 -7.5 66.5t-18 36t-21 17.5t-18 17.5
t-7.5 28.5q0 20 14 28t48 8zM361 75q85 0 134 56.5t49 165.5q0 139 -64 234.5t-152 95.5q-26 0 -37 -9t-11 -35v-192h48q31 0 31 -32q0 -29 -6 -39.5t-25 -10.5h-48v-172q0 -31 15 -46.5t66 -15.5z" />
    <glyph glyph-name="dcroat" unicode="&#x111;" horiz-adv-x="615" 
d="M576 496h-35l-2 -326q0 -20 6 -33.5t14.5 -20.5t17 -12t14.5 -11t6 -14q0 -23 -40 -44q-28 -14 -72.5 -28t-66.5 -14q-24 0 -35.5 13.5t-14.5 47.5q-56 -68 -151 -63q-79 4 -132 61.5t-53 152.5q0 68 25 124t64 90t82.5 52.5t84.5 18.5q36 0 73 -11v17h-43q-32 0 -32 36
q0 35 32 35h35q-4 7 -20.5 23t-16.5 29q0 21 33 36q30 14 92 34.5t75 20.5q26 0 26 -38l-1 -105h35q32 0 32 -35q0 -36 -32 -36zM300 101q52 0 61 82v98q-4 49 -11 73q-20 60 -72 60q-37 0 -57.5 -34.5t-20.5 -98.5q0 -78 27 -129t73 -51z" />
    <glyph glyph-name="Emacron" unicode="&#x112;" horiz-adv-x="639" 
d="M412 768h-223q-35 0 -43.5 6.5t-5.5 29.5q5 30 14.5 37.5t46.5 7.5h224q39 0 49.5 -6.5t6.5 -29.5q-4 -31 -15 -38t-54 -7zM578 242q18 -4 23 -16.5t4 -41.5q-3 -87 -16 -135q-7 -28 -25.5 -38.5t-61.5 -10.5h-422q-34 0 -48 8t-14 28q0 18 7.5 28.5t18 17.5t21 17.5
t18 36t7.5 66.5v296q0 41 -7.5 66.5t-18 36t-21 17.5t-18 17.5t-7.5 28.5q0 20 14 28t48 8h401q46 0 65.5 -7.5t28.5 -31.5q15 -39 27 -100q9 -53 -18 -63q-28 -10 -54 27q-35 48 -69.5 70.5t-78.5 22.5h-38q-37 0 -50.5 -10t-13.5 -34v-86q0 -27 13 -37.5t42 -11.5
q33 1 60 18t43 17q30 0 34 -27l30 -144q4 -24 -1 -33.5t-23 -13.5q-19 -4 -36 10.5t-28.5 34.5t-32.5 38t-47 19q-29 -1 -41.5 -11.5t-12.5 -37.5v-183q0 -24 15.5 -34t59.5 -10h56q25 0 46 17t33.5 38t35.5 68q23 45 52 37z" />
    <glyph glyph-name="emacron" unicode="&#x113;" horiz-adv-x="544" 
d="M373 548h-223q-35 0 -43.5 6.5t-5.5 29.5q5 30 14.5 37.5t46.5 7.5h224q39 0 49.5 -6.5t6.5 -29.5q-4 -31 -15 -38t-54 -7zM487 177q18 16 30.5 4t4.5 -37q-17 -55 -85 -104.5t-163 -49.5q-109 0 -175.5 65t-66.5 171q0 114 80 189t183 75q92 0 145 -48t60 -118
q3 -24 -21 -38q-120 -61 -245 -112q36 -59 119 -59q64 0 134 62zM239 405q-44 -19 -44 -95q0 -41 11 -66q54 19 105 46q1 1 5 2.5t5.5 2.5t5 2.5t4.5 3t3.5 4t3.5 4.5t2 5t1 6.5t-0.5 8t-2.5 9.5q-15 41 -42 60t-57 7z" />
    <glyph glyph-name="Edotaccent" unicode="&#x116;" horiz-adv-x="639" 
d="M298 745q-35 0 -55 21t-20 51q-1 42 37.5 79t85.5 37q34 1 57 -20t24 -54q0 -46 -39.5 -80t-89.5 -34zM578 242q18 -4 23 -16.5t4 -41.5q-3 -87 -16 -135q-7 -28 -25.5 -38.5t-61.5 -10.5h-422q-34 0 -48 8t-14 28q0 18 7.5 28.5t18 17.5t21 17.5t18 36t7.5 66.5v296
q0 41 -7.5 66.5t-18 36t-21 17.5t-18 17.5t-7.5 28.5q0 20 14 28t48 8h401q46 0 65.5 -7.5t28.5 -31.5q15 -39 27 -100q9 -53 -18 -63q-28 -10 -54 27q-35 48 -69.5 70.5t-78.5 22.5h-38q-37 0 -50.5 -10t-13.5 -34v-86q0 -27 13 -37.5t42 -11.5q33 1 60 18t43 17
q30 0 34 -27l30 -144q4 -24 -1 -33.5t-23 -13.5q-19 -4 -36 10.5t-28.5 34.5t-32.5 38t-47 19q-29 -1 -41.5 -11.5t-12.5 -37.5v-183q0 -24 15.5 -34t59.5 -10h56q25 0 46 17t33.5 38t35.5 68q23 45 52 37z" />
    <glyph glyph-name="edotaccent" unicode="&#x117;" horiz-adv-x="544" 
d="M259 525q-35 0 -55 21t-20 51q-1 42 37.5 79t85.5 37q34 1 57 -20t24 -54q0 -46 -39.5 -80t-89.5 -34zM487 177q18 16 30.5 4t4.5 -37q-17 -55 -85 -104.5t-163 -49.5q-109 0 -175.5 65t-66.5 171q0 114 80 189t183 75q92 0 145 -48t60 -118q3 -24 -21 -38
q-120 -61 -245 -112q36 -59 119 -59q64 0 134 62zM239 405q-44 -19 -44 -95q0 -41 11 -66q54 19 105 46q1 1 5 2.5t5.5 2.5t5 2.5t4.5 3t3.5 4t3.5 4.5t2 5t1 6.5t-0.5 8t-2.5 9.5q-15 41 -42 60t-57 7z" />
    <glyph glyph-name="Eogonek" unicode="&#x118;" horiz-adv-x="639" 
d="M586 -118q22 11 29 -2.5t-8 -29.5q-35 -42 -96 -42q-47 0 -75 25t-28 64q0 62 68 103h-396q-34 0 -48 8t-14 28q0 18 7.5 28.5t18 17.5t21 17.5t18 36t7.5 66.5v296q0 41 -7.5 66.5t-18 36t-21 17.5t-18 17.5t-7.5 28.5q0 20 14 28t48 8h401q46 0 65.5 -7.5t28.5 -31.5
q15 -39 27 -100q9 -53 -18 -63q-28 -10 -54 27q-35 48 -69.5 70.5t-78.5 22.5h-38q-37 0 -50.5 -10t-13.5 -34v-86q0 -27 13 -37.5t42 -11.5q33 1 60 18t43 17q30 0 34 -27l30 -144q4 -24 -1 -33.5t-23 -13.5q-19 -4 -36 10.5t-28.5 34.5t-32.5 38t-47 19
q-29 -1 -41.5 -11.5t-12.5 -37.5v-183q0 -24 15.5 -34t59.5 -10h56q25 0 46 17t33.5 38t35.5 68q23 45 52 37q18 -4 23 -16.5t4 -41.5q-3 -87 -16 -135q-9 -37 -43 -45q-36 -48 -36 -83q0 -20 11.5 -33.5t33.5 -13.5q14 0 31 8z" />
    <glyph glyph-name="eogonek" unicode="&#x119;" horiz-adv-x="544" 
d="M522 144q-16 -51 -72 -95q-36 -47 -36 -82q0 -20 11.5 -33.5t33.5 -13.5q14 0 31 8q22 11 29 -2.5t-8 -29.5q-35 -42 -96 -42q-47 0 -75 25t-28 64q0 26 14 52q-27 -5 -52 -5q-109 0 -175.5 65t-66.5 171q0 114 80 189t183 75q92 0 145 -48t60 -118q3 -24 -21 -38
q-120 -61 -245 -112q36 -59 119 -59q64 0 134 62q18 16 30.5 4t4.5 -37zM239 405q-44 -19 -44 -95q0 -41 11 -66q54 19 105 46q1 1 5 2.5t5.5 2.5t5 2.5t4.5 3t3.5 4t3.5 4.5t2 5t1 6.5t-0.5 8t-2.5 9.5q-15 41 -42 60t-57 7z" />
    <glyph glyph-name="Ecaron" unicode="&#x11a;" horiz-adv-x="639" 
d="M343 761q-13 -5 -31 -5t-32 5.5t-20 10t-23.5 22.5t-26.5 27q-34 34 -45 46.5t-10 20.5q1 18 21 18q25 0 65.5 -15t70.5 -36q31 21 70.5 36t64.5 15q19 0 21 -18q0 -3 -1 -5.5t-4 -7t-6 -8t-9 -10t-11 -11t-14 -13.5l-15 -15q-10 -10 -25 -26.5t-21 -21t-19 -9.5z
M578 242q18 -4 23 -16.5t4 -41.5q-3 -87 -16 -135q-7 -28 -25.5 -38.5t-61.5 -10.5h-422q-34 0 -48 8t-14 28q0 18 7.5 28.5t18 17.5t21 17.5t18 36t7.5 66.5v296q0 41 -7.5 66.5t-18 36t-21 17.5t-18 17.5t-7.5 28.5q0 20 14 28t48 8h401q46 0 65.5 -7.5t28.5 -31.5
q15 -39 27 -100q9 -53 -18 -63q-28 -10 -54 27q-35 48 -69.5 70.5t-78.5 22.5h-38q-37 0 -50.5 -10t-13.5 -34v-86q0 -27 13 -37.5t42 -11.5q33 1 60 18t43 17q30 0 34 -27l30 -144q4 -24 -1 -33.5t-23 -13.5q-19 -4 -36 10.5t-28.5 34.5t-32.5 38t-47 19
q-29 -1 -41.5 -11.5t-12.5 -37.5v-183q0 -24 15.5 -34t59.5 -10h56q25 0 46 17t33.5 38t35.5 68q23 45 52 37z" />
    <glyph glyph-name="ecaron" unicode="&#x11b;" horiz-adv-x="544" 
d="M286 582q-21 0 -37.5 9t-25.5 19.5t-30 38.5q-50 63 -50 88q0 18 20 18q40 0 125 -81q87 81 126 81q20 0 20 -18q0 -26 -53 -92q-4 -6 -12 -16.5t-11 -14l-9 -10.5t-9 -9t-9 -5.5t-12 -4.5t-14.5 -2t-18.5 -1zM487 177q18 16 30.5 4t4.5 -37q-17 -55 -85 -104.5
t-163 -49.5q-109 0 -175.5 65t-66.5 171q0 114 80 189t183 75q92 0 145 -48t60 -118q3 -24 -21 -38q-120 -61 -245 -112q36 -59 119 -59q64 0 134 62zM239 405q-44 -19 -44 -95q0 -41 11 -66q54 19 105 46q1 1 5 2.5t5.5 2.5t5 2.5t4.5 3t3.5 4t3.5 4.5t2 5t1 6.5t-0.5 8
t-2.5 9.5q-15 41 -42 60t-57 7z" />
    <glyph glyph-name="Gbreve" unicode="&#x11e;" horiz-adv-x="795" 
d="M393 753q-69 0 -113.5 41t-44.5 105q0 35 20 35q11 0 25 -15q25 -30 50.5 -42t64.5 -12q37 0 62 12t51 42q14 15 25 15q20 0 20 -35q0 -65 -45 -105.5t-115 -40.5zM396 -10q-156 0 -256 95t-100 254q0 153 102 262t250 109q52 0 101 -10t50 -10q14 0 31 9.5t32 9.5
q34 0 44 -52q11 -52 24 -148q6 -53 -34 -56q-12 -1 -22.5 6.5t-16 14.5t-24.5 32q-43 63 -82 94t-100 32q-79 0 -120.5 -58.5t-41.5 -156.5q0 -152 54 -244.5t152 -92.5q28 0 54.5 15t26.5 46v54q0 34 -15 53.5t-33.5 24.5t-34 15t-15.5 27q0 20 13 28t48 8l212 3
q30 0 43 -8t13 -28q0 -17 -10.5 -29t-20.5 -33t-10 -59v-46q0 -62 -89 -111.5t-225 -49.5z" />
    <glyph glyph-name="gbreve" unicode="&#x11f;" horiz-adv-x="590" 
d="M302 533q-69 0 -113.5 41t-44.5 105q0 35 20 35q11 0 25 -15q25 -30 50.5 -42t64.5 -12q37 0 62 12t51 42q14 15 25 15q20 0 20 -35q0 -65 -45 -105.5t-115 -40.5zM437 100q65 0 101.5 -34t36.5 -90q0 -85 -85 -135.5t-214 -50.5q-55 0 -105 11t-88 38.5t-38 66.5
q0 23 17 43t44 30q-62 27 -62 88q0 63 76 100q-70 42 -70 122q0 79 69 138t172 63q27 1 56 -2q8 -1 25 -1q55 0 103 52q23 25 50 25q21 0 34.5 -14t13.5 -34q0 -36 -32 -54t-76 -22q52 -46 52 -122q0 -78 -64.5 -130t-166.5 -57q-59 -2 -104 11q-13 -13 -13 -27
q0 -28 59 -28q30 0 107 6.5t102 6.5zM269 422q-23 0 -36 -22.5t-13 -55.5q0 -62 20 -104t62 -42q20 0 33.5 20.5t13.5 59.5q0 53 -21 98.5t-59 45.5zM306 -135q116 0 116 55q0 25 -34 27q-31 0 -84 -3t-84 -2q-38 2 -38 -29q0 -48 124 -48z" />
    <glyph glyph-name="Gdotaccent" unicode="&#x120;" horiz-adv-x="795" 
d="M380 745q-35 0 -55 21t-20 51q-1 42 37.5 79t85.5 37q34 1 57 -20t24 -54q0 -46 -39.5 -80t-89.5 -34zM396 -10q-156 0 -256 95t-100 254q0 153 102 262t250 109q52 0 101 -10t50 -10q14 0 31 9.5t32 9.5q34 0 44 -52q11 -52 24 -148q6 -53 -34 -56q-12 -1 -22.5 6.5
t-16 14.5t-24.5 32q-43 63 -82 94t-100 32q-79 0 -120.5 -58.5t-41.5 -156.5q0 -152 54 -244.5t152 -92.5q28 0 54.5 15t26.5 46v54q0 34 -15 53.5t-33.5 24.5t-34 15t-15.5 27q0 20 13 28t48 8l212 3q30 0 43 -8t13 -28q0 -17 -10.5 -29t-20.5 -33t-10 -59v-46
q0 -62 -89 -111.5t-225 -49.5z" />
    <glyph glyph-name="gdotaccent" unicode="&#x121;" horiz-adv-x="590" 
d="M289 525q-35 0 -55 21t-20 51q-1 42 37.5 79t85.5 37q34 1 57 -20t24 -54q0 -46 -39.5 -80t-89.5 -34zM437 100q65 0 101.5 -34t36.5 -90q0 -85 -85 -135.5t-214 -50.5q-55 0 -105 11t-88 38.5t-38 66.5q0 23 17 43t44 30q-62 27 -62 88q0 63 76 100q-70 42 -70 122
q0 79 69 138t172 63q27 1 56 -2q8 -1 25 -1q55 0 103 52q23 25 50 25q21 0 34.5 -14t13.5 -34q0 -36 -32 -54t-76 -22q52 -46 52 -122q0 -78 -64.5 -130t-166.5 -57q-59 -2 -104 11q-13 -13 -13 -27q0 -28 59 -28q30 0 107 6.5t102 6.5zM269 422q-23 0 -36 -22.5t-13 -55.5
q0 -62 20 -104t62 -42q20 0 33.5 20.5t13.5 59.5q0 53 -21 98.5t-59 45.5zM306 -135q116 0 116 55q0 25 -34 27q-31 0 -84 -3t-84 -2q-38 2 -38 -29q0 -48 124 -48z" />
    <glyph glyph-name="uni0122" unicode="&#x122;" horiz-adv-x="795" 
d="M396 -10q-156 0 -256 95t-100 254q0 153 102 262t250 109q52 0 101 -10t50 -10q14 0 31 9.5t32 9.5q34 0 44 -52q11 -52 24 -148q6 -53 -34 -56q-12 -1 -22.5 6.5t-16 14.5t-24.5 32q-43 63 -82 94t-100 32q-79 0 -120.5 -58.5t-41.5 -156.5q0 -152 54 -244.5t152 -92.5
q28 0 54.5 15t26.5 46v54q0 34 -15 53.5t-33.5 24.5t-34 15t-15.5 27q0 20 13 28t48 8l212 3q30 0 43 -8t13 -28q0 -17 -10.5 -29t-20.5 -33t-10 -59v-46q0 -62 -89 -111.5t-225 -49.5zM354 -285q-17 0 -17 14q0 6 17.5 25t17.5 36q0 13 -12.5 25t-25 29.5t-12.5 43.5
q0 28 19 47.5t48 19.5q33 0 53.5 -21.5t20.5 -64.5q0 -61 -36.5 -107.5t-72.5 -46.5z" />
    <glyph glyph-name="uni0123" unicode="&#x123;" horiz-adv-x="590" 
d="M307 534q-33 0 -53.5 21.5t-20.5 64.5q0 61 36.5 107.5t72.5 46.5q17 0 17 -14q0 -6 -17.5 -25t-17.5 -36q0 -13 12.5 -25t25 -29.5t12.5 -43.5q0 -29 -19 -48t-48 -19zM437 100q65 0 101.5 -34t36.5 -90q0 -85 -85 -135.5t-214 -50.5q-55 0 -105 11t-88 38.5t-38 66.5
q0 23 17 43t44 30q-62 27 -62 88q0 63 76 100q-70 42 -70 122q0 79 69 138t172 63q27 1 56 -2q8 -1 25 -1q55 0 103 52q23 25 50 25q21 0 34.5 -14t13.5 -34q0 -36 -32 -54t-76 -22q52 -46 52 -122q0 -78 -64.5 -130t-166.5 -57q-59 -2 -104 11q-13 -13 -13 -27
q0 -28 59 -28q30 0 107 6.5t102 6.5zM269 422q-23 0 -36 -22.5t-13 -55.5q0 -62 20 -104t62 -42q20 0 33.5 20.5t13.5 59.5q0 53 -21 98.5t-59 45.5zM306 -135q116 0 116 55q0 25 -34 27q-31 0 -84 -3t-84 -2q-38 2 -38 -29q0 -48 124 -48z" />
    <glyph glyph-name="Hbar" unicode="&#x126;" horiz-adv-x="827" 
d="M771 479h-34v-289q0 -43 11 -68.5t24 -33.5t24 -20.5t11 -31.5q0 -20 -13.5 -28t-48.5 -8h-208q-34 0 -47.5 8t-13.5 28q0 19 11 31.5t24.5 20.5t24.5 33.5t11 68.5v102q0 25 -10 30q-17 8 -125 8t-122 -7q-10 -7 -10 -31v-102q0 -43 11 -68.5t23.5 -33.5t23.5 -20.5
t11 -31.5q0 -20 -13 -28t-48 -8h-208q-34 0 -48 8t-14 28q0 19 11 31.5t25 20.5t25 33.5t11 68.5v289h-17q-32 0 -32 31v19q0 31 32 31h12q-5 23 -16.5 38t-22 21t-18.5 17t-8 28q0 20 13.5 28t48.5 8h208q34 0 47.5 -8t13.5 -28q0 -17 -8 -28t-18.5 -17t-22.5 -21t-17 -38
h257q-7 28 -23 44t-28.5 27.5t-12.5 32.5q0 20 13 28t48 8h208q34 0 48 -8t14 -28q0 -21 -13 -32.5t-30 -27.5t-24 -44h29q32 0 32 -31v-19q0 -31 -32 -31zM547 450v29h-267v-29q0 -25 9 -30q17 -8 124 -8q110 0 124 7q10 7 10 31z" />
    <glyph glyph-name="hbar" unicode="&#x127;" horiz-adv-x="663" 
d="M574 288l38 -166q5 -20 14 -33.5t17 -19t14.5 -15.5t6.5 -24q0 -18 -11.5 -24t-36.5 -6h-173q-52 0 -52 32q0 15 13 27.5t22.5 29.5t3.5 46l-34 150q-20 92 -74 93q-30 0 -48.5 -25.5t-18.5 -65.5v-141q0 -31 8 -49t17 -23t17 -15.5t8 -28.5t-11.5 -24t-36.5 -6h-180
q-52 0 -52 32q0 17 8 27t17.5 15t17.5 23t8 49l-2 348h-25q-32 0 -32 36q0 35 32 35h18q-5 10 -21.5 25.5t-16.5 28.5q0 12 7.5 19.5t26.5 16.5q29 14 90.5 34.5t75.5 20.5q27 0 27 -38l-1 -107h52q32 0 32 -35q0 -36 -32 -36h-52v-54q52 50 132 50q46 0 79.5 -15t54 -46
t31.5 -62t22 -79z" />
    <glyph glyph-name="Imacron" unicode="&#x12a;" horiz-adv-x="369" 
d="M291 768h-223q-35 0 -43.5 6.5t-5.5 29.5q5 30 14.5 37.5t46.5 7.5h224q39 0 49.5 -6.5t6.5 -29.5q-4 -31 -15 -38t-54 -7zM90 190v320q0 43 -11 68.5t-24 33.5t-24 20.5t-11 31.5q0 20 13.5 28t48.5 8h208q34 0 47.5 -8t13.5 -28q0 -19 -11 -31.5t-24.5 -20.5
t-24.5 -33.5t-11 -68.5v-320q0 -43 11 -68.5t23.5 -33.5t23.5 -20.5t11 -31.5q0 -20 -13 -28t-48 -8h-208q-34 0 -48 8t-14 28q0 19 11 31.5t25 20.5t25 33.5t11 68.5z" />
    <glyph glyph-name="imacron" unicode="&#x12b;" horiz-adv-x="316" 
d="M242 548h-223q-35 0 -43.5 6.5t-5.5 29.5q5 30 14.5 37.5t46.5 7.5h224q39 0 49.5 -6.5t6.5 -29.5q-4 -31 -15 -38t-54 -7zM70 146l-1 168q0 17 -7 30t-15.5 19.5t-15.5 15.5t-7 19q0 21 33 36q30 14 91.5 34.5t74.5 20.5q27 0 27 -38l-1 -137v-168q0 -31 8 -49t17.5 -23
t17.5 -15.5t8 -28.5q0 -30 -48 -30h-180q-52 0 -52 32q0 17 8 27t17 15t17 23t8 49z" />
    <glyph glyph-name="Iogonek" unicode="&#x12e;" horiz-adv-x="369" 
d="M349 -118q22 11 29 -2.5t-8 -29.5q-35 -42 -96 -42q-47 0 -75 25t-28 64q0 62 68 103h-159q-34 0 -48 8t-14 28q0 19 11 31.5t25 20.5t25 33.5t11 68.5v320q0 43 -11 68.5t-24 33.5t-24 20.5t-11 31.5q0 20 13.5 28t48.5 8h208q34 0 47.5 -8t13.5 -28q0 -19 -11 -31.5
t-24.5 -20.5t-24.5 -33.5t-11 -68.5v-320q0 -43 11 -68.5t23.5 -33.5t23.5 -20.5t11 -31.5q0 -17 -9.5 -25.5t-32.5 -9.5q-34 -46 -34 -80q0 -20 11.5 -33.5t33.5 -13.5q14 0 31 8z" />
    <glyph glyph-name="iogonek" unicode="&#x12f;" horiz-adv-x="316" 
d="M128 525q-35 0 -55 21t-20 51q-1 42 37.5 79t85.5 37q34 1 57 -20t24 -54q0 -46 -39.5 -80t-89.5 -34zM277 -128q22 11 29 -2.5t-8 -29.5q-35 -42 -96 -42q-47 0 -75 25t-28 64q0 72 87 113h-114q-52 0 -52 32q0 17 8 27t17 15t17 23t8 49l-1 168q0 17 -7 30t-15.5 19.5
t-15.5 15.5t-7 19q0 21 33 36q30 14 91.5 34.5t74.5 20.5q27 0 27 -38l-1 -137v-168q0 -31 8 -49t17.5 -23t17.5 -15.5t8 -28.5q0 -30 -48 -30h-10q-41 -52 -41 -89q0 -20 11.5 -33.5t33.5 -13.5q14 0 31 8z" />
    <glyph glyph-name="Idotaccent" unicode="&#x130;" horiz-adv-x="369" 
d="M177 745q-35 0 -55 21t-20 51q-1 42 37.5 79t85.5 37q34 1 57 -20t24 -54q0 -46 -39.5 -80t-89.5 -34zM90 190v320q0 43 -11 68.5t-24 33.5t-24 20.5t-11 31.5q0 20 13.5 28t48.5 8h208q34 0 47.5 -8t13.5 -28q0 -19 -11 -31.5t-24.5 -20.5t-24.5 -33.5t-11 -68.5v-320
q0 -43 11 -68.5t23.5 -33.5t23.5 -20.5t11 -31.5q0 -20 -13 -28t-48 -8h-208q-34 0 -48 8t-14 28q0 19 11 31.5t25 20.5t25 33.5t11 68.5z" />
    <glyph glyph-name="dotlessi" unicode="&#x131;" horiz-adv-x="316" 
d="M70 146l-1 168q0 17 -7 30t-15.5 19.5t-15.5 15.5t-7 19q0 21 33 36q30 14 91.5 34.5t74.5 20.5q27 0 27 -38l-1 -137v-168q0 -31 8 -49t17.5 -23t17.5 -15.5t8 -28.5q0 -30 -48 -30h-180q-52 0 -52 32q0 17 8 27t17 15t17 23t8 49z" />
    <glyph glyph-name="uni0136" unicode="&#x136;" horiz-adv-x="786" 
d="M592 563l-54 -50l160 -344q15 -32 33.5 -53.5t31 -29t21 -19.5t8.5 -31q0 -20 -13.5 -28t-49.5 -8h-197q-34 0 -47.5 8t-13.5 28q0 16 15 35t22 32t-5 49l-105 231l-118 -109v-84q0 -43 11 -68.5t23.5 -33.5t23.5 -20.5t11 -31.5q0 -20 -13 -28t-48 -8h-208q-34 0 -48 8
t-14 28q0 19 11 31.5t25 20.5t25 33.5t11 68.5v320q0 43 -11 68.5t-24 33.5t-24 20.5t-11 31.5q0 20 13.5 28t48.5 8h208q34 0 47.5 -8t13.5 -28q0 -19 -11 -31.5t-24.5 -20.5t-24.5 -33.5t-11 -68.5v-123l189 176q20 19 21 34t-9 23t-21.5 20t-11.5 24q0 19 11 27.5t37 8.5
h154q62 0 62 -36q0 -18 -8.5 -27.5t-21.5 -14.5t-38.5 -20t-51.5 -39zM374 -45q33 0 53.5 -21.5t20.5 -64.5q0 -61 -36.5 -107.5t-72.5 -46.5q-17 0 -17 14q0 6 17.5 25t17.5 36q0 13 -12.5 25t-25 29.5t-12.5 43.5q0 28 19.5 47.5t47.5 19.5z" />
    <glyph glyph-name="uni0137" unicode="&#x137;" horiz-adv-x="648" 
d="M465 371l-13 -14l112 -250q8 -17 38.5 -38.5t30.5 -42.5q0 -26 -47 -26h-175q-52 0 -52 27q0 14 12.5 24.5t18.5 17.5t-3 33l-57 124l-75 -81q0 -30 8 -48t17 -23t17 -15.5t8 -28.5t-11.5 -24t-36.5 -6h-180q-52 0 -52 32q0 17 8 27t17.5 15t17.5 23t8 49l-2 389
q0 22 -11 36.5t-22.5 25t-11.5 22.5t7.5 19.5t26.5 16.5q29 14 90.5 34.5t75.5 20.5q27 0 27 -38l-1 -137v-280l109 115q17 18 17 29.5t-9 17t-19 15.5t-10 22q0 26 50 26h143q44 0 44 -27q0 -12 -11.5 -21t-27.5 -14t-38 -17.5t-38 -29.5zM349 -45q33 0 53.5 -21.5
t20.5 -64.5q0 -61 -36.5 -107.5t-72.5 -46.5q-17 0 -17 14q0 6 17.5 25t17.5 36q0 13 -12.5 25t-25 29.5t-12.5 43.5q0 28 19 47.5t48 19.5z" />
    <glyph glyph-name="Lacute" unicode="&#x139;" horiz-adv-x="596" 
d="M188 750q-59 0 -59 23q-1 15 24.5 44t47.5 47q56 49 86 50q22 0 40 -18t19 -41q1 -49 -49 -76t-109 -29zM541 242q19 -4 24 -16.5t4 -41.5q-3 -87 -16 -135q-8 -28 -26 -38.5t-61 -10.5h-386q-34 0 -48 8t-14 28q0 18 7.5 28.5t18 17.5t21 17.5t18 36t7.5 66.5v308
q0 43 -11 68.5t-24 33.5t-24 20.5t-11 31.5q0 20 13.5 28t48.5 8h208q34 0 47.5 -8t13.5 -28q0 -19 -11 -31.5t-24.5 -20.5t-24.5 -33.5t-11 -68.5v-385q0 -23 14 -33t53 -10h28q19 0 34 7t30 27.5t23.5 35.5t27.5 53q23 45 51 37z" />
    <glyph glyph-name="lacute" unicode="&#x13a;" horiz-adv-x="329" 
d="M96 782q-22 8 -16 26q6 15 29 41.5t49 48.5q60 50 95 38q26 -10 37 -32.5t0 -50.5q-16 -45 -83 -66.5t-111 -4.5zM76 146l-2 389q0 22 -11 36.5t-22.5 25t-11.5 22.5t7.5 19.5t26.5 16.5q29 14 90.5 34.5t75.5 20.5q27 0 27 -38l-1 -137v-389q0 -31 8 -49t17 -23
t17 -15.5t8 -28.5t-11.5 -24t-36.5 -6h-180q-52 0 -52 32q0 17 8 27t17.5 15t17.5 23t8 49z" />
    <glyph glyph-name="uni013B" unicode="&#x13b;" horiz-adv-x="596" 
d="M541 242q19 -4 24 -16.5t4 -41.5q-3 -87 -16 -135q-8 -28 -26 -38.5t-61 -10.5h-386q-34 0 -48 8t-14 28q0 18 7.5 28.5t18 17.5t21 17.5t18 36t7.5 66.5v308q0 43 -11 68.5t-24 33.5t-24 20.5t-11 31.5q0 20 13.5 28t48.5 8h208q34 0 47.5 -8t13.5 -28q0 -19 -11 -31.5
t-24.5 -20.5t-24.5 -33.5t-11 -68.5v-385q0 -23 14 -33t53 -10h28q19 0 34 7t30 27.5t23.5 35.5t27.5 53q23 45 51 37zM287 -45q33 0 53.5 -21.5t20.5 -64.5q0 -61 -36.5 -107.5t-72.5 -46.5q-17 0 -17 14q0 6 17.5 25t17.5 36q0 13 -12.5 25t-25 29.5t-12.5 43.5
q0 28 19 47.5t48 19.5z" />
    <glyph glyph-name="uni013C" unicode="&#x13c;" horiz-adv-x="329" 
d="M76 146l-2 389q0 22 -11 36.5t-22.5 25t-11.5 22.5t7.5 19.5t26.5 16.5q29 14 90.5 34.5t75.5 20.5q27 0 27 -38l-1 -137v-389q0 -31 8 -49t17 -23t17 -15.5t8 -28.5t-11.5 -24t-36.5 -6h-180q-52 0 -52 32q0 17 8 27t17.5 15t17.5 23t8 49zM125 -285q-17 0 -17 14
q0 6 17.5 25t17.5 36q0 13 -12.5 25t-25 29.5t-12.5 43.5q0 28 19.5 47.5t47.5 19.5q33 0 53.5 -21.5t20.5 -64.5q0 -61 -36.5 -107.5t-72.5 -46.5z" />
    <glyph glyph-name="Lcaron" unicode="&#x13d;" horiz-adv-x="596" 
d="M402 458q-24 0 -20 26q2 17 5.5 59t6.5 70.5t4 35.5q8 62 58 62q28 0 44 -18t16 -45q0 -48 -42 -119t-72 -71zM541 242q19 -4 24 -16.5t4 -41.5q-3 -87 -16 -135q-8 -28 -26 -38.5t-61 -10.5h-386q-34 0 -48 8t-14 28q0 18 7.5 28.5t18 17.5t21 17.5t18 36t7.5 66.5v308
q0 43 -11 68.5t-24 33.5t-24 20.5t-11 31.5q0 20 13.5 28t48.5 8h208q34 0 47.5 -8t13.5 -28q0 -19 -11 -31.5t-24.5 -20.5t-24.5 -33.5t-11 -68.5v-385q0 -23 14 -33t53 -10h28q19 0 34 7t30 27.5t23.5 35.5t27.5 53q23 45 51 37z" />
    <glyph glyph-name="lcaron" unicode="&#x13e;" horiz-adv-x="329" 
d="M322 458q-24 0 -20 26q2 17 5.5 59t6.5 70.5t4 35.5q8 62 58 62q28 0 44 -18t16 -45q0 -48 -42 -119t-72 -71zM76 146l-2 389q0 22 -11 36.5t-22.5 25t-11.5 22.5t7.5 19.5t26.5 16.5q29 14 90.5 34.5t75.5 20.5q27 0 27 -38l-1 -137v-389q0 -31 8 -49t17 -23t17 -15.5
t8 -28.5t-11.5 -24t-36.5 -6h-180q-52 0 -52 32q0 17 8 27t17.5 15t17.5 23t8 49z" />
    <glyph glyph-name="Lslash" unicode="&#x141;" horiz-adv-x="596" 
d="M541 242q19 -4 24 -16.5t4 -41.5q-3 -87 -16 -135q-8 -28 -26 -38.5t-61 -10.5h-386q-34 0 -48 8t-14 28q0 18 7.5 28.5t18 17.5t21 17.5t18 36t7.5 66.5v52l-26 -15q-28 -15 -46 19q-23 35 6 52l66 38v162q0 43 -11 68.5t-24 33.5t-24 20.5t-11 31.5q0 20 13.5 28
t48.5 8h208q34 0 47.5 -8t13.5 -28q0 -19 -11 -31.5t-24.5 -20.5t-24.5 -33.5t-11 -68.5v-52l18 10q28 16 49 -20q10 -16 9 -28t-18 -22l-58 -34v-239q0 -23 14 -33t53 -10h28q19 0 34 7t30 27.5t23.5 35.5t27.5 53q23 45 51 37z" />
    <glyph glyph-name="lslash" unicode="&#x142;" horiz-adv-x="329" 
d="M338 437q10 -16 9 -28t-18 -22l-74 -43v-198q0 -31 8 -49t17 -23t17 -15.5t8 -28.5t-11.5 -24t-36.5 -6h-180q-52 0 -52 32q0 17 8 27t17.5 15t17.5 23t8 49v94l-21 -12q-28 -15 -46 19q-23 35 6 52l60 35l-1 201q0 22 -11 36.5t-22.5 25t-11.5 22.5t7.5 19.5t26.5 16.5
q29 14 90.5 34.5t75.5 20.5q27 0 27 -38l-1 -137v-98l34 20q28 16 49 -20z" />
    <glyph glyph-name="Nacute" unicode="&#x143;" horiz-adv-x="775" 
d="M392 750q-59 0 -59 23q-1 15 24.5 44t47.5 47q56 49 86 50q22 0 40 -18t19 -41q1 -49 -49 -76t-109 -29zM598 699h109q30 0 40.5 -6.5t10.5 -24.5q0 -15 -27.5 -41t-27.5 -57v-517q0 -29 -11 -41t-37 -12q-24 0 -36.5 11t-12.5 27q0 20 -8 33.5t-28 34.5l-386 371v-347
q1 -31 28.5 -56.5t27.5 -42.5q0 -18 -10.5 -24t-36.5 -6h-110q-29 0 -39.5 7t-10.5 24q0 15 27.5 41t27.5 57v368q0 41 -7.5 66.5t-18 36t-21 17.5t-18 17.5t-7.5 28.5q0 20 14 28t48 8h116q31 0 65 -32l347 -333v235q0 31 -27.5 56.5t-27.5 42.5q0 18 10.5 24t36.5 6z" />
    <glyph glyph-name="nacute" unicode="&#x144;" horiz-adv-x="658" 
d="M242 562q-22 8 -16 26q6 15 29 41.5t49 48.5q60 50 95 38q26 -10 37 -32.5t0 -50.5q-16 -45 -83 -66.5t-111 -4.5zM569 288l38 -166q5 -20 14 -33.5t17 -19t14.5 -15.5t6.5 -24q0 -18 -11.5 -24t-36.5 -6h-173q-52 0 -52 32q0 15 13 27.5t22.5 29.5t3.5 46l-34 150
q-20 92 -74 93q-30 0 -48.5 -25.5t-18.5 -65.5v-141q0 -31 8 -49t17 -23t17 -15.5t8 -28.5t-11.5 -24t-36.5 -6h-180q-52 0 -52 32q0 17 8 27t17.5 15t17.5 23t8 49v179q0 7 -1.5 12.5t-6 10.5t-7 8t-9 8.5t-8.5 7.5q-1 1 -5.5 6t-6.5 7.5t-4.5 8.5t-2.5 12q0 14 8 22t27 17
q29 14 81.5 30t66.5 16q27 -1 27 -38v-36q53 73 152 73q46 0 79.5 -15t54 -46t31.5 -62t22 -79z" />
    <glyph glyph-name="uni0145" unicode="&#x145;" horiz-adv-x="775" 
d="M598 699h109q30 0 40.5 -6.5t10.5 -24.5q0 -15 -27.5 -41t-27.5 -57v-517q0 -29 -11 -41t-37 -12q-24 0 -36.5 11t-12.5 27q0 20 -8 33.5t-28 34.5l-386 371v-347q1 -31 28.5 -56.5t27.5 -42.5q0 -18 -10.5 -24t-36.5 -6h-110q-29 0 -39.5 7t-10.5 24q0 15 27.5 41
t27.5 57v368q0 41 -7.5 66.5t-18 36t-21 17.5t-18 17.5t-7.5 28.5q0 20 14 28t48 8h116q31 0 65 -32l347 -333v235q0 31 -27.5 56.5t-27.5 42.5q0 18 10.5 24t36.5 6zM383 -45q33 0 53.5 -21.5t20.5 -64.5q0 -61 -36.5 -107.5t-72.5 -46.5q-17 0 -17 14q0 6 17.5 25t17.5 36
q0 13 -12.5 25t-25 29.5t-12.5 43.5q0 28 19 47.5t48 19.5z" />
    <glyph glyph-name="uni0146" unicode="&#x146;" horiz-adv-x="658" 
d="M569 288l38 -166q5 -20 14 -33.5t17 -19t14.5 -15.5t6.5 -24q0 -18 -11.5 -24t-36.5 -6h-173q-52 0 -52 32q0 15 13 27.5t22.5 29.5t3.5 46l-34 150q-20 92 -74 93q-30 0 -48.5 -25.5t-18.5 -65.5v-141q0 -31 8 -49t17 -23t17 -15.5t8 -28.5t-11.5 -24t-36.5 -6h-180
q-52 0 -52 32q0 17 8 27t17.5 15t17.5 23t8 49v179q0 7 -1.5 12.5t-6 10.5t-7 8t-9 8.5t-8.5 7.5q-1 1 -5.5 6t-6.5 7.5t-4.5 8.5t-2.5 12q0 14 8 22t27 17q29 14 81.5 30t66.5 16q27 -1 27 -38v-36q53 73 152 73q46 0 79.5 -15t54 -46t31.5 -62t22 -79zM307 -45
q33 0 53.5 -21.5t20.5 -64.5q0 -61 -36.5 -107.5t-72.5 -46.5q-17 0 -17 14q0 6 17.5 25t17.5 36q0 13 -12.5 25t-25 29.5t-12.5 43.5q0 28 19 47.5t48 19.5z" />
    <glyph glyph-name="Ncaron" unicode="&#x147;" horiz-adv-x="775" 
d="M419 761q-13 -5 -31 -5t-32 5.5t-20 10t-23.5 22.5t-26.5 27q-34 34 -45 46.5t-10 20.5q1 18 21 18q25 0 65.5 -15t70.5 -36q31 21 70.5 36t64.5 15q19 0 21 -18q0 -3 -1 -5.5t-4 -7t-6 -8t-9 -10t-11 -11t-14 -13.5l-15 -15q-10 -10 -25 -26.5t-21 -21t-19 -9.5z
M598 699h109q30 0 40.5 -6.5t10.5 -24.5q0 -15 -27.5 -41t-27.5 -57v-517q0 -29 -11 -41t-37 -12q-24 0 -36.5 11t-12.5 27q0 20 -8 33.5t-28 34.5l-386 371v-347q1 -31 28.5 -56.5t27.5 -42.5q0 -18 -10.5 -24t-36.5 -6h-110q-29 0 -39.5 7t-10.5 24q0 15 27.5 41t27.5 57
v368q0 41 -7.5 66.5t-18 36t-21 17.5t-18 17.5t-7.5 28.5q0 20 14 28t48 8h116q31 0 65 -32l347 -333v235q0 31 -27.5 56.5t-27.5 42.5q0 18 10.5 24t36.5 6z" />
    <glyph glyph-name="ncaron" unicode="&#x148;" horiz-adv-x="658" 
d="M325 582q-21 0 -37.5 9t-25.5 19.5t-30 38.5q-50 63 -50 88q0 18 20 18q40 0 125 -81q87 81 126 81q20 0 20 -18q0 -26 -53 -92q-4 -6 -12 -16.5t-11 -14l-9 -10.5t-9 -9t-9 -5.5t-12 -4.5t-14.5 -2t-18.5 -1zM569 288l38 -166q5 -20 14 -33.5t17 -19t14.5 -15.5t6.5 -24
q0 -18 -11.5 -24t-36.5 -6h-173q-52 0 -52 32q0 15 13 27.5t22.5 29.5t3.5 46l-34 150q-20 92 -74 93q-30 0 -48.5 -25.5t-18.5 -65.5v-141q0 -31 8 -49t17 -23t17 -15.5t8 -28.5t-11.5 -24t-36.5 -6h-180q-52 0 -52 32q0 17 8 27t17.5 15t17.5 23t8 49v179q0 7 -1.5 12.5
t-6 10.5t-7 8t-9 8.5t-8.5 7.5q-1 1 -5.5 6t-6.5 7.5t-4.5 8.5t-2.5 12q0 14 8 22t27 17q29 14 81.5 30t66.5 16q27 -1 27 -38v-36q53 73 152 73q46 0 79.5 -15t54 -46t31.5 -62t22 -79z" />
    <glyph glyph-name="Omacron" unicode="&#x14c;" horiz-adv-x="796" 
d="M499 768h-223q-35 0 -43.5 6.5t-5.5 29.5q5 30 14.5 37.5t46.5 7.5h224q39 0 49.5 -6.5t6.5 -29.5q-4 -31 -15 -38t-54 -7zM375 -10q-140 0 -237.5 94t-97.5 240q0 161 109 273.5t268 112.5q150 0 242 -98.5t92 -246.5q0 -160 -107.5 -267.5t-268.5 -107.5zM436 89
q133 0 133 181q0 81 -24.5 160.5t-73.5 135.5t-110 56q-68 0 -101.5 -52t-33.5 -137q0 -79 24 -156t73.5 -132.5t112.5 -55.5z" />
    <glyph glyph-name="omacron" unicode="&#x14d;" horiz-adv-x="586" 
d="M394 548h-223q-35 0 -43.5 6.5t-5.5 29.5q5 30 14.5 37.5t46.5 7.5h224q39 0 49.5 -6.5t6.5 -29.5q-4 -31 -15 -38t-54 -7zM267 -10q-101 0 -168 63.5t-67 167.5q0 113 82.5 191t203.5 78q106 0 171 -66t65 -166q0 -115 -82 -191.5t-205 -76.5zM321 73q58 0 58 96
q0 55 -13.5 109.5t-40.5 92.5t-61 38q-20 0 -32.5 -9.5t-18 -27.5t-7 -33.5t-1.5 -37.5q0 -84 33.5 -156t82.5 -72z" />
    <glyph glyph-name="Ohungarumlaut" unicode="&#x150;" horiz-adv-x="796" 
d="M266 755q-42 0 -42 18q0 15 24 42.5t47 47.5q59 52 88 52q24 0 40.5 -16t16.5 -35q0 -40 -60.5 -74.5t-113.5 -34.5zM468 753q-44 2 -42 20q3 29 76 86q64 49 90 48q25 -1 40 -18t14 -36q-2 -40 -64 -71t-114 -29zM375 -10q-140 0 -237.5 94t-97.5 240q0 161 109 273.5
t268 112.5q150 0 242 -98.5t92 -246.5q0 -160 -107.5 -267.5t-268.5 -107.5zM436 89q133 0 133 181q0 81 -24.5 160.5t-73.5 135.5t-110 56q-68 0 -101.5 -52t-33.5 -137q0 -79 24 -156t73.5 -132.5t112.5 -55.5z" />
    <glyph glyph-name="ohungarumlaut" unicode="&#x151;" horiz-adv-x="586" 
d="M192 537q-20 0 -20 16q0 28 36 96q34 59 65 59q24 0 40 -15t16 -42q0 -40 -48 -77t-89 -37zM359 536q-23 0 -23 15q0 31 42 96q37 56 66 56q23 0 38.5 -15t15.5 -41q0 -40 -48.5 -75.5t-90.5 -35.5zM267 -10q-101 0 -168 63.5t-67 167.5q0 113 82.5 191t203.5 78
q106 0 171 -66t65 -166q0 -115 -82 -191.5t-205 -76.5zM321 73q58 0 58 96q0 55 -13.5 109.5t-40.5 92.5t-61 38q-20 0 -32.5 -9.5t-18 -27.5t-7 -33.5t-1.5 -37.5q0 -84 33.5 -156t82.5 -72z" />
    <glyph glyph-name="OE" unicode="&#x152;" horiz-adv-x="1141" 
d="M1087 202q28 -11 17 -63q-12 -61 -27 -100q-9 -24 -28 -31.5t-65 -7.5h-379q-30 0 -30 30v14q-91 -54 -200 -54q-140 0 -237.5 94t-97.5 240q0 161 109 273.5t268 112.5q88 0 158 -36q3 26 30 26h362q46 0 65 -7.5t28 -31.5q15 -39 27 -100q11 -52 -17 -63
q-30 -10 -55 27q-34 48 -68.5 70.5t-78.5 22.5h-39q-46 0 -61 -6.5t-15 -21.5v-175l95 -1q35 0 62.5 17.5t44.5 17.5q28 0 34 -27l29 -143q5 -25 -0.5 -34.5t-23.5 -13.5q-16 -3 -29.5 6t-24.5 25t-22.5 32t-29.5 28t-40 12h-95v-224q0 -15 15 -21.5t61 -6.5h56
q44 0 78.5 22.5t68.5 70.5q26 37 55 27zM436 89q133 0 133 181q0 81 -24.5 160.5t-73.5 135.5t-110 56q-68 0 -101.5 -52t-33.5 -137q0 -79 24 -156t73.5 -132.5t112.5 -55.5z" />
    <glyph glyph-name="oe" unicode="&#x153;" horiz-adv-x="891" 
d="M834 177q18 16 30.5 4t4.5 -37q-17 -55 -85 -104.5t-163 -49.5q-113 0 -180 70q-71 -71 -167 -71q-101 0 -171.5 65t-70.5 175q0 107 74.5 185t183.5 78q106 0 172 -75q78 73 180 73q92 0 144.5 -48t60.5 -118q3 -23 -21 -38q-120 -61 -245 -112q36 -59 119 -59
q64 0 134 62zM318 73q61 0 61 95q0 89 -30 165.5t-80 81.5q-21 1 -35 -8t-20 -27t-8 -33.5t-2 -35.5q0 -91 32.5 -164.5t81.5 -73.5zM586 405q-44 -19 -44 -95q0 -41 11 -66q54 19 105 46q1 1 5 2.5t5.5 2.5t5 2.5t4.5 3t3.5 4t3.5 4.5t2 5t1 6.5t-0.5 8t-2.5 9.5
q-15 41 -42 60t-57 7z" />
    <glyph glyph-name="Racute" unicode="&#x154;" horiz-adv-x="726" 
d="M259 750q-59 0 -59 23q-1 15 24.5 44t47.5 47q56 49 86 50q22 0 40 -18t19 -41q1 -49 -49 -76t-109 -29zM559 252l61 -105q17 -30 40.5 -47t36 -28.5t12.5 -35.5q0 -20 -13.5 -28t-49.5 -8h-187q-48 0 -48 36q0 16 12.5 35.5t17 32.5t-10.5 48l-37 65q-11 -1 -33 -1h-60
q-20 0 -20 -20v-6q0 -43 11 -68.5t23.5 -33.5t23.5 -20.5t11 -31.5q0 -20 -13 -28t-48 -8h-208q-34 0 -48 8t-14 28q0 19 11 31.5t25 20.5t25 33.5t11 68.5v308q0 41 -7.5 66.5t-18 36t-21 17.5t-18 17.5t-7.5 28.5q0 20 14 28t48 8h252q155 0 242.5 -71t87.5 -190
q0 -135 -103 -187zM349 294q123 0 123 131q0 94 -43.5 147t-103.5 53q-29 0 -37 -5.5t-8 -21.5v-269q0 -20 17 -27.5t52 -7.5z" />
    <glyph glyph-name="racute" unicode="&#x155;" horiz-adv-x="486" 
d="M190 565q-22 8 -16 26q6 15 29 41.5t49 48.5q60 50 95 38q26 -10 37 -32.5t0 -50.5q-16 -45 -83 -66.5t-111 -4.5zM364 490q46 0 73 -28t27 -75q0 -39 -16 -60.5t-42 -21.5q-19 0 -33 9.5t-21 20.5t-20.5 20.5t-30.5 9.5q-51 0 -51 -79v-140q0 -31 8 -49t17 -23t17 -15.5
t8 -28.5t-11.5 -24t-36.5 -6h-180q-52 0 -52 32q0 17 8 27t17.5 15t17.5 23t8 49v179q0 7 -1.5 12.5t-6 10.5t-7 8t-9 8.5t-8.5 7.5q-1 1 -5.5 6t-6.5 7.5t-4.5 8.5t-2.5 12q0 14 8 22t27 17q29 14 81.5 30t66.5 16q27 -1 27 -38v-40q54 77 134 77z" />
    <glyph glyph-name="uni0156" unicode="&#x156;" horiz-adv-x="726" 
d="M559 252l61 -105q17 -30 40.5 -47t36 -28.5t12.5 -35.5q0 -20 -13.5 -28t-49.5 -8h-187q-48 0 -48 36q0 16 12.5 35.5t17 32.5t-10.5 48l-37 65q-11 -1 -33 -1h-60q-20 0 -20 -20v-6q0 -43 11 -68.5t23.5 -33.5t23.5 -20.5t11 -31.5q0 -20 -13 -28t-48 -8h-208
q-34 0 -48 8t-14 28q0 19 11 31.5t25 20.5t25 33.5t11 68.5v308q0 41 -7.5 66.5t-18 36t-21 17.5t-18 17.5t-7.5 28.5q0 20 14 28t48 8h252q155 0 242.5 -71t87.5 -190q0 -135 -103 -187zM349 294q123 0 123 131q0 94 -43.5 147t-103.5 53q-29 0 -37 -5.5t-8 -21.5v-269
q0 -20 17 -27.5t52 -7.5zM330 -45q33 0 53.5 -21.5t20.5 -64.5q0 -61 -36.5 -107.5t-72.5 -46.5q-17 0 -17 14q0 6 17.5 25t17.5 36q0 13 -12.5 25t-25 29.5t-12.5 43.5q0 28 19.5 47.5t47.5 19.5z" />
    <glyph glyph-name="uni0157" unicode="&#x157;" horiz-adv-x="486" 
d="M364 490q46 0 73 -28t27 -75q0 -39 -16 -60.5t-42 -21.5q-19 0 -33 9.5t-21 20.5t-20.5 20.5t-30.5 9.5q-51 0 -51 -79v-140q0 -31 8 -49t17 -23t17 -15.5t8 -28.5t-11.5 -24t-36.5 -6h-180q-52 0 -52 32q0 17 8 27t17.5 15t17.5 23t8 49v179q0 7 -1.5 12.5t-6 10.5t-7 8
t-9 8.5t-8.5 7.5q-1 1 -5.5 6t-6.5 7.5t-4.5 8.5t-2.5 12q0 14 8 22t27 17q29 14 81.5 30t66.5 16q27 -1 27 -38v-40q54 77 134 77zM153 -45q33 0 53.5 -21.5t20.5 -64.5q0 -61 -36.5 -107.5t-72.5 -46.5q-17 0 -17 14q0 6 17.5 25t17.5 36q0 13 -12.5 25t-25 29.5
t-12.5 43.5q0 28 19 47.5t48 19.5z" />
    <glyph glyph-name="Rcaron" unicode="&#x158;" horiz-adv-x="726" 
d="M285 761q-13 -5 -31 -5t-32 5.5t-20 10t-23.5 22.5t-26.5 27q-34 34 -45 46.5t-10 20.5q1 18 21 18q25 0 65.5 -15t70.5 -36q31 21 70.5 36t64.5 15q19 0 21 -18q0 -3 -1 -5.5t-4 -7t-6 -8t-9 -10t-11 -11t-14 -13.5l-15 -15q-10 -10 -25 -26.5t-21 -21t-19 -9.5z
M559 252l61 -105q17 -30 40.5 -47t36 -28.5t12.5 -35.5q0 -20 -13.5 -28t-49.5 -8h-187q-48 0 -48 36q0 16 12.5 35.5t17 32.5t-10.5 48l-37 65q-11 -1 -33 -1h-60q-20 0 -20 -20v-6q0 -43 11 -68.5t23.5 -33.5t23.5 -20.5t11 -31.5q0 -20 -13 -28t-48 -8h-208q-34 0 -48 8
t-14 28q0 19 11 31.5t25 20.5t25 33.5t11 68.5v308q0 41 -7.5 66.5t-18 36t-21 17.5t-18 17.5t-7.5 28.5q0 20 14 28t48 8h252q155 0 242.5 -71t87.5 -190q0 -135 -103 -187zM349 294q123 0 123 131q0 94 -43.5 147t-103.5 53q-29 0 -37 -5.5t-8 -21.5v-269q0 -20 17 -27.5
t52 -7.5z" />
    <glyph glyph-name="rcaron" unicode="&#x159;" horiz-adv-x="486" 
d="M273 585q-21 0 -37.5 9t-25.5 19.5t-30 38.5q-50 63 -50 88q0 18 20 18q40 0 125 -81q87 81 126 81q20 0 20 -18q0 -26 -53 -92q-4 -6 -12 -16.5t-11 -14l-9 -10.5t-9 -9t-9 -5.5t-12 -4.5t-14.5 -2t-18.5 -1zM364 490q46 0 73 -28t27 -75q0 -39 -16 -60.5t-42 -21.5
q-19 0 -33 9.5t-21 20.5t-20.5 20.5t-30.5 9.5q-51 0 -51 -79v-140q0 -31 8 -49t17 -23t17 -15.5t8 -28.5t-11.5 -24t-36.5 -6h-180q-52 0 -52 32q0 17 8 27t17.5 15t17.5 23t8 49v179q0 7 -1.5 12.5t-6 10.5t-7 8t-9 8.5t-8.5 7.5q-1 1 -5.5 6t-6.5 7.5t-4.5 8.5t-2.5 12
q0 14 8 22t27 17q29 14 81.5 30t66.5 16q27 -1 27 -38v-40q54 77 134 77z" />
    <glyph glyph-name="Sacute" unicode="&#x15a;" horiz-adv-x="651" 
d="M299 749q-59 0 -59 23q-1 15 24.5 44t47.5 47q56 49 86 50q22 0 40 -18t19 -41q1 -49 -49 -76t-109 -29zM323 -9q-43 0 -94 11.5t-57 11.5q-19 0 -35 -12t-27 -12q-30 0 -39 54q-18 105 -18 151q-2 55 29 55q5 0 9.5 -1.5t8 -3.5t7.5 -7.5t6.5 -9t9 -13.5t10.5 -16
q82 -126 203 -126q35 1 52 20t16 46q0 19 -11.5 37t-38 37t-48 31t-60.5 33q-37 20 -55.5 30.5t-44.5 27.5t-38 30.5t-25 33t-18 42t-5 50.5q0 92 78.5 155t186.5 63q31 0 72 -8t46 -8q15 0 30 8t27 8q32 0 43 -52q15 -77 15 -127q2 -55 -34 -55q-12 0 -22.5 10.5
t-32.5 40.5q-77 105 -151 105q-35 0 -55 -18t-20 -49q0 -37 34 -68t120 -76q49 -25 70.5 -37t53.5 -34t45 -39.5t23 -43t10 -56.5q-1 -101 -83 -160t-193 -59z" />
    <glyph glyph-name="sacute" unicode="&#x15b;" horiz-adv-x="542" 
d="M184 562q-22 8 -16 26q6 15 29 41.5t49 48.5q60 50 95 38q26 -10 37 -32.5t0 -50.5q-16 -45 -83 -66.5t-111 -4.5zM120 -10q-16 0 -26.5 10t-22.5 37q-31 74 -36 100q-7 37 15 50q13 8 28 0t42 -31q41 -35 57 -47.5t51.5 -31t65.5 -18.5q31 0 31 29q0 21 -32.5 42.5
t-106.5 55.5q-62 28 -97.5 64t-35.5 93q0 71 53.5 109t120.5 38q33 0 74 -7.5t54 -7.5t26.5 7.5t24.5 7.5q13 0 22 -8.5t25 -36.5q16 -32 25 -55q17 -47 -10 -61q-4 -2 -7.5 -2.5t-7.5 0t-7 0.5t-7.5 2.5t-7 4t-8.5 5t-8.5 5.5t-9 6.5t-9.5 6.5q-90 60 -133 60
q-20 0 -29 -8.5t-9 -19.5q0 -18 24.5 -35.5t83.5 -45.5q94 -44 134 -80t40 -87q0 -71 -57 -111t-136 -40q-55 0 -103.5 10.5t-50.5 10.5q-6 0 -17.5 -10.5t-22.5 -10.5z" />
    <glyph glyph-name="Scedilla" unicode="&#x15e;" horiz-adv-x="651" 
d="M397 420q49 -25 70.5 -37t53.5 -34t45 -39.5t23 -43t10 -56.5q-1 -100 -81.5 -159t-190.5 -60l-22 -39q94 -17 94 -82q0 -38 -29.5 -63t-73.5 -25q-61 0 -91 37q-10 14 0 24.5t29 -0.5q19 -12 35 -12q18 0 28.5 10t10.5 24q0 16 -12.5 26.5t-22 13.5t-29.5 8
q-21 4 -12 20l34 63q-22 3 -54 10.5t-40 7.5q-19 0 -35 -12t-27 -12q-30 0 -39 54q-18 105 -18 151q-2 55 29 55q5 0 9.5 -1.5t8 -3.5t7.5 -7.5t6.5 -9t9 -13.5t10.5 -16q82 -126 203 -126q35 1 52 20t16 46q0 19 -11.5 37t-38 37t-48 31t-60.5 33q-37 20 -55.5 30.5
t-44.5 27.5t-38 30.5t-25 33t-18 42t-5 50.5q0 92 78.5 155t186.5 63q31 0 72 -8t46 -8q15 0 30 8t27 8q32 0 43 -52q15 -77 15 -127q2 -55 -34 -55q-12 0 -22.5 10.5t-32.5 40.5q-77 105 -151 105q-35 0 -55 -18t-20 -49q0 -37 34 -68t120 -76z" />
    <glyph glyph-name="scedilla" unicode="&#x15f;" horiz-adv-x="542" 
d="M314 -10q-18 0 -26 1l-22 -39q94 -17 94 -82q0 -38 -29.5 -63t-73.5 -25q-61 0 -91 37q-10 14 0 24.5t29 -0.5q19 -12 35 -12q18 0 28.5 10t10.5 24q0 16 -12.5 26.5t-22 13.5t-29.5 8q-21 4 -12 20l34 64q-14 2 -28.5 6t-23.5 6t-15 2t-17.5 -10.5t-22.5 -10.5
q-16 0 -26.5 10t-22.5 37q-31 74 -36 100q-7 37 15 50q13 8 28 0t42 -31q41 -35 57 -47.5t51.5 -31t65.5 -18.5q31 0 31 29q0 21 -32.5 42.5t-106.5 55.5q-62 28 -97.5 64t-35.5 93q0 71 53.5 109t120.5 38q33 0 74 -7.5t54 -7.5t26.5 7.5t24.5 7.5q13 0 22 -8.5t25 -36.5
q16 -32 25 -55q17 -47 -10 -61q-4 -2 -7.5 -2.5t-7.5 0t-7 0.5t-7.5 2.5t-7 4t-8.5 5t-8.5 5.5t-9 6.5t-9.5 6.5q-90 60 -133 60q-20 0 -29 -8.5t-9 -19.5q0 -18 24.5 -35.5t83.5 -45.5q94 -44 134 -80t40 -87q0 -71 -57 -111t-136 -40z" />
    <glyph glyph-name="Scaron" unicode="&#x160;" horiz-adv-x="651" 
d="M158 905q25 0 65.5 -15t70.5 -36q31 21 70.5 36t64.5 15q19 0 21 -18q0 -3 -1 -5.5t-4 -7t-6 -8t-9 -10t-11 -11t-14 -13.5l-15 -15q-10 -10 -25 -26.5t-21 -21t-19 -9.5t-31 -5t-32 5.5t-20 10t-23.5 22.5t-26.5 27q-34 34 -45 46.5t-10 20.5q1 18 21 18zM323 -9
q-43 0 -94 11.5t-57 11.5q-19 0 -35 -12t-27 -12q-30 0 -39 54q-18 105 -18 151q-2 55 29 55q5 0 9.5 -1.5t8 -3.5t7.5 -7.5t6.5 -9t9 -13.5t10.5 -16q82 -126 203 -126q35 1 52 20t16 46q0 19 -11.5 37t-38 37t-48 31t-60.5 33q-37 20 -55.5 30.5t-44.5 27.5t-38 30.5
t-25 33t-18 42t-5 50.5q0 92 78.5 155t186.5 63q31 0 72 -8t46 -8q15 0 30 8t27 8q32 0 43 -52q15 -77 15 -127q2 -55 -34 -55q-12 0 -22.5 10.5t-32.5 40.5q-77 105 -151 105q-35 0 -55 -18t-20 -49q0 -37 34 -68t120 -76q49 -25 70.5 -37t53.5 -34t45 -39.5t23 -43
t10 -56.5q-1 -101 -83 -160t-193 -59z" />
    <glyph glyph-name="scaron" unicode="&#x161;" horiz-adv-x="542" 
d="M144 755q40 0 125 -81q87 81 126 81q20 0 20 -18q0 -26 -53 -92q-4 -6 -12 -16.5t-11 -14l-9 -10.5t-9 -9t-9 -5.5t-12 -4.5t-14.5 -2t-18.5 -1q-21 0 -37.5 9t-25.5 19.5t-30 38.5q-50 63 -50 88q0 18 20 18zM120 -10q-16 0 -26.5 10t-22.5 37q-31 74 -36 100
q-7 37 15 50q13 8 28 0t42 -31q41 -35 57 -47.5t51.5 -31t65.5 -18.5q31 0 31 29q0 21 -32.5 42.5t-106.5 55.5q-62 28 -97.5 64t-35.5 93q0 71 53.5 109t120.5 38q33 0 74 -7.5t54 -7.5t26.5 7.5t24.5 7.5q13 0 22 -8.5t25 -36.5q16 -32 25 -55q17 -47 -10 -61
q-4 -2 -7.5 -2.5t-7.5 0t-7 0.5t-7.5 2.5t-7 4t-8.5 5t-8.5 5.5t-9 6.5t-9.5 6.5q-90 60 -133 60q-20 0 -29 -8.5t-9 -19.5q0 -18 24.5 -35.5t83.5 -45.5q94 -44 134 -80t40 -87q0 -71 -57 -111t-136 -40q-55 0 -103.5 10.5t-50.5 10.5q-6 0 -17.5 -10.5t-22.5 -10.5z" />
    <glyph glyph-name="uni0162" unicode="&#x162;" horiz-adv-x="660" 
d="M643 516q2 -55 -29 -55q-22 0 -38 34q-32 65 -55.5 91t-60.5 26q-34 0 -34 -39v-383q0 -43 11 -68.5t23.5 -33.5t23.5 -20.5t11 -31.5q0 -20 -13 -28t-48 -8h-51l-27 -48q94 -17 94 -82q0 -38 -29.5 -63t-73.5 -25q-61 0 -91 37q-10 14 0 24.5t29 -0.5q19 -12 35 -12
q18 0 28.5 10t10.5 24q0 16 -12.5 26.5t-22 13.5t-29.5 8q-21 4 -12 20l36 67h-94q-34 0 -47.5 8t-13.5 28q0 19 11 31.5t24.5 20.5t24.5 33.5t11 68.5v383q0 39 -35 39q-37 0 -60 -26t-56 -90q-17 -35 -38 -35q-31 0 -29 55q3 87 16 135q7 27 25.5 38t61.5 11h420
q43 0 61.5 -11t25.5 -38q13 -48 16 -135z" />
    <glyph glyph-name="uni0163" unicode="&#x163;" horiz-adv-x="420" 
d="M367 134q17 12 28.5 2.5t6.5 -27.5q-16 -46 -58.5 -81.5t-105.5 -37.5l-21 -38q94 -17 94 -82q0 -38 -29.5 -63t-73.5 -25q-61 0 -91 37q-10 14 0 24.5t29 -0.5q19 -12 35 -12q18 0 28.5 10t10.5 24q0 16 -12.5 26.5t-22 13.5t-29.5 8q-21 4 -12 20l34 64
q-109 31 -109 167v74q0 99 3 163h-18q-24 0 -33 7.5t-9 22.5q0 29 22 49q75 67 146 106q34 17 46 17t20.5 -10t7.5 -22q-1 -13 -2 -28.5t-2 -34t-2 -28.5h98q40 0 32 -45q-7 -44 -48 -42l-83 3q0 -33 0.5 -86.5t0.5 -71.5q1 -79 12.5 -104t40.5 -25q27 0 66 25z" />
    <glyph glyph-name="Tcaron" unicode="&#x164;" horiz-adv-x="660" 
d="M206 906q25 0 65.5 -15t70.5 -36q31 21 70.5 36t64.5 15q19 0 21 -18q0 -3 -1 -5.5t-4 -7t-6 -8t-9 -10t-11 -11t-14 -13.5l-15 -15q-10 -10 -25 -26.5t-21 -21t-19 -9.5t-31 -5t-32 5.5t-20 10t-23.5 22.5t-26.5 27q-34 34 -45 46.5t-10 20.5q1 18 21 18zM426 573v-383
q0 -43 11 -68.5t23.5 -33.5t23.5 -20.5t11 -31.5q0 -20 -13 -28t-48 -8h-209q-34 0 -47.5 8t-13.5 28q0 19 11 31.5t24.5 20.5t24.5 33.5t11 68.5v383q0 39 -35 39q-37 0 -60 -26t-56 -90q-17 -35 -38 -35q-31 0 -29 55q3 87 16 135q7 27 25.5 38t61.5 11h420q43 0 61.5 -11
t25.5 -38q13 -48 16 -135q2 -55 -29 -55q-22 0 -38 34q-32 65 -55.5 91t-60.5 26q-34 0 -34 -39z" />
    <glyph glyph-name="tcaron" unicode="&#x165;" horiz-adv-x="420" 
d="M319 553q-24 0 -20 26q2 17 5.5 59t6.5 70.5t4 35.5q8 62 58 62q28 0 44 -18t16 -45q0 -48 -42 -119t-72 -71zM367 134q17 12 28.5 2.5t6.5 -27.5q-16 -47 -60.5 -83t-109.5 -36q-75 0 -119 45t-44 129v74q0 99 3 163h-18q-24 0 -33 7.5t-9 22.5q0 29 22 49
q75 67 146 106q34 17 46 17t20.5 -10t7.5 -22q-1 -13 -2 -28.5t-2 -34t-2 -28.5h98q40 0 32 -45q-7 -44 -48 -42l-83 3q0 -33 0.5 -86.5t0.5 -71.5q1 -79 12.5 -104t40.5 -25q27 0 66 25z" />
    <glyph glyph-name="Tbar" unicode="&#x166;" horiz-adv-x="660" 
d="M643 516q2 -55 -29 -55q-22 0 -38 34q-32 65 -55.5 91t-60.5 26q-34 0 -34 -39v-182h50q31 0 31 -32q0 -29 -6 -39.5t-25 -10.5h-50v-119q0 -43 11 -68.5t23.5 -33.5t23.5 -20.5t11 -31.5q0 -20 -13 -28t-48 -8h-209q-34 0 -47.5 8t-13.5 28q0 19 11 31.5t24.5 20.5
t24.5 33.5t11 68.5v119h-25q-20 0 -25.5 11t-5.5 39q0 32 31 32h25v182q0 39 -35 39q-37 0 -60 -26t-56 -90q-17 -35 -38 -35q-31 0 -29 55q3 87 16 135q7 27 25.5 38t61.5 11h420q43 0 61.5 -11t25.5 -38q13 -48 16 -135z" />
    <glyph glyph-name="tbar" unicode="&#x167;" horiz-adv-x="420" 
d="M367 134q17 12 28.5 2.5t6.5 -27.5q-16 -47 -60.5 -83t-109.5 -36q-75 0 -119 45t-44 129v96h-22q-32 0 -32 36q0 35 32 35h23q0 30 2 70h-18q-24 0 -33 7.5t-9 22.5q0 29 22 49q75 67 146 106q34 17 46 17t20.5 -10t7.5 -22q-1 -13 -2 -28.5t-2 -34t-2 -28.5h98
q40 0 32 -45q-7 -44 -48 -42l-83 3v-65h58q32 0 32 -35q0 -36 -32 -36h-57v-22q1 -79 12.5 -104t40.5 -25q27 0 66 25z" />
    <glyph glyph-name="Umacron" unicode="&#x16a;" horiz-adv-x="749" 
d="M505 768h-223q-35 0 -43.5 6.5t-5.5 29.5q5 30 14.5 37.5t46.5 7.5h224q39 0 49.5 -6.5t6.5 -29.5q-4 -31 -15 -38t-54 -7zM376 -10q-153 0 -223.5 81.5t-70.5 262.5v177q0 35 -7 58t-17.5 33t-21 17.5t-17.5 18t-7 26.5q0 20 13 28t49 8h208q35 0 48.5 -8t13.5 -28
q0 -16 -7.5 -26.5t-18 -18t-21 -17.5t-18 -33t-7.5 -58v-213q0 -99 38.5 -151.5t111.5 -52.5q72 0 111.5 55t39.5 161l2 260q0 31 -27.5 56.5t-27.5 42.5q0 18 10.5 24t36.5 6h109q30 0 40.5 -6.5t10.5 -24.5q0 -15 -27.5 -41t-28.5 -57v-228q-1 -194 -72 -273t-223 -79z
" />
    <glyph glyph-name="umacron" unicode="&#x16b;" horiz-adv-x="611" 
d="M459 548h-223q-35 0 -43.5 6.5t-5.5 29.5q5 30 14.5 37.5t46.5 7.5h224q39 0 49.5 -6.5t6.5 -29.5q-4 -31 -15 -38t-54 -7zM558 452l-1 -137l-1 -147q0 -24 9 -40t19.5 -21.5t19.5 -12.5t9 -17q0 -24 -39 -44q-28 -14 -72.5 -28t-67.5 -14q-25 0 -36.5 14.5t-13.5 51.5
l-1 12q-26 -36 -67 -57t-81 -21q-85 0 -126.5 55.5t-41.5 148.5l-1 120q0 22 -11.5 36.5t-23 25t-11.5 22.5t7.5 19.5t26.5 16.5q29 14 91 34.5t75 20.5q27 0 27 -38l-1 -137v-116q0 -49 11.5 -72.5t42.5 -23.5q31 -1 53 30t25 81l-1 101q0 22 -11.5 36.5t-23 25t-11.5 22.5
t7.5 19.5t26.5 16.5q29 14 90.5 34.5t75.5 20.5q27 0 27 -38z" />
    <glyph glyph-name="Uring" unicode="&#x16e;" horiz-adv-x="749" 
d="M404 733q-49 0 -82 30.5t-33 78.5q0 49 34.5 80.5t84.5 31.5q49 0 82 -30t33 -79q0 -50 -34.5 -81t-84.5 -31zM408 801q19 0 30 13.5t9 32.5q-2 18 -14 30t-29 12q-19 0 -30.5 -12.5t-9.5 -32.5q2 -19 14.5 -31t29.5 -12zM376 -10q-153 0 -223.5 81.5t-70.5 262.5v177
q0 35 -7 58t-17.5 33t-21 17.5t-17.5 18t-7 26.5q0 20 13 28t49 8h208q35 0 48.5 -8t13.5 -28q0 -16 -7.5 -26.5t-18 -18t-21 -17.5t-18 -33t-7.5 -58v-213q0 -99 38.5 -151.5t111.5 -52.5q72 0 111.5 55t39.5 161l2 260q0 31 -27.5 56.5t-27.5 42.5q0 18 10.5 24t36.5 6
h109q30 0 40.5 -6.5t10.5 -24.5q0 -15 -27.5 -41t-28.5 -57v-228q-1 -194 -72 -273t-223 -79z" />
    <glyph glyph-name="uring" unicode="&#x16f;" horiz-adv-x="611" 
d="M357 513q-49 0 -82 30.5t-33 78.5q0 49 34.5 80.5t84.5 31.5q49 0 82 -30t33 -79q0 -50 -34.5 -81t-84.5 -31zM357 669q-19 0 -30.5 -12.5t-9.5 -32.5q2 -19 14.5 -31t29.5 -12q19 0 30 13.5t9 32.5q-2 18 -14 30t-29 12zM558 452l-1 -137l-1 -147q0 -24 9 -40
t19.5 -21.5t19.5 -12.5t9 -17q0 -24 -39 -44q-28 -14 -72.5 -28t-67.5 -14q-25 0 -36.5 14.5t-13.5 51.5l-1 12q-26 -36 -67 -57t-81 -21q-85 0 -126.5 55.5t-41.5 148.5l-1 120q0 22 -11.5 36.5t-23 25t-11.5 22.5t7.5 19.5t26.5 16.5q29 14 91 34.5t75 20.5q27 0 27 -38
l-1 -137v-116q0 -49 11.5 -72.5t42.5 -23.5q31 -1 53 30t25 81l-1 101q0 22 -11.5 36.5t-23 25t-11.5 22.5t7.5 19.5t26.5 16.5q29 14 90.5 34.5t75.5 20.5q27 0 27 -38z" />
    <glyph glyph-name="Uhungarumlaut" unicode="&#x170;" horiz-adv-x="749" 
d="M272 755q-42 0 -42 18q0 15 24 42.5t47 47.5q59 52 88 52q24 0 40.5 -16t16.5 -35q0 -40 -60.5 -74.5t-113.5 -34.5zM474 753q-44 2 -42 20q3 29 76 86q64 49 90 48q25 -1 40 -18t14 -36q-2 -40 -64 -71t-114 -29zM376 -10q-153 0 -223.5 81.5t-70.5 262.5v177
q0 35 -7 58t-17.5 33t-21 17.5t-17.5 18t-7 26.5q0 20 13 28t49 8h208q35 0 48.5 -8t13.5 -28q0 -16 -7.5 -26.5t-18 -18t-21 -17.5t-18 -33t-7.5 -58v-213q0 -99 38.5 -151.5t111.5 -52.5q72 0 111.5 55t39.5 161l2 260q0 31 -27.5 56.5t-27.5 42.5q0 18 10.5 24t36.5 6
h109q30 0 40.5 -6.5t10.5 -24.5q0 -15 -27.5 -41t-28.5 -57v-228q-1 -194 -72 -273t-223 -79z" />
    <glyph glyph-name="uhungarumlaut" unicode="&#x171;" horiz-adv-x="611" 
d="M257 537q-20 0 -20 16q0 28 36 96q34 59 65 59q24 0 40 -15t16 -42q0 -40 -48 -77t-89 -37zM424 536q-23 0 -23 15q0 31 42 96q37 56 66 56q23 0 38.5 -15t15.5 -41q0 -40 -48.5 -75.5t-90.5 -35.5zM558 452l-1 -137l-1 -147q0 -24 9 -40t19.5 -21.5t19.5 -12.5t9 -17
q0 -24 -39 -44q-28 -14 -72.5 -28t-67.5 -14q-25 0 -36.5 14.5t-13.5 51.5l-1 12q-26 -36 -67 -57t-81 -21q-85 0 -126.5 55.5t-41.5 148.5l-1 120q0 22 -11.5 36.5t-23 25t-11.5 22.5t7.5 19.5t26.5 16.5q29 14 91 34.5t75 20.5q27 0 27 -38l-1 -137v-116q0 -49 11.5 -72.5
t42.5 -23.5q31 -1 53 30t25 81l-1 101q0 22 -11.5 36.5t-23 25t-11.5 22.5t7.5 19.5t26.5 16.5q29 14 90.5 34.5t75.5 20.5q27 0 27 -38z" />
    <glyph glyph-name="Uogonek" unicode="&#x172;" horiz-adv-x="749" 
d="M567 699h109q30 0 40.5 -6.5t10.5 -24.5q0 -15 -27.5 -41t-28.5 -57v-228q-1 -152 -44.5 -232t-133.5 -106q-36 -48 -36 -83q0 -20 11.5 -33.5t33.5 -13.5q14 0 31 8q22 11 29 -2.5t-8 -29.5q-35 -42 -96 -42q-47 0 -75 25t-28 64q0 55 54 94q-10 -1 -33 -1
q-153 0 -223.5 81.5t-70.5 262.5v177q0 35 -7 58t-17.5 33t-21 17.5t-17.5 18t-7 26.5q0 20 13 28t49 8h208q35 0 48.5 -8t13.5 -28q0 -16 -7.5 -26.5t-18 -18t-21 -17.5t-18 -33t-7.5 -58v-213q0 -99 38.5 -151.5t111.5 -52.5q72 0 111.5 55t39.5 161l2 260
q0 31 -27.5 56.5t-27.5 42.5q0 18 10.5 24t36.5 6z" />
    <glyph glyph-name="uogonek" unicode="&#x173;" horiz-adv-x="611" 
d="M617 -85q22 11 29 -2.5t-8 -29.5q-35 -42 -96 -42q-47 0 -75 25t-28 64q0 35 23 65q-15 -4 -28 -4q-25 0 -36.5 14.5t-13.5 51.5l-1 12q-26 -36 -67 -57t-81 -21q-85 0 -126.5 55.5t-41.5 148.5l-1 120q0 22 -11.5 36.5t-23 25t-11.5 22.5t7.5 19.5t26.5 16.5
q29 14 91 34.5t75 20.5q27 0 27 -38l-1 -137v-116q0 -49 11.5 -72.5t42.5 -23.5q31 -1 53 30t25 81l-1 101q0 22 -11.5 36.5t-23 25t-11.5 22.5t7.5 19.5t26.5 16.5q29 14 90.5 34.5t75.5 20.5q27 0 27 -38l-1 -137l-1 -147q0 -24 9 -40t19.5 -21.5t19.5 -12.5t9 -17
q0 -24 -38 -44q-34 -44 -34 -79q0 -20 11.5 -33.5t33.5 -13.5q14 0 31 8z" />
    <glyph glyph-name="Wcircumflex" unicode="&#x174;" horiz-adv-x="1091" 
d="M431 749q-19 0 -21 17q-1 12 55 67q9 9 22 23t19 19t16 12t20 9t25 2q18 0 31 -4.5t18.5 -9t21.5 -21.5t25 -26l15.5 -15.5l13.5 -13.5t11 -11.5t9 -10t6 -7.5t4 -7t1 -6q-2 -17 -21 -17q-25 0 -64.5 15t-70.5 35q-31 -20 -71 -35t-65 -15zM928 700h99q62 0 62 -33
q0 -14 -10 -24.5t-23 -18t-27.5 -24t-22.5 -38.5l-180 -523q-10 -31 -71 -41q-46 -6 -62.5 -1.5t-23.5 22.5l-120 366l-116 -347q-9 -31 -71 -40q-43 -5 -59 -1t-22 22l-190 540q-8 24 -22 41.5t-25 24.5t-19 17.5t-8 24.5q0 20 11.5 26.5t35.5 6.5h204q26 0 38.5 -7.5
t12.5 -26.5q0 -16 -12 -30.5t-18 -26.5t3 -50l109 -342l107 293l-15 49q-8 24 -21 41.5t-24 24.5t-19 17.5t-8 24.5q0 20 11.5 26.5t35.5 6.5h204q52 0 52 -34q0 -16 -12 -30.5t-18.5 -27t1.5 -50.5l97 -333l112 337q10 41 3.5 52t-20 25t-13.5 30q0 31 54 31z" />
    <glyph glyph-name="wcircumflex" unicode="&#x175;" horiz-adv-x="895" 
d="M425 534q-20 0 -20 18q0 25 50 88q21 28 30 38.5t25.5 19.5t37.5 9q12 0 20.5 -0.5t16.5 -4t11.5 -4.5t11 -9t9.5 -10.5t12 -16t14 -18.5q53 -66 53 -92q0 -18 -20 -18q-41 1 -126 82q-83 -81 -125 -82zM749 482h85q51 0 51 -31q0 -16 -8 -26t-19 -15.5t-26.5 -22.5
t-27.5 -45l-133 -301q-4 -10 -9 -16t-19.5 -12.5t-39.5 -10.5q-37 -6 -50.5 -2t-19.5 22l-90 230l-82 -211q-10 -27 -63 -39q-41 -8 -55.5 -3.5t-21.5 23.5l-131 319q-12 28 -27 45.5t-26 23t-19 15.5t-8 27q0 31 48 31h194q52 0 52 -32q0 -18 -13 -31.5t-18 -23.5t10 -55
l58 -141l91 238q4 9 8 15t14.5 13t26.5 11q60 15 75 -21l104 -255l61 141q16 44 11.5 54t-18 23.5t-13.5 32.5q0 30 48 30z" />
    <glyph glyph-name="Ycircumflex" unicode="&#x176;" horiz-adv-x="738" 
d="M294 749q-19 0 -21 17q-1 12 55 67q9 9 22 23t19 19t16 12t20 9t25 2q18 0 31 -4.5t18.5 -9t21.5 -21.5t25 -26l15.5 -15.5l13.5 -13.5t11 -11.5t9 -10t6 -7.5t4 -7t1 -6q-2 -17 -21 -17q-25 0 -64.5 15t-70.5 35q-31 -20 -71 -35t-65 -15zM551 699h115q32 0 47.5 -7
t15.5 -26q0 -14 -11.5 -24t-27 -17t-36 -24t-35.5 -40l-152 -246l-3 1v-126q0 -43 11 -68.5t24 -33.5t24 -20.5t11 -31.5q0 -20 -13.5 -28t-48.5 -8h-208q-34 0 -47.5 8t-13.5 28q0 19 11 31.5t24.5 20.5t24.5 33.5t11 68.5v120l-172 258q-20 30 -44.5 47t-36.5 26t-12 28
q0 31 50 31h233q26 0 38.5 -7.5t12.5 -26.5q0 -15 -12.5 -28t-15 -22.5t17.5 -48.5l97 -155l83 147q16 28 16.5 45t-7.5 23.5t-17 17t-9 23.5q0 31 55 31z" />
    <glyph glyph-name="ycircumflex" unicode="&#x177;" horiz-adv-x="614" 
d="M230 534q-20 0 -20 18q0 25 50 88q21 28 30 38.5t25.5 19.5t37.5 9q12 0 20.5 -0.5t16.5 -4t11.5 -4.5t11 -9t9.5 -10.5t12 -16t14 -18.5q53 -66 53 -92q0 -18 -20 -18q-41 1 -126 82q-83 -81 -125 -82zM469 480h85q51 0 51 -31q0 -16 -8 -26t-18.5 -15.5t-25.5 -23.5
t-26 -46l-122 -313q-47 -123 -100 -179t-149 -56q-56 0 -101 29t-45 84q0 36 22 62t59 26q25 0 41.5 -19t23 -41.5t20.5 -41.5t35 -19q22 0 36.5 19t14.5 50q0 25 -12 55l-136 344q-11 28 -26.5 46t-26 23.5t-18.5 15.5t-8 27q0 18 11.5 24t36.5 6h192q51 0 51 -31
q0 -18 -13 -31.5t-18 -24t9 -55.5l73 -187l68 187q13 45 8 55.5t-18.5 24t-13.5 32.5q0 30 48 30z" />
    <glyph glyph-name="Ydieresis" unicode="&#x178;" horiz-adv-x="738" 
d="M365 756q-26 0 -43 16t-17 42q0 33 24 59.5t59 26.5q29 0 47 -17.5t18 -47.5q0 -34 -26 -56.5t-62 -22.5zM550 756q-28 0 -45.5 16t-17.5 42q0 33 24.5 59.5t58.5 26.5q30 0 48 -17.5t18 -47.5q0 -34 -25.5 -56.5t-60.5 -22.5zM551 699h115q32 0 47.5 -7t15.5 -26
q0 -14 -11.5 -24t-27 -17t-36 -24t-35.5 -40l-152 -246l-3 1v-126q0 -43 11 -68.5t24 -33.5t24 -20.5t11 -31.5q0 -20 -13.5 -28t-48.5 -8h-208q-34 0 -47.5 8t-13.5 28q0 19 11 31.5t24.5 20.5t24.5 33.5t11 68.5v120l-172 258q-20 30 -44.5 47t-36.5 26t-12 28q0 31 50 31
h233q26 0 38.5 -7.5t12.5 -26.5q0 -15 -12.5 -28t-15 -22.5t17.5 -48.5l97 -155l83 147q16 28 16.5 45t-7.5 23.5t-17 17t-9 23.5q0 31 55 31z" />
    <glyph glyph-name="Zacute" unicode="&#x179;" horiz-adv-x="644" 
d="M320 750q-59 0 -59 23q-1 15 24.5 44t47.5 47q56 49 86 50q22 0 40 -18t19 -41q1 -49 -49 -76t-109 -29zM614 202q28 -11 17 -63q-12 -61 -27 -100q-9 -24 -28 -31.5t-66 -7.5h-440q-24 0 -31 14.5t5 35.5l328 569h-110q-44 0 -78 -23t-69 -71q-26 -37 -55 -26
q-28 10 -17 62q12 61 27 100q9 24 28 31.5t66 7.5h418q24 0 31 -13.5t-5 -35.5l-324 -569h128q44 0 78 22.5t69 70.5q25 37 55 27z" />
    <glyph glyph-name="zacute" unicode="&#x17a;" horiz-adv-x="537" 
d="M233 562q-22 8 -16 26q6 15 29 41.5t49 48.5q60 50 95 38q26 -10 37 -32.5t0 -50.5q-16 -45 -83 -66.5t-111 -4.5zM500 196q13 -4 14 -18t-3 -29q-5 -48 -23 -102q-8 -24 -19.5 -35.5t-33.5 -11.5h-396q-26 0 -33.5 14.5t7.5 35.5l257 348h-46q-15 0 -29 -2.5t-27.5 -9
t-23.5 -11t-23.5 -15t-19 -14.5t-19 -16t-15.5 -14q-26 -23 -47 -12q-23 11 -9 50q14 40 41 91q13 22 22.5 28.5t31.5 6.5h375q25 0 33 -14.5t-7 -35.5l-257 -348h67q33 0 62 16.5t42.5 32t33.5 43.5q23 28 45 22z" />
    <glyph glyph-name="Zdotaccent" unicode="&#x17b;" horiz-adv-x="644" 
d="M302 745q-35 0 -55 21t-20 51q-1 42 37.5 79t85.5 37q34 1 57 -20t24 -54q0 -46 -39.5 -80t-89.5 -34zM614 202q28 -11 17 -63q-12 -61 -27 -100q-9 -24 -28 -31.5t-66 -7.5h-440q-24 0 -31 14.5t5 35.5l328 569h-110q-44 0 -78 -23t-69 -71q-26 -37 -55 -26
q-28 10 -17 62q12 61 27 100q9 24 28 31.5t66 7.5h418q24 0 31 -13.5t-5 -35.5l-324 -569h128q44 0 78 22.5t69 70.5q25 37 55 27z" />
    <glyph glyph-name="zdotaccent" unicode="&#x17c;" horiz-adv-x="537" 
d="M289 525q-35 0 -55 21t-20 51q-1 42 37.5 79t85.5 37q34 1 57 -20t24 -54q0 -46 -39.5 -80t-89.5 -34zM500 196q13 -4 14 -18t-3 -29q-5 -48 -23 -102q-8 -24 -19.5 -35.5t-33.5 -11.5h-396q-26 0 -33.5 14.5t7.5 35.5l257 348h-46q-15 0 -29 -2.5t-27.5 -9t-23.5 -11
t-23.5 -15t-19 -14.5t-19 -16t-15.5 -14q-26 -23 -47 -12q-23 11 -9 50q14 40 41 91q13 22 22.5 28.5t31.5 6.5h375q25 0 33 -14.5t-7 -35.5l-257 -348h67q33 0 62 16.5t42.5 32t33.5 43.5q23 28 45 22z" />
    <glyph glyph-name="Zcaron" unicode="&#x17d;" horiz-adv-x="644" 
d="M347 761q-13 -5 -31 -5t-32 5.5t-20 10t-23.5 22.5t-26.5 27q-34 34 -45 46.5t-10 20.5q1 18 21 18q25 0 65.5 -15t70.5 -36q31 21 70.5 36t64.5 15q19 0 21 -18q0 -3 -1 -5.5t-4 -7t-6 -8t-9 -10t-11 -11t-14 -13.5l-15 -15q-10 -10 -25 -26.5t-21 -21t-19 -9.5z
M614 202q28 -11 17 -63q-12 -61 -27 -100q-9 -24 -28 -31.5t-66 -7.5h-440q-24 0 -31 14.5t5 35.5l328 569h-110q-44 0 -78 -23t-69 -71q-26 -37 -55 -26q-28 10 -17 62q12 61 27 100q9 24 28 31.5t66 7.5h418q24 0 31 -13.5t-5 -35.5l-324 -569h128q44 0 78 22.5t69 70.5
q25 37 55 27z" />
    <glyph glyph-name="zcaron" unicode="&#x17e;" horiz-adv-x="537" 
d="M316 582q-21 0 -37.5 9t-25.5 19.5t-30 38.5q-50 63 -50 88q0 18 20 18q40 0 125 -81q87 81 126 81q20 0 20 -18q0 -26 -53 -92q-4 -6 -12 -16.5t-11 -14l-9 -10.5t-9 -9t-9 -5.5t-12 -4.5t-14.5 -2t-18.5 -1zM500 196q13 -4 14 -18t-3 -29q-5 -48 -23 -102
q-8 -24 -19.5 -35.5t-33.5 -11.5h-396q-26 0 -33.5 14.5t7.5 35.5l257 348h-46q-15 0 -29 -2.5t-27.5 -9t-23.5 -11t-23.5 -15t-19 -14.5t-19 -16t-15.5 -14q-26 -23 -47 -12q-23 11 -9 50q14 40 41 91q13 22 22.5 28.5t31.5 6.5h375q25 0 33 -14.5t-7 -35.5l-257 -348h67
q33 0 62 16.5t42.5 32t33.5 43.5q23 28 45 22z" />
    <glyph glyph-name="uni0218" unicode="&#x218;" horiz-adv-x="651" 
d="M323 -9q-43 0 -94 11.5t-57 11.5q-19 0 -35 -12t-27 -12q-30 0 -39 54q-18 105 -18 151q-2 55 29 55q5 0 9.5 -1.5t8 -3.5t7.5 -7.5t6.5 -9t9 -13.5t10.5 -16q82 -126 203 -126q35 1 52 20t16 46q0 19 -11.5 37t-38 37t-48 31t-60.5 33q-37 20 -55.5 30.5t-44.5 27.5
t-38 30.5t-25 33t-18 42t-5 50.5q0 92 78.5 155t186.5 63q31 0 72 -8t46 -8q15 0 30 8t27 8q32 0 43 -52q15 -77 15 -127q2 -55 -34 -55q-12 0 -22.5 10.5t-32.5 40.5q-77 105 -151 105q-35 0 -55 -18t-20 -49q0 -37 34 -68t120 -76q49 -25 70.5 -37t53.5 -34t45 -39.5
t23 -43t10 -56.5q-1 -101 -83 -160t-193 -59zM253 -285q-17 0 -17 14q0 6 17.5 25t17.5 36q0 13 -12.5 25t-25 29.5t-12.5 43.5q0 28 19.5 47.5t47.5 19.5q33 0 53.5 -21.5t20.5 -64.5q0 -61 -36.5 -107.5t-72.5 -46.5z" />
    <glyph glyph-name="uni0219" unicode="&#x219;" horiz-adv-x="542" 
d="M120 -10q-16 0 -26.5 10t-22.5 37q-31 74 -36 100q-7 37 15 50q13 8 28 0t42 -31q41 -35 57 -47.5t51.5 -31t65.5 -18.5q31 0 31 29q0 21 -32.5 42.5t-106.5 55.5q-62 28 -97.5 64t-35.5 93q0 71 53.5 109t120.5 38q33 0 74 -7.5t54 -7.5t26.5 7.5t24.5 7.5q13 0 22 -8.5
t25 -36.5q16 -32 25 -55q17 -47 -10 -61q-4 -2 -7.5 -2.5t-7.5 0t-7 0.5t-7.5 2.5t-7 4t-8.5 5t-8.5 5.5t-9 6.5t-9.5 6.5q-90 60 -133 60q-20 0 -29 -8.5t-9 -19.5q0 -18 24.5 -35.5t83.5 -45.5q94 -44 134 -80t40 -87q0 -71 -57 -111t-136 -40q-55 0 -103.5 10.5
t-50.5 10.5q-6 0 -17.5 -10.5t-22.5 -10.5zM214 -285q-17 0 -17 14q0 6 17.5 25t17.5 36q0 13 -12.5 25t-25 29.5t-12.5 43.5q0 28 19 47.5t48 19.5q33 0 53.5 -21.5t20.5 -64.5q0 -61 -36.5 -107.5t-72.5 -46.5z" />
    <glyph glyph-name="uni021A" unicode="&#x21a;" horiz-adv-x="660" 
d="M426 573v-383q0 -43 11 -68.5t23.5 -33.5t23.5 -20.5t11 -31.5q0 -20 -13 -28t-48 -8h-209q-34 0 -47.5 8t-13.5 28q0 19 11 31.5t24.5 20.5t24.5 33.5t11 68.5v383q0 39 -35 39q-37 0 -60 -26t-56 -90q-17 -35 -38 -35q-31 0 -29 55q3 87 16 135q7 27 25.5 38t61.5 11
h420q43 0 61.5 -11t25.5 -38q13 -48 16 -135q2 -55 -29 -55q-22 0 -38 34q-32 65 -55.5 91t-60.5 26q-34 0 -34 -39zM304 -285q-17 0 -17 14q0 6 17.5 25t17.5 36q0 13 -12.5 25t-25 29.5t-12.5 43.5q0 28 19 47.5t48 19.5q33 0 53.5 -21.5t20.5 -64.5q0 -61 -36.5 -107.5
t-72.5 -46.5z" />
    <glyph glyph-name="uni021B" unicode="&#x21b;" horiz-adv-x="420" 
d="M367 134q17 12 28.5 2.5t6.5 -27.5q-16 -47 -60.5 -83t-109.5 -36q-75 0 -119 45t-44 129v74q0 99 3 163h-18q-24 0 -33 7.5t-9 22.5q0 29 22 49q75 67 146 106q34 17 46 17t20.5 -10t7.5 -22q-1 -13 -2 -28.5t-2 -34t-2 -28.5h98q40 0 32 -45q-7 -44 -48 -42l-83 3
q0 -33 0.5 -86.5t0.5 -71.5q1 -79 12.5 -104t40.5 -25q27 0 66 25zM200 -45q33 0 53.5 -21.5t20.5 -64.5q0 -61 -36.5 -107.5t-72.5 -46.5q-17 0 -17 14q0 6 17.5 25t17.5 36q0 13 -12.5 25t-25 29.5t-12.5 43.5q0 28 19.5 47.5t47.5 19.5z" />
    <glyph glyph-name="uni0237" unicode="&#x237;" horiz-adv-x="301" 
d="M68 17l-1 300q0 27 -22.5 49t-22.5 35q0 12 7.5 19.5t26.5 16.5q29 14 90.5 34.5t75.5 20.5q27 0 27 -38l-1 -136l-1 -301v-24q0 -59 -18 -100.5t-49.5 -62.5t-64.5 -29.5t-73 -8.5q-73 0 -95 34q-14 21 5 31q7 4 17 4q41 0 69.5 38t29.5 118z" />
    <glyph glyph-name="circumflex" unicode="&#x2c6;" horiz-adv-x="500" 
d="M140 530q-20 0 -20 18q0 25 50 88q21 28 30 38.5t25.5 19.5t37.5 9q12 0 20.5 -0.5t16.5 -4t11.5 -4.5t11 -9t9.5 -10.5t12 -16t14 -18.5q53 -66 53 -92q0 -18 -20 -18q-41 1 -126 82q-83 -81 -125 -82z" />
    <glyph glyph-name="caron" unicode="&#x2c7;" horiz-adv-x="500" 
d="M140 713q40 0 125 -81q87 81 126 81q20 0 20 -18q0 -26 -53 -92q-4 -6 -12 -16.5t-11 -14l-9 -10.5t-9 -9t-9 -5.5t-12 -4.5t-14.5 -2t-18.5 -1q-21 0 -37.5 9t-25.5 19.5t-30 38.5q-50 63 -50 88q0 18 20 18z" />
    <glyph glyph-name="breve" unicode="&#x2d8;" horiz-adv-x="500" 
d="M250 533q-69 0 -113.5 41t-44.5 105q0 35 20 35q11 0 25 -15q25 -30 50.5 -42t64.5 -12q37 0 62 12t51 42q14 15 25 15q20 0 20 -35q0 -65 -45 -105.5t-115 -40.5z" />
    <glyph glyph-name="dotaccent" unicode="&#x2d9;" horiz-adv-x="500" 
d="M228 521q-35 0 -55 21t-20 51q-1 43 37.5 79.5t85.5 36.5q33 1 56.5 -19.5t24.5 -53.5q0 -46 -39.5 -80t-89.5 -35z" />
    <glyph glyph-name="ring" unicode="&#x2da;" horiz-adv-x="500" 
d="M250 493q-49 0 -82 30.5t-33 78.5q0 49 34.5 80.5t84.5 31.5q49 0 82 -30t33 -79q0 -50 -34.5 -81t-84.5 -31zM254 561q19 0 30 13.5t9 32.5q-2 18 -14 30t-29 12q-19 0 -30.5 -12.5t-9.5 -32.5q2 -19 14.5 -31t29.5 -12z" />
    <glyph glyph-name="ogonek" unicode="&#x2db;" horiz-adv-x="500" 
d="M241 -202q-47 0 -75 25t-28 64q0 72 87 113h56q-41 -52 -41 -89q0 -20 11.5 -33.5t33.5 -13.5q14 0 31 8q22 11 29 -2.5t-8 -29.5q-35 -42 -96 -42z" />
    <glyph glyph-name="tilde" unicode="&#x2dc;" horiz-adv-x="500" 
d="M334 527q-25 0 -83 21t-91 21q-36 0 -36 -30q0 -16 -15 -12q-20 5 -27 35q-2 8 -2 18q0 31 21 55t65 24q29 0 95.5 -21t78.5 -21q37 0 37 30q0 16 15 13q19 -5 27 -33q2 -10 2 -20q0 -31 -21.5 -55.5t-65.5 -24.5z" />
    <glyph glyph-name="hungarumlaut" unicode="&#x2dd;" horiz-adv-x="500" 
d="M95 537q-20 0 -20 16q0 28 36 96q34 59 65 59q24 0 40 -15t16 -42q0 -40 -48 -77t-89 -37zM262 536q-23 0 -23 15q0 31 42 96q37 56 66 56q23 0 38.5 -15t15.5 -41q0 -40 -48.5 -75.5t-90.5 -35.5z" />
    <glyph glyph-name="gravecomb" unicode="&#x300;" 
d="M-117 562q-44 -17 -111 4.5t-83 66.5q-11 28 0 50.5t38 32.5q34 12 95 -38q63 -56 77 -90q6 -18 -16 -26z" />
    <glyph glyph-name="acutecomb" unicode="&#x301;" 
d="M-362 562q-22 8 -16 26q6 15 29 41.5t49 48.5q60 50 95 38q26 -10 37 -32.5t0 -50.5q-16 -45 -83 -66.5t-111 -4.5z" />
    <glyph glyph-name="uni0302" unicode="&#x302;" 
d="M-360 534q-20 0 -20 18q0 25 50 88q21 28 30 38.5t25.5 19.5t37.5 9q12 0 20.5 -0.5t16.5 -4t11.5 -4.5t11 -9t9.5 -10.5t12 -16t14 -18.5q53 -66 53 -92q0 -18 -20 -18q-41 1 -126 82q-83 -81 -125 -82z" />
    <glyph glyph-name="tildecomb" unicode="&#x303;" 
d="M-166 527q-25 0 -83 21t-91 21q-36 0 -36 -30q0 -16 -15 -12q-20 5 -27 35l-2 18q0 31 21 55t65 24q29 0 95.5 -21t78.5 -21q37 0 37 30q0 16 15 13q19 -5 27 -33q2 -10 2 -20q0 -31 -21.5 -55.5t-65.5 -24.5z" />
    <glyph glyph-name="uni0304" unicode="&#x304;" 
d="M-148 548h-223q-35 0 -43.5 6.5t-5.5 29.5q5 30 14.5 37.5t46.5 7.5h224q39 0 49.5 -6.5t6.5 -29.5q-4 -31 -15 -38t-54 -7z" />
    <glyph glyph-name="uni0306" unicode="&#x306;" 
d="M-250 533q-69 0 -113.5 41t-44.5 105q0 35 20 35q11 0 25 -15q25 -30 50.5 -42t64.5 -12q37 0 62 12t51 42q14 15 25 15q20 0 20 -35q0 -65 -45 -105.5t-115 -40.5z" />
    <glyph glyph-name="uni0307" unicode="&#x307;" 
d="M-122 525q-35 0 -55 21t-20 51q-1 42 37.5 79t85.5 37q34 1 57 -20t24 -54q0 -46 -39.5 -80t-89.5 -34z" />
    <glyph glyph-name="uni0308" unicode="&#x308;" 
d="M-391 539q-25 0 -42.5 16.5t-17.5 42.5q0 33 24 59.5t59 26.5q30 0 47.5 -17.5t17.5 -47.5q0 -34 -26 -57t-62 -23zM-206 539q-27 0 -44.5 16t-17.5 43q0 33 24.5 59.5t58.5 26.5q29 0 47 -17.5t18 -47.5q0 -34 -25.5 -57t-60.5 -23z" />
    <glyph glyph-name="uni030A" unicode="&#x30a;" 
d="M-250 513q-49 0 -82 30.5t-33 78.5q0 49 34.5 80.5t84.5 31.5q49 0 82 -30t33 -79q0 -50 -34.5 -81t-84.5 -31zM-246 581q19 0 30 13.5t9 32.5q-2 18 -14 30t-29 12q-19 0 -30.5 -12.5t-9.5 -32.5q2 -19 14.5 -31t29.5 -12z" />
    <glyph glyph-name="uni030B" unicode="&#x30b;" 
d="M-405 537q-20 0 -20 16q0 28 36 96q34 59 65 59q24 0 40 -15t16 -42q0 -40 -48 -77t-89 -37zM-238 536q-23 0 -23 15q0 31 42 96q37 56 66 56q23 0 38.5 -15t15.5 -41q0 -40 -48.5 -75.5t-90.5 -35.5z" />
    <glyph glyph-name="uni030C" unicode="&#x30c;" 
d="M-360 755q40 0 125 -81q87 81 126 81q20 0 20 -18q0 -26 -53 -92q-4 -6 -12 -16.5t-11 -14l-9 -10.5t-9 -9t-9 -5.5t-12 -4.5t-14.5 -2t-18.5 -1q-21 0 -37.5 9t-25.5 19.5t-30 38.5q-50 63 -50 88q0 18 20 18z" />
    <glyph glyph-name="uni0312" unicode="&#x312;" 
d="M-211 774q17 0 17 -14q0 -6 -17.5 -25t-17.5 -36q0 -13 12.5 -25t25 -29.5t12.5 -43.5q0 -29 -19.5 -48t-47.5 -19q-33 0 -53.5 21.5t-20.5 64.5q0 61 36.5 107.5t72.5 46.5z" />
    <glyph glyph-name="uni0326" unicode="&#x326;" 
d="M-278 -285q-17 0 -17 14q0 6 17.5 25t17.5 36q0 13 -12.5 25t-25 29.5t-12.5 43.5q0 28 19 47.5t48 19.5q33 0 53.5 -21.5t20.5 -64.5q0 -61 -36.5 -107.5t-72.5 -46.5z" />
    <glyph glyph-name="uni0327" unicode="&#x327;" 
d="M-274 0h64l-27 -48q94 -17 94 -82q0 -38 -29.5 -63t-73.5 -25q-61 0 -91 37q-10 14 0 24.5t29 -0.5q19 -12 35 -12q18 0 28.5 10t10.5 24q0 16 -12.5 26.5t-22 13.5t-29.5 8q-21 4 -12 20z" />
    <glyph glyph-name="uni0328" unicode="&#x328;" 
d="M-259 -202q-47 0 -75 25t-28 64q0 72 87 113h56q-41 -52 -41 -89q0 -20 11.5 -33.5t33.5 -13.5q14 0 31 8q22 11 29 -2.5t-8 -29.5q-35 -42 -96 -42z" />
    <glyph glyph-name="uni0335" unicode="&#x335;" 
d="M-421 311h-258q-32 0 -32 36q0 35 32 35h258q32 0 32 -35q0 -36 -32 -36z" />
    <glyph glyph-name="uni0336" unicode="&#x336;" 
d="M-53 478h-698q-32 0 -32 31v19q0 31 32 31h698q32 0 32 -31v-19q0 -31 -32 -31z" />
    <glyph glyph-name="uni0337" unicode="&#x337;" 
d="M-257 398l-274 -159q-28 -15 -46 19q-23 35 6 52l274 158q28 16 49 -20q10 -16 9 -28t-18 -22z" />
    <glyph glyph-name="uni0338" unicode="&#x338;" 
d="M-587 -10q-15 0 -25 7.5t-10 19.5q0 4 7 18l374 648q12 22 40 22q14 0 24 -7t10 -19q0 -7 -5 -17l-375 -649q-12 -23 -40 -23z" />
    <glyph glyph-name="uni0401" unicode="&#x401;" horiz-adv-x="639" 
d="M255 756q-26 0 -43 16t-17 42q0 33 24 59.5t59 26.5q29 0 47 -17.5t18 -47.5q0 -34 -26 -56.5t-62 -22.5zM440 756q-28 0 -45.5 16t-17.5 42q0 33 24.5 59.5t58.5 26.5q30 0 48 -17.5t18 -47.5q0 -34 -25.5 -56.5t-60.5 -22.5zM578 242q18 -4 23 -16.5t4 -41.5
q-3 -87 -16 -135q-7 -28 -25.5 -38.5t-61.5 -10.5h-422q-34 0 -48 8t-14 28q0 18 7.5 28.5t18 17.5t21 17.5t18 36t7.5 66.5v296q0 41 -7.5 66.5t-18 36t-21 17.5t-18 17.5t-7.5 28.5q0 20 14 28t48 8h401q46 0 65.5 -7.5t28.5 -31.5q15 -39 27 -100q9 -53 -18 -63
q-28 -10 -54 27q-35 48 -69.5 70.5t-78.5 22.5h-38q-37 0 -50.5 -10t-13.5 -34v-86q0 -27 13 -37.5t42 -11.5q33 1 60 18t43 17q30 0 34 -27l30 -144q4 -24 -1 -33.5t-23 -13.5q-19 -4 -36 10.5t-28.5 34.5t-32.5 38t-47 19q-29 -1 -41.5 -11.5t-12.5 -37.5v-183
q0 -24 15.5 -34t59.5 -10h56q25 0 46 17t33.5 38t35.5 68q23 45 52 37z" />
    <glyph glyph-name="uni0404" unicode="&#x404;" horiz-adv-x="707" 
d="M639 198q25 18 38 1t0 -47q-33 -77 -108 -119.5t-182 -42.5q-149 0 -248 94.5t-99 254.5q0 151 112.5 261t263.5 110q38 0 82 -10t48 -10q14 0 29 9.5t27 9.5q34 0 45 -52q17 -87 17 -148q1 -29 -4.5 -42t-22.5 -13q-16 0 -26.5 11t-29.5 43q-73 123 -172 123
q-80 0 -128 -57.5t-48 -152.5v-5q46 -24 76 -24t71 30.5t73 30.5q47 0 101 -38.5t54 -74.5q0 -10 -7.5 -19.5t-24.5 -9.5q-12 0 -43.5 18t-56.5 18q-23 0 -58 -28.5t-65 -28.5q-52 0 -109 35q21 -88 77 -142t137 -54q52 0 93 16.5t88 52.5z" />
    <glyph glyph-name="uni0406" unicode="&#x406;" horiz-adv-x="369" 
d="M90 190v320q0 43 -11 68.5t-24 33.5t-24 20.5t-11 31.5q0 20 13.5 28t48.5 8h208q34 0 47.5 -8t13.5 -28q0 -19 -11 -31.5t-24.5 -20.5t-24.5 -33.5t-11 -68.5v-320q0 -43 11 -68.5t23.5 -33.5t23.5 -20.5t11 -31.5q0 -20 -13 -28t-48 -8h-208q-34 0 -48 8t-14 28
q0 19 11 31.5t25 20.5t25 33.5t11 68.5z" />
    <glyph glyph-name="uni0407" unicode="&#x407;" horiz-adv-x="369" 
d="M125 756q-26 0 -43 16t-17 42q0 33 24 59.5t59 26.5q29 0 47 -17.5t18 -47.5q0 -34 -26 -56.5t-62 -22.5zM310 756q-28 0 -45.5 16t-17.5 42q0 33 24.5 59.5t58.5 26.5q30 0 48 -17.5t18 -47.5q0 -34 -25.5 -56.5t-60.5 -22.5zM90 190v320q0 43 -11 68.5t-24 33.5
t-24 20.5t-11 31.5q0 20 13.5 28t48.5 8h208q34 0 47.5 -8t13.5 -28q0 -19 -11 -31.5t-24.5 -20.5t-24.5 -33.5t-11 -68.5v-320q0 -43 11 -68.5t23.5 -33.5t23.5 -20.5t11 -31.5q0 -20 -13 -28t-48 -8h-208q-34 0 -48 8t-14 28q0 19 11 31.5t25 20.5t25 33.5t11 68.5z" />
    <glyph glyph-name="uni0410" unicode="&#x410;" horiz-adv-x="746" 
d="M203 161l-10 -24q-13 -40 -7 -50.5t19.5 -24.5t13.5 -30q0 -31 -55 -31h-98q-32 0 -47 7t-15 26q0 14 10 24.5t23 17.5t29 23t25 38l170 415q12 39 4.5 52t-22.5 29.5t-15 32.5q0 34 36 34h134q37 0 49 -33l209 -523q11 -27 25.5 -44.5t24.5 -23.5t17 -15.5t7 -24.5
q0 -20 -13 -28t-46 -8h-205q-54 0 -54 36q0 18 17 31t25.5 24.5t-3.5 53.5l-4 8q-9 23 -20 28q-15 6 -105 6q-94 0 -106 -7q-6 -4 -13 -19zM323 270q59 0 67 3.5t1 23.5l-65 168l-65 -158q-11 -28 -3.5 -32.5t65.5 -4.5z" />
    <glyph glyph-name="uni0411" unicode="&#x411;" horiz-adv-x="678" 
d="M342 470q137 0 223.5 -69t86.5 -178q0 -223 -311 -223h-261q-34 0 -48 8t-14 28q0 18 7.5 28.5t18 17.5t21 17.5t18 36t7.5 66.5v296q0 41 -7.5 66.5t-18 36t-21 17.5t-18 17.5t-7.5 28.5q0 20 14 28t48 8h415q46 0 65 -7.5t28 -31.5q15 -39 27 -100q11 -52 -17 -63
q-29 -10 -55 27q-34 48 -68.5 70.5t-78.5 22.5h-52q-36 0 -50 -9.5t-14 -29.5v-89q0 -10 5.5 -16t14.5 -5q6 1 42 1zM330 77q64 0 98 37t34 96q0 85 -48.5 136t-112.5 51q-12 0 -16.5 -5.5t-4.5 -21.5v-257q0 -36 50 -36z" />
    <glyph glyph-name="uni0412" unicode="&#x412;" horiz-adv-x="689" 
d="M518 422q74 -20 112.5 -69.5t38.5 -116.5q0 -98 -80 -167t-222 -69h-287q-34 0 -48 8t-14 28q0 18 7.5 28.5t18 17.5t21 17.5t18 36t7.5 66.5v296q0 41 -7.5 66.5t-18 36t-21 17.5t-18 17.5t-7.5 28.5q0 20 14 28t48 8h246q270 0 272 -150q1 -86 -80 -128zM280 595v-121
q0 -5 1.5 -9t3.5 -6.5t6 -4t6 -2.5t7.5 -1.5t7.5 -0.5h8h5q41 0 65.5 19t24.5 53q0 38 -30.5 67t-80.5 29q-9 0 -16.5 -6t-7.5 -17zM363 81q101 0 101 117q0 68 -42 117.5t-115 49.5q-15 0 -21 -5.5t-6 -21.5v-187q0 -39 16 -54.5t67 -15.5z" />
    <glyph glyph-name="uni0413" unicode="&#x413;" horiz-adv-x="602" 
d="M612 561q11 -52 -18 -63q-28 -10 -54 27q-35 48 -69 70.5t-78 22.5h-49q-36 0 -50 -9.5t-14 -29.5v-389q0 -43 11 -68.5t23.5 -33.5t23.5 -20.5t11 -31.5q0 -20 -13 -28t-48 -8h-208q-34 0 -48 8t-14 28q0 19 11 31.5t25 20.5t25 33.5t11 68.5v308q0 41 -7.5 66.5t-18 36
t-21 17.5t-18 17.5t-7.5 28.5q0 20 14 28t48 8h411q46 0 65.5 -7.5t28.5 -31.5q15 -39 27 -100z" />
    <glyph glyph-name="uni0414" unicode="&#x414;" horiz-adv-x="811" 
d="M797 -104q2 -55 -29 -55t-49 35q-16 33 -21.5 43.5t-18.5 32t-22 28t-23 13.5t-31 7h-400q-36 0 -58 -25.5t-53 -87.5q-1 -3 -1.5 -4l-1.5 -3l-2 -4q-17 -35 -49 -35q-31 0 -29 55q3 89 16 137q8 27 25.5 38t55.5 11q26 0 34.5 5.5t18.5 28.5q43 107 63.5 229.5
t20.5 219.5q0 20 -11.5 33.5t-25.5 19.5t-25.5 17.5t-11.5 29.5q0 20 12.5 27.5t45.5 7.5h457q34 0 48 -8t14 -28q0 -18 -7.5 -28.5t-18 -17.5t-21 -17.5t-18 -36t-7.5 -66.5v-371q0 -30 6.5 -37.5t29.5 -7.5q32 0 48 -11.5t23 -37.5q13 -48 16 -137zM249 82h235v497
q0 20 -15 29.5t-54 9.5q-18 0 -30 -1t-25 -4.5t-20 -11.5t-8 -21q-11 -171 -26.5 -272t-56.5 -226z" />
    <glyph glyph-name="uni0415" unicode="&#x415;" horiz-adv-x="639" 
d="M578 242q18 -4 23 -16.5t4 -41.5q-3 -87 -16 -135q-7 -28 -25.5 -38.5t-61.5 -10.5h-422q-34 0 -48 8t-14 28q0 18 7.5 28.5t18 17.5t21 17.5t18 36t7.5 66.5v296q0 41 -7.5 66.5t-18 36t-21 17.5t-18 17.5t-7.5 28.5q0 20 14 28t48 8h401q46 0 65.5 -7.5t28.5 -31.5
q15 -39 27 -100q9 -53 -18 -63q-28 -10 -54 27q-35 48 -69.5 70.5t-78.5 22.5h-38q-37 0 -50.5 -10t-13.5 -34v-86q0 -27 13 -37.5t42 -11.5q33 1 60 18t43 17q30 0 34 -27l30 -144q4 -24 -1 -33.5t-23 -13.5q-19 -4 -36 10.5t-28.5 34.5t-32.5 38t-47 19
q-29 -1 -41.5 -11.5t-12.5 -37.5v-183q0 -24 15.5 -34t59.5 -10h56q25 0 46 17t33.5 38t35.5 68q23 45 52 37z" />
    <glyph glyph-name="uni0416" unicode="&#x416;" horiz-adv-x="1114" 
d="M920 562l-53 -49l159 -342q15 -32 33.5 -53.5t31 -29t21 -19.5t8.5 -31q0 -20 -13.5 -28t-49.5 -8h-197q-34 0 -47.5 8t-13.5 28q0 16 14.5 35t22 32.5t-4.5 49.5l-105 227l-68 -62v-130q0 -43 9 -68.5t20 -33.5t20 -20.5t9 -31.5q0 -20 -13 -28t-48 -8h-186q-34 0 -48 8
t-14 28q0 19 9.5 31.5t21 20.5t21 33.5t9.5 68.5v132l-65 61l-105 -228q-12 -36 -5 -49.5t22 -32.5t15 -35q0 -20 -13.5 -28t-47.5 -8h-197q-36 0 -49.5 8t-13.5 28q0 19 8.5 31t21 19.5t31 29t33.5 53.5l159 342l-53 49q-26 24 -51.5 39.5t-38.5 20.5t-21.5 14.5t-8.5 27.5
q0 36 62 36h167q26 0 37.5 -8.5t11.5 -27.5q0 -12 -11.5 -24t-22 -20t-9.5 -23t22 -34l122 -112v59q0 43 -9 68.5t-20.5 33.5t-20.5 20.5t-9 31.5q0 20 13.5 28t48.5 8h186q34 0 47.5 -8t13.5 -28q0 -19 -9.5 -31.5t-20.5 -20.5t-20.5 -33.5t-9.5 -68.5v-62l125 115
q20 19 21 34t-9 23t-21.5 20t-11.5 24q0 19 11 27.5t37 8.5h167q63 0 63 -36q0 -18 -8.5 -27.5t-21.5 -14.5t-38.5 -20.5t-51.5 -39.5z" />
    <glyph glyph-name="uni0417" unicode="&#x417;" horiz-adv-x="656" 
d="M417 386q79 -21 128.5 -71.5t49.5 -117.5q0 -101 -86 -154t-235 -53q-48 0 -91 12q-41 10 -61.5 28t-32.5 59q-13 41 -17 105q-2 40 26 37q26 -3 46 -45q29 -58 73.5 -87t89.5 -29t69 32.5t24 83.5q0 73 -40.5 114.5t-124.5 43.5q-16 0 -26 12t-11 26.5t9 27t28 13.5
q64 6 96.5 48t32.5 94q0 25 -16.5 45t-44.5 20q-39 0 -69.5 -28.5t-59.5 -74.5q-19 -30 -29.5 -40.5t-25.5 -10.5t-20 12.5t-4 41.5q1 53 16 128q6 31 16.5 41.5t25.5 10.5q11 0 27 -8t30 -8q5 0 47 8t74 8q110 0 168.5 -44.5t60.5 -116.5q1 -52 -39 -96.5t-104 -66.5z" />
    <glyph glyph-name="uni0418" unicode="&#x418;" horiz-adv-x="823" 
d="M288 0h-208q-34 0 -48 8t-14 28q0 18 9.5 30t21 19t23 24t15.5 41q3 21 3 42v316q0 21 -3 42q-3 27 -14.5 43.5t-23 22t-20.5 17.5t-9 31q0 20 13.5 28t48.5 8h208q34 0 47.5 -8t13.5 -28q0 -18 -9.5 -30t-21 -19t-23 -23.5t-14.5 -41.5q-3 -21 -3 -42v-223l244 240
q20 18 14 40q-5 25 -21.5 40.5t-29.5 27t-13 31.5t13 28t48 8h209q34 0 47.5 -8t13.5 -28q0 -18 -9.5 -30t-21 -19t-23 -23.5t-14.5 -41.5q-3 -21 -3 -42v-316q0 -21 3 -42q3 -27 14.5 -43.5t22.5 -22t20 -17.5t9 -31q0 -20 -13 -28t-48 -8h-209q-34 0 -47.5 8t-13.5 28
q0 22 14.5 35t32 30.5t21.5 48.5q3 21 3 42v247l-246 -241q-18 -18 -14 -42q7 -33 24 -53.5t29.5 -33.5t12.5 -33t-13 -28t-48 -8z" />
    <glyph glyph-name="uni0419" unicode="&#x419;" horiz-adv-x="823" 
d="M401 748q-83 0 -137 30t-54 85q0 22 15.5 35t35.5 13q21 0 39 -16t30 -35.5t30.5 -35.5t39.5 -16t39.5 16t30 35.5t30 35.5t39.5 16t36.5 -13.5t15.5 -34.5q0 -55 -57.5 -85t-132.5 -30zM288 0h-208q-34 0 -48 8t-14 28q0 18 9.5 30t21 19t23 24t15.5 41q3 21 3 42v316
q0 21 -3 42q-3 27 -14.5 43.5t-23 22t-20.5 17.5t-9 31q0 20 13.5 28t48.5 8h208q34 0 47.5 -8t13.5 -28q0 -18 -9.5 -30t-21 -19t-23 -23.5t-14.5 -41.5q-3 -21 -3 -42v-223l244 240q20 18 14 40q-5 25 -21.5 40.5t-29.5 27t-13 31.5t13 28t48 8h209q34 0 47.5 -8t13.5 -28
q0 -18 -9.5 -30t-21 -19t-23 -23.5t-14.5 -41.5q-3 -21 -3 -42v-316q0 -21 3 -42q3 -27 14.5 -43.5t22.5 -22t20 -17.5t9 -31q0 -20 -13 -28t-48 -8h-209q-34 0 -47.5 8t-13.5 28q0 22 14.5 35t32 30.5t21.5 48.5q3 21 3 42v247l-246 -241q-18 -18 -14 -42q7 -33 24 -53.5
t29.5 -33.5t12.5 -33t-13 -28t-48 -8z" />
    <glyph glyph-name="uni041A" unicode="&#x41a;" horiz-adv-x="786" 
d="M592 563l-54 -50l160 -344q15 -32 33.5 -53.5t31 -29t21 -19.5t8.5 -31q0 -20 -13.5 -28t-49.5 -8h-197q-34 0 -47.5 8t-13.5 28q0 16 15 35t22 32t-5 49l-105 231l-118 -109v-84q0 -43 11 -68.5t23.5 -33.5t23.5 -20.5t11 -31.5q0 -20 -13 -28t-48 -8h-208q-34 0 -48 8
t-14 28q0 19 11 31.5t25 20.5t25 33.5t11 68.5v320q0 43 -11 68.5t-24 33.5t-24 20.5t-11 31.5q0 20 13.5 28t48.5 8h208q34 0 47.5 -8t13.5 -28q0 -19 -11 -31.5t-24.5 -20.5t-24.5 -33.5t-11 -68.5v-123l189 176q20 19 21 34t-9 23t-21.5 20t-11.5 24q0 19 11 27.5t37 8.5
h154q62 0 62 -36q0 -18 -8.5 -27.5t-21.5 -14.5t-38.5 -20t-51.5 -39z" />
    <glyph glyph-name="uni041B" unicode="&#x41b;" horiz-adv-x="789" 
d="M123 -10q-40 0 -76 22t-36 72q0 32 19.5 54.5t44.5 22.5q26 0 40.5 -15t25 -30t25.5 -15q27 0 50 94.5t34.5 200t11.5 169.5q0 23 -10 40t-22.5 25.5t-22.5 19.5t-10 23q0 27 50 27h454q50 0 50 -27q0 -14 -12.5 -26t-25 -27.5t-12.5 -38.5v-391q0 -43 11 -68.5t24 -33.5
t24 -20.5t11 -31.5q0 -20 -13.5 -28t-48.5 -8h-208q-34 0 -47.5 8t-13.5 28q0 19 11 31.5t24.5 20.5t24.5 33.5t11 68.5v389q0 21 -15.5 30t-59.5 9q-81 0 -83 -38q-6 -92 -10 -140.5t-14.5 -138t-29 -151t-43.5 -98.5q-44 -62 -133 -62z" />
    <glyph glyph-name="uni041C" unicode="&#x41c;" horiz-adv-x="922" 
d="M816 553l14 -384q1 -28 9.5 -45.5t19.5 -25t22 -14t18.5 -18t7.5 -30.5q0 -20 -13.5 -28t-48.5 -8h-198q-34 0 -48 8t-14 28t9.5 34t21 21t20.5 27t8 51l-3 305l-188 -400q-14 -30 -46 -36q-33 -7 -45 23l-173 405l-11 -336q-1 -31 25.5 -56.5t26.5 -42.5
q0 -18 -10.5 -24t-36.5 -6h-110q-29 0 -40 7t-11 24q0 11 9.5 22t20.5 18.5t21 23t11 34.5l21 423q1 24 -9 40t-22 22.5t-22.5 19t-10.5 29.5q0 20 13.5 28t44.5 8h152q34 0 48 -32l158 -360l172 359q15 33 48 33h145q31 0 44.5 -8t13.5 -28q0 -17 -10.5 -29.5t-23 -19
t-22 -22.5t-8.5 -40z" />
    <glyph glyph-name="uni041D" unicode="&#x41d;" horiz-adv-x="827" 
d="M737 510v-320q0 -43 11 -68.5t24 -33.5t24 -20.5t11 -31.5q0 -20 -13.5 -28t-48.5 -8h-208q-34 0 -47.5 8t-13.5 28q0 19 11 31.5t24.5 20.5t24.5 33.5t11 68.5v102q0 25 -10 30q-17 8 -125 8t-122 -7q-10 -7 -10 -31v-102q0 -43 11 -68.5t23.5 -33.5t23.5 -20.5
t11 -31.5q0 -20 -13 -28t-48 -8h-208q-34 0 -48 8t-14 28q0 19 11 31.5t25 20.5t25 33.5t11 68.5v320q0 43 -11 68.5t-24 33.5t-24 20.5t-11 31.5q0 20 13.5 28t48.5 8h208q34 0 47.5 -8t13.5 -28q0 -19 -11 -31.5t-24.5 -20.5t-24.5 -33.5t-11 -68.5v-60q0 -25 9 -30
q17 -8 124 -8q110 0 124 7q10 7 10 31v60q0 43 -11 68.5t-23.5 33.5t-23.5 20.5t-11 31.5q0 20 13 28t48 8h208q34 0 48 -8t14 -28q0 -19 -11.5 -31.5t-24.5 -20.5t-24.5 -33.5t-11.5 -68.5z" />
    <glyph glyph-name="uni041E" unicode="&#x41e;" horiz-adv-x="796" 
d="M375 -10q-140 0 -237.5 94t-97.5 240q0 161 109 273.5t268 112.5q150 0 242 -98.5t92 -246.5q0 -160 -107.5 -267.5t-268.5 -107.5zM436 89q133 0 133 181q0 81 -24.5 160.5t-73.5 135.5t-110 56q-68 0 -101.5 -52t-33.5 -137q0 -79 24 -156t73.5 -132.5t112.5 -55.5z
" />
    <glyph glyph-name="uni041F" unicode="&#x41f;" horiz-adv-x="786" 
d="M696 498v-308q0 -43 11 -68.5t24 -33.5t24 -20.5t11 -31.5q0 -20 -13.5 -28t-48.5 -8h-208q-34 0 -48 8t-14 28q0 19 11 31.5t25 20.5t25 33.5t11 68.5v384q0 25 -23 35t-88 10q-71 0 -93 -9.5t-22 -35.5v-384q0 -43 11 -68.5t23.5 -33.5t23.5 -20.5t11 -31.5
q0 -20 -13 -28t-48 -8h-208q-34 0 -48 8t-14 28q0 19 11 31.5t25 20.5t25 33.5t11 68.5v308q0 41 -7.5 66.5t-18 36t-21 17.5t-18 17.5t-7.5 28.5q0 20 14 28t48 8h626q34 0 48 -8t14 -28q0 -18 -7.5 -28.5t-18 -17.5t-21 -17.5t-18 -36t-7.5 -66.5z" />
    <glyph glyph-name="uni0420" unicode="&#x420;" horiz-adv-x="681" 
d="M80 700h249q159 0 250 -73t91 -201q0 -222 -311 -222h-59q-19 0 -20 -18q1 -41 12 -66t23.5 -32.5t23 -20t10.5 -31.5q0 -20 -13 -28t-48 -8h-208q-34 0 -48 8t-14 28q0 19 11 31.5t25 20.5t25 33.5t11 68.5v308q0 41 -7.5 66.5t-18 36t-21 17.5t-18 17.5t-7.5 28.5
q0 20 14 28t48 8zM347 281q65 0 99.5 36.5t34.5 94.5q0 101 -47.5 157t-106.5 56q-32 0 -39.5 -5t-7.5 -22v-281q0 -20 16 -28t51 -8z" />
    <glyph glyph-name="uni0421" unicode="&#x421;" horiz-adv-x="715" 
d="M397 -10q-156 0 -256.5 94t-100.5 255q0 153 109 262t267 109q38 0 77.5 -9.5t43.5 -9.5q13 0 29.5 9t31.5 9t25.5 -11t19.5 -41q25 -84 32 -149q8 -52 -30 -55q-6 0 -11.5 1t-9 3t-9 8t-8.5 9.5t-10.5 14t-11.5 16.5q-87 126 -177 126q-81 0 -128 -57t-47 -153
q0 -83 24.5 -152.5t77 -115.5t124.5 -46q98 0 183 89q21 22 39 6t7 -42q-34 -79 -115 -124.5t-176 -45.5z" />
    <glyph glyph-name="uni0422" unicode="&#x422;" horiz-adv-x="660" 
d="M426 573v-383q0 -43 11 -68.5t23.5 -33.5t23.5 -20.5t11 -31.5q0 -20 -13 -28t-48 -8h-209q-34 0 -47.5 8t-13.5 28q0 19 11 31.5t24.5 20.5t24.5 33.5t11 68.5v383q0 39 -35 39q-37 0 -60 -26t-56 -90q-17 -35 -38 -35q-31 0 -29 55q3 87 16 135q7 27 25.5 38t61.5 11
h420q43 0 61.5 -11t25.5 -38q13 -48 16 -135q2 -55 -29 -55q-22 0 -38 34q-32 65 -55.5 91t-60.5 26q-34 0 -34 -39z" />
    <glyph glyph-name="uni0423" unicode="&#x423;" horiz-adv-x="706" 
d="M526 700h98q32 0 47.5 -7t15.5 -26q0 -14 -10 -24.5t-23.5 -17.5t-30 -23t-26.5 -37l-153 -340q-59 -131 -108.5 -183t-116.5 -52q-47 0 -86 26.5t-39 76.5q0 28 19 49t44 21q21 0 34.5 -9t19 -20t15 -20t21.5 -9q28 0 62 71q3 7 -1 14l-223 398q-10 18 -30 32.5
t-32.5 26t-12.5 27.5q0 26 48 26h217q51 0 51 -27q0 -13 -12.5 -27.5t-18 -23.5t4.5 -35l116 -208l80 186q13 39 8 49.5t-18.5 24.5t-13.5 30q0 31 54 31z" />
    <glyph glyph-name="uni0424" unicode="&#x424;" horiz-adv-x="891" 
d="M548 0h-208q-34 0 -47.5 8t-13.5 28q0 15 11 25.5t24.5 16t24 15t10.5 22.5q0 7 -1.5 10t-7.5 2q-26 -2 -46 -2q-114 0 -189.5 64t-75.5 164q0 96 70 154.5t178 58.5q27 0 67 -5q6 -1 8 2t0 9q-3 18 -15 30.5t-24 18t-22 16.5t-10 27q0 20 13 28t48 8h208q34 0 48 -8
t14 -28q0 -16 -10 -27t-23 -16.5t-25.5 -17.5t-15.5 -29q-1 -6 1 -9t8 -2q51 3 67 3q108 0 178 -59t70 -154q0 -101 -76 -164.5t-189 -63.5q-33 0 -48 1q-6 1 -7.5 -1.5t-1.5 -9.5q0 -16 17.5 -26.5t35 -22.5t17.5 -30q0 -20 -13.5 -28t-48.5 -8zM318 194q21 0 32 4v296
q-11 4 -32 4q-53 0 -83 -45.5t-30 -112.5t31.5 -106.5t81.5 -39.5zM571 194q49 0 81.5 41t32.5 105q0 67 -29.5 112.5t-82.5 45.5q-19 0 -33 -3v-299q13 -2 31 -2z" />
    <glyph glyph-name="uni0425" unicode="&#x425;" horiz-adv-x="784" 
d="M617 566l-132 -183l186 -253q21 -29 46.5 -45.5t37.5 -25.5t12 -28q0 -31 -50 -31h-233q-26 0 -38.5 7.5t-12.5 26.5q0 13 7.5 22.5t14 15t3.5 20t-20 38.5l-101 137l-95 -132q-18 -26 -20.5 -42t4.5 -22t15.5 -16.5t8.5 -23.5q0 -31 -54 -31h-116q-62 0 -62 33
q0 14 11.5 24t27.5 16.5t38 22.5t38 38l149 208h1l-168 228q-21 29 -47 45.5t-38 25.5t-12 28q0 31 51 31h232q27 0 39.5 -7.5t12.5 -26.5q0 -13 -7.5 -22.5t-14 -15t-4 -20t20.5 -38.5l82 -112l78 108q19 26 21.5 42t-4.5 21.5t-15.5 16t-8.5 23.5q0 31 54 31h116
q62 0 62 -33q0 -14 -11.5 -24t-27.5 -16.5t-38.5 -22.5t-38.5 -38z" />
    <glyph glyph-name="uni0426" unicode="&#x426;" horiz-adv-x="846" 
d="M832 -104q2 -55 -29 -55q-32 0 -49 35q-41 80 -59 100q-25 24 -57 24h-558q-34 0 -48 8t-14 28q0 18 7.5 28.5t18 17.5t21 17.5t18 36t7.5 66.5v309q0 35 -7 58t-17.5 33t-21 17.5t-17.5 18t-7 26.5q0 20 13 28t49 8h208q34 0 47.5 -8t13.5 -28q0 -16 -7.5 -26.5
t-17.5 -18t-20.5 -17.5t-18 -33t-7.5 -58v-385q0 -25 23 -35t87 -10q72 0 94 9.5t22 35.5v385q0 35 -7 58t-17.5 33t-21 17.5t-17.5 18t-7 26.5q0 20 13 28t49 8h208q35 0 48.5 -8t13.5 -28q0 -16 -7.5 -26.5t-18 -18t-21 -17.5t-18 -33t-7.5 -58v-384q0 -45 42 -45
q36 0 53 -11t25 -38q13 -48 16 -137z" />
    <glyph glyph-name="uni0427" unicode="&#x427;" horiz-adv-x="787" 
d="M697 510v-320q0 -43 11 -68.5t24 -33.5t24 -20.5t11 -31.5q0 -20 -13.5 -28t-48.5 -8h-208q-34 0 -47.5 8t-13.5 28q0 19 11 31.5t24.5 20.5t24.5 33.5t11 68.5v72q-120 -20 -182 -20q-76 0 -128 20.5t-77 57.5t-34.5 75.5t-9.5 86.5l1 26q0 43 -11 68.5t-23.5 33.5
t-23.5 20.5t-11 31.5q0 20 13 28t48 8h208q34 0 48 -8t14 -28q0 -19 -11 -31.5t-24.5 -20.5t-25 -33.5t-12.5 -68.5v-5q0 -88 20.5 -132.5t84.5 -44.5q38 0 136 16v168q0 43 -11 68.5t-23.5 33.5t-23.5 20.5t-11 31.5q0 20 13 28t48 8h208q34 0 48 -8t14 -28
q0 -19 -11.5 -31.5t-24.5 -20.5t-24.5 -33.5t-11.5 -68.5z" />
    <glyph glyph-name="uni0428" unicode="&#x428;" horiz-adv-x="1082" 
d="M992 511v-309q0 -41 7.5 -66.5t18 -36t21 -17.5t18 -17.5t7.5 -28.5q0 -20 -14 -28t-48 -8h-922q-34 0 -48 8t-14 28q0 18 7.5 28.5t18 17.5t21 17.5t18 36t7.5 66.5v309q0 35 -7 58t-17.5 33t-21 17.5t-17.5 18t-7 26.5q0 20 13 28t49 8h208q34 0 47.5 -8t13.5 -28
q0 -16 -7.5 -26.5t-17.5 -18t-20.5 -17.5t-18 -33t-7.5 -58v-385q0 -24 18.5 -34.5t61.5 -10.5q51 0 68.5 10t17.5 35v385q0 42 -9 68t-20 33.5t-20 20t-9 31.5q0 20 13 28t48 8h186q34 0 47.5 -8t13.5 -28q0 -19 -9.5 -31.5t-20.5 -20t-20.5 -33.5t-9.5 -68v-385
q0 -24 18.5 -34.5t61.5 -10.5q51 0 68.5 10t17.5 35v385q0 35 -7 58t-17 33t-20.5 17.5t-17.5 18t-7 26.5q0 20 13 28t48 8h208q35 0 48.5 -8t13.5 -28q0 -16 -7.5 -26.5t-18 -18t-21 -17.5t-18 -33t-7.5 -58z" />
    <glyph glyph-name="uni0429" unicode="&#x429;" horiz-adv-x="1142" 
d="M1128 -104q2 -55 -29 -55q-20 0 -31 8.5t-19 26.5q-41 80 -59 100q-25 24 -57 24h-853q-34 0 -48 8t-14 28q0 18 7.5 28.5t18 17.5t21 17.5t18 36t7.5 66.5v309q0 35 -7 58t-17.5 33t-21 17.5t-17.5 18t-7 26.5q0 20 13 28t49 8h208q34 0 47.5 -8t13.5 -28
q0 -16 -7.5 -26.5t-17.5 -18t-20.5 -17.5t-18 -33t-7.5 -58v-385q0 -24 18.5 -34.5t61.5 -10.5q51 0 68.5 10t17.5 35v385q0 42 -9 68t-20 33.5t-20 20t-9 31.5q0 20 13 28t48 8h186q34 0 47.5 -8t13.5 -28q0 -19 -9.5 -31.5t-20.5 -20t-20.5 -33.5t-9.5 -68v-385
q0 -24 18.5 -34.5t61.5 -10.5q51 0 68.5 10t17.5 35v385q0 35 -7 58t-17 33t-20.5 17.5t-17.5 18t-7 26.5q0 20 13 28t48 8h208q35 0 48.5 -8t13.5 -28q0 -16 -7.5 -26.5t-18 -18t-21 -17.5t-18 -33t-7.5 -58v-384q0 -45 42 -45q36 0 53 -11t25 -38q13 -48 16 -137z" />
    <glyph glyph-name="uni042A" unicode="&#x42a;" horiz-adv-x="1005" 
d="M451 470q137 0 223 -69t86 -178q0 -223 -311 -223h-261q-34 0 -47.5 8t-13.5 28q0 18 7.5 28.5t17.5 17.5t20.5 17.5t18 36t7.5 66.5v369q0 47 -37 47q-22 0 -40.5 -26.5t-52.5 -92.5q-18 -34 -39 -34q-32 0 -30 54q5 92 17 132q7 25 27.5 37t70.5 12h284q34 0 48 -8
t14 -28q0 -18 -7.5 -28.5t-18 -17.5t-21 -17.5t-18 -36t-7.5 -66.5v-8q0 -10 5.5 -16t14.5 -5q7 1 43 1zM438 77q65 0 99 37t34 96q0 85 -48.5 136t-113.5 51q-12 0 -16.5 -6t-4.5 -21v-257q0 -36 50 -36z" />
    <glyph glyph-name="uni042B" unicode="&#x42b;" horiz-adv-x="984" 
d="M342 470q137 0 223.5 -69t86.5 -178q0 -223 -311 -223h-261q-34 0 -48 8t-14 28q0 18 7.5 28.5t18 17.5t21 17.5t18 36t7.5 66.5v309q0 35 -7 58t-17.5 33t-21 17.5t-17.5 18t-7 26.5q0 20 13 28t49 8h208q34 0 47.5 -8t13.5 -28q0 -16 -7.5 -26.5t-17.5 -18t-20.5 -17.5
t-18 -33t-7.5 -58v-21q0 -10 5.5 -16t14.5 -5q6 1 42 1zM894 510v-320q0 -43 11 -68.5t24 -33.5t24 -20.5t11 -31.5q0 -20 -13.5 -28t-48.5 -8h-208q-34 0 -48 8t-14 28q0 19 11 31.5t25 20.5t25 33.5t11 68.5v320q0 43 -11 68.5t-24 33.5t-24 20.5t-11 31.5q0 20 13.5 28
t48.5 8h208q34 0 48 -8t14 -28q0 -19 -11 -31.5t-25 -20.5t-25 -33.5t-11 -68.5zM330 77q64 0 98 37t34 96q0 85 -48.5 136t-112.5 51q-12 0 -16.5 -5.5t-4.5 -21.5v-257q0 -36 50 -36z" />
    <glyph glyph-name="uni042C" unicode="&#x42c;" horiz-adv-x="704" 
d="M342 470q137 0 223.5 -69t86.5 -178q0 -223 -311 -223h-261q-34 0 -48 8t-14 28q0 18 7.5 28.5t18 17.5t21 17.5t18 36t7.5 66.5v309q0 35 -7 58t-17.5 33t-21 17.5t-17.5 18t-7 26.5q0 20 13 28t49 8h208q34 0 47.5 -8t13.5 -28q0 -16 -7.5 -26.5t-17.5 -18t-20.5 -17.5
t-18 -33t-7.5 -58v-21q0 -10 5.5 -16t14.5 -5q6 1 42 1zM330 77q64 0 98 37t34 96q0 85 -48.5 136t-112.5 51q-12 0 -16.5 -5.5t-4.5 -21.5v-257q0 -36 50 -36z" />
    <glyph glyph-name="uni042D" unicode="&#x42d;" horiz-adv-x="721" 
d="M285 710q187 0 289 -90.5t102 -235.5q0 -176 -110 -285t-280 -108q-69 0 -141 20q-41 10 -61.5 28t-32.5 59q-13 41 -17 105q-1 18 6.5 28t22.5 9q22 -3 59 -56q80 -113 185 -113q42 0 74 19.5t49 47t27 64.5t13 65t3 56v8q-66 -41 -120 -41q-30 0 -65 28.5t-58 28.5
q-25 0 -56.5 -18t-43.5 -18q-17 0 -24.5 9.5t-7.5 19.5q0 36 54.5 74.5t101.5 38.5q31 0 72 -30.5t71 -30.5q28 0 70 21q-15 110 -63 163t-109 53q-101 0 -173 -121q-19 -32 -29.5 -43t-25.5 -11q-17 0 -22 13t-4 42q1 61 18 148q11 52 45 52q12 0 27 -9.5t30 -9.5
q4 0 46.5 10t77.5 10z" />
    <glyph glyph-name="uni042E" unicode="&#x42e;" horiz-adv-x="1128" 
d="M749 710q149 0 241.5 -98.5t92.5 -246.5q0 -159 -107.5 -267t-268.5 -108q-137 0 -234 90.5t-101 232.5h-92v-123q0 -43 11 -68.5t23.5 -33.5t23.5 -20.5t11 -31.5q0 -20 -13 -28t-48 -8h-208q-34 0 -48 8t-14 28q0 19 11 31.5t25 20.5t25 33.5t11 68.5v320
q0 43 -11 68.5t-24 33.5t-24 20.5t-11 31.5q0 20 13.5 28t48.5 8h208q34 0 47.5 -8t13.5 -28q0 -19 -11 -31.5t-24.5 -20.5t-24.5 -33.5t-11 -68.5v-115h98q24 136 127 225.5t244 89.5zM767 89q134 0 134 181q0 81 -24.5 160.5t-73.5 135.5t-110 56q-69 0 -102.5 -52
t-33.5 -137q0 -78 24 -155.5t74 -133t112 -55.5z" />
    <glyph glyph-name="uni042F" unicode="&#x42f;" horiz-adv-x="728" 
d="M638 498v-308q0 -43 11 -68.5t25 -33.5t25 -20.5t11 -31.5q0 -20 -14 -28t-48 -8h-208q-35 0 -48.5 8t-13.5 28q0 19 11 31.5t24 20.5t24 33.5t11 68.5v6q0 20 -20 20h-41q-28 0 -41 1l-34 -65q-14 -35 -9.5 -48t16.5 -32.5t12 -35.5q0 -36 -48 -36h-187q-36 0 -49.5 8
t-13.5 28q0 19 8.5 30.5t20 17.5t29 22.5t30.5 40.5l64 116q-99 61 -99 182q0 116 87 185.5t242 69.5h233q34 0 48 -8t14 -28q0 -18 -7.5 -28.5t-18 -17.5t-21 -17.5t-18 -36t-7.5 -66.5zM448 329v260q0 24 -17 27q-16 5 -38 5q-57 0 -87.5 -37.5t-30.5 -109.5
q0 -74 33 -127t90 -53q50 0 50 35z" />
    <glyph glyph-name="uni0430" unicode="&#x430;" horiz-adv-x="601" 
d="M585 92q8 1 13 -5.5t5 -15.5q0 -31 -40.5 -55t-81.5 -24q-73 0 -100 71q-71 -71 -181 -71q-75 0 -125 40t-50 102q0 74 63 120.5t180 46.5q6 0 22 -1t30 -1q-30 88 -105 88q-46 0 -107 -36q-15 -11 -28 1t-1 33q22 40 79.5 72.5t128.5 32.5q42 0 75 -13t52 -28.5
t36 -45.5t23.5 -47.5t17.5 -51.5l51 -158q6 -20 10 -29t12.5 -17.5t20.5 -7.5zM283 81q34 0 57.5 18.5t17.5 45.5q-3 13 -21 61q-11 33 -54 33q-41 0 -66 -20t-26 -52q0 -37 26 -61.5t66 -24.5z" />
    <glyph glyph-name="uni0431" unicode="&#x431;" horiz-adv-x="586" 
d="M351 490q97 0 150 -65t53 -168q0 -111 -76 -189t-171 -78q-128 0 -207.5 79t-79.5 247q0 126 42 215.5t121 132.5q28 16 63 25t49 10.5t55 4.5q40 4 57 6t38 8.5t35 17.5q7 4 13.5 9t9.5 7t6.5 4t7.5 2.5t9 0.5q12 -1 21.5 -11t9.5 -30q0 -43 -28.5 -81t-74.5 -61
q-26 -13 -57 -18t-68 -5.5t-54 -3.5q-114 -21 -114 -184q21 61 72 93t118 32zM310 70q66 0 68 131q0 45 -8.5 87t-30 73.5t-51.5 31.5q-37 0 -55 -39t-18 -99q0 -74 25.5 -129.5t69.5 -55.5z" />
    <glyph glyph-name="uni0432" unicode="&#x432;" horiz-adv-x="575" 
d="M438 268q56 -16 83.5 -51t27.5 -78q0 -139 -232 -139h-246q-50 0 -50 31q0 19 21 37.5t26 43.5q3 18 3 35v186q0 17 -3 36q-5 24 -26 42.5t-21 37.5q0 31 50 31h229q215 0 216 -110q1 -67 -78 -102zM256 377v-60q0 -13 4.5 -19t9 -7t14.5 -1q68 0 68 49q0 30 -20 49
t-42 19q-23 0 -28.5 -5t-5.5 -25zM299 70q35 0 52 15t17 50q0 40 -24 66.5t-61 26.5h-9q-18 0 -18 -20v-90q0 -32 7 -40t36 -8z" />
    <glyph glyph-name="uni0433" unicode="&#x433;" horiz-adv-x="499" 
d="M477 349q3 -28 -1 -40.5t-20 -15.5q-13 -3 -22.5 4.5t-21.5 25.5q-34 50 -57.5 65t-64.5 15h-3q-19 0 -28 -7.5t-9 -30.5v-219q0 -31 8 -49t17.5 -23t17.5 -15.5t8 -28.5q0 -30 -48 -30h-180q-52 0 -52 32q0 17 8 27t17 15t17 23t8 49v187q0 17 -3 36q-5 24 -26 42.5
t-21 37.5q0 31 50 31h290q50 0 68 -8.5t26 -30.5q16 -39 22 -92z" />
    <glyph glyph-name="uni0434" unicode="&#x434;" horiz-adv-x="604" 
d="M28 -131q-31 0 -29 53q2 64 12 103q6 23 21.5 34.5t49.5 13.5q17 1 23 16q44 116 44 256q0 29 -15.5 48t-31 32t-15.5 28q0 27 49 27h379q49 0 49 -27q0 -15 -24.5 -39t-24.5 -53v-268q0 -18 20 -20q30 -4 43 -15.5t18 -32.5q12 -43 13 -103q2 -53 -30 -53q-21 0 -39 34
q-5 10 -14 28.5t-12.5 25.5t-12 18t-17 14.5t-22.5 7t-33 3.5h-251q-19 0 -32.5 -3.5t-22 -7t-17 -14.5t-12 -18t-12.5 -25.5t-14 -28.5q-18 -34 -40 -34zM193 74h143v303q0 20 -8.5 24.5t-43.5 4.5q-38 0 -47 -5t-10 -24q-11 -195 -34 -303z" />
    <glyph glyph-name="uni0435" unicode="&#x435;" horiz-adv-x="544" 
d="M487 177q18 16 30.5 4t4.5 -37q-17 -55 -85 -104.5t-163 -49.5q-109 0 -175.5 65t-66.5 171q0 114 80 189t183 75q92 0 145 -48t60 -118q3 -24 -21 -38q-120 -61 -245 -112q36 -59 119 -59q64 0 134 62zM239 405q-44 -19 -44 -95q0 -41 11 -66q54 19 105 46q1 1 5 2.5
t5.5 2.5t5 2.5t4.5 3t3.5 4t3.5 4.5t2 5t1 6.5t-0.5 8t-2.5 9.5q-15 41 -42 60t-57 7z" />
    <glyph glyph-name="uni0436" unicode="&#x436;" horiz-adv-x="955" 
d="M772 371l-13 -14l112 -250q8 -17 38.5 -38.5t30.5 -42.5q0 -26 -47 -26h-175q-52 0 -52 27q0 14 12 24.5t18.5 17.5t-2.5 33l-57 124l-69 -75v-5q0 -31 8 -49t17 -23t17 -15.5t8 -28.5t-11.5 -24t-36.5 -6h-180q-52 0 -52 32q0 17 8 27t17.5 15t17.5 23t8 49v10l-65 70
l-57 -124q-9 -26 -3 -33t18 -17.5t12 -24.5q0 -27 -51 -27h-175q-48 0 -48 26q0 21 31 42.5t39 38.5l112 250l-13 14q-16 17 -38 29.5t-38 17.5t-27.5 14t-11.5 21q0 27 43 27h144q50 0 50 -26q0 -12 -10 -22t-19 -15.5t-9 -17t17 -29.5l99 -105v69q0 31 -8 49t-17.5 23
t-17.5 15.5t-8 28.5q0 30 48 30h180q52 0 52 -31q0 -17 -8 -27.5t-17 -15.5t-17 -23t-8 -49v-73l103 109q17 18 17 29.5t-9 17t-19 15.5t-10 22q0 26 49 26h144q43 0 43 -27q0 -12 -11.5 -21t-27 -14t-37.5 -17.5t-38 -29.5z" />
    <glyph glyph-name="uni0437" unicode="&#x437;" horiz-adv-x="464" 
d="M319 265q108 -21 108 -123q0 -67 -54.5 -108.5t-145.5 -41.5q-66 0 -123.5 27.5t-79.5 72.5q-12 24 2 36.5t33 -3.5q55 -44 117 -44q77 0 77 65q0 62 -99 77q-21 3 -28.5 16.5t0.5 27t29 16.5q94 17 94 81q0 22 -15.5 35.5t-41.5 13.5q-53 0 -91 -52q-18 -26 -27.5 -34.5
t-22.5 -8.5q-24 0 -24 47q1 32 14 79q12 46 37 46q10 0 24 -7.5t28 -7.5q11 0 48 7.5t75 7.5q65 0 110 -27.5t46 -81.5q1 -39 -24.5 -71.5t-65.5 -44.5z" />
    <glyph glyph-name="uni0438" unicode="&#x438;" horiz-adv-x="659" 
d="M253 0h-180q-52 0 -52 32q0 19 21 37t26 43q3 18 3 35l1 186q0 17 -3 36q-5 24 -26.5 42t-21.5 39q0 30 48 30h180q52 0 52 -31q0 -19 -21 -37.5t-26 -42.5q-3 -19 -3 -36v-102l144 103q9 6 11 9.5t1 14.5q-5 23 -13.5 37t-16 18t-13.5 13t-6 24q0 30 48 30h180
q52 0 52 -31q0 -19 -21 -37.5t-26 -42.5q-3 -20 -3 -36v-186q0 -17 3 -35q5 -24 26 -42.5t21 -39.5q0 -30 -48 -30h-180q-52 0 -52 32q0 19 21 37t26 43q3 18 3 35l1 103l-146 -103q-8 -6 -10 -10t-1 -15q5 -23 13.5 -37t16 -18t13.5 -13t6 -24q0 -30 -48 -30z" />
    <glyph glyph-name="uni0439" unicode="&#x439;" horiz-adv-x="659" 
d="M330 528q-83 0 -137 30t-54 85q0 22 15.5 35t35.5 13q21 0 39 -16t30 -35.5t30.5 -35.5t39.5 -16t39.5 16t30 35.5t30 35.5t39.5 16t36.5 -13.5t15.5 -34.5q0 -55 -57.5 -85t-132.5 -30zM253 0h-180q-52 0 -52 32q0 19 21 37t26 43q3 18 3 35l1 186q0 17 -3 36
q-5 24 -26.5 42t-21.5 39q0 30 48 30h180q52 0 52 -31q0 -19 -21 -37.5t-26 -42.5q-3 -19 -3 -36v-102l144 103q9 6 11 9.5t1 14.5q-5 23 -13.5 37t-16 18t-13.5 13t-6 24q0 30 48 30h180q52 0 52 -31q0 -19 -21 -37.5t-26 -42.5q-3 -20 -3 -36v-186q0 -17 3 -35
q5 -24 26 -42.5t21 -39.5q0 -30 -48 -30h-180q-52 0 -52 32q0 19 21 37t26 43q3 18 3 35l1 103l-146 -103q-8 -6 -10 -10t-1 -15q5 -23 13.5 -37t16 -18t13.5 -13t6 -24q0 -30 -48 -30z" />
    <glyph glyph-name="uni043A" unicode="&#x43a;" horiz-adv-x="651" 
d="M465 371l-11 -12l113 -252q8 -17 38.5 -38.5t30.5 -42.5q0 -26 -47 -26h-175q-52 0 -52 27q0 14 12 24.5t18.5 17.5t-2.5 33l-58 126l-82 -89q1 -28 9 -44.5t17.5 -21.5t17 -15.5t7.5 -27.5q0 -30 -48 -30h-180q-52 0 -52 32q0 17 8 27t17 15t17 23t8 49v188q0 31 -8 49
t-17 23t-17 15.5t-8 28.5t11.5 24t36.5 6h180q52 0 52 -31q0 -17 -8 -27.5t-17.5 -15.5t-17.5 -23t-8 -49v-85l114 121q17 18 17 29.5t-9 17t-19 15.5t-10 22q0 26 50 26h143q44 0 44 -27q0 -12 -11.5 -21t-27.5 -14t-38 -17.5t-38 -29.5z" />
    <glyph glyph-name="uni043B" unicode="&#x43b;" horiz-adv-x="622" 
d="M102 -10q-37 0 -70.5 21t-33.5 67q0 30 17.5 50t41.5 20q19 0 31.5 -9t18 -19.5t13.5 -19.5t19 -9q23 0 34.5 86.5t11.5 164.5q0 24 -10 41.5t-21.5 26.5t-21.5 20t-10 23q0 27 51 27h379q49 0 49 -27q0 -15 -24.5 -39.5t-24.5 -55.5v-212q0 -31 8 -49t17 -23t17 -15.5
t8 -28.5t-11.5 -24t-36.5 -6h-180q-51 0 -51 32q0 17 8 27t17 15t17 23t8 49v223q0 20 -8 24.5t-44 4.5q-37 0 -47 -5t-11 -24q-9 -146 -29 -270q-29 -109 -132 -109z" />
    <glyph glyph-name="uni043C" unicode="&#x43c;" horiz-adv-x="736" 
d="M664 340l2 -194q0 -25 5.5 -41.5t13 -23.5t15 -12.5t12.5 -14.5t5 -24q0 -18 -11.5 -24t-36.5 -6h-180q-52 0 -52 32q0 17 8 27t17.5 15t17 23t7.5 49l-1 153l-102 -225q-12 -26 -48 -37q-21 -6 -41 -3t-25 15l-113 248l-6 -176q-1 -27 10.5 -42t23.5 -25.5t12 -26.5
q0 -26 -49 -26h-75q-52 0 -52 27q0 11 8.5 20.5t18.5 15.5t19 21t10 36l9 219q1 31 -13.5 50.5t-30 33t-15.5 28.5q0 28 53 28h159q26 0 38 -24l98 -220l103 221q9 23 37 23h151q53 0 53 -28q0 -15 -14 -28.5t-27.5 -33t-13.5 -50.5z" />
    <glyph glyph-name="uni043D" unicode="&#x43d;" horiz-adv-x="652" 
d="M580 334v-188q0 -31 8 -49t17.5 -23t17.5 -15.5t8 -28.5q0 -30 -48 -30h-180q-52 0 -52 32q0 17 8 27t17 15t17 23t8 49v26q0 20 -9.5 23.5t-66.5 3.5q-56 0 -65.5 -3.5t-9.5 -23.5v-26q0 -31 8 -49t17.5 -23t17.5 -15.5t8 -28.5q0 -30 -48 -30h-180q-52 0 -52 32
q0 17 8 27t17 15t17 23t8 49v188q0 31 -8 49t-17 23t-17 15.5t-8 28.5t11.5 24t36.5 6h180q52 0 52 -31q0 -17 -8 -27.5t-17.5 -15.5t-17.5 -23t-8 -49v-33q0 -21 9.5 -24.5t66.5 -3.5q56 0 65.5 3.5t9.5 24.5v33q0 31 -8 49t-17 23t-17 15.5t-8 28.5t11.5 24t36.5 6h180
q52 0 52 -31q0 -17 -8 -27.5t-17.5 -15.5t-17.5 -23t-8 -49z" />
    <glyph glyph-name="uni043E" unicode="&#x43e;" horiz-adv-x="586" 
d="M267 -10q-101 0 -168 63.5t-67 167.5q0 113 82.5 191t203.5 78q106 0 171 -66t65 -166q0 -115 -82 -191.5t-205 -76.5zM321 73q58 0 58 96q0 55 -13.5 109.5t-40.5 92.5t-61 38q-20 0 -32.5 -9.5t-18 -27.5t-7 -33.5t-1.5 -37.5q0 -84 33.5 -156t82.5 -72z" />
    <glyph glyph-name="uni043F" unicode="&#x43f;" horiz-adv-x="650" 
d="M578 333v-187q0 -31 8 -49t17.5 -23t17.5 -15.5t8 -28.5q0 -30 -48 -30h-180q-52 0 -52 32q0 17 8 27t17 15t17 23t8 49v223q0 26 -10.5 32t-56.5 6q-55 0 -68.5 -6.5t-13.5 -31.5v-223q0 -31 8 -49t17.5 -23t17.5 -15.5t8 -28.5q0 -30 -48 -30h-180q-52 0 -52 32
q0 17 8 27t17 15t17 23t8 49v187q0 17 -3 36q-5 24 -26 42.5t-21 37.5q0 31 50 31h507q51 0 51 -31q0 -19 -21.5 -37.5t-26.5 -42.5q-3 -20 -3 -36z" />
    <glyph glyph-name="uni0440" unicode="&#x440;" horiz-adv-x="616" 
d="M383 490q82 0 142 -60t60 -168q0 -72 -22.5 -127t-58 -85t-72.5 -45t-72 -15q-58 0 -114 32v-76q0 -31 8 -49t17 -23t17 -15.5t8 -28.5t-11.5 -24t-36.5 -6h-180q-51 0 -51 31q0 17 8 27.5t17 15.5t17 23t8 49v379q0 8 -3.5 15t-6.5 11t-11 11t-10 9q-1 1 -5.5 6
t-6.5 7.5t-4.5 8.5t-2.5 12q0 15 8 23t27 17q29 14 82 29.5t66 15.5q27 0 27 -38v-35q57 73 156 73zM342 69q37 0 54 37.5t17 82.5q0 81 -24.5 140t-74.5 59q-28 0 -48.5 -30t-19.5 -81l1 -59q1 -68 28 -108.5t67 -40.5z" />
    <glyph glyph-name="uni0441" unicode="&#x441;" horiz-adv-x="546" 
d="M281 -10q-118 0 -183.5 69t-65.5 166q0 115 78.5 190t189.5 75q92 0 151 -49t59 -120q0 -41 -24 -63t-58 -22q-62 0 -83 77q-28 96 -81 96q-29 0 -45 -26t-16 -71q0 -87 43 -141.5t115 -54.5q26 0 49 8.5t34 16t35 25.5q19 15 31 4t4 -37q-17 -55 -77.5 -99t-155.5 -44z
" />
    <glyph glyph-name="uni0442" unicode="&#x442;" horiz-adv-x="552" 
d="M367 0h-180q-51 0 -51 32q0 19 21 37t26 43q3 18 3 35v239q0 19 -30 19q-24 1 -38.5 -17t-38.5 -71q-13 -30 -39 -30t-24 45q1 57 14 99q6 26 26 37.5t70 11.5h300q50 0 70 -11.5t26 -37.5q13 -42 14 -99q2 -45 -24 -45t-39 30q-25 53 -39.5 70.5t-38.5 17.5
q-30 0 -30 -19v-239q0 -17 3 -35q5 -24 26 -42.5t21 -39.5q0 -18 -11.5 -24t-36.5 -6z" />
    <glyph glyph-name="uni0443" unicode="&#x443;" horiz-adv-x="614" 
d="M469 480h85q51 0 51 -31q0 -16 -8 -26t-18.5 -15.5t-25.5 -23.5t-26 -46l-122 -313q-47 -123 -100 -179t-149 -56q-56 0 -101 29t-45 84q0 36 22 62t59 26q25 0 41.5 -19t23 -41.5t20.5 -41.5t35 -19q22 0 36.5 19t14.5 50q0 25 -12 55l-136 344q-11 28 -26.5 46
t-26 23.5t-18.5 15.5t-8 27q0 18 11.5 24t36.5 6h192q51 0 51 -31q0 -18 -13 -31.5t-18 -24t9 -55.5l73 -187l68 187q13 45 8 55.5t-18.5 24t-13.5 32.5q0 30 48 30z" />
    <glyph glyph-name="uni0444" unicode="&#x444;" horiz-adv-x="883" 
d="M665 490q79 0 132.5 -57.5t54.5 -164.5q0 -141 -59.5 -209.5t-142.5 -68.5q-74 0 -119 52v-95q0 -31 8 -49t17.5 -23t17.5 -15.5t8 -28.5q0 -30 -48 -30h-180q-52 0 -52 32q0 17 8 27t17 15t17 23t8 49v96q-44 -53 -121 -53q-32 0 -63.5 10t-63.5 33.5t-52 71.5t-20 116
q0 122 57 195.5t147 73.5q66 0 115 -46v108q0 21 -11.5 36t-22.5 25.5t-11 22.5q0 21 33 36q30 14 92 34.5t75 20.5q26 0 26 -38l-1 -137v-116q59 54 134 54zM351 189v108q0 47 -23 72t-47 25q-36 0 -48.5 -40t-12.5 -115q0 -144 75 -144q26 0 41 25.5t15 68.5zM600 94
q71 0 69 142q0 153 -74 153q-24 0 -44 -23t-20 -70v-108q0 -41 20.5 -67.5t48.5 -26.5z" />
    <glyph glyph-name="uni0445" unicode="&#x445;" horiz-adv-x="634" 
d="M499 352l-79 -92l101 -129q22 -29 48 -45t37 -25t11 -31q0 -18 -11.5 -24t-36.5 -6h-225q-52 0 -52 32q0 15 8 25.5t14.5 15t3 19t-22.5 39.5l-33 42l-32 -42q-19 -25 -22.5 -39.5t3 -19.5t14.5 -15.5t8 -26.5q0 -18 -11.5 -24t-36.5 -6h-99q-52 0 -52 32q0 21 11.5 29.5
t37.5 24t49 43.5l84 103l-91 117q-22 29 -48 45t-37 25t-11 31q0 18 11.5 24t36.5 6h226q51 0 51 -31q0 -15 -8 -26t-14.5 -15.5t-3 -19t22.5 -39.5l22 -28l27 31q21 24 24.5 37.5t-3 18.5t-14.5 15.5t-8 26.5q0 18 11.5 24t36.5 6h100q51 0 51 -31q0 -17 -7.5 -26.5
t-19 -14t-32.5 -19.5t-40 -37z" />
    <glyph glyph-name="uni0446" unicode="&#x446;" horiz-adv-x="681" 
d="M643 -131q-23 0 -39 34q-6 11 -14.5 29t-12.5 25t-12.5 18t-17 14.5t-22 7t-32.5 3.5h-422q-50 0 -50 31q0 18 12.5 30t25 31t12.5 55v187q0 31 -8 49t-17 23t-17 15.5t-8 28.5t11.5 24t36.5 6h180q52 0 52 -31q0 -17 -8 -27.5t-17.5 -15.5t-17.5 -23t-8 -49v-229
q0 -17 13 -24t55 -7q52 0 66.5 6.5t14.5 24.5v229q0 31 -8 49t-17 23t-17 15.5t-8 28.5t11.5 24t36.5 6h180q52 0 52 -31q0 -17 -8 -27.5t-17.5 -15.5t-17.5 -23t-8 -49v-232q0 -17 4.5 -22t24.5 -9q43 -7 53 -46t12 -103q2 -53 -29 -53z" />
    <glyph glyph-name="uni0447" unicode="&#x447;" horiz-adv-x="626" 
d="M554 334v-188q0 -31 8 -49t17.5 -23t17.5 -15.5t8 -28.5q0 -30 -48 -30h-180q-52 0 -52 32q0 17 8 27t17 15t17 23t8 49v29q-58 -15 -131 -15q-174 0 -174 143l1 29q0 31 -8 49t-17.5 23t-17.5 15.5t-8 28.5q0 30 48 30h180q52 0 52 -32q0 -17 -7.5 -27t-17 -15.5
t-18 -23.5t-9.5 -48l1 3q-2 -15 0 -32.5t6.5 -32.5t20.5 -25t41 -10q35 0 58 8v91q0 31 -8 49t-17 23t-17 15.5t-8 28.5t11.5 24t36.5 6h180q52 0 52 -31q0 -17 -8 -27.5t-17.5 -15.5t-17.5 -23t-8 -49z" />
    <glyph glyph-name="uni0448" unicode="&#x448;" horiz-adv-x="917" 
d="M849 112q5 -25 26 -43.5t21 -37.5q0 -31 -50 -31h-775q-50 0 -50 31q0 19 21 37.5t26 43.5q3 18 3 35v187q0 31 -8 49t-17 23t-17 15.5t-8 28.5t11.5 24t36.5 6h180q52 0 52 -31q0 -17 -8 -27.5t-17.5 -15.5t-17.5 -23t-8 -49v-224q0 -23 10.5 -29.5t47.5 -6.5q39 0 50 7
t11 29v224q0 31 -6 49t-13.5 23t-13.5 15.5t-6 28.5t11.5 24t36.5 6h158q51 0 51 -31q0 -17 -6 -27.5t-13.5 -15.5t-13.5 -23t-6 -49v-224q0 -23 10.5 -29.5t46.5 -6.5q39 0 50.5 7t11.5 29v224q0 31 -8 49t-17.5 23t-17.5 15.5t-8 28.5q0 30 48 30h181q51 0 51 -31
q0 -17 -8 -27.5t-17 -15.5t-17 -23t-8 -49v-187q0 -17 3 -35z" />
    <glyph glyph-name="uni0449" unicode="&#x449;" horiz-adv-x="988" 
d="M950 -131q-23 0 -39 34q-6 11 -14.5 29t-12.5 25t-12.5 18t-17 14.5t-22 7t-32.5 3.5h-729q-50 0 -50 31q0 15 8 26t17 18t17 25.5t8 46.5v187q0 31 -8 49t-17 23t-17 15.5t-8 28.5t11.5 24t36.5 6h180q52 0 52 -31q0 -17 -8 -27.5t-17.5 -15.5t-17.5 -23t-8 -49v-233
q0 -16 11 -21.5t47 -5.5q38 0 49.5 6t11.5 21v233q0 31 -6 49t-13.5 23t-13.5 15.5t-6 28.5t11.5 24t36.5 6h158q51 0 51 -31q0 -17 -6 -27.5t-13.5 -15.5t-13.5 -23t-6 -49v-233q0 -16 11 -21.5t46 -5.5q38 0 50 6t12 21v233q0 31 -8 49t-17.5 23t-17.5 15.5t-8 28.5
q0 30 48 30h181q51 0 51 -31q0 -17 -8 -27.5t-17 -15.5t-17 -23t-8 -49v-229q0 -21 5.5 -26t27.5 -5q44 -2 62 -12.5t26 -36.5q10 -39 12 -103q2 -53 -29 -53z" />
    <glyph glyph-name="uni044A" unicode="&#x44a;" horiz-adv-x="563" 
d="M352 301q92 0 138.5 -41t46.5 -99q0 -86 -59.5 -123.5t-172.5 -37.5h-245q-51 0 -51 31q0 19 21.5 37.5t26.5 43.5q3 18 3 35v218q0 37 -35 37q-30 0 -42 -14t-38 -71q-13 -31 -39 -31t-24 45q1 57 13 100q6 26 26 37.5t70 11.5h248q50 0 50 -31q0 -19 -21 -37.5
t-26 -42.5q-3 -19 -3 -36v-21q0 -21 23 -18q35 7 90 7zM288 70q69 0 69 64q0 40 -21 65t-58 25h-18q-16 0 -16 -19v-87q0 -26 9.5 -37t34.5 -11z" />
    <glyph glyph-name="uni044B" unicode="&#x44b;" horiz-adv-x="844" 
d="M363 301q92 0 139 -41t47 -100q0 -85 -59.5 -122.5t-172.5 -37.5h-246q-50 0 -50 31q0 19 21 37.5t26 43.5q3 18 3 35v187q0 31 -8 49t-17 23t-17 15.5t-8 28.5t11.5 24t36.5 6h180q52 0 52 -31q0 -17 -8 -27.5t-17.5 -15.5t-17.5 -23t-8 -49v-22q0 -21 23 -18q35 7 90 7
zM773 334v-188q0 -31 8 -49t17 -23t17 -15.5t8 -28.5t-11.5 -24t-36.5 -6h-180q-52 0 -52 32q0 17 8 27t17.5 15t17.5 23t8 49v188q0 31 -8 49t-17.5 23t-17.5 15.5t-8 28.5q0 30 48 30h180q52 0 52 -31q0 -17 -8 -27.5t-17 -15.5t-17 -23t-8 -49zM299 70q70 0 70 64
q0 40 -21.5 65t-58.5 25h-18q-15 0 -15 -19v-87q0 -26 9 -37t34 -11z" />
    <glyph glyph-name="uni044C" unicode="&#x44c;" horiz-adv-x="563" 
d="M363 301q92 0 139 -41t47 -100q0 -85 -59.5 -122.5t-172.5 -37.5h-246q-50 0 -50 31q0 19 21 37.5t26 43.5q3 18 3 35v187q0 31 -8 49t-17 23t-17 15.5t-8 28.5t11.5 24t36.5 6h180q52 0 52 -31q0 -17 -8 -27.5t-17.5 -15.5t-17.5 -23t-8 -49v-22q0 -21 23 -18q35 7 90 7
zM299 70q70 0 70 64q0 40 -21.5 65t-58.5 25h-18q-15 0 -15 -19v-87q0 -26 9 -37t34 -11z" />
    <glyph glyph-name="uni044D" unicode="&#x44d;" horiz-adv-x="552" 
d="M271 490q118 0 184 -67t66 -163q0 -117 -80 -193.5t-197 -76.5q-72 0 -124 28t-70 75q-10 25 3 36.5t32 -3.5q71 -58 144 -58q51 0 84 33t35 108q-51 -24 -74 -24q-26 0 -50 18t-37 18t-29 -6t-23 -6q-10 0 -16.5 6.5t-6.5 16.5q0 30 36 52t67 22q20 0 48.5 -21t52.5 -21
q8 0 28 6q-10 59 -38.5 99.5t-79.5 40.5q-58 0 -94 -50q-19 -26 -28.5 -34.5t-22.5 -8.5q-24 0 -22 47q1 34 10 80q10 46 38 46q10 0 23 -7t26 -7q2 0 39 7t76 7z" />
    <glyph glyph-name="uni044E" unicode="&#x44e;" horiz-adv-x="865" 
d="M598 490q105 0 170 -66t65 -166q0 -115 -82 -191.5t-205 -76.5q-100 0 -167 62t-68 165h-61v-71q0 -31 8 -49t17.5 -23t17.5 -15.5t8 -28.5q0 -30 -48 -30h-180q-52 0 -52 32q0 17 8 27t17 15t17 23t8 49v188q0 31 -8 49t-17 23t-17 15.5t-8 28.5t11.5 24t36.5 6h180
q52 0 52 -31q0 -17 -8 -27.5t-17.5 -15.5t-17.5 -23t-8 -49v-43h70q24 87 100.5 143t177.5 56zM600 73q58 0 58 96q0 55 -13.5 109.5t-40.5 92.5t-61 38q-20 0 -32.5 -9.5t-18 -27.5t-7 -33.5t-1.5 -37.5q0 -84 33.5 -156t82.5 -72z" />
    <glyph glyph-name="uni044F" unicode="&#x44f;" horiz-adv-x="591" 
d="M519 333v-214q0 -28 25.5 -51.5t25.5 -41.5q0 -26 -48 -26h-181q-51 0 -51 27q0 14 12.5 26.5t25 28t12.5 37.5v50q0 23 -23 18q-1 0 -3 -1h-2v-1q-9 -1 -16 -6t-12.5 -16.5t-9 -22.5t-10 -30.5t-11.5 -33.5q-16 -40 -45 -62t-96 -22q-50 0 -77 14t-27 35q-1 10 6 17
t17 7q15 1 23 3t18.5 13.5t21.5 34.5q27 56 65 81q-95 34 -95 125q0 73 62 115.5t166 42.5h227q51 0 51 -31q0 -19 -21.5 -37.5t-26.5 -42.5q-3 -19 -3 -36zM335 286v83q0 29 -8 35q-9 6 -24 6q-28 0 -44 -20t-16 -58q0 -34 19.5 -54t42.5 -20q17 0 23.5 6t6.5 22z" />
    <glyph glyph-name="uni0451" unicode="&#x451;" horiz-adv-x="544" 
d="M171 539q-25 0 -42.5 16.5t-17.5 42.5q0 33 24 59.5t59 26.5q30 0 47.5 -17.5t17.5 -47.5q0 -34 -26 -57t-62 -23zM356 539q-27 0 -44.5 16t-17.5 43q0 33 24.5 59.5t58.5 26.5q29 0 47 -17.5t18 -47.5q0 -34 -25.5 -57t-60.5 -23zM487 177q18 16 30.5 4t4.5 -37
q-17 -55 -85 -104.5t-163 -49.5q-109 0 -175.5 65t-66.5 171q0 114 80 189t183 75q92 0 145 -48t60 -118q3 -24 -21 -38q-120 -61 -245 -112q36 -59 119 -59q64 0 134 62zM239 405q-44 -19 -44 -95q0 -41 11 -66q54 19 105 46q1 1 5 2.5t5.5 2.5t5 2.5t4.5 3t3.5 4t3.5 4.5
t2 5t1 6.5t-0.5 8t-2.5 9.5q-15 41 -42 60t-57 7z" />
    <glyph glyph-name="uni0454" unicode="&#x454;" horiz-adv-x="535" 
d="M468 155q19 15 31 3.5t4 -36.5q-16 -53 -74.5 -92.5t-148.5 -39.5q-117 0 -182.5 67t-65.5 164q0 117 79 193t196 76q72 0 128.5 -24t56.5 -69q0 -20 -14 -33.5t-35 -13.5q-30 0 -74 35.5t-76 35.5q-42 0 -64.5 -31.5t-23.5 -87.5v-12q61 29 83 29q26 0 50 -18.5
t37 -18.5t29 6t23 6q10 0 16.5 -6.5t6.5 -16.5q0 -30 -35.5 -51.5t-67.5 -21.5q-20 0 -48.5 20.5t-52.5 20.5q-2 0 -32 -6q16 -55 54.5 -86t92.5 -31q57 0 107 39z" />
    <glyph glyph-name="uni0456" unicode="&#x456;" horiz-adv-x="316" 
d="M128 525q-35 0 -55 21t-20 51q-1 42 37.5 79t85.5 37q34 1 57 -20t24 -54q0 -46 -39.5 -80t-89.5 -34zM70 146l-1 168q0 17 -7 30t-15.5 19.5t-15.5 15.5t-7 19q0 21 33 36q30 14 91.5 34.5t74.5 20.5q27 0 27 -38l-1 -137v-168q0 -31 8 -49t17.5 -23t17.5 -15.5t8 -28.5
q0 -30 -48 -30h-180q-52 0 -52 32q0 17 8 27t17 15t17 23t8 49z" />
    <glyph glyph-name="uni0457" unicode="&#x457;" horiz-adv-x="316" 
d="M54 539q-25 0 -42.5 16.5t-17.5 42.5q0 33 24 59.5t59 26.5q30 0 47.5 -17.5t17.5 -47.5q0 -34 -26 -57t-62 -23zM239 539q-27 0 -44.5 16t-17.5 43q0 33 24.5 59.5t58.5 26.5q29 0 47 -17.5t18 -47.5q0 -34 -25.5 -57t-60.5 -23zM70 146l-1 168q0 17 -7 30t-15.5 19.5
t-15.5 15.5t-7 19q0 21 33 36q30 14 91.5 34.5t74.5 20.5q27 0 27 -38l-1 -137v-168q0 -31 8 -49t17.5 -23t17.5 -15.5t8 -28.5q0 -30 -48 -30h-180q-52 0 -52 32q0 17 8 27t17 15t17 23t8 49z" />
    <glyph glyph-name="uni0490" unicode="&#x490;" horiz-adv-x="600" 
d="M594 820q29 -11 18 -62q-12 -61 -27 -101q-10 -24 -29 -31.5t-65 -7.5h-147q-36 0 -50 -9.5t-14 -29.5v-389q0 -43 11 -68.5t23.5 -33.5t23.5 -20.5t11 -31.5q0 -20 -13 -28t-48 -8h-208q-34 0 -48 8t-14 28q0 19 11 31.5t25 20.5t25 33.5t11 68.5v308q0 41 -7.5 66.5
t-18 36t-21 17.5t-18 17.5t-7.5 28.5q0 20 14 28t48 8h313q43 0 77.5 23t69.5 71q25 36 54 26z" />
    <glyph glyph-name="uni0491" unicode="&#x491;" horiz-adv-x="499" 
d="M456 590q16 -3 20 -15.5t1 -40.5q-6 -53 -22 -92q-8 -22 -26 -30.5t-68 -8.5h-74q-17 0 -25 -6t-9.5 -14t-1.5 -27l-1 -210q0 -31 8 -49t17.5 -23t17.5 -15.5t8 -28.5q0 -30 -48 -30h-180q-52 0 -52 32q0 17 8 27t17 15t17 23t8 49v187q0 17 -3 36q-5 24 -26 42.5
t-21 37.5q0 31 50 31h219q41 0 64.5 15t57.5 65q8 12 13 18t13.5 10t17.5 2z" />
    <glyph glyph-name="Wgrave" unicode="&#x1e80;" horiz-adv-x="1091" 
d="M585 750q-59 2 -109 29t-49 76q1 23 19 41t40 18q30 -1 86 -50q22 -18 47.5 -47t24.5 -44q0 -23 -59 -23zM928 700h99q62 0 62 -33q0 -14 -10 -24.5t-23 -18t-27.5 -24t-22.5 -38.5l-180 -523q-10 -31 -71 -41q-46 -6 -62.5 -1.5t-23.5 22.5l-120 366l-116 -347
q-9 -31 -71 -40q-43 -5 -59 -1t-22 22l-190 540q-8 24 -22 41.5t-25 24.5t-19 17.5t-8 24.5q0 20 11.5 26.5t35.5 6.5h204q26 0 38.5 -7.5t12.5 -26.5q0 -16 -12 -30.5t-18 -26.5t3 -50l109 -342l107 293l-15 49q-8 24 -21 41.5t-24 24.5t-19 17.5t-8 24.5q0 20 11.5 26.5
t35.5 6.5h204q52 0 52 -34q0 -16 -12 -30.5t-18.5 -27t1.5 -50.5l97 -333l112 337q10 41 3.5 52t-20 25t-13.5 30q0 31 54 31z" />
    <glyph glyph-name="wgrave" unicode="&#x1e81;" horiz-adv-x="895" 
d="M628 562q-44 -17 -111 4.5t-83 66.5q-11 28 0 50.5t38 32.5q34 12 95 -38q63 -56 77 -90q6 -18 -16 -26zM749 482h85q51 0 51 -31q0 -16 -8 -26t-19 -15.5t-26.5 -22.5t-27.5 -45l-133 -301q-4 -10 -9 -16t-19.5 -12.5t-39.5 -10.5q-37 -6 -50.5 -2t-19.5 22l-90 230
l-82 -211q-10 -27 -63 -39q-41 -8 -55.5 -3.5t-21.5 23.5l-131 319q-12 28 -27 45.5t-26 23t-19 15.5t-8 27q0 31 48 31h194q52 0 52 -32q0 -18 -13 -31.5t-18 -23.5t10 -55l58 -141l91 238q4 9 8 15t14.5 13t26.5 11q60 15 75 -21l104 -255l61 141q16 44 11.5 54t-18 23.5
t-13.5 32.5q0 30 48 30z" />
    <glyph glyph-name="Wacute" unicode="&#x1e82;" horiz-adv-x="1091" 
d="M572 750q-59 0 -59 23q-1 15 24.5 44t47.5 47q56 49 86 50q22 0 40 -18t19 -41q1 -49 -49 -76t-109 -29zM928 700h99q62 0 62 -33q0 -14 -10 -24.5t-23 -18t-27.5 -24t-22.5 -38.5l-180 -523q-10 -31 -71 -41q-46 -6 -62.5 -1.5t-23.5 22.5l-120 366l-116 -347
q-9 -31 -71 -40q-43 -5 -59 -1t-22 22l-190 540q-8 24 -22 41.5t-25 24.5t-19 17.5t-8 24.5q0 20 11.5 26.5t35.5 6.5h204q26 0 38.5 -7.5t12.5 -26.5q0 -16 -12 -30.5t-18 -26.5t3 -50l109 -342l107 293l-15 49q-8 24 -21 41.5t-24 24.5t-19 17.5t-8 24.5q0 20 11.5 26.5
t35.5 6.5h204q52 0 52 -34q0 -16 -12 -30.5t-18.5 -27t1.5 -50.5l97 -333l112 337q10 41 3.5 52t-20 25t-13.5 30q0 31 54 31z" />
    </font>
</defs>
</svg>
