<?xml version="1.0" standalone="no"?>
<!DOCTYPE svg PUBLIC "-//W3C//DTD SVG 1.1//EN" "http://www.w3.org/Graphics/SVG/1.1/DTD/svg11.dtd" >
<svg xmlns="http://www.w3.org/2000/svg" xmlns:xlink="http://www.w3.org/1999/xlink" version="1.1">
<metadata>
Created by FontForge 20201107 at Mon Nov 16 14:49:08 2020
 By 
Copyright (c) 2020 by Elena Genova. All rights reserved.
</metadata>
<defs>
<font id="RocaOne-It" horiz-adv-x="0" >
  <font-face 
    font-family="RocaOne-It"
    font-weight="400"
    font-style="italic"
    font-stretch="normal"
    units-per-em="1000"
    panose-1="0 0 5 0 0 0 0 0 0 0"
    ascent="771"
    descent="-229"
    x-height="488"
    cap-height="700"
    bbox="-772 -497 1461.78 940"
    underline-thickness="50"
    underline-position="-100"
    slope="-8.05"
    unicode-range="U+0020-E0FA"
  />
<missing-glyph horiz-adv-x="450" 
d="M369 700v-900h-285v900h285zM150 -16h150v102h-150v-102zM150 -66h63l-63 -42v-30h150v30h-92l63 42h29v30h-150v-30zM150 140h150v102h-90v-50h30v20h30v-42h-90v72h-30v-102zM150 430h150v31h-60v63h-90v-94zM150 547h150v30h-60v33h60v30h-149v-30h59v-33h-60v-30z
M150 313h90v63h60v30h-150v-30h60v-33h-60v-30zM150 262h150v90h-30v-60h-120v-30zM270 57v-43h-90v43h90zM180 493h30v-32h-30v32z" />
    <glyph glyph-name="fl" unicode="fl" horiz-adv-x="621" 
d="M582 675l-80 -562q-6 -41 17 -41q10 0 24 14t20 14q14 0 13 -17q-2 -32 -34 -61.5t-76 -29.5q-95 0 -77 109l59 407q11 70 -8.5 105.5t-59.5 35.5q-34 0 -59 -16t-39.5 -45.5t-22.5 -57.5t-13 -65l92 20q26 5 32.5 -3t-1.5 -31q-4 -14 -8.5 -22.5t-13.5 -12.5t-13 -5
t-18 -3l-80 -14l-65 -456q-1 -7 -4.5 -11.5t-7.5 -6.5t-13 -4l-74 -19q-23 -7 -31 4t5 29q12 18 22 89l51 358l-44 -8q-18 -4 -24.5 2.5t-2.5 24.5q6 27 36 33l44 9l3 23q16 115 102.5 182t243.5 67q62 0 85 -8t20 -27z" />
    <glyph glyph-name=".notdef" horiz-adv-x="450" 
d="M369 700v-900h-285v900h285zM150 -16h150v102h-150v-102zM150 -66h63l-63 -42v-30h150v30h-92l63 42h29v30h-150v-30zM150 140h150v102h-90v-50h30v20h30v-42h-90v72h-30v-102zM150 430h150v31h-60v63h-90v-94zM150 547h150v30h-60v33h60v30h-149v-30h59v-33h-60v-30z
M150 313h90v63h60v30h-150v-30h60v-33h-60v-30zM150 262h150v90h-30v-60h-120v-30zM270 57v-43h-90v43h90zM180 493h30v-32h-30v32z" />
    <glyph glyph-name=".null" 
 />
    <glyph glyph-name="uni000D" horiz-adv-x="333" 
 />
    <glyph glyph-name="space" unicode=" " horiz-adv-x="200" 
 />
    <glyph glyph-name="exclam" unicode="!" horiz-adv-x="238" 
d="M104 633q5 35 27.5 56t52.5 21q31 0 46 -18.5t15 -43.5q0 -7 -1 -15q-3 -23 -45 -147t-61 -221q-3 -13 -6.5 -17.5t-12.5 -4.5q-13 0 -13 16v6q4 57 4 118q0 53 -3.5 120.5t-3.5 103.5q0 19 1 26zM28 48q0 34 24 55.5t54 21.5q25 0 42.5 -16.5t17.5 -45.5q0 -34 -23 -55
t-54 -21q-26 0 -43.5 16t-17.5 45z" />
    <glyph glyph-name="quotedbl" unicode="&#x22;" horiz-adv-x="392" 
d="M288 659q13 53 61 53q49 0 49 -55t-58 -201q-10 -32 -31 -32q-20 0 -22 37q-4 72 -4 121q0 54 5 77zM117 659q13 53 61 53q49 0 49 -55q0 -47 -58 -201q-12 -32 -31 -32q-20 0 -22 37q-5 69 -5 117q0 53 6 81z" />
    <glyph glyph-name="numbersign" unicode="#" horiz-adv-x="704" 
d="M6 233l5 18q6 20 26 20h153l54 142h-147q-16 0 -16 13q0 3 1 7l6 18q5 20 25 20h154l82 212q6 17 25 17h17q17 0 17 -12q0 -4 -2 -10l-80 -207h151l82 212q6 17 25 17h17q17 0 17 -12q0 -4 -2 -10l-80 -207h153q16 0 16 -13q0 -3 -1 -7l-5 -18q-6 -20 -26 -20h-159
l-56 -142h155q15 0 15 -12q0 -3 -1 -8l-5 -18q-5 -20 -25 -20h-162l-75 -196q-6 -17 -24 -17h-18q-17 0 -17 12q0 4 2 10l74 191h-152l-75 -196q-6 -17 -24 -17h-18q-17 0 -17 12q0 4 2 10l74 191h-146q-16 0 -16 13q0 3 1 7zM248 271h152l54 142h-150z" />
    <glyph glyph-name="dollar" unicode="$" horiz-adv-x="534" 
d="M31 147q2 34 23 34q16 0 31 -32q48 -106 155 -106h4q50 0 82 25.5t39 64.5q2 8 2 15q0 20 -14 40.5t-36.5 35t-59.5 33.5q-5 2 -7 3l-6 3q-4 2 -7 4q-85 45 -109 65q-48 43 -48 102q0 10 1 20q9 61 63.5 107.5t136.5 56.5l5 36q1 14 7.5 19t20.5 5q13 0 17 -4t4 -12
q0 -4 -1 -8l-5 -34q19 -1 48 -6t38 -5q11 0 24 5.5t20 5.5q13 0 18 -9.5t7 -37.5q3 -45 3 -72v-13q0 -34 -20 -34q-17 0 -36 34q-17 30 -50.5 55.5t-82.5 25.5q-45 0 -74.5 -22t-34.5 -56q-1 -7 -1 -13q0 -32 26.5 -56t99.5 -62q8 -4 24 -13q40 -21 59.5 -33t44 -34
t32 -43.5t7.5 -42.5q0 -10 -1 -20q-9 -79 -79 -128.5t-161 -55.5l-6 -48q-3 -24 -27 -24q-14 0 -18 4.5t-4 12.5q0 3 1 7l7 49q-23 2 -51 7.5t-38 5.5q-12 0 -25.5 -7t-20.5 -7q-25 0 -26 48q-1 55 -1 85v24z" />
    <glyph glyph-name="percent" unicode="%" horiz-adv-x="836" 
d="M455 178q11 85 68 140t131 55q71 0 105.5 -46.5t34.5 -105.5q0 -16 -2 -34q-12 -85 -68 -140.5t-130 -55.5q-72 0 -107 46.5t-35 103.5q0 18 3 37zM74 515q12 85 68.5 140t130.5 55q71 0 105.5 -46.5t34.5 -105.5q0 -16 -2 -34q-12 -85 -67.5 -140.5t-129.5 -55.5
q-72 0 -107 47t-35 106q0 16 2 34zM136 38l544 651q10 11 19 11q7 0 14 -5l5 -3q7 -7 8 -15q-1 -8 -8 -17l-546 -650q-9 -12 -18 -12q-7 0 -14 6l-3 3q-8 7 -8 15q0 7 7 16zM558 86q17 -48 54 -48q31 0 54 32t31 89q4 28 4 52q0 41 -14 78.5t-50 37.5q-32 0 -55.5 -31
t-30.5 -86q-4 -29 -4 -54q0 -41 11 -70zM177 423q18 -48 55 -48q30 0 53 32t31 88q4 28 4 52q0 41 -14 79t-50 38q-31 0 -54.5 -31t-30.5 -86q-5 -31 -5 -57q0 -39 11 -67z" />
    <glyph glyph-name="ampersand" unicode="&#x26;" horiz-adv-x="840" 
d="M43 240q10 70 59.5 124.5t114.5 83.5q-51 33 -51 92q0 11 2 23q9 64 69.5 106.5t136.5 42.5q96 0 138 -54q8 -10 8 -19q0 -8 -7 -16t-16 -8t-18 7q-43 29 -91 29q-44 0 -76 -24t-38 -63q-1 -10 -1 -20q0 -44 31 -70q16 2 29 2q22 0 40.5 -6t18.5 -24v-5q-4 -29 -26.5 -32
t-30.5 -3q-29 0 -61 15q-87 -60 -100 -162q-2 -16 -2 -31q0 -68 49.5 -123.5t154.5 -55.5q94 0 145.5 47.5t59.5 107.5q2 12 2 22q0 31 -15.5 55t-55.5 24t-64.5 -26.5t-29.5 -63.5q-2 -10 -11 -10q-2 0 -6 1q-22 6 -22 38v3q0 3 1 7q9 59 84 105q24 14 75 37t66 31
q73 36 109.5 69t41.5 72q1 5 1 9q0 31 -37 31q-11 0 -38 -9q-7 -3 -12 -3q-10 0 -12 5.5t-2 8.5q0 11 13 24q38 35 97 36q43 0 68.5 -22.5t25.5 -55.5q0 -7 -1 -15q-19 -135 -266 -215q46 -13 69 -46t23 -71q0 -10 -2 -21q-14 -95 -108.5 -164t-238.5 -69q-151 0 -223 66
t-72 150q0 16 2 33z" />
    <glyph glyph-name="quotesingle" unicode="'" horiz-adv-x="218" 
d="M117 659q13 53 61 53q49 0 49 -55q0 -47 -58 -201q-12 -32 -31 -32q-20 0 -22 37q-5 69 -5 117q0 53 6 81z" />
    <glyph glyph-name="parenleft" unicode="(" horiz-adv-x="382" 
d="M56 334q21 149 113 260.5t216 174.5q17 8 28 8t16 -9q2 -3 2 -7q0 -14 -25 -33q-189 -134 -211 -291t-22 -204q0 -193 123 -307q16 -15 16 -28q0 -6 -4 -12q-9 -11 -22 -11q-8 0 -19 5q-107 57 -162 159t-55 214q0 39 6 81z" />
    <glyph glyph-name="parenright" unicode=")" horiz-adv-x="384" 
d="M-2 -74q193 142 215 299t22 204q0 191 -122 299q-15 15 -15 27q0 7 5 13q7 9 19 9q10 0 25 -8q106 -63 158.5 -160t52.5 -201q0 -36 -5 -74q-23 -163 -119 -280t-220 -174q-11 -5 -20 -5q-12 0 -19 11q-2 4 -2 7q0 14 25 33z" />
    <glyph glyph-name="asterisk" unicode="*" horiz-adv-x="479" 
d="M77 556q10 20 26 26.5t26 6.5t20 -4q17 -6 43.5 -34.5t31.5 -32.5q9 -7 18 -7q6 0 15.5 6t9.5 21q0 4 -1 7q-2 13 -11 45t-9 50v7q3 22 20 38t38 16q22 0 33 -13.5t11 -29.5q0 -5 -1 -11q-2 -19 -23.5 -55.5t-25.5 -46.5q-3 -8 -3 -14q0 -10 6 -15t13 -5q8 0 18 7
q9 6 42.5 33.5t52.5 33.5q11 4 21 4t24 -6.5t18 -26.5q1 -6 1 -11q0 -14 -10.5 -30.5t-32.5 -24.5q-6 -5 -30 -5q-10 0 -33.5 1.5t-38.5 1.5h-8q-21 -1 -25 -11.5t-4 -14.5q0 -11 10 -19q7 -5 40.5 -23t44.5 -34q9 -12 9 -27q0 -6 -3 -19.5t-21 -27.5q-16 -12 -32 -12
q-4 0 -16 2t-24 19q-11 15 -17.5 55.5t-11.5 53.5q-6 17 -20 17l-7.5 -0.5t-18.5 -17.5q-8 -13 -25.5 -53t-32.5 -55q-17 -17 -29.5 -19t-16.5 -2q-16 0 -28 12q-13 13 -13 31q0 2 1 13.5t18 29.5q14 15 55 34.5t46 22.5q16 11 16 25q0 1 -1 10t-21 10h-9q-16 0 -40 -1.5
t-34 -1.5q-23 0 -27 5q-20 8 -25 21.5t-5 21.5q0 11 6 23z" />
    <glyph glyph-name="plus" unicode="+" horiz-adv-x="427" 
d="M33 368l1 8q3 18 10 24t25 6h122l18 123q2 18 9 24t25 6h9q18 0 22.5 -5t4.5 -16q0 -4 -1 -9l-18 -123h123q18 0 22.5 -5t4.5 -16q0 -4 -1 -9l-1 -8q-2 -18 -9 -24t-25 -6h-123l-18 -123q-2 -18 -9 -24t-25 -6h-9q-18 0 -22.5 5t-4.5 16q0 4 1 9l18 123h-123
q-18 0 -22.5 5t-4.5 16q0 4 1 9z" />
    <glyph glyph-name="comma" unicode="," horiz-adv-x="247" 
d="M23 -129q0 7 23.5 33t23.5 49q0 15 -21 42t-21 54q0 35 22.5 55.5t51.5 20.5q31 0 51 -21.5t20 -57.5q0 -70 -48 -129t-86 -59q-16 0 -16 13z" />
    <glyph glyph-name="hyphen" unicode="-" horiz-adv-x="356" 
d="M59 285l5 14q9 20 29 20h201q19 0 19 -13q0 -4 -2 -9l-6 -14q-9 -20 -29 -20h-201q-18 0 -18 12q0 5 2 10z" />
    <glyph glyph-name="period" unicode="." horiz-adv-x="237" 
d="M52 106q24 21 54 21q25 0 42.5 -16.5t17.5 -45.5q0 -34 -23 -55t-54 -21q-26 0 -43.5 16t-17.5 45q0 34 24 56z" />
    <glyph glyph-name="slash" unicode="/" horiz-adv-x="398" 
d="M2 -69l356 786q9 23 34 23h10q21 0 21 -14q0 -7 -5 -17l-355 -786q-11 -23 -35 -23h-7q-18 0 -21 5t-3 8q0 7 5 18z" />
    <glyph glyph-name="zero" unicode="0" horiz-adv-x="621" 
d="M66 361q22 154 106.5 251.5t199.5 97.5q120 0 170.5 -89.5t50.5 -193.5q0 -41 -6 -86q-21 -155 -104.5 -253t-197.5 -98q-122 0 -173.5 90t-51.5 196q0 40 6 85zM198 176q10 -57 35 -94.5t63 -38.5h3q56 0 94.5 66t56.5 167q11 62 11.5 96t0.5 37q0 61 -9.5 116.5t-35 92
t-63.5 37.5h-4q-56 0 -93.5 -64t-55.5 -166q-11 -62 -11.5 -97.5t-0.5 -41.5q0 -58 9 -110z" />
    <glyph glyph-name="one" unicode="1" horiz-adv-x="361" 
d="M59 41q9 9 20.5 16t23 23.5t14.5 39.5l59 416q2 13 2 23q0 16 -5.5 28t-34.5 21q-29 8 -29 24v2q2 9 12 15.5t45 19.5q100 39 129 41h3q9 0 12.5 -5.5t3.5 -15.5v-5l-80 -564q-1 -7 -1 -14q0 -14 5.5 -28.5t15.5 -22t18.5 -17t8.5 -18.5q0 -20 -44 -20h-142q-45 0 -45 21
q0 11 9 20z" />
    <glyph glyph-name="two" unicode="2" horiz-adv-x="585" 
d="M8 21q0 24 20 39q89 75 144.5 125.5t113.5 110.5t88.5 110.5t36.5 95.5q1 11 1 20q0 40 -25.5 69.5t-79.5 29.5q-86 0 -166 -84q-9 -10 -17 -10q-5 0 -9.5 3.5t-4.5 10.5t5 17q31 59 98.5 105.5t150.5 46.5q88 0 133.5 -46.5t45.5 -108.5q0 -16 -3 -33
q-25 -161 -334 -377q31 -2 90 -18t104 -16q29 0 50.5 10t30 21.5t17.5 21.5t16 10q16 0 16 -28q-2 -62 -40.5 -105t-97.5 -43q-58 0 -135.5 28.5t-109.5 28.5q-25 0 -59 -30.5t-51 -30.5h-2q-27 0 -27 27z" />
    <glyph glyph-name="three" unicode="3" horiz-adv-x="600" 
d="M44 167q6 3 11 3q9 0 16 -10q66 -90 185 -90q61 0 108 34t56 97q2 12 2 23q0 52 -43.5 86t-139.5 45q-21 3 -21 18.5t18 28.5q115 83 197 167q-25 1 -76.5 12.5t-87.5 11.5q-49 0 -80 -28q-7 -7 -15 -16l-12 -13q-4 -5 -9.5 -8.5t-11.5 -3.5q-15 0 -15 23q0 21 12 61
q16 51 41 75t72 24q45 0 128.5 -24t124.5 -24q12 0 32 18.5t31 18.5q19 0 22 -8t3 -11q0 -10 -9 -20q-119 -139 -243 -236q99 -10 155.5 -61t56.5 -125q0 -17 -3 -35q-12 -88 -83.5 -151t-191.5 -63q-96 0 -161 46t-81 106q-1 4 -1 8q0 14 13 21z" />
    <glyph glyph-name="four" unicode="4" horiz-adv-x="601" 
d="M25 173q2 17 15 39.5t45 61t54.5 64.5t75.5 85q171 192 223 241q28 27 45 37.5t39 10.5q29 0 29 -26v-7l-64 -452q21 0 40.5 6t24.5 6q11 0 11 -16q0 -17 -11 -50q-12 -47 -49 -47h-30l-13 -91q-3 -27 -27 -39q-37 -20 -76 -20q-24 0 -24 23v5l18 127l-289 -1
q-23 0 -30.5 7t-7.5 21q0 7 1 15zM133 236q2 -9 18 -9h3l217 1l49 344q-137 -143 -275 -310q-12 -14 -12 -23v-3z" />
    <glyph glyph-name="five" unicode="5" horiz-adv-x="590" 
d="M29 171q5 3 10 3q9 0 16 -10q69 -90 189 -90q67 0 111 36.5t52 94.5q2 14 2 26q0 67 -59 107.5t-194 57.5q-20 3 -20 17q0 7 4 16l108 248q10 23 32 23h2q43 -3 90 -3t97 3q43 2 72 17.5t37 15.5q13 0 13 -16q0 -6 -2 -15q-5 -24 -24 -63q-10 -19 -24 -27t-46 -10
q-52 -3 -104 -3q-60 0 -121 4l-54 -122q176 -23 250.5 -86.5t74.5 -150.5q0 -16 -2 -33q-13 -93 -82.5 -157t-190.5 -64q-101 0 -167.5 46t-81.5 106q-1 4 -1 8q0 14 13 21z" />
    <glyph glyph-name="six" unicode="6" horiz-adv-x="595" 
d="M60 314q23 166 121 281t222 115q53 0 91 -18.5t53 -45.5q4 -8 4 -15q0 -8 -6.5 -15t-14.5 -7q-6 0 -12 4q-53 29 -112 29q-70 0 -125.5 -62t-72.5 -172q27 36 75 59t97 23q90 0 134.5 -62t44.5 -135q0 -21 -3 -43q-16 -113 -89.5 -186.5t-182.5 -73.5q-121 0 -175 76.5
t-54 177.5q0 33 5 70zM204 108q28 -57 92 -58h4q55 0 91 49.5t45 123.5q3 19 3 38q0 52 -25 100.5t-86 49.5h-2q-56 0 -94.5 -49t-46.5 -120q-3 -20 -3 -38q0 -54 22 -96z" />
    <glyph glyph-name="seven" unicode="7" horiz-adv-x="536" 
d="M87 52q7 54 48.5 127t78.5 121.5t118 145t105 126.5q-12 -2 -26 -2q-37 0 -100 14t-93 14q-28 0 -48.5 -11.5t-29.5 -26t-18.5 -26.5t-17.5 -12q-16 0 -16 27q0 65 32.5 113t94.5 48q47 0 131.5 -22.5t131.5 -22.5q21 0 43 20t36 20q18 0 21 -7t3 -10q0 -11 -10 -26
q-59 -76 -92.5 -120.5t-87.5 -123.5t-85.5 -138t-60 -132t-37.5 -136q-3 -22 -23 -22h-3q-46 2 -79 23q-17 10 -17 30q0 5 1 9z" />
    <glyph glyph-name="eight" unicode="8" horiz-adv-x="589" 
d="M38 181q9 59 54 107.5t107 81.5q-81 65 -81 142q0 10 1 20q11 81 84.5 129t174.5 48q85 0 137.5 -37.5t52.5 -94.5q0 -10 -2 -21q-16 -106 -154 -173q71 -47 97.5 -85.5t26.5 -83.5q0 -13 -2 -28q-13 -89 -90 -142.5t-186 -53.5q-102 0 -162 46t-60 116q0 14 2 29z
M176 86q35 -43 105 -43q52 0 87.5 33t41.5 77q1 7 1 13q0 35 -29 69t-105 81q-24 15 -43 29q-73 -67 -84 -149q-2 -15 -2 -28q0 -48 28 -82zM270 486q33 -34 99 -76q4 -2 5 -3q77 63 86 136q1 11 1 21q0 37 -24 64.5t-77 27.5q-44 0 -77.5 -25t-39.5 -67q-1 -7 -1 -13
q0 -36 28 -65z" />
    <glyph glyph-name="nine" unicode="9" horiz-adv-x="599" 
d="M74 444q16 112 100 189t188 77q115 0 164 -75.5t49 -176.5q0 -34 -5 -73q-23 -171 -112 -283t-219 -112h-6q-58 0 -97 18.5t-53 45.5q-4 7 -4 14q0 8 6.5 15t15.5 7q5 0 11 -3q50 -29 112 -29q70 0 125.5 61.5t72.5 172.5q-28 -36 -75.5 -59t-96.5 -23q-90 0 -134.5 60.5
t-44.5 132.5q0 20 3 41zM216 354q31 -66 96 -66q55 0 89.5 42t43.5 104q3 24 3 46q0 58 -26.5 114.5t-93.5 56.5q-56 0 -89 -42t-41 -104q-4 -25 -4 -49q0 -55 22 -102z" />
    <glyph glyph-name="colon" unicode=":" horiz-adv-x="237" 
d="M28 50q0 34 24 55.5t54 21.5q25 0 42.5 -16.5t17.5 -45.5q0 -34 -23 -55t-54 -21q-26 0 -43.5 16t-17.5 45zM72 360q0 34 24 55.5t54 21.5q25 0 42.5 -16.5t17.5 -45.5q0 -34 -23 -55t-54 -21q-26 0 -43.5 16t-17.5 45z" />
    <glyph glyph-name="semicolon" unicode=";" horiz-adv-x="249" 
d="M25 -129q0 7 23.5 33t23.5 49q0 15 -21.5 42t-21.5 54q0 34 23 55t51 21q31 0 51 -21.5t20 -57.5q0 -70 -48 -129t-86 -59q-15 0 -15 13zM95 416q24 21 55 21q25 0 42.5 -16.5t17.5 -45.5q0 -34 -23.5 -55t-54.5 -21q-26 0 -43.5 16t-17.5 45q0 34 24 56z" />
    <glyph glyph-name="equal" unicode="=" horiz-adv-x="527" 
d="M38 275l1 9q2 18 9 24t25 6h407q18 0 22.5 -5t4.5 -16q0 -4 -1 -9l-1 -9q-2 -18 -9 -24t-25 -6h-407q-18 0 -22.5 5t-4.5 16q0 4 1 9zM61 442l1 8q2 18 9 24t25 6h407q18 0 22.5 -5t4.5 -16q0 -4 -1 -9l-1 -8q-2 -18 -9 -24t-25 -6h-407q-18 0 -22.5 5t-4.5 16q0 4 1 9z
" />
    <glyph glyph-name="question" unicode="?" horiz-adv-x="446" 
d="M66 569q8 56 68.5 98.5t151.5 42.5t135 -36.5t44 -84.5q0 -9 -1 -19q-5 -33 -28.5 -65t-50.5 -54t-61 -51.5t-51 -52.5q-28 -39 -36 -78q-3 -18 -13 -22t-15 -4q-7 0 -15 6t-8 20q0 4 1 8q6 45 29 88t47 71.5t46.5 66.5t25.5 60t3 29q0 24 -13.5 44t-46.5 20
q-58 0 -104 -96q-9 -17 -14 -25.5t-17.5 -16.5t-28.5 -8q-27 0 -38 15.5t-11 33.5q0 5 1 10zM146 104q24 21 55 21q25 0 42.5 -16.5t17.5 -45.5q0 -34 -23.5 -55t-54.5 -21q-26 0 -43.5 16t-17.5 45q0 34 24 56z" />
    <glyph glyph-name="at" unicode="@" horiz-adv-x="828" 
d="M53 301q23 162 151 273.5t296 111.5q150 0 227 -82t77 -186q0 -25 -4 -51q-13 -97 -72.5 -170.5t-146.5 -73.5q-77 0 -95 68q-53 -69 -124 -69q-51 0 -86 38t-35 101q0 88 60.5 158.5t142.5 70.5q23 0 52.5 -8t35.5 -8q11 0 30 8.5t28 8.5q18 0 18 -24v-7l-33 -228
q-2 -10 -2 -19q0 -37 33 -37h2q48 0 88 56.5t51 133.5q3 22 3 43q0 90 -65.5 159t-191.5 69q-144 0 -254.5 -95t-130.5 -239q-4 -28 -4 -54q0 -103 72 -180.5t216 -77.5q77 0 141 19q7 2 13 2q12 0 15 -11q1 -3 1 -5q0 -14 -19 -23q-1 0 -3 -1q-68 -27 -159 -27
q-168 0 -250.5 89t-82.5 206q0 29 5 61zM326 285q0 -53 21 -78t51 -25q40 0 69 45.5t40 117.5l9 66v2q0 9 -22.5 23t-50.5 14q-54 0 -85 -52.5t-32 -112.5z" />
    <glyph glyph-name="A" unicode="A" horiz-adv-x="701" 
d="M104 0h-85q-23 0 -34.5 5t-9.5 17q2 14 17 22.5t39 26.5t42 52l249 464q14 32 7.5 42t-18.5 22t-10 25q1 24 32 24h103q22 0 28 -22l141 -553q9 -35 25.5 -53t26.5 -25.5t8 -21.5q-4 -25 -54 -25h-139q-45 0 -42 23q2 11 13 20t21 15t16 23t-2 44l-12 50q-5 20 -16 24
q-16 6 -128 6q-106 0 -125.5 -3.5t-30.5 -25.5l-29 -53q-19 -42 -15 -54t16 -22.5t10 -22.5q-4 -24 -44 -24zM221 263q10 -5 109 -5t107 6q5 6 1 20l-69 275l-146 -275q-9 -18 -2 -21z" />
    <glyph glyph-name="B" unicode="B" horiz-adv-x="664" 
d="M279 0h-208q-28 0 -40 5.5t-10 18.5q2 12 11 20.5t20 13.5t23 18t18 33q5 14 9 44l55 394q4 28 4 44q0 25 -13.5 39t-25 22.5t-9.5 23.5q4 24 56 24h183q117 0 177 -38t50 -115q-6 -47 -38.5 -81.5t-90.5 -47.5q87 -15 132 -66.5t35 -126.5q-16 -110 -104 -167.5
t-234 -57.5zM314 441q70 0 104.5 22t40.5 69q8 50 -25 82t-94 32q-28 0 -41 -7.5t-16 -28.5l-21 -148q-1 -8 2.5 -12.5t13.5 -6t15.5 -2t20.5 -0.5zM284 54q92 0 141.5 35.5t60.5 113.5q12 81 -37 131t-148 50q-31 0 -41.5 -7.5t-12.5 -27.5l-33 -225q-6 -39 7.5 -54.5
t62.5 -15.5z" />
    <glyph glyph-name="C" unicode="C" horiz-adv-x="694" 
d="M356 -10q-153 0 -238 104.5t-63 261.5q22 156 142 255t282 99q37 0 76 -7.5t47 -7.5q13 0 27 6.5t22 6.5q15 0 22.5 -11t10.5 -41q6 -64 7 -134q-2 -39 -25 -40q-13 -1 -21.5 7.5t-21.5 31.5q-18 31 -29 47.5t-33 38.5t-51.5 32t-69.5 10q-100 0 -170.5 -75.5
t-86.5 -185.5q-18 -138 41.5 -230.5t176.5 -92.5q112 0 214 95q20 19 30 3q9 -15 -6 -36q-36 -52 -112.5 -94.5t-170.5 -42.5z" />
    <glyph glyph-name="D" unicode="D" horiz-adv-x="758" 
d="M320 0h-249q-28 0 -40 5.5t-10 18.5q2 12 11 20.5t20 13.5t23 18t18 33q5 14 9 44l55 394q4 28 4 44q0 25 -13.5 39t-25 22.5t-9.5 23.5q4 24 56 24h222q82 0 146 -20t104 -52.5t64.5 -77t31.5 -91.5t0 -97q-22 -155 -130 -258.5t-287 -103.5zM315 52q254 0 291 258
q21 147 -48 243.5t-207 96.5q-37 0 -51 -8.5t-18 -35.5l-69 -494q-5 -32 15 -46t87 -14z" />
    <glyph glyph-name="E" unicode="E" horiz-adv-x="632" 
d="M463 0h-393q-29 0 -40 5t-9 19q2 12 9 19t17 12t20.5 13.5t20 30t14.5 54.5l55 394q5 37 1.5 55.5t-11.5 29t-16.5 14.5t-14 11t-3.5 19q2 14 14.5 19t41.5 5l380 1q43 0 56 -6t17 -27q11 -49 11 -105q2 -37 -19 -43q-14 -4 -22.5 3t-17.5 28q-21 49 -53 72t-86 23h-45
q-63 0 -84 -10t-25 -36l-15 -111q-4 -32 13 -40.5t67 -8.5q42 0 65 8t33.5 16.5t22.5 8.5q21 0 24 -31l7 -99q3 -27 -1.5 -36.5t-17.5 -13.5q-14 -3 -26 10.5t-21 32t-33.5 35t-59.5 16.5q-51 0 -70.5 -8.5t-24.5 -40.5l-33 -236q-4 -27 14.5 -38t83.5 -10l72 1
q54 0 81 21.5t61 77.5q26 43 48 39q12 -3 14 -13.5t-2 -26.5q-14 -70 -32 -115q-9 -21 -26 -29.5t-62 -8.5z" />
    <glyph glyph-name="F" unicode="F" horiz-adv-x="621" 
d="M628 563q2 -37 -19 -43q-14 -4 -22.5 3t-17.5 28q-21 49 -51.5 72t-80.5 23h-47q-63 0 -84 -10.5t-25 -36.5l-17 -119q-4 -32 11 -40.5t53 -8.5h25q32 0 53.5 5t29 11.5t16.5 11.5t19 5q21 0 23 -31l8 -99q2 -28 -2 -37.5t-18 -12.5q-14 -4 -25 10t-20 32.5t-32.5 34.5
t-58.5 16h-25q-38 0 -55.5 -8.5t-22.5 -40.5l-24 -172q-5 -36 -1.5 -54.5t11 -30t15.5 -16t13.5 -12.5t3.5 -19q-4 -24 -57 -24h-134q-28 0 -39.5 5.5t-9.5 18.5q2 11 9 18.5t17 13.5t20.5 15t20 30.5t14.5 54.5l55 391q5 37 1.5 55.5t-11.5 29t-16.5 14.5t-14 11t-3.5 19
q2 14 14.5 19t41.5 5l376 1q42 0 55 -6t17 -27q11 -49 11 -105z" />
    <glyph glyph-name="G" unicode="G" horiz-adv-x="748" 
d="M354 -10q-159 0 -241 96.5t-61 247.5q23 159 142 267.5t275 108.5q41 0 81.5 -7.5t47.5 -7.5q13 0 27 6.5t22 6.5q15 0 23 -11t10 -41q6 -67 5 -134q-2 -39 -24 -40q-13 -1 -21 8t-20 31q-16 29 -28 47t-34 39t-53 31.5t-72 10.5q-99 0 -168 -74.5t-85 -181.5
q-20 -148 36.5 -243t174.5 -95q52 0 98.5 20t51.5 53l14 99q4 30 -9.5 48t-32.5 23t-34 14t-13 23q2 13 14.5 18.5t41.5 5.5l165 1q19 0 28.5 -5.5t7.5 -18.5q-2 -12 -9 -20t-14.5 -13.5t-16 -24.5t-12.5 -50l-13 -94q-6 -52 -99 -98t-205 -46z" />
    <glyph glyph-name="H" unicode="H" horiz-adv-x="818" 
d="M205 0h-135q-28 0 -39 5.5t-10 18.5q2 15 16 23.5t31 22.5t24 39q6 19 9 34l57 414q2 22 2 34q0 21 -8 34t-17 17.5t-15.5 12.5t-4.5 21q1 13 13.5 18.5t41.5 5.5h135q28 0 39 -5.5t10 -18.5q-2 -15 -16 -23.5t-31 -22t-24 -39.5q-7 -20 -8 -34l-15 -109q-4 -30 5 -37
q14 -12 120 -12h50q137 0 158 8q17 6 21 32q0 3 1 9l15 109q3 16 3 34q-1 21 -9 34t-17 17.5t-15.5 12.5t-4.5 21q1 13 14 18.5t42 5.5h134q28 0 39.5 -5.5t10.5 -18.5q-2 -15 -16.5 -23.5t-31.5 -22t-24 -39.5q-7 -20 -8 -34l-57 -414q-3 -17 -3 -34q1 -21 9 -34t17 -17.5
t15.5 -12.5t4.5 -21q-1 -13 -14 -18.5t-42 -5.5h-134q-28 0 -39.5 5.5t-10.5 18.5q2 12 11 20.5t20 13.5t23 18t18 33q7 20 8 34l21 153q4 31 -5 38q-14 11 -118 11h-45q-143 0 -165 -8q-17 -6 -21 -30l-2 -11l-21 -153q-2 -22 -2 -34q0 -21 8 -34t17 -17.5t16 -12.5t5 -21
q-4 -24 -56 -24z" />
    <glyph glyph-name="I" unicode="I" horiz-adv-x="345" 
d="M205 0h-135q-28 0 -39 5.5t-10 18.5q2 15 16 23.5t31 22.5t24 39q6 19 9 34l57 414q2 22 2 34q0 21 -8 34t-17 17.5t-15.5 12.5t-4.5 21q1 13 13.5 18.5t41.5 5.5h135q28 0 39 -5.5t10 -18.5q-2 -15 -16 -23.5t-31 -22t-24 -39.5q-7 -20 -8 -34l-58 -414q-2 -22 -2 -34
q0 -21 8 -34t17 -17.5t16 -12.5t5 -21q-4 -24 -56 -24z" />
    <glyph glyph-name="J" unicode="J" horiz-adv-x="542" 
d="M180 -9q-91 0 -134.5 49.5t-33.5 116.5q4 29 22 45t42 16q49 0 51 -56q1 -53 17.5 -82t56.5 -29q96 0 123 197l43 309q3 16 3 34q-1 21 -9 34t-17 17.5t-15.5 12.5t-4.5 21q1 13 14 18.5t42 5.5h135q28 0 39 -5.5t10 -18.5q-2 -12 -11 -20t-20 -13t-23 -18.5t-17 -33.5
q-6 -19 -9 -34l-36 -269q-20 -147 -80.5 -222t-187.5 -75z" />
    <glyph glyph-name="K" unicode="K" horiz-adv-x="710" 
d="M569 700h114q28 0 40 -5.5t10 -18.5q-2 -17 -14.5 -23.5t-44.5 -20.5t-64 -41l-95 -79l121 -389q8 -26 21.5 -42.5t24 -22t17.5 -13.5t5 -21q-4 -24 -48 -24h-131q-29 0 -40.5 5.5t-9.5 20.5q1 11 15.5 24t21 24.5t-0.5 45.5l-93 314l-182 -150l-19 -140
q-5 -34 1.5 -54.5t17 -26t19 -14.5t6.5 -24q-4 -24 -57 -24h-134q-28 0 -39.5 5.5t-9.5 18.5q2 14 13 24t23.5 17t25.5 27t17 51l58 412q4 28 0 46.5t-12 26.5t-16 13t-13 13t-3 20q2 14 14 19t42 5h134q29 0 40 -5t10 -19q-2 -13 -13.5 -23.5t-24 -17.5t-25.5 -27t-17 -51
l-27 -196l281 231q22 19 26 31.5t-4 18t-16.5 14.5t-6.5 20q4 25 42 25z" />
    <glyph glyph-name="L" unicode="L" horiz-adv-x="578" 
d="M424 0h-354q-28 0 -39.5 5.5t-9.5 18.5q2 15 16 23.5t31 22.5t24 39q6 19 10 44l56 403q2 24 2 34q0 21 -8 34.5t-17.5 17.5t-16 12t-4.5 21q2 14 14.5 19t41.5 5h135q28 0 39 -5t10 -19q-2 -12 -11 -20t-20 -13t-23 -18.5t-18 -33.5q-6 -22 -7 -34l-64 -454
q-4 -27 11 -38t65 -10l58 1q37 0 63 12.5t39 28t37 52.5t43 37q21 0 14 -38q-11 -63 -30 -109q-9 -21 -26 -29.5t-61 -8.5z" />
    <glyph glyph-name="M" unicode="M" horiz-adv-x="917" 
d="M140 0h-78q-24 0 -34 5t-8 19q1 11 11 19t21.5 14.5t23.5 23t17 41.5l82 456q4 23 -1.5 39.5t-14.5 23t-16.5 16t-5.5 20.5q3 23 46 23h98q24 0 31 -22l134 -480l288 480q13 22 36 22h92q23 0 32 -5t8 -18q-2 -12 -11.5 -20.5t-20.5 -14.5t-21 -22.5t-13 -41.5l-47 -441
q-3 -29 4.5 -47.5t17.5 -24.5t18 -15.5t6 -24.5q-2 -14 -13.5 -19.5t-38.5 -5.5h-132q-28 0 -39.5 5.5t-8.5 19.5q2 14 12 24t22 16.5t23.5 25t14.5 46.5l48 414l-292 -484q-12 -19 -34 -24q-28 -7 -35 13l-134 489l-75 -423q-4 -25 1 -41.5t14 -23t16 -15t5 -19.5
q-2 -14 -13 -18.5t-36 -4.5z" />
    <glyph glyph-name="N" unicode="N" horiz-adv-x="758" 
d="M116 0h-78q-24 0 -34 5t-8 19q1 11 10.5 19t20.5 14.5t22 23t15 41.5l59 428q4 35 0.5 53t-11.5 28.5t-16.5 15t-14 11.5t-3.5 18q4 24 56 24h63q22 0 37 -20l361 -453l48 351q3 25 -3 41.5t-15 23t-16 15t-6 19.5q2 14 13 18.5t36 4.5h78q24 0 34 -5t8 -19
q-1 -10 -10.5 -18.5t-20.5 -14.5t-22 -23t-14 -42l-77 -549q-4 -29 -25 -29h-15q-24 0 -20 27q4 34 -20 64l-366 454l-57 -423q-3 -25 3 -41.5t15 -23t16 -15t6 -19.5q-2 -14 -13 -18.5t-36 -4.5z" />
    <glyph glyph-name="O" unicode="O" horiz-adv-x="776" 
d="M354 -7q-128 2 -215.5 86.5t-87.5 216.5q0 110 53.5 205t147 151t205.5 56q139 0 219.5 -86t80.5 -212q0 -177 -115.5 -299t-287.5 -118zM388 56q111 0 176.5 103t65.5 240q0 113 -51 181.5t-142 68.5q-113 0 -187 -103t-74 -240q0 -114 57 -182t155 -68z" />
    <glyph glyph-name="P" unicode="P" horiz-adv-x="657" 
d="M21 25q2 13 13 22t23.5 15t25.5 27t18 55l56 403q3 20 3 35q0 17 -5 35t-16 23.5t-18.5 12.5t-7.5 18v5q4 24 56 24h184q156 0 228 -65t72 -152q0 -18 -3 -37q-16 -111 -101.5 -169.5t-235.5 -58.5h-65q-14 0 -17.5 -3t-5.5 -17q-6 -44 -8 -69q-1 -7 -1 -14
q0 -13 3.5 -26t11 -20t15 -12.5t12 -12t4.5 -13.5q0 -3 -1 -6q-1 -13 -14 -18.5t-42 -5.5h-134q-28 0 -39 5.5t-11 16.5v2zM253 277q16 -7 63 -7q187 0 209 159q3 21 3 40q0 71 -46 125t-138 54q-35 0 -46.5 -5.5t-13.5 -21.5l-45 -320v-4q0 -14 14 -20z" />
    <glyph glyph-name="Q" unicode="Q" horiz-adv-x="776" 
d="M710 -27q19 0 19 -35q0 -42 -32.5 -71.5t-99.5 -29.5q-37 0 -95.5 16t-96.5 30t-113 43q-154 58 -188 58q-14 0 -24.5 -8t-14.5 -8q-8 0 -13 8t-5 18q0 22 17 37t50 15t89 -14q-70 39 -111 107.5t-41 156.5q0 110 53.5 205t147 151t205.5 56q139 0 219.5 -86t80.5 -212
q0 -115 -51.5 -211.5t-144 -152t-205.5 -53.5q184 -47 279 -47q31 0 49.5 13.5t25.5 13.5zM437 649q-113 0 -187 -103t-74 -240q0 -114 57 -182t155 -68q111 0 176.5 103t65.5 240q0 113 -51 181.5t-142 68.5z" />
    <glyph glyph-name="R" unicode="R" horiz-adv-x="679" 
d="M205 0h-134q-28 0 -40 5.5t-10 18.5q2 14 13 24t24 16.5t25.5 26.5t17.5 52l56 404q4 35 1 53.5t-11 29.5t-16.5 15.5t-14 12t-3.5 18.5q4 24 56 24h198q158 0 233 -67.5t61 -174.5q-20 -142 -155 -197l57 -145q11 -29 29 -44.5t28.5 -23.5t8.5 -24q-4 -24 -48 -24h-128
q-25 0 -35.5 5.5t-8.5 20.5q2 12 16 24.5t19.5 23t-4.5 46.5l-43 116q-25 -4 -61 -4h-86q-20 0 -23 -20q-5 -37 -10 -84q-2 -22 2 -37.5t11.5 -22.5t15 -12.5t12.5 -13t3 -18.5q-2 -14 -14.5 -19t-41.5 -5zM338 285q81 0 133.5 38.5t64.5 117.5q12 91 -37 148.5t-143 58.5
q-44 0 -57 -5.5t-15 -21.5l-43 -306q-2 -11 4.5 -17t28.5 -9.5t64 -3.5z" />
    <glyph glyph-name="S" unicode="S" horiz-adv-x="598" 
d="M262 -10q-43 0 -88 8t-53 8q-14 0 -29 -8t-23 -8q-15 0 -21.5 12t-7.5 43q-2 96 0 143q2 39 24 39q21 0 36 -38q47 -142 181 -142q61 -1 96.5 27t43.5 72q5 27 -4.5 50.5t-36.5 44.5t-46.5 32.5t-60.5 32.5q-47 26 -72.5 42.5t-55.5 44.5t-40.5 62.5t-4.5 77.5
q10 77 82.5 126t181.5 49q28 0 65.5 -6t47.5 -6q13 0 27 6t22 6q15 0 21 -10.5t8 -41.5q6 -67 5 -117q0 -39 -26 -39q-19 0 -38 37q-58 117 -154 117q-52 0 -86 -23.5t-40 -64.5q-4 -26 4 -47t31 -40.5t45 -33.5t64 -37q41 -22 61.5 -33.5t51.5 -34.5t45 -43t24 -49t6 -63
q-11 -92 -94.5 -143.5t-191.5 -51.5z" />
    <glyph glyph-name="T" unicode="T" horiz-adv-x="650" 
d="M358 1h-135q-28 0 -39 5.5t-10 18.5q2 15 16 23.5t31 22t24 39.5q6 15 9 34l63 453q3 24 -6.5 35.5t-35.5 11.5q-50 0 -75 -20t-63 -77q-25 -39 -42 -39q-24 0 -17 39q10 68 30 115q9 21 26 29.5t61 8.5l388 1q45 0 60 -8.5t18 -30.5q6 -43 -2 -114q-5 -39 -28 -39
q-18 0 -32 38q-12 31 -18 44t-18.5 28.5t-29.5 20.5t-43 5q-49 0 -56 -47l-64 -454q-2 -11 -2 -34q0 -21 8 -34t17 -17.5t16 -12.5t5 -21q-4 -24 -56 -24z" />
    <glyph glyph-name="U" unicode="U" horiz-adv-x="742" 
d="M345 -10q-133 0 -193 77.5t-40 223.5l37 264q2 12 2 35q0 21 -8 34t-17 17.5t-16 12.5t-5 21q4 24 56 24h135q28 0 39.5 -5.5t9.5 -18.5q-2 -15 -16 -23.5t-31 -22.5t-25 -39q-3 -14 -7 -35l-40 -285q-15 -103 26 -158.5t129 -55.5q89 0 146 61t72 163l40 297q3 25 -3 42
t-15 23t-16 14.5t-6 19.5q4 24 49 24h78q24 0 34 -5t8 -19q-1 -11 -10.5 -19t-20.5 -14.5t-22 -23.5t-14 -42l-40 -278q-43 -309 -316 -309z" />
    <glyph glyph-name="V" unicode="V" horiz-adv-x="720" 
d="M332 -3q-30 -5 -40.5 -1.5t-14.5 18.5l-145 561q-9 35 -25.5 53t-26.5 25.5t-8 21.5q4 25 54 25h139q45 0 42 -23q-2 -11 -13 -20t-21 -15t-16 -23t2 -44l114 -454l236 456q19 42 15 53.5t-16 22.5t-11 23q4 24 45 24h85q47 0 44 -23q-2 -11 -12 -19t-22.5 -13.5
t-30.5 -23t-32 -44.5l-293 -550q-7 -14 -16 -20.5t-33 -9.5z" />
    <glyph glyph-name="W" unicode="W" horiz-adv-x="1068" 
d="M303 -3q-49 -7 -53 15l-119 564q-7 34 -23 52t-27 26.5t-9 21.5q2 14 13.5 19t37.5 5h138q43 0 40 -23q-2 -11 -11.5 -20t-19 -15t-14.5 -23t0 -43l87 -450l201 416l-6 34q-7 34 -22.5 52t-26.5 26.5t-9 21.5q2 14 13.5 19t37.5 5h138q43 0 40 -23q-2 -11 -11.5 -20
t-19 -15.5t-15 -23.5t-0.5 -43l84 -447l212 449q17 42 12.5 54t-16 22.5t-10.5 22.5q4 24 45 24h85q47 0 44 -22q-2 -11 -12 -19t-23 -14t-30 -23.5t-30 -44.5l-265 -550q-12 -23 -52 -30q-50 -8 -54 15l-92 446l-206 -431q-11 -23 -52 -30z" />
    <glyph glyph-name="X" unicode="X" horiz-adv-x="742" 
d="M131 1h-89q-23 0 -34 4.5t-10 17.5q2 12 12.5 19.5t25 12t36.5 19t41 37.5l204 237l-143 236q-14 23 -31 39t-28 21.5t-17.5 13t-5.5 18.5q2 14 14 19t38 5h162q22 0 32 -5t9 -18q-2 -10 -12.5 -19t-19 -15t-10.5 -21t14 -38l100 -167l150 173q20 24 25 38t-0.5 18.5
t-11.5 12t-5 17.5q4 24 44 24h90q22 0 33.5 -5t10.5 -17q-2 -12 -12.5 -19.5t-25 -12t-36.5 -19t-42 -37.5l-191 -220l154 -253q18 -30 40.5 -46.5t33 -24.5t8.5 -22q-2 -23 -51 -23h-163q-43 0 -40 22q2 11 12.5 20t19 15t10.5 21t-14 38l-112 184l-163 -191
q-20 -23 -25 -37t0.5 -18.5t12 -12.5t4.5 -18q-2 -23 -44 -23z" />
    <glyph glyph-name="Y" unicode="Y" horiz-adv-x="681" 
d="M590 700h89q23 0 34.5 -5t9.5 -18q-2 -12 -12.5 -19.5t-25 -12t-35.5 -20t-39 -38.5l-214 -277l-23 -167q-3 -17 -3 -34q1 -21 9 -34t17 -17.5t15.5 -12.5t4.5 -21q-2 -14 -14.5 -19t-41.5 -5h-135q-28 0 -39.5 5.5t-9.5 18.5q2 12 11 20.5t20 13.5t23 18t17 33
q6 19 9 34l22 167l-148 273q-16 30 -38 47t-33 24.5t-9 21.5t14 19t38 5h162q21 0 31.5 -5t8.5 -18q-2 -10 -12 -19t-18.5 -15t-11 -21.5t11.5 -39.5l108 -208l160 212q18 24 22 39t-2 20t-12.5 13t-4.5 18q4 24 44 24z" />
    <glyph glyph-name="Z" unicode="Z" horiz-adv-x="627" 
d="M464 0h-430q-20 0 -24.5 12t9.5 29l483 605h-201q-51 0 -80.5 -23t-63.5 -76q-22 -39 -43 -39q-19 0 -12 40q12 65 32 114q8 22 24 30t60 8h414q21 0 25.5 -11.5t-9.5 -28.5l-482 -606l215 1q51 0 81 23t63 75q22 39 43 39q19 0 11 -40q-9 -60 -32 -114q-8 -22 -24 -30
t-59 -8z" />
    <glyph glyph-name="bracketleft" unicode="[" horiz-adv-x="313" 
d="M19 -101l119 853q5 27 32 27h160q24 0 25 -18q-1 -3 -1 -6q-3 -23 -31 -23h-51q-21 0 -24 -21l-108 -771v-5q0 -16 18 -16h51q15 0 20 -4.5t5 -12.5q0 -3 -1 -6q-3 -24 -30 -24h-161q-24 0 -24 19q0 4 1 8z" />
    <glyph glyph-name="backslash" unicode="\" horiz-adv-x="380" 
d="M128 740h10q24 0 27 -23l135 -786q1 -5 1 -9q0 -22 -26 -22h-10q-24 0 -27 23l-136 786v7q0 24 26 24z" />
    <glyph glyph-name="bracketright" unicode="]" horiz-adv-x="311" 
d="M-18 -104q3 23 31 23h51q21 0 24 21l108 771v5q0 16 -17 16h-52q-15 0 -20 4.5t-5 12.5q0 3 1 6q3 24 31 24h160q24 0 24 -19q0 -4 -1 -8l-120 -853q-3 -27 -31 -27h-160q-24 0 -25 18q1 3 1 6z" />
    <glyph glyph-name="underscore" unicode="_" horiz-adv-x="422" 
d="M-28 -54q3 24 27 24h349q21 0 21 -17q0 -3 -1 -6q-3 -25 -27 -25h-349q-21 0 -21 18q0 3 1 6z" />
    <glyph glyph-name="grave" unicode="`" horiz-adv-x="500" 
d="M203 662q8 17 27 24q7 2 14 2q11 0 26.5 -8t48.5 -35q62 -57 69 -75q1 -3 1 -6q0 -10 -13 -14q-12 -4 -27 -4q-29 0 -81.5 21t-65.5 56q-4 10 -4 20t5 19z" />
    <glyph glyph-name="a" unicode="a" horiz-adv-x="616" 
d="M559 100q13 0 12 -17q-2 -32 -34 -61.5t-76 -29.5q-39 0 -60.5 22.5t-19.5 81.5q-32 -48 -80 -77t-102 -29q-71 0 -118 48t-47 131q0 130 78.5 225t187.5 95q28 0 66.5 -10t47.5 -10q15 0 42 10.5t38 10.5q28 0 25 -40l-22 -337q-3 -41 18 -41q9 0 23 14t21 14zM247 68
q57 0 101 67t50 157l2 30q4 54 -25.5 85t-74.5 31t-79.5 -39t-50.5 -91t-17 -104q0 -71 27 -103.5t67 -32.5z" />
    <glyph glyph-name="b" unicode="b" horiz-adv-x="579" 
d="M59 173q1 32 4 63l55 333q1 8 1 15q0 10 -3.5 20t-11.5 14t-15 10.5t-7 16.5q0 22 63 45q53 20 83 20q22 0 22 -19q0 -4 -1 -8l-49 -284q77 89 181 89q75 0 120 -50t45 -121q0 -137 -89.5 -233t-211.5 -96h-8q-48 2 -84 18.5t-54.5 42.5t-29 56t-10.5 58v10zM194 81
q26 -37 69 -37q46 0 83 39.5t54.5 96t17.5 111.5v18q-2 48 -25 78t-66 30q-56 0 -100 -64t-53 -167q-1 -13 -1 -24q0 -51 21 -81z" />
    <glyph glyph-name="c" unicode="c" horiz-adv-x="538" 
d="M253 -10q-99 0 -157.5 59t-58.5 149q0 120 83 206t199 86q87 0 136 -49.5t42 -110.5q-3 -34 -23 -55t-48 -19q-50 3 -47 58q2 32 -3.5 57t-26 44t-55.5 19q-61 0 -100.5 -60t-39.5 -138q0 -73 40 -117t110 -44q83 0 150 59q17 14 27 6t0 -28q-23 -46 -85.5 -84
t-142.5 -38z" />
    <glyph glyph-name="d" unicode="d" horiz-adv-x="605" 
d="M569 683l-83 -570q-6 -41 16 -41q10 0 24.5 14t20.5 14q14 0 13 -17q-3 -33 -35 -62t-79 -29q-82 0 -78 89q-68 -91 -165 -91q-80 0 -124.5 50t-44.5 132q0 131 85.5 224.5t198.5 93.5q51 0 103 -29l16 110q3 19 -2 31.5t-13 17t-14.5 11t-6.5 14.5q0 11 12 21t50 24
q54 20 84 20q25 0 22 -27zM245 69q54 0 97 61t54 156q9 74 -17 111.5t-75 37.5q-68 0 -111 -75.5t-41 -166.5q1 -57 24 -90.5t69 -33.5z" />
    <glyph glyph-name="e" unicode="e" horiz-adv-x="528" 
d="M439 138q16 14 27 6t0 -28q-24 -46 -86 -86t-141 -40q-89 0 -146 53.5t-57 150.5q0 70 36 137t106.5 113t158.5 46q64 0 106 -30t42 -84q0 -47 -27.5 -85t-75.5 -63t-103 -41t-119 -25q14 -41 47 -66t77 -25q78 0 155 67zM303 437q-63 0 -108 -59t-45 -140q0 -26 29 -21
q85 13 144.5 49t59.5 94q0 33 -22 55t-58 22z" />
    <glyph glyph-name="f" unicode="f" horiz-adv-x="369" 
d="M346 710q51 0 78.5 -31t21.5 -74q-3 -24 -19 -39.5t-37 -15.5q-36 0 -39 36q-4 34 -15 49t-34 15q-26 0 -46.5 -23t-26.5 -69q-2 -17 -2.5 -33.5t1.5 -30.5t8 -21.5t15 -5.5v-1l87 19q26 5 32.5 -3t-1.5 -31q-4 -14 -8.5 -22.5t-13.5 -12.5t-13 -5t-18 -3l-75 -14
l-66 -456q-1 -7 -4.5 -11.5t-7.5 -6.5t-13 -4l-72 -19q-23 -7 -31 4t5 29q12 18 22 89l51 360l-50 -10q-18 -5 -24.5 2t-2.5 25q6 27 36 33l50 12l5 36q17 113 72.5 173t134.5 60z" />
    <glyph glyph-name="g" unicode="g" horiz-adv-x="541" 
d="M507 563q15 0 25.5 -11t9.5 -28q-1 -30 -28 -50.5t-65 -28.5q49 -40 49 -104q0 -86 -70 -142t-172 -56q-56 0 -98 15q-32 -16 -35 -40q-6 -55 106 -55q30 0 86 4t73 4q70 0 104 -30t26 -80q-11 -77 -94.5 -124.5t-216.5 -47.5q-96 0 -156.5 30.5t-51.5 92.5
q3 25 23.5 48.5t53.5 37.5q-58 29 -50 87q3 27 26.5 51.5t67.5 40.5q-61 39 -61 110q0 82 74.5 142t175.5 60h1q20 0 40.5 -2t29.5 -2q40 0 87 55q21 23 40 23zM271 190q51 0 83 43.5t32 99.5q0 47 -24 78.5t-68 31.5q-52 0 -86 -43.5t-34 -101.5q0 -47 25.5 -77.5
t71.5 -30.5zM178 -27q-29 0 -53 -14.5t-28 -41.5q-5 -37 33.5 -57.5t108.5 -20.5q74 0 119 22t50 62q4 25 -12.5 41t-61.5 14q-126 -5 -156 -5z" />
    <glyph glyph-name="h" unicode="h" horiz-adv-x="627" 
d="M569 100q14 0 13 -17q-2 -32 -34 -61.5t-78 -29.5q-82 0 -74 110l13 202q3 54 -9.5 81.5t-49.5 27.5q-53 0 -105.5 -78.5t-73.5 -206.5l-17 -100q-3 -18 -24 -24l-63 -14q-14 -3 -21 5t-5 21l84 562q3 18 -3 29.5t-15 15t-16.5 9.5t-7.5 15q0 21 63 45q48 20 83 20
q26 0 22 -26l-51 -333q78 135 195 135q69 0 100 -46t25 -132l-11 -197q-2 -22 1 -31.5t15 -9.5q10 0 24 14t20 14z" />
    <glyph glyph-name="i" unicode="i" horiz-adv-x="298" 
d="M162 555q-25 1 -40 16.5t-13 38.5q1 32 31.5 59.5t64.5 24.5q23 -1 39 -17.5t15 -39.5q-1 -31 -32 -57.5t-65 -24.5zM131 -8q-43 0 -62.5 28.5t-11.5 80.5l37 247q3 19 -2 31t-12.5 16.5t-14.5 11.5t-7 16q0 22 63 45q57 20 77 20q26 0 22 -27l-50 -348q-6 -41 17 -41
q10 0 24.5 14t20.5 14q13 0 13 -17q-3 -33 -35 -62t-79 -29z" />
    <glyph glyph-name="j" unicode="j" horiz-adv-x="285" 
d="M177 555q-25 1 -40 16.5t-13 38.5q1 32 31.5 59.5t64.5 24.5q23 -1 39 -17.5t15 -39.5q-1 -31 -32 -57.5t-65 -24.5zM-8 -211q-60 0 -69 23q-6 15 20 23q1 1 2 1q53 16 73.5 47t31.5 104l52 361q6 40 -16 51q-20 12 -20 24q0 11 12 21t50 24q58 20 83 20q26 0 23 -27
l-77 -511q-11 -78 -49.5 -119.5t-115.5 -41.5z" />
    <glyph glyph-name="k" unicode="k" horiz-adv-x="555" 
d="M501 92q13 0 13 -17q0 -27 -31 -56t-76 -29q-111 0 -166 205q-23 -5 -61 -10l-22 -157q-3 -18 -25 -24l-63 -14q-14 -3 -21 5t-5 21l81 562q3 18 -3 29.5t-15 15t-16.5 9.5t-7.5 15q0 21 63 45q48 20 83 20q25 0 22 -26l-42 -296q77 99 181 99q47 0 79.5 -25t32.5 -71
q0 -114 -173 -175q23 -56 58.5 -103t69.5 -47q11 0 24.5 12t19.5 12zM189 249l-2 -14q86 6 147.5 41t62.5 84q0 23 -16.5 39t-44.5 16q-49 0 -92 -52t-55 -114z" />
    <glyph glyph-name="l" unicode="l" horiz-adv-x="287" 
d="M132 -8q-94 0 -78 109l67 473q3 23 -6.5 35t-20.5 19t-11 17q0 11 12 21t50 24q54 20 83 20q25 0 22 -27l-82 -570q-6 -41 16 -41q10 0 24.5 14t20.5 14q13 0 13 -17q-2 -32 -34 -61.5t-76 -29.5z" />
    <glyph glyph-name="m" unicode="m" horiz-adv-x="944" 
d="M886 100q13 0 13 -17q-3 -33 -35 -62t-79 -29q-79 0 -73 110l13 202q8 111 -57 111q-52 0 -99.5 -78t-70.5 -209l-17 -96q-4 -20 -23 -24l-68 -17q-11 -3 -17.5 4t-4.5 20l37 252q12 78 0.5 113t-50.5 35q-56 0 -107.5 -78t-74.5 -209l-17 -96q-3 -20 -23 -25l-67 -17
q-12 -3 -18.5 4t-4.5 20l51 334q3 19 -2 31t-13 16t-14.5 10t-6.5 15q0 12 12 21.5t50 25.5q47 20 72 20q26 0 22 -26l-16 -106q40 64 93 98.5t106 34.5q57 0 90.5 -31.5t38.5 -88.5q37 57 86 88.5t99 31.5q68 0 99.5 -46.5t26.5 -131.5l-12 -197q-2 -41 16 -41
q10 0 24.5 14t20.5 14z" />
    <glyph glyph-name="n" unicode="n" horiz-adv-x="631" 
d="M573 100q14 0 13 -17q-2 -32 -34 -61.5t-78 -29.5q-82 0 -74 110l13 202q3 54 -9.5 81.5t-49.5 27.5q-53 0 -105 -78t-74 -207l-17 -94q-3 -21 -22 -25l-67 -17q-12 -3 -18.5 4t-4.5 20l48 332q3 19 -2 31t-13 16t-14.5 10t-6.5 15q0 12 12 21.5t50 25.5q47 20 72 20
q26 0 22 -26l-18 -118q81 145 203 145q69 0 100 -46t25 -132l-11 -197q-2 -22 1 -31.5t15 -9.5q10 0 24 14t20 14z" />
    <glyph glyph-name="o" unicode="o" horiz-adv-x="579" 
d="M254 -10q-98 0 -157.5 57t-59.5 149q0 119 87 206.5t206 87.5q98 0 155 -57.5t57 -143.5q0 -126 -83.5 -212.5t-204.5 -86.5zM266 44q68 0 109 75.5t41 167.5q0 66 -24 108t-76 42q-72 0 -115.5 -74t-44.5 -162q1 -70 28 -113.5t82 -43.5z" />
    <glyph glyph-name="p" unicode="p" horiz-adv-x="580" 
d="M395 487q75 0 115.5 -53t35.5 -132q-6 -135 -90.5 -221.5t-193.5 -86.5q-45 0 -96 18l-13 -92q-4 -30 5 -49t19 -29.5t8 -21.5q-1 -12 -12 -16t-36 -4h-116q-26 0 -35 4.5t-8 15.5q2 11 15 22t27.5 29.5t18.5 48.5l62 432q3 21 -7.5 33t-22 20t-11.5 18q0 22 62 45
q52 20 76 20q26 0 21 -26l-9 -65q75 90 185 90zM268 46q69 0 114 75.5t44 180.5q-1 48 -23.5 78.5t-66.5 30.5q-55 0 -100 -63.5t-56 -163.5q-7 -68 18 -103t70 -35z" />
    <glyph glyph-name="q" unicode="q" horiz-adv-x="584" 
d="M534 450l-76 -530q-3 -24 1.5 -41t12 -24.5t13.5 -16.5t5 -18q-2 -20 -48 -20h-116q-26 0 -35 4.5t-8 15.5q2 11 15 22t27.5 29.5t18.5 48.5l21 152q-65 -82 -159 -82q-77 0 -124 50.5t-47 136.5q0 122 81 217.5t195 95.5q31 0 70.5 -11t48.5 -11q15 0 41.5 11.5
t37.5 11.5q30 0 25 -41zM393 270l15 111q2 14 -34.5 34t-74.5 20q-49 0 -84 -36.5t-49.5 -86.5t-14.5 -106q0 -69 29 -104.5t70 -35.5q55 0 93.5 60t49.5 144z" />
    <glyph glyph-name="r" unicode="r" horiz-adv-x="432" 
d="M361 489q36 0 53 -21.5t15 -52.5q-2 -29 -15.5 -46t-34.5 -17q-22 -1 -40 23.5t-36 24.5q-36 0 -72.5 -62t-49.5 -167l-20 -142q-3 -20 -24 -25l-68 -15q-12 -2 -19 5t-5 19l49 335q3 19 -2 31t-13 16t-14.5 10t-6.5 15q0 12 12 21.5t50 25.5q47 20 72 20q26 0 22 -26
l-10 -77q31 46 73.5 75.5t83.5 29.5z" />
    <glyph glyph-name="s" unicode="s" horiz-adv-x="475" 
d="M221 -10q-164 0 -180 54q-13 43 -20 88q-5 27 16 32q15 4 36 -23q68 -99 162 -99q32 0 52.5 15t23.5 36q6 30 -22.5 54t-93.5 53q-67 30 -102 68t-25 95q7 43 40 72.5t75.5 42t89.5 12.5q124 0 144 -50q10 -25 16 -49q8 -36 -12 -43q-2 -1 -4.5 -1t-5 1t-4.5 1.5t-5.5 3
t-5.5 4t-6.5 5.5t-7 6.5l-8 8t-9.5 8.5q-56 54 -114 54q-30 0 -51.5 -15.5t-24.5 -35.5q-6 -30 18.5 -50t90.5 -50q77 -35 113 -72t27 -88q-11 -61 -67 -99.5t-136 -38.5z" />
    <glyph glyph-name="t" unicode="t" horiz-adv-x="374" 
d="M229 473l107 14q26 4 32.5 -5t-1.5 -31q-5 -17 -13.5 -25.5t-13.5 -10t-22 -3.5q-3 -1 -5 -1l-95 -8q-26 -172 -32 -248q-4 -46 6.5 -65t36.5 -19q35 0 67 38q10 11 18 7.5t8 -16.5q0 -36 -42 -73t-99 -37q-62 0 -89.5 34.5t-22.5 94.5q3 53 38 275l-45 -5q-18 -2 -25 5
t-3 26q6 26 36 31l48 7q13 82 16 96q3 21 24 24l62 14q12 3 19 -3.5t5 -20.5q-7 -41 -15 -95z" />
    <glyph glyph-name="u" unicode="u" horiz-adv-x="628" 
d="M562 100q13 0 12 -17q-2 -32 -34.5 -61.5t-78.5 -29.5q-86 0 -74 115q-80 -117 -183 -117q-79 0 -113 49.5t-21 141.5l24 170q3 19 -2 31t-13 15t-14.5 8.5t-6.5 14.5q0 12 12 22t50 25q53 21 82 21q26 0 22 -27l-38 -252q-5 -34 -6.5 -55.5t2 -46t17.5 -36.5t39 -12
q56 0 109.5 78.5t74.5 207.5l16 99q4 20 26 25l65 17q12 4 19 -4t5 -20l-52 -348q-6 -42 16 -42q10 0 24.5 14t20.5 14z" />
    <glyph glyph-name="v" unicode="v" horiz-adv-x="515" 
d="M68 442q12 10 51 25q53 21 78 21t25 -19q0 -4 -1 -8l-36 -263q-4 -29 -4 -51q0 -30 10.5 -55t49.5 -25q54 0 105 77.5t51 153.5q0 38 -20.5 72t-20.5 53q0 26 23.5 47t51.5 21q31 0 45 -20t14 -49q0 -102 -41.5 -202t-112.5 -165t-149 -65q-64 0 -92.5 41t-28.5 100
q0 23 4 50l22 170q1 7 1 13q0 10 -4 20t-12 13t-14.5 8.5t-6.5 14.5q0 12 12 22z" />
    <glyph glyph-name="w" unicode="w" horiz-adv-x="811" 
d="M725 491q59 0 59 -85q0 -94 -34 -188.5t-100.5 -161t-147.5 -66.5q-109 0 -133 97q-66 -97 -175 -97q-66 0 -101.5 48.5t-22.5 142.5l22 170q3 19 -2 31t-13 15t-14.5 8.5t-6.5 14.5q0 12 12 22t51 25q53 21 80 21t22 -27l-36 -263q-19 -134 58 -134q95 0 132 180l25 185
q4 33 25 41q34 18 70 18q26 0 23 -27l-36 -263q-18 -134 58 -134q61 0 106 75t45 159q0 38 -20.5 72t-20.5 53q0 26 23.5 47t51.5 21z" />
    <glyph glyph-name="x" unicode="x" horiz-adv-x="527" 
d="M471 488q29 0 43.5 -18t12.5 -44q-1 -23 -14.5 -38.5t-30.5 -15.5q-11 0 -23.5 11t-20.5 11q-35 0 -128 -147l31 -77q12 -30 21 -48.5t24.5 -35.5t31.5 -17q11 0 24 4.5t19 4.5q13 0 13 -14q0 -25 -38 -49.5t-76 -24.5q-29 0 -51 18t-32.5 37.5t-25.5 56.5l-23 57
q-53 -83 -93.5 -126t-82.5 -43q-29 0 -44 18t-15 43q0 23 14 39.5t31 16.5q11 0 23.5 -11.5t21.5 -11.5q39 0 122 132l-54 132q-17 45 -47 43t-30 16q0 22 47 52.5t70 30.5q20 0 29 -23l66 -163q55 87 98.5 135.5t86.5 48.5z" />
    <glyph glyph-name="y" unicode="y" horiz-adv-x="525" 
d="M439 491q31 0 45 -20.5t14 -49.5q0 -97 -48 -214.5t-101 -198.5q-142 -218 -305 -218q-57 0 -87 25t-30 66q0 31 17 50.5t43 19.5q33 0 52 -40q8 -18 14 -26.5t20 -16.5t35 -8q37 0 65.5 29t33.5 69q5 29 -8 91q-31 140 -96 304q-8 21 -19 28t-32 8q-27 0 -27 18
q0 23 48.5 52.5t75.5 29.5q24 0 35 -28q76 -206 125 -416q96 154 96 253q0 38 -20.5 72t-20.5 53q0 26 23.5 47t51.5 21z" />
    <glyph glyph-name="z" unicode="z" horiz-adv-x="500" 
d="M331 -9q-37 0 -118 7.5t-99 7.5q-27 0 -51.5 -6t-31.5 -6q-18 0 -18 20q0 23 29 52l302 311q-36 -3 -100 2t-79 5q-18 0 -32 -8t-20 -17t-13 -17t-13 -8q-14 0 -13 33q3 46 28.5 84t68.5 38q34 0 105 -7.5t104 -7.5q32 0 57 7t34 7q17 0 17 -19q0 -25 -28 -51l-303 -317
q29 5 98 -0.5t81 -5.5q30 1 51 15.5t33.5 28.5t20.5 14q13 0 13 -25q0 -21 -5.5 -42t-18 -43.5t-38 -37t-61.5 -14.5z" />
    <glyph glyph-name="braceleft" unicode="{" horiz-adv-x="326" 
d="M46 336q3 23 28 28q47 11 55 62l25 177q23 165 186 175h6q22 0 22 -17v-4q-3 -19 -32 -28q-50 -17 -61 -108l-22 -155q-14 -96 -113 -131q78 -30 78 -106q0 -11 -2 -24l-25 -175q-3 -20 -3 -37q0 -60 35 -69q13 -5 18 -10t5 -14v-3q-2 -14 -9 -19t-20 -5h-5
q-139 7 -139 135q0 19 3 40l28 197v7q0 17 -9 33t-30 22q-14 5 -17 9.5t-3 11.5q0 3 1 8z" />
    <glyph glyph-name="bar" unicode="|" horiz-adv-x="274" 
d="M48 -176l120 852q3 24 27 24h12q21 0 21 -19v-5l-120 -852q-3 -24 -28 -24h-12q-21 0 -21 18q0 3 1 6z" />
    <glyph glyph-name="braceright" unicode="}" horiz-adv-x="325" 
d="M-16 -103q2 18 31 27q28 7 41 34.5t19 71.5l25 175q14 96 112 130q-77 30 -77 106q0 12 2 25l22 155q2 19 2 34q0 60 -34 74q-24 8 -24 24v4q4 21 28 21h7q139 -9 139 -136q0 -18 -3 -39l-25 -177q-1 -7 -1 -13q0 -39 39 -49q21 -5 21 -22q0 -3 -1 -6q-1 -13 -7 -18.5
t-21 -10.5q-23 -6 -38 -23.5t-17 -38.5l-28 -197q-25 -167 -186 -175h-5q-13 0 -17.5 4.5t-4.5 12.5q0 3 1 7z" />
    <glyph glyph-name="exclamdown" unicode="&#xa1;" horiz-adv-x="250" 
d="M-1 -153q3 24 44.5 148t60.5 220q2 13 6 17.5t13 4.5q13 0 13 -16v-6q-4 -55 -4 -114q0 -54 4 -124t4 -106q0 -17 -1 -24q-5 -35 -28 -56t-53 -21q-31 0 -45.5 18.5t-14.5 42.5q0 8 1 16zM105 470q24 22 54 22q25 0 42.5 -16.5t17.5 -45.5q0 -34 -23 -55t-55 -21
q-26 0 -43 15.5t-17 44.5q0 34 24 56z" />
    <glyph glyph-name="cent" unicode="&#xa2;" horiz-adv-x="555" 
d="M76 264q15 101 84 173.5t167 88.5l7 48q2 14 8 19t19 5q14 0 18 -4.5t4 -14.5v-5l-6 -44h1q81 0 124 -40t43 -82q0 -7 -1 -13q-4 -28 -21.5 -44.5t-40.5 -16.5q-24 0 -36 14t-18 39q-11 42 -30 64t-62 23q-57 0 -95 -43t-48 -112q-3 -22 -3 -43q0 -64 36.5 -114
t118.5 -50q81 0 150 62q11 9 19 9q5 0 9.5 -3.5t4.5 -10.5t-5 -17q-23 -43 -80 -79.5t-137 -41.5l-6 -49q-4 -24 -28 -24q-14 0 -18 4.5t-4 12.5q0 3 1 7l6 49q-96 7 -140 66.5t-44 128.5q0 19 3 38z" />
    <glyph glyph-name="sterling" unicode="&#xa3;" horiz-adv-x="623" 
d="M25 82q5 41 39.5 68t84.5 27q38 0 85 -21q1 7 1 15q0 49 -21 126h-72q-21 0 -21 18q0 3 1 6q1 24 26 24h55q-8 39 -8 74q0 18 2 34q10 69 69.5 118t138.5 49q46 0 83.5 -17.5t55.5 -47.5q4 -8 4 -16q0 -5 -3 -14t-8.5 -10t-7.5 -1q-8 0 -17 7q-46 46 -97 46
q-38 0 -64 -23.5t-32 -62.5q-2 -10 -2 -27q0 -38 8 -109h113q21 0 21 -19v-5q-4 -24 -27 -24h-102q1 -20 1 -38q0 -37 -4 -68q-4 -35 -24 -71q66 -34 113 -34q76 0 119 49q12 14 22 14q5 0 10 -4.5t5 -12.5q0 -12 -10 -29q-70 -113 -189 -113q-71 0 -139 49
q-62 -49 -123 -49q-45 0 -66 22t-21 53q0 8 1 17zM87 46q13 -12 33 -12q44 0 76 34q-53 46 -76 46q-39 0 -43 -36q-1 -4 -1 -7q0 -15 11 -25z" />
    <glyph glyph-name="yen" unicode="&#xa5;" horiz-adv-x="633" 
d="M73 591q1 19 37 19h156q33 0 33 -17v-2q-1 -10 -15.5 -21.5t-18.5 -18.5t-4 -13q0 -11 6 -29l96 -195l138 192q20 32 20 43q0 1 -0.5 6.5t-9 15.5t-8.5 18v2q3 19 36 19h84q20 0 27.5 -4.5t7.5 -12.5v-2q-1 -9 -9.5 -16t-20.5 -12t-30.5 -20t-34.5 -36l-104 -140h75
q21 0 21 -18q0 -3 -1 -6q-1 -13 -7 -18.5t-19 -5.5h-104l-49 -65h143q21 0 21 -19v-5q-4 -23 -27 -23h-144l-14 -97q-1 -9 -1 -17q0 -16 7 -30.5t16 -23t9 -17.5v-3q-3 -19 -43 -19h-110q-23 0 -31.5 4t-8.5 12q0 1 1 7t13 16t25 26.5t17 44.5l14 97h-150q-21 0 -21 18
q0 3 1 6q3 23 27 23h148l-33 65h-106q-21 0 -21 19v5q4 24 27 24h76l-73 142q-11 22 -28.5 38t-26.5 24t-9 16v4z" />
    <glyph glyph-name="section" unicode="&#xa7;" horiz-adv-x="538" 
d="M4 -102q3 22 20 36.5t37 14.5q22 0 37 -15t23 -33.5t26 -33.5t45 -15q56 0 109 56q-233 205 -233 419q0 27 4 55q20 142 111.5 233t212.5 93h5q66 0 103.5 -27t37.5 -64q0 -5 -1 -11q-3 -22 -19.5 -36.5t-36.5 -14.5q-22 0 -37.5 15t-23.5 33.5t-26.5 33.5t-44.5 15
q-56 0 -109 -55q58 -42 135 -151q50 -70 70 -148t20 -135q0 -24 -3 -47q-22 -149 -120 -239q-84 -79 -197 -81h-4q-67 0 -104.5 27.5t-37.5 63.5q0 5 1 11zM159 394q11 -97 54 -199q33 -81 74 -141.5t67 -60.5q5 0 9 2q20 12 20 59q0 6 -1.5 38.5t-22 109.5t-48.5 144
q-9 22 -22 47.5t-32.5 57.5t-37 47t-29.5 15q-5 0 -10 -2q-24 -15 -24 -71q0 -20 3 -46z" />
    <glyph glyph-name="dieresis" unicode="&#xa8;" horiz-adv-x="500" 
d="M272 642q19 21 45 21q23 0 37.5 -14t14.5 -36q0 -26 -21 -44t-48 -18q-21 0 -34.5 12t-13.5 32q0 26 20 47zM117 642q19 21 46 21q23 0 37 -14t14 -36q0 -26 -20.5 -44t-48.5 -18q-20 0 -33.5 12t-13.5 32q0 26 19 47z" />
    <glyph glyph-name="copyright" unicode="&#xa9;" horiz-adv-x="832" 
d="M143 594q113 113 273 113t273 -113t113 -273t-113 -273t-273 -113t-273 113t-113 273t113 273zM184 84q96 -98 232 -98t232.5 98t96.5 237t-96.5 237t-232.5 98t-232 -98t-96 -237t96 -237zM267 482q65 67 159 67q78 0 126 -43t48 -100q0 -26 -13.5 -40t-34.5 -14
q-38 0 -51 49q-27 99 -100 100q-49 0 -77.5 -37t-28.5 -96q0 -84 43 -135.5t113 -51.5q66 0 124 58q8 8 15 8q4 0 9 -3.5t5 -11.5q0 -5 -2 -12q-16 -42 -65.5 -75.5t-127.5 -33.5q-94 0 -151 59t-57 146q0 99 66 166z" />
    <glyph glyph-name="ordfeminine" unicode="&#xaa;" horiz-adv-x="408" 
d="M409 466q8 0 8 -10q-2 -20 -22 -38.5t-47 -18.5q-52 0 -50 65q-44 -66 -114 -66q-44 0 -73.5 30t-29.5 82q0 81 49 140.5t117 59.5q18 0 42 -6.5t29 -6.5q10 0 27 6.5t23 6.5q18 0 16 -25l-14 -210q-2 -26 12 -26q6 0 14.5 8.5t12.5 8.5zM214 446q35 0 63 42t31 98l2 19
q2 34 -16.5 53.5t-46.5 19.5q-41 0 -66 -47t-26 -100q0 -44 17 -64.5t42 -20.5z" />
    <glyph glyph-name="guillemotleft" unicode="&#xab;" horiz-adv-x="454" 
d="M191 250q1 12 11 25.5t20 23t41 37.5q93 89 117 89q12 0 12 -13v-2q-4 -33 -116 -160q71 -117 71 -155q0 -3 -1 -6q-1 -14 -16 -14q-22 0 -91 88q-3 4 -10 12.5t-9 11t-7.5 10t-6.5 9t-5.5 8t-4.5 8t-2.5 6.5t-2.5 7v0.5v1.5q0 2 -0.5 5.5t-0.5 4.5q0 2 1 3zM14 250
q1 12 11 25.5t20 23t41 37.5q93 89 117 89q12 0 12 -15q-3 -30 -116 -160q71 -117 71 -155q0 -3 -1 -6q-3 -14 -16 -14q-21 0 -92 88l-10 13q-6 7 -8.5 10.5t-7.5 10t-6.5 9t-5.5 8t-4 7.5t-2.5 7t-2.5 7v0.5v1.5q0 2 -0.5 5t-0.5 5t1 3z" />
    <glyph glyph-name="registered" unicode="&#xae;" horiz-adv-x="832" 
d="M689 48q-113 -113 -273 -113t-273 113t-113 273t113 273t273 113t273 -113t113 -273t-113 -273zM184 84q96 -98 232 -98t232.5 98t96.5 237t-96.5 237t-232.5 98t-232 -98t-96 -237t96 -237zM349 114h-79q-37 0 -37 19q0 11 15 22q23 18 23 57v236q0 11 -2 25
q-2 19 -20 29q-16 11 -16 22q0 19 37 19h119q92 0 146.5 -40t54.5 -108q0 -87 -75 -122l47 -82q11 -19 31 -33q17 -11 17 -25q0 -19 -32 -19h-75q-34 0 -34 20q0 9 9 20q14 14 3 34l-39 68q-10 -2 -32 -2h-54q-7 0 -7 -8v-34q0 -19 4 -31.5t7.5 -16t11.5 -9.5q14 -12 14 -22
q0 -19 -37 -19zM407 294q49 0 75 23.5t26 66.5q0 52 -33.5 85t-87.5 34q-25 0 -31.5 -2t-6.5 -9v-184q0 -14 58 -14z" />
    <glyph glyph-name="macron" unicode="&#xaf;" horiz-adv-x="500" 
d="M99 581q2 19 8.5 24.5t30.5 5.5h226q24 0 29 -5t6 -15q-1 -3 -1 -7q-2 -20 -9.5 -25.5t-32.5 -5.5h-226q-23 0 -27.5 4.5t-4.5 14.5q0 4 1 9z" />
    <glyph glyph-name="degree" unicode="&#xb0;" horiz-adv-x="402" 
d="M123 661q50 49 120 49t119.5 -49.5t49.5 -119.5q0 -71 -50 -120.5t-122 -49.5q-68 0 -117.5 50t-49.5 120t50 120zM174 452q31 -41 74 -41q41 0 67.5 34t26.5 84q0 60 -31.5 100.5t-74.5 40.5q-40 0 -66.5 -34t-26.5 -84q0 -60 31 -100z" />
    <glyph glyph-name="twosuperior" unicode="&#xb2;" horiz-adv-x="412" 
d="M21 279q0 14 12 24q115 98 174 161t66 116q1 6 1 12q0 26 -16 44t-50 18q-55 0 -104 -53q-6 -6 -11 -6q-2 0 -5 2.5t-3 6.5q0 5 3 11q19 37 61 66t94 29q55 0 83.5 -29t28.5 -68q0 -10 -2 -21q-15 -99 -209 -236q20 -1 57 -11t65 -10q24 0 38 10t21 20t12 10q10 0 10 -18
q-1 -38 -25 -65t-61 -27q-36 0 -84.5 17.5t-68.5 17.5q-16 0 -37 -19t-32 -19q-18 0 -18 17z" />
    <glyph glyph-name="threesuperior" unicode="&#xb3;" horiz-adv-x="381" 
d="M48 370q4 2 7 2q5 0 10 -6q42 -56 116 -56q38 0 67.5 21.5t35.5 60.5q1 7 1 14q0 33 -27.5 54t-87.5 28q-9 1 -11 5t-2 6q0 3 2 8t9 10q82 62 124 104q-16 1 -48.5 8.5t-54.5 7.5q-31 0 -50 -18q-5 -5 -11.5 -12.5t-10 -10t-8.5 -2.5q-10 0 -10 15q0 13 8 37
q10 32 25.5 47t45.5 15q28 0 80 -15t78 -15q7 0 19.5 11.5t19.5 11.5q12 0 14 -5t2 -7q0 -6 -6 -13q-75 -87 -152 -147q62 -7 97.5 -38.5t35.5 -77.5q0 -10 -2 -22q-7 -55 -52 -94.5t-120 -39.5q-60 0 -100.5 28.5t-50.5 66.5q-1 3 -1 5q0 8 8 13z" />
    <glyph glyph-name="acute" unicode="&#xb4;" horiz-adv-x="500" 
d="M133 570q7 19 70 75q21 18 33.5 26.5t24 12.5t19.5 4q6 0 12 -2q18 -7 24.5 -20.5t6.5 -22.5q0 -10 -4 -20q-13 -35 -65.5 -56t-81.5 -21q-15 0 -27 4q-13 4 -13 14q0 3 1 6z" />
    <glyph glyph-name="paragraph" unicode="&#xb6;" horiz-adv-x="539" 
d="M-5 -120q3 23 18.5 37t39.5 14q7 0 14 -2t11.5 -4t10.5 -8.5t8 -8.5t9 -11.5t8 -10.5q31 -40 72 -40q29 0 50 15.5t32.5 46t16.5 54t10 60.5l89 624h-36q-67 0 -104 -40t-49 -126q-5 -33 -5 -60q0 -100 65 -132q15 -7 15 -18q0 -5 -4 -15t-21 -10h-6q-90 12 -130 65.5
t-40 118.5q0 19 3 40q14 99 88.5 165t175.5 66h177q28 0 38.5 -5.5t10.5 -16.5v-2q-2 -14 -13 -23t-23.5 -14.5t-25.5 -28.5t-19 -63l-73 -522q-15 -107 -85 -170t-174 -63q-72 0 -113.5 23t-41.5 57q0 4 1 8z" />
    <glyph glyph-name="periodcentered" unicode="&#xb7;" horiz-adv-x="251" 
d="M82 291q24 21 54 21q25 0 42.5 -16.5t17.5 -45.5q0 -34 -23 -55t-54 -21q-26 0 -43.5 16t-17.5 45q0 34 24 56z" />
    <glyph glyph-name="cedilla" unicode="&#xb8;" horiz-adv-x="500" 
d="M167 -162q4 4 8 4q5 0 11 -4q28 -15 49 -15t32.5 11.5t11.5 28.5q0 37 -66 52q-14 3 -14 11q0 3 2 7l36 67h42l-27 -52q93 -17 93 -79q0 -36 -27.5 -59t-67.5 -23q-56 0 -83 33q-4 5 -4 9q0 5 4 9z" />
    <glyph glyph-name="onesuperior" unicode="&#xb9;" horiz-adv-x="259" 
d="M53 292q9 6 19.5 17.5t13.5 29.5l37 260q1 8 1 15q0 3 -0.5 9t-6 11.5t-18.5 9.5q-18 5 -18 16q1 6 7 10t29 12q57 24 81 26q12 0 12 -11q0 -2 -1 -5l-50 -353q-1 -5 -1 -10q0 -12 6.5 -22t15.5 -16.5t9 -13.5q0 -13 -28 -13h-88q-29 0 -29 13q0 8 9 15z" />
    <glyph glyph-name="ordmasculine" unicode="&#xba;" horiz-adv-x="392" 
d="M218 398q-61 0 -98 35.5t-37 92.5q0 75 54.5 129.5t128.5 54.5q61 0 96.5 -36t35.5 -89q0 -79 -52 -133t-128 -54zM226 432q42 0 68 47t26 104q0 94 -63 94q-45 0 -72.5 -46t-27.5 -101q0 -44 17.5 -71t51.5 -27z" />
    <glyph glyph-name="guillemotright" unicode="&#xbb;" horiz-adv-x="444" 
d="M180 250q-72 116 -72 154q0 3 1 6q3 15 17 15q4 0 15 -7q6 7 15 7q21 0 91 -89q42 -53 46 -68q2 -7 2 -13v-5q-1 -4 -2 -7.5t-2.5 -6.5t-4.5 -7l-5 -8q-2 -3 -6 -7l-27 -27q-4 -4 -12.5 -11.5t-13.5 -12.5q-94 -88 -116 -88q-9 0 -12 7q-14 -7 -18 -7q-13 0 -13 14
q4 36 117 161z" />
    <glyph glyph-name="questiondown" unicode="&#xbf;" horiz-adv-x="421" 
d="M-30 -90q7 42 41 80t82.5 77.5t68.5 65.5q30 42 36 78q3 18 13 22t15 4q7 0 15 -6t8 -20q0 -4 -1 -8q-6 -45 -29 -88t-47 -71.5t-46.5 -66.5t-25.5 -59.5t-3 -29.5q0 -24 14 -44t46 -20q58 0 104 96q9 17 14 25.5t17.5 16.5t29.5 8q27 0 37.5 -15t10.5 -32q0 -6 -1 -12
q-8 -56 -69 -98.5t-152 -42.5q-90 0 -134.5 36.5t-44.5 86.5q0 8 1 17zM204 469q24 22 54 22q26 0 43.5 -16.5t17.5 -45.5q0 -34 -23.5 -55t-54.5 -21q-26 0 -43.5 15.5t-17.5 44.5q0 34 24 56z" />
    <glyph glyph-name="Agrave" unicode="&#xc0;" horiz-adv-x="701" 
d="M429 760q-40 -6 -97 24t-62 66q-4 20 7.5 36t28.5 19q12 2 27 -5t24.5 -15t32.5 -29q64 -62 65 -77q1 -7 -6.5 -12t-19.5 -7zM104 0h-85q-23 0 -34.5 5t-9.5 17q2 14 17 22.5t39 26.5t42 52l249 464q14 32 7.5 42t-18.5 22t-10 25q1 24 32 24h103q22 0 28 -22l141 -553
q9 -35 25.5 -53t26.5 -25.5t8 -21.5q-4 -25 -54 -25h-139q-45 0 -42 23q2 11 13 20t21 15t16 23t-2 44l-12 50q-5 20 -16 24q-16 6 -128 6q-106 0 -125.5 -3.5t-30.5 -25.5l-29 -53q-19 -42 -15 -54t16 -22.5t10 -22.5q-4 -24 -44 -24zM221 263q10 -5 109 -5t107 6q5 6 1 20
l-69 275l-146 -275q-9 -18 -2 -21z" />
    <glyph glyph-name="Aacute" unicode="&#xc1;" horiz-adv-x="701" 
d="M359 760q-29 4 -27 19t66 77q23 21 32.5 29t24.5 15t27 5q17 -3 28.5 -19t7.5 -36q-5 -36 -62 -66t-97 -24zM104 0h-85q-23 0 -34.5 5t-9.5 17q2 14 17 22.5t39 26.5t42 52l249 464q14 32 7.5 42t-18.5 22t-10 25q1 24 32 24h103q22 0 28 -22l141 -553q9 -35 25.5 -53
t26.5 -25.5t8 -21.5q-4 -25 -54 -25h-139q-45 0 -42 23q2 11 13 20t21 15t16 23t-2 44l-12 50q-5 20 -16 24q-16 6 -128 6q-106 0 -125.5 -3.5t-30.5 -25.5l-29 -53q-19 -42 -15 -54t16 -22.5t10 -22.5q-4 -24 -44 -24zM221 263q10 -5 109 -5t107 6q5 6 1 20l-69 275
l-146 -275q-9 -18 -2 -21z" />
    <glyph glyph-name="Acircumflex" unicode="&#xc2;" horiz-adv-x="701" 
d="M273 752q-15 1 -13 14q3 11 63 61q7 6 19 17t16 14.5t12 10t11.5 8.5t9.5 5t11.5 3.5t12.5 0.5q9 0 15 -1.5t10.5 -2.5t10.5 -7t9.5 -10t13.5 -16t17 -20l15 -17.5t13 -15.5t9 -11.5t7 -11t2 -7.5q0 -13 -15 -14q-21 -1 -58.5 14.5t-59.5 32.5q-28 -17 -69.5 -32.5
t-61.5 -14.5zM104 0h-85q-23 0 -34.5 5t-9.5 17q2 14 17 22.5t39 26.5t42 52l249 464q14 32 7.5 42t-18.5 22t-10 25q1 24 32 24h103q22 0 28 -22l141 -553q9 -35 25.5 -53t26.5 -25.5t8 -21.5q-4 -25 -54 -25h-139q-45 0 -42 23q2 11 13 20t21 15t16 23t-2 44l-12 50
q-5 20 -16 24q-16 6 -128 6q-106 0 -125.5 -3.5t-30.5 -25.5l-29 -53q-19 -42 -15 -54t16 -22.5t10 -22.5q-4 -24 -44 -24zM221 263q10 -5 109 -5t107 6q5 6 1 20l-69 275l-146 -275q-9 -18 -2 -21z" />
    <glyph glyph-name="Atilde" unicode="&#xc3;" horiz-adv-x="701" 
d="M469 758q-24 0 -78 21t-81 21q-36 0 -39 -30q-3 -16 -15 -11q-17 7 -15 37q1 2 1 5q4 27 25.5 46t56.5 19q34 0 90.5 -21t70.5 -21q35 0 39 29q2 17 14 12q18 -8 14 -39v-3q-4 -28 -26 -46.5t-57 -18.5zM104 0h-85q-23 0 -34.5 5t-9.5 17q2 14 17 22.5t39 26.5t42 52
l249 464q14 32 7.5 42t-18.5 22t-10 25q1 24 32 24h103q22 0 28 -22l141 -553q9 -35 25.5 -53t26.5 -25.5t8 -21.5q-4 -25 -54 -25h-139q-45 0 -42 23q2 11 13 20t21 15t16 23t-2 44l-12 50q-5 20 -16 24q-16 6 -128 6q-106 0 -125.5 -3.5t-30.5 -25.5l-29 -53
q-19 -42 -15 -54t16 -22.5t10 -22.5q-4 -24 -44 -24zM221 263q10 -5 109 -5t107 6q5 6 1 20l-69 275l-146 -275q-9 -18 -2 -21z" />
    <glyph glyph-name="Adieresis" unicode="&#xc4;" horiz-adv-x="701" 
d="M310 771q-20 0 -33.5 12t-13.5 32q0 26 19 47t46 21q23 0 37 -14t14 -36q0 -26 -20.5 -44t-48.5 -18zM465 771q-21 0 -34.5 12t-13.5 32q0 26 19.5 47t45.5 21q23 0 37.5 -14t14.5 -36q0 -26 -21 -44t-48 -18zM104 0h-85q-23 0 -34.5 5t-9.5 17q2 14 17 22.5t39 26.5
t42 52l249 464q14 32 7.5 42t-18.5 22t-10 25q1 24 32 24h103q22 0 28 -22l141 -553q9 -35 25.5 -53t26.5 -25.5t8 -21.5q-4 -25 -54 -25h-139q-45 0 -42 23q2 11 13 20t21 15t16 23t-2 44l-12 50q-5 20 -16 24q-16 6 -128 6q-106 0 -125.5 -3.5t-30.5 -25.5l-29 -53
q-19 -42 -15 -54t16 -22.5t10 -22.5q-4 -24 -44 -24zM221 263q10 -5 109 -5t107 6q5 6 1 20l-69 275l-146 -275q-9 -18 -2 -21z" />
    <glyph glyph-name="Aring" unicode="&#xc5;" horiz-adv-x="701" 
d="M391 747q-43 0 -68 26.5t-19 68.5q6 43 40 70.5t78 27.5q43 0 67.5 -26t18.5 -69q-6 -44 -39.5 -71t-77.5 -27zM402 794q22 0 36.5 15t16.5 38q0 22 -11.5 35.5t-31.5 13.5q-23 0 -38 -14.5t-17 -38.5q0 -22 12 -35.5t33 -13.5zM104 0h-85q-23 0 -34.5 5t-9.5 17
q2 14 17 22.5t39 26.5t42 52l249 464q14 32 7.5 42t-18.5 22t-10 25q1 24 32 24h103q22 0 28 -22l141 -553q9 -35 25.5 -53t26.5 -25.5t8 -21.5q-4 -25 -54 -25h-139q-45 0 -42 23q2 11 13 20t21 15t16 23t-2 44l-12 50q-5 20 -16 24q-16 6 -128 6q-106 0 -125.5 -3.5
t-30.5 -25.5l-29 -53q-19 -42 -15 -54t16 -22.5t10 -22.5q-4 -24 -44 -24zM221 263q10 -5 109 -5t107 6q5 6 1 20l-69 275l-146 -275q-9 -18 -2 -21z" />
    <glyph glyph-name="AE" unicode="&#xc6;" horiz-adv-x="955" 
d="M118 0h-142q-16 0 -20.5 4.5t-3.5 15.5q1 12 22 22q48 25 81 65l386 478q33 39 2 68q-16 13 -14 27q1 11 6.5 15.5t21.5 4.5l415 1q42 0 55 -6t18 -27q10 -43 11 -105q2 -37 -19 -43q-14 -4 -22.5 3t-18.5 28q-21 49 -52.5 72t-85.5 23h-46q-62 0 -83.5 -10t-24.5 -36
l-15 -111q-4 -32 13 -40.5t67 -8.5q33 0 54.5 5t29.5 11.5t17 11.5t19 5q23 0 24 -31l8 -99q2 -27 -2.5 -36.5t-17.5 -13.5q-14 -3 -25.5 10.5t-20.5 32t-33.5 35t-60.5 16.5q-50 0 -70 -8.5t-24 -40.5l-33 -236q-4 -27 14.5 -38t83.5 -10l64 1q60 0 88 21.5t61 77.5
q15 25 25.5 33t22.5 6q12 -3 14 -13.5t-1 -26.5q-16 -77 -32 -115q-9 -21 -26 -29.5t-62 -8.5h-390q-27 0 -37 5.5t-8 18.5q1 11 10.5 20.5t21 17t23.5 26.5t17 46l11 64h-131q-71 0 -91 -5t-34 -24l-52 -62q-34 -43 5 -65q17 -10 15 -22q-1 -11 -6.5 -15.5t-21.5 -4.5z
M324 250h117l42 302l-219 -272q-24 -30 60 -30z" />
    <glyph glyph-name="Ccedilla" unicode="&#xc7;" horiz-adv-x="694" 
d="M684 656q6 -64 7 -134q-2 -39 -25 -40q-13 -1 -21.5 7.5t-21.5 31.5q-18 31 -29 47.5t-33 38.5t-51.5 32t-69.5 10q-100 0 -170.5 -75.5t-86.5 -185.5q-18 -138 41.5 -230.5t176.5 -92.5q112 0 214 95q20 19 30 3q9 -15 -6 -36q-36 -52 -112.5 -94.5t-170.5 -42.5h-4
l-22 -42q93 -17 93 -79q0 -36 -27.5 -59t-67.5 -23q-56 0 -83 33q-8 10 -0.5 18t19.5 0q28 -15 49 -15t32.5 11.5t11.5 28.5q0 37 -66 52q-20 4 -12 18l32 60q-133 16 -204.5 117.5t-51.5 245.5q22 156 142 255t282 99q37 0 76 -7.5t47 -7.5q13 0 27 6.5t22 6.5
q15 0 22.5 -11t10.5 -41z" />
    <glyph glyph-name="Egrave" unicode="&#xc8;" horiz-adv-x="632" 
d="M368 760q-40 -6 -97 24t-62 66q-4 20 7.5 36t28.5 19q12 2 27 -5t24.5 -15t32.5 -29q64 -62 65 -77q1 -7 -6.5 -12t-19.5 -7zM463 0h-393q-29 0 -40 5t-9 19q2 12 9 19t17 12t20.5 13.5t20 30t14.5 54.5l55 394q5 37 1.5 55.5t-11.5 29t-16.5 14.5t-14 11t-3.5 19
q2 14 14.5 19t41.5 5l380 1q43 0 56 -6t17 -27q11 -49 11 -105q2 -37 -19 -43q-14 -4 -22.5 3t-17.5 28q-21 49 -53 72t-86 23h-45q-63 0 -84 -10t-25 -36l-15 -111q-4 -32 13 -40.5t67 -8.5q42 0 65 8t33.5 16.5t22.5 8.5q21 0 24 -31l7 -99q3 -27 -1.5 -36.5t-17.5 -13.5
q-14 -3 -26 10.5t-21 32t-33.5 35t-59.5 16.5q-51 0 -70.5 -8.5t-24.5 -40.5l-33 -236q-4 -27 14.5 -38t83.5 -10l72 1q54 0 81 21.5t61 77.5q26 43 48 39q12 -3 14 -13.5t-2 -26.5q-14 -70 -32 -115q-9 -21 -26 -29.5t-62 -8.5z" />
    <glyph glyph-name="Eacute" unicode="&#xc9;" horiz-adv-x="632" 
d="M298 760q-29 4 -27 19t66 77q23 21 32.5 29t24.5 15t27 5q17 -3 28.5 -19t7.5 -36q-5 -36 -62 -66t-97 -24zM463 0h-393q-29 0 -40 5t-9 19q2 12 9 19t17 12t20.5 13.5t20 30t14.5 54.5l55 394q5 37 1.5 55.5t-11.5 29t-16.5 14.5t-14 11t-3.5 19q2 14 14.5 19t41.5 5
l380 1q43 0 56 -6t17 -27q11 -49 11 -105q2 -37 -19 -43q-14 -4 -22.5 3t-17.5 28q-21 49 -53 72t-86 23h-45q-63 0 -84 -10t-25 -36l-15 -111q-4 -32 13 -40.5t67 -8.5q42 0 65 8t33.5 16.5t22.5 8.5q21 0 24 -31l7 -99q3 -27 -1.5 -36.5t-17.5 -13.5q-14 -3 -26 10.5
t-21 32t-33.5 35t-59.5 16.5q-51 0 -70.5 -8.5t-24.5 -40.5l-33 -236q-4 -27 14.5 -38t83.5 -10l72 1q54 0 81 21.5t61 77.5q26 43 48 39q12 -3 14 -13.5t-2 -26.5q-14 -70 -32 -115q-9 -21 -26 -29.5t-62 -8.5z" />
    <glyph glyph-name="Ecircumflex" unicode="&#xca;" horiz-adv-x="632" 
d="M211 752q-15 1 -13 14q3 11 63 61q7 6 19 17t16 14.5t12 10t11.5 8.5t9.5 5t11.5 3.5t12.5 0.5q9 0 15 -1.5t10.5 -2.5t10.5 -7t9.5 -10t13.5 -16t17 -20l15 -17.5t13 -15.5t9 -11.5t7 -11t2 -7.5q0 -13 -15 -14q-21 -1 -58.5 14.5t-59.5 32.5q-28 -17 -69.5 -32.5
t-61.5 -14.5zM463 0h-393q-29 0 -40 5t-9 19q2 12 9 19t17 12t20.5 13.5t20 30t14.5 54.5l55 394q5 37 1.5 55.5t-11.5 29t-16.5 14.5t-14 11t-3.5 19q2 14 14.5 19t41.5 5l380 1q43 0 56 -6t17 -27q11 -49 11 -105q2 -37 -19 -43q-14 -4 -22.5 3t-17.5 28q-21 49 -53 72
t-86 23h-45q-63 0 -84 -10t-25 -36l-15 -111q-4 -32 13 -40.5t67 -8.5q42 0 65 8t33.5 16.5t22.5 8.5q21 0 24 -31l7 -99q3 -27 -1.5 -36.5t-17.5 -13.5q-14 -3 -26 10.5t-21 32t-33.5 35t-59.5 16.5q-51 0 -70.5 -8.5t-24.5 -40.5l-33 -236q-4 -27 14.5 -38t83.5 -10l72 1
q54 0 81 21.5t61 77.5q26 43 48 39q12 -3 14 -13.5t-2 -26.5q-14 -70 -32 -115q-9 -21 -26 -29.5t-62 -8.5z" />
    <glyph glyph-name="Edieresis" unicode="&#xcb;" horiz-adv-x="632" 
d="M249 771q-20 0 -33.5 12t-13.5 32q0 26 19 47t46 21q23 0 37 -14t14 -36q0 -26 -20.5 -44t-48.5 -18zM404 771q-21 0 -34.5 12t-13.5 32q0 26 19.5 47t45.5 21q23 0 37.5 -14t14.5 -36q0 -26 -21 -44t-48 -18zM463 0h-393q-29 0 -40 5t-9 19q2 12 9 19t17 12t20.5 13.5
t20 30t14.5 54.5l55 394q5 37 1.5 55.5t-11.5 29t-16.5 14.5t-14 11t-3.5 19q2 14 14.5 19t41.5 5l380 1q43 0 56 -6t17 -27q11 -49 11 -105q2 -37 -19 -43q-14 -4 -22.5 3t-17.5 28q-21 49 -53 72t-86 23h-45q-63 0 -84 -10t-25 -36l-15 -111q-4 -32 13 -40.5t67 -8.5
q42 0 65 8t33.5 16.5t22.5 8.5q21 0 24 -31l7 -99q3 -27 -1.5 -36.5t-17.5 -13.5q-14 -3 -26 10.5t-21 32t-33.5 35t-59.5 16.5q-51 0 -70.5 -8.5t-24.5 -40.5l-33 -236q-4 -27 14.5 -38t83.5 -10l72 1q54 0 81 21.5t61 77.5q26 43 48 39q12 -3 14 -13.5t-2 -26.5
q-14 -70 -32 -115q-9 -21 -26 -29.5t-62 -8.5z" />
    <glyph glyph-name="Igrave" unicode="&#xcc;" horiz-adv-x="345" 
d="M282 760q-40 -6 -97 24t-62 66q-4 20 7.5 36t28.5 19q12 2 27 -5t24.5 -15t32.5 -29q64 -62 65 -77q1 -7 -6.5 -12t-19.5 -7zM205 0h-135q-28 0 -39 5.5t-10 18.5q2 15 16 23.5t31 22.5t24 39q6 19 9 34l57 414q2 22 2 34q0 21 -8 34t-17 17.5t-15.5 12.5t-4.5 21
q1 13 13.5 18.5t41.5 5.5h135q28 0 39 -5.5t10 -18.5q-2 -15 -16 -23.5t-31 -22t-24 -39.5q-7 -20 -8 -34l-58 -414q-2 -22 -2 -34q0 -21 8 -34t17 -17.5t16 -12.5t5 -21q-4 -24 -56 -24z" />
    <glyph glyph-name="Iacute" unicode="&#xcd;" horiz-adv-x="345" 
d="M212 760q-29 4 -27 19t66 77q23 21 32.5 29t24.5 15t27 5q17 -3 28.5 -19t7.5 -36q-5 -36 -62 -66t-97 -24zM205 0h-135q-28 0 -39 5.5t-10 18.5q2 15 16 23.5t31 22.5t24 39q6 19 9 34l57 414q2 22 2 34q0 21 -8 34t-17 17.5t-15.5 12.5t-4.5 21q1 13 13.5 18.5
t41.5 5.5h135q28 0 39 -5.5t10 -18.5q-2 -15 -16 -23.5t-31 -22t-24 -39.5q-7 -20 -8 -34l-58 -414q-2 -22 -2 -34q0 -21 8 -34t17 -17.5t16 -12.5t5 -21q-4 -24 -56 -24z" />
    <glyph glyph-name="Icircumflex" unicode="&#xce;" horiz-adv-x="345" 
d="M126 752q-15 1 -13 14q3 11 63 61q7 6 19 17t16 14.5t12 10t11.5 8.5t9.5 5t11.5 3.5t12.5 0.5q9 0 15 -1.5t10.5 -2.5t10.5 -7t9.5 -10t13.5 -16t17 -20l15 -17.5t13 -15.5t9 -11.5t7 -11t2 -7.5q0 -13 -15 -14q-21 -1 -58.5 14.5t-59.5 32.5q-28 -17 -69.5 -32.5
t-61.5 -14.5zM205 0h-135q-28 0 -39 5.5t-10 18.5q2 15 16 23.5t31 22.5t24 39q6 19 9 34l57 414q2 22 2 34q0 21 -8 34t-17 17.5t-15.5 12.5t-4.5 21q1 13 13.5 18.5t41.5 5.5h135q28 0 39 -5.5t10 -18.5q-2 -15 -16 -23.5t-31 -22t-24 -39.5q-7 -20 -8 -34l-58 -414
q-2 -22 -2 -34q0 -21 8 -34t17 -17.5t16 -12.5t5 -21q-4 -24 -56 -24z" />
    <glyph glyph-name="Idieresis" unicode="&#xcf;" horiz-adv-x="345" 
d="M163 771q-20 0 -33.5 12t-13.5 32q0 26 19 47t46 21q23 0 37 -14t14 -36q0 -26 -20.5 -44t-48.5 -18zM318 771q-21 0 -34.5 12t-13.5 32q0 26 19.5 47t45.5 21q23 0 37.5 -14t14.5 -36q0 -26 -21 -44t-48 -18zM205 0h-135q-28 0 -39 5.5t-10 18.5q2 15 16 23.5t31 22.5
t24 39q6 19 9 34l57 414q2 22 2 34q0 21 -8 34t-17 17.5t-15.5 12.5t-4.5 21q1 13 13.5 18.5t41.5 5.5h135q28 0 39 -5.5t10 -18.5q-2 -15 -16 -23.5t-31 -22t-24 -39.5q-7 -20 -8 -34l-58 -414q-2 -22 -2 -34q0 -21 8 -34t17 -17.5t16 -12.5t5 -21q-4 -24 -56 -24z" />
    <glyph glyph-name="Eth" unicode="&#xd0;" horiz-adv-x="758" 
d="M169 700h222q82 0 146 -20t104 -52.5t64.5 -77t31.5 -91.5t0 -97q-22 -155 -130 -258.5t-287 -103.5h-249q-28 0 -40 5.5t-10 18.5q2 12 11 20.5t20 13.5t23 18t18 33q5 14 9 44l24 169h-31q-17 0 -21 7t-2 23q3 24 31 24h30l24 171q4 28 4 44q0 25 -13.5 39t-25 22.5
t-9.5 23.5q4 24 56 24zM606 310q21 147 -48 243.5t-207 96.5q-37 0 -51 -8.5t-18 -35.5l-32 -230h81q27 0 24 -24q-2 -17 -8.5 -23.5t-23.5 -6.5h-81l-29 -210q-5 -32 15 -46t87 -14q254 0 291 258z" />
    <glyph glyph-name="Ntilde" unicode="&#xd1;" horiz-adv-x="758" 
d="M512 758q-24 0 -78 21t-81 21q-36 0 -39 -30q-3 -16 -15 -11q-17 7 -15 37q1 2 1 5q4 27 25.5 46t56.5 19q34 0 90.5 -21t70.5 -21q35 0 39 29q2 17 14 12q18 -8 14 -39v-3q-4 -28 -26 -46.5t-57 -18.5zM116 0h-78q-24 0 -34 5t-8 19q1 11 10.5 19t20.5 14.5t22 23
t15 41.5l59 428q4 35 0.5 53t-11.5 28.5t-16.5 15t-14 11.5t-3.5 18q4 24 56 24h63q22 0 37 -20l361 -453l48 351q3 25 -3 41.5t-15 23t-16 15t-6 19.5q2 14 13 18.5t36 4.5h78q24 0 34 -5t8 -19q-1 -10 -10.5 -18.5t-20.5 -14.5t-22 -23t-14 -42l-77 -549q-4 -29 -25 -29
h-15q-24 0 -20 27q4 34 -20 64l-366 454l-57 -423q-3 -25 3 -41.5t15 -23t16 -15t6 -19.5q-2 -14 -13 -18.5t-36 -4.5z" />
    <glyph glyph-name="Ograve" unicode="&#xd2;" horiz-adv-x="776" 
d="M500 760q-40 -6 -97 24t-62 66q-4 20 7.5 36t28.5 19q12 2 27 -5t24.5 -15t32.5 -29q64 -62 65 -77q1 -7 -6.5 -12t-19.5 -7zM354 -7q-128 2 -215.5 86.5t-87.5 216.5q0 110 53.5 205t147 151t205.5 56q139 0 219.5 -86t80.5 -212q0 -177 -115.5 -299t-287.5 -118z
M388 56q111 0 176.5 103t65.5 240q0 113 -51 181.5t-142 68.5q-113 0 -187 -103t-74 -240q0 -114 57 -182t155 -68z" />
    <glyph glyph-name="Oacute" unicode="&#xd3;" horiz-adv-x="776" 
d="M430 760q-29 4 -27 19t66 77q23 21 32.5 29t24.5 15t27 5q17 -3 28.5 -19t7.5 -36q-5 -36 -62 -66t-97 -24zM354 -7q-128 2 -215.5 86.5t-87.5 216.5q0 110 53.5 205t147 151t205.5 56q139 0 219.5 -86t80.5 -212q0 -177 -115.5 -299t-287.5 -118zM388 56
q111 0 176.5 103t65.5 240q0 113 -51 181.5t-142 68.5q-113 0 -187 -103t-74 -240q0 -114 57 -182t155 -68z" />
    <glyph glyph-name="Ocircumflex" unicode="&#xd4;" horiz-adv-x="776" 
d="M343 752q-15 1 -13 14q3 11 63 61q7 6 19 17t16 14.5t12 10t11.5 8.5t9.5 5t11.5 3.5t12.5 0.5q9 0 15 -1.5t10.5 -2.5t10.5 -7t9.5 -10t13.5 -16t17 -20l15 -17.5t13 -15.5t9 -11.5t7 -11t2 -7.5q0 -13 -15 -14q-21 -1 -58.5 14.5t-59.5 32.5q-28 -17 -69.5 -32.5
t-61.5 -14.5zM354 -7q-128 2 -215.5 86.5t-87.5 216.5q0 110 53.5 205t147 151t205.5 56q139 0 219.5 -86t80.5 -212q0 -177 -115.5 -299t-287.5 -118zM388 56q111 0 176.5 103t65.5 240q0 113 -51 181.5t-142 68.5q-113 0 -187 -103t-74 -240q0 -114 57 -182t155 -68z" />
    <glyph glyph-name="Otilde" unicode="&#xd5;" horiz-adv-x="776" 
d="M540 758q-24 0 -78 21t-81 21q-36 0 -39 -30q-3 -16 -15 -11q-17 7 -15 37q1 2 1 5q4 27 25.5 46t56.5 19q34 0 90.5 -21t70.5 -21q35 0 39 29q2 17 14 12q18 -8 14 -39v-3q-4 -28 -26 -46.5t-57 -18.5zM354 -7q-128 2 -215.5 86.5t-87.5 216.5q0 110 53.5 205t147 151
t205.5 56q139 0 219.5 -86t80.5 -212q0 -177 -115.5 -299t-287.5 -118zM388 56q111 0 176.5 103t65.5 240q0 113 -51 181.5t-142 68.5q-113 0 -187 -103t-74 -240q0 -114 57 -182t155 -68z" />
    <glyph glyph-name="Odieresis" unicode="&#xd6;" horiz-adv-x="776" 
d="M381 771q-20 0 -33.5 12t-13.5 32q0 26 19 47t46 21q23 0 37 -14t14 -36q0 -26 -20.5 -44t-48.5 -18zM536 771q-21 0 -34.5 12t-13.5 32q0 26 19.5 47t45.5 21q23 0 37.5 -14t14.5 -36q0 -26 -21 -44t-48 -18zM354 -7q-128 2 -215.5 86.5t-87.5 216.5q0 110 53.5 205
t147 151t205.5 56q139 0 219.5 -86t80.5 -212q0 -177 -115.5 -299t-287.5 -118zM388 56q111 0 176.5 103t65.5 240q0 113 -51 181.5t-142 68.5q-113 0 -187 -103t-74 -240q0 -114 57 -182t155 -68z" />
    <glyph glyph-name="multiply" unicode="&#xd7;" horiz-adv-x="420" 
d="M38 247q1 8 16 21l119 104l-90 104q-10 11 -10 19q0 1 1 5.5t15 17.5l7 6q15 13 23.5 13t18.5 -13l90 -104l118 104q15 13 23.5 13t18.5 -13l6 -6q10 -12 10 -20l-0.5 -4.5t-15.5 -17.5l-119 -104l90 -104q10 -11 10 -19q0 -1 -1 -5.5t-15 -17.5l-7 -7q-15 -13 -23.5 -13
t-18.5 13l-90 104l-118 -104q-15 -13 -23.5 -13t-18.5 13l-6 7q-10 12 -10 20v1z" />
    <glyph glyph-name="Oslash" unicode="&#xd8;" horiz-adv-x="776" 
d="M674 756l-52 -90q65 -39 100 -106.5t35 -149.5q0 -177 -115.5 -299t-287.5 -118q-57 1 -109 20l-51 -88q-13 -23 -36 -8q-21 15 -9 36l48 83q-67 39 -106.5 106.5t-39.5 153.5q0 110 53.5 205t147 151t205.5 56q63 0 117 -20l55 96q12 23 36 8q22 -13 9 -36zM176 306
q0 -123 66 -192l293 508q-43 27 -98 27q-113 0 -187 -103t-74 -240zM388 56q111 0 176.5 103t65.5 240q0 119 -55 186l-291 -504q47 -25 104 -25z" />
    <glyph glyph-name="Ugrave" unicode="&#xd9;" horiz-adv-x="742" 
d="M528 760q-40 -6 -97 24t-62 66q-4 20 7.5 36t28.5 19q12 2 27 -5t24.5 -15t32.5 -29q64 -62 65 -77q1 -7 -6.5 -12t-19.5 -7zM345 -10q-133 0 -193 77.5t-40 223.5l37 264q2 12 2 35q0 21 -8 34t-17 17.5t-16 12.5t-5 21q4 24 56 24h135q28 0 39.5 -5.5t9.5 -18.5
q-2 -15 -16 -23.5t-31 -22.5t-25 -39q-3 -14 -7 -35l-40 -285q-15 -103 26 -158.5t129 -55.5q89 0 146 61t72 163l40 297q3 25 -3 42t-15 23t-16 14.5t-6 19.5q4 24 49 24h78q24 0 34 -5t8 -19q-1 -11 -10.5 -19t-20.5 -14.5t-22 -23.5t-14 -42l-40 -278q-43 -309 -316 -309
z" />
    <glyph glyph-name="Uacute" unicode="&#xda;" horiz-adv-x="742" 
d="M458 760q-29 4 -27 19t66 77q23 21 32.5 29t24.5 15t27 5q17 -3 28.5 -19t7.5 -36q-5 -36 -62 -66t-97 -24zM345 -10q-133 0 -193 77.5t-40 223.5l37 264q2 12 2 35q0 21 -8 34t-17 17.5t-16 12.5t-5 21q4 24 56 24h135q28 0 39.5 -5.5t9.5 -18.5q-2 -15 -16 -23.5
t-31 -22.5t-25 -39q-3 -14 -7 -35l-40 -285q-15 -103 26 -158.5t129 -55.5q89 0 146 61t72 163l40 297q3 25 -3 42t-15 23t-16 14.5t-6 19.5q4 24 49 24h78q24 0 34 -5t8 -19q-1 -11 -10.5 -19t-20.5 -14.5t-22 -23.5t-14 -42l-40 -278q-43 -309 -316 -309z" />
    <glyph glyph-name="Ucircumflex" unicode="&#xdb;" horiz-adv-x="742" 
d="M371 752q-15 1 -13 14q3 11 63 61q7 6 19 17t16 14.5t12 10t11.5 8.5t9.5 5t11.5 3.5t12.5 0.5q9 0 15 -1.5t10.5 -2.5t10.5 -7t9.5 -10t13.5 -16t17 -20l15 -17.5t13 -15.5t9 -11.5t7 -11t2 -7.5q0 -13 -15 -14q-21 -1 -58.5 14.5t-59.5 32.5q-28 -17 -69.5 -32.5
t-61.5 -14.5zM345 -10q-133 0 -193 77.5t-40 223.5l37 264q2 12 2 35q0 21 -8 34t-17 17.5t-16 12.5t-5 21q4 24 56 24h135q28 0 39.5 -5.5t9.5 -18.5q-2 -15 -16 -23.5t-31 -22.5t-25 -39q-3 -14 -7 -35l-40 -285q-15 -103 26 -158.5t129 -55.5q89 0 146 61t72 163l40 297
q3 25 -3 42t-15 23t-16 14.5t-6 19.5q4 24 49 24h78q24 0 34 -5t8 -19q-1 -11 -10.5 -19t-20.5 -14.5t-22 -23.5t-14 -42l-40 -278q-43 -309 -316 -309z" />
    <glyph glyph-name="Udieresis" unicode="&#xdc;" horiz-adv-x="742" 
d="M409 771q-20 0 -33.5 12t-13.5 32q0 26 19 47t46 21q23 0 37 -14t14 -36q0 -26 -20.5 -44t-48.5 -18zM564 771q-21 0 -34.5 12t-13.5 32q0 26 19.5 47t45.5 21q23 0 37.5 -14t14.5 -36q0 -26 -21 -44t-48 -18zM345 -10q-133 0 -193 77.5t-40 223.5l37 264q2 12 2 35
q0 21 -8 34t-17 17.5t-16 12.5t-5 21q4 24 56 24h135q28 0 39.5 -5.5t9.5 -18.5q-2 -15 -16 -23.5t-31 -22.5t-25 -39q-3 -14 -7 -35l-40 -285q-15 -103 26 -158.5t129 -55.5q89 0 146 61t72 163l40 297q3 25 -3 42t-15 23t-16 14.5t-6 19.5q4 24 49 24h78q24 0 34 -5t8 -19
q-1 -11 -10.5 -19t-20.5 -14.5t-22 -23.5t-14 -42l-40 -278q-43 -309 -316 -309z" />
    <glyph glyph-name="Yacute" unicode="&#xdd;" horiz-adv-x="681" 
d="M398 760q-29 4 -27 19t66 77q23 21 32.5 29t24.5 15t27 5q17 -3 28.5 -19t7.5 -36q-5 -36 -62 -66t-97 -24zM590 700h89q23 0 34.5 -5t9.5 -18q-2 -12 -12.5 -19.5t-25 -12t-35.5 -20t-39 -38.5l-214 -277l-23 -167q-3 -17 -3 -34q1 -21 9 -34t17 -17.5t15.5 -12.5
t4.5 -21q-2 -14 -14.5 -19t-41.5 -5h-135q-28 0 -39.5 5.5t-9.5 18.5q2 12 11 20.5t20 13.5t23 18t17 33q6 19 9 34l22 167l-148 273q-16 30 -38 47t-33 24.5t-9 21.5t14 19t38 5h162q21 0 31.5 -5t8.5 -18q-2 -10 -12 -19t-18.5 -15t-11 -21.5t11.5 -39.5l108 -208l160 212
q18 24 22 39t-2 20t-12.5 13t-4.5 18q4 24 44 24z" />
    <glyph glyph-name="Thorn" unicode="&#xde;" horiz-adv-x="636" 
d="M205 1h-135q-28 0 -39 5.5t-10 18.5q2 15 16 23.5t31 22.5t24 39q6 19 9 34l59 428q4 27 -1 45.5t-12.5 26.5t-13.5 17.5t-5 18.5q3 20 48 20h122q24 0 33.5 -4.5t8.5 -15.5q-2 -12 -15 -22t-28 -29t-20 -53l73 1q138 1 209 -58.5t56 -162.5q-26 -191 -309 -191h-63
q-17 0 -22 -13t-6 -42q-1 -21 7 -34t17.5 -17.5t16.5 -13t5 -20.5q-4 -24 -56 -24zM301 218q79 0 129 34t60 102q11 82 -38.5 126t-143.5 45q-22 1 -30.5 -5t-10.5 -22l-36 -252q-2 -17 10.5 -22.5t59.5 -5.5z" />
    <glyph glyph-name="germandbls" unicode="&#xdf;" horiz-adv-x="588" 
d="M85 -84l-72 -19q-23 -7 -31 4t5 29q12 18 22 89l65 458q15 105 79.5 169t158.5 64q67 0 99.5 -33t25.5 -86q-5 -35 -32 -69.5t-53 -64t-29 -52.5q-2 -18 15 -32.5t62 -42.5q5 -3 8 -4.5t8 -4.5t9 -6q30 -19 47 -32t36.5 -33t26.5 -43.5t3 -52.5q-11 -71 -68.5 -118
t-138.5 -46q-37 0 -79 12.5t-59 39.5q-18 32 -10 78q5 42 26 42q3 0 5.5 -1t5 -4.5t4 -6t4.5 -8t4 -8.5q50 -93 127 -93q30 0 50.5 17.5t24.5 44.5q4 34 -17 59.5t-69 56.5q-59 37 -73 52q-31 32 -25 79q5 32 43 107t44 119q9 82 -52 82t-84 -93q-6 -22 -15 -85l-76 -542
q-1 -7 -4.5 -11.5t-7.5 -6.5t-13 -4z" />
    <glyph glyph-name="agrave" unicode="&#xe0;" horiz-adv-x="616" 
d="M445 550q-35 -13 -98 12.5t-76 60.5q-8 22 0.5 39t27.5 24q18 6 37 -4t52 -37q62 -57 69 -75q5 -15 -12 -20zM559 100q13 0 12 -17q-2 -32 -34 -61.5t-76 -29.5q-39 0 -60.5 22.5t-19.5 81.5q-32 -48 -80 -77t-102 -29q-71 0 -118 48t-47 131q0 130 78.5 225t187.5 95
q28 0 66.5 -10t47.5 -10q15 0 42 10.5t38 10.5q28 0 25 -40l-22 -337q-3 -41 18 -41q9 0 23 14t21 14zM247 68q57 0 101 67t50 157l2 30q4 54 -25.5 85t-74.5 31t-79.5 -39t-50.5 -91t-17 -104q0 -71 27 -103.5t67 -32.5z" />
    <glyph glyph-name="aacute" unicode="&#xe1;" horiz-adv-x="616" 
d="M321 550q-17 5 -12 20q7 19 70 75q52 43 75 43q26 0 38 -20t3 -45q-13 -35 -76 -60.5t-98 -12.5zM559 100q13 0 12 -17q-2 -32 -34 -61.5t-76 -29.5q-39 0 -60.5 22.5t-19.5 81.5q-32 -48 -80 -77t-102 -29q-71 0 -118 48t-47 131q0 130 78.5 225t187.5 95q28 0 66.5 -10
t47.5 -10q15 0 42 10.5t38 10.5q28 0 25 -40l-22 -337q-3 -41 18 -41q9 0 23 14t21 14zM247 68q57 0 101 67t50 157l2 30q4 54 -25.5 85t-74.5 31t-79.5 -39t-50.5 -91t-17 -104q0 -71 27 -103.5t67 -32.5z" />
    <glyph glyph-name="acircumflex" unicode="&#xe2;" horiz-adv-x="616" 
d="M265 538q-15 1 -13 15q2 13 56 74q35 40 49.5 51t38.5 11h11.5t9.5 -2t7.5 -2.5t6.5 -4t5.5 -5t5.5 -8t6 -9.5t7 -12.5t8 -14.5q39 -71 38 -78q-2 -14 -16 -15q-41 -1 -101 69q-79 -70 -119 -69zM559 100q13 0 12 -17q-2 -32 -34 -61.5t-76 -29.5q-39 0 -60.5 22.5
t-19.5 81.5q-32 -48 -80 -77t-102 -29q-71 0 -118 48t-47 131q0 130 78.5 225t187.5 95q28 0 66.5 -10t47.5 -10q15 0 42 10.5t38 10.5q28 0 25 -40l-22 -337q-3 -41 18 -41q9 0 23 14t21 14zM247 68q57 0 101 67t50 157l2 30q4 54 -25.5 85t-74.5 31t-79.5 -39t-50.5 -91
t-17 -104q0 -71 27 -103.5t67 -32.5z" />
    <glyph glyph-name="atilde" unicode="&#xe3;" horiz-adv-x="616" 
d="M259 550q-3 -16 -15 -11q-17 7 -15 37q1 2 1 5q4 27 25.5 46t56.5 19q34 0 90.5 -21t70.5 -21q35 0 39 29q2 17 14 12q18 -8 14 -39v-3q-4 -28 -26 -46.5t-57 -18.5q-24 0 -78 21t-81 21q-36 0 -39 -30zM559 100q13 0 12 -17q-2 -32 -34 -61.5t-76 -29.5
q-39 0 -60.5 22.5t-19.5 81.5q-32 -48 -80 -77t-102 -29q-71 0 -118 48t-47 131q0 130 78.5 225t187.5 95q28 0 66.5 -10t47.5 -10q15 0 42 10.5t38 10.5q28 0 25 -40l-22 -337q-3 -41 18 -41q9 0 23 14t21 14zM247 68q57 0 101 67t50 157l2 30q4 54 -25.5 85t-74.5 31
t-79.5 -39t-50.5 -91t-17 -104q0 -71 27 -103.5t67 -32.5z" />
    <glyph glyph-name="adieresis" unicode="&#xe4;" horiz-adv-x="616" 
d="M276 561q-21 0 -34.5 12.5t-13.5 32.5q0 26 19.5 47t45.5 21q23 0 37.5 -14t14.5 -36q0 -26 -21 -44.5t-48 -18.5zM431 561q-21 0 -34.5 12.5t-13.5 32.5q0 26 19 47t46 21q23 0 37 -14t14 -36q0 -26 -20.5 -44.5t-47.5 -18.5zM559 100q13 0 12 -17q-2 -32 -34 -61.5
t-76 -29.5q-39 0 -60.5 22.5t-19.5 81.5q-32 -48 -80 -77t-102 -29q-71 0 -118 48t-47 131q0 130 78.5 225t187.5 95q28 0 66.5 -10t47.5 -10q15 0 42 10.5t38 10.5q28 0 25 -40l-22 -337q-3 -41 18 -41q9 0 23 14t21 14zM247 68q57 0 101 67t50 157l2 30q4 54 -25.5 85
t-74.5 31t-79.5 -39t-50.5 -91t-17 -104q0 -71 27 -103.5t67 -32.5z" />
    <glyph glyph-name="aring" unicode="&#xe5;" horiz-adv-x="616" 
d="M364 527q-43 0 -68 26.5t-19 68.5q6 43 40 70.5t78 27.5q43 0 67.5 -26t18.5 -69q-6 -44 -39.5 -71t-77.5 -27zM385 676q-23 0 -38 -14.5t-17 -38.5q0 -22 12 -35.5t33 -13.5q22 0 36.5 15t16.5 38q0 22 -11.5 35.5t-31.5 13.5zM559 100q13 0 12 -17q-2 -32 -34 -61.5
t-76 -29.5q-39 0 -60.5 22.5t-19.5 81.5q-32 -48 -80 -77t-102 -29q-71 0 -118 48t-47 131q0 130 78.5 225t187.5 95q28 0 66.5 -10t47.5 -10q15 0 42 10.5t38 10.5q28 0 25 -40l-22 -337q-3 -41 18 -41q9 0 23 14t21 14zM247 68q57 0 101 67t50 157l2 30q4 54 -25.5 85
t-74.5 31t-79.5 -39t-50.5 -91t-17 -104q0 -71 27 -103.5t67 -32.5z" />
    <glyph glyph-name="ae" unicode="&#xe6;" horiz-adv-x="882" 
d="M793 138q16 14 26.5 6.5t0.5 -28.5q-24 -46 -86 -86t-141 -40q-74 0 -127 37.5t-69 107.5q-31 -68 -83.5 -106.5t-113.5 -38.5q-70 0 -117.5 51.5t-47.5 136.5q0 120 82.5 216t194.5 96t181 -76q83 76 198 76q64 0 106 -30t42 -84q0 -47 -27.5 -85t-75.5 -63t-103 -41
t-119 -25q14 -41 47 -66t77 -25q78 0 155 67zM656 437q-63 0 -107.5 -59t-44.5 -140q0 -26 28 -21q86 13 145 49t59 94q0 34 -22 55.5t-58 21.5zM250 66q56 0 95 63.5t52 162.5l12 89q2 15 -29.5 35t-69.5 20q-50 0 -87.5 -37.5t-54 -87t-17.5 -100.5q0 -72 29 -108.5
t70 -36.5z" />
    <glyph glyph-name="ccedilla" unicode="&#xe7;" horiz-adv-x="538" 
d="M426 256q-50 3 -47 58q2 32 -3.5 57t-26 44t-55.5 19q-61 0 -100.5 -60t-39.5 -138q0 -73 40 -117t110 -44q83 0 150 59q17 14 27 6t0 -28q-23 -46 -84.5 -83.5t-140.5 -38.5l-22 -42q93 -17 93 -79q0 -36 -27.5 -59t-67.5 -23q-56 0 -83 33q-8 10 -0.5 18t19.5 0
q28 -15 49 -15t32.5 11.5t11.5 28.5q0 37 -66 52q-20 4 -12 18l32 60q-83 11 -130.5 67.5t-47.5 137.5q0 120 83 206t199 86q87 0 136 -49.5t42 -110.5q-3 -34 -23 -55t-48 -19z" />
    <glyph glyph-name="egrave" unicode="&#xe8;" horiz-adv-x="528" 
d="M377 545q-35 -13 -98 12.5t-76 60.5q-8 22 0.5 39t27.5 24q18 6 37 -4t52 -37q62 -57 69 -75q5 -15 -12 -20zM439 138q16 14 27 6t0 -28q-24 -46 -86 -86t-141 -40q-89 0 -146 53.5t-57 150.5q0 70 36 137t106.5 113t158.5 46q64 0 106 -30t42 -84q0 -47 -27.5 -85
t-75.5 -63t-103 -41t-119 -25q14 -41 47 -66t77 -25q78 0 155 67zM303 437q-63 0 -108 -59t-45 -140q0 -26 29 -21q85 13 144.5 49t59.5 94q0 33 -22 55t-58 22z" />
    <glyph glyph-name="eacute" unicode="&#xe9;" horiz-adv-x="528" 
d="M253 545q-17 5 -12 20q7 19 70 75q52 43 75 43q26 0 38 -20t3 -45q-13 -35 -76 -60.5t-98 -12.5zM439 138q16 14 27 6t0 -28q-24 -46 -86 -86t-141 -40q-89 0 -146 53.5t-57 150.5q0 70 36 137t106.5 113t158.5 46q64 0 106 -30t42 -84q0 -47 -27.5 -85t-75.5 -63
t-103 -41t-119 -25q14 -41 47 -66t77 -25q78 0 155 67zM303 437q-63 0 -108 -59t-45 -140q0 -26 29 -21q85 13 144.5 49t59.5 94q0 33 -22 55t-58 22z" />
    <glyph glyph-name="ecircumflex" unicode="&#xea;" horiz-adv-x="528" 
d="M197 533q-15 1 -13 15q2 13 56 74q35 40 49.5 51t38.5 11h11.5t9.5 -2t7.5 -2.5t6.5 -4t5.5 -5t5.5 -8t6 -9.5t7 -12.5t8 -14.5q39 -71 38 -78q-2 -14 -16 -15q-41 -1 -101 69q-79 -70 -119 -69zM439 138q16 14 27 6t0 -28q-24 -46 -86 -86t-141 -40q-89 0 -146 53.5
t-57 150.5q0 70 36 137t106.5 113t158.5 46q64 0 106 -30t42 -84q0 -47 -27.5 -85t-75.5 -63t-103 -41t-119 -25q14 -41 47 -66t77 -25q78 0 155 67zM303 437q-63 0 -108 -59t-45 -140q0 -26 29 -21q85 13 144.5 49t59.5 94q0 33 -22 55t-58 22z" />
    <glyph glyph-name="edieresis" unicode="&#xeb;" horiz-adv-x="528" 
d="M208 556q-21 0 -34.5 12.5t-13.5 32.5q0 26 19.5 47t45.5 21q23 0 37.5 -14t14.5 -36q0 -26 -21 -44.5t-48 -18.5zM363 556q-21 0 -34.5 12.5t-13.5 32.5q0 26 19 47t46 21q23 0 37 -14t14 -36q0 -26 -20.5 -44.5t-47.5 -18.5zM439 138q16 14 27 6t0 -28q-24 -46 -86 -86
t-141 -40q-89 0 -146 53.5t-57 150.5q0 70 36 137t106.5 113t158.5 46q64 0 106 -30t42 -84q0 -47 -27.5 -85t-75.5 -63t-103 -41t-119 -25q14 -41 47 -66t77 -25q78 0 155 67zM303 437q-63 0 -108 -59t-45 -140q0 -26 29 -21q85 13 144.5 49t59.5 94q0 33 -22 55t-58 22z
" />
    <glyph glyph-name="igrave" unicode="&#xec;" horiz-adv-x="298" 
d="M244 550q-35 -13 -98 12.5t-76 60.5q-8 22 0.5 39t27.5 24q18 6 37 -4t52 -37q62 -57 69 -75q5 -15 -12 -20zM131 -8q-43 0 -62.5 28.5t-11.5 80.5l37 247q3 19 -2 31t-12.5 16.5t-14.5 11.5t-7 16q0 22 63 45q57 20 77 20q26 0 22 -27l-50 -348q-6 -41 17 -41
q10 0 24.5 14t20.5 14q13 0 13 -17q-3 -33 -35 -62t-79 -29z" />
    <glyph glyph-name="iacute" unicode="&#xed;" horiz-adv-x="298" 
d="M120 550q-17 5 -12 20q7 19 70 75q52 43 75 43q26 0 38 -20t3 -45q-13 -35 -76 -60.5t-98 -12.5zM131 -8q-43 0 -62.5 28.5t-11.5 80.5l37 247q3 19 -2 31t-12.5 16.5t-14.5 11.5t-7 16q0 22 63 45q57 20 77 20q26 0 22 -27l-50 -348q-6 -41 17 -41q10 0 24.5 14t20.5 14
q13 0 13 -17q-3 -33 -35 -62t-79 -29z" />
    <glyph glyph-name="icircumflex" unicode="&#xee;" horiz-adv-x="298" 
d="M64 538q-15 1 -13 15q2 13 56 74q35 40 49.5 51t38.5 11h11.5t9.5 -2t7.5 -2.5t6.5 -4t5.5 -5t5.5 -8t6 -9.5t7 -12.5t8 -14.5q39 -71 38 -78q-2 -14 -16 -15q-41 -1 -101 69q-79 -70 -119 -69zM131 -8q-43 0 -62.5 28.5t-11.5 80.5l37 247q3 19 -2 31t-12.5 16.5
t-14.5 11.5t-7 16q0 22 63 45q57 20 77 20q26 0 22 -27l-50 -348q-6 -41 17 -41q10 0 24.5 14t20.5 14q13 0 13 -17q-3 -33 -35 -62t-79 -29z" />
    <glyph glyph-name="idieresis" unicode="&#xef;" horiz-adv-x="298" 
d="M75 561q-21 0 -34.5 12.5t-13.5 32.5q0 26 19.5 47t45.5 21q23 0 37.5 -14t14.5 -36q0 -26 -21 -44.5t-48 -18.5zM230 561q-21 0 -34.5 12.5t-13.5 32.5q0 26 19 47t46 21q23 0 37 -14t14 -36q0 -26 -20.5 -44.5t-47.5 -18.5zM131 -8q-43 0 -62.5 28.5t-11.5 80.5l37 247
q3 19 -2 31t-12.5 16.5t-14.5 11.5t-7 16q0 22 63 45q57 20 77 20q26 0 22 -27l-50 -348q-6 -41 17 -41q10 0 24.5 14t20.5 14q13 0 13 -17q-3 -33 -35 -62t-79 -29z" />
    <glyph glyph-name="eth" unicode="&#xf0;" horiz-adv-x="573" 
d="M474 644l-53 -18q118 -141 118 -312q0 -141 -85.5 -232.5t-209.5 -91.5q-90 0 -148.5 56.5t-58.5 150.5q0 116 79.5 205t187.5 87q57 0 99 -24q-19 70 -58 135l-76 -26q-21 -7 -27 16q-5 22 17 29l58 20q-15 19 -35 39q-17 17 -3 36q16 20 36 7q37 -23 72 -58l76 26
q22 8 27 -14q5 -24 -16 -31zM258 45q73 0 117.5 79.5t43.5 172.5q-1 62 -26.5 102t-79.5 40q-70 -1 -115.5 -78t-44.5 -165q0 -67 27 -109t78 -42z" />
    <glyph glyph-name="ntilde" unicode="&#xf1;" horiz-adv-x="631" 
d="M212 543q-3 -16 -15 -11q-17 7 -15 37q1 2 1 5q4 27 25.5 46t56.5 19q34 0 90.5 -21t70.5 -21q35 0 39 29q2 17 14 12q18 -8 14 -39v-3q-4 -28 -26 -46.5t-57 -18.5q-24 0 -78 21t-81 21q-36 0 -39 -30zM573 100q14 0 13 -17q-2 -32 -34 -61.5t-78 -29.5q-82 0 -74 110
l13 202q3 54 -9.5 81.5t-49.5 27.5q-53 0 -105 -78t-74 -207l-17 -94q-3 -21 -22 -25l-67 -17q-12 -3 -18.5 4t-4.5 20l48 332q3 19 -2 31t-13 16t-14.5 10t-6.5 15q0 12 12 21.5t50 25.5q47 20 72 20q26 0 22 -26l-18 -118q81 145 203 145q69 0 100 -46t25 -132l-11 -197
q-2 -22 1 -31.5t15 -9.5q10 0 24 14t20 14z" />
    <glyph glyph-name="ograve" unicode="&#xf2;" horiz-adv-x="579" 
d="M411 550q-35 -13 -98 12.5t-76 60.5q-8 22 0.5 39t27.5 24q18 6 37 -4t52 -37q62 -57 69 -75q5 -15 -12 -20zM254 -10q-98 0 -157.5 57t-59.5 149q0 119 87 206.5t206 87.5q98 0 155 -57.5t57 -143.5q0 -126 -83.5 -212.5t-204.5 -86.5zM266 44q68 0 109 75.5t41 167.5
q0 66 -24 108t-76 42q-72 0 -115.5 -74t-44.5 -162q1 -70 28 -113.5t82 -43.5z" />
    <glyph glyph-name="oacute" unicode="&#xf3;" horiz-adv-x="579" 
d="M286 550q-17 5 -12 20q7 19 70 75q52 43 75 43q26 0 38 -20t3 -45q-13 -35 -76 -60.5t-98 -12.5zM254 -10q-98 0 -157.5 57t-59.5 149q0 119 87 206.5t206 87.5q98 0 155 -57.5t57 -143.5q0 -126 -83.5 -212.5t-204.5 -86.5zM266 44q68 0 109 75.5t41 167.5q0 66 -24 108
t-76 42q-72 0 -115.5 -74t-44.5 -162q1 -70 28 -113.5t82 -43.5z" />
    <glyph glyph-name="ocircumflex" unicode="&#xf4;" horiz-adv-x="579" 
d="M231 538q-15 1 -13 15q2 13 56 74q35 40 49.5 51t38.5 11h11.5t9.5 -2t7.5 -2.5t6.5 -4t5.5 -5t5.5 -8t6 -9.5t7 -12.5t8 -14.5q39 -71 38 -78q-2 -14 -16 -15q-41 -1 -101 69q-79 -70 -119 -69zM254 -10q-98 0 -157.5 57t-59.5 149q0 119 87 206.5t206 87.5
q98 0 155 -57.5t57 -143.5q0 -126 -83.5 -212.5t-204.5 -86.5zM266 44q68 0 109 75.5t41 167.5q0 66 -24 108t-76 42q-72 0 -115.5 -74t-44.5 -162q1 -70 28 -113.5t82 -43.5z" />
    <glyph glyph-name="otilde" unicode="&#xf5;" horiz-adv-x="579" 
d="M423 538q-24 0 -78 21t-81 21q-36 0 -39 -30q-3 -16 -15 -11q-17 7 -15 37q1 2 1 5q4 27 25.5 46t56.5 19q34 0 90.5 -21t70.5 -21q35 0 39 29q2 17 14 12q18 -8 14 -39v-3q-4 -28 -26 -46.5t-57 -18.5zM254 -10q-98 0 -157.5 57t-59.5 149q0 119 87 206.5t206 87.5
q98 0 155 -57.5t57 -143.5q0 -126 -83.5 -212.5t-204.5 -86.5zM266 44q68 0 109 75.5t41 167.5q0 66 -24 108t-76 42q-72 0 -115.5 -74t-44.5 -162q1 -70 28 -113.5t82 -43.5z" />
    <glyph glyph-name="odieresis" unicode="&#xf6;" horiz-adv-x="579" 
d="M242 561q-21 0 -34.5 12.5t-13.5 32.5q0 26 19.5 47t45.5 21q23 0 37.5 -14t14.5 -36q0 -26 -21 -44.5t-48 -18.5zM397 561q-21 0 -34.5 12.5t-13.5 32.5q0 26 19 47t46 21q23 0 37 -14t14 -36q0 -26 -20.5 -44.5t-47.5 -18.5zM254 -10q-98 0 -157.5 57t-59.5 149
q0 119 87 206.5t206 87.5q98 0 155 -57.5t57 -143.5q0 -126 -83.5 -212.5t-204.5 -86.5zM266 44q68 0 109 75.5t41 167.5q0 66 -24 108t-76 42q-72 0 -115.5 -74t-44.5 -162q1 -70 28 -113.5t82 -43.5z" />
    <glyph glyph-name="divide" unicode="&#xf7;" horiz-adv-x="427" 
d="M228 457q-22 0 -36.5 13t-14.5 37q0 29 20 47t45 18q21 0 35.5 -14t14.5 -38q0 -28 -19 -45.5t-45 -17.5zM371 338h-314q-18 0 -22.5 5.5t-3.5 24.5l1 8q1 18 8.5 24t25.5 6h315q17 0 21.5 -5.5t3.5 -24.5v-8q-1 -17 -8.5 -23.5t-26.5 -6.5zM194 169q-22 0 -36.5 13
t-14.5 37q0 29 20 47t45 18q21 0 36 -14t15 -38q0 -28 -19.5 -45.5t-45.5 -17.5z" />
    <glyph glyph-name="oslash" unicode="&#xf8;" horiz-adv-x="579" 
d="M505 559l-57 -99q45 -26 69.5 -71t24.5 -100q0 -126 -83.5 -212.5t-204.5 -86.5q-38 0 -71 9l-55 -95q-13 -21 -32 -21q-22 0 -22 19q0 5 6 15l58 100q-101 54 -101 179q0 119 87 206.5t206 87.5q37 0 74 -10l56 96q10 17 28 17q8 0 15 -4.5t7 -12.5q0 -7 -5 -17z
M156 201q0 -68 25 -109l189 328q-22 17 -54 17q-72 0 -115.5 -74t-44.5 -162zM266 44q68 0 109 75.5t41 167.5q0 56 -15 91l-185 -321q23 -13 50 -13z" />
    <glyph glyph-name="ugrave" unicode="&#xf9;" horiz-adv-x="628" 
d="M437 545q-35 -13 -98 12.5t-76 60.5q-8 22 0.5 39t27.5 24q18 6 37 -4t52 -37q62 -57 69 -75q5 -15 -12 -20zM562 100q13 0 12 -17q-2 -32 -34.5 -61.5t-78.5 -29.5q-86 0 -74 115q-80 -117 -183 -117q-79 0 -113 49.5t-21 141.5l24 170q3 19 -2 31t-13 15t-14.5 8.5
t-6.5 14.5q0 12 12 22t50 25q53 21 82 21q26 0 22 -27l-38 -252q-5 -34 -6.5 -55.5t2 -46t17.5 -36.5t39 -12q56 0 109.5 78.5t74.5 207.5l16 99q4 20 26 25l65 17q12 4 19 -4t5 -20l-52 -348q-6 -42 16 -42q10 0 24.5 14t20.5 14z" />
    <glyph glyph-name="uacute" unicode="&#xfa;" horiz-adv-x="628" 
d="M312 545q-17 5 -12 20q7 19 70 75q52 43 75 43q26 0 38 -20t3 -45q-13 -35 -76 -60.5t-98 -12.5zM562 100q13 0 12 -17q-2 -32 -34.5 -61.5t-78.5 -29.5q-86 0 -74 115q-80 -117 -183 -117q-79 0 -113 49.5t-21 141.5l24 170q3 19 -2 31t-13 15t-14.5 8.5t-6.5 14.5
q0 12 12 22t50 25q53 21 82 21q26 0 22 -27l-38 -252q-5 -34 -6.5 -55.5t2 -46t17.5 -36.5t39 -12q56 0 109.5 78.5t74.5 207.5l16 99q4 20 26 25l65 17q12 4 19 -4t5 -20l-52 -348q-6 -42 16 -42q10 0 24.5 14t20.5 14z" />
    <glyph glyph-name="ucircumflex" unicode="&#xfb;" horiz-adv-x="628" 
d="M257 533q-15 1 -13 15q2 13 56 74q35 40 49.5 51t38.5 11h11.5t9.5 -2t7.5 -2.5t6.5 -4t5.5 -5t5.5 -8t6 -9.5t7 -12.5t8 -14.5q39 -71 38 -78q-2 -14 -16 -15q-41 -1 -101 69q-79 -70 -119 -69zM562 100q13 0 12 -17q-2 -32 -34.5 -61.5t-78.5 -29.5q-86 0 -74 115
q-80 -117 -183 -117q-79 0 -113 49.5t-21 141.5l24 170q3 19 -2 31t-13 15t-14.5 8.5t-6.5 14.5q0 12 12 22t50 25q53 21 82 21q26 0 22 -27l-38 -252q-5 -34 -6.5 -55.5t2 -46t17.5 -36.5t39 -12q56 0 109.5 78.5t74.5 207.5l16 99q4 20 26 25l65 17q12 4 19 -4t5 -20
l-52 -348q-6 -42 16 -42q10 0 24.5 14t20.5 14z" />
    <glyph glyph-name="udieresis" unicode="&#xfc;" horiz-adv-x="628" 
d="M268 556q-21 0 -34.5 12.5t-13.5 32.5q0 26 19.5 47t45.5 21q23 0 37.5 -14t14.5 -36q0 -26 -21 -44.5t-48 -18.5zM423 556q-21 0 -34.5 12.5t-13.5 32.5q0 26 19 47t46 21q23 0 37 -14t14 -36q0 -26 -20.5 -44.5t-47.5 -18.5zM562 100q13 0 12 -17q-2 -32 -34.5 -61.5
t-78.5 -29.5q-86 0 -74 115q-80 -117 -183 -117q-79 0 -113 49.5t-21 141.5l24 170q3 19 -2 31t-13 15t-14.5 8.5t-6.5 14.5q0 12 12 22t50 25q53 21 82 21q26 0 22 -27l-38 -252q-5 -34 -6.5 -55.5t2 -46t17.5 -36.5t39 -12q56 0 109.5 78.5t74.5 207.5l16 99q4 20 26 25
l65 17q12 4 19 -4t5 -20l-52 -348q-6 -42 16 -42q10 0 24.5 14t20.5 14z" />
    <glyph glyph-name="yacute" unicode="&#xfd;" horiz-adv-x="525" 
d="M246 541q-17 5 -12 20q7 19 70 75q52 43 75 43q26 0 38 -20t3 -45q-13 -35 -76 -60.5t-98 -12.5zM439 491q31 0 45 -20.5t14 -49.5q0 -97 -48 -214.5t-101 -198.5q-142 -218 -305 -218q-57 0 -87 25t-30 66q0 31 17 50.5t43 19.5q33 0 52 -40q8 -18 14 -26.5t20 -16.5
t35 -8q37 0 65.5 29t33.5 69q5 29 -8 91q-31 140 -96 304q-8 21 -19 28t-32 8q-27 0 -27 18q0 23 48.5 52.5t75.5 29.5q24 0 35 -28q76 -206 125 -416q96 154 96 253q0 38 -20.5 72t-20.5 53q0 26 23.5 47t51.5 21z" />
    <glyph glyph-name="thorn" unicode="&#xfe;" horiz-adv-x="582" 
d="M401 488q73 0 112.5 -53t34.5 -133q-6 -135 -90.5 -221.5t-193.5 -86.5q-46 0 -105 26l-14 -100q-4 -30 5 -48.5t19 -29.5t8 -22q-3 -20 -46 -20h-117q-25 0 -34.5 4.5t-8.5 16.5q1 10 28.5 35t33.5 64l87 627q8 53 -20 71q-16 13 -15 26q2 9 8.5 15t25.5 14
q82 36 116 38q11 1 15.5 -5.5t2.5 -20.5l-42 -295q36 46 86 72t104 26zM270 46q69 0 114 75.5t44 180.5q-1 48 -23.5 79t-65.5 31q-50 0 -92.5 -51.5t-58.5 -138.5l-7 -44q-5 -65 20 -98.5t69 -33.5z" />
    <glyph glyph-name="ydieresis" unicode="&#xff;" horiz-adv-x="525" 
d="M201 552q-21 0 -34.5 12.5t-13.5 32.5q0 26 19.5 47t45.5 21q23 0 37.5 -14t14.5 -36q0 -26 -21 -44.5t-48 -18.5zM356 552q-21 0 -34.5 12.5t-13.5 32.5q0 26 19 47t46 21q23 0 37 -14t14 -36q0 -26 -20.5 -44.5t-47.5 -18.5zM439 491q31 0 45 -20.5t14 -49.5
q0 -97 -48 -214.5t-101 -198.5q-142 -218 -305 -218q-57 0 -87 25t-30 66q0 31 17 50.5t43 19.5q33 0 52 -40q8 -18 14 -26.5t20 -16.5t35 -8q37 0 65.5 29t33.5 69q5 29 -8 91q-31 140 -96 304q-8 21 -19 28t-32 8q-27 0 -27 18q0 23 48.5 52.5t75.5 29.5q24 0 35 -28
q76 -206 125 -416q96 154 96 253q0 38 -20.5 72t-20.5 53q0 26 23.5 47t51.5 21z" />
    <glyph glyph-name="Amacron" unicode="&#x100;" horiz-adv-x="701" 
d="M490 773h-226q-23 0 -28 5.5t-3 22.5q2 19 8.5 24.5t30.5 5.5h226q24 0 30 -5.5t4 -21.5q-2 -20 -9.5 -25.5t-32.5 -5.5zM104 0h-85q-23 0 -34.5 5t-9.5 17q2 14 17 22.5t39 26.5t42 52l249 464q14 32 7.5 42t-18.5 22t-10 25q1 24 32 24h103q22 0 28 -22l141 -553
q9 -35 25.5 -53t26.5 -25.5t8 -21.5q-4 -25 -54 -25h-139q-45 0 -42 23q2 11 13 20t21 15t16 23t-2 44l-12 50q-5 20 -16 24q-16 6 -128 6q-106 0 -125.5 -3.5t-30.5 -25.5l-29 -53q-19 -42 -15 -54t16 -22.5t10 -22.5q-4 -24 -44 -24zM221 263q10 -5 109 -5t107 6q5 6 1 20
l-69 275l-146 -275q-9 -18 -2 -21z" />
    <glyph glyph-name="amacron" unicode="&#x101;" horiz-adv-x="616" 
d="M474 553h-227q-22 0 -27 6t0 22q6 19 13 24.5t30 5.5h227q24 0 29.5 -6t-0.5 -21q-5 -20 -12.5 -25.5t-32.5 -5.5zM559 100q13 0 12 -17q-2 -32 -34 -61.5t-76 -29.5q-39 0 -60.5 22.5t-19.5 81.5q-32 -48 -80 -77t-102 -29q-71 0 -118 48t-47 131q0 130 78.5 225
t187.5 95q28 0 66.5 -10t47.5 -10q15 0 42 10.5t38 10.5q28 0 25 -40l-22 -337q-3 -41 18 -41q9 0 23 14t21 14zM247 68q57 0 101 67t50 157l2 30q4 54 -25.5 85t-74.5 31t-79.5 -39t-50.5 -91t-17 -104q0 -71 27 -103.5t67 -32.5z" />
    <glyph glyph-name="Abreve" unicode="&#x102;" horiz-adv-x="701" 
d="M390 756q-60 0 -90.5 34.5t-24.5 85.5q2 26 18 26q9 0 16 -12q31 -54 93 -54q61 0 108 54q12 12 18 12q16 0 11 -26q-8 -51 -49.5 -85.5t-99.5 -34.5zM104 0h-85q-23 0 -34.5 5t-9.5 17q2 14 17 22.5t39 26.5t42 52l249 464q14 32 7.5 42t-18.5 22t-10 25q1 24 32 24h103
q22 0 28 -22l141 -553q9 -35 25.5 -53t26.5 -25.5t8 -21.5q-4 -25 -54 -25h-139q-45 0 -42 23q2 11 13 20t21 15t16 23t-2 44l-12 50q-5 20 -16 24q-16 6 -128 6q-106 0 -125.5 -3.5t-30.5 -25.5l-29 -53q-19 -42 -15 -54t16 -22.5t10 -22.5q-4 -24 -44 -24zM221 263
q10 -5 109 -5t107 6q5 6 1 20l-69 275l-146 -275q-9 -18 -2 -21z" />
    <glyph glyph-name="abreve" unicode="&#x103;" horiz-adv-x="616" 
d="M363 536q-60 0 -90.5 34.5t-24.5 85.5q2 26 18 26q9 0 16 -12q31 -54 93 -54t108 54q12 12 18 12q16 0 11 -26q-8 -51 -49.5 -85.5t-99.5 -34.5zM559 100q13 0 12 -17q-2 -32 -34 -61.5t-76 -29.5q-39 0 -60.5 22.5t-19.5 81.5q-32 -48 -80 -77t-102 -29q-71 0 -118 48
t-47 131q0 130 78.5 225t187.5 95q28 0 66.5 -10t47.5 -10q15 0 42 10.5t38 10.5q28 0 25 -40l-22 -337q-3 -41 18 -41q9 0 23 14t21 14zM247 68q57 0 101 67t50 157l2 30q4 54 -25.5 85t-74.5 31t-79.5 -39t-50.5 -91t-17 -104q0 -71 27 -103.5t67 -32.5z" />
    <glyph glyph-name="Aogonek" unicode="&#x104;" horiz-adv-x="701" 
d="M649 -132q16 7 21 -2.5t-5 -19.5q-31 -31 -84 -31q-42 0 -70 22t-28 59q0 56 73 104h-84q-45 0 -42 23q2 11 13 20t21 15t16 23t-2 44l-12 50q-5 20 -16 24q-16 6 -128 6q-106 0 -125.5 -3.5t-30.5 -25.5l-29 -53q-19 -42 -15 -54t16 -22.5t10 -22.5q-4 -24 -44 -24h-85
q-23 0 -34.5 5t-9.5 17q2 14 17 22.5t39 26.5t42 52l249 464q14 32 7.5 42t-18.5 22t-10 25q1 24 32 24h103q22 0 28 -22l141 -553q9 -35 25.5 -53t26.5 -25.5t8 -21.5q-4 -25 -54 -25h-12q-43 -49 -43 -89q0 -24 14 -38t40 -14q17 0 39 9zM221 263q10 -5 109 -5t107 6
q5 6 1 20l-69 275l-146 -275q-9 -18 -2 -21z" />
    <glyph glyph-name="aogonek" unicode="&#x105;" horiz-adv-x="616" 
d="M552 -129q16 7 21 -2.5t-5 -19.5q-31 -31 -84 -31q-42 0 -70 22t-28 59q0 49 58 94q-67 9 -63 103q-32 -48 -80 -77t-102 -29q-71 0 -118 48t-47 131q0 130 78.5 225t187.5 95q28 0 66.5 -10t47.5 -10q15 0 42 10.5t38 10.5q28 0 25 -40l-22 -337q-3 -41 18 -41
q9 0 23 14t21 14q13 0 12 -17q-2 -25 -22 -49.5t-51 -35.5q-39 -45 -39 -84q0 -24 14 -38t40 -14q17 0 39 9zM247 68q57 0 101 67t50 157l2 30q4 54 -25.5 85t-74.5 31t-79.5 -39t-50.5 -91t-17 -104q0 -71 27 -103.5t67 -32.5z" />
    <glyph glyph-name="Cacute" unicode="&#x106;" horiz-adv-x="694" 
d="M400 760q-29 4 -27 19t66 77q23 21 32.5 29t24.5 15t27 5q17 -3 28.5 -19t7.5 -36q-5 -36 -62 -66t-97 -24zM356 -10q-153 0 -238 104.5t-63 261.5q22 156 142 255t282 99q37 0 76 -7.5t47 -7.5q13 0 27 6.5t22 6.5q15 0 22.5 -11t10.5 -41q6 -64 7 -134q-2 -39 -25 -40
q-13 -1 -21.5 7.5t-21.5 31.5q-18 31 -29 47.5t-33 38.5t-51.5 32t-69.5 10q-100 0 -170.5 -75.5t-86.5 -185.5q-18 -138 41.5 -230.5t176.5 -92.5q112 0 214 95q20 19 30 3q9 -15 -6 -36q-36 -52 -112.5 -94.5t-170.5 -42.5z" />
    <glyph glyph-name="cacute" unicode="&#x107;" horiz-adv-x="538" 
d="M263 550q-17 5 -12 20q7 19 70 75q52 43 75 43q26 0 38 -20t3 -45q-13 -35 -76 -60.5t-98 -12.5zM253 -10q-99 0 -157.5 59t-58.5 149q0 120 83 206t199 86q87 0 136 -49.5t42 -110.5q-3 -34 -23 -55t-48 -19q-50 3 -47 58q2 32 -3.5 57t-26 44t-55.5 19
q-61 0 -100.5 -60t-39.5 -138q0 -73 40 -117t110 -44q83 0 150 59q17 14 27 6t0 -28q-23 -46 -85.5 -84t-142.5 -38z" />
    <glyph glyph-name="Cdotaccent" unicode="&#x10a;" horiz-adv-x="694" 
d="M408 775q-25 1 -40 16.5t-13 38.5q1 32 31.5 59.5t64.5 24.5q23 -1 39 -17.5t15 -39.5q-1 -31 -32 -57.5t-65 -24.5zM356 -10q-153 0 -238 104.5t-63 261.5q22 156 142 255t282 99q37 0 76 -7.5t47 -7.5q13 0 27 6.5t22 6.5q15 0 22.5 -11t10.5 -41q6 -64 7 -134
q-2 -39 -25 -40q-13 -1 -21.5 7.5t-21.5 31.5q-18 31 -29 47.5t-33 38.5t-51.5 32t-69.5 10q-100 0 -170.5 -75.5t-86.5 -185.5q-18 -138 41.5 -230.5t176.5 -92.5q112 0 214 95q20 19 30 3q9 -15 -6 -36q-36 -52 -112.5 -94.5t-170.5 -42.5z" />
    <glyph glyph-name="cdotaccent" unicode="&#x10b;" horiz-adv-x="538" 
d="M305 555q-25 1 -40 16.5t-13 38.5q1 32 31.5 59.5t64.5 24.5q23 -1 39 -17.5t15 -39.5q-1 -31 -32 -57.5t-65 -24.5zM253 -10q-99 0 -157.5 59t-58.5 149q0 120 83 206t199 86q87 0 136 -49.5t42 -110.5q-3 -34 -23 -55t-48 -19q-50 3 -47 58q2 32 -3.5 57t-26 44
t-55.5 19q-61 0 -100.5 -60t-39.5 -138q0 -73 40 -117t110 -44q83 0 150 59q17 14 27 6t0 -28q-23 -46 -85.5 -84t-142.5 -38z" />
    <glyph glyph-name="Ccaron" unicode="&#x10c;" horiz-adv-x="694" 
d="M455 755q-7 -1 -17 -1t-16.5 1.5t-14 7.5t-11.5 9.5t-16 18t-19 22.5q-4 5 -10.5 12.5t-10 11.5t-8 9.5t-7 9t-5 7.5t-3.5 6.5t-1 4.5q2 14 17 15q21 1 58.5 -14.5t59.5 -33.5q27 18 68.5 33.5t61.5 14.5q15 -1 13 -15q-1 -3 -4 -7.5t-10 -11t-13 -12t-17.5 -15
t-19.5 -16.5q-12 -10 -27 -23.5t-20 -17.5t-13.5 -9.5t-14.5 -6.5zM356 -10q-153 0 -238 104.5t-63 261.5q22 156 142 255t282 99q37 0 76 -7.5t47 -7.5q13 0 27 6.5t22 6.5q15 0 22.5 -11t10.5 -41q6 -64 7 -134q-2 -39 -25 -40q-13 -1 -21.5 7.5t-21.5 31.5
q-18 31 -29 47.5t-33 38.5t-51.5 32t-69.5 10q-100 0 -170.5 -75.5t-86.5 -185.5q-18 -138 41.5 -230.5t176.5 -92.5q112 0 214 95q20 19 30 3q9 -15 -6 -36q-36 -52 -112.5 -94.5t-170.5 -42.5z" />
    <glyph glyph-name="ccaron" unicode="&#x10d;" horiz-adv-x="538" 
d="M321 563q-24 0 -35 11t-35 51q-36 59 -36 74q3 14 17 15q40 1 100 -69q79 70 120 69q15 -1 12 -15q-1 -3 -4 -8.5t-9.5 -14t-13 -16t-16 -19.5t-16.5 -20q-4 -5 -12 -14.5t-10.5 -12.5t-8.5 -9.5t-8 -8t-7 -5t-8 -4t-8 -2.5t-10 -2h-12zM253 -10q-99 0 -157.5 59
t-58.5 149q0 120 83 206t199 86q87 0 136 -49.5t42 -110.5q-3 -34 -23 -55t-48 -19q-50 3 -47 58q2 32 -3.5 57t-26 44t-55.5 19q-61 0 -100.5 -60t-39.5 -138q0 -73 40 -117t110 -44q83 0 150 59q17 14 27 6t0 -28q-23 -46 -85.5 -84t-142.5 -38z" />
    <glyph glyph-name="Dcaron" unicode="&#x10e;" horiz-adv-x="758" 
d="M374 755q-7 -1 -17 -1t-16.5 1.5t-14 7.5t-11.5 9.5t-16 18t-19 22.5q-4 5 -10.5 12.5t-10 11.5t-8 9.5t-7 9t-5 7.5t-3.5 6.5t-1 4.5q2 14 17 15q21 1 58.5 -14.5t59.5 -33.5q27 18 68.5 33.5t61.5 14.5q15 -1 13 -15q-1 -3 -4 -7.5t-10 -11t-13 -12t-17.5 -15
t-19.5 -16.5q-12 -10 -27 -23.5t-20 -17.5t-13.5 -9.5t-14.5 -6.5zM320 0h-249q-28 0 -40 5.5t-10 18.5q2 12 11 20.5t20 13.5t23 18t18 33q5 14 9 44l55 394q4 28 4 44q0 25 -13.5 39t-25 22.5t-9.5 23.5q4 24 56 24h222q82 0 146 -20t104 -52.5t64.5 -77t31.5 -91.5t0 -97
q-22 -155 -130 -258.5t-287 -103.5zM315 52q254 0 291 258q21 147 -48 243.5t-207 96.5q-37 0 -51 -8.5t-18 -35.5l-69 -494q-5 -32 15 -46t87 -14z" />
    <glyph glyph-name="dcaron" unicode="&#x10f;" horiz-adv-x="605" 
d="M547 710q25 0 22 -27l-83 -570q-6 -41 16 -41q10 0 24.5 14t20.5 14q14 0 13 -17q-3 -33 -35 -62t-79 -29q-82 0 -78 89q-68 -91 -165 -91q-80 0 -124.5 50t-44.5 132q0 131 85.5 224.5t198.5 93.5q51 0 103 -29l16 110q3 19 -2 31.5t-13 17t-14.5 11t-6.5 14.5
q0 11 12 21t50 24q54 20 84 20zM687 704q19 0 29.5 -13t7.5 -36q-6 -36 -48.5 -106.5t-64.5 -70.5q-18 0 -13 19q5 21 19.5 84.5t16.5 70.5q13 52 53 52zM245 69q54 0 97 61t54 156q9 74 -17 111.5t-75 37.5q-68 0 -111 -75.5t-41 -166.5q1 -57 24 -90.5t69 -33.5z" />
    <glyph glyph-name="Dcroat" unicode="&#x110;" horiz-adv-x="758" 
d="M169 700h222q82 0 146 -20t104 -52.5t64.5 -77t31.5 -91.5t0 -97q-22 -155 -130 -258.5t-287 -103.5h-249q-28 0 -40 5.5t-10 18.5q2 12 11 20.5t20 13.5t23 18t18 33q5 14 9 44l24 169h-31q-17 0 -21 7t-2 23q3 24 31 24h30l24 171q4 28 4 44q0 25 -13.5 39t-25 22.5
t-9.5 23.5q4 24 56 24zM606 310q21 147 -48 243.5t-207 96.5q-37 0 -51 -8.5t-18 -35.5l-32 -230h81q27 0 24 -24q-2 -17 -8.5 -23.5t-23.5 -6.5h-81l-29 -210q-5 -32 15 -46t87 -14q254 0 291 258z" />
    <glyph glyph-name="dcroat" unicode="&#x111;" horiz-adv-x="605" 
d="M547 710q25 0 22 -27l-18 -127q15 -3 15 -23q0 -24 -22 -24l-58 -396q-6 -41 16 -41q10 0 24.5 14t20.5 14q14 0 13 -17q-3 -33 -35 -62t-79 -29q-82 0 -78 89q-68 -91 -165 -91q-80 0 -124.5 50t-44.5 132q0 131 85.5 224.5t198.5 93.5q51 0 103 -29l7 48h-91
q-22 0 -22 24t22 24h98l2 14q3 19 -2 31.5t-13 17t-14.5 11t-6.5 14.5q0 11 12 21t50 24q54 20 84 20zM245 69q54 0 97 61t54 156q9 74 -17 111.5t-75 37.5q-68 0 -111 -75.5t-41 -166.5q1 -57 24 -90.5t69 -33.5z" />
    <glyph glyph-name="Emacron" unicode="&#x112;" horiz-adv-x="632" 
d="M429 773h-226q-23 0 -28 5.5t-3 22.5q2 19 8.5 24.5t30.5 5.5h226q24 0 30 -5.5t4 -21.5q-2 -20 -9.5 -25.5t-32.5 -5.5zM463 0h-393q-29 0 -40 5t-9 19q2 12 9 19t17 12t20.5 13.5t20 30t14.5 54.5l55 394q5 37 1.5 55.5t-11.5 29t-16.5 14.5t-14 11t-3.5 19
q2 14 14.5 19t41.5 5l380 1q43 0 56 -6t17 -27q11 -49 11 -105q2 -37 -19 -43q-14 -4 -22.5 3t-17.5 28q-21 49 -53 72t-86 23h-45q-63 0 -84 -10t-25 -36l-15 -111q-4 -32 13 -40.5t67 -8.5q42 0 65 8t33.5 16.5t22.5 8.5q21 0 24 -31l7 -99q3 -27 -1.5 -36.5t-17.5 -13.5
q-14 -3 -26 10.5t-21 32t-33.5 35t-59.5 16.5q-51 0 -70.5 -8.5t-24.5 -40.5l-33 -236q-4 -27 14.5 -38t83.5 -10l72 1q54 0 81 21.5t61 77.5q26 43 48 39q12 -3 14 -13.5t-2 -26.5q-14 -70 -32 -115q-9 -21 -26 -29.5t-62 -8.5z" />
    <glyph glyph-name="emacron" unicode="&#x113;" horiz-adv-x="528" 
d="M406 548h-227q-22 0 -27 6t0 22q6 19 13 24.5t30 5.5h227q24 0 29.5 -6t-0.5 -21q-5 -20 -12.5 -25.5t-32.5 -5.5zM439 138q16 14 27 6t0 -28q-24 -46 -86 -86t-141 -40q-89 0 -146 53.5t-57 150.5q0 70 36 137t106.5 113t158.5 46q64 0 106 -30t42 -84q0 -47 -27.5 -85
t-75.5 -63t-103 -41t-119 -25q14 -41 47 -66t77 -25q78 0 155 67zM303 437q-63 0 -108 -59t-45 -140q0 -26 29 -21q85 13 144.5 49t59.5 94q0 33 -22 55t-58 22z" />
    <glyph glyph-name="Edotaccent" unicode="&#x116;" horiz-adv-x="632" 
d="M305 775q-25 1 -40 16.5t-13 38.5q1 32 31.5 59.5t64.5 24.5q23 -1 39 -17.5t15 -39.5q-1 -31 -32 -57.5t-65 -24.5zM463 0h-393q-29 0 -40 5t-9 19q2 12 9 19t17 12t20.5 13.5t20 30t14.5 54.5l55 394q5 37 1.5 55.5t-11.5 29t-16.5 14.5t-14 11t-3.5 19q2 14 14.5 19
t41.5 5l380 1q43 0 56 -6t17 -27q11 -49 11 -105q2 -37 -19 -43q-14 -4 -22.5 3t-17.5 28q-21 49 -53 72t-86 23h-45q-63 0 -84 -10t-25 -36l-15 -111q-4 -32 13 -40.5t67 -8.5q42 0 65 8t33.5 16.5t22.5 8.5q21 0 24 -31l7 -99q3 -27 -1.5 -36.5t-17.5 -13.5
q-14 -3 -26 10.5t-21 32t-33.5 35t-59.5 16.5q-51 0 -70.5 -8.5t-24.5 -40.5l-33 -236q-4 -27 14.5 -38t83.5 -10l72 1q54 0 81 21.5t61 77.5q26 43 48 39q12 -3 14 -13.5t-2 -26.5q-14 -70 -32 -115q-9 -21 -26 -29.5t-62 -8.5z" />
    <glyph glyph-name="edotaccent" unicode="&#x117;" horiz-adv-x="528" 
d="M295 550q-25 1 -40 16.5t-13 38.5q1 32 31.5 59.5t64.5 24.5q23 -1 39 -17.5t15 -39.5q-1 -31 -32 -57.5t-65 -24.5zM439 138q16 14 27 6t0 -28q-24 -46 -86 -86t-141 -40q-89 0 -146 53.5t-57 150.5q0 70 36 137t106.5 113t158.5 46q64 0 106 -30t42 -84
q0 -47 -27.5 -85t-75.5 -63t-103 -41t-119 -25q14 -41 47 -66t77 -25q78 0 155 67zM303 437q-63 0 -108 -59t-45 -140q0 -26 29 -21q85 13 144.5 49t59.5 94q0 33 -22 55t-58 22z" />
    <glyph glyph-name="Eogonek" unicode="&#x118;" horiz-adv-x="632" 
d="M633 563q2 -37 -19 -43q-14 -4 -22.5 3t-17.5 28q-21 49 -53 72t-86 23h-45q-63 0 -84 -10t-25 -36l-15 -111q-4 -32 13 -40.5t67 -8.5q42 0 65 8t33.5 16.5t22.5 8.5q21 0 24 -31l7 -99q3 -27 -1.5 -36.5t-17.5 -13.5q-14 -3 -26 10.5t-21 32t-33.5 35t-59.5 16.5
q-51 0 -70.5 -8.5t-24.5 -40.5l-33 -236q-4 -27 14.5 -38t83.5 -10l72 1q54 0 81 21.5t61 77.5q26 43 48 39q12 -3 14 -13.5t-2 -26.5q-14 -70 -32 -115q-9 -21 -26 -29.5t-62 -8.5h-19q-43 -49 -43 -89q0 -24 14 -38t40 -14q17 0 39 9q16 7 21 -2.5t-5 -19.5
q-31 -31 -84 -31q-42 0 -70 22t-28 59q0 56 73 104h-331q-29 0 -40 5t-9 19q2 12 9 19t17 12t20.5 13.5t20 30t14.5 54.5l55 394q5 37 1.5 55.5t-11.5 29t-16.5 14.5t-14 11t-3.5 19q2 14 14.5 19t41.5 5l380 1q43 0 56 -6t17 -27q11 -49 11 -105z" />
    <glyph glyph-name="eogonek" unicode="&#x119;" horiz-adv-x="528" 
d="M439 138q16 14 27 6t0 -28q-20 -38 -69 -74.5t-113 -47.5q-38 -43 -38 -83q0 -24 14 -38t40 -14q17 0 39 9q16 7 21 -2.5t-5 -19.5q-31 -31 -84 -31q-42 0 -70 22t-28 59q0 51 59 94q-86 2 -141 55.5t-55 148.5q0 70 36 137t106.5 113t158.5 46q64 0 106 -30t42 -84
q0 -47 -27.5 -85t-75.5 -63t-103 -41t-119 -25q14 -41 47 -66t77 -25q78 0 155 67zM303 437q-63 0 -108 -59t-45 -140q0 -26 29 -21q85 13 144.5 49t59.5 94q0 33 -22 55t-58 22z" />
    <glyph glyph-name="Ecaron" unicode="&#x11a;" horiz-adv-x="632" 
d="M352 755q-7 -1 -17 -1t-16.5 1.5t-14 7.5t-11.5 9.5t-16 18t-19 22.5q-4 5 -10.5 12.5t-10 11.5t-8 9.5t-7 9t-5 7.5t-3.5 6.5t-1 4.5q2 14 17 15q21 1 58.5 -14.5t59.5 -33.5q27 18 68.5 33.5t61.5 14.5q15 -1 13 -15q-1 -3 -4 -7.5t-10 -11t-13 -12t-17.5 -15
t-19.5 -16.5q-12 -10 -27 -23.5t-20 -17.5t-13.5 -9.5t-14.5 -6.5zM463 0h-393q-29 0 -40 5t-9 19q2 12 9 19t17 12t20.5 13.5t20 30t14.5 54.5l55 394q5 37 1.5 55.5t-11.5 29t-16.5 14.5t-14 11t-3.5 19q2 14 14.5 19t41.5 5l380 1q43 0 56 -6t17 -27q11 -49 11 -105
q2 -37 -19 -43q-14 -4 -22.5 3t-17.5 28q-21 49 -53 72t-86 23h-45q-63 0 -84 -10t-25 -36l-15 -111q-4 -32 13 -40.5t67 -8.5q42 0 65 8t33.5 16.5t22.5 8.5q21 0 24 -31l7 -99q3 -27 -1.5 -36.5t-17.5 -13.5q-14 -3 -26 10.5t-21 32t-33.5 35t-59.5 16.5q-51 0 -70.5 -8.5
t-24.5 -40.5l-33 -236q-4 -27 14.5 -38t83.5 -10l72 1q54 0 81 21.5t61 77.5q26 43 48 39q12 -3 14 -13.5t-2 -26.5q-14 -70 -32 -115q-9 -21 -26 -29.5t-62 -8.5z" />
    <glyph glyph-name="ecaron" unicode="&#x11b;" horiz-adv-x="528" 
d="M310 558q-24 0 -35 11t-35 51q-36 59 -36 74q3 14 17 15q40 1 100 -69q79 70 120 69q15 -1 12 -15q-1 -6 -59 -78q-4 -5 -12 -14.5t-10.5 -12.5t-8.5 -9.5t-8 -8t-7 -5t-8 -4t-8 -2.5t-10 -2h-12zM439 138q16 14 27 6t0 -28q-24 -46 -86 -86t-141 -40q-89 0 -146 53.5
t-57 150.5q0 70 36 137t106.5 113t158.5 46q64 0 106 -30t42 -84q0 -47 -27.5 -85t-75.5 -63t-103 -41t-119 -25q14 -41 47 -66t77 -25q78 0 155 67zM303 437q-63 0 -108 -59t-45 -140q0 -26 29 -21q85 13 144.5 49t59.5 94q0 33 -22 55t-58 22z" />
    <glyph glyph-name="Gbreve" unicode="&#x11e;" horiz-adv-x="748" 
d="M467 756q-60 0 -90.5 34.5t-24.5 85.5q2 26 18 26q9 0 16 -12q31 -54 93 -54q61 0 108 54q12 12 18 12q16 0 11 -26q-8 -51 -49.5 -85.5t-99.5 -34.5zM354 -10q-159 0 -241 96.5t-61 247.5q23 159 142 267.5t275 108.5q41 0 81.5 -7.5t47.5 -7.5q13 0 27 6.5t22 6.5
q15 0 23 -11t10 -41q6 -67 5 -134q-2 -39 -24 -40q-13 -1 -21 8t-20 31q-16 29 -28 47t-34 39t-53 31.5t-72 10.5q-99 0 -168 -74.5t-85 -181.5q-20 -148 36.5 -243t174.5 -95q52 0 98.5 20t51.5 53l14 99q4 30 -9.5 48t-32.5 23t-34 14t-13 23q2 13 14.5 18.5t41.5 5.5
l165 1q19 0 28.5 -5.5t7.5 -18.5q-2 -12 -9 -20t-14.5 -13.5t-16 -24.5t-12.5 -50l-13 -94q-6 -52 -99 -98t-205 -46z" />
    <glyph glyph-name="gbreve" unicode="&#x11f;" horiz-adv-x="541" 
d="M307 536q-60 0 -90.5 34.5t-24.5 85.5q2 26 18 26q9 0 16 -12q31 -54 93 -54q61 0 108 54q12 12 18 12q16 0 11 -26q-8 -51 -49.5 -85.5t-99.5 -34.5zM507 563q15 0 25.5 -11t9.5 -28q-1 -30 -28 -50.5t-65 -28.5q49 -40 49 -104q0 -86 -70 -142t-172 -56q-56 0 -98 15
q-32 -16 -35 -40q-6 -55 106 -55q30 0 86 4t73 4q70 0 104 -30t26 -80q-11 -77 -94.5 -124.5t-216.5 -47.5q-96 0 -156.5 30.5t-51.5 92.5q3 25 23.5 48.5t53.5 37.5q-58 29 -50 87q3 27 26.5 51.5t67.5 40.5q-61 39 -61 110q0 82 74.5 142t175.5 60h1q20 0 40.5 -2t29.5 -2
q40 0 87 55q21 23 40 23zM271 190q51 0 83 43.5t32 99.5q0 47 -24 78.5t-68 31.5q-52 0 -86 -43.5t-34 -101.5q0 -47 25.5 -77.5t71.5 -30.5zM178 -27q-29 0 -53 -14.5t-28 -41.5q-5 -37 33.5 -57.5t108.5 -20.5q74 0 119 22t50 62q4 25 -12.5 41t-61.5 14q-126 -5 -156 -5z
" />
    <glyph glyph-name="Gdotaccent" unicode="&#x120;" horiz-adv-x="748" 
d="M443 775q-25 1 -40 16.5t-13 38.5q1 32 31.5 59.5t64.5 24.5q23 -1 39 -17.5t15 -39.5q-1 -31 -32 -57.5t-65 -24.5zM354 -10q-159 0 -241 96.5t-61 247.5q23 159 142 267.5t275 108.5q41 0 81.5 -7.5t47.5 -7.5q13 0 27 6.5t22 6.5q15 0 23 -11t10 -41q6 -67 5 -134
q-2 -39 -24 -40q-13 -1 -21 8t-20 31q-16 29 -28 47t-34 39t-53 31.5t-72 10.5q-99 0 -168 -74.5t-85 -181.5q-20 -148 36.5 -243t174.5 -95q52 0 98.5 20t51.5 53l14 99q4 30 -9.5 48t-32.5 23t-34 14t-13 23q2 13 14.5 18.5t41.5 5.5l165 1q19 0 28.5 -5.5t7.5 -18.5
q-2 -12 -9 -20t-14.5 -13.5t-16 -24.5t-12.5 -50l-13 -94q-6 -52 -99 -98t-205 -46z" />
    <glyph glyph-name="gdotaccent" unicode="&#x121;" horiz-adv-x="541" 
d="M306 555q-25 1 -40 16.5t-13 38.5q1 32 31.5 59.5t64.5 24.5q23 -1 39 -17.5t15 -39.5q-1 -31 -32 -57.5t-65 -24.5zM507 563q15 0 25.5 -11t9.5 -28q-1 -30 -28 -50.5t-65 -28.5q49 -40 49 -104q0 -86 -70 -142t-172 -56q-56 0 -98 15q-32 -16 -35 -40q-6 -55 106 -55
q30 0 86 4t73 4q70 0 104 -30t26 -80q-11 -77 -94.5 -124.5t-216.5 -47.5q-96 0 -156.5 30.5t-51.5 92.5q3 25 23.5 48.5t53.5 37.5q-58 29 -50 87q3 27 26.5 51.5t67.5 40.5q-61 39 -61 110q0 82 74.5 142t175.5 60h1q20 0 40.5 -2t29.5 -2q40 0 87 55q21 23 40 23z
M271 190q51 0 83 43.5t32 99.5q0 47 -24 78.5t-68 31.5q-52 0 -86 -43.5t-34 -101.5q0 -47 25.5 -77.5t71.5 -30.5zM178 -27q-29 0 -53 -14.5t-28 -41.5q-5 -37 33.5 -57.5t108.5 -20.5q74 0 119 22t50 62q4 25 -12.5 41t-61.5 14q-126 -5 -156 -5z" />
    <glyph glyph-name="uni0122" unicode="&#x122;" horiz-adv-x="748" 
d="M354 -10q-159 0 -241 96.5t-61 247.5q23 159 142 267.5t275 108.5q41 0 81.5 -7.5t47.5 -7.5q13 0 27 6.5t22 6.5q15 0 23 -11t10 -41q6 -67 5 -134q-2 -39 -24 -40q-13 -1 -21 8t-20 31q-16 29 -28 47t-34 39t-53 31.5t-72 10.5q-99 0 -168 -74.5t-85 -181.5
q-20 -148 36.5 -243t174.5 -95q52 0 98.5 20t51.5 53l14 99q4 30 -9.5 48t-32.5 23t-34 14t-13 23q2 13 14.5 18.5t41.5 5.5l165 1q19 0 28.5 -5.5t7.5 -18.5q-2 -12 -9 -20t-14.5 -13.5t-16 -24.5t-12.5 -50l-13 -94q-6 -52 -99 -98t-205 -46zM322 -275q-14 0 -14 10
q0 6 20.5 28.5t20.5 41.5q0 12 -18 35t-18 46q0 29 19 46.5t42 17.5q26 0 43 -18t17 -48q0 -60 -40.5 -109.5t-71.5 -49.5z" />
    <glyph glyph-name="uni0123" unicode="&#x123;" horiz-adv-x="541" 
d="M311 524q-27 0 -42 18t-10 52q8 59 56 102q25 23 40 17q9 -3 0 -12q-22 -22 -25 -40q-3 -16 18 -33q29 -21 25 -50q-4 -23 -21.5 -38.5t-40.5 -15.5zM507 563q15 0 25.5 -11t9.5 -28q-1 -30 -28 -50.5t-65 -28.5q49 -40 49 -104q0 -86 -70 -142t-172 -56q-56 0 -98 15
q-32 -16 -35 -40q-6 -55 106 -55q30 0 86 4t73 4q70 0 104 -30t26 -80q-11 -77 -94.5 -124.5t-216.5 -47.5q-96 0 -156.5 30.5t-51.5 92.5q3 25 23.5 48.5t53.5 37.5q-58 29 -50 87q3 27 26.5 51.5t67.5 40.5q-61 39 -61 110q0 82 74.5 142t175.5 60h1q20 0 40.5 -2t29.5 -2
q40 0 87 55q21 23 40 23zM271 190q51 0 83 43.5t32 99.5q0 47 -24 78.5t-68 31.5q-52 0 -86 -43.5t-34 -101.5q0 -47 25.5 -77.5t71.5 -30.5zM178 -27q-29 0 -53 -14.5t-28 -41.5q-5 -37 33.5 -57.5t108.5 -20.5q74 0 119 22t50 62q4 25 -12.5 41t-61.5 14q-126 -5 -156 -5z
" />
    <glyph glyph-name="Hbar" unicode="&#x126;" horiz-adv-x="818" 
d="M643 700h134q28 0 39.5 -5.5t10.5 -18.5q-2 -15 -16.5 -23.5t-31.5 -22t-24 -39.5q-7 -20 -8 -34l-2 -11h49q22 0 22 -22v-9q0 -23 -22 -23h-56l-48 -349q-3 -17 -3 -34q1 -21 9 -34t17 -17.5t15.5 -12.5t4.5 -21q-1 -13 -14 -18.5t-42 -5.5h-134q-28 0 -39.5 5.5
t-10.5 18.5q2 12 11 20.5t20 13.5t23 18t18 33q7 20 8 34l21 153q4 31 -5 38q-14 11 -118 11h-45q-143 0 -165 -8q-17 -6 -21 -30l-2 -11l-21 -153q-2 -22 -2 -34q0 -21 8 -34t17 -17.5t16 -12.5t5 -21q-4 -24 -56 -24h-135q-28 0 -39 5.5t-10 18.5q2 15 16 23.5t31 22.5
t24 39q6 19 9 34l48 349h-34q-22 0 -22 23v9q0 22 22 22h41l2 11q2 22 2 34q0 21 -8 34t-17 17.5t-15.5 12.5t-4.5 21q1 13 13.5 18.5t41.5 5.5h135q28 0 39 -5.5t10 -18.5q-2 -15 -16 -23.5t-31 -22t-24 -39.5q-7 -20 -8 -34l-2 -11h355l2 11q3 16 3 34q-1 21 -9 34
t-17 17.5t-15.5 12.5t-4.5 21q1 13 14 18.5t42 5.5zM615 448l6 44h-355l-6 -44q-4 -30 5 -37q14 -12 120 -12h50q137 0 158 8q17 6 21 32q0 3 1 9z" />
    <glyph glyph-name="hbar" unicode="&#x127;" horiz-adv-x="627" 
d="M569 100q14 0 13 -17q-2 -32 -34 -61.5t-78 -29.5q-82 0 -74 110l13 202q3 54 -9.5 81.5t-49.5 27.5q-53 0 -105.5 -78.5t-73.5 -206.5l-17 -100q-3 -18 -24 -24l-63 -14q-14 -3 -21 5t-5 21l72 485h-50q-22 0 -22 24t22 24h58l4 29q3 18 -3 29.5t-15 15t-16.5 9.5
t-7.5 15q0 21 63 45q48 20 83 20q26 0 22 -26l-21 -137h40q22 0 22 -24t-22 -24h-48l-22 -148q78 135 195 135q69 0 100 -46t25 -132l-11 -197q-2 -22 1 -31.5t15 -9.5q10 0 24 14t20 14z" />
    <glyph glyph-name="Imacron" unicode="&#x12a;" horiz-adv-x="345" 
d="M343 773h-226q-23 0 -28 5.5t-3 22.5q2 19 8.5 24.5t30.5 5.5h226q24 0 30 -5.5t4 -21.5q-2 -20 -9.5 -25.5t-32.5 -5.5zM205 0h-135q-28 0 -39 5.5t-10 18.5q2 15 16 23.5t31 22.5t24 39q6 19 9 34l57 414q2 22 2 34q0 21 -8 34t-17 17.5t-15.5 12.5t-4.5 21
q1 13 13.5 18.5t41.5 5.5h135q28 0 39 -5.5t10 -18.5q-2 -15 -16 -23.5t-31 -22t-24 -39.5q-7 -20 -8 -34l-58 -414q-2 -22 -2 -34q0 -21 8 -34t17 -17.5t16 -12.5t5 -21q-4 -24 -56 -24z" />
    <glyph glyph-name="imacron" unicode="&#x12b;" horiz-adv-x="298" 
d="M273 553h-227q-22 0 -27 6t0 22q6 19 13 24.5t30 5.5h227q24 0 29.5 -6t-0.5 -21q-5 -20 -12.5 -25.5t-32.5 -5.5zM131 -8q-43 0 -62.5 28.5t-11.5 80.5l37 247q3 19 -2 31t-12.5 16.5t-14.5 11.5t-7 16q0 22 63 45q57 20 77 20q26 0 22 -27l-50 -348q-6 -41 17 -41
q10 0 24.5 14t20.5 14q13 0 13 -17q-3 -33 -35 -62t-79 -29z" />
    <glyph glyph-name="Iogonek" unicode="&#x12e;" horiz-adv-x="345" 
d="M170 700h135q28 0 39 -5.5t10 -18.5q-2 -15 -16 -23.5t-31 -22t-24 -39.5q-7 -20 -8 -34l-58 -414q-2 -22 -2 -34q0 -21 8 -34t17 -17.5t16 -12.5t5 -21q-3 -18 -26 -22q-45 -48 -45 -91q0 -24 14 -38t40 -14q17 0 39 9q16 7 21 -2.5t-5 -19.5q-31 -31 -84 -31
q-42 0 -70 22t-28 59q0 56 73 104h-120q-28 0 -39 5.5t-10 18.5q2 15 16 23.5t31 22.5t24 39q6 19 9 34l57 414q2 22 2 34q0 21 -8 34t-17 17.5t-15.5 12.5t-4.5 21q1 13 13.5 18.5t41.5 5.5z" />
    <glyph glyph-name="iogonek" unicode="&#x12f;" horiz-adv-x="298" 
d="M162 555q-25 1 -40 16.5t-13 38.5q1 32 31.5 59.5t64.5 24.5q23 -1 39 -17.5t15 -39.5q-1 -31 -32 -57.5t-65 -24.5zM237 -124q16 7 21 -2.5t-5 -19.5q-31 -31 -84 -31q-42 0 -70 22t-28 59q0 47 51 88q-38 3 -55 31.5t-10 77.5l37 247q3 19 -2 31t-12.5 16.5t-14.5 11.5
t-7 16q0 22 63 45q57 20 77 20q26 0 22 -27l-50 -348q-6 -41 17 -41q10 0 24.5 14t20.5 14q13 0 13 -17q-2 -22 -18.5 -44.5t-42.5 -34.5q-40 -46 -40 -85q0 -24 14 -38t40 -14q17 0 39 9z" />
    <glyph glyph-name="Idotaccent" unicode="&#x130;" horiz-adv-x="345" 
d="M220 775q-25 1 -40 16.5t-13 38.5q1 32 31.5 59.5t64.5 24.5q23 -1 39 -17.5t15 -39.5q-1 -31 -32 -57.5t-65 -24.5zM205 0h-135q-28 0 -39 5.5t-10 18.5q2 15 16 23.5t31 22.5t24 39q6 19 9 34l57 414q2 22 2 34q0 21 -8 34t-17 17.5t-15.5 12.5t-4.5 21q1 13 13.5 18.5
t41.5 5.5h135q28 0 39 -5.5t10 -18.5q-2 -15 -16 -23.5t-31 -22t-24 -39.5q-7 -20 -8 -34l-58 -414q-2 -22 -2 -34q0 -21 8 -34t17 -17.5t16 -12.5t5 -21q-4 -24 -56 -24z" />
    <glyph glyph-name="dotlessi" unicode="&#x131;" horiz-adv-x="298" 
d="M131 -8q-43 0 -62.5 28.5t-11.5 80.5l37 247q3 19 -2 31t-12.5 16.5t-14.5 11.5t-7 16q0 22 63 45q57 20 77 20q26 0 22 -27l-50 -348q-6 -41 17 -41q10 0 24.5 14t20.5 14q13 0 13 -17q-3 -33 -35 -62t-79 -29z" />
    <glyph glyph-name="uni0136" unicode="&#x136;" horiz-adv-x="710" 
d="M569 700h114q28 0 40 -5.5t10 -18.5q-2 -17 -14.5 -23.5t-44.5 -20.5t-64 -41l-95 -79l121 -389q8 -26 21.5 -42.5t24 -22t17.5 -13.5t5 -21q-4 -24 -48 -24h-131q-29 0 -40.5 5.5t-9.5 20.5q1 11 15.5 24t21 24.5t-0.5 45.5l-93 314l-182 -150l-19 -140
q-5 -34 1.5 -54.5t17 -26t19 -14.5t6.5 -24q-4 -24 -57 -24h-134q-28 0 -39.5 5.5t-9.5 18.5q2 14 13 24t23.5 17t25.5 27t17 51l58 412q4 28 0 46.5t-12 26.5t-16 13t-13 13t-3 20q2 14 14 19t42 5h134q29 0 40 -5t10 -19q-2 -13 -13.5 -23.5t-24 -17.5t-25.5 -27t-17 -51
l-27 -196l281 231q22 19 26 31.5t-4 18t-16.5 14.5t-6.5 20q4 25 42 25zM367 -50q26 0 43 -18t17 -48q0 -60 -40.5 -109.5t-71.5 -49.5q-14 0 -14 10q0 6 20.5 28.5t20.5 41.5q0 12 -18 35t-18 46q0 29 19 46.5t42 17.5z" />
    <glyph glyph-name="uni0137" unicode="&#x137;" horiz-adv-x="555" 
d="M501 92q13 0 13 -17q0 -27 -31 -56t-76 -29q-111 0 -166 205q-23 -5 -61 -10l-22 -157q-3 -18 -25 -24l-63 -14q-14 -3 -21 5t-5 21l81 562q3 18 -3 29.5t-15 15t-16.5 9.5t-7.5 15q0 21 63 45q48 20 83 20q25 0 22 -26l-42 -296q77 99 181 99q47 0 79.5 -25t32.5 -71
q0 -114 -173 -175q23 -56 58.5 -103t69.5 -47q11 0 24.5 12t19.5 12zM189 249l-2 -14q86 6 147.5 41t62.5 84q0 23 -16.5 39t-44.5 16q-49 0 -92 -52t-55 -114zM257 -50q26 0 43 -18t17 -48q0 -60 -40.5 -109.5t-71.5 -49.5q-14 0 -14 10q0 6 20.5 28.5t20.5 41.5
q0 12 -18 35t-18 46q0 29 19 46.5t42 17.5z" />
    <glyph glyph-name="Lacute" unicode="&#x139;" horiz-adv-x="578" 
d="M216 760q-29 4 -27 19t66 77q23 21 32.5 29t24.5 15t27 5q17 -3 28.5 -19t7.5 -36q-5 -36 -62 -66t-97 -24zM424 0h-354q-28 0 -39.5 5.5t-9.5 18.5q2 15 16 23.5t31 22.5t24 39q6 19 10 44l56 403q2 24 2 34q0 21 -8 34.5t-17.5 17.5t-16 12t-4.5 21q2 14 14.5 19
t41.5 5h135q28 0 39 -5t10 -19q-2 -12 -11 -20t-20 -13t-23 -18.5t-18 -33.5q-6 -22 -7 -34l-64 -454q-4 -27 11 -38t65 -10l58 1q37 0 63 12.5t39 28t37 52.5t43 37q21 0 14 -38q-11 -63 -30 -109q-9 -21 -26 -29.5t-61 -8.5z" />
    <glyph glyph-name="lacute" unicode="&#x13a;" horiz-adv-x="287" 
d="M173 763q-17 5 -12 20q7 19 70 75q52 43 75 43q26 0 38 -20t3 -45q-13 -35 -76 -60.5t-98 -12.5zM132 -8q-94 0 -78 109l67 473q3 23 -6.5 35t-20.5 19t-11 17q0 11 12 21t50 24q54 20 83 20q25 0 22 -27l-82 -570q-6 -41 16 -41q10 0 24.5 14t20.5 14q13 0 13 -17
q-2 -32 -34 -61.5t-76 -29.5z" />
    <glyph glyph-name="uni013B" unicode="&#x13b;" horiz-adv-x="578" 
d="M424 0h-354q-28 0 -39.5 5.5t-9.5 18.5q2 15 16 23.5t31 22.5t24 39q6 19 10 44l56 403q2 24 2 34q0 21 -8 34.5t-17.5 17.5t-16 12t-4.5 21q2 14 14.5 19t41.5 5h135q28 0 39 -5t10 -19q-2 -12 -11 -20t-20 -13t-23 -18.5t-18 -33.5q-6 -22 -7 -34l-64 -454
q-4 -27 11 -38t65 -10l58 1q37 0 63 12.5t39 28t37 52.5t43 37q21 0 14 -38q-11 -63 -30 -109q-9 -21 -26 -29.5t-61 -8.5zM240 -275q-14 0 -14 10q0 6 20.5 28.5t20.5 41.5q0 12 -18 35t-18 46q0 29 19 46.5t42 17.5q26 0 43 -18t17 -48q0 -60 -40.5 -109.5t-71.5 -49.5z
" />
    <glyph glyph-name="uni013C" unicode="&#x13c;" horiz-adv-x="287" 
d="M132 -8q-94 0 -78 109l67 473q3 23 -6.5 35t-20.5 19t-11 17q0 11 12 21t50 24q54 20 83 20q25 0 22 -27l-82 -570q-6 -41 16 -41q10 0 24.5 14t20.5 14q13 0 13 -17q-2 -32 -34 -61.5t-76 -29.5zM54 -280q-14 0 -14 10q0 6 20.5 28.5t20.5 41.5q0 12 -18 35t-18 46
q0 29 19 46.5t42 17.5q26 0 43 -18t17 -48q0 -60 -40.5 -109.5t-71.5 -49.5z" />
    <glyph glyph-name="Lcaron" unicode="&#x13d;" horiz-adv-x="578" 
d="M393 478q-18 0 -13 19q5 21 19.5 84.5t16.5 70.5q13 52 53 52q19 0 29.5 -13t7.5 -36q-6 -36 -48.5 -106.5t-64.5 -70.5zM424 0h-354q-28 0 -39.5 5.5t-9.5 18.5q2 15 16 23.5t31 22.5t24 39q6 19 10 44l56 403q2 24 2 34q0 21 -8 34.5t-17.5 17.5t-16 12t-4.5 21
q2 14 14.5 19t41.5 5h135q28 0 39 -5t10 -19q-2 -12 -11 -20t-20 -13t-23 -18.5t-18 -33.5q-6 -22 -7 -34l-64 -454q-4 -27 11 -38t65 -10l58 1q37 0 63 12.5t39 28t37 52.5t43 37q21 0 14 -38q-11 -63 -30 -109q-9 -21 -26 -29.5t-61 -8.5z" />
    <glyph glyph-name="lcaron" unicode="&#x13e;" horiz-adv-x="287" 
d="M132 -8q-94 0 -78 109l67 473q3 23 -6.5 35t-20.5 19t-11 17q0 11 12 21t50 24q54 20 83 20q25 0 22 -27l-82 -570q-6 -41 16 -41q10 0 24.5 14t20.5 14q13 0 13 -17q-2 -32 -34 -61.5t-76 -29.5zM315 465q-17 0 -14 19q4 16 12.5 53t15 66.5t8.5 34.5q13 53 54 53
q19 0 29 -13t7 -36q-5 -35 -48 -106t-64 -71z" />
    <glyph glyph-name="Lslash" unicode="&#x141;" horiz-adv-x="578" 
d="M527 185q21 0 14 -38q-11 -63 -30 -109q-9 -21 -26 -29.5t-61 -8.5h-354q-28 0 -39.5 5.5t-9.5 18.5q2 15 16 23.5t31 22.5t24 39q6 19 10 44l18 130l-38 -22q-19 -12 -31 12q-14 21 6 33l72 42l29 208q2 24 2 34q0 21 -8 34.5t-17.5 17.5t-16 12t-4.5 21q2 14 14.5 19
t41.5 5h135q28 0 39 -5t10 -19q-2 -12 -11 -20t-20 -13t-23 -18.5t-18 -33.5q-6 -22 -7 -34l-19 -135l37 21q19 12 32 -11q12 -22 -7 -34l-71 -41l-36 -254q-4 -27 11 -38t65 -10l58 1q37 0 63 12.5t39 28t37 52.5t43 37z" />
    <glyph glyph-name="lslash" unicode="&#x142;" horiz-adv-x="287" 
d="M280 410q12 -22 -7 -34l-73 -42l-32 -221q-6 -41 16 -41q10 0 24.5 14t20.5 14q13 0 13 -17q-2 -32 -34 -61.5t-76 -29.5q-94 0 -78 109l23 162l-40 -23q-19 -12 -31 12q-14 21 6 33l74 43l35 246q3 23 -6.5 35t-20.5 19t-11 17q0 11 12 21t50 24q54 20 83 20
q25 0 22 -27l-41 -284l39 22q19 12 32 -11z" />
    <glyph glyph-name="Nacute" unicode="&#x143;" horiz-adv-x="758" 
d="M402 760q-29 4 -27 19t66 77q23 21 32.5 29t24.5 15t27 5q17 -3 28.5 -19t7.5 -36q-5 -36 -62 -66t-97 -24zM116 0h-78q-24 0 -34 5t-8 19q1 11 10.5 19t20.5 14.5t22 23t15 41.5l59 428q4 35 0.5 53t-11.5 28.5t-16.5 15t-14 11.5t-3.5 18q4 24 56 24h63q22 0 37 -20
l361 -453l48 351q3 25 -3 41.5t-15 23t-16 15t-6 19.5q2 14 13 18.5t36 4.5h78q24 0 34 -5t8 -19q-1 -10 -10.5 -18.5t-20.5 -14.5t-22 -23t-14 -42l-77 -549q-4 -29 -25 -29h-15q-24 0 -20 27q4 34 -20 64l-366 454l-57 -423q-3 -25 3 -41.5t15 -23t16 -15t6 -19.5
q-2 -14 -13 -18.5t-36 -4.5z" />
    <glyph glyph-name="nacute" unicode="&#x144;" horiz-adv-x="631" 
d="M274 543q-17 5 -12 20q7 19 70 75q52 43 75 43q26 0 38 -20t3 -45q-13 -35 -76 -60.5t-98 -12.5zM573 100q14 0 13 -17q-2 -32 -34 -61.5t-78 -29.5q-82 0 -74 110l13 202q3 54 -9.5 81.5t-49.5 27.5q-53 0 -105 -78t-74 -207l-17 -94q-3 -21 -22 -25l-67 -17
q-12 -3 -18.5 4t-4.5 20l48 332q3 19 -2 31t-13 16t-14.5 10t-6.5 15q0 12 12 21.5t50 25.5q47 20 72 20q26 0 22 -26l-18 -118q81 145 203 145q69 0 100 -46t25 -132l-11 -197q-2 -22 1 -31.5t15 -9.5q10 0 24 14t20 14z" />
    <glyph glyph-name="uni0145" unicode="&#x145;" horiz-adv-x="758" 
d="M116 0h-78q-24 0 -34 5t-8 19q1 11 10.5 19t20.5 14.5t22 23t15 41.5l59 428q4 35 0.5 53t-11.5 28.5t-16.5 15t-14 11.5t-3.5 18q4 24 56 24h63q22 0 37 -20l361 -453l48 351q3 25 -3 41.5t-15 23t-16 15t-6 19.5q2 14 13 18.5t36 4.5h78q24 0 34 -5t8 -19
q-1 -10 -10.5 -18.5t-20.5 -14.5t-22 -23t-14 -42l-77 -549q-4 -29 -25 -29h-15q-24 0 -20 27q4 34 -20 64l-366 454l-57 -423q-3 -25 3 -41.5t15 -23t16 -15t6 -19.5q-2 -14 -13 -18.5t-36 -4.5zM288 -275q-14 0 -14 10q0 6 20.5 28.5t20.5 41.5q0 12 -18 35t-18 46
q0 29 19 46.5t42 17.5q26 0 43 -18t17 -48q0 -60 -40.5 -109.5t-71.5 -49.5z" />
    <glyph glyph-name="uni0146" unicode="&#x146;" horiz-adv-x="631" 
d="M573 100q14 0 13 -17q-2 -32 -34 -61.5t-78 -29.5q-82 0 -74 110l13 202q3 54 -9.5 81.5t-49.5 27.5q-53 0 -105 -78t-74 -207l-17 -94q-3 -21 -22 -25l-67 -17q-12 -3 -18.5 4t-4.5 20l48 332q3 19 -2 31t-13 16t-14.5 10t-6.5 15q0 12 12 21.5t50 25.5q47 20 72 20
q26 0 22 -26l-18 -118q81 145 203 145q69 0 100 -46t25 -132l-11 -197q-2 -22 1 -31.5t15 -9.5q10 0 24 14t20 14zM279 -50q26 0 43 -18t17 -48q0 -60 -40.5 -109.5t-71.5 -49.5q-14 0 -14 10q0 6 20.5 28.5t20.5 41.5q0 12 -18 35t-18 46q0 29 19 46.5t42 17.5z" />
    <glyph glyph-name="Ncaron" unicode="&#x147;" horiz-adv-x="758" 
d="M457 755q-7 -1 -17 -1t-16.5 1.5t-14 7.5t-11.5 9.5t-16 18t-19 22.5q-4 5 -10.5 12.5t-10 11.5t-8 9.5t-7 9t-5 7.5t-3.5 6.5t-1 4.5q2 14 17 15q21 1 58.5 -14.5t59.5 -33.5q27 18 68.5 33.5t61.5 14.5q15 -1 13 -15q-1 -3 -4 -7.5t-10 -11t-13 -12t-17.5 -15
t-19.5 -16.5q-12 -10 -27 -23.5t-20 -17.5t-13.5 -9.5t-14.5 -6.5zM116 0h-78q-24 0 -34 5t-8 19q1 11 10.5 19t20.5 14.5t22 23t15 41.5l59 428q4 35 0.5 53t-11.5 28.5t-16.5 15t-14 11.5t-3.5 18q4 24 56 24h63q22 0 37 -20l361 -453l48 351q3 25 -3 41.5t-15 23t-16 15
t-6 19.5q2 14 13 18.5t36 4.5h78q24 0 34 -5t8 -19q-1 -10 -10.5 -18.5t-20.5 -14.5t-22 -23t-14 -42l-77 -549q-4 -29 -25 -29h-15q-24 0 -20 27q4 34 -20 64l-366 454l-57 -423q-3 -25 3 -41.5t15 -23t16 -15t6 -19.5q-2 -14 -13 -18.5t-36 -4.5z" />
    <glyph glyph-name="ncaron" unicode="&#x148;" horiz-adv-x="631" 
d="M331 556q-24 0 -35 11t-35 51q-36 59 -36 74q3 14 17 15q40 1 100 -69q79 70 120 69q15 -1 12 -15q-1 -3 -4 -8.5t-9.5 -14t-13 -16t-16 -19.5t-16.5 -20q-4 -5 -12 -14.5t-10.5 -12.5t-8.5 -9.5t-8 -8t-7 -5t-8 -4t-8 -2.5t-10 -2h-12zM573 100q14 0 13 -17
q-2 -32 -34 -61.5t-78 -29.5q-82 0 -74 110l13 202q3 54 -9.5 81.5t-49.5 27.5q-53 0 -105 -78t-74 -207l-17 -94q-3 -21 -22 -25l-67 -17q-12 -3 -18.5 4t-4.5 20l48 332q3 19 -2 31t-13 16t-14.5 10t-6.5 15q0 12 12 21.5t50 25.5q47 20 72 20q26 0 22 -26l-18 -118
q81 145 203 145q69 0 100 -46t25 -132l-11 -197q-2 -22 1 -31.5t15 -9.5q10 0 24 14t20 14z" />
    <glyph glyph-name="Omacron" unicode="&#x14c;" horiz-adv-x="776" 
d="M561 773h-226q-23 0 -28 5.5t-3 22.5q2 19 8.5 24.5t30.5 5.5h226q24 0 30 -5.5t4 -21.5q-2 -20 -9.5 -25.5t-32.5 -5.5zM354 -7q-128 2 -215.5 86.5t-87.5 216.5q0 110 53.5 205t147 151t205.5 56q139 0 219.5 -86t80.5 -212q0 -177 -115.5 -299t-287.5 -118zM388 56
q111 0 176.5 103t65.5 240q0 113 -51 181.5t-142 68.5q-113 0 -187 -103t-74 -240q0 -114 57 -182t155 -68z" />
    <glyph glyph-name="omacron" unicode="&#x14d;" horiz-adv-x="579" 
d="M440 553h-227q-22 0 -27 6t0 22q6 19 13 24.5t30 5.5h227q24 0 29.5 -6t-0.5 -21q-5 -20 -12.5 -25.5t-32.5 -5.5zM254 -10q-98 0 -157.5 57t-59.5 149q0 119 87 206.5t206 87.5q98 0 155 -57.5t57 -143.5q0 -126 -83.5 -212.5t-204.5 -86.5zM266 44q68 0 109 75.5
t41 167.5q0 66 -24 108t-76 42q-72 0 -115.5 -74t-44.5 -162q1 -70 28 -113.5t82 -43.5z" />
    <glyph glyph-name="Ohungarumlaut" unicode="&#x150;" horiz-adv-x="776" 
d="M323 762q-36 0 -36 15q0 17 71 75q56 45 78 45q18 0 32.5 -13t14.5 -28q0 -33 -58 -63.5t-102 -30.5zM517 760q-37 2 -35 17q1 18 74 71q58 42 80 41q19 -1 32.5 -14.5t12.5 -28.5q-2 -33 -61 -60.5t-103 -25.5zM354 -7q-128 2 -215.5 86.5t-87.5 216.5q0 110 53.5 205
t147 151t205.5 56q139 0 219.5 -86t80.5 -212q0 -177 -115.5 -299t-287.5 -118zM388 56q111 0 176.5 103t65.5 240q0 113 -51 181.5t-142 68.5q-113 0 -187 -103t-74 -240q0 -114 57 -182t155 -68z" />
    <glyph glyph-name="ohungarumlaut" unicode="&#x151;" horiz-adv-x="579" 
d="M251 538q-16 0 -16 14q0 15 35 83q19 33 32 47.5t30 14.5t29.5 -12t12.5 -33q0 -32 -45 -73t-78 -41zM401 537q-18 0 -18 14q0 15 40 82q15 22 22.5 31.5t19 18.5t22.5 9q17 0 29 -12t12 -32q0 -32 -46 -71.5t-81 -39.5zM254 -10q-98 0 -157.5 57t-59.5 149
q0 119 87 206.5t206 87.5q98 0 155 -57.5t57 -143.5q0 -126 -83.5 -212.5t-204.5 -86.5zM266 44q68 0 109 75.5t41 167.5q0 66 -24 108t-76 42q-72 0 -115.5 -74t-44.5 -162q1 -70 28 -113.5t82 -43.5z" />
    <glyph glyph-name="OE" unicode="&#x152;" horiz-adv-x="1142" 
d="M1143 563q2 -37 -19 -43q-14 -4 -22.5 3t-17.5 28q-21 49 -53 72t-86 23h-45q-63 0 -84.5 -10t-24.5 -36l-15 -111q-4 -32 13 -40.5t67 -8.5q42 0 65 8t33.5 16.5t22.5 8.5q21 0 24 -31l7 -99q2 -27 -2 -36.5t-17 -13.5q-14 -3 -26 10.5t-21 32t-33.5 35t-59.5 16.5
q-51 0 -70.5 -8.5t-24.5 -40.5l-33 -236q-3 -28 15 -38.5t83 -9.5l72 1q54 0 81 21.5t61 77.5q26 43 48 39q12 -3 14 -13.5t-2 -26.5q-14 -70 -32 -115q-9 -21 -26 -29.5t-62 -8.5h-346q-17 0 -27.5 12t-7.5 30l4 28q-104 -80 -242 -77q-128 2 -215.5 86.5t-87.5 216.5
q0 110 53.5 205t147 151t205.5 56q135 0 217 -84l7 48q1 13 10.5 20.5t22.5 7.5l345 1q43 0 56 -6t17 -27q11 -50 11 -105zM388 56q111 0 176.5 103t65.5 240q0 113 -51 181.5t-142 68.5q-113 0 -187 -103t-74 -240q0 -114 57 -182t155 -68z" />
    <glyph glyph-name="oe" unicode="&#x153;" horiz-adv-x="923" 
d="M834 138q16 14 27 6t0 -28q-24 -46 -86 -86t-141 -40q-119 0 -174 88q-83 -88 -206 -88q-98 0 -157.5 57t-59.5 149q0 119 87 206.5t206 87.5q127 0 184 -95q88 95 218 95q64 0 106 -30t42 -84q0 -47 -27.5 -85t-75.5 -63t-103 -41t-119 -25q14 -41 47 -66t77 -25
q78 0 155 67zM266 44q68 0 109 75.5t41 167.5q0 66 -24 108t-76 42q-72 0 -115.5 -74t-44.5 -162q1 -70 28 -113.5t82 -43.5zM697 437q-63 0 -107.5 -59t-44.5 -140q0 -26 28 -21q86 13 145 49t59 94q0 34 -22 55.5t-58 21.5z" />
    <glyph glyph-name="Racute" unicode="&#x154;" horiz-adv-x="679" 
d="M261 760q-29 4 -27 19t66 77q23 21 32.5 29t24.5 15t27 5q17 -3 28.5 -19t7.5 -36q-5 -36 -62 -66t-97 -24zM205 0h-134q-28 0 -40 5.5t-10 18.5q2 14 13 24t24 16.5t25.5 26.5t17.5 52l56 404q4 35 1 53.5t-11 29.5t-16.5 15.5t-14 12t-3.5 18.5q4 24 56 24h198
q158 0 233 -67.5t61 -174.5q-20 -142 -155 -197l57 -145q11 -29 29 -44.5t28.5 -23.5t8.5 -24q-4 -24 -48 -24h-128q-25 0 -35.5 5.5t-8.5 20.5q2 12 16 24.5t19.5 23t-4.5 46.5l-43 116q-25 -4 -61 -4h-86q-20 0 -23 -20q-5 -37 -10 -84q-2 -22 2 -37.5t11.5 -22.5
t15 -12.5t12.5 -13t3 -18.5q-2 -14 -14.5 -19t-41.5 -5zM338 285q81 0 133.5 38.5t64.5 117.5q12 91 -37 148.5t-143 58.5q-44 0 -57 -5.5t-15 -21.5l-43 -306q-2 -11 4.5 -17t28.5 -9.5t64 -3.5z" />
    <glyph glyph-name="racute" unicode="&#x155;" horiz-adv-x="432" 
d="M211 539q-17 5 -12 20q7 19 70 75q52 43 75 43q26 0 38 -20t3 -45q-13 -35 -76 -60.5t-98 -12.5zM361 489q36 0 53 -21.5t15 -52.5q-2 -29 -15.5 -46t-34.5 -17q-22 -1 -40 23.5t-36 24.5q-36 0 -72.5 -62t-49.5 -167l-20 -142q-3 -20 -24 -25l-68 -15q-12 -2 -19 5
t-5 19l49 335q3 19 -2 31t-13 16t-14.5 10t-6.5 15q0 12 12 21.5t50 25.5q47 20 72 20q26 0 22 -26l-10 -77q31 46 73.5 75.5t83.5 29.5z" />
    <glyph glyph-name="uni0156" unicode="&#x156;" horiz-adv-x="679" 
d="M205 0h-134q-28 0 -40 5.5t-10 18.5q2 14 13 24t24 16.5t25.5 26.5t17.5 52l56 404q4 35 1 53.5t-11 29.5t-16.5 15.5t-14 12t-3.5 18.5q4 24 56 24h198q158 0 233 -67.5t61 -174.5q-20 -142 -155 -197l57 -145q11 -29 29 -44.5t28.5 -23.5t8.5 -24q-4 -24 -48 -24h-128
q-25 0 -35.5 5.5t-8.5 20.5q2 12 16 24.5t19.5 23t-4.5 46.5l-43 116q-25 -4 -61 -4h-86q-20 0 -23 -20q-5 -37 -10 -84q-2 -22 2 -37.5t11.5 -22.5t15 -12.5t12.5 -13t3 -18.5q-2 -14 -14.5 -19t-41.5 -5zM338 285q81 0 133.5 38.5t64.5 117.5q12 91 -37 148.5t-143 58.5
q-44 0 -57 -5.5t-15 -21.5l-43 -306q-2 -11 4.5 -17t28.5 -9.5t64 -3.5zM228 -275q-14 0 -14 10q0 6 20.5 28.5t20.5 41.5q0 12 -18 35t-18 46q0 29 19 46.5t42 17.5q26 0 43 -18t17 -48q0 -60 -40.5 -109.5t-71.5 -49.5z" />
    <glyph glyph-name="uni0157" unicode="&#x157;" horiz-adv-x="432" 
d="M361 489q36 0 53 -21.5t15 -52.5q-2 -29 -15.5 -46t-34.5 -17q-22 -1 -40 23.5t-36 24.5q-36 0 -72.5 -62t-49.5 -167l-20 -142q-3 -20 -24 -25l-68 -15q-12 -2 -19 5t-5 19l49 335q3 19 -2 31t-13 16t-14.5 10t-6.5 15q0 12 12 21.5t50 25.5q47 20 72 20q26 0 22 -26
l-10 -77q31 46 73.5 75.5t83.5 29.5zM85 -50q26 0 43 -18t17 -48q0 -60 -40.5 -109.5t-71.5 -49.5q-14 0 -14 10q0 6 20.5 28.5t20.5 41.5q0 12 -18 35t-18 46q0 29 19 46.5t42 17.5z" />
    <glyph glyph-name="Rcaron" unicode="&#x158;" horiz-adv-x="679" 
d="M315 755q-7 -1 -17 -1t-16.5 1.5t-14 7.5t-11.5 9.5t-16 18t-19 22.5q-4 5 -10.5 12.5t-10 11.5t-8 9.5t-7 9t-5 7.5t-3.5 6.5t-1 4.5q2 14 17 15q21 1 58.5 -14.5t59.5 -33.5q27 18 68.5 33.5t61.5 14.5q15 -1 13 -15q-1 -3 -4 -7.5t-10 -11t-13 -12t-17.5 -15
t-19.5 -16.5q-12 -10 -27 -23.5t-20 -17.5t-13.5 -9.5t-14.5 -6.5zM205 0h-134q-28 0 -40 5.5t-10 18.5q2 14 13 24t24 16.5t25.5 26.5t17.5 52l56 404q4 35 1 53.5t-11 29.5t-16.5 15.5t-14 12t-3.5 18.5q4 24 56 24h198q158 0 233 -67.5t61 -174.5q-20 -142 -155 -197
l57 -145q11 -29 29 -44.5t28.5 -23.5t8.5 -24q-4 -24 -48 -24h-128q-25 0 -35.5 5.5t-8.5 20.5q2 12 16 24.5t19.5 23t-4.5 46.5l-43 116q-25 -4 -61 -4h-86q-20 0 -23 -20q-5 -37 -10 -84q-2 -22 2 -37.5t11.5 -22.5t15 -12.5t12.5 -13t3 -18.5q-2 -14 -14.5 -19t-41.5 -5z
M338 285q81 0 133.5 38.5t64.5 117.5q12 91 -37 148.5t-143 58.5q-44 0 -57 -5.5t-15 -21.5l-43 -306q-2 -11 4.5 -17t28.5 -9.5t64 -3.5z" />
    <glyph glyph-name="rcaron" unicode="&#x159;" horiz-adv-x="432" 
d="M268 552q-24 0 -35 11t-35 51q-36 59 -36 74q3 14 17 15q40 1 100 -69q79 70 120 69q15 -1 12 -15q-1 -6 -59 -78q-4 -5 -12 -14.5t-10.5 -12.5t-8.5 -9.5t-8 -8t-7 -5t-8 -4t-8 -2.5t-10 -2h-12zM361 489q36 0 53 -21.5t15 -52.5q-2 -29 -15.5 -46t-34.5 -17
q-22 -1 -40 23.5t-36 24.5q-36 0 -72.5 -62t-49.5 -167l-20 -142q-3 -20 -24 -25l-68 -15q-12 -2 -19 5t-5 19l49 335q3 19 -2 31t-13 16t-14.5 10t-6.5 15q0 12 12 21.5t50 25.5q47 20 72 20q26 0 22 -26l-10 -77q31 46 73.5 75.5t83.5 29.5z" />
    <glyph glyph-name="Sacute" unicode="&#x15a;" horiz-adv-x="598" 
d="M318 766q-29 4 -27 19t66 77q23 21 32.5 29t24.5 15t27 5q17 -3 28.5 -19t7.5 -36q-5 -36 -62 -66t-97 -24zM262 -10q-43 0 -88 8t-53 8q-14 0 -29 -8t-23 -8q-15 0 -21.5 12t-7.5 43q-2 96 0 143q2 39 24 39q21 0 36 -38q47 -142 181 -142q61 -1 96.5 27t43.5 72
q5 27 -4.5 50.5t-36.5 44.5t-46.5 32.5t-60.5 32.5q-47 26 -72.5 42.5t-55.5 44.5t-40.5 62.5t-4.5 77.5q10 77 82.5 126t181.5 49q28 0 65.5 -6t47.5 -6q13 0 27 6t22 6q15 0 21 -10.5t8 -41.5q6 -67 5 -117q0 -39 -26 -39q-19 0 -38 37q-58 117 -154 117q-52 0 -86 -23.5
t-40 -64.5q-4 -26 4 -47t31 -40.5t45 -33.5t64 -37q41 -22 61.5 -33.5t51.5 -34.5t45 -43t24 -49t6 -63q-11 -92 -94.5 -143.5t-191.5 -51.5z" />
    <glyph glyph-name="sacute" unicode="&#x15b;" horiz-adv-x="475" 
d="M218 550q-17 5 -12 20q7 19 70 75q52 43 75 43q26 0 38 -20t3 -45q-13 -35 -76 -60.5t-98 -12.5zM221 -10q-164 0 -180 54q-13 43 -20 88q-5 27 16 32q15 4 36 -23q68 -99 162 -99q32 0 52.5 15t23.5 36q6 30 -22.5 54t-93.5 53q-67 30 -102 68t-25 95q7 43 40 72.5
t75.5 42t89.5 12.5q124 0 144 -50q10 -25 16 -49q8 -36 -12 -43q-2 -1 -4.5 -1t-5 1t-4.5 1.5t-5.5 3t-5.5 4t-6.5 5.5t-7 6.5l-8 8t-9.5 8.5q-56 54 -114 54q-30 0 -51.5 -15.5t-24.5 -35.5q-6 -30 18.5 -50t90.5 -50q77 -35 113 -72t27 -88q-11 -61 -67 -99.5t-136 -38.5z
" />
    <glyph glyph-name="Scedilla" unicode="&#x15e;" horiz-adv-x="598" 
d="M555 656q6 -67 5 -117q0 -39 -26 -39q-19 0 -38 37q-58 117 -154 117q-52 0 -86 -23.5t-40 -64.5q-4 -26 4 -47t31 -40.5t45 -33.5t64 -37q41 -22 61.5 -33.5t51.5 -34.5t45 -43t24 -49t6 -63q-11 -90 -90.5 -141t-184.5 -54l-22 -42q93 -17 93 -79q0 -36 -27.5 -59
t-67.5 -23q-56 0 -83 33q-8 10 -0.5 18t19.5 0q28 -15 49 -15t32.5 11.5t11.5 28.5q0 37 -66 52q-20 4 -12 18l31 58q-30 2 -65 8.5t-45 6.5q-14 0 -29 -8t-23 -8q-15 0 -21.5 12t-7.5 43q-2 96 0 143q2 39 24 39q21 0 36 -38q47 -142 181 -142q61 -1 96.5 27t43.5 72
q5 27 -4.5 50.5t-36.5 44.5t-46.5 32.5t-60.5 32.5q-47 26 -72.5 42.5t-55.5 44.5t-40.5 62.5t-4.5 77.5q10 77 82.5 126t181.5 49q28 0 65.5 -6t47.5 -6q13 0 27 6t22 6q15 0 21 -10.5t8 -41.5z" />
    <glyph glyph-name="scedilla" unicode="&#x15f;" horiz-adv-x="475" 
d="M251 439q-30 0 -51.5 -15.5t-24.5 -35.5q-6 -30 18.5 -50t90.5 -50q77 -35 113 -72t27 -88q-11 -61 -67 -99.5t-136 -38.5h-10l-22 -42q93 -17 93 -79q0 -36 -27.5 -59t-67.5 -23q-56 0 -83 33q-8 10 -0.5 18t19.5 0q28 -15 49 -15t32.5 11.5t11.5 28.5q0 37 -66 52
q-20 4 -12 18l31 59q-114 6 -128 52q-13 43 -20 88q-5 27 16 32q15 4 36 -23q68 -99 162 -99q32 0 52.5 15t23.5 36q6 30 -22.5 54t-93.5 53q-67 30 -102 68t-25 95q7 43 40 72.5t75.5 42t89.5 12.5q124 0 144 -50q10 -25 16 -49q8 -36 -12 -43q-2 -1 -4.5 -1t-5 1t-4.5 1.5
t-5.5 3t-5.5 4t-6.5 5.5t-7 6.5l-8 8t-9.5 8.5q-56 54 -114 54z" />
    <glyph glyph-name="Scaron" unicode="&#x160;" horiz-adv-x="598" 
d="M372 761q-7 -1 -17 -1t-16.5 1.5t-14 7.5t-11.5 9.5t-16 18t-19 22.5q-4 5 -10.5 12.5t-10 11.5t-8 9.5t-7 9t-5 7.5t-3.5 6.5t-1 4.5q2 14 17 15q21 1 58.5 -14.5t59.5 -33.5q27 18 68.5 33.5t61.5 14.5q15 -1 13 -15q-1 -3 -4 -7.5t-10 -11t-13 -12t-17.5 -15
t-19.5 -16.5q-12 -10 -27 -23.5t-20 -17.5t-13.5 -9.5t-14.5 -6.5zM262 -10q-43 0 -88 8t-53 8q-14 0 -29 -8t-23 -8q-15 0 -21.5 12t-7.5 43q-2 96 0 143q2 39 24 39q21 0 36 -38q47 -142 181 -142q61 -1 96.5 27t43.5 72q5 27 -4.5 50.5t-36.5 44.5t-46.5 32.5t-60.5 32.5
q-47 26 -72.5 42.5t-55.5 44.5t-40.5 62.5t-4.5 77.5q10 77 82.5 126t181.5 49q28 0 65.5 -6t47.5 -6q13 0 27 6t22 6q15 0 21 -10.5t8 -41.5q6 -67 5 -117q0 -39 -26 -39q-19 0 -38 37q-58 117 -154 117q-52 0 -86 -23.5t-40 -64.5q-4 -26 4 -47t31 -40.5t45 -33.5t64 -37
q41 -22 61.5 -33.5t51.5 -34.5t45 -43t24 -49t6 -63q-11 -92 -94.5 -143.5t-191.5 -51.5z" />
    <glyph glyph-name="scaron" unicode="&#x161;" horiz-adv-x="475" 
d="M275 563q-24 0 -35 11t-35 51q-36 59 -36 74q3 14 17 15q40 1 100 -69q79 70 120 69q15 -1 12 -15q-1 -3 -4 -8.5t-9.5 -14t-13 -16t-16 -19.5t-16.5 -20q-4 -5 -12 -14.5t-10.5 -12.5t-8.5 -9.5t-8 -8t-7 -5t-8 -4t-8 -2.5t-10 -2h-12zM221 -10q-164 0 -180 54
q-13 43 -20 88q-5 27 16 32q15 4 36 -23q68 -99 162 -99q32 0 52.5 15t23.5 36q6 30 -22.5 54t-93.5 53q-67 30 -102 68t-25 95q7 43 40 72.5t75.5 42t89.5 12.5q124 0 144 -50q10 -25 16 -49q8 -36 -12 -43q-2 -1 -4.5 -1t-5 1t-4.5 1.5t-5.5 3t-5.5 4t-6.5 5.5t-7 6.5
l-8 8t-9.5 8.5q-56 54 -114 54q-30 0 -51.5 -15.5t-24.5 -35.5q-6 -30 18.5 -50t90.5 -50q77 -35 113 -72t27 -88q-11 -61 -67 -99.5t-136 -38.5z" />
    <glyph glyph-name="uni0162" unicode="&#x162;" horiz-adv-x="650" 
d="M358 1h-135q-28 0 -39 5.5t-10 18.5q2 15 16 23.5t31 22t24 39.5q6 15 9 34l63 453q3 24 -6.5 35.5t-35.5 11.5q-50 0 -75 -20t-63 -77q-25 -39 -42 -39q-24 0 -17 39q10 68 30 115q9 21 26 29.5t61 8.5l388 1q45 0 60 -8.5t18 -30.5q6 -43 -2 -114q-5 -39 -28 -39
q-18 0 -32 38q-12 31 -18 44t-18.5 28.5t-29.5 20.5t-43 5q-49 0 -56 -47l-64 -454q-2 -11 -2 -34q0 -21 8 -34t17 -17.5t16 -12.5t5 -21q-4 -24 -56 -24zM294 -213q-56 0 -83 33q-8 10 -0.5 18t19.5 0q28 -15 49 -15t32.5 11.5t11.5 28.5q0 37 -66 52q-20 4 -12 18l36 67
h42l-27 -52q93 -17 93 -79q0 -36 -27.5 -59t-67.5 -23z" />
    <glyph glyph-name="uni0163" unicode="&#x163;" horiz-adv-x="374" 
d="M229 473l107 14q26 4 32.5 -5t-1.5 -31q-5 -17 -13.5 -25.5t-13.5 -10t-22 -3.5q-3 -1 -5 -1l-95 -8q-26 -172 -32 -248q-4 -46 6.5 -65t36.5 -19q35 0 67 38q10 11 18 7.5t8 -16.5q0 -33 -37.5 -68.5t-88.5 -40.5l-22 -43q93 -17 93 -79q0 -36 -27.5 -59t-67.5 -23
q-56 0 -83 33q-8 10 -0.5 18t19.5 0q28 -15 49 -15t32.5 11.5t11.5 28.5q0 37 -66 52q-20 4 -12 18l32 59q-94 14 -86 127q3 53 38 275l-45 -5q-18 -2 -25 5t-3 26q6 26 36 31l48 7q13 82 16 96q3 21 24 24l62 14q12 3 19 -3.5t5 -20.5q-7 -41 -15 -95z" />
    <glyph glyph-name="Tcaron" unicode="&#x164;" horiz-adv-x="650" 
d="M428 755q-7 -1 -17 -1t-16.5 1.5t-14 7.5t-11.5 9.5t-16 18t-19 22.5q-4 5 -10.5 12.5t-10 11.5t-8 9.5t-7 9t-5 7.5t-3.5 6.5t-1 4.5q2 14 17 15q21 1 58.5 -14.5t59.5 -33.5q27 18 68.5 33.5t61.5 14.5q15 -1 13 -15q-1 -3 -4 -7.5t-10 -11t-13 -12t-17.5 -15
t-19.5 -16.5q-12 -10 -27 -23.5t-20 -17.5t-13.5 -9.5t-14.5 -6.5zM358 1h-135q-28 0 -39 5.5t-10 18.5q2 15 16 23.5t31 22t24 39.5q6 15 9 34l63 453q3 24 -6.5 35.5t-35.5 11.5q-50 0 -75 -20t-63 -77q-25 -39 -42 -39q-24 0 -17 39q10 68 30 115q9 21 26 29.5t61 8.5
l388 1q45 0 60 -8.5t18 -30.5q6 -43 -2 -114q-5 -39 -28 -39q-18 0 -32 38q-12 31 -18 44t-18.5 28.5t-29.5 20.5t-43 5q-49 0 -56 -47l-64 -454q-2 -11 -2 -34q0 -21 8 -34t17 -17.5t16 -12.5t5 -21q-4 -24 -56 -24z" />
    <glyph glyph-name="tcaron" unicode="&#x165;" horiz-adv-x="374" 
d="M370 726q19 0 29 -13t7 -36q-5 -35 -48 -106t-64 -71q-17 0 -14 19q4 16 12.5 53t15 66.5t8.5 34.5q13 53 54 53zM229 473l107 14q26 4 32.5 -5t-1.5 -31q-5 -17 -13.5 -25.5t-13.5 -10t-22 -3.5q-3 -1 -5 -1l-95 -8q-26 -172 -32 -248q-4 -46 6.5 -65t36.5 -19
q35 0 67 38q10 11 18 7.5t8 -16.5q0 -36 -42 -73t-99 -37q-62 0 -89.5 34.5t-22.5 94.5q3 53 38 275l-45 -5q-18 -2 -25 5t-3 26q6 26 36 31l48 7q13 82 16 96q3 21 24 24l62 14q12 3 19 -3.5t5 -20.5q-7 -41 -15 -95z" />
    <glyph glyph-name="Tbar" unicode="&#x166;" horiz-adv-x="650" 
d="M661 662q6 -43 -2 -114q-5 -39 -28 -39q-18 0 -32 38q-12 31 -18 44t-18.5 28.5t-29.5 20.5t-43 5q-49 0 -56 -47l-31 -222h64q27 0 24 -24q-2 -17 -8.5 -23.5t-23.5 -6.5h-64l-25 -178q-2 -11 -2 -34q0 -21 8 -34t17 -17.5t16 -12.5t5 -21q-4 -24 -56 -24h-135
q-28 0 -39 5.5t-10 18.5q2 15 16 23.5t31 22t24 39.5q6 15 9 34l25 178h-48q-17 0 -21 7t-2 23q3 24 31 24h47l31 221q3 24 -6.5 35.5t-35.5 11.5q-50 0 -75 -20t-63 -77q-25 -39 -42 -39q-24 0 -17 39q10 68 30 115q9 21 26 29.5t61 8.5l388 1q45 0 60 -8.5t18 -30.5z" />
    <glyph glyph-name="tbar" unicode="&#x167;" horiz-adv-x="374" 
d="M229 473l107 14q26 4 32.5 -5t-1.5 -31q-5 -17 -13.5 -25.5t-13.5 -10t-22 -3.5q-3 -1 -5 -1l-95 -8q-9 -58 -11 -78h48q22 0 22 -24t-22 -24h-55q-11 -80 -14 -122q-4 -46 6.5 -65t36.5 -19q35 0 67 38q10 11 18 7.5t8 -16.5q0 -36 -42 -73t-99 -37q-62 0 -89.5 34.5
t-22.5 94.5q3 40 20 158h-41q-22 0 -22 24t22 24h48q8 46 11 69l-45 -5q-18 -2 -25 5t-3 26q6 26 36 31l48 7q13 82 16 96q3 21 24 24l62 14q12 3 19 -3.5t5 -20.5q-7 -41 -15 -95z" />
    <glyph glyph-name="Umacron" unicode="&#x16a;" horiz-adv-x="742" 
d="M589 773h-226q-23 0 -28 5.5t-3 22.5q2 19 8.5 24.5t30.5 5.5h226q24 0 30 -5.5t4 -21.5q-2 -20 -9.5 -25.5t-32.5 -5.5zM345 -10q-133 0 -193 77.5t-40 223.5l37 264q2 12 2 35q0 21 -8 34t-17 17.5t-16 12.5t-5 21q4 24 56 24h135q28 0 39.5 -5.5t9.5 -18.5
q-2 -15 -16 -23.5t-31 -22.5t-25 -39q-3 -14 -7 -35l-40 -285q-15 -103 26 -158.5t129 -55.5q89 0 146 61t72 163l40 297q3 25 -3 42t-15 23t-16 14.5t-6 19.5q4 24 49 24h78q24 0 34 -5t8 -19q-1 -11 -10.5 -19t-20.5 -14.5t-22 -23.5t-14 -42l-40 -278q-43 -309 -316 -309
z" />
    <glyph glyph-name="umacron" unicode="&#x16b;" horiz-adv-x="628" 
d="M466 548h-227q-22 0 -27 6t0 22q6 19 13 24.5t30 5.5h227q24 0 29.5 -6t-0.5 -21q-5 -20 -12.5 -25.5t-32.5 -5.5zM562 100q13 0 12 -17q-2 -32 -34.5 -61.5t-78.5 -29.5q-86 0 -74 115q-80 -117 -183 -117q-79 0 -113 49.5t-21 141.5l24 170q3 19 -2 31t-13 15
t-14.5 8.5t-6.5 14.5q0 12 12 22t50 25q53 21 82 21q26 0 22 -27l-38 -252q-5 -34 -6.5 -55.5t2 -46t17.5 -36.5t39 -12q56 0 109.5 78.5t74.5 207.5l16 99q4 20 26 25l65 17q12 4 19 -4t5 -20l-52 -348q-6 -42 16 -42q10 0 24.5 14t20.5 14z" />
    <glyph glyph-name="Uring" unicode="&#x16e;" horiz-adv-x="742" 
d="M490 747q-43 0 -68 26.5t-19 68.5q6 43 40 70.5t78 27.5q43 0 67.5 -26t18.5 -69q-6 -44 -39.5 -71t-77.5 -27zM501 794q22 0 36.5 15t16.5 38q0 22 -11.5 35.5t-31.5 13.5q-23 0 -38 -14.5t-17 -38.5q0 -22 12 -35.5t33 -13.5zM345 -10q-133 0 -193 77.5t-40 223.5
l37 264q2 12 2 35q0 21 -8 34t-17 17.5t-16 12.5t-5 21q4 24 56 24h135q28 0 39.5 -5.5t9.5 -18.5q-2 -15 -16 -23.5t-31 -22.5t-25 -39q-3 -14 -7 -35l-40 -285q-15 -103 26 -158.5t129 -55.5q89 0 146 61t72 163l40 297q3 25 -3 42t-15 23t-16 14.5t-6 19.5q4 24 49 24h78
q24 0 34 -5t8 -19q-1 -11 -10.5 -19t-20.5 -14.5t-22 -23.5t-14 -42l-40 -278q-43 -309 -316 -309z" />
    <glyph glyph-name="uring" unicode="&#x16f;" horiz-adv-x="628" 
d="M356 522q-43 0 -68 26.5t-19 68.5q6 43 40 70.5t78 27.5q43 0 67.5 -26t18.5 -69q-6 -44 -39.5 -71t-77.5 -27zM377 671q-23 0 -38 -14.5t-17 -38.5q0 -22 12 -35.5t33 -13.5q22 0 36.5 15t16.5 38q0 22 -11.5 35.5t-31.5 13.5zM562 100q13 0 12 -17q-2 -32 -34.5 -61.5
t-78.5 -29.5q-86 0 -74 115q-80 -117 -183 -117q-79 0 -113 49.5t-21 141.5l24 170q3 19 -2 31t-13 15t-14.5 8.5t-6.5 14.5q0 12 12 22t50 25q53 21 82 21q26 0 22 -27l-38 -252q-5 -34 -6.5 -55.5t2 -46t17.5 -36.5t39 -12q56 0 109.5 78.5t74.5 207.5l16 99q4 20 26 25
l65 17q12 4 19 -4t5 -20l-52 -348q-6 -42 16 -42q10 0 24.5 14t20.5 14z" />
    <glyph glyph-name="Uhungarumlaut" unicode="&#x170;" horiz-adv-x="742" 
d="M351 762q-36 0 -36 15q0 17 71 75q56 45 78 45q18 0 32.5 -13t14.5 -28q0 -33 -58 -63.5t-102 -30.5zM545 760q-37 2 -35 17q1 18 74 71q58 42 80 41q19 -1 32.5 -14.5t12.5 -28.5q-2 -33 -61 -60.5t-103 -25.5zM345 -10q-133 0 -193 77.5t-40 223.5l37 264q2 12 2 35
q0 21 -8 34t-17 17.5t-16 12.5t-5 21q4 24 56 24h135q28 0 39.5 -5.5t9.5 -18.5q-2 -15 -16 -23.5t-31 -22.5t-25 -39q-3 -14 -7 -35l-40 -285q-15 -103 26 -158.5t129 -55.5q89 0 146 61t72 163l40 297q3 25 -3 42t-15 23t-16 14.5t-6 19.5q4 24 49 24h78q24 0 34 -5t8 -19
q-1 -11 -10.5 -19t-20.5 -14.5t-22 -23.5t-14 -42l-40 -278q-43 -309 -316 -309z" />
    <glyph glyph-name="uhungarumlaut" unicode="&#x171;" horiz-adv-x="628" 
d="M278 533q-16 0 -16 14q0 15 35 83q19 33 32 47.5t30 14.5t29.5 -12t12.5 -33q0 -32 -45 -73t-78 -41zM428 532q-18 0 -18 14q0 15 40 82q15 22 22.5 31.5t19 18.5t22.5 9q17 0 29 -12t12 -32q0 -32 -46 -71.5t-81 -39.5zM562 100q13 0 12 -17q-2 -32 -34.5 -61.5
t-78.5 -29.5q-86 0 -74 115q-80 -117 -183 -117q-79 0 -113 49.5t-21 141.5l24 170q3 19 -2 31t-13 15t-14.5 8.5t-6.5 14.5q0 12 12 22t50 25q53 21 82 21q26 0 22 -27l-38 -252q-5 -34 -6.5 -55.5t2 -46t17.5 -36.5t39 -12q56 0 109.5 78.5t74.5 207.5l16 99q4 20 26 25
l65 17q12 4 19 -4t5 -20l-52 -348q-6 -42 16 -42q10 0 24.5 14t20.5 14z" />
    <glyph glyph-name="Uogonek" unicode="&#x172;" horiz-adv-x="742" 
d="M648 700h78q24 0 34 -5t8 -19q-1 -11 -10.5 -19t-20.5 -14.5t-22 -23.5t-14 -42l-40 -278q-35 -248 -220 -297q-45 -49 -45 -91q0 -24 14 -38t40 -14q17 0 39 9q16 7 21 -2.5t-5 -19.5q-31 -31 -84 -31q-42 0 -70 22t-28 59q0 51 61 96q-26 -2 -39 -2q-133 0 -193 77.5
t-40 223.5l37 264q2 12 2 35q0 21 -8 34t-17 17.5t-16 12.5t-5 21q4 24 56 24h135q28 0 39.5 -5.5t9.5 -18.5q-2 -15 -16 -23.5t-31 -22.5t-25 -39q-3 -14 -7 -35l-40 -285q-15 -103 26 -158.5t129 -55.5q89 0 146 61t72 163l40 297q3 25 -3 42t-15 23t-16 14.5t-6 19.5
q4 24 49 24z" />
    <glyph glyph-name="uogonek" unicode="&#x173;" horiz-adv-x="628" 
d="M574 83q-2 -27 -25 -52.5t-58 -34.5q-36 -43 -36 -81q0 -24 14 -38t40 -14q17 0 39 9q16 7 21 -2.5t-5 -19.5q-31 -31 -84 -31q-42 0 -70 22t-28 59q0 49 59 94q-65 14 -54 113q-80 -117 -183 -117q-79 0 -113 49.5t-21 141.5l24 170q3 19 -2 31t-13 15t-14.5 8.5
t-6.5 14.5q0 12 12 22t50 25q53 21 82 21q26 0 22 -27l-38 -252q-5 -34 -6.5 -55.5t2 -46t17.5 -36.5t39 -12q56 0 109.5 78.5t74.5 207.5l16 99q4 20 26 25l65 17q12 4 19 -4t5 -20l-52 -348q-6 -42 16 -42q10 0 24.5 14t20.5 14q13 0 12 -17z" />
    <glyph glyph-name="Wcircumflex" unicode="&#x174;" horiz-adv-x="1068" 
d="M474 752q-15 1 -13 14q3 11 63 61q7 6 19 17t16 14.5t12 10t11.5 8.5t9.5 5t11.5 3.5t12.5 0.5q9 0 15 -1.5t10.5 -2.5t10.5 -7t9.5 -10t13.5 -16t17 -20l15 -17.5t13 -15.5t9 -11.5t7 -11t2 -7.5q0 -13 -15 -14q-21 -1 -58.5 14.5t-59.5 32.5q-28 -17 -69.5 -32.5
t-61.5 -14.5zM303 -3q-49 -7 -53 15l-119 564q-7 34 -23 52t-27 26.5t-9 21.5q2 14 13.5 19t37.5 5h138q43 0 40 -23q-2 -11 -11.5 -20t-19 -15t-14.5 -23t0 -43l87 -450l201 416l-6 34q-7 34 -22.5 52t-26.5 26.5t-9 21.5q2 14 13.5 19t37.5 5h138q43 0 40 -23
q-2 -11 -11.5 -20t-19 -15.5t-15 -23.5t-0.5 -43l84 -447l212 449q17 42 12.5 54t-16 22.5t-10.5 22.5q4 24 45 24h85q47 0 44 -22q-2 -11 -12 -19t-23 -14t-30 -23.5t-30 -44.5l-265 -550q-12 -23 -52 -30q-50 -8 -54 15l-92 446l-206 -431q-11 -23 -52 -30z" />
    <glyph glyph-name="wcircumflex" unicode="&#x175;" horiz-adv-x="811" 
d="M354 533q-15 1 -13 15q2 13 56 74q35 40 49.5 51t38.5 11h11.5t9.5 -2t7.5 -2.5t6.5 -4t5.5 -5t5.5 -8t6 -9.5t7 -12.5t8 -14.5q39 -71 38 -78q-2 -14 -16 -15q-41 -1 -101 69q-79 -70 -119 -69zM725 491q59 0 59 -85q0 -94 -34 -188.5t-100.5 -161t-147.5 -66.5
q-109 0 -133 97q-66 -97 -175 -97q-66 0 -101.5 48.5t-22.5 142.5l22 170q3 19 -2 31t-13 15t-14.5 8.5t-6.5 14.5q0 12 12 22t51 25q53 21 80 21t22 -27l-36 -263q-19 -134 58 -134q95 0 132 180l25 185q4 33 25 41q34 18 70 18q26 0 23 -27l-36 -263q-18 -134 58 -134
q61 0 106 75t45 159q0 38 -20.5 72t-20.5 53q0 26 23.5 47t51.5 21z" />
    <glyph glyph-name="Ycircumflex" unicode="&#x176;" horiz-adv-x="681" 
d="M311 752q-15 1 -13 14q3 11 63 61q7 6 19 17t16 14.5t12 10t11.5 8.5t9.5 5t11.5 3.5t12.5 0.5q9 0 15 -1.5t10.5 -2.5t10.5 -7t9.5 -10t13.5 -16t17 -20l15 -17.5t13 -15.5t9 -11.5t7 -11t2 -7.5q0 -13 -15 -14q-21 -1 -58.5 14.5t-59.5 32.5q-28 -17 -69.5 -32.5
t-61.5 -14.5zM590 700h89q23 0 34.5 -5t9.5 -18q-2 -12 -12.5 -19.5t-25 -12t-35.5 -20t-39 -38.5l-214 -277l-23 -167q-3 -17 -3 -34q1 -21 9 -34t17 -17.5t15.5 -12.5t4.5 -21q-2 -14 -14.5 -19t-41.5 -5h-135q-28 0 -39.5 5.5t-9.5 18.5q2 12 11 20.5t20 13.5t23 18
t17 33q6 19 9 34l22 167l-148 273q-16 30 -38 47t-33 24.5t-9 21.5t14 19t38 5h162q21 0 31.5 -5t8.5 -18q-2 -10 -12 -19t-18.5 -15t-11 -21.5t11.5 -39.5l108 -208l160 212q18 24 22 39t-2 20t-12.5 13t-4.5 18q4 24 44 24z" />
    <glyph glyph-name="ycircumflex" unicode="&#x177;" horiz-adv-x="525" 
d="M190 529q-15 1 -13 15q2 13 56 74q35 40 49.5 51t38.5 11h11.5t9.5 -2t7.5 -2.5t6.5 -4t5.5 -5t5.5 -8t6 -9.5t7 -12.5t8 -14.5q39 -71 38 -78q-2 -14 -16 -15q-41 -1 -101 69q-79 -70 -119 -69zM439 491q31 0 45 -20.5t14 -49.5q0 -97 -48 -214.5t-101 -198.5
q-142 -218 -305 -218q-57 0 -87 25t-30 66q0 31 17 50.5t43 19.5q33 0 52 -40q8 -18 14 -26.5t20 -16.5t35 -8q37 0 65.5 29t33.5 69q5 29 -8 91q-31 140 -96 304q-8 21 -19 28t-32 8q-27 0 -27 18q0 23 48.5 52.5t75.5 29.5q24 0 35 -28q76 -206 125 -416q96 154 96 253
q0 38 -20.5 72t-20.5 53q0 26 23.5 47t51.5 21z" />
    <glyph glyph-name="Ydieresis" unicode="&#x178;" horiz-adv-x="681" 
d="M349 771q-20 0 -33.5 12t-13.5 32q0 26 19 47t46 21q23 0 37 -14t14 -36q0 -26 -20.5 -44t-48.5 -18zM504 771q-21 0 -34.5 12t-13.5 32q0 26 19.5 47t45.5 21q23 0 37.5 -14t14.5 -36q0 -26 -21 -44t-48 -18zM590 700h89q23 0 34.5 -5t9.5 -18q-2 -12 -12.5 -19.5
t-25 -12t-35.5 -20t-39 -38.5l-214 -277l-23 -167q-3 -17 -3 -34q1 -21 9 -34t17 -17.5t15.5 -12.5t4.5 -21q-2 -14 -14.5 -19t-41.5 -5h-135q-28 0 -39.5 5.5t-9.5 18.5q2 12 11 20.5t20 13.5t23 18t17 33q6 19 9 34l22 167l-148 273q-16 30 -38 47t-33 24.5t-9 21.5t14 19
t38 5h162q21 0 31.5 -5t8.5 -18q-2 -10 -12 -19t-18.5 -15t-11 -21.5t11.5 -39.5l108 -208l160 212q18 24 22 39t-2 20t-12.5 13t-4.5 18q4 24 44 24z" />
    <glyph glyph-name="Zacute" unicode="&#x179;" horiz-adv-x="627" 
d="M350 760q-29 4 -27 19t66 77q23 21 32.5 29t24.5 15t27 5q17 -3 28.5 -19t7.5 -36q-5 -36 -62 -66t-97 -24zM464 0h-430q-20 0 -24.5 12t9.5 29l483 605h-201q-51 0 -80.5 -23t-63.5 -76q-22 -39 -43 -39q-19 0 -12 40q12 65 32 114q8 22 24 30t60 8h414q21 0 25.5 -11.5
t-9.5 -28.5l-482 -606l215 1q51 0 81 23t63 75q22 39 43 39q19 0 11 -40q-9 -60 -32 -114q-8 -22 -24 -30t-59 -8z" />
    <glyph glyph-name="zacute" unicode="&#x17a;" horiz-adv-x="500" 
d="M223 536q-17 5 -12 20q7 19 70 75q52 43 75 43q26 0 38 -20t3 -45q-13 -35 -76 -60.5t-98 -12.5zM331 -9q-37 0 -118 7.5t-99 7.5q-27 0 -51.5 -6t-31.5 -6q-18 0 -18 20q0 23 29 52l302 311q-36 -3 -100 2t-79 5q-18 0 -32 -8t-20 -17t-13 -17t-13 -8q-14 0 -13 33
q3 46 28.5 84t68.5 38q34 0 105 -7.5t104 -7.5q32 0 57 7t34 7q17 0 17 -19q0 -25 -28 -51l-303 -317q29 5 98 -0.5t81 -5.5q30 1 51 15.5t33.5 28.5t20.5 14q13 0 13 -25q0 -21 -5.5 -42t-18 -43.5t-38 -37t-61.5 -14.5z" />
    <glyph glyph-name="Zdotaccent" unicode="&#x17b;" horiz-adv-x="627" 
d="M357 775q-25 1 -40 16.5t-13 38.5q1 32 31.5 59.5t64.5 24.5q23 -1 39 -17.5t15 -39.5q-1 -31 -32 -57.5t-65 -24.5zM464 0h-430q-20 0 -24.5 12t9.5 29l483 605h-201q-51 0 -80.5 -23t-63.5 -76q-22 -39 -43 -39q-19 0 -12 40q12 65 32 114q8 22 24 30t60 8h414
q21 0 25.5 -11.5t-9.5 -28.5l-482 -606l215 1q51 0 81 23t63 75q22 39 43 39q19 0 11 -40q-9 -60 -32 -114q-8 -22 -24 -30t-59 -8z" />
    <glyph glyph-name="zdotaccent" unicode="&#x17c;" horiz-adv-x="500" 
d="M265 541q-25 1 -40 16.5t-13 38.5q1 32 31.5 59.5t64.5 24.5q23 -1 39 -17.5t15 -39.5q-1 -31 -32 -57.5t-65 -24.5zM331 -9q-37 0 -118 7.5t-99 7.5q-27 0 -51.5 -6t-31.5 -6q-18 0 -18 20q0 23 29 52l302 311q-36 -3 -100 2t-79 5q-18 0 -32 -8t-20 -17t-13 -17t-13 -8
q-14 0 -13 33q3 46 28.5 84t68.5 38q34 0 105 -7.5t104 -7.5q32 0 57 7t34 7q17 0 17 -19q0 -25 -28 -51l-303 -317q29 5 98 -0.5t81 -5.5q30 1 51 15.5t33.5 28.5t20.5 14q13 0 13 -25q0 -21 -5.5 -42t-18 -43.5t-38 -37t-61.5 -14.5z" />
    <glyph glyph-name="Zcaron" unicode="&#x17d;" horiz-adv-x="627" 
d="M404 755q-7 -1 -17 -1t-16.5 1.5t-14 7.5t-11.5 9.5t-16 18t-19 22.5q-4 5 -10.5 12.5t-10 11.5t-8 9.5t-7 9t-5 7.5t-3.5 6.5t-1 4.5q2 14 17 15q21 1 58.5 -14.5t59.5 -33.5q27 18 68.5 33.5t61.5 14.5q15 -1 13 -15q-1 -3 -4 -7.5t-10 -11t-13 -12t-17.5 -15
t-19.5 -16.5q-12 -10 -27 -23.5t-20 -17.5t-13.5 -9.5t-14.5 -6.5zM464 0h-430q-20 0 -24.5 12t9.5 29l483 605h-201q-51 0 -80.5 -23t-63.5 -76q-22 -39 -43 -39q-19 0 -12 40q12 65 32 114q8 22 24 30t60 8h414q21 0 25.5 -11.5t-9.5 -28.5l-482 -606l215 1q51 0 81 23
t63 75q22 39 43 39q19 0 11 -40q-9 -60 -32 -114q-8 -22 -24 -30t-59 -8z" />
    <glyph glyph-name="zcaron" unicode="&#x17e;" horiz-adv-x="500" 
d="M280 549q-24 0 -35 11t-35 51q-36 59 -36 74q3 14 17 15q40 1 100 -69q79 70 120 69q15 -1 12 -15q-1 -3 -4 -8.5t-9.5 -14t-13 -16t-16 -19.5t-16.5 -20q-4 -5 -12 -14.5t-10.5 -12.5t-8.5 -9.5t-8 -8t-7 -5t-8 -4t-8 -2.5t-10 -2h-12zM331 -9q-37 0 -118 7.5t-99 7.5
q-27 0 -51.5 -6t-31.5 -6q-18 0 -18 20q0 23 29 52l302 311q-36 -3 -100 2t-79 5q-18 0 -32 -8t-20 -17t-13 -17t-13 -8q-14 0 -13 33q3 46 28.5 84t68.5 38q34 0 105 -7.5t104 -7.5q32 0 57 7t34 7q17 0 17 -19q0 -25 -28 -51l-303 -317q29 5 98 -0.5t81 -5.5q30 1 51 15.5
t33.5 28.5t20.5 14q13 0 13 -25q0 -21 -5.5 -42t-18 -43.5t-38 -37t-61.5 -14.5z" />
    <glyph glyph-name="uni0218" unicode="&#x218;" horiz-adv-x="598" 
d="M172 -11q-64 0 -97 28q-16 24 -27 50q-15 17 -5 53q4 10 7.5 32.5t7.5 36.5q36 -28 81 -28q17 0 34 3.5t19 3.5q4 -5 9 -17.5t8.5 -17t14.5 -10t26 2.5q17 16 26.5 51t21.5 108q11 60 12.5 120.5t1.5 61.5q-6 4 -17 11.5t-17.5 12.5t-15.5 13t-13.5 16t-8.5 19t-3.5 24.5
t4.5 29.5q14 48 60.5 81.5t120.5 33.5q46 0 79 -26q12 -12 27 -40q11 -15 1 -53l-4.5 -22.5t-6.5 -29.5q-27 22 -64 22q-26 0 -54 -8q-5 3 -13 11t-12.5 12t-13 5.5t-13.5 -7.5q-8 -17 -26 -148q-23 -154 -21 -176q6 -6 17.5 -14.5t18.5 -14t16.5 -16t12 -19.5t5.5 -25
t-3 -33q-16 -59 -71.5 -97.5t-124.5 -39.5zM131 -222l-2 3q0 11 8 23q13 20 2 36q-15 22 -15 39q-2 35 32 53q18 11 33.5 6t19.5 -26q17 -36 -20 -87q-11 -16 -25 -27.5t-22 -15.5t-11 -4z" />
    <glyph glyph-name="uni0219" unicode="&#x219;" horiz-adv-x="475" 
d="M221 -10q-164 0 -180 54q-13 43 -20 88q-5 27 16 32q15 4 36 -23q68 -99 162 -99q32 0 52.5 15t23.5 36q6 30 -22.5 54t-93.5 53q-67 30 -102 68t-25 95q7 43 40 72.5t75.5 42t89.5 12.5q124 0 144 -50q10 -25 16 -49q8 -36 -12 -43q-2 -1 -4.5 -1t-5 1t-4.5 1.5t-5.5 3
t-5.5 4t-6.5 5.5t-7 6.5l-8 8t-9.5 8.5q-56 54 -114 54q-30 0 -51.5 -15.5t-24.5 -35.5q-6 -30 18.5 -50t90.5 -50q77 -35 113 -72t27 -88q-11 -61 -67 -99.5t-136 -38.5zM145 -275q-14 0 -14 10q0 6 20.5 28.5t20.5 41.5q0 12 -18 35t-18 46q0 29 19 46.5t42 17.5
q26 0 43 -18t17 -48q0 -60 -40.5 -109.5t-71.5 -49.5z" />
    <glyph glyph-name="uni021A" unicode="&#x21a;" horiz-adv-x="650" 
d="M358 1h-135q-28 0 -39 5.5t-10 18.5q2 15 16 23.5t31 22t24 39.5q6 15 9 34l63 453q3 24 -6.5 35.5t-35.5 11.5q-50 0 -75 -20t-63 -77q-25 -39 -42 -39q-24 0 -17 39q10 68 30 115q9 21 26 29.5t61 8.5l388 1q45 0 60 -8.5t18 -30.5q6 -43 -2 -114q-5 -39 -28 -39
q-18 0 -32 38q-12 31 -18 44t-18.5 28.5t-29.5 20.5t-43 5q-49 0 -56 -47l-64 -454q-2 -11 -2 -34q0 -21 8 -34t17 -17.5t16 -12.5t5 -21q-4 -24 -56 -24zM252 -275q-14 0 -14 10q0 6 20.5 28.5t20.5 41.5q0 12 -18 35t-18 46q0 29 19 46.5t42 17.5q26 0 43 -18t17 -48
q0 -60 -40.5 -109.5t-71.5 -49.5z" />
    <glyph glyph-name="uni021B" unicode="&#x21b;" horiz-adv-x="374" 
d="M229 473l107 14q26 4 32.5 -5t-1.5 -31q-5 -17 -13.5 -25.5t-13.5 -10t-22 -3.5q-3 -1 -5 -1l-95 -8q-26 -172 -32 -248q-4 -46 6.5 -65t36.5 -19q35 0 67 38q10 11 18 7.5t8 -16.5q0 -36 -42 -73t-99 -37q-62 0 -89.5 34.5t-22.5 94.5q3 53 38 275l-45 -5q-18 -2 -25 5
t-3 26q6 26 36 31l48 7q13 82 16 96q3 21 24 24l62 14q12 3 19 -3.5t5 -20.5q-7 -41 -15 -95zM183 -50q26 0 43 -18t17 -48q0 -60 -40.5 -109.5t-71.5 -49.5q-14 0 -14 10q0 6 20.5 28.5t20.5 41.5q0 12 -18 35t-18 46q0 29 19 46.5t42 17.5z" />
    <glyph glyph-name="uni0237" unicode="&#x237;" horiz-adv-x="285" 
d="M-8 -211q-60 0 -69 23q-6 15 20 23q1 1 2 1q53 16 73.5 47t31.5 104l52 361q6 40 -16 51q-20 12 -20 24q0 11 12 21t50 24q58 20 83 20q26 0 23 -27l-77 -511q-11 -78 -49.5 -119.5t-115.5 -41.5z" />
    <glyph glyph-name="circumflex" unicode="&#x2c6;" horiz-adv-x="500" 
d="M124 534q-15 1 -12 15q3 15 56 74q35 40 49.5 51t38.5 11h11.5t9.5 -2t7.5 -2.5t6.5 -4t5.5 -5t5.5 -8t6 -9.5t7 -12.5t8 -14.5q38 -70 38 -78q-3 -14 -17 -15q-40 -1 -100 69q-79 -70 -120 -69z" />
    <glyph glyph-name="caron" unicode="&#x2c7;" horiz-adv-x="500" 
d="M232 521q-24 0 -35 11t-35 51q-36 59 -36 74q3 14 17 15q40 1 100 -69q79 70 120 69q15 -1 12 -15q-2 -9 -59 -78q-4 -5 -12 -14.5t-10.5 -12.5t-8.5 -9.5t-8 -8t-7 -5t-8 -4t-8 -2.5t-10 -2h-12z" />
    <glyph glyph-name="breve" unicode="&#x2d8;" horiz-adv-x="500" 
d="M225 536q-60 0 -90.5 34.5t-24.5 85.5q2 26 18 26q9 0 16 -12q31 -54 93 -54q61 0 108 54q12 12 18 12q16 0 11 -26q-8 -51 -49.5 -85.5t-99.5 -34.5z" />
    <glyph glyph-name="dotaccent" unicode="&#x2d9;" horiz-adv-x="500" 
d="M239 574q-25 1 -40 16.5t-13 38.5q1 32 31.5 59t64.5 25q23 -1 39 -18t15 -39q-1 -31 -32 -57.5t-65 -24.5z" />
    <glyph glyph-name="ring" unicode="&#x2da;" horiz-adv-x="500" 
d="M223 507q-43 0 -68 26.5t-19 68.5q6 43 40 70.5t78 27.5q43 0 67.5 -26t19.5 -69q-7 -44 -40.5 -71t-77.5 -27zM234 554q22 0 36.5 15.5t16.5 37.5q0 22 -11.5 35.5t-31.5 13.5q-23 0 -37.5 -14.5t-16.5 -38.5q-1 -22 11 -35.5t33 -13.5z" />
    <glyph glyph-name="ogonek" unicode="&#x2db;" horiz-adv-x="500" 
d="M240 -195q-42 0 -70 22t-28 59q0 62 89 114h37q-53 -53 -53 -99q0 -24 14 -38t40 -14q17 0 39 9q16 7 21 -2.5t-5 -19.5q-31 -31 -84 -31z" />
    <glyph glyph-name="tilde" unicode="&#x2dc;" horiz-adv-x="500" 
d="M303 538q-24 0 -78 21t-81 21q-36 0 -39 -30q-3 -16 -15 -11q-17 7 -15 37q1 2 1 5q4 27 25.5 46t56.5 19q34 0 90.5 -21t70.5 -21q35 0 39 29q2 17 14 12q18 -8 14 -39v-3q-4 -28 -26 -46.5t-57 -18.5z" />
    <glyph glyph-name="hungarumlaut" unicode="&#x2dd;" horiz-adv-x="500" 
d="M108 538q-16 0 -16 14q0 15 35 83q19 33 32 47.5t30 14.5t29.5 -12t12.5 -33q0 -32 -45 -73t-78 -41zM258 537q-18 0 -18 14q0 15 40 82q15 22 22.5 31.5t19 18.5t22.5 9q17 0 29 -12t12 -32q0 -32 -46 -71.5t-81 -39.5z" />
    <glyph glyph-name="gravecomb" unicode="&#x300;" 
d="M-124 550q-35 -13 -98 12.5t-76 60.5q-8 22 0.5 39t27.5 24q18 6 37 -4t52 -37q62 -57 69 -75q5 -15 -12 -20z" />
    <glyph glyph-name="acutecomb" unicode="&#x301;" 
d="M-355 550q-17 5 -12 20q7 19 70 75q52 43 75 43q26 0 38 -20t3 -45q-13 -35 -76 -60.5t-98 -12.5z" />
    <glyph glyph-name="uni0302" unicode="&#x302;" 
d="M-375 538q-15 1 -13 15q2 13 56 74q35 40 49.5 51t38.5 11h11.5t9.5 -2t7.5 -2.5t6.5 -4t5.5 -5t5.5 -8t6 -9.5t7 -12.5t8 -14.5q39 -71 38 -78q-2 -14 -16 -15q-41 -1 -101 69q-79 -70 -119 -69z" />
    <glyph glyph-name="tildecomb" unicode="&#x303;" 
d="M-197 538q-24 0 -78 21t-81 21q-36 0 -39 -30q-3 -16 -15 -11q-17 7 -15 37q1 2 1 5q4 27 25.5 46t56.5 19q34 0 90.5 -21t70.5 -21q35 0 39 29q2 17 14 12q18 -8 14 -39v-3q-4 -28 -26 -46.5t-57 -18.5z" />
    <glyph glyph-name="uni0304" unicode="&#x304;" 
d="M-164 553h-227q-22 0 -27 6t0 22q6 19 13 24.5t30 5.5h227q24 0 29.5 -6t-0.5 -21q-5 -20 -12.5 -25.5t-32.5 -5.5z" />
    <glyph glyph-name="uni0306" unicode="&#x306;" 
d="M-275 536q-60 0 -90.5 34.5t-24.5 85.5q2 26 18 26q9 0 16 -12q31 -54 93 -54q61 0 108 54q12 12 18 12q16 0 11 -26q-8 -51 -49.5 -85.5t-99.5 -34.5z" />
    <glyph glyph-name="uni0307" unicode="&#x307;" 
d="M-211 555q-25 1 -40 16.5t-13 38.5q1 32 31.5 59.5t64.5 24.5q23 -1 39 -17.5t15 -39.5q-1 -31 -32 -57.5t-65 -24.5z" />
    <glyph glyph-name="uni0308" unicode="&#x308;" 
d="M-362 561q-21 0 -34.5 12.5t-13.5 32.5q0 26 19.5 47t45.5 21q23 0 37.5 -14t14.5 -36q0 -26 -21 -44.5t-48 -18.5zM-207 561q-21 0 -34.5 12.5t-13.5 32.5q0 26 19 47t46 21q23 0 37 -14t14 -36q0 -26 -20.5 -44.5t-47.5 -18.5z" />
    <glyph glyph-name="uni030A" unicode="&#x30a;" 
d="M-274 527q-43 0 -68 26.5t-19 68.5q6 43 40 70.5t78 27.5q43 0 67.5 -26t18.5 -69q-6 -44 -39.5 -71t-77.5 -27zM-263 574q22 0 36.5 15t16.5 38q0 22 -11.5 35.5t-31.5 13.5q-23 0 -38 -14.5t-17 -38.5q0 -22 12 -35.5t33 -13.5z" />
    <glyph glyph-name="uni030B" unicode="&#x30b;" 
d="M-392 538q-16 0 -16 14q0 15 35 83q19 33 32 47.5t30 14.5t29.5 -12t12.5 -33q0 -32 -45 -73t-78 -41zM-242 537q-18 0 -18 14q0 15 40 82q15 22 22.5 31.5t19 18.5t22.5 9q17 0 29 -12t12 -32q0 -32 -46 -71.5t-81 -39.5z" />
    <glyph glyph-name="uni030C" unicode="&#x30c;" 
d="M-262 563q-24 0 -35 11t-35 51q-36 59 -36 74q3 14 17 15q40 1 100 -69q79 70 120 69q15 -1 12 -15q-1 -3 -4 -8.5t-9.5 -14t-13 -16t-16 -19.5t-16.5 -20q-4 -5 -12 -14.5t-10.5 -12.5t-8.5 -9.5t-8 -8t-7 -5t-8 -4t-8 -2.5t-10 -2h-12z" />
    <glyph glyph-name="uni0312" unicode="&#x312;" 
d="M-272 524q-27 0 -42 18t-10 52q8 59 56 102q25 23 40 17q9 -3 0 -12q-22 -22 -25 -40q-3 -16 18 -33q29 -21 25 -50q-4 -23 -21.5 -38.5t-40.5 -15.5z" />
    <glyph glyph-name="uni0326" unicode="&#x326;" 
d="M-391 -275q-14 0 -14 10q0 6 20.5 28.5t20.5 41.5q0 12 -18 35t-18 46q0 29 19 46.5t42 17.5q26 0 43 -18t17 -48q0 -60 -40.5 -109.5t-71.5 -49.5z" />
    <glyph glyph-name="uni0327" unicode="&#x327;" 
d="M-250 -213q-56 0 -83 33q-8 10 -0.5 18t19.5 0q28 -15 49 -15t32.5 11.5t11.5 28.5q0 37 -66 52q-20 4 -12 18l36 67h42l-27 -52q93 -17 93 -79q0 -36 -27.5 -59t-67.5 -23z" />
    <glyph glyph-name="uni0328" unicode="&#x328;" 
d="M-260 -195q-42 0 -70 22t-28 59q0 62 89 114h37q-53 -53 -53 -99q0 -24 14 -38t40 -14q17 0 39 9q16 7 21 -2.5t-5 -19.5q-31 -31 -84 -31z" />
    <glyph glyph-name="uni0335" unicode="&#x335;" 
d="M-441 334h-207q-22 0 -22 24t22 24h207q22 0 22 -24t-22 -24z" />
    <glyph glyph-name="uni0336" unicode="&#x336;" 
d="M-71 491h-679q-22 0 -22 23v9q0 22 22 22h679q22 0 22 -22v-9q0 -23 -22 -23z" />
    <glyph glyph-name="uni0337" unicode="&#x337;" 
d="M-289 397l-236 -136q-19 -12 -31 12q-14 21 6 33l236 136q19 12 32 -11q12 -22 -7 -34z" />
    <glyph glyph-name="uni0338" unicode="&#x338;" 
d="M-590 -7q-22 0 -22 19q0 5 6 15l380 659q10 17 28 17q8 0 15 -4.5t7 -12.5q0 -7 -5 -17l-377 -655q-13 -21 -32 -21z" />
    <glyph glyph-name="uni0401" unicode="&#x401;" horiz-adv-x="632" 
d="M307 771q-20 0 -33.5 12t-13.5 32q0 26 19 47t46 21q23 0 37 -14t14 -36q0 -26 -20.5 -44t-48.5 -18zM462 771q-21 0 -34.5 12t-13.5 32q0 26 19.5 47t45.5 21q23 0 37.5 -14t14.5 -36q0 -26 -21 -44t-48 -18zM463 0h-393q-29 0 -40 5t-9 19q2 12 9 19t17 12t20.5 13.5
t20 30t14.5 54.5l55 394q5 37 1.5 55.5t-11.5 29t-16.5 14.5t-14 11t-3.5 19q2 14 14.5 19t41.5 5l380 1q43 0 56 -6t17 -27q11 -49 11 -105q2 -37 -19 -43q-14 -4 -22.5 3t-17.5 28q-21 49 -53 72t-86 23h-45q-63 0 -84 -10t-25 -36l-15 -111q-4 -32 13 -40.5t67 -8.5
q42 0 65 8t33.5 16.5t22.5 8.5q21 0 24 -31l7 -99q3 -27 -1.5 -36.5t-17.5 -13.5q-14 -3 -26 10.5t-21 32t-33.5 35t-59.5 16.5q-51 0 -70.5 -8.5t-24.5 -40.5l-33 -236q-4 -27 14.5 -38t83.5 -10l72 1q54 0 81 21.5t61 77.5q26 43 48 39q12 -3 14 -13.5t-2 -26.5
q-14 -70 -32 -115q-9 -21 -26 -29.5t-62 -8.5z" />
    <glyph glyph-name="uni0404" unicode="&#x404;" horiz-adv-x="679" 
d="M338 -10q-146 0 -225.5 103.5t-57.5 260.5q23 158 136.5 257t276.5 99q37 0 76 -7.5t48 -7.5q12 0 26 6.5t22 6.5q15 0 22.5 -11t10.5 -41q6 -67 5 -134q-3 -40 -24 -40q-11 0 -17.5 8t-18.5 31q-16 30 -28 47.5t-33.5 39.5t-52 32.5t-69.5 10.5q-99 0 -166 -73t-84 -183
q40 -24 77 -24q32 0 86.5 28.5t81.5 28.5q44 0 95.5 -35.5t48.5 -60.5q-4 -22 -28 -22q-10 0 -44 20t-57 20q-24 0 -70.5 -26t-77.5 -26q-55 0 -117 38q-3 -115 56.5 -185.5t161.5 -70.5t201 73q22 16 31 1q6 -15 -9 -38q-34 -50 -109.5 -88t-173.5 -38z" />
    <glyph glyph-name="uni0406" unicode="&#x406;" horiz-adv-x="344" 
d="M205 1h-135q-28 0 -39 5.5t-10 18.5q2 15 16 23.5t31 22t24 39.5q6 15 9 34l57 412q2 12 2 34q0 21 -8 34.5t-17 17.5t-15.5 12t-4.5 21q1 14 13.5 19t41.5 5h135q28 0 39 -5t10 -19q-2 -15 -16 -23.5t-31 -22t-24 -39.5q-4 -12 -8 -34l-58 -412q-2 -11 -2 -34
q0 -21 8 -34t17 -17.5t16 -12.5t5 -21q-4 -24 -56 -24z" />
    <glyph glyph-name="uni0407" unicode="&#x407;" horiz-adv-x="314" 
d="M143 771q-21 0 -32.5 12t-9.5 32q5 26 27 47t48 21q23 0 35.5 -14t9.5 -36q-4 -26 -27.5 -44t-50.5 -18zM298 771q-21 0 -33 12t-9 32q4 26 26 47t49 21q23 0 35 -14t9 -36q-4 -26 -27 -44t-50 -18zM174 1h-134q-28 0 -39.5 5.5t-10.5 18.5q2 15 16.5 23.5t31.5 22
t24 39.5q4 10 8 34l57 412q3 18 3 34q-1 21 -9 34.5t-17 17.5t-15.5 12t-4.5 21q1 14 13.5 19t42.5 5h134q29 0 40 -5t10 -19q-2 -15 -16.5 -23.5t-31.5 -22t-24 -39.5q-4 -12 -8 -34l-57 -412q-3 -16 -3 -34q1 -21 9 -34t17 -17.5t15.5 -12.5t4.5 -21q-1 -13 -14 -18.5
t-42 -5.5z" />
    <glyph glyph-name="uni0410" unicode="&#x410;" horiz-adv-x="701" 
d="M104 0h-85q-23 0 -34.5 5t-9.5 17q2 14 17 22.5t39 26.5t42 52l249 464q14 32 7.5 42t-18.5 22t-10 25q1 24 32 24h103q22 0 28 -22l141 -553q9 -35 25.5 -53t26.5 -25.5t8 -21.5q-4 -25 -54 -25h-139q-45 0 -42 23q2 11 13 20t21 15t16 23t-2 44l-12 50q-5 20 -16 24
q-16 6 -128 6q-106 0 -125.5 -3.5t-30.5 -25.5l-29 -53q-19 -42 -15 -54t16 -22.5t10 -22.5q-4 -24 -44 -24zM221 263q10 -5 109 -5t107 6q5 6 1 20l-69 275l-146 -275q-9 -18 -2 -21z" />
    <glyph glyph-name="uni0411" unicode="&#x411;" horiz-adv-x="674" 
d="M283 0h-212q-28 0 -40 5.5t-10 18.5q2 12 11 20.5t20 13.5t23 18t18 33q5 14 9 44l55 394q4 28 4 44q0 25 -13.5 39t-25 22.5t-9.5 23.5q4 24 56 24l376 1q44 0 58 -8.5t17 -30.5q6 -54 -1 -113q-3 -40 -23 -40t-33 39q-17 51 -40.5 74.5t-74.5 23.5h-59q-62 0 -83.5 -10
t-23.5 -34l-16 -109q-2 -10 3 -15.5t16 -4.5q9 1 32 1q158 0 238.5 -69t64.5 -181q-15 -109 -101 -166.5t-236 -57.5zM286 53q87 0 142.5 37.5t66.5 116.5q13 95 -45 155t-154 61q-24 1 -33 -5t-11 -22l-43 -312q-2 -17 13.5 -24t63.5 -7z" />
    <glyph glyph-name="uni0412" unicode="&#x412;" horiz-adv-x="664" 
d="M279 0h-208q-28 0 -40 5.5t-10 18.5q2 12 11 20.5t20 13.5t23 18t18 33q5 14 9 44l55 394q4 28 4 44q0 25 -13.5 39t-25 22.5t-9.5 23.5q4 24 56 24h183q117 0 177 -38t50 -115q-6 -47 -38.5 -81.5t-90.5 -47.5q87 -15 132 -66.5t35 -126.5q-16 -110 -104 -167.5
t-234 -57.5zM314 441q70 0 104.5 22t40.5 69q8 50 -25 82t-94 32q-28 0 -41 -7.5t-16 -28.5l-21 -148q-1 -8 2.5 -12.5t13.5 -6t15.5 -2t20.5 -0.5zM284 54q92 0 141.5 35.5t60.5 113.5q12 81 -37 131t-148 50q-31 0 -41.5 -7.5t-12.5 -27.5l-33 -225q-6 -39 7.5 -54.5
t62.5 -15.5z" />
    <glyph glyph-name="uni0413" unicode="&#x413;" horiz-adv-x="591" 
d="M205 1h-134q-28 0 -39.5 5.5t-10.5 18.5q2 15 16.5 23.5t31.5 22t24 39.5q7 18 8 34l56 403q4 28 4 44q0 25 -13.5 39t-25 22.5t-9.5 23.5q4 24 56 24l364 1q44 0 58 -8.5t16 -30.5q6 -54 -1 -113q-3 -40 -23 -40q-19 0 -32 39q-18 52 -41.5 75t-74.5 23h-46
q-62 0 -83 -10t-24 -34l-64 -458q-3 -16 -3 -34q1 -21 9 -34t17 -17.5t15.5 -12.5t4.5 -21q-1 -13 -14 -18.5t-42 -5.5z" />
    <glyph glyph-name="uni0414" unicode="&#x414;" horiz-adv-x="726" 
d="M-48 -132q-24 0 -17 39q12 67 29 109q9 21 23.5 29.5t47.5 8.5t51 31q120 202 160 490q4 24 -3.5 40t-18.5 22t-19.5 15t-6.5 21q2 15 14.5 21t46.5 6h406q28 0 39.5 -5.5t9.5 -18.5q-2 -15 -16 -23.5t-31 -22t-24 -39.5q-7 -19 -10 -44l-63 -451q-4 -28 0.5 -34.5
t25.5 -6.5q41 0 55 -8.5t17 -30.5q6 -43 -1 -108q-5 -39 -29 -39q-22 0 -36 38q-18 47 -42.5 70t-66.5 23l-358 -1q-43 0 -74 -22.5t-62 -70.5q-25 -38 -47 -38zM142 54l306 1l76 547q3 24 -15 34t-77 10q-54 0 -81 -9.5t-33 -38.5q-45 -197 -78 -302.5t-98 -241.5z" />
    <glyph glyph-name="uni0415" unicode="&#x415;" horiz-adv-x="632" 
d="M463 0h-393q-29 0 -40 5t-9 19q2 12 9 19t17 12t20.5 13.5t20 30t14.5 54.5l55 394q5 37 1.5 55.5t-11.5 29t-16.5 14.5t-14 11t-3.5 19q2 14 14.5 19t41.5 5l380 1q43 0 56 -6t17 -27q11 -49 11 -105q2 -37 -19 -43q-14 -4 -22.5 3t-17.5 28q-21 49 -53 72t-86 23h-45
q-63 0 -84 -10t-25 -36l-15 -111q-4 -32 13 -40.5t67 -8.5q42 0 65 8t33.5 16.5t22.5 8.5q21 0 24 -31l7 -99q3 -27 -1.5 -36.5t-17.5 -13.5q-14 -3 -26 10.5t-21 32t-33.5 35t-59.5 16.5q-51 0 -70.5 -8.5t-24.5 -40.5l-33 -236q-4 -27 14.5 -38t83.5 -10l72 1
q54 0 81 21.5t61 77.5q26 43 48 39q12 -3 14 -13.5t-2 -26.5q-14 -70 -32 -115q-9 -21 -26 -29.5t-62 -8.5z" />
    <glyph glyph-name="uni0416" unicode="&#x416;" horiz-adv-x="1092" 
d="M183 0h-162q-17 0 -27 5t-9 16q2 9 12 16.5t23.5 14t33 23.5t34.5 41l225 351l-91 127q-17 24 -40.5 40t-36.5 24.5t-11 21.5q1 20 50 20h107q19 0 28 -4.5t8 -15.5q-2 -9 -11.5 -17.5t-17.5 -15t-9.5 -20.5t13.5 -33l191 -273l37 259q3 24 -2 41t-13 24t-14 16t-4 18
q1 20 47 20h122q25 0 34 -4.5t8 -15.5q-1 -10 -9.5 -19t-18.5 -16t-20 -24t-13 -40l-37 -262l271 276q19 20 22.5 33.5t-3 20t-14 15t-5.5 17.5q1 20 41 20h107q26 0 36 -4.5t9 -15.5q-2 -13 -17 -21.5t-43.5 -24.5t-52.5 -40l-121 -122l128 -356q11 -31 31.5 -49
t33.5 -26.5t11 -19.5q-3 -21 -42 -21h-161q-35 0 -33 20q2 10 15.5 23t18.5 24.5t-3 45.5l-91 268l-150 -152l-15 -109q-4 -30 5 -48.5t19.5 -29.5t8.5 -22q-3 -20 -47 -20h-122q-25 0 -35 5t-8 16q1 10 28.5 35t33.5 64l15 112l-102 144l-163 -263q-18 -34 -15.5 -45.5
t11.5 -24.5t8 -23q-2 -20 -37 -20z" />
    <glyph glyph-name="uni0417" unicode="&#x417;" horiz-adv-x="568" 
d="M205 -9q-61 1 -104 13q-34 9 -51 24.5t-21 47.5q-5 64 -2 98q1 15 7.5 24t18.5 8q17 -2 30 -39q40 -120 153 -120q62 0 105.5 37.5t53.5 101.5q10 77 -31.5 122t-146.5 49q-23 1 -24 21q-2 23 21 31q5 2 11 3q166 15 182 144q7 46 -16.5 72t-65.5 26q-28 0 -52.5 -9.5
t-46 -29.5t-33.5 -34.5t-32 -40.5q-27 -37 -48 -37q-20 0 -12 39q9 54 32 114q11 31 21 42t25 11q8 0 20.5 -6.5t25.5 -6.5q8 0 48.5 6.5t77.5 6.5q84 0 136.5 -39t43.5 -115q-7 -60 -54.5 -106t-113.5 -62q87 -16 127.5 -66.5t30.5 -120.5q-14 -103 -102.5 -157t-213.5 -52
z" />
    <glyph glyph-name="uni0418" unicode="&#x418;" horiz-adv-x="827" 
d="M205 0h-135q-28 0 -39 5.5t-10 18.5q2 14 13.5 24.5t24 17.5t25.5 27t17 51l57 412q5 34 -1.5 54.5t-17 27t-18.5 15.5t-6 22q1 14 13.5 19t41.5 5h135q28 0 39 -5t10 -19q-2 -13 -13 -22.5t-23.5 -16.5t-25.5 -27.5t-17 -52.5l-48 -340l413 358q3 21 -1 36t-11.5 22.5
t-15.5 13t-13 12.5t-4 17q1 14 14 19t42 5h135q28 0 39 -5t10 -19q-2 -13 -13 -23t-24 -16.5t-25.5 -27t-17.5 -52.5l-57 -412q-4 -35 2.5 -55.5t17 -26t18 -14t5.5 -23.5q-1 -13 -13.5 -18.5t-41.5 -5.5h-135q-28 0 -39 5.5t-10 18.5q2 13 13 23.5t24 18t25.5 27t16.5 50.5
l50 356l-415 -359q-4 -27 0 -45.5t12 -26.5t16 -13t13.5 -12.5t3.5 -19.5q-4 -24 -56 -24z" />
    <glyph glyph-name="uni0419" unicode="&#x419;" horiz-adv-x="827" 
d="M483 753q-69 0 -110.5 30t-34.5 77q3 16 15.5 27t28.5 11q19 0 31 -16t18 -34.5t20.5 -34.5t37.5 -16q22 0 41 16t30 34.5t28 34.5t36 16q16 0 25 -11t7 -27q-7 -47 -57.5 -77t-115.5 -30zM205 0h-135q-28 0 -39 5.5t-10 18.5q2 14 13.5 24.5t24 17.5t25.5 27t17 51
l57 412q5 34 -1.5 54.5t-17 27t-18.5 15.5t-6 22q1 14 13.5 19t41.5 5h135q28 0 39 -5t10 -19q-2 -13 -13 -22.5t-23.5 -16.5t-25.5 -27.5t-17 -52.5l-48 -340l413 358q3 21 -1 36t-11.5 22.5t-15.5 13t-13 12.5t-4 17q1 14 14 19t42 5h135q28 0 39 -5t10 -19
q-2 -13 -13 -23t-24 -16.5t-25.5 -27t-17.5 -52.5l-57 -412q-4 -35 2.5 -55.5t17 -26t18 -14t5.5 -23.5q-1 -13 -13.5 -18.5t-41.5 -5.5h-135q-28 0 -39 5.5t-10 18.5q2 13 13 23.5t24 18t25.5 27t16.5 50.5l50 356l-415 -359q-4 -27 0 -45.5t12 -26.5t16 -13t13.5 -12.5
t3.5 -19.5q-4 -24 -56 -24z" />
    <glyph glyph-name="uni041A" unicode="&#x41a;" horiz-adv-x="710" 
d="M569 700h114q28 0 40 -5.5t10 -18.5q-2 -17 -14.5 -23.5t-44.5 -20.5t-64 -41l-95 -79l121 -389q8 -26 21.5 -42.5t24 -22t17.5 -13.5t5 -21q-4 -24 -48 -24h-131q-29 0 -40.5 5.5t-9.5 20.5q1 11 15.5 24t21 24.5t-0.5 45.5l-93 314l-182 -150l-19 -140
q-5 -34 1.5 -54.5t17 -26t19 -14.5t6.5 -24q-4 -24 -57 -24h-134q-28 0 -39.5 5.5t-9.5 18.5q2 14 13 24t23.5 17t25.5 27t17 51l58 412q4 28 0 46.5t-12 26.5t-16 13t-13 13t-3 20q2 14 14 19t42 5h134q29 0 40 -5t10 -19q-2 -13 -13.5 -23.5t-24 -17.5t-25.5 -27t-17 -51
l-27 -196l281 231q22 19 26 31.5t-4 18t-16.5 14.5t-6.5 20q4 25 42 25z" />
    <glyph glyph-name="uni041B" unicode="&#x41b;" horiz-adv-x="731" 
d="M56 -10q-37 0 -64.5 22t-21.5 65q5 30 23.5 46.5t40.5 16.5q16 0 26 -9.5t13.5 -20.5t11.5 -20.5t21 -9.5q46 0 96 152t77 343q4 25 -2.5 43t-16.5 25.5t-18 17t-6 19.5q1 20 56 20h391q31 0 42 -4.5t9 -15.5q-1 -10 -11 -19t-21 -16.5t-22 -24.5t-14 -40l-61 -436
q-2 -11 -2 -34q0 -21 8 -34t17 -17.5t15.5 -12.5t4.5 -21q-1 -13 -13.5 -18.5t-41.5 -5.5h-135q-28 0 -39 5.5t-10 18.5q2 15 16 23.5t31 22t24 39.5q4 10 8 34l65 458q2 24 -16 34t-75 10q-58 0 -84.5 -9t-32.5 -39q-3 -17 -14 -70.5t-15.5 -75.5t-15 -70.5t-17 -73
t-17.5 -64.5t-20.5 -64t-21.5 -53t-25.5 -49.5t-27.5 -36.5q-46 -51 -115 -51z" />
    <glyph glyph-name="uni041C" unicode="&#x41c;" horiz-adv-x="917" 
d="M140 0h-78q-24 0 -34 5t-8 19q1 11 11 19t21.5 14.5t23.5 23t17 41.5l82 456q4 23 -1.5 39.5t-14.5 23t-16.5 16t-5.5 20.5q3 23 46 23h98q24 0 31 -22l134 -480l288 480q13 22 36 22h92q23 0 32 -5t8 -18q-2 -12 -11.5 -20.5t-20.5 -14.5t-21 -22.5t-13 -41.5l-47 -441
q-3 -29 4.5 -47.5t17.5 -24.5t18 -15.5t6 -24.5q-2 -14 -13.5 -19.5t-38.5 -5.5h-132q-28 0 -39.5 5.5t-8.5 19.5q2 14 12 24t22 16.5t23.5 25t14.5 46.5l48 414l-292 -484q-12 -19 -34 -24q-28 -7 -35 13l-134 489l-75 -423q-4 -25 1 -41.5t14 -23t16 -15t5 -19.5
q-2 -14 -13 -18.5t-36 -4.5z" />
    <glyph glyph-name="uni041D" unicode="&#x41d;" horiz-adv-x="818" 
d="M205 0h-135q-28 0 -39 5.5t-10 18.5q2 15 16 23.5t31 22.5t24 39q6 19 9 34l57 414q2 22 2 34q0 21 -8 34t-17 17.5t-15.5 12.5t-4.5 21q1 13 13.5 18.5t41.5 5.5h135q28 0 39 -5.5t10 -18.5q-2 -15 -16 -23.5t-31 -22t-24 -39.5q-7 -20 -8 -34l-15 -109q-4 -30 5 -37
q14 -12 120 -12h50q137 0 158 8q17 6 21 32q0 3 1 9l15 109q3 16 3 34q-1 21 -9 34t-17 17.5t-15.5 12.5t-4.5 21q1 13 14 18.5t42 5.5h134q28 0 39.5 -5.5t10.5 -18.5q-2 -15 -16.5 -23.5t-31.5 -22t-24 -39.5q-7 -20 -8 -34l-57 -414q-3 -17 -3 -34q1 -21 9 -34t17 -17.5
t15.5 -12.5t4.5 -21q-1 -13 -14 -18.5t-42 -5.5h-134q-28 0 -39.5 5.5t-10.5 18.5q2 12 11 20.5t20 13.5t23 18t18 33q7 20 8 34l21 153q4 31 -5 38q-14 11 -118 11h-45q-143 0 -165 -8q-17 -6 -21 -30l-2 -11l-21 -153q-2 -22 -2 -34q0 -21 8 -34t17 -17.5t16 -12.5t5 -21
q-4 -24 -56 -24z" />
    <glyph glyph-name="uni041E" unicode="&#x41e;" horiz-adv-x="776" 
d="M354 -7q-128 2 -215.5 86.5t-87.5 216.5q0 110 53.5 205t147 151t205.5 56q139 0 219.5 -86t80.5 -212q0 -177 -115.5 -299t-287.5 -118zM388 56q111 0 176.5 103t65.5 240q0 113 -51 181.5t-142 68.5q-113 0 -187 -103t-74 -240q0 -114 57 -182t155 -68z" />
    <glyph glyph-name="uni041F" unicode="&#x41f;" horiz-adv-x="784" 
d="M205 1h-134q-28 0 -39.5 5.5t-10.5 18.5q2 12 11 20.5t20 13.5t23 18t18 33q4 12 8 34l56 403q4 28 4 44q0 25 -13.5 39t-25 22.5t-9.5 23.5q4 24 56 24h575q28 0 39.5 -5.5t9.5 -18.5q-2 -15 -16 -23.5t-31 -22t-24 -39.5q-5 -14 -9 -44l-57 -403q-2 -11 -2 -34
q1 -21 9 -34t17 -17.5t15.5 -12.5t4.5 -21q-1 -13 -14 -18.5t-42 -5.5h-135q-28 0 -39 5.5t-10 18.5q2 15 16 23.5t31 22.5t24 39q6 19 9 34l63 456q3 18 -5.5 26.5t-42.5 13.5t-103 5q-74 0 -110.5 -5t-47 -13.5t-13.5 -26.5l-63 -456q-3 -16 -3 -34q1 -21 9 -34t17 -17.5
t15.5 -12.5t4.5 -21q-1 -13 -14 -18.5t-42 -5.5z" />
    <glyph glyph-name="uni0420" unicode="&#x420;" horiz-adv-x="657" 
d="M205 1h-134q-28 0 -39.5 5.5t-10.5 18.5q2 13 13 22t23.5 15t25.5 27t18 55l56 403q6 41 -0.5 64.5t-17.5 29t-19.5 13.5t-6.5 22q4 24 56 24h184q156 0 234.5 -71t62.5 -183q-16 -111 -101.5 -169.5t-235.5 -58.5h-65q-14 0 -17.5 -3t-5.5 -17q-6 -44 -8 -69
q-2 -22 2 -37.5t11.5 -22.5t15 -12.5t12.5 -13t3 -18.5q-1 -13 -14 -18.5t-42 -5.5zM316 270q187 0 209 159q14 98 -37.5 158.5t-143.5 60.5q-35 0 -46.5 -5.5t-13.5 -21.5l-45 -320q-2 -17 14 -24t63 -7z" />
    <glyph glyph-name="uni0421" unicode="&#x421;" horiz-adv-x="694" 
d="M356 -10q-153 0 -238 104.5t-63 261.5q22 156 142 255t282 99q37 0 76 -7.5t47 -7.5q13 0 27 6.5t22 6.5q15 0 22.5 -11t10.5 -41q6 -64 7 -134q-2 -39 -25 -40q-13 -1 -21.5 7.5t-21.5 31.5q-18 31 -29 47.5t-33 38.5t-51.5 32t-69.5 10q-100 0 -170.5 -75.5
t-86.5 -185.5q-18 -138 41.5 -230.5t176.5 -92.5q112 0 214 95q20 19 30 3q9 -15 -6 -36q-36 -52 -112.5 -94.5t-170.5 -42.5z" />
    <glyph glyph-name="uni0422" unicode="&#x422;" horiz-adv-x="650" 
d="M358 1h-135q-28 0 -39 5.5t-10 18.5q2 15 16 23.5t31 22t24 39.5q6 15 9 34l63 453q3 24 -6.5 35.5t-35.5 11.5q-50 0 -75 -20t-63 -77q-25 -39 -42 -39q-24 0 -17 39q10 68 30 115q9 21 26 29.5t61 8.5l388 1q45 0 60 -8.5t18 -30.5q6 -43 -2 -114q-5 -39 -28 -39
q-18 0 -32 38q-12 31 -18 44t-18.5 28.5t-29.5 20.5t-43 5q-49 0 -56 -47l-64 -454q-2 -11 -2 -34q0 -21 8 -34t17 -17.5t16 -12.5t5 -21q-4 -24 -56 -24z" />
    <glyph glyph-name="uni0423" unicode="&#x423;" horiz-adv-x="662" 
d="M150 -10q-34 0 -60.5 19t-21.5 58q4 26 22.5 43.5t39.5 17.5q16 0 26 -7.5t13.5 -17t10.5 -17t19 -7.5q38 0 87 85q5 9 1 19l-165 403q-10 25 -26 43t-24.5 28t-6.5 23q1 20 41 20h145q25 0 34.5 -5t8.5 -16q-1 -10 -16.5 -23.5t-22.5 -25t2 -44.5l115 -285l162 276
q21 42 17.5 53.5t-15.5 22t-10 22.5q2 24 44 24h85q47 0 44 -22q-2 -12 -11.5 -20t-22.5 -13.5t-32 -23t-35 -43.5l-232 -391q-66 -113 -113.5 -154.5t-102.5 -41.5z" />
    <glyph glyph-name="uni0424" unicode="&#x424;" horiz-adv-x="830" 
d="M447 0h-135q-28 0 -39.5 5.5t-9.5 18.5t12.5 20.5t22.5 12t24 21t16 43.5q1 6 -0.5 9t-6.5 2q-50 -2 -67 -2q-102 0 -160.5 63.5t-44.5 160.5q13 95 88 157t172 62q37 0 74 -4q5 -1 7.5 2t3.5 9q2 23 -3 37.5t-12.5 20.5t-15.5 10t-13 10.5t-3 17.5q1 13 13.5 18.5
t41.5 5.5h135q28 0 39.5 -5.5t9.5 -18.5t-12 -20.5t-21.5 -12t-24 -20.5t-18.5 -42q-2 -6 0 -9t7 -2q43 3 76 3q101 0 156.5 -62t42.5 -157q-14 -98 -91 -161t-177 -63q-30 0 -66 3q-10 1 -12 -11q-3 -29 4 -45.5t17.5 -21t19 -11.5t6.5 -20q-4 -24 -56 -24zM312 180
q14 0 36 4l47 335q-16 3 -34 3q-80 0 -127 -45.5t-59 -125.5q-10 -74 28 -122.5t109 -48.5zM502 180q72 0 121.5 48t59.5 123q12 80 -22 125.5t-114 45.5q-13 0 -35 -2l-48 -337q20 -3 38 -3z" />
    <glyph glyph-name="uni0425" unicode="&#x425;" horiz-adv-x="728" 
d="M107 1h-89q-47 0 -44 22q2 12 12.5 19.5t25 12t36.5 19t41 37.5l204 237l-143 235q-14 23 -31 39t-28 21.5t-17.5 13t-5.5 18.5q2 14 14 19t38 5h162q22 0 32 -5t9 -18q-2 -10 -12.5 -19t-19 -15t-10.5 -21t14 -38l100 -166l150 172q20 24 25 38t-0.5 18.5t-11.5 12
t-5 17.5q4 24 44 24h90q22 0 33.5 -5t10.5 -17q-2 -12 -12.5 -19.5t-25 -12t-36.5 -19t-42 -37.5l-191 -219l154 -253q14 -23 31 -39t28 -21.5t18 -13t5 -18.5q-2 -24 -51 -24h-163q-43 0 -40 23q2 10 12.5 19t19 15t10.5 21t-14 38l-112 184l-163 -191q-20 -23 -25 -37
t0.5 -18.5t12 -12t4.5 -17.5q-2 -24 -44 -24z" />
    <glyph glyph-name="uni0426" unicode="&#x426;" horiz-adv-x="800" 
d="M713 -131q-13 0 -20.5 8.5t-15.5 29.5q-19 48 -43 70.5t-66 22.5h-498q-28 0 -39.5 5.5t-9.5 18.5q2 15 16 23.5t31 22.5t24 39q6 19 10 44l56 403q2 12 2 34q0 21 -8 34.5t-17 17.5t-15.5 12t-4.5 21q1 14 13.5 19t41.5 5h135q28 0 39 -5t10 -19q-2 -15 -16 -23.5
t-31 -22t-24 -39.5q-4 -12 -8 -34l-64 -456q-3 -18 6 -26.5t44 -13.5t107 -5q71 0 106.5 5t45.5 13.5t13 26.5l64 456q2 12 2 34q-1 21 -9 34.5t-17 17.5t-15.5 12t-4.5 21q1 14 13.5 19t42.5 5h135q28 0 39 -5t10 -19q-2 -15 -16 -23.5t-31 -22t-24 -39.5q-6 -17 -9 -34
l-64 -460q-5 -41 33 -41q34 0 46 -8.5t14 -30.5q6 -43 -1 -108q-4 -39 -28 -39z" />
    <glyph glyph-name="uni0427" unicode="&#x427;" horiz-adv-x="724" 
d="M583 1h-135q-28 0 -39 5.5t-10 18.5q2 15 16 23.5t31 22t24 39.5q4 10 8 34l18 123q-123 -20 -203 -20q-70 0 -115.5 20t-63 53t-23 77t4.5 92l9 66q2 11 2 34q0 21 -8 34t-17 17.5t-16 12.5t-5 21q4 24 56 24h135q28 0 39.5 -5.5t9.5 -18.5q-2 -15 -16 -23.5t-31 -22
t-24 -39.5q-6 -19 -9 -34l-6 -45q-8 -59 -8 -105t29.5 -74t92.5 -28q73 0 174 19l33 234q2 12 2 34q0 21 -8 34.5t-17 17.5t-16 12t-5 21q2 14 14.5 19t41.5 5h135q28 0 39 -5t10 -19q-2 -15 -16 -23.5t-31 -22t-24 -39.5q-6 -17 -9 -34l-57 -412q-2 -11 -2 -34q0 -21 8 -34
t17 -17.5t15.5 -12.5t4.5 -21q-1 -13 -13.5 -18.5t-41.5 -5.5z" />
    <glyph glyph-name="uni0428" unicode="&#x428;" horiz-adv-x="1104" 
d="M964 0h-894q-28 0 -39.5 5.5t-9.5 18.5q2 15 16 23.5t31 22.5t24 39q6 19 10 44l56 403q2 12 2 34q0 21 -8 34.5t-17 17.5t-15.5 12t-4.5 21q1 14 13.5 19t41.5 5h135q28 0 39 -5t10 -19q-2 -15 -16 -23.5t-31 -22t-24 -39.5q-4 -12 -8 -34l-64 -456q-4 -26 19.5 -35.5
t107.5 -9.5q82 0 106.5 9.5t28.5 35.5l64 456q2 12 2 34q-1 21 -9 34.5t-17 17.5t-15.5 12t-4.5 21q1 14 13.5 19t42.5 5h135q28 0 39 -5t10 -19q-2 -15 -16 -23.5t-31 -22t-24 -39.5q-6 -17 -9 -34l-63 -456q-4 -26 19.5 -35.5t106.5 -9.5q82 0 107 9.5t29 35.5l63 456
q3 18 3 34q-1 21 -9 34.5t-17 17.5t-15.5 12t-4.5 21q1 14 13.5 19t42.5 5h134q29 0 40 -5t10 -19q-2 -15 -16.5 -23.5t-31.5 -22t-24 -39.5q-4 -12 -8 -34l-56 -403q-4 -28 -4 -44q0 -20 8.5 -33t18 -18t16.5 -13.5t5 -20.5q-4 -24 -56 -24z" />
    <glyph glyph-name="uni0429" unicode="&#x429;" horiz-adv-x="1119" 
d="M1032 -131q-13 0 -21 8.5t-16 29.5q-18 47 -42.5 70t-66.5 23h-816q-28 0 -39.5 5.5t-9.5 18.5q2 15 16 23.5t31 22.5t24 39q6 19 10 44l56 403q2 12 2 34q0 21 -8 34.5t-17 17.5t-15.5 12t-4.5 21q1 14 13.5 19t41.5 5h135q28 0 39 -5t10 -19q-2 -15 -16 -23.5t-31 -22
t-24 -39.5q-4 -12 -8 -34l-64 -456q-4 -26 19.5 -35.5t107.5 -9.5q82 0 106.5 9.5t28.5 35.5l64 456q2 12 2 34q-1 21 -9 34.5t-17 17.5t-15.5 12t-4.5 21q1 14 13.5 19t42.5 5h135q28 0 39 -5t10 -19q-2 -15 -16 -23.5t-31 -22t-24 -39.5q-6 -17 -9 -34l-63 -456
q-4 -26 19.5 -35.5t106.5 -9.5q82 0 107 9.5t29 35.5l63 456q3 18 3 34q-1 21 -9 34.5t-17 17.5t-15.5 12t-4.5 21q1 14 13.5 19t42.5 5h134q29 0 40 -5t10 -19q-2 -15 -16.5 -23.5t-31.5 -22t-24 -39.5q-4 -12 -8 -34l-64 -460q-6 -41 33 -41q33 0 45.5 -9t14.5 -30
q6 -43 -1 -108q-4 -39 -28 -39z" />
    <glyph glyph-name="uni042A" unicode="&#x42a;" horiz-adv-x="727" 
d="M375 0h-213q-27 0 -38.5 6t-9.5 19q2 15 16 24t31 23t24 39q6 22 9 44l61 435q5 35 -7 45.5t-34 10.5q-41 0 -67.5 -27.5t-63.5 -88.5q-22 -38 -40 -38q-21 0 -15 39q13 79 35 131q8 21 25 29.5t63 8.5h246q28 0 39.5 -5.5t10.5 -18.5q-2 -12 -11.5 -20t-20.5 -13
t-22.5 -18.5t-17.5 -33.5q-5 -14 -9 -44l-8 -54q-2 -10 3 -15.5t15 -4.5t33 1q158 0 238 -69t64 -181q-14 -108 -100.5 -166t-235.5 -58zM378 53q87 0 142.5 37.5t66.5 116.5q13 95 -45 155t-154 61q-24 1 -33 -5t-11 -22l-43 -312q-2 -17 13.5 -24t63.5 -7z" />
    <glyph glyph-name="uni042B" unicode="&#x42b;" horiz-adv-x="964" 
d="M283 0h-213q-28 0 -39.5 5.5t-9.5 18.5q2 15 16 23.5t31 22.5t24 39q6 19 10 44l56 403q2 12 2 34q0 21 -8 34.5t-17 17.5t-15.5 12t-4.5 21q1 14 13.5 19t41.5 5h135q28 0 39 -5t10 -19q-2 -15 -16 -23.5t-31 -22t-24 -39.5q-4 -12 -8 -34l-9 -63q-2 -10 3 -15.5
t15 -4.5t33 1q158 0 238 -69t64 -181q-15 -109 -101 -166.5t-235 -57.5zM823 1h-135q-28 0 -39 5.5t-10 18.5q2 15 16 23.5t31 22t24 39.5q6 15 9 34l57 412q2 12 2 34q0 21 -8 34.5t-17 17.5t-15.5 12t-4.5 21q1 14 13.5 19t41.5 5h135q29 0 40 -5t9 -19q-2 -15 -16 -23.5
t-31 -22t-24 -39.5q-4 -12 -8 -34l-58 -412q-2 -11 -2 -34q1 -21 9 -34t17 -17.5t15.5 -12.5t4.5 -21q-1 -13 -14 -18.5t-42 -5.5zM285 52q87 0 142.5 38t67.5 117q12 95 -45.5 155t-153.5 61q-24 1 -33 -5t-11 -22l-44 -314q-2 -17 13.5 -23.5t63.5 -6.5z" />
    <glyph glyph-name="uni042C" unicode="&#x42c;" horiz-adv-x="635" 
d="M283 0h-213q-28 0 -39.5 5.5t-9.5 18.5q2 15 16 23.5t31 22.5t24 39q6 19 10 44l56 403q2 12 2 34q0 21 -8 34.5t-17 17.5t-15.5 12t-4.5 21q1 14 13.5 19t41.5 5h135q28 0 39 -5t10 -19q-2 -15 -16 -23.5t-31 -22t-24 -39.5q-4 -12 -8 -34l-9 -63q-2 -10 3 -15.5
t15 -4.5t33 1q158 0 238 -69t64 -181q-15 -109 -101 -166.5t-235 -57.5zM285 52q87 0 142.5 38t67.5 117q12 95 -45.5 155t-153.5 61q-24 1 -33 -5t-11 -22l-44 -314q-2 -17 13.5 -23.5t63.5 -6.5z" />
    <glyph glyph-name="uni042D" unicode="&#x42d;" horiz-adv-x="674" 
d="M233 -8q-70 0 -126 15q-34 9 -51 24.5t-21 47.5q-5 64 -2 98q1 15 8 24t19 8q16 -2 34 -42q53 -119 180 -119q94 0 161 86t88 204q-75 -40 -131 -40q-31 0 -70.5 26t-63.5 26q-23 0 -62.5 -20t-49.5 -20q-24 0 -22 22q4 25 65.5 60.5t105.5 35.5q27 0 73.5 -28.5
t77.5 -28.5q38 0 84 23q9 117 -37 190.5t-140 73.5q-39 0 -72.5 -11.5t-60.5 -35t-43 -41.5t-38 -48q-17 -24 -25.5 -32t-19.5 -8q-21 0 -14 40q11 66 36 134q11 30 21.5 41t24.5 11q8 0 21 -6.5t26 -6.5q6 0 55.5 7.5t97.5 7.5q152 0 232 -98.5t59 -249.5
q-23 -163 -138 -267t-282 -103z" />
    <glyph glyph-name="uni042E" unicode="&#x42e;" horiz-adv-x="1078" 
d="M759 708q139 0 219.5 -86t80.5 -212q0 -177 -115 -299t-287 -118q-128 2 -215.5 86.5t-87.5 216.5q0 20 1 30h-113l-25 -182q-5 -34 1.5 -54.5t17 -26t19 -14.5t6.5 -24q-4 -24 -57 -24h-134q-28 0 -39.5 5.5t-9.5 18.5q2 14 13 24t23.5 17t25.5 27t17 51l58 412
q4 28 0 46.5t-12 26.5t-16 13t-13 13t-3 20q2 14 14 19t42 5h134q29 0 40 -5t10 -19q-2 -13 -13.5 -23.5t-24 -17.5t-25.5 -27t-17 -51l-24 -176h113q28 140 138.5 234t257.5 94zM690 56q75 0 132 51t84 128t27 164q0 113 -51 181.5t-143 68.5q-75 0 -135.5 -49.5
t-92.5 -127.5t-32 -166q0 -114 56.5 -182t154.5 -68z" />
    <glyph glyph-name="uni042F" unicode="&#x42f;" horiz-adv-x="672" 
d="M164 0h-128q-24 0 -34 5.5t-8 18.5q2 16 15 24t36 23.5t42 44.5l100 150q-113 55 -97 184q16 112 112.5 181t251.5 69h177q28 0 39.5 -5.5t10.5 -18.5q-2 -15 -16.5 -23.5t-31.5 -22t-24 -39.5q-5 -14 -9 -44l-56 -403q-3 -17 -3 -34q0 -25 13.5 -39t25 -22.5t9.5 -23.5
q-3 -24 -56 -24h-134q-29 0 -40 5.5t-10 18.5q2 13 10.5 21t19 12.5t22.5 17.5t18 34q4 10 8 34l9 68q2 14 -0.5 17t-16.5 3h-65q-33 0 -68 5l-77 -117q-17 -33 -14.5 -44.5t12.5 -25t9 -24.5q-4 -26 -52 -26zM365 285q48 0 66 6.5t20 23.5l42 303q2 15 -3 20t-23 7
q-19 3 -39 3q-87 0 -143.5 -46.5t-68.5 -130.5q-12 -85 30.5 -135.5t118.5 -50.5z" />
    <glyph glyph-name="uni0430" unicode="&#x430;" horiz-adv-x="616" 
d="M559 100q13 0 12 -17q-2 -32 -34 -61.5t-76 -29.5q-39 0 -60.5 22.5t-19.5 81.5q-32 -48 -80 -77t-102 -29q-71 0 -118 48t-47 131q0 130 78.5 225t187.5 95q28 0 66.5 -10t47.5 -10q15 0 42 10.5t38 10.5q28 0 25 -40l-22 -337q-3 -41 18 -41q9 0 23 14t21 14zM247 68
q57 0 101 67t50 157l2 30q4 54 -25.5 85t-74.5 31t-79.5 -39t-50.5 -91t-17 -104q0 -71 27 -103.5t67 -32.5z" />
    <glyph glyph-name="uni0431" unicode="&#x431;" horiz-adv-x="586" 
d="M272 566q-54 -15 -89 -68.5t-36 -144.5q33 64 90.5 102t126.5 38q91 0 141.5 -58t44.5 -148q-6 -123 -92 -210t-200 -87q-108 0 -169 79t-40 235q17 127 69 219.5t139 133.5q51 27 157 34q66 3 93 17q10 4 23.5 10.5t19.5 9.5q11 8 20.5 3t6.5 -22q-8 -65 -88 -102
q-35 -17 -105 -22t-112 -19zM164 205q-3 -72 24.5 -116t79.5 -44q72 -1 119 76t47 178q0 56 -25.5 94t-79.5 38q-67 0 -113.5 -67t-51.5 -159z" />
    <glyph glyph-name="uni0432" unicode="&#x432;" horiz-adv-x="523" 
d="M246 -10q-91 0 -150.5 55.5t-59.5 145.5q0 118 89.5 208.5t206.5 90.5q69 -1 111 -26.5t42 -75.5q0 -43 -33.5 -77.5t-84.5 -46.5q48 -8 75.5 -36.5t27.5 -68.5q0 -75 -64.5 -122t-159.5 -47zM258 41q38 0 63.5 30.5t25.5 76.5q0 38 -28.5 60t-74.5 24q-12 0 -18 6t-5 14
q1 10 10 18t23 9q55 3 89 31t34 70q0 26 -18 43.5t-48 17.5q-69 0 -115 -78.5t-46 -166.5q0 -69 26 -112t82 -43z" />
    <glyph glyph-name="uni0433" unicode="&#x433;" horiz-adv-x="430" 
d="M161 -9q-73 0 -105.5 32t-32.5 76q0 21 8.5 41t18 34t31 31t33.5 25t40 25t37 22q81 50 80 103q-2 39 -53 39q-55 0 -124 -48q-18 -12 -30 -3t2 30q29 42 79.5 67t108.5 25q57 0 92.5 -25.5t35.5 -69.5q0 -24 -9.5 -46t-19.5 -35.5t-35.5 -32t-35.5 -25t-42 -24.5
q-25 -15 -39 -24t-31 -23.5t-24.5 -29.5t-7.5 -33q0 -53 64 -53q65 0 140 54q12 9 21 5.5t9 -14t-9 -23.5q-23 -35 -77 -67.5t-125 -32.5z" />
    <glyph glyph-name="uni0434" unicode="&#x434;" horiz-adv-x="552" 
d="M523 364q1 -100 -31 -184t-97 -137t-153 -53q-91 0 -147 58t-56 158q0 116 71 199.5t179 82.5q73 -2 111 -47q-14 87 -56 137.5t-112 81.5q-17 6 -17 19q2 26 53 22q111 -22 182.5 -109t72.5 -228zM256 44q46 0 80.5 40.5t49.5 96.5t15 115q0 61 -24.5 97.5t-75.5 36.5
q-69 0 -107.5 -72.5t-38.5 -166.5q0 -64 25.5 -105.5t75.5 -41.5z" />
    <glyph glyph-name="uni0435" unicode="&#x435;" horiz-adv-x="528" 
d="M439 138q16 14 27 6t0 -28q-24 -46 -86 -86t-141 -40q-89 0 -146 53.5t-57 150.5q0 70 36 137t106.5 113t158.5 46q64 0 106 -30t42 -84q0 -47 -27.5 -85t-75.5 -63t-103 -41t-119 -25q14 -41 47 -66t77 -25q78 0 155 67zM303 437q-63 0 -108 -59t-45 -140q0 -26 29 -21
q85 13 144.5 49t59.5 94q0 33 -22 55t-58 22z" />
    <glyph glyph-name="uni0436" unicode="&#x436;" horiz-adv-x="775" 
d="M59 -7q-33 0 -54.5 11t-17.5 28q2 17 21 17q23 1 38.5 15.5t45.5 68.5q31 56 62.5 83t94.5 37q-27 13 -49 60q-6 13 -13 35.5t-13 33t-14 10.5q-11 0 -28 -16.5t-35 -16.5q-19 0 -31 15.5t-8 45.5q4 32 27 51t53 19q21 0 37 -8.5t26.5 -27t16.5 -33.5t14 -41.5t12 -38.5
q12 -29 25.5 -44.5t36.5 -15.5h10q14 0 17.5 2.5t4.5 16.5l7 51q2 22 1 33q-1 27 -18.5 43t-15.5 31q4 22 45 22h125q43 0 40 -22q-2 -14 -25 -30.5t-32 -43.5q-6 -22 -7 -33l-7 -51q-1 -14 1 -16.5t17 -2.5h9q43 0 83 65q7 10 22.5 37t25 41t25.5 32t33.5 26t38.5 8
q30 0 47.5 -18.5t13.5 -51.5q-4 -30 -20.5 -45.5t-35.5 -15.5q-18 0 -31 16.5t-24 16.5q-8 0 -16 -9t-21.5 -31.5t-20.5 -32.5q-35 -51 -70 -66q61 -9 84.5 -36t39.5 -84q15 -55 26 -69t34 -15q18 0 16 -17q-1 -17 -25.5 -28t-57.5 -11q-49 0 -69 30t-33 97q-20 110 -82 110
q-14 0 -18 -3.5t-6 -19.5l-9 -78q-2 -22 -1 -32q1 -17 7 -28.5t12.5 -16t11 -12t2.5 -18.5q-2 -22 -44 -22h-126q-42 0 -39 23q2 14 25 30t32 44q3 10 7 32l11 80q1 15 -1 18t-15 3q-61 0 -114 -110q-32 -67 -60 -97t-77 -30z" />
    <glyph glyph-name="uni0437" unicode="&#x437;" horiz-adv-x="457" 
d="M196 -9q-62 0 -110.5 23t-64.5 62q-8 19 6 27.5t27 -4.5q46 -46 122 -46q40 0 73.5 19t40.5 65q6 41 -26 67.5t-104 29.5q-14 1 -18 11.5t3.5 21t21.5 11.5q61 6 93 33t37 60q4 28 -11 47.5t-46 19.5q-34 0 -57.5 -17t-49.5 -49q-23 -29 -37 -29q-17 0 -10 31q7 38 21 76
q16 40 35 40q7 0 17 -5t20 -5q8 0 38.5 5t60.5 5q59 0 99 -27.5t33 -81.5q-5 -42 -36.5 -73.5t-75.5 -43.5q59 -11 85 -45.5t20 -75.5q-11 -71 -70.5 -111.5t-136.5 -40.5z" />
    <glyph glyph-name="uni0438" unicode="&#x438;" horiz-adv-x="628" 
d="M562 100q13 0 12 -17q-2 -32 -34.5 -61.5t-78.5 -29.5q-86 0 -74 115q-80 -117 -183 -117q-79 0 -113 49.5t-21 141.5l24 170q3 19 -2 31t-13 15t-14.5 8.5t-6.5 14.5q0 12 12 22t50 25q53 21 82 21q26 0 22 -27l-38 -252q-5 -34 -6.5 -55.5t2 -46t17.5 -36.5t39 -12
q56 0 109.5 78.5t74.5 207.5l16 99q4 20 26 25l65 17q12 4 19 -4t5 -20l-52 -348q-6 -42 16 -42q10 0 24.5 14t20.5 14z" />
    <glyph glyph-name="uni0439" unicode="&#x439;" horiz-adv-x="628" 
d="M343 533q-69 0 -110.5 30t-34.5 77q3 16 15.5 27t28.5 11q19 0 31 -16t18 -34.5t20.5 -34.5t37.5 -16q22 0 41 16t30 34.5t28 34.5t36 16q16 0 25 -11t7 -27q-7 -47 -57.5 -77t-115.5 -30zM562 100q13 0 12 -17q-2 -32 -34.5 -61.5t-78.5 -29.5q-86 0 -74 115
q-80 -117 -183 -117q-79 0 -113 49.5t-21 141.5l24 170q3 19 -2 31t-13 15t-14.5 8.5t-6.5 14.5q0 12 12 22t50 25q53 21 82 21q26 0 22 -27l-38 -252q-5 -34 -6.5 -55.5t2 -46t17.5 -36.5t39 -12q56 0 109.5 78.5t74.5 207.5l16 99q4 20 26 25l65 17q12 4 19 -4t5 -20
l-52 -348q-6 -42 16 -42q10 0 24.5 14t20.5 14z" />
    <glyph glyph-name="uni043A" unicode="&#x43a;" horiz-adv-x="552" 
d="M423 -7q-49 0 -69 29.5t-37 97.5q-15 56 -37 83t-69 27q-12 0 -17 -3.5t-6 -15.5l-10 -82q-2 -22 -1 -32q1 -28 18.5 -44t15.5 -31q-4 -22 -45 -22h-125q-43 0 -40 23q2 14 25 30t32 44q6 20 7 32l30 222q2 22 1 33q-1 22 -10.5 33.5t-17 19t-5.5 21.5q2 22 44 22h126
q42 0 39 -22q-2 -14 -25 -30.5t-32 -43.5q-6 -22 -7 -33l-6 -51q-2 -13 1 -16t16 -3h9q33 0 60.5 21.5t47 52.5t39 61.5t46.5 52t59 21.5q29 0 47 -19t13 -51q-4 -30 -20 -45.5t-35 -15.5t-32 16.5t-24 16.5q-10 0 -22.5 -16t-24.5 -37t-33.5 -45.5t-45.5 -37.5
q32 -5 52.5 -15t34 -28.5t20 -33.5t16.5 -46q17 -54 29 -68.5t35 -15.5q16 0 16 -17q-1 -17 -26 -28t-57 -11z" />
    <glyph glyph-name="uni043B" unicode="&#x43b;" horiz-adv-x="613" 
d="M57 -10q-27 0 -49.5 15.5t-17.5 49.5q4 23 19 38t33 15q22 0 32.5 -21.5t22.5 -21.5q34 0 66 100t46 193q4 25 0.5 35.5t-15.5 15.5q-24 12 -24 27q0 19 32 28.5t116 15.5q92 6 205 2q21 0 30.5 -5.5t7.5 -16.5q-2 -12 -12 -21t-21 -23.5t-14 -38.5l-38 -264
q-6 -41 20 -41q10 0 24 14t20 14q14 0 13 -17q-3 -33 -35 -62t-79 -29q-42 0 -63 28.5t-14 77.5l42 291q3 24 -10 33t-49 6q-29 -2 -40.5 -4t-21.5 -10.5t-13 -26.5q-19 -91 -28 -131.5t-30.5 -104.5t-46.5 -96q-37 -65 -108 -65z" />
    <glyph glyph-name="uni043C" unicode="&#x43c;" horiz-adv-x="776" 
d="M57 -10q-27 0 -49.5 15.5t-17.5 49.5q4 23 19 38t33 15q22 0 32.5 -21.5t22.5 -21.5q34 0 65 98t45 192q4 30 -15 40q-24 11 -23 25q2 23 56 43q59 22 101 22q18 0 22 -22q30 -179 55 -296l151 272q14 23 32 30q36 15 77 16q24 2 21 -30l-29 -341q-5 -42 19 -42
q10 0 24 14t20 14q14 0 13 -17q-3 -33 -35 -62t-79 -29q-87 0 -76 110l20 248l-154 -285q-13 -24 -42 -30q-45 -9 -52 17q-29 132 -53 295q-13 -68 -20.5 -102t-29 -96t-45.5 -94q-38 -65 -108 -65z" />
    <glyph glyph-name="uni043D" unicode="&#x43d;" horiz-adv-x="623" 
d="M565 100q13 0 13 -17q-3 -33 -35.5 -62t-78.5 -29q-43 0 -63 28.5t-13 80.5l17 120h-215l-27 -192q-3 -20 -24 -25l-68 -15q-11 -2 -18 5t-5 19l46 335q3 24 -5.5 36t-19.5 19t-11 18q0 12 12.5 22t50.5 24q53 20 80 20q26 0 22 -26l-26 -189h215l25 176q3 22 24 25
l66 15q12 3 18.5 -4t4.5 -19l-50 -352q-6 -41 20 -41q10 0 24.5 14t20.5 14z" />
    <glyph glyph-name="uni043E" unicode="&#x43e;" horiz-adv-x="579" 
d="M254 -10q-98 0 -157.5 57t-59.5 149q0 119 87 206.5t206 87.5q98 0 155 -57.5t57 -143.5q0 -126 -83.5 -212.5t-204.5 -86.5zM266 44q68 0 109 75.5t41 167.5q0 66 -24 108t-76 42q-72 0 -115.5 -74t-44.5 -162q1 -70 28 -113.5t82 -43.5z" />
    <glyph glyph-name="uni043F" unicode="&#x43f;" horiz-adv-x="631" 
d="M573 100q14 0 13 -17q-2 -32 -34 -61.5t-78 -29.5q-82 0 -74 110l13 202q3 54 -9.5 81.5t-49.5 27.5q-53 0 -105 -78t-74 -207l-17 -94q-3 -21 -22 -25l-67 -17q-12 -3 -18.5 4t-4.5 20l48 332q3 19 -2 31t-13 16t-14.5 10t-6.5 15q0 12 12 21.5t50 25.5q47 20 72 20
q26 0 22 -26l-18 -118q81 145 203 145q69 0 100 -46t25 -132l-11 -197q-2 -22 1 -31.5t15 -9.5q10 0 24 14t20 14z" />
    <glyph glyph-name="uni0440" unicode="&#x440;" horiz-adv-x="580" 
d="M395 487q75 0 115.5 -53t35.5 -132q-6 -135 -90.5 -221.5t-193.5 -86.5q-45 0 -96 18l-13 -92q-4 -30 5 -49t19 -29.5t8 -21.5q-1 -12 -12 -16t-36 -4h-116q-26 0 -35 4.5t-8 15.5q2 11 15 22t27.5 29.5t18.5 48.5l62 432q3 21 -7.5 33t-22 20t-11.5 18q0 22 62 45
q52 20 76 20q26 0 21 -26l-9 -65q75 90 185 90zM268 46q69 0 114 75.5t44 180.5q-1 48 -23.5 78.5t-66.5 30.5q-55 0 -100 -63.5t-56 -163.5q-7 -68 18 -103t70 -35z" />
    <glyph glyph-name="uni0441" unicode="&#x441;" horiz-adv-x="538" 
d="M253 -10q-99 0 -157.5 59t-58.5 149q0 120 83 206t199 86q87 0 136 -49.5t42 -110.5q-3 -34 -23 -55t-48 -19q-50 3 -47 58q2 32 -3.5 57t-26 44t-55.5 19q-61 0 -100.5 -60t-39.5 -138q0 -73 40 -117t110 -44q83 0 150 59q17 14 27 6t0 -28q-23 -46 -85.5 -84
t-142.5 -38z" />
    <glyph glyph-name="uni0442" unicode="&#x442;" horiz-adv-x="944" 
d="M886 100q13 0 13 -17q-3 -33 -35 -62t-79 -29q-79 0 -73 110l13 202q8 111 -57 111q-52 0 -99.5 -78t-70.5 -209l-17 -96q-4 -20 -23 -24l-68 -17q-11 -3 -17.5 4t-4.5 20l37 252q12 78 0.5 113t-50.5 35q-56 0 -107.5 -78t-74.5 -209l-17 -96q-3 -20 -23 -25l-67 -17
q-12 -3 -18.5 4t-4.5 20l51 334q3 19 -2 31t-13 16t-14.5 10t-6.5 15q0 12 12 21.5t50 25.5q47 20 72 20q26 0 22 -26l-16 -106q40 64 93 98.5t106 34.5q57 0 90.5 -31.5t38.5 -88.5q37 57 86 88.5t99 31.5q68 0 99.5 -46.5t26.5 -131.5l-12 -197q-2 -41 16 -41
q10 0 24.5 14t20.5 14z" />
    <glyph glyph-name="uni0443" unicode="&#x443;" horiz-adv-x="525" 
d="M439 491q31 0 45 -20.5t14 -49.5q0 -97 -48 -214.5t-101 -198.5q-142 -218 -305 -218q-57 0 -87 25t-30 66q0 31 17 50.5t43 19.5q33 0 52 -40q8 -18 14 -26.5t20 -16.5t35 -8q37 0 65.5 29t33.5 69q5 29 -8 91q-31 140 -96 304q-8 21 -19 28t-32 8q-27 0 -27 18
q0 23 48.5 52.5t75.5 29.5q24 0 35 -28q76 -206 125 -416q96 154 96 253q0 38 -20.5 72t-20.5 53q0 26 23.5 47t51.5 21z" />
    <glyph glyph-name="uni0444" unicode="&#x444;" horiz-adv-x="813" 
d="M404 -200h-117q-25 0 -34.5 4.5t-8.5 16.5q1 10 28.5 35t33.5 64l14 108q-54 -38 -117 -38q-82 0 -131.5 62.5t-32.5 180.5q15 107 80 182t155 75q67 0 105 -49l15 111q6 51 -20 71q-17 12 -15 26q2 8 8.5 14t25.5 14q81 37 116 39q21 0 18 -26l-38 -253q56 53 133 53
q84 0 125.5 -65t25.5 -180q-17 -119 -82.5 -187t-153.5 -68q-60 0 -105 37l-14 -107q-4 -24 1 -41t13 -24t14 -16t5 -19q-3 -20 -47 -20zM247 52q37 0 61 26t28 58l24 180q7 49 -13.5 78t-61.5 29q-51 0 -84.5 -51.5t-44.5 -128.5q-12 -92 14.5 -141.5t76.5 -49.5zM535 49
q97 0 121 173q12 92 -8.5 146.5t-75.5 54.5q-38 0 -65 -29.5t-34 -78.5l-26 -182q-4 -28 21 -56t67 -28z" />
    <glyph glyph-name="uni0445" unicode="&#x445;" horiz-adv-x="527" 
d="M471 488q29 0 43.5 -18t12.5 -44q-1 -23 -14.5 -38.5t-30.5 -15.5q-11 0 -23.5 11t-20.5 11q-35 0 -128 -147l31 -77q12 -30 21 -48.5t24.5 -35.5t31.5 -17q11 0 24 4.5t19 4.5q13 0 13 -14q0 -25 -38 -49.5t-76 -24.5q-29 0 -51 18t-32.5 37.5t-25.5 56.5l-23 57
q-53 -83 -93.5 -126t-82.5 -43q-29 0 -44 18t-15 43q0 23 14 39.5t31 16.5q11 0 23.5 -11.5t21.5 -11.5q39 0 122 132l-54 132q-17 45 -47 43t-30 16q0 22 47 52.5t70 30.5q20 0 29 -23l66 -163q55 87 98.5 135.5t86.5 48.5z" />
    <glyph glyph-name="uni0446" unicode="&#x446;" horiz-adv-x="617" 
d="M573 100q14 0 23.5 -15t9.5 -36q0 -78 -35 -123q-13 -16 -27 -29.5t-33.5 -30.5t-28.5 -26q-13 -12 -11 -34q1 -12 -9.5 -14.5t-23.5 4.5q-32 19 -32 50q0 17 8.5 32.5t16.5 24t25 23t22 18.5q19 18 28 27.5t17.5 22.5t10.5 26q-31 -28 -71 -28q-38 0 -59.5 26t-15.5 83
q-78 -111 -182 -111q-77 0 -113 50t-23 141l24 168q4 24 0.5 34.5t-16.5 15.5q-20 10 -20 24q0 24 67 47q54 18 77 18q26 0 22 -27l-38 -252q-5 -38 -6.5 -71.5t13.5 -56t47 -22.5q60 0 112.5 77.5t71.5 208.5l13 99q4 20 26 25l65 17q12 4 19 -4t5 -20l-49 -348
q-6 -42 16 -42q9 0 26 14t28 14z" />
    <glyph glyph-name="uni0447" unicode="&#x447;" horiz-adv-x="572" 
d="M413 -8q-43 0 -63.5 29t-12.5 81l17 117q-54 -64 -149 -64q-64 0 -98.5 31.5t-34.5 90.5q0 27 8 72q5 41 -17 50q-20 10 -20 24q0 24 67 47q51 18 75 18q25 0 22 -27l-15 -100q-22 -136 57 -136q46 0 81.5 38.5t45.5 121.5l9 64q1 21 23 24l69 15q12 3 18.5 -4t4.5 -19
l-50 -352q-5 -41 20 -41q10 0 24.5 14t20.5 14q13 0 12 -17q-3 -33 -35 -62t-79 -29z" />
    <glyph glyph-name="uni0448" unicode="&#x448;" horiz-adv-x="881" 
d="M823 100q14 0 13 -17q-3 -33 -35 -62t-79 -29q-79 0 -74 98q-69 -100 -163 -100q-50 0 -81.5 29.5t-38.5 86.5q-67 -116 -173 -116q-70 0 -102.5 50.5t-19.5 140.5l24 168q4 24 0.5 34.5t-16.5 15.5q-20 10 -20 24q0 24 67 47q54 18 77 18q26 0 22 -27l-42 -277
q-20 -122 44 -122q55 0 99.5 78t60.5 191l15 113q2 19 25 25l66 17q12 4 19 -4t5 -20l-37 -277q-11 -45 -3 -85t47 -40q49 -1 94.5 74.5t63.5 196.5l16 113q2 20 25 25l65 17q13 4 20 -4t5 -20l-50 -348q-6 -42 16 -42q10 0 24.5 14t20.5 14z" />
    <glyph glyph-name="uni0449" unicode="&#x449;" horiz-adv-x="876" 
d="M832 100q14 0 24 -15t10 -36q0 -77 -36 -123q-10 -13 -22 -25t-20.5 -19.5t-23.5 -20.5t-23 -21q-11 -10 -11 -34q1 -12 -9.5 -14.5t-23.5 4.5q-31 19 -31 50q0 17 8 33t16 23.5t25.5 22.5t21.5 19q52 47 56 76q-31 -28 -71 -28q-79 0 -75 96q-70 -98 -162 -98
q-50 0 -81.5 29.5t-38.5 86.5q-64 -116 -173 -116q-70 0 -102.5 50.5t-19.5 140.5l24 168q4 24 0.5 34.5t-16.5 15.5q-20 10 -20 24q0 24 67 47q54 18 77 18q26 0 22 -27l-42 -277q-20 -122 45 -122q55 0 98.5 76t60.5 193l15 113q2 19 25 25l66 17q12 4 19 -4t5 -20
l-37 -277q-11 -45 -3 -85t47 -40q51 -1 95.5 74t62.5 197l16 113q2 20 25 25l65 17q13 4 20 -4t5 -20l-50 -348q-6 -42 16 -42q9 0 26 14t28 14z" />
    <glyph glyph-name="uni044A" unicode="&#x44a;" horiz-adv-x="553" 
d="M374 362q62 0 99 -35.5t37 -91.5q0 -97 -71 -171t-175 -74q-79 0 -126 47t-38 141q2 36 23 108t25 91q7 29 2 39.5t-25 10.5q-22 0 -38 -12t-42 -47q-15 -20 -23 -27t-19 -7q-20 0 -13 36q8 34 21 70q9 22 24 28.5t61 11.5q90 8 167 8q11 0 16.5 -7t1.5 -20l-46 -166
q58 67 139 67zM282 45q50 0 82.5 55t32.5 119q-2 74 -64 74q-44 0 -77 -43t-41 -106q-5 -46 13.5 -72.5t53.5 -26.5z" />
    <glyph glyph-name="uni044B" unicode="&#x44b;" horiz-adv-x="741" 
d="M683 100q14 0 13 -17q-3 -33 -35 -62t-79 -29q-42 0 -62.5 28.5t-13.5 80.5l49 347q4 22 24 25l66 15q12 3 19 -4t5 -19l-51 -352q-6 -41 21 -41q10 0 24 14t20 14zM339 361q60 0 95 -34.5t35 -89.5q0 -96 -71.5 -171.5t-177.5 -75.5q-81 0 -122.5 48.5t-28.5 139.5
l25 171q3 22 -5.5 34t-19.5 20.5t-11 19.5q0 24 67 47q51 18 74 18q27 0 22 -27l-23 -163q61 63 141 63zM245 47q48 0 80.5 54.5t30.5 116.5q-4 75 -63 75q-43 0 -75 -47t-36 -108q-3 -43 15.5 -67t47.5 -24z" />
    <glyph glyph-name="uni044C" unicode="&#x44c;" horiz-adv-x="510" 
d="M341 361q59 0 94 -34.5t35 -89.5q0 -96 -71.5 -171.5t-177.5 -75.5q-81 0 -122.5 48.5t-27.5 139.5l24 171q3 22 -5.5 34t-19.5 20.5t-11 19.5q0 24 67 47q53 18 74 18q26 0 23 -27l-24 -164q61 64 142 64zM246 47q48 0 80.5 54.5t30.5 116.5q-2 75 -63 75q-43 0 -75 -47
t-36 -108q-3 -43 15.5 -67t47.5 -24z" />
    <glyph glyph-name="uni044D" unicode="&#x44d;" horiz-adv-x="520" 
d="M196 -10q-56 0 -107 25t-66 63q-7 19 6.5 27.5t26.5 -4.5q22 -23 59 -38.5t74 -15.5q69 0 115.5 45t59.5 134q-44 -27 -74 -27q-21 0 -51.5 16.5t-47.5 16.5q-18 0 -41.5 -11t-28.5 -11q-16 0 -14 17q4 23 42 46t69 23q21 0 52.5 -18.5t53.5 -18.5q21 0 43 11
q0 70 -33 118.5t-99 48.5q-76 0 -126 -65q-23 -29 -37 -29q-17 0 -10 31q7 38 21 76q9 23 16.5 31.5t18.5 8.5q6 0 17.5 -6.5t21.5 -6.5q6 0 40.5 6.5t74.5 6.5q114 0 168.5 -70t39.5 -177q-16 -107 -88.5 -180t-195.5 -73z" />
    <glyph glyph-name="uni044E" unicode="&#x44e;" horiz-adv-x="808" 
d="M382 428q79 62 177 62t155 -57.5t57 -143.5q0 -126 -83.5 -212.5t-204.5 -86.5q-98 0 -157.5 57t-59.5 149q0 16 1 24h-77l-27 -191q-4 -20 -24 -25l-68 -15q-12 -2 -18.5 5t-4.5 19l46 335q3 24 -5.5 36t-19.5 19t-11 18q0 12 12.5 22t50.5 24q53 20 80 20q26 0 22 -26
l-26 -189h79q27 94 106 156zM495 44q68 0 109 75.5t41 167.5q0 66 -24 108t-77 42q-48 0 -85.5 -37.5t-55.5 -90.5t-18 -108q0 -70 27.5 -113.5t82.5 -43.5z" />
    <glyph glyph-name="uni044F" unicode="&#x44f;" horiz-adv-x="570" 
d="M411 -10q-43 0 -63 29.5t-13 82.5l9 65q1 7 -3 11t-10 3q-27 -3 -53 -3q-35 -2 -50.5 -20t-38.5 -71q-43 -94 -128 -94q-32 0 -53.5 8.5t-18.5 25.5q5 15 22 18q23 4 38 15.5t36 47.5q13 23 20.5 34t22.5 26t33 24q-46 17 -67.5 50t-15.5 74q11 74 81.5 119t193.5 45h147
q26 0 36 -4.5t9 -15.5q-2 -10 -10.5 -19t-19 -16.5t-20 -24.5t-12.5 -40l-33 -247q-8 -41 17 -41q10 0 24.5 14t20.5 14q13 0 13 -17q-3 -33 -35 -63t-79 -30zM291 229q37 0 49 5t14 17l22 153q2 14 -6 20t-37 6q-126 0 -141 -105q-6 -41 18 -68.5t81 -27.5z" />
    <glyph glyph-name="uni0451" unicode="&#x451;" horiz-adv-x="528" 
d="M239 557q-21 0 -34.5 12.5t-13.5 32.5q0 26 19.5 47t45.5 21q23 0 37.5 -14t14.5 -36q0 -26 -21 -44.5t-48 -18.5zM394 557q-21 0 -34.5 12.5t-13.5 32.5q0 26 19 47t46 21q23 0 37 -14t14 -36q0 -26 -20.5 -44.5t-47.5 -18.5zM439 138q16 14 27 6t0 -28q-24 -46 -86 -86
t-141 -40q-89 0 -146 53.5t-57 150.5q0 70 36 137t106.5 113t158.5 46q64 0 106 -30t42 -84q0 -47 -27.5 -85t-75.5 -63t-103 -41t-119 -25q14 -41 47 -66t77 -25q78 0 155 67zM303 437q-63 0 -108 -59t-45 -140q0 -26 29 -21q85 13 144.5 49t59.5 94q0 33 -22 55t-58 22z
" />
    <glyph glyph-name="uni0454" unicode="&#x454;" horiz-adv-x="529" 
d="M245 -10q-112 0 -167 67.5t-41 163.5q16 113 100.5 191t204.5 78q63 0 113 -24.5t44 -62.5q-2 -17 -15.5 -28t-30.5 -11q-21 0 -42 18t-48 36.5t-60 18.5q-56 0 -97.5 -43t-51.5 -117l-1 -8q47 29 78 29q21 0 51.5 -17t47.5 -17q18 0 41 11.5t29 11.5q16 0 14 -17
q-4 -24 -41.5 -46.5t-68.5 -22.5q-22 0 -54 18.5t-53 18.5q-20 0 -45 -13q3 -69 42 -109.5t110 -40.5q74 0 141 59q16 14 27 6t1 -28q-24 -46 -86.5 -84t-141.5 -38z" />
    <glyph glyph-name="uni0456" unicode="&#x456;" horiz-adv-x="298" 
d="M162 555q-25 1 -40 16.5t-13 38.5q1 32 31.5 59.5t64.5 24.5q23 -1 39 -17.5t15 -39.5q-1 -31 -32 -57.5t-65 -24.5zM131 -8q-43 0 -62.5 28.5t-11.5 80.5l37 247q3 19 -2 31t-12.5 16.5t-14.5 11.5t-7 16q0 22 63 45q57 20 77 20q26 0 22 -27l-50 -348q-6 -41 17 -41
q10 0 24.5 14t20.5 14q13 0 13 -17q-3 -33 -35 -62t-79 -29z" />
    <glyph glyph-name="uni0457" unicode="&#x457;" horiz-adv-x="298" 
d="M75 561q-21 0 -34.5 12.5t-13.5 32.5q0 26 19.5 47t45.5 21q23 0 37.5 -14t14.5 -36q0 -26 -21 -44.5t-48 -18.5zM230 561q-21 0 -34.5 12.5t-13.5 32.5q0 26 19 47t46 21q23 0 37 -14t14 -36q0 -26 -20.5 -44.5t-47.5 -18.5zM131 -8q-43 0 -62.5 28.5t-11.5 80.5l37 247
q3 19 -2 31t-12.5 16.5t-14.5 11.5t-7 16q0 22 63 45q57 20 77 20q26 0 22 -27l-50 -348q-6 -41 17 -41q10 0 24.5 14t20.5 14q13 0 13 -17q-3 -33 -35 -62t-79 -29z" />
    <glyph glyph-name="uni0490" unicode="&#x490;" horiz-adv-x="569" 
d="M174 1h-134q-28 0 -39.5 5.5t-10.5 18.5q2 15 16.5 23.5t31.5 22t24 39.5q4 10 8 34l56 403q4 28 4 44q0 25 -13.5 39t-25 22.5t-9.5 23.5q4 24 56 24l290 1q51 0 81.5 23.5t62.5 74.5q24 39 43 39t12 -40q-12 -65 -32 -114q-8 -22 -24 -30t-60 -8h-153q-62 0 -83.5 -10
t-23.5 -34l-64 -458q-3 -16 -3 -34q1 -21 9 -34t17 -17.5t15.5 -12.5t4.5 -21q-1 -13 -14 -18.5t-42 -5.5z" />
    <glyph glyph-name="uni0491" unicode="&#x491;" horiz-adv-x="430" 
d="M212 550q-17 5 -12 20q7 19 70 75q52 43 75 43q26 0 38 -20t3 -45q-13 -35 -76 -60.5t-98 -12.5zM161 -9q-73 0 -105.5 32t-32.5 76q0 21 8.5 41t18 34t31 31t33.5 25t40 25t37 22q81 50 80 103q-2 39 -53 39q-55 0 -124 -48q-18 -12 -30 -3t2 30q29 42 79.5 67t108.5 25
q57 0 92.5 -25.5t35.5 -69.5q0 -24 -9.5 -46t-19.5 -35.5t-35.5 -32t-35.5 -25t-42 -24.5q-25 -15 -39 -24t-31 -23.5t-24.5 -29.5t-7.5 -33q0 -53 64 -53q65 0 140 54q12 9 21 5.5t9 -14t-9 -23.5q-23 -35 -77 -67.5t-125 -32.5z" />
    <glyph glyph-name="Wgrave" unicode="&#x1e80;" horiz-adv-x="1068" 
d="M631 760q-40 -6 -97 24t-62 66q-4 20 7.5 36t28.5 19q12 2 27 -5t24.5 -15t32.5 -29q64 -62 65 -77q1 -7 -6.5 -12t-19.5 -7zM303 -3q-49 -7 -53 15l-119 564q-7 34 -23 52t-27 26.5t-9 21.5q2 14 13.5 19t37.5 5h138q43 0 40 -23q-2 -11 -11.5 -20t-19 -15t-14.5 -23
t0 -43l87 -450l201 416l-6 34q-7 34 -22.5 52t-26.5 26.5t-9 21.5q2 14 13.5 19t37.5 5h138q43 0 40 -23q-2 -11 -11.5 -20t-19 -15.5t-15 -23.5t-0.5 -43l84 -447l212 449q17 42 12.5 54t-16 22.5t-10.5 22.5q4 24 45 24h85q47 0 44 -22q-2 -11 -12 -19t-23 -14t-30 -23.5
t-30 -44.5l-265 -550q-12 -23 -52 -30q-50 -8 -54 15l-92 446l-206 -431q-11 -23 -52 -30z" />
    <glyph glyph-name="wgrave" unicode="&#x1e81;" horiz-adv-x="811" 
d="M534 545q-35 -13 -98 12.5t-76 60.5q-8 22 0.5 39t27.5 24q18 6 37 -4t52 -37q62 -57 69 -75q5 -15 -12 -20zM725 491q59 0 59 -85q0 -94 -34 -188.5t-100.5 -161t-147.5 -66.5q-109 0 -133 97q-66 -97 -175 -97q-66 0 -101.5 48.5t-22.5 142.5l22 170q3 19 -2 31t-13 15
t-14.5 8.5t-6.5 14.5q0 12 12 22t51 25q53 21 80 21t22 -27l-36 -263q-19 -134 58 -134q95 0 132 180l25 185q4 33 25 41q34 18 70 18q26 0 23 -27l-36 -263q-18 -134 58 -134q61 0 106 75t45 159q0 38 -20.5 72t-20.5 53q0 26 23.5 47t51.5 21z" />
    <glyph glyph-name="Wacute" unicode="&#x1e82;" horiz-adv-x="1068" 
d="M561 760q-29 4 -27 19t66 77q23 21 32.5 29t24.5 15t27 5q17 -3 28.5 -19t7.5 -36q-5 -36 -62 -66t-97 -24zM303 -3q-49 -7 -53 15l-119 564q-7 34 -23 52t-27 26.5t-9 21.5q2 14 13.5 19t37.5 5h138q43 0 40 -23q-2 -11 -11.5 -20t-19 -15t-14.5 -23t0 -43l87 -450
l201 416l-6 34q-7 34 -22.5 52t-26.5 26.5t-9 21.5q2 14 13.5 19t37.5 5h138q43 0 40 -23q-2 -11 -11.5 -20t-19 -15.5t-15 -23.5t-0.5 -43l84 -447l212 449q17 42 12.5 54t-16 22.5t-10.5 22.5q4 24 45 24h85q47 0 44 -22q-2 -11 -12 -19t-23 -14t-30 -23.5t-30 -44.5
l-265 -550q-12 -23 -52 -30q-50 -8 -54 15l-92 446l-206 -431q-11 -23 -52 -30z" />
    <glyph glyph-name="wacute" unicode="&#x1e83;" horiz-adv-x="811" 
d="M409 545q-17 5 -12 20q7 19 70 75q52 43 75 43q26 0 38 -20t3 -45q-13 -35 -76 -60.5t-98 -12.5zM725 491q59 0 59 -85q0 -94 -34 -188.5t-100.5 -161t-147.5 -66.5q-109 0 -133 97q-66 -97 -175 -97q-66 0 -101.5 48.5t-22.5 142.5l22 170q3 19 -2 31t-13 15t-14.5 8.5
t-6.5 14.5q0 12 12 22t51 25q53 21 80 21t22 -27l-36 -263q-19 -134 58 -134q95 0 132 180l25 185q4 33 25 41q34 18 70 18q26 0 23 -27l-36 -263q-18 -134 58 -134q61 0 106 75t45 159q0 38 -20.5 72t-20.5 53q0 26 23.5 47t51.5 21z" />
    <glyph glyph-name="Wdieresis" unicode="&#x1e84;" horiz-adv-x="1068" 
d="M512 771q-20 0 -33.5 12t-13.5 32q0 26 19 47t46 21q23 0 37 -14t14 -36q0 -26 -20.5 -44t-48.5 -18zM667 771q-21 0 -34.5 12t-13.5 32q0 26 19.5 47t45.5 21q23 0 37.5 -14t14.5 -36q0 -26 -21 -44t-48 -18zM303 -3q-49 -7 -53 15l-119 564q-7 34 -23 52t-27 26.5
t-9 21.5q2 14 13.5 19t37.5 5h138q43 0 40 -23q-2 -11 -11.5 -20t-19 -15t-14.5 -23t0 -43l87 -450l201 416l-6 34q-7 34 -22.5 52t-26.5 26.5t-9 21.5q2 14 13.5 19t37.5 5h138q43 0 40 -23q-2 -11 -11.5 -20t-19 -15.5t-15 -23.5t-0.5 -43l84 -447l212 449q17 42 12.5 54
t-16 22.5t-10.5 22.5q4 24 45 24h85q47 0 44 -22q-2 -11 -12 -19t-23 -14t-30 -23.5t-30 -44.5l-265 -550q-12 -23 -52 -30q-50 -8 -54 15l-92 446l-206 -431q-11 -23 -52 -30z" />
    <glyph glyph-name="wdieresis" unicode="&#x1e85;" horiz-adv-x="811" 
d="M365 556q-21 0 -34.5 12.5t-13.5 32.5q0 26 19.5 47t45.5 21q23 0 37.5 -14t14.5 -36q0 -26 -21 -44.5t-48 -18.5zM520 556q-21 0 -34.5 12.5t-13.5 32.5q0 26 19 47t46 21q23 0 37 -14t14 -36q0 -26 -20.5 -44.5t-47.5 -18.5zM725 491q59 0 59 -85q0 -94 -34 -188.5
t-100.5 -161t-147.5 -66.5q-109 0 -133 97q-66 -97 -175 -97q-66 0 -101.5 48.5t-22.5 142.5l22 170q3 19 -2 31t-13 15t-14.5 8.5t-6.5 14.5q0 12 12 22t51 25q53 21 80 21t22 -27l-36 -263q-19 -134 58 -134q95 0 132 180l25 185q4 33 25 41q34 18 70 18q26 0 23 -27
l-36 -263q-18 -134 58 -134q61 0 106 75t45 159q0 38 -20.5 72t-20.5 53q0 26 23.5 47t51.5 21z" />
    </font>
</defs>
</svg>
