<?xml version="1.0" standalone="no"?>
<!DOCTYPE svg PUBLIC "-//W3C//DTD SVG 1.1//EN" "http://www.w3.org/Graphics/SVG/1.1/DTD/svg11.dtd" >
<svg xmlns="http://www.w3.org/2000/svg" xmlns:xlink="http://www.w3.org/1999/xlink" version="1.1">
<metadata>
Created by FontForge 20201107 at Mon Nov 16 14:50:24 2020
 By 
Copyright (c) 2020 by Elena Genova. All rights reserved.
</metadata>
<defs>
<font id="RocaOne-Lt" horiz-adv-x="0" >
  <font-face 
    font-family="RocaOne-Lt"
    font-weight="400"
    font-stretch="normal"
    units-per-em="1000"
    panose-1="0 0 4 0 0 0 0 0 0 0"
    ascent="770"
    descent="-230"
    x-height="480"
    cap-height="700"
    bbox="-768 -470 1393 935"
    underline-thickness="50"
    underline-position="-100"
    unicode-range="U+0020-E0F7"
  />
<missing-glyph horiz-adv-x="450" 
d="M369 700v-900h-285v900h285zM150 -16h150v102h-150v-102zM150 -66h63l-63 -42v-30h150v30h-92l63 42h29v30h-150v-30zM150 140h150v102h-90v-50h30v20h30v-42h-90v72h-30v-102zM150 430h150v31h-60v63h-90v-94zM150 547h150v30h-60v33h60v30h-149v-30h59v-33h-60v-30z
M150 313h90v63h60v30h-150v-30h60v-33h-60v-30zM150 262h150v90h-30v-60h-120v-30zM270 57v-43h-90v43h90zM180 493h30v-32h-30v32z" />
    <glyph glyph-name="f_f" unicode="ff" horiz-adv-x="664" 
d="M539 659q-28 0 -46 -23.5t-18 -70.5q0 -30 6 -57.5t18 -27.5h110q11 0 17.5 -1t11.5 -7t3 -17q-5 -26 -38 -26l-104 1v-299q0 -35 10.5 -55.5t23 -25.5t23 -12t10.5 -18q0 -20 -39 -20h-126q-39 0 -39 20q0 9 7.5 16.5t16.5 13.5t16.5 27t7.5 54v301l-214 2v-303
q0 -35 10.5 -55.5t23 -25.5t23 -12t10.5 -18q0 -20 -39 -20h-126q-39 0 -39 20q0 9 7.5 16.5t16.5 13.5t16.5 27t7.5 54v305h-29q-11 1 -16.5 2t-10.5 6t-4 15q4 21 34 21h26q0 114 44.5 172t119.5 58q52 0 81.5 -30.5t29.5 -72.5q0 -21 -12.5 -35t-31.5 -14q-30 0 -41 35
q-9 34 -22.5 50t-38.5 16q-28 0 -46 -23.5t-18 -70.5q0 -30 6 -57.5t18 -27.5h214q0 114 44.5 172t119.5 58q52 0 81.5 -30.5t29.5 -72.5q0 -21 -12.5 -35t-31.5 -14q-31 0 -41 35q-9 34 -22.5 50t-38.5 16z" />
    <glyph glyph-name="fl" unicode="fl" horiz-adv-x="603" 
d="M513 688l-1 -138l-1 -418q0 -33 7.5 -53t16 -26.5t16 -14.5t7.5 -19q0 -19 -39 -19h-107q-40 0 -40 20q0 11 7.5 18.5t16.5 14t16.5 26.5t7.5 53l1 396q-4 136 -113 136q-112 0 -112 -184h114q11 0 17.5 -1t11.5 -7t3 -17q-6 -28 -38 -26l-108 3v-301q0 -35 10.5 -55.5
t23 -25.5t23 -12t10.5 -18q0 -20 -39 -20h-126q-39 0 -39 20q0 9 7.5 16.5t16.5 13.5t16.5 27t7.5 54v304l-29 1q-11 1 -16.5 2t-10.5 6t-4 15q4 21 34 21h27q6 99 59.5 164.5t148.5 65.5q64 0 103 -24q52 22 74 24q20 2 20 -22z" />
    <glyph glyph-name=".notdef" horiz-adv-x="450" 
d="M369 700v-900h-285v900h285zM150 -16h150v102h-150v-102zM150 -66h63l-63 -42v-30h150v30h-92l63 42h29v30h-150v-30zM150 140h150v102h-90v-50h30v20h30v-42h-90v72h-30v-102zM150 430h150v31h-60v63h-90v-94zM150 547h150v30h-60v33h60v30h-149v-30h59v-33h-60v-30z
M150 313h90v63h60v30h-150v-30h60v-33h-60v-30zM150 262h150v90h-30v-60h-120v-30zM270 57v-43h-90v43h90zM180 493h30v-32h-30v32z" />
    <glyph glyph-name=".null" 
 />
    <glyph glyph-name="uni000D" horiz-adv-x="333" 
 />
    <glyph glyph-name="space" unicode=" " horiz-adv-x="200" 
 />
    <glyph glyph-name="exclam" unicode="!" horiz-adv-x="245" 
d="M79 692q17 18 43 18q27 0 44.5 -18.5t17.5 -48.5q0 -19 -21.5 -145.5t-27.5 -235.5q-1 -18 -13 -18t-13 18q-6 108 -26.5 235t-20.5 146q0 30 17 49zM84 90q19 17 43 17q23 0 39.5 -15t16.5 -41q0 -27 -18.5 -44t-43.5 -17q-24 0 -40 14t-16 40q0 28 19 46z" />
    <glyph glyph-name="quotedbl" unicode="&#x22;" horiz-adv-x="391" 
d="M119 710q45 0 45 -52q0 -32 -24 -186q-5 -27 -21 -27q-18 0 -22 26q-6 32 -14.5 101.5t-8.5 84.5q0 53 45 53zM273 710q22 0 33 -14.5t11 -37.5q0 -38 -23 -186q-7 -27 -21 -27q-18 0 -22 26q-6 33 -15 102.5t-9 83.5q0 53 46 53z" />
    <glyph glyph-name="numbersign" unicode="#" horiz-adv-x="713" 
d="M49 264h130l36 149h-146q-20 0 -20 20v11q0 20 20 20h159l54 219q5 17 22 17h10q19 0 19 -15q0 -3 -1 -7l-53 -214h159l54 219q5 17 22 17h10q19 0 19 -15q0 -3 -1 -7l-53 -214h149q20 0 20 -20v-11q0 -20 -20 -20h-161l-37 -149h178q20 0 20 -20v-11q0 -20 -20 -20h-191
l-48 -196q-5 -17 -22 -17h-10q-19 0 -19 15q0 3 1 7l47 191h-159l-48 -196q-5 -17 -22 -17h-10q-19 0 -19 15q0 3 1 7l47 191h-117q-20 0 -20 20v11q0 20 20 20zM389 264l36 149h-158l-37 -149h159z" />
    <glyph glyph-name="dollar" unicode="$" horiz-adv-x="529" 
d="M63 173q16 0 31 -28q65 -109 171 -110h4q57 0 89.5 29t34.5 73v7q0 11 -2.5 23t-13 24t-17.5 19.5t-26.5 18.5t-27.5 15.5t-32.5 16t-31.5 14.5q-6 3 -19 9q-41 19 -62.5 31t-51 34.5t-42.5 50.5t-13 63q0 59 47.5 103.5t131.5 52.5v37q0 13 5 17t17 4q11 0 16 -4t5 -17
v-36q16 -1 43.5 -5.5t38.5 -4.5t22 5t18 5q12 0 17.5 -9t12.5 -38q14 -68 15 -80q1 -6 1 -11q0 -18 -14 -18t-37 31q-64 81 -148 81q-51 0 -80.5 -24t-29.5 -61q0 -23 9.5 -41t35 -35.5t43 -27t60.5 -29.5q7 -4 34 -17t36 -17.5t31.5 -17t31 -20.5t24 -22t22 -26.5t12 -30
t6.5 -36.5v-7q0 -71 -59 -119t-145 -54v-51q0 -12 -5 -16.5t-16 -4.5q-22 0 -22 21v51q-27 1 -57.5 5.5t-40.5 4.5q-11 0 -22 -5.5t-18 -5.5q-24 0 -32 49q-14 79 -16 104q-1 5 -1 9q0 21 17 21z" />
    <glyph glyph-name="percent" unicode="%" horiz-adv-x="887" 
d="M107 655q47 55 119 55q69 0 114.5 -52.5t45.5 -133.5q0 -85 -47 -140.5t-119 -55.5q-70 0 -115 53t-45 134q0 85 47 140zM482 178q0 85 47 140t119 55q69 0 114.5 -52.5t45.5 -133.5q0 -85 -47 -140.5t-119 -55.5q-70 0 -115 53t-45 134zM588 81q26 -50 66 -50
q34 0 54.5 34t20.5 91q0 80 -25 129t-65 49q-35 0 -56 -32.5t-21 -88.5q0 -82 26 -132zM166 418q26 -50 66 -50q34 0 54.5 34t20.5 91q0 80 -25 129t-65 49q-35 0 -56 -32.5t-21 -88.5q0 -82 26 -132zM178 30l462 664q7 10 16 10q5 0 11 -4l5 -3q9 -8 9 -16q0 -6 -4 -12
l-464 -663q-6 -10 -14 -10q-6 0 -13 5l-3 2q-9 7 -9 15q0 5 4 12z" />
    <glyph glyph-name="ampersand" unicode="&#x26;" horiz-adv-x="822" 
d="M80 367q41 54 101 83q-62 39 -62 114q0 62 54 105t131 43q88 0 135 -49q11 -11 11 -21q0 -6 -4.5 -12t-12.5 -6t-18 6q-45 30 -98 30q-47 0 -77.5 -25t-30.5 -66q0 -63 43 -95q17 2 31 2q20 0 41 -6.5t21 -25.5q0 -28 -20.5 -30.5t-26.5 -2.5q-30 0 -65 17
q-88 -59 -88 -171q0 -89 67.5 -152.5t177.5 -63.5q53 0 93 16t61 42.5t30.5 53t9.5 53.5q0 50 -21.5 80t-66.5 30q-41 0 -62 -28.5t-21 -68.5q0 -9 -9 -9h-3q-20 13 -23 45q0 58 64 101q22 15 70 37t57 27q70 36 99.5 69.5t29.5 75.5t-42 42q-12 0 -39 -10q-5 -2 -10 -2
q-8 0 -11.5 5t-3.5 9q0 8 10 18q28 30 82 30q42 0 71 -23.5t29 -63.5q0 -129 -231 -212q53 -13 85.5 -51t32.5 -88q0 -86 -80 -156.5t-229 -70.5q-155 0 -239.5 73.5t-84.5 177.5q0 70 42 124z" />
    <glyph glyph-name="quotesingle" unicode="'" horiz-adv-x="238" 
d="M119 710q45 0 45 -52q0 -32 -24 -186q-5 -27 -21 -27q-18 0 -22 26q-6 32 -14.5 101.5t-8.5 84.5q0 53 45 53z" />
    <glyph glyph-name="parenleft" unicode="(" horiz-adv-x="374" 
d="M131 593q76 111 193 177q13 7 23 7q8 0 13 -7q4 -5 4 -10q0 -11 -16 -24q-187 -141 -187 -405q0 -260 191 -412q16 -14 16 -25q0 -5 -3 -9q-6 -10 -17 -10q-8 0 -18 5q-117 60 -196 176t-79 278q0 148 76 259z" />
    <glyph glyph-name="parenright" unicode=")" horiz-adv-x="374" 
d="M25 -81q191 152 191 412q0 264 -187 405q-16 13 -16 24q0 5 4 10q5 7 14 7t22 -7q117 -66 193 -177t76 -259q0 -162 -79 -278t-195 -176q-11 -5 -19 -5q-11 0 -17 10q-3 4 -3 9q0 11 16 25z" />
    <glyph glyph-name="asterisk" unicode="*" horiz-adv-x="498" 
d="M45 555q7 19 21 24.5t24 5.5q9 0 19 -3q17 -6 48 -35t35 -32q11 -8 21 -8q8 0 16.5 6.5t8.5 19.5q0 6 -2 13q-3 12 -18.5 47.5t-15.5 53.5q0 21 13.5 35.5t33.5 14.5t33.5 -14.5t13.5 -35.5q0 -17 -16 -54.5t-19 -46.5q-2 -7 -2 -13q0 -13 8.5 -19.5t16.5 -6.5q10 0 21 8
q9 7 38 34t45 33q10 3 19 3q10 0 24 -5.5t19 -19t5 -21.5q0 -11 -7 -24.5t-27 -21.5q-3 -5 -25 -5q-11 0 -37.5 2t-40.5 2h-6q-23 -1 -26 -12.5t-3 -15.5q0 -14 15 -24q8 -5 44 -23t48 -33t12 -33q0 -2 -0.5 -12.5t-16.5 -23.5q-13 -11 -28 -11q-3 0 -14.5 1.5t-24.5 18.5
q-13 14 -25.5 55t-18.5 53q-10 19 -26 19l-8.5 -0.5t-17.5 -19.5q-7 -15 -19 -54t-24 -53q-13 -17 -24.5 -18.5t-14.5 -1.5q-15 0 -28 11q-16 13 -16.5 23.5t-0.5 12.5q0 18 13 33q11 14 49.5 34t42.5 22q15 10 15 24q0 4 -3.5 15.5t-26.5 12.5h-7q-14 0 -40.5 -2t-37.5 -2
q-21 0 -24 5q-20 8 -27 21.5t-7 24.5q0 8 3 16z" />
    <glyph glyph-name="plus" unicode="+" horiz-adv-x="427" 
d="M29 373v3q2 18 9 24t25 6h119v123q0 18 6 24t24 6h3q18 0 24 -6t6 -24v-123h128q18 0 22 -5t4 -13q0 -5 -1 -12v-3q-2 -18 -9 -24t-25 -6h-119v-123q0 -18 -6 -24t-24 -6h-3q-18 0 -24 6t-6 24v123h-127q-18 0 -22.5 5t-4.5 16q0 4 1 9z" />
    <glyph glyph-name="comma" unicode="," horiz-adv-x="255" 
d="M87 90q18 17 40 17q28 0 45 -19t17 -57q0 -67 -34.5 -115.5t-62.5 -48.5q-15 0 -15 13q0 4 20 31t20 47q0 14 -24 38t-24 50q0 27 18 44z" />
    <glyph glyph-name="hyphen" unicode="-" horiz-adv-x="340" 
d="M44 287l3 11q3 16 19 16h212q15 0 15 -14v-5l-3 -11q-3 -16 -20 -16h-211q-16 0 -16 13q0 3 1 6z" />
    <glyph glyph-name="period" unicode="." horiz-adv-x="245" 
d="M84 90q19 17 43 17q23 0 39.5 -15t16.5 -41q0 -27 -18.5 -44t-43.5 -17q-24 0 -40 14t-16 40q0 28 19 46z" />
    <glyph glyph-name="slash" unicode="/" horiz-adv-x="369" 
d="M30 -74l249 795q4 19 25 19h11q20 0 20 -15q0 -5 -2 -11l-248 -795q-6 -19 -25 -19h-11q-21 0 -21 15q0 5 2 11z" />
    <glyph glyph-name="zero" unicode="0" horiz-adv-x="613" 
d="M122 614q68 96 178 96q116 0 188 -102.5t72 -267.5q0 -157 -67 -253.5t-176 -96.5q-119 0 -191 103t-72 268q0 156 68 253zM158 406q0 -86 18.5 -170t58.5 -144.5t93 -60.5q34 0 59.5 23t40.5 62t22 84.5t7 95.5q0 85 -19 167.5t-59.5 142.5t-93.5 60q-35 0 -60.5 -22
t-39.5 -60.5t-20.5 -82.5t-6.5 -95z" />
    <glyph glyph-name="one" unicode="1" horiz-adv-x="331" 
d="M59 645q0 8 10 14.5t49 21.5q69 27 93 29h3q17 0 17 -22v-568q0 -33 11.5 -52.5t23 -29.5t11.5 -20q0 -18 -43 -18h-118q-44 0 -44 18q0 9 10.5 17.5t23 16t23 25.5t10.5 43v433q0 31 -9 45.5t-38 22.5q-33 9 -33 24z" />
    <glyph glyph-name="two" unicode="2" horiz-adv-x="590" 
d="M57 53q77 70 125 117.5t103.5 111t82.5 118.5t27 102q0 60 -35.5 96t-95.5 36q-90 0 -158 -90q-8 -10 -16 -10q-3 0 -9 3t-6 12q0 5 3 12q24 61 83.5 105t138.5 44q88 0 143 -53.5t55 -136.5v-3q-1 -91 -79.5 -187.5t-257.5 -243.5q55 -4 114 -4q50 0 102 3q46 3 78.5 20
t50 32t26.5 15q14 0 14 -22v-9q-2 -30 -16 -73q-8 -26 -20 -37t-37 -11h-391q-32 0 -36.5 10t-4.5 14q0 13 16 29z" />
    <glyph glyph-name="three" unicode="3" horiz-adv-x="604" 
d="M59 168q5 3 9 3q9 0 17 -10q81 -102 203 -102q71 0 118 36.5t47 103.5q0 144 -221 164q-22 1 -23.5 9.5t-1.5 10.5q0 13 15 24q127 99 214 210q-59 6 -115 6q-44 0 -87 -4q-58 -6 -80 -37q-6 -8 -12.5 -18t-10 -15t-8 -8.5t-10.5 -3.5q-16 0 -16 26v6q1 51 14 95
q6 20 21 28t60 8h313q18 0 22.5 -7t4.5 -12q0 -7 -6 -17q-102 -145 -216 -240q57 -3 110 -24.5t93.5 -69.5t40.5 -113q0 -93 -68.5 -160.5t-181.5 -67.5q-91 0 -158.5 45t-93.5 108q-2 6 -2 11q0 10 9 15z" />
    <glyph glyph-name="four" unicode="4" horiz-adv-x="598" 
d="M40 174q0 23 34.5 75.5t118.5 164.5q167 223 209 269q27 27 50 27q28 0 28 -30v-459q22 0 41 7t24 7q12 0 13 -24q-1 -14 -5 -37q-8 -37 -38 -37h-35v-106q0 -25 -19 -36q-30 -16 -60 -16q-21 0 -21 24v136l-300 -2q-21 0 -30.5 6.5t-9.5 30.5zM153 221l236 1v373
q-113 -139 -253 -343q-7 -11 -7 -18q0 -13 24 -13z" />
    <glyph glyph-name="five" unicode="5" horiz-adv-x="589" 
d="M41 169q4 2 9 2q8 0 16 -10q81 -100 211 -100q68 0 111 41t43 101q0 92 -74 139t-221 64q-19 2 -19 18q0 4 1 9l76 248q6 19 23 19h2q50 -3 101 -3t103 3q36 2 58.5 18.5t29.5 16.5q15 0 15 -22v-6q-3 -30 -16 -61q-7 -14 -18.5 -20.5t-36.5 -7.5q-54 -4 -113 -4t-122 4
l-41 -141q358 -46 358 -256q0 -94 -68 -162.5t-175 -68.5q-97 0 -165.5 45t-95.5 108q-2 6 -2 10q0 11 10 16z" />
    <glyph glyph-name="six" unicode="6" horiz-adv-x="596" 
d="M134 597q80 113 200 113q53 0 92.5 -18t58.5 -45q6 -9 6 -16q0 -5 -4.5 -10.5t-11.5 -5.5q-5 0 -12 4q-57 31 -121 31q-78 0 -125.5 -70t-48.5 -186q23 41 71 68t99 27q91 0 152 -68.5t61 -165.5q0 -111 -72.5 -188t-175.5 -77q-114 0 -181 87.5t-67 235.5v4
q0 168 79 280zM167 262q0 -88 42.5 -154.5t116.5 -66.5q61 0 93.5 46t32.5 115q0 87 -43 152t-113 65q-60 0 -94.5 -44.5t-34.5 -112.5z" />
    <glyph glyph-name="seven" unicode="7" horiz-adv-x="521" 
d="M47 574q2 52 19 98q5 16 13.5 22t26.5 6h363q31 0 31 -16q0 -7 -6 -17q-18 -33 -71.5 -125.5t-77.5 -139t-58 -123t-48.5 -142t-14.5 -130.5q0 -16 -18 -16h-4q-32 2 -67 21q-18 11 -18 35q0 55 32.5 131.5t69.5 135t102 156.5t93 143q-63 5 -125 6q-63 -1 -125 -6
q-22 -2 -39 -13.5t-25.5 -24t-18.5 -22.5t-19 -10q-15 0 -15 25v6z" />
    <glyph glyph-name="eight" unicode="8" horiz-adv-x="582" 
d="M52 178q0 55 38 107.5t102 88.5q-106 75 -106 164q0 75 62.5 123.5t162.5 48.5q86 0 143.5 -41t57.5 -109q0 -105 -138 -181q86 -51 121 -92.5t35 -104.5q0 -81 -65.5 -136t-172.5 -55q-104 0 -172 50t-68 137zM188 78q44 -44 119 -44q54 0 89 34.5t35 83.5q0 43 -36 82
t-124 90l-48 29q-80 -71 -80 -163q0 -68 45 -112zM225 480q40 -38 112 -79q2 -2 4 -2q85 74 85 150q0 54 -34.5 85.5t-91.5 31.5q-48 0 -82 -27t-34 -74t41 -85z" />
    <glyph glyph-name="nine" unicode="9" horiz-adv-x="601" 
d="M122 633q72 77 175 77q114 0 181 -87t68 -236q0 -171 -80 -284t-200 -113q-53 0 -92.5 18t-58.5 45q-5 8 -5 15q0 6 4.5 11.5t11.5 5.5q5 0 12 -4q56 -31 120 -31q78 0 126 70t48 186q-23 -41 -70 -68t-99 -27q-92 0 -152.5 68.5t-60.5 165.5q0 111 72 188zM191 346
q43 -65 113 -65q61 0 95 44.5t34 112.5q0 88 -42.5 154.5t-116.5 66.5q-61 0 -93.5 -46t-32.5 -115q0 -87 43 -152z" />
    <glyph glyph-name="colon" unicode=":" horiz-adv-x="245" 
d="M84 402q19 17 43 17q23 0 39.5 -15t16.5 -41q0 -27 -18.5 -44t-43.5 -17q-24 0 -40 14t-16 40q0 28 19 46zM65 44q0 28 19 45.5t43 17.5q23 0 39.5 -15t16.5 -41q0 -27 -18.5 -44t-43.5 -17q-24 0 -40 14t-16 40z" />
    <glyph glyph-name="semicolon" unicode=";" horiz-adv-x="255" 
d="M87 90q18 17 40 17q28 0 45 -19t17 -57q0 -67 -34.5 -115.5t-62.5 -48.5q-15 0 -15 13q0 4 20 31t20 47q0 14 -24 38t-24 50q0 27 18 44zM84 402q19 17 43 17q23 0 39.5 -15t16.5 -41q0 -27 -18.5 -44t-43.5 -17q-24 0 -40 14t-16 40q0 28 19 46z" />
    <glyph glyph-name="equal" unicode="=" horiz-adv-x="527" 
d="M30 278v3q0 18 6 24t24 6h407q18 0 24 -6t6 -24v-3q0 -18 -6 -24t-24 -6h-407q-18 0 -24 6t-6 24zM30 447v3q0 18 6 24t24 6h407q18 0 24 -6t6 -24v-3q0 -18 -6 -24t-24 -6h-407q-18 0 -24 6t-6 24z" />
    <glyph glyph-name="question" unicode="?" horiz-adv-x="489" 
d="M110 668q54 42 138 42q86 0 137.5 -38.5t51.5 -97.5v-2q-1 -32 -19.5 -63t-42 -53t-52.5 -53t-44 -56q-18 -32 -20 -78q-1 -14 -8.5 -18t-12.5 -4q-6 0 -13.5 5t-7.5 21q0 45 17 88t37.5 72t38 67.5t18.5 73.5v4q0 39 -22 63t-59 24q-69 0 -98 -98q-7 -25 -16 -36
t-30 -11t-34 14t-13 38q0 53 54 96zM182 44q0 28 19 45.5t43 17.5q23 0 39.5 -15t16.5 -41q0 -27 -18.5 -44t-43.5 -17q-24 0 -40 14t-16 40z" />
    <glyph glyph-name="at" unicode="@" horiz-adv-x="833" 
d="M59 303q0 162 112 272.5t279 110.5q148 0 245.5 -90t97.5 -223q0 -98 -62 -174t-155 -76q-76 0 -89 67q-53 -68 -123 -68q-50 0 -85 38t-35 102q0 85 58 156.5t141 71.5q21 0 52 -8t38 -8q12 0 28.5 8t24.5 8q15 0 15 -21q0 -4 -1 -10l-34 -232q-1 -10 -1 -18
q0 -43 39 -43h2q51 0 97 62.5t46 144.5q0 117 -85.5 194t-213.5 77q-147 0 -246.5 -97t-99.5 -243q0 -143 93.5 -230.5t238.5 -87.5q79 0 137 19q6 2 10 2q12 0 14 -7t2 -10q0 -11 -16 -18q-60 -24 -150 -24q-166 0 -270 99t-104 256zM338 200q24 -27 57 -27q43 0 75 47
t44 122l11 67v1q0 11 -25.5 28t-58.5 17q-59 0 -93.5 -54t-34.5 -113q0 -61 25 -88z" />
    <glyph glyph-name="A" unicode="A" horiz-adv-x="686" 
d="M-1 19q0 11 8.5 18t20.5 12t27.5 23t26.5 46l189 481q4 15 4 25q0 9 -5.5 15.5t-19.5 17t-14 22.5q0 21 28 21h91q20 0 26 -18l222 -563q11 -28 25 -45.5t24.5 -23t17.5 -12t7 -16.5q0 -12 -11 -17t-38 -5h-117q-40 0 -40 19q0 12 15 23.5t19.5 19.5t4.5 16q0 14 -8 41
l-25 63q-7 19 -18 23q-17 6 -137 6q-129 0 -146 -7q-10 -4 -17 -23l-25 -63q-9 -30 -9 -44q0 -6 3.5 -14t17 -18.5t13.5 -20.5q0 -21 -37 -21h-81q-42 0 -42 19zM199 259q12 -5 124 -5q108 0 117 6q2 2 2 6q0 5 -3 14l-122 310l-121 -313q-2 -6 -2 -10q0 -6 5 -8z" />
    <glyph glyph-name="B" unicode="B" horiz-adv-x="611" 
d="M52 39q9 6 20 11t20.5 27t9.5 60v426q0 38 -9.5 60t-20.5 27t-20.5 11.5t-9.5 18.5q0 13 11 16.5t39 3.5h162q117 0 179 -39.5t62 -114.5q0 -48 -30 -83t-91 -47q95 -13 151.5 -65.5t56.5 -129.5q0 -221 -308 -221h-182q-28 0 -39 3.5t-11 16.5q0 12 10 19zM210 61
q15 -16 62 -16q105 0 156 38t51 122q0 86 -60 136t-168 50q-37 0 -47 -8.5t-10 -30.5v-237q0 -39 16 -54zM198 446q4 -4 14.5 -6t16.5 -2h23q79 0 113 23.5t34 73.5q0 54 -40 87t-105 33q-33 0 -46.5 -7.5t-13.5 -32.5v-157q0 -8 4 -12z" />
    <glyph glyph-name="C" unicode="C" horiz-adv-x="684" 
d="M142 601q102 109 253 109q33 0 72 -7.5t50 -7.5q12 0 26.5 6.5t22.5 6.5q14 0 21.5 -10.5t16.5 -42.5q18 -64 28 -126q2 -7 2 -13q0 -19 -17 -21h-3q-6 0 -13 4.5t-11 10.5l-14 21q-37 58 -85 91t-120 33q-107 0 -171.5 -81.5t-64.5 -196.5q0 -140 76 -232.5t197 -92.5
q124 0 211 96q8 9 16 9q5 0 10.5 -6t5.5 -13q0 -10 -8 -22q-29 -45 -98 -85.5t-169 -40.5q-155 0 -246 94.5t-91 248.5q0 159 103 268z" />
    <glyph glyph-name="D" unicode="D" horiz-adv-x="732" 
d="M42 20q0 12 9.5 18.5t20.5 11.5t20.5 27t9.5 60v426q0 38 -9.5 60t-20.5 27t-20.5 11.5t-9.5 18.5q0 13 11 16.5t39 3.5h206q103 0 181.5 -30.5t123.5 -81t67 -108t22 -119.5q0 -73 -20.5 -135.5t-62.5 -114t-114.5 -81.5t-168.5 -30h-234q-28 0 -39 3.5t-11 16.5z
M194 613v-510q0 -33 24 -46t97 -13q278 0 278 270q0 150 -88.5 246.5t-243.5 96.5q-40 0 -53.5 -8.5t-13.5 -35.5z" />
    <glyph glyph-name="E" unicode="E" horiz-adv-x="608" 
d="M52 39q9 6 20 11t20.5 27t9.5 60v426q0 38 -9.5 60t-20.5 27t-20.5 11.5t-9.5 18.5q0 13 11 16.5t39 3.5l372 1q42 0 54 -5.5t19 -25.5q18 -54 25 -106q1 -7 1 -13q0 -20 -13 -24q-2 -1 -5 -1q-17 0 -35 34q-26 49 -60.5 72t-86.5 23h-55q-71 0 -92.5 -10t-21.5 -36v-119
q0 -33 17 -41t58 -8h27q35 0 57 5t28.5 11t13.5 11t16 5q19 0 26 -32l20 -85q4 -22 5 -32q-1 -4 -2 -9.5t-12 -8.5q-3 -1 -5 -1q-7 0 -15 7t-17.5 21t-23 28t-37 24.5t-54.5 10.5h-27q-28 0 -41 -2t-23.5 -13t-10.5 -34v-253q0 -28 21.5 -38.5t93.5 -10.5l76 1
q61 0 85.5 19.5t46.5 71.5q17 39 36 39h4q14 -2 14 -27v-7q-4 -70 -15 -107q-5 -20 -20 -27.5t-61 -7.5h-383q-28 0 -39 3.5t-11 16.5q0 12 10 19z" />
    <glyph glyph-name="F" unicode="F" horiz-adv-x="565" 
d="M53 697q11 3 39 3l364 1q41 0 53.5 -5.5t19.5 -25.5q18 -54 25 -106q1 -7 1 -13q0 -20 -13 -24q-3 -1 -7 -1q-7 0 -14.5 6.5t-19.5 27.5q-25 49 -59.5 72t-86.5 23h-47q-72 0 -93 -10.5t-21 -39.5v-125q0 -33 17 -41t58 -8h29q35 0 57 5t28.5 11t13.5 11t16 5
q19 0 26 -32l20 -84q4 -22 5 -33q-1 -3 -2 -9t-7.5 -8t-8.5 -2q-9 0 -20.5 12t-23 30t-39 33.5t-65.5 15.5h-29q-28 0 -41 -2t-23.5 -13t-10.5 -34v-192q0 -39 9 -62.5t19.5 -29.5t19.5 -13.5t9 -19.5q0 -20 -49 -20h-110q-50 0 -50 20q0 12 9.5 19.5t20.5 13.5t20.5 29.5
t9.5 62.5v418q0 38 -9.5 60t-20.5 27t-20.5 11.5t-9.5 18.5q0 13 11 17z" />
    <glyph glyph-name="G" unicode="G" horiz-adv-x="752" 
d="M143 602q104 108 262 108q40 0 79 -7t48 -7q12 0 25 6t21 6q14 0 22 -11t15 -42q13 -48 27 -129q1 -6 1 -11q0 -22 -17 -24h-2q-16 0 -42 35q-23 32 -35.5 47t-39.5 38.5t-60.5 33.5t-77.5 10q-106 0 -170 -80t-64 -189v-4q0 -144 75.5 -239t200.5 -95q59 0 108.5 21.5
t49.5 55.5v96q0 32 -16.5 51.5t-36 25t-36 14t-16.5 21.5q0 21 49 21h149q35 0 35 -20q0 -11 -5.5 -18.5t-12.5 -13t-12.5 -26.5t-5.5 -55v-92q0 -48 -85 -92.5t-188 -45.5h-6q-155 0 -249 96.5t-94 246.5q0 160 104 268z" />
    <glyph glyph-name="H" unicode="H" horiz-adv-x="773" 
d="M52 40q9 7 20 13t20.5 29.5t9.5 62.5v410q0 32 -6 53t-14.5 30t-17 14.5t-14.5 11.5t-6 16q0 20 50 20h110q49 0 49 -20q0 -10 -6 -16t-14.5 -11.5t-17.5 -14.5t-15 -30t-6 -53v-113q0 -29 11 -36q17 -12 133 -12h55q147 0 168 8q17 6 18 29v124q0 39 -9 62.5t-19.5 29.5
t-19.5 13.5t-9 19.5q0 20 49 20h110q50 0 50 -20q0 -12 -9.5 -19.5t-20.5 -13.5t-20.5 -29.5t-9.5 -62.5v-410q0 -32 6 -53t14.5 -30t17 -14.5t14.5 -11.5t6 -16q0 -20 -50 -20h-110q-49 0 -49 20q0 10 6 16t15 11.5t17.5 14.5t14.5 30t6 53v156q0 30 -10 37q-16 11 -127 11
h-50q-157 0 -179 -8q-18 -6 -19 -28v-168q0 -39 9 -62.5t19.5 -29.5t19.5 -13.5t9 -19.5q0 -20 -49 -20h-110q-50 0 -50 20q0 12 10 20z" />
    <glyph glyph-name="I" unicode="I" horiz-adv-x="295" 
d="M42 20q0 12 9.5 19.5t20.5 13.5t20.5 29.5t9.5 62.5v410q0 32 -6 53t-14.5 30t-17 14.5t-14.5 11.5t-6 16q0 20 50 20h110q49 0 49 -20q0 -10 -6 -16t-14.5 -11.5t-17.5 -14.5t-15 -30t-6 -53v-410q0 -39 9 -62.5t19.5 -29.5t19.5 -13.5t9 -19.5q0 -20 -49 -20h-110
q-50 0 -50 20z" />
    <glyph glyph-name="J" unicode="J" horiz-adv-x="508" 
d="M29 194q13 14 34 14q22 0 35 -14t16 -36q19 -117 102 -117q110 0 110 219v295q0 39 -9 62.5t-19.5 29.5t-19.5 13.5t-9 19.5q0 20 49 20h111q49 0 49 -20q0 -10 -6 -16t-14.5 -11.5t-17.5 -14.5t-15 -30t-6 -53v-273q0 -145 -50.5 -217.5t-166.5 -72.5q-88 0 -137 49
t-49 113q0 25 13 40z" />
    <glyph glyph-name="K" unicode="K" horiz-adv-x="695" 
d="M52 40q9 7 20 13t20.5 29.5t9.5 62.5v410q0 32 -6 53t-14.5 30t-17 14.5t-14.5 11.5t-6 16q0 20 50 20h110q49 0 49 -20q0 -10 -6 -16t-14.5 -11.5t-17.5 -14.5t-15 -30t-6 -53v-204l268 250q19 18 20.5 25t1.5 10q0 7 -7 11.5t-16 12.5t-9 19q0 21 34 21h102
q49 0 49 -20q0 -15 -11.5 -21t-40 -19.5t-56.5 -38.5l-94 -88l182 -405q11 -24 25.5 -39t25.5 -20t18.5 -11.5t7.5 -17.5q0 -20 -39 -20h-109q-50 0 -50 23q0 9 11.5 20t14.5 18t3 12q0 12 -9 36l-148 342l-174 -163v-143q0 -39 9 -62.5t19.5 -29.5t19.5 -13.5t9 -19.5
q0 -20 -49 -20h-110q-50 0 -50 20q0 12 10 20z" />
    <glyph glyph-name="L" unicode="L" horiz-adv-x="552" 
d="M52 39q9 6 20 11t20.5 27t9.5 60v418q0 32 -6 53t-14.5 30t-17 14.5t-14.5 11.5t-6 16q0 20 50 20h110q49 0 49 -20q0 -10 -6 -16t-14.5 -11.5t-17.5 -14.5t-15 -30t-6 -53v-461q0 -28 17 -38.5t70 -10.5l63 1q61 0 85 19t47 72q11 25 19 32t16 7h4q15 -2 15 -28v-6
q-4 -70 -15 -107q-6 -20 -21 -27.5t-60 -7.5h-342q-28 0 -39 3.5t-11 16.5q0 12 10 19z" />
    <glyph glyph-name="M" unicode="M" horiz-adv-x="883" 
d="M52 40q8 7 18.5 12.5t20 23t10.5 44.5l18 466v5q0 26 -11.5 43t-24 27t-12.5 20q0 19 39 19h80q20 0 27 -19l217 -520l237 520q7 19 27 19h75q39 0 39 -19q0 -10 -8 -17.5t-17 -13t-16 -21.5t-7 -37v-6l15 -461q1 -27 9.5 -45t19 -23.5t19 -14t8.5 -20.5q0 -22 -44 -22
h-109q-50 0 -50 22q0 11 9 19.5t19.5 15t18.5 23t8 39.5v6l-11 452l-235 -512q-9 -16 -27 -21q-6 -1 -11 -1q-16 0 -21 12l-215 515l-16 -450v-6q0 -23 7 -39.5t16.5 -22t17.5 -13.5t8 -18q0 -12 -10.5 -16.5t-34.5 -4.5h-68q-44 0 -44 21q0 11 9 19z" />
    <glyph glyph-name="N" unicode="N" horiz-adv-x="753" 
d="M38 680q0 13 11 16.5t39 3.5h45q16 0 31 -16l451 -493l-1 389q0 22 -6 37.5t-13.5 22.5t-15.5 12.5t-13.5 11.5t-5.5 15q0 12 10.5 16.5t34.5 4.5h67q44 0 44 -21q0 -11 -8.5 -18.5t-18 -13t-18 -23t-8.5 -44.5v-549q0 -31 -25 -31q-22 0 -22 24q0 32 -26 62l-445 482
l2 -448q0 -27 8.5 -44.5t18.5 -23t18.5 -13t8.5 -18.5q0 -12 -10.5 -16.5t-34.5 -4.5h-68q-43 0 -43 21q0 11 8.5 18.5t18 13t18 23t8.5 44.5v443q0 38 -9.5 60t-20.5 27t-20.5 11.5t-9.5 18.5z" />
    <glyph glyph-name="O" unicode="O" horiz-adv-x="772" 
d="M144 598q104 112 263 112q147 0 236 -94.5t89 -240.5q0 -167 -102 -276t-265 -109q-146 0 -236 93t-90 239q0 163 105 276zM131 396q0 -150 76 -249t201 -99q109 0 170 79t61 191q0 141 -74.5 240t-195.5 99q-74 0 -129.5 -39.5t-82 -98t-26.5 -123.5z" />
    <glyph glyph-name="P" unicode="P" horiz-adv-x="626" 
d="M42 680q0 13 11 16.5t39 3.5h179q156 0 243 -70.5t87 -176.5q0 -111 -77 -170.5t-225 -59.5h-85q-14 0 -17 -3t-3 -17v-58q0 -39 9 -62.5t19.5 -29.5t19.5 -13.5t9 -19.5q0 -20 -49 -20h-110q-50 0 -50 20q0 12 9.5 19.5t20.5 13.5t20.5 29.5t9.5 62.5v418q0 38 -9.5 60
t-20.5 27t-20.5 11.5t-9.5 18.5zM200 280q6 -6 28.5 -9.5t67.5 -3.5q205 0 205 167q0 97 -64.5 159.5t-167.5 62.5q-48 0 -61.5 -5.5t-13.5 -21.5v-333q0 -11 6 -16z" />
    <glyph glyph-name="Q" unicode="Q" horiz-adv-x="772" 
d="M144 598q104 112 263 112q147 0 236 -94.5t89 -240.5q0 -167 -102 -276t-265 -109h-11q178 -46 276 -46q30 0 47.5 13t25.5 13q16 0 16 -29q0 -40 -28.5 -67t-89.5 -27q-35 0 -94.5 15.5t-100.5 30.5t-117 43q-125 46 -160 46q-13 0 -22.5 -8.5t-13.5 -8.5q-16 0 -16 22
q0 21 16 34.5t45 13.5q26 0 66 -8q-78 41 -121.5 118.5t-43.5 176.5q0 163 105 276zM131 396q0 -150 76 -249t201 -99q109 0 170 79t61 191q0 141 -74.5 240t-195.5 99q-74 0 -129.5 -39.5t-82 -98t-26.5 -123.5z" />
    <glyph glyph-name="R" unicode="R" horiz-adv-x="655" 
d="M52 40q9 7 20 13t20.5 29.5t9.5 62.5v418q0 38 -9.5 60t-20.5 27t-20.5 11.5t-9.5 18.5q0 13 11 16.5t39 3.5h183q159 0 243 -66t84 -169q0 -147 -137 -202l88 -158q12 -21 27 -35.5t25.5 -19.5t17.5 -12t7 -18q0 -20 -39 -20h-108q-49 0 -49 23q0 9 12.5 20.5t15 18
t2.5 10.5q0 12 -11 37l-74 132q-28 -4 -68 -4h-97q-20 0 -20 -20v-72q0 -39 9 -62.5t19.5 -29.5t19.5 -13.5t9 -19.5q0 -20 -49 -20h-110q-50 0 -50 20q0 12 10 20zM194 310q0 -10 7.5 -15.5t33 -9t74.5 -3.5q86 0 139 39.5t53 124.5q0 90 -61.5 149t-166.5 60h-14
q-37 0 -51 -5t-14 -21v-319z" />
    <glyph glyph-name="S" unicode="S" horiz-adv-x="581" 
d="M68 221q20 0 37 -34q64 -148 200 -149q69 0 105.5 34.5t38.5 85.5v6q0 12 -3.5 25t-8.5 23.5t-18.5 22t-21.5 18.5t-28 17.5t-28.5 15t-33 15.5t-31.5 15q-7 3 -30 14t-31 15t-28.5 15t-28.5 17t-24 17.5t-23.5 20.5t-18 22.5t-15 26.5t-8 29.5t-3.5 34.5q0 74 62.5 127
t172.5 53q24 0 60 -5.5t48 -5.5t25 5.5t20 5.5q14 0 20 -10t14 -43q17 -71 24 -113q1 -6 1 -11q0 -22 -17 -22q-20 0 -39 32q-75 120 -178 120q-60 0 -92.5 -29.5t-32.5 -76.5q0 -13 2 -24t8.5 -21t11.5 -17.5t17 -16.5t19 -14.5t24.5 -14.5t25.5 -13.5t29.5 -15t30.5 -14.5
q10 -5 44.5 -21t46.5 -22.5t39 -22t38 -27.5t26 -30t21 -39t7 -46v-7q0 -87 -72.5 -142.5t-176.5 -56.5q-44 0 -88 6.5t-53 6.5q-12 0 -25 -6t-20 -6q-15 0 -23 12t-13 43q-16 87 -22 140v9q0 26 17 26z" />
    <glyph glyph-name="T" unicode="T" horiz-adv-x="637" 
d="M36 558q1 66 13 107q5 20 20.5 27.5t60.5 7.5l377 1q45 0 60.5 -7.5t20.5 -27.5q12 -41 13 -107v-5q0 -29 -20 -29q-17 0 -37 39q-16 30 -23.5 42t-22 26.5t-33 19t-47.5 4.5t-41 -11.5t-12 -38.5v-461q0 -39 9 -62.5t19.5 -29.5t19.5 -13.5t9 -19.5q0 -20 -49 -20h-111
q-49 0 -49 20q0 10 6 16t14.5 11.5t17.5 14.5t15 30t6 53v460q0 27 -12 38.5t-41 11.5q-54 0 -75.5 -18.5t-50.5 -72.5q-12 -22 -19.5 -31t-17.5 -9q-20 0 -20 29v5z" />
    <glyph glyph-name="U" unicode="U" horiz-adv-x="717" 
d="M52 694q11 4 39 4h110q50 0 50 -20q0 -12 -9.5 -19.5t-20.5 -13.5t-20.5 -29.5t-9.5 -61.5v-293q0 -105 52 -161.5t145 -56.5q94 0 146 63.5t52 163.5l-2 310q0 27 -8.5 44.5t-18 23t-18 13t-8.5 18.5q0 12 10.5 16.5t34.5 4.5h67q44 0 44 -21q0 -9 -5.5 -15t-13.5 -11.5
t-15.5 -12.5t-13.5 -22.5t-6 -37.5v-296q0 -137 -66 -215.5t-199 -78.5q-127 0 -198 76.5t-71 210.5v277q0 38 -9 61.5t-20 29.5t-20 13.5t-9 19.5t11 16z" />
    <glyph glyph-name="V" unicode="V" horiz-adv-x="687" 
d="M51 700h117q41 0 41 -19q0 -12 -15 -23.5t-20 -19.5t-5 -17q0 -14 8 -40l193 -492l188 493q9 30 9 44q0 6 -3.5 14t-17 18.5t-13.5 20.5q0 21 36 21h82q41 0 41 -19q0 -11 -8.5 -18t-20.5 -12t-27 -23t-26 -46l-218 -560q-5 -13 -11.5 -17.5t-26.5 -8.5q-14 -2 -24 -2
q-7 0 -14 2t-11 15l-229 570q-14 35 -32.5 53t-29.5 25t-11 19q0 22 48 22z" />
    <glyph glyph-name="W" unicode="W" horiz-adv-x="1035" 
d="M14 696q10 4 36 4h116q40 0 40 -19q0 -11 -14 -22.5t-19 -20.5t-5 -19q0 -14 6 -38l165 -486l154 457l-10 29q-9 28 -22.5 45.5t-23.5 23t-17.5 12.5t-7.5 17q0 21 47 21h116q41 0 41 -19q0 -11 -14.5 -22.5t-19.5 -20.5t-5 -19q0 -14 6 -38l164 -485l161 485q7 28 7 43
q0 8 -4 16.5t-17 18.5t-13 20q0 21 36 21h82q41 0 41 -19q0 -11 -8.5 -18t-20.5 -12t-26.5 -23t-24.5 -47l-190 -558q-7 -20 -40 -26q-11 -2 -20 -2q-21 0 -27 14l-165 473l-156 -459q-6 -19 -40 -26q-11 -2 -20 -2q-22 0 -26 14l-201 572q-10 28 -23.5 45.5t-23.5 23
t-17.5 12.5t-7.5 17q0 12 11 17z" />
    <glyph glyph-name="X" unicode="X" horiz-adv-x="709" 
d="M21 19q0 11 9 17.5t21.5 10.5t32 18t35.5 37l178 248l-178 239q-18 23 -37 39t-30.5 21.5t-19.5 12.5t-8 17q0 12 11 16.5t37 4.5h138q41 0 41 -19q0 -10 -9.5 -18.5t-18 -14t-8.5 -18.5q0 -2 0.5 -10t17.5 -31l139 -186l141 195q16 22 18 31t2 13q0 7 -4.5 10.5
t-11.5 10.5t-7 16q0 21 36 21h81q41 0 41 -19q0 -11 -9 -17.5t-22 -10.5t-32 -18t-35 -37l-169 -233l190 -254q18 -23 37 -39t30.5 -21.5t19 -12.5t7.5 -17q0 -21 -47 -21h-139q-40 0 -40 19q0 10 9.5 18.5t17.5 14t8 18.5q0 1 -0.5 9.5t-17.5 31.5l-150 201l-150 -210
q-16 -22 -18 -31t-2 -13q0 -7 4.5 -10.5t11.5 -10.5t7 -16q0 -21 -36 -21h-81q-41 0 -41 19z" />
    <glyph glyph-name="Y" unicode="Y" horiz-adv-x="662" 
d="M16 696q10 4 36 4h139q40 0 40 -19q0 -11 -15.5 -23t-18 -18.5t-2.5 -9.5q0 -13 16 -43l152 -225l145 234q15 23 16 31.5t1 11.5q0 9 -5 13t-12 11t-7 16q0 21 37 21h80q42 0 42 -19q0 -11 -9 -17.5t-22 -11t-31.5 -19t-33.5 -37.5l-183 -287v-164q0 -32 6 -53t14.5 -30
t17 -14.5t14.5 -11.5t6 -16q0 -20 -50 -20h-110q-49 0 -49 20q0 10 6 16t14.5 11.5t17.5 14.5t15 30t6 53v165l-192 278q-17 24 -35.5 40t-30 21.5t-19 12.5t-7.5 17q0 12 11 17z" />
    <glyph glyph-name="Z" unicode="Z" horiz-adv-x="635" 
d="M51 38l421 617h-221q-51 0 -85.5 -23.5t-60.5 -72.5q-11 -21 -18 -27t-15 -6q-3 0 -8 1q-13 3 -13 21q0 7 2 15q7 52 25 106q7 20 19 25.5t54 5.5h416q19 0 23 -7t4 -12q0 -8 -7 -18l-420 -618l232 1q51 0 85.5 23t60.5 72q11 21 18.5 27.5t15.5 6.5q3 0 7 -1
q13 -4 13 -22q0 -7 -2 -15q-7 -52 -25 -106q-6 -20 -18.5 -25.5t-54.5 -5.5h-428q-19 0 -23 7.5t-4 11.5q0 9 7 19z" />
    <glyph glyph-name="bracketleft" unicode="[" horiz-adv-x="347" 
d="M115 779h153q22 0 22 -21t-22 -21h-62q-17 0 -17 -17v-789q0 -17 17 -17h62q22 0 22 -21t-22 -21h-153q-23 0 -23 22v863q0 22 23 22z" />
    <glyph glyph-name="backslash" unicode="\" horiz-adv-x="370" 
d="M49 740h11q19 0 25 -19l249 -795q2 -6 2 -11q0 -15 -21 -15h-11q-19 0 -25 19l-248 795q-2 6 -2 11q0 15 20 15z" />
    <glyph glyph-name="bracketright" unicode="]" horiz-adv-x="347" 
d="M57 758q0 21 23 21h152q23 0 23 -22v-863q0 -22 -23 -22h-152q-23 0 -23 21t23 21h61q17 0 17 17v789q0 17 -17 17h-61q-23 0 -23 21z" />
    <glyph glyph-name="underscore" unicode="_" horiz-adv-x="397" 
d="M0 -51q0 21 21 21h354q21 0 21 -21q0 -22 -21 -22h-354q-21 0 -21 22z" />
    <glyph glyph-name="grave" unicode="`" horiz-adv-x="500" 
d="M207 655q7 15 24 21q5 2 11 2q8 0 20 -4.5t21.5 -12t34.5 -27.5q62 -58 67 -70q1 -3 1 -5q0 -9 -12 -13q-10 -4 -22 -4q-29 0 -81.5 23.5t-63.5 54.5q-3 9 -3 18t3 17z" />
    <glyph glyph-name="a" unicode="a" horiz-adv-x="549" 
d="M83 260q58 45 150 45q53 0 108 -13q-8 32 -12 46t-13.5 36t-20.5 31t-30 16.5t-44 7.5q-63 0 -136 -42q-7 -5 -13 -5t-10 4.5t-4 9.5q0 6 5 14q20 30 72 54.5t115 24.5q77 0 116.5 -41.5t55.5 -114.5l46 -217q5 -24 14.5 -36.5t17 -15t19.5 -2.5q20 0 20 -12
q0 -20 -26 -38.5t-58 -18.5q-33 0 -47 18.5t-22 58.5q-30 -38 -77 -59t-92 -21q-89 0 -140.5 43.5t-51.5 109.5q0 72 58 117zM117 154q2 -50 35 -82t88 -32q52 0 93 30t41 59q0 4 -1 8q-2 11 -9 41t-12 52q-3 16 -36.5 24.5t-64.5 8.5q-65 0 -99.5 -28.5t-34.5 -77.5v-3z
" />
    <glyph glyph-name="b" unicode="b" horiz-adv-x="603" 
d="M43 664q5 5 23 13q65 31 93 33h3q17 0 17 -22l-1 -138v-148q27 39 71 63.5t97 24.5q96 0 158.5 -64.5t62.5 -167.5q0 -112 -67 -190t-163 -78q-58 0 -104 19.5t-55 19.5q-16 -1 -41 -16t-39 -15q-18 0 -18 17q0 3 1 8q6 31 6 81v446q0 30 -8 48.5t-17 23.5t-17 12t-8 17
q0 8 6 13zM178 285l1 -81q0 -66 47 -118t112 -52q64 0 101.5 48.5t37.5 134.5q0 96 -48 154.5t-114 58.5q-65 0 -101 -49t-36 -96z" />
    <glyph glyph-name="c" unicode="c" horiz-adv-x="516" 
d="M108 413q73 76 180 76q88 0 141 -49t53 -113q0 -25 -13 -39.5t-34 -14.5q-36 0 -51 51q-16 55 -44.5 86.5t-78.5 32.5q-64 0 -101 -47t-37 -121q0 -99 50.5 -158.5t133.5 -59.5q80 0 147 71q9 9 17 9q4 0 9.5 -3.5t5.5 -11.5q0 -5 -3 -12q-19 -46 -73.5 -83t-141.5 -37
q-104 0 -168.5 67t-64.5 166q0 113 73 190z" />
    <glyph glyph-name="d" unicode="d" horiz-adv-x="587" 
d="M35 221q0 114 74.5 191.5t174.5 77.5q84 0 139 -48v108q0 30 -7.5 48t-17 23.5t-17 12.5t-7.5 17q0 8 5.5 13t22.5 13q67 31 94 33h3q16 0 16 -22l-1 -138l-1 -419q0 -25 9.5 -40t20.5 -18.5t20.5 -9t9.5 -14.5q0 -15 -26 -29q-54 -30 -88 -30q-32 0 -34 52l-1 36
q-62 -88 -173 -88h-2q-96 1 -155 67t-59 164zM124 268q0 -101 48.5 -157.5t110.5 -56.5q58 0 95.5 38.5t43.5 87.5v50q-4 87 -31 131q-45 80 -129 80q-63 0 -100.5 -48.5t-37.5 -124.5z" />
    <glyph glyph-name="e" unicode="e" horiz-adv-x="525" 
d="M107 414q72 76 182 76q80 0 133 -41.5t67 -107.5q1 -5 1 -10q0 -21 -24 -31q-129 -50 -330 -116q16 -50 60.5 -88t108.5 -38q91 0 158 71q9 9 17 9q4 0 9.5 -3t5.5 -12q0 -5 -3 -12q-19 -45 -78 -83t-145 -38q-104 0 -169 66.5t-65 166.5q0 114 72 191zM129 226
q154 51 233 81q20 8 20 27q0 3 -1 7q-7 45 -43 73.5t-75 28.5h-5q-63 -1 -99 -48.5t-36 -107.5q0 -41 6 -61z" />
    <glyph glyph-name="f" unicode="f" horiz-adv-x="361" 
d="M47 459q4 21 34 21h26q0 230 160 230q55 0 85 -30.5t30 -72.5q0 -21 -12.5 -35t-31.5 -14q-30 0 -41 35q-9 34 -22.5 50t-38.5 16q-28 0 -46 -23.5t-18 -70.5q0 -30 6 -57.5t18 -27.5h114q11 0 17.5 -1t11 -6t4.5 -12q0 -3 -1 -6q-6 -26 -34 -26h-4l-108 3v-301
q0 -29 7 -48t16.5 -26.5t19.5 -12t17 -10t7 -15.5q0 -19 -39 -19h-126q-39 0 -39 20q0 9 7.5 16.5t16.5 13.5t16.5 27t7.5 54v304l-29 1q-11 1 -16.5 2t-10 5.5t-4.5 12.5v3z" />
    <glyph glyph-name="g" unicode="g" horiz-adv-x="550" 
d="M34 -86q0 25 17 50.5t50 39.5q-62 31 -62 87q0 24 19 48t60 39q-69 44 -69 124t65.5 133.5t162.5 54.5h9q16 -1 34 -2.5t28 -1.5q39 0 76 56q18 22 34 22q14 0 25 -10t11 -26q0 -28 -24 -49.5t-59 -30.5q57 -46 57 -117q0 -81 -61 -133.5t-160 -53.5q-54 0 -96 17
q-26 -18 -26 -41q0 -59 117 -59q31 0 83.5 3.5t67.5 3.5q71 0 109.5 -31.5t38.5 -80.5q0 -75 -74.5 -121.5t-208.5 -46.5q-93 0 -158.5 32t-65.5 94zM175 227q34 -42 89 -42q51 0 81 34.5t30 86.5q-1 60 -32.5 102t-87.5 42q-49 0 -82 -33.5t-33 -86.5q1 -61 35 -103z
M121 -82q0 -42 43.5 -65t117.5 -23q76 0 123 24.5t47 69.5q0 64 -82 64h-15q-97 -5 -151 -5q-33 0 -58 -17.5t-25 -47.5z" />
    <glyph glyph-name="h" unicode="h" horiz-adv-x="626" 
d="M52 664q5 5 23 13q65 31 93 33h3q17 0 17 -22l-1 -138v-154q30 46 74.5 70t91.5 24q76 0 117.5 -48t60.5 -162l31 -176q4 -21 13 -35t18 -19.5t15.5 -13t6.5 -17.5q0 -19 -39 -19h-106q-40 0 -40 20q0 8 5.5 14t12.5 11t13.5 11.5t8.5 16.5t3 17q-1 8 -2 17l-29 166
q-6 37 -12 59t-19 47.5t-35 37.5t-55 12q-54 -1 -94 -48t-40 -133v-116q0 -33 7 -53t16 -26.5t16 -14.5t7 -19q0 -19 -39 -19h-107q-40 0 -40 20q0 11 7.5 18.5t17 14t17 26.5t7.5 53l-1 418q0 30 -7.5 48.5t-17 23.5t-17 12t-7.5 17q0 8 6 13z" />
    <glyph glyph-name="i" unicode="i" horiz-adv-x="286" 
d="M57 444q5 5 22 13q67 31 93 33h3q17 0 17 -22l-1 -138v-198q0 -33 7.5 -53t16 -26.5t16 -14.5t7.5 -19q0 -19 -39 -19h-107q-40 0 -40 20q0 11 7.5 18.5t16.5 14t16.5 26.5t7.5 53v198q0 30 -7.5 48t-17 23.5t-17 12.5t-7.5 17q0 8 6 13zM64 615q2 28 28 51t51 23
q4 0 8 -1q20 -1 32.5 -16.5t12.5 -32.5v-3q-2 -27 -29 -49t-53 -22h-5q-21 2 -33 15t-12 32v3z" />
    <glyph glyph-name="j" unicode="j" horiz-adv-x="273" 
d="M17 -164q4 1 9 1q52 0 69 33t17 106v355q0 30 -7.5 48t-17 23.5t-17 12.5t-7.5 17q0 8 5.5 13t23.5 13q65 31 93 33h3q17 0 17 -22l-2 -493v-42q0 -71 -31.5 -108t-87.5 -37q-62 0 -77 26q-3 5 -3 9q0 9 13 12zM88 615q2 28 28 51t51 23q4 0 8 -1q20 -1 32.5 -16.5
t12.5 -32.5v-3q-2 -27 -29 -49t-53 -22h-5q-21 2 -33 15t-12 32v3z" />
    <glyph glyph-name="k" unicode="k" horiz-adv-x="592" 
d="M52 664q5 5 23 13q65 31 93 33h3q17 0 17 -22l-1 -138v-353l194 207q9 12 9 19q0 3 -3 7.5t-15 14.5t-12 17q0 18 29 18h97q33 0 33 -17q0 -10 -9 -14.5t-31 -17t-45 -36.5l-44 -47l109 -247q8 -19 20.5 -33t22 -20t17 -13.5t7.5 -16.5q0 -10 -9.5 -14t-33.5 -4h-103
q-40 0 -40 18q0 11 16.5 25.5t16.5 28.5q0 7 -3 14l-85 193l-138 -148q0 -32 7 -52.5t16 -26.5t16 -14t7 -19q0 -19 -39 -19h-107q-40 0 -40 20q0 11 7.5 18.5t17 14t17 26.5t7.5 53l-1 418q0 30 -7.5 48.5t-17 23.5t-17 12t-7.5 17q0 8 6 13z" />
    <glyph glyph-name="l" unicode="l" horiz-adv-x="278" 
d="M52 664q5 5 23 13q65 31 93 33h3q17 0 17 -22l-1 -138v-418q0 -33 7 -53t16 -26.5t16 -14.5t7 -19q0 -19 -39 -19h-107q-40 0 -40 20q0 11 7.5 18.5t17 14t17 26.5t7.5 53l-1 418q0 30 -7.5 48.5t-17 23.5t-17 12t-7.5 17q0 8 6 13z" />
    <glyph glyph-name="m" unicode="m" horiz-adv-x="962" 
d="M58 39q7 7 16.5 13.5t17 26.5t7.5 53v201q0 57 -31 75q-18 11 -18 23q0 9 5.5 14.5t23.5 13.5q55 26 82 28q20 0 20 -22l-1 -85q29 54 75.5 82t101.5 28q125 0 160 -114q29 56 76 85t102 29q75 0 114 -47t59 -163l31 -176q4 -21 13 -35t17.5 -19.5t15.5 -13t7 -17.5
q0 -19 -39 -19h-107q-39 0 -39 20q0 8 5.5 14t12.5 11t13.5 11.5t8.5 16.5t3 17q-1 8 -2 17l-29 166q-6 33 -9 47.5t-12 40.5t-19.5 37.5t-30 21t-45.5 9.5q-51 -1 -91 -45.5t-43 -125.5l1 -126q0 -33 7.5 -53t16 -26.5t16 -14.5t7.5 -19q0 -19 -39 -19h-107q-40 0 -40 20
q0 11 7.5 18.5t16.5 14t16.5 26.5t7.5 53v139q0 160 -106 160h-4q-57 -1 -98 -49t-41 -134v-116q0 -33 7 -53t16 -26.5t16 -14.5t7 -19q0 -19 -39 -19h-107q-40 0 -40 20q0 11 8 19z" />
    <glyph glyph-name="n" unicode="n" horiz-adv-x="629" 
d="M50 431q0 9 5.5 14.5t23.5 13.5q55 26 82 28q20 0 20 -22l-1 -85q29 53 76.5 81.5t99.5 28.5q76 0 117.5 -48t60.5 -162l31 -176q4 -21 13 -35t18 -19.5t15.5 -13t6.5 -17.5q0 -19 -39 -19h-106q-40 0 -40 20q0 8 5.5 14t12.5 11t13.5 11.5t8.5 16.5t3 17q-1 8 -2 17
l-29 166q-6 37 -12 59t-19 47.5t-35 37.5t-55 12q-54 -1 -94 -48t-40 -133v-116q0 -33 7 -53t16 -26.5t16 -14.5t7 -19q0 -19 -39 -19h-107q-40 0 -40 20q0 11 7.5 18.5t17 14t17 26.5t7.5 53v201q0 57 -31 75q-18 11 -18 23z" />
    <glyph glyph-name="o" unicode="o" horiz-adv-x="566" 
d="M110 413q74 77 189 77q99 0 164.5 -68t65.5 -170q0 -112 -72.5 -187t-186.5 -75q-103 0 -169 63.5t-66 168.5q0 114 75 191zM176 105q49 -67 125 -67q63 0 100.5 45.5t37.5 118.5q0 96 -50.5 166.5t-124.5 70.5q-65 0 -101.5 -47.5t-36.5 -121.5q0 -99 50 -165z" />
    <glyph glyph-name="p" unicode="p" horiz-adv-x="593" 
d="M71 463q57 25 82 27h3q17 0 17 -22l-1 -81q61 103 182 103q92 0 147.5 -67t55.5 -171q0 -113 -62 -187t-155 -75h-5q-41 0 -82.5 14.5t-70.5 38.5l1 -111q0 -33 7 -53t16 -26.5t16 -14.5t7 -19q0 -19 -39 -19h-107q-39 0 -39 19q0 11 7.5 19t16.5 14.5t16.5 26.5t7.5 53
l-2 405q0 56 -30 74q-18 11 -18 23q0 16 29 29zM182 267v-70q0 -73 49.5 -117.5t105.5 -44.5h3q62 1 94.5 50.5t32.5 126.5q0 103 -42.5 159t-103.5 56q-64 0 -101.5 -49.5t-37.5 -110.5z" />
    <glyph glyph-name="q" unicode="q" horiz-adv-x="579" 
d="M108 413q73 77 168 77q42 0 87.5 -14.5t54.5 -14.5q20 0 39 14.5t31 14.5q21 0 21 -25v-534q0 -33 7.5 -54t16.5 -27.5t16.5 -14t7.5 -16.5q0 -19 -39 -19h-126q-39 0 -39 19q0 10 7 15.5t16.5 10t19.5 12t17 26.5t7 48v152q-61 -93 -169 -93q-98 0 -157 66t-59 164
q0 115 73 193zM125 268q0 -101 49 -158t111 -57q65 0 99.5 53t34.5 123q0 86 -26 132q-46 80 -130 80q-63 0 -100.5 -48.5t-37.5 -124.5z" />
    <glyph glyph-name="r" unicode="r" horiz-adv-x="442" 
d="M58 39q7 7 16.5 13.5t17 26.5t7.5 53v201q0 57 -31 75q-18 11 -18 23q0 9 5.5 14.5t23.5 13.5q55 26 82 28q20 0 20 -22l-1 -81q24 46 62.5 76t81.5 30q38 0 58 -20t20 -49q0 -20 -11.5 -35t-28.5 -16q-21 0 -42 21.5t-44 21.5q-34 0 -60 -43t-26 -107v-131q0 -33 7 -53
t16 -26.5t16 -14.5t7 -19q0 -19 -39 -19h-107q-40 0 -40 20q0 11 8 19z" />
    <glyph glyph-name="s" unicode="s" horiz-adv-x="475" 
d="M52 157q2 1 5 1q12 0 29 -19q55 -59 98 -81t88 -22q36 0 60 17t24 49q0 30 -33 52t-104 51q-41 16 -64.5 27t-51 29.5t-40 42t-12.5 52.5q0 64 48 99t111 35q31 0 67 -6t44 -6h2q8 0 16.5 6t14.5 6q12 0 27 -26q3 -5 4 -7q15 -28 31 -64q4 -11 4 -19q0 -11 -8 -16
q-7 -1 -8.5 -2t-2.5 -1q-3 0 -10 4.5t-10.5 7.5t-14 11.5t-18.5 14.5q-71 53 -135 53q-39 0 -61.5 -17.5t-22.5 -44.5q0 -31 30.5 -51.5t108.5 -51.5q86 -34 130 -67t44 -84q0 -57 -51 -98.5t-131 -41.5q-39 0 -75.5 9.5t-40.5 9.5q-8 0 -18.5 -9.5t-19.5 -9.5
q-10 0 -14 5.5t-14 28.5q-26 69 -37 106q-1 5 -1 9q0 13 12 18z" />
    <glyph glyph-name="t" unicode="t" horiz-adv-x="354" 
d="M17 454q0 11 9 21q45 51 107 98q15 10 27 10q16 0 16 -19v-5q-3 -27 -4 -79h100q11 0 16 -1t8 -6t3 -11q0 -3 -1 -7q-6 -26 -34 -26h-4l-89 3l-4 -270v-13q0 -44 13 -67.5t52 -23.5t76 33q7 6 13 6q4 0 9 -3.5t5 -10.5q0 -4 -2 -9q-13 -31 -48 -57.5t-86 -26.5
q-120 0 -120 142v30q0 189 4 272h-38q-28 0 -28 20z" />
    <glyph glyph-name="u" unicode="u" horiz-adv-x="595" 
d="M56 444q5 5 23 13q65 31 93 33h3q17 0 17 -22l-1 -138v-131q0 -149 102 -149h4q52 1 96 45.5t44 113.5v121q0 30 -8 48.5t-17 23.5t-17 12t-8 17q0 8 5.5 13t23.5 13q65 31 93 33h3q17 0 17 -22l-1 -138v-199q0 -26 9 -40.5t20.5 -18t20.5 -9t9 -14.5q0 -16 -25 -29
q-52 -30 -89 -30q-32 0 -34 52l-1 41q-32 -44 -78.5 -68.5t-90.5 -24.5q-78 0 -123.5 49.5t-45.5 149.5v141q0 30 -8 48.5t-17 23.5t-17 12t-8 17q0 8 6 13z" />
    <glyph glyph-name="v" unicode="v" horiz-adv-x="524" 
d="M52 480h112q39 0 39 -19q0 -9 -14 -20t-18.5 -20t-4.5 -17q0 -15 9 -43l113 -292l112 292q10 31 10 47q0 5 -3 13.5t-15.5 19.5t-12.5 20q0 19 40 19h54q40 0 40 -19q0 -8 -6.5 -15.5t-15.5 -14.5t-22.5 -25t-23.5 -45l-128 -334q-5 -13 -13 -19t-32 -12q-18 -4 -29 -4
q-6 0 -13 2.5t-13 16.5l-138 350q-10 27 -23 45t-22 25t-15 14.5t-6 15.5q0 19 39 19z" />
    <glyph glyph-name="w" unicode="w" horiz-adv-x="830" 
d="M13 459q0 20 39 20h112q40 0 40 -20q0 -9 -14.5 -20t-19 -20t-4.5 -17q0 -15 9 -43l100 -251l132 358q6 15 25 20q6 1 10 1q15 0 20 -12l135 -370l107 256q10 31 10 47q0 4 -2.5 12.5t-15 19.5t-12.5 20q0 19 39 19h57q39 0 39 -19q0 -9 -6.5 -16t-15.5 -13.5t-22.5 -25
t-24.5 -44.5l-143 -341q-8 -18 -34 -23q-10 -2 -17 -2q-17 0 -20 11l-123 347l-124 -333q-6 -18 -34 -23q-10 -2 -17 -2q-17 0 -21 11l-138 353q-10 27 -23 45t-22 25t-15 14.5t-6 15.5z" />
    <glyph glyph-name="x" unicode="x" horiz-adv-x="527" 
d="M26 20q0 10 11 18.5t35 27t46 46.5l97 123l-93 132q-16 23 -34.5 40t-30 23.5t-19 14t-7.5 16.5q0 19 39 19h133q39 0 39 -19q0 -8 -8 -16l-15 -15q-5 -5 -5 -16q0 -3 1 -13t18 -34l52 -74l57 75q18 23 19.5 33.5t1.5 14.5q0 10 -4 15l-15 14q-8 8 -8 16q0 19 39 19h71
q39 0 39 -19q0 -11 -11 -19t-35 -27t-45 -47l-84 -111l102 -144q16 -23 34.5 -40t30 -23.5t19 -14t7.5 -16.5q0 -19 -39 -19h-132q-40 0 -40 20q0 7 8 15l15 15q5 5 5 16q0 3 -1 13t-18 34l-62 88l-69 -89q-18 -23 -20 -33.5t-2 -14.5q0 -9 5.5 -15t13.5 -14t8 -16
q0 -19 -39 -19h-70q-40 0 -40 20z" />
    <glyph glyph-name="y" unicode="y" horiz-adv-x="533" 
d="M22 461q0 19 39 19h112q39 0 39 -19q0 -9 -14 -20t-18.5 -20t-4.5 -17q0 -15 9 -43l113 -290l113 290q9 30 9 46q0 6 -3 14.5t-15 19.5t-12 20q0 19 39 19h55q39 0 39 -19q0 -8 -6.5 -15.5t-15.5 -14.5t-22 -25t-23 -45l-132 -340q-48 -125 -73 -162q-47 -68 -124 -69
q-43 0 -68.5 21t-25.5 49q0 21 13 36.5t33 16.5q14 0 26 -9t20.5 -20.5t21.5 -21t28 -9.5q25 0 42.5 34t17.5 75q0 32 -19 78l-127 321q-10 27 -23 45t-22 25t-15 14.5t-6 15.5z" />
    <glyph glyph-name="z" unicode="z" horiz-adv-x="507" 
d="M48 32l295 406h-109q-91 0 -147 -73q-15 -23 -29 -23q-2 0 -5 1q-11 4 -11 19q0 6 2 15q3 17 16 57q14 46 56 46h326q16 0 19.5 -6t3.5 -10q0 -7 -6 -16l-295 -406h119q94 0 145 79q17 24 30 24q2 0 4 -1q8 -3 8 -18q0 -7 -2 -16q-3 -27 -14 -63q-13 -47 -53 -47h-336
q-17 0 -20.5 6t-3.5 10q0 7 7 16z" />
    <glyph glyph-name="braceleft" unicode="{" horiz-adv-x="326" 
d="M45 360q25 6 38 25.5t13 40.5v177q0 78 35.5 124.5t108.5 50.5h5q24 0 24 -19q0 -17 -26 -25q-49 -17 -49 -113v-155q0 -96 -95 -131q95 -33 95 -130v-175q0 -98 48 -111q25 -7 25 -23q0 -23 -25 -23h-2q-72 4 -108 50.5t-36 124.5v197q0 20 -14.5 39.5t-36.5 26.5
q-20 6 -20 26q0 19 20 23z" />
    <glyph glyph-name="bar" unicode="|" horiz-adv-x="222" 
d="M110 700h11q21 0 21 -21v-858q0 -21 -21 -21h-11q-21 0 -21 21v858q0 21 21 21z" />
    <glyph glyph-name="braceright" unicode="}" horiz-adv-x="326" 
d="M86 778q73 -4 109 -50.5t36 -124.5v-177q0 -22 12.5 -41t37.5 -25q21 -4 21 -23t-20 -26q-23 -6 -37 -25.5t-14 -40.5v-197q0 -78 -36 -124.5t-109 -50.5h-2q-25 0 -25 23q0 16 25 23q49 14 49 111v175q0 97 95 131q-95 33 -95 130v155q0 95 -50 113q-26 9 -26 25
q0 19 24 19h5z" />
    <glyph glyph-name="exclamdown" unicode="&#xa1;" horiz-adv-x="245" 
d="M62 -163q0 19 21 145.5t27 235.5q1 18 13 18t13 -18q6 -109 27 -235.5t21 -145.5q0 -30 -17 -48.5t-44 -18.5q-26 0 -43.5 18.5t-17.5 48.5zM81 473q18 17 43 17q24 0 40 -14t16 -40q0 -28 -19 -45.5t-43 -17.5q-23 0 -39.5 15t-16.5 41q0 27 19 44z" />
    <glyph glyph-name="cent" unicode="&#xa2;" horiz-adv-x="565" 
d="M115 437q59 73 155 89v50q0 13 5 17t16 4q12 0 17 -4t5 -17v-46h4q82 0 130.5 -43.5t48.5 -86.5q0 -25 -12.5 -39.5t-32.5 -14.5q-15 0 -26 7.5t-16.5 16t-11.5 22.5q-17 44 -41 67t-72 24q-64 0 -101.5 -47.5t-37.5 -122.5q0 -98 51 -157t134 -59q88 0 154 70q9 9 17 9
q4 0 9.5 -3.5t5.5 -11.5q0 -5 -3 -12q-18 -42 -70 -77.5t-130 -40.5v-51q0 -21 -22 -21q-11 0 -16 4.5t-5 16.5v51q-95 7 -154.5 72.5t-59.5 159.5q0 101 59 174z" />
    <glyph glyph-name="sterling" unicode="&#xa3;" horiz-adv-x="611" 
d="M81 146q29 26 74 26q40 0 87 -22q-3 51 -40 150h-78q-21 0 -21 21t21 21h63q-21 61 -21 112q0 68 50.5 117t129.5 49q89 0 138 -60q8 -11 8 -20q0 -7 -6 -14q-5 -6 -10 -6q-7 0 -15 8q-49 44 -104 44q-42 0 -67.5 -26.5t-25.5 -69.5q0 -44 23 -134h127q21 0 21 -21
t-21 -21h-116q17 -76 17 -123q0 -28 -10 -60q71 -39 119 -39q76 0 116 50q9 11 17 11q5 0 9 -4q6 -6 6 -15q0 -12 -9 -28q-57 -102 -166 -102q-66 0 -138 51q-49 -51 -113 -51q-42 0 -68.5 23t-26.5 66q0 41 30 67zM112 43q16 -14 38 -14q48 0 74 38q-61 50 -87 50
q-42 0 -42 -39q0 -22 17 -35z" />
    <glyph glyph-name="yen" unicode="&#xa5;" horiz-adv-x="630" 
d="M61 610h139q32 0 32 -17q0 -9 -13.5 -20.5t-16 -18t-2.5 -10.5q0 -12 12 -36l132 -210l126 215q13 22 13.5 30t0.5 10q0 11 -6 15.5t-13 11t-7 13.5q0 17 32 17h76q35 0 35 -17q0 -9 -7 -15t-17.5 -10.5t-26 -18.5t-28.5 -35l-91 -151h80q22 0 22 -21q0 -22 -22 -22h-106
l-43 -70h149q22 0 22 -21t-22 -21h-150v-97q0 -30 11 -48.5t22 -27.5t11 -18q0 -17 -41 -17h-90q-40 0 -40 17q0 10 10.5 19t21 27t10.5 48v97h-157q-21 0 -21 21t21 21h156l-45 70h-111q-21 0 -21 22q0 21 21 21h83l-95 145q-16 25 -36.5 41.5t-31.5 25t-11 18.5
q0 17 33 17z" />
    <glyph glyph-name="section" unicode="&#xa7;" horiz-adv-x="600" 
d="M173 615q76 92 196 93h5q64 0 105 -27.5t41 -67.5q0 -21 -12.5 -34t-30.5 -13q-20 0 -36.5 15t-27 32.5t-31.5 32.5t-49 15q-27 0 -57.5 -17.5t-51.5 -44.5q65 -40 161 -154q58 -69 95 -160.5t37 -168.5q0 -147 -87 -239q-73 -77 -181 -78h-5q-64 0 -105 27.5t-41 67.5
q0 21 12.5 33.5t30.5 12.5q20 0 36.5 -14.5t27 -32.5t31.5 -32.5t49 -14.5t58 17t50 45q-297 230 -297 474q0 141 77 233zM167 399q23 -97 82 -205q47 -87 99.5 -147.5t80.5 -60.5q6 0 11 2q17 8 17 40q0 34 -27 124t-88 197q-12 22 -29.5 48.5t-42.5 59.5t-46 48t-35 15
q-6 0 -11 -3q-20 -13 -20 -52q0 -27 9 -66z" />
    <glyph glyph-name="dieresis" unicode="&#xa8;" horiz-adv-x="500" 
d="M269 639q18 19 41 19q21 0 34.5 -13t13.5 -33q0 -23 -19.5 -39.5t-43.5 -16.5q-19 0 -31.5 11t-12.5 29q0 23 18 43zM125 639q17 19 41 19q20 0 33.5 -13t13.5 -33q0 -23 -19 -39.5t-44 -16.5q-19 0 -31 11t-12 29q0 23 18 43z" />
    <glyph glyph-name="copyright" unicode="&#xa9;" horiz-adv-x="832" 
d="M143 594q113 113 273 113t273 -113t113 -273t-113 -273t-273 -113t-273 113t-113 273t113 273zM178 79q98 -100 238 -100t239 100t99 242t-99 242t-239 100t-238.5 -100t-98.5 -242t99 -242zM263 485q65 69 161 69q79 0 127 -44t48 -101q0 -23 -11.5 -35.5t-30.5 -12.5
q-34 0 -45 44q-29 106 -111 107q-58 0 -91.5 -42t-33.5 -109q0 -89 45.5 -142.5t119.5 -53.5q73 0 133 64q7 8 15 8q3 0 8.5 -3t5.5 -10q0 -5 -3 -11q-18 -42 -66.5 -74.5t-127.5 -32.5q-92 0 -150.5 60t-58.5 149q0 101 66 170z" />
    <glyph glyph-name="ordfeminine" unicode="&#xaa;" horiz-adv-x="363" 
d="M31 493q0 45 36.5 73t93.5 28q36 0 68 -8q-6 25 -10 36t-12 25.5t-20.5 19.5t-32.5 5q-40 0 -85 -26q-4 -2 -8 -2t-7 2t-3 5q0 4 4 9q13 19 45.5 34.5t71.5 15.5q85 0 107 -98l29 -136q5 -21 12.5 -27t16.5 -6h3q12 0 12 -8q0 -12 -16 -23.5t-36 -11.5q-21 0 -30 11.5
t-14 37.5q-39 -51 -105 -51q-55 0 -87.5 27t-32.5 68zM89 500q1 -31 21.5 -51t55.5 -20q32 0 58 18.5t26 37.5q0 2 -1 5q0 1 -5 21t-8 37q-2 10 -23 15t-41 5q-41 0 -62 -17.5t-21 -47.5v-3z" />
    <glyph glyph-name="guillemotleft" unicode="&#xab;" horiz-adv-x="427" 
d="M203 251q0 14 12 30t47 54q74 83 93 83q12 0 13 -13v-1q0 -19 -28 -64t-63 -89q35 -44 63 -89t28 -64v-1q-1 -13 -13 -13q-17 0 -93 83q-50 55 -56 69q-3 8 -3 15zM44 279q10 14 38 45q2 3 3.5 4t3 3t3.5 4q74 83 93 83q13 0 13 -13v-1q0 -19 -28 -64t-63 -89
q35 -44 63 -89t28 -64v-1q0 -13 -13 -13q-17 0 -93 83q-5 6 -13.5 15.5t-12.5 13.5t-10 11t-8.5 10.5t-6 9t-5 9t-2.5 7.5t-1 8q0 13 11 28z" />
    <glyph glyph-name="registered" unicode="&#xae;" horiz-adv-x="832" 
d="M143 594q113 113 273 113t273 -113t113 -273t-113 -273t-273 -113t-273 113t-113 273t113 273zM79 321q0 -142 99 -242q98 -100 238 -100t239 100t99 242t-99 242t-239 100t-238.5 -100t-98.5 -242zM237 532q0 17 36 17h111q95 0 150.5 -40t55.5 -108q0 -91 -82 -127
l52 -92q12 -19 32 -33q15 -11 15 -22q0 -17 -29 -17h-65q-35 0 -35 18q0 9 9 18q8 7 8 17q0 7 -5 16l-45 80q-17 -3 -38 -3h-60q-8 0 -8 -8v-45q0 -39 23 -57q13 -9 13 -19q0 -17 -35 -17h-67q-36 0 -36 17q0 11 14 19q23 18 23 57v258q0 10 -2 24q-2 18 -20 28
q-15 6 -15 19zM406 292q54 0 83.5 25.5t29.5 71.5q0 55 -37.5 88.5t-98.5 34.5h-14q-15 0 -22.5 -2t-7.5 -9v-196q0 -13 67 -13z" />
    <glyph glyph-name="macron" unicode="&#xaf;" horiz-adv-x="500" 
d="M105 580q2 15 7.5 20t24.5 5h227q19 0 23 -4t4 -12q0 -4 -1 -8q-2 -15 -7.5 -20.5t-25.5 -5.5h-227q-19 0 -22.5 4t-3.5 12q0 4 1 9z" />
    <glyph glyph-name="degree" unicode="&#xb0;" horiz-adv-x="379" 
d="M70 661q50 49 120 49t119.5 -49.5t49.5 -119.5q0 -71 -50 -120.5t-122 -49.5q-68 0 -117.5 50t-49.5 120t50 120zM118 448q32 -42 77 -42q43 0 70.5 35t27.5 87q0 63 -32.5 105t-77.5 42q-42 0 -69.5 -35t-27.5 -87q0 -63 32 -105z" />
    <glyph glyph-name="twosuperior" unicode="&#xb2;" horiz-adv-x="416" 
d="M54 299q49 45 78 73.5t64 68.5t52 74.5t17 64.5q0 37 -22.5 59.5t-59.5 22.5q-57 0 -99 -56q-5 -6 -10 -6q-2 0 -5.5 1.5t-3.5 7.5q0 3 2 8q15 38 52 65.5t87 27.5q55 0 89 -33.5t34 -84.5v-3q-1 -57 -50 -117t-161 -153q34 -2 68 -2q33 0 67 2q29 2 49.5 12.5t31.5 20
t17 9.5q9 0 9 -12q0 -3 -1 -7q-1 -21 -10 -46q-9 -30 -36 -30h-244q-20 0 -23 6t-3 9q0 8 11 18z" />
    <glyph glyph-name="threesuperior" unicode="&#xb3;" horiz-adv-x="388" 
d="M49 330q3 4 8 4q6 0 15 -6q45 -28 104 -28q45 0 74 24.5t29 66.5q0 48 -35.5 70.5t-95.5 22.5h-15h-2q-12 0 -13 7t-1 9q0 10 10 13q51 13 81 41t30 61q0 27 -19.5 41t-44.5 14q-45 0 -85 -26q-9 -6 -15 -6q-4 0 -7 3t-3 6q0 6 8 14q17 20 51 34.5t71 14.5q42 0 74 -22.5
t32 -66.5q0 -68 -97 -106q60 -4 99.5 -34.5t39.5 -82.5q0 -57 -41.5 -97.5t-117.5 -40.5q-40 0 -76 14t-53 34q-8 8 -8 15q0 4 3 7z" />
    <glyph glyph-name="acute" unicode="&#xb4;" horiz-adv-x="500" 
d="M136 564q6 13 68 70q24 20 34 27.5t22 12t20 4.5q6 0 11 -2q16 -6 21 -17.5t6 -20.5q-1 -9 -4 -18q-11 -31 -63.5 -54.5t-81.5 -23.5q-12 0 -22 4q-12 4 -12 13q0 2 1 5z" />
    <glyph glyph-name="paragraph" unicode="&#xb6;" horiz-adv-x="600" 
d="M170 327q-50 58 -50 147q0 98 63 162t160 64h150q27 0 38 -3.5t11 -16.5q0 -10 -6 -15.5t-15 -10t-17.5 -12.5t-14.5 -28t-6 -51v137l-1 -676q0 -108 -56 -170.5t-156 -62.5q-64 0 -106 22t-42 54q0 46 46 46q12 0 25 -7.5t17 -11.5l20 -20q35 -35 79 -35q20 0 35.5 7.5
t24 24t14 30.5t7.5 40t2.5 39.5t0.5 40.5l1 634h-29q-71 0 -105.5 -41.5t-34.5 -133.5q0 -153 89 -190q16 -6 16 -17q0 -3 -2.5 -11t-16.5 -8q-3 0 -7 1q-85 14 -134 72z" />
    <glyph glyph-name="periodcentered" unicode="&#xb7;" horiz-adv-x="245" 
d="M84 280q19 17 43 17q23 0 39.5 -15t16.5 -41q0 -27 -18.5 -44t-43.5 -17q-24 0 -40 14t-16 40q0 28 19 46z" />
    <glyph glyph-name="cedilla" unicode="&#xb8;" horiz-adv-x="500" 
d="M168 -164q3 4 8 4q3 0 8 -3q30 -17 54 -17q22 0 34 12t12 30q0 38 -68 54q-14 3 -14 11q0 3 2 6l36 67h36l-27 -53q92 -17 92 -79q0 -35 -27 -57t-65 -22q-55 0 -81 32q-3 4 -3 8q0 3 3 7z" />
    <glyph glyph-name="onesuperior" unicode="&#xb9;" horiz-adv-x="250" 
d="M57 677q6 4 31 13q43 16 58 18q13 0 13 -14v-355q0 -27 14.5 -43t14.5 -21q0 -11 -27 -11h-74q-27 0 -27 11q0 7 10 13.5t20.5 18.5t10.5 32v271q0 19 -5.5 28t-23.5 14q-21 6 -21 15q0 6 6 10z" />
    <glyph glyph-name="ordmasculine" unicode="&#xba;" horiz-adv-x="380" 
d="M82 662q46 48 118 48q62 0 103 -42.5t41 -106.5q0 -70 -46 -116.5t-117 -46.5q-64 0 -105 39.5t-41 105.5q0 71 47 119zM123 470q30 -42 78 -42q39 0 62.5 28t23.5 74q0 60 -31.5 104.5t-77.5 44.5q-41 0 -63.5 -30t-22.5 -76q0 -62 31 -103z" />
    <glyph glyph-name="guillemotright" unicode="&#xbb;" horiz-adv-x="426" 
d="M149 251q-91 117 -91 152v2q1 13 14 13q20 0 92 -83l8 -8q46 -50 51 -67q1 -4 1 -9q0 -3 -0.5 -6.5t-2.5 -7.5l-3 -7q-2 -3 -6 -8t-6.5 -8.5t-8.5 -10t-9.5 -10.5t-11 -12.5t-12.5 -13.5q-74 -83 -92 -83q-13 0 -14 13v2q0 35 91 152zM228 405q1 13 13 13q21 0 93 -83
q25 -27 34.5 -37.5t17 -23.5t7.5 -23q0 -9 -6.5 -21t-14 -20.5t-29.5 -32.5q-6 -6 -9 -10q-74 -83 -93 -83q-12 0 -13 13v2q0 35 91 152q-91 117 -91 152v2z" />
    <glyph glyph-name="questiondown" unicode="&#xbf;" horiz-adv-x="600" 
d="M136 -92q1 40 29 77.5t70 77.5t59 70q19 34 21 78q1 14 8.5 18t11.5 4q6 0 13.5 -5t7.5 -21q0 -45 -17 -88t-37.5 -72t-38 -67t-18.5 -74v-3q0 -39 22 -63.5t59 -24.5q69 0 98 98q7 25 16 36t30 11t34.5 -14t13.5 -38q0 -53 -54.5 -95.5t-138.5 -42.5q-86 0 -137.5 38.5
t-51.5 97.5v2zM292 473q18 17 43 17q24 0 40 -14t16 -40q0 -28 -19 -45.5t-43 -17.5q-23 0 -39.5 15t-16.5 41q0 27 19 44z" />
    <glyph glyph-name="Agrave" unicode="&#xc0;" horiz-adv-x="686" 
d="M-1 19q0 11 8.5 18t20.5 12t27.5 23t26.5 46l189 481q4 15 4 25q0 9 -5.5 15.5t-19.5 17t-14 22.5q0 21 28 21h91q20 0 26 -18l222 -563q11 -28 25 -45.5t24.5 -23t17.5 -12t7 -16.5q0 -12 -11 -17t-38 -5h-117q-40 0 -40 19q0 12 15 23.5t19.5 19.5t4.5 16q0 14 -8 41
l-25 63q-7 19 -18 23q-17 6 -137 6q-129 0 -146 -7q-10 -4 -17 -23l-25 -63q-9 -30 -9 -44q0 -6 3.5 -14t17 -18.5t13.5 -20.5q0 -21 -37 -21h-81q-42 0 -42 19zM199 259q12 -5 124 -5q108 0 117 6q2 2 2 6q0 5 -3 14l-122 310l-121 -313q-2 -6 -2 -10q0 -6 5 -8zM218 883
q9 14 25 19q3 1 7 1q22 0 54 -29q3 -3 22 -21q61 -61 63 -72q1 -2 1 -4q0 -10 -16 -14q-7 -2 -16 -2q-31 0 -84 27.5t-60 60.5q-2 7 -2 13q0 11 6 21z" />
    <glyph glyph-name="Aacute" unicode="&#xc1;" horiz-adv-x="686" 
d="M-1 19q0 11 8.5 18t20.5 12t27.5 23t26.5 46l189 481q4 15 4 25q0 9 -5.5 15.5t-19.5 17t-14 22.5q0 21 28 21h91q20 0 26 -18l222 -563q11 -28 25 -45.5t24.5 -23t17.5 -12t7 -16.5q0 -12 -11 -17t-38 -5h-117q-40 0 -40 19q0 12 15 23.5t19.5 19.5t4.5 16q0 14 -8 41
l-25 63q-7 19 -18 23q-17 6 -137 6q-129 0 -146 -7q-10 -4 -17 -23l-25 -63q-9 -30 -9 -44q0 -6 3.5 -14t17 -18.5t13.5 -20.5q0 -21 -37 -21h-81q-42 0 -42 19zM199 259q12 -5 124 -5q108 0 117 6q2 2 2 6q0 5 -3 14l-122 310l-121 -313q-2 -6 -2 -10q0 -6 5 -8zM269 781
q2 11 63 72q44 42 60 48q7 2 13 2q5 0 10 -1q16 -5 23.5 -17t7.5 -23q0 -6 -2 -13q-7 -33 -60 -60.5t-84 -27.5q-9 0 -16 2q-16 4 -16 14q0 2 1 4z" />
    <glyph glyph-name="Acircumflex" unicode="&#xc2;" horiz-adv-x="686" 
d="M8 37q8 7 20 12t27.5 23t26.5 46l189 481q4 15 4 25q0 9 -5.5 15.5t-19.5 17t-14 22.5q0 21 28 21h91q20 0 26 -18l222 -563q11 -28 25 -45.5t24.5 -23t17.5 -12t7 -16.5q0 -12 -11 -17t-38 -5h-117q-40 0 -40 19q0 12 15 23.5t19.5 19.5t4.5 16q0 14 -8 41l-25 63
q-7 19 -18 23q-17 6 -137 6q-129 0 -146 -7q-10 -4 -17 -23l-25 -63q-9 -30 -9 -44q0 -6 3.5 -14t17 -18.5t13.5 -20.5q0 -21 -37 -21h-81q-42 0 -42 19q0 11 9 18zM199 259q12 -5 124 -5q108 0 117 6q2 2 2 6q0 5 -3 14l-122 310l-121 -313q-2 -6 -2 -10q0 -6 5 -8z
M194 766q1 6 17 23t36 36l31 31q4 4 10.5 10t9.5 8t8 4.5t9.5 3t10.5 0.5t10 -0.5t7.5 -1t8 -3.5t7 -4.5t8.5 -7.5t10 -9.5t13 -13t16 -16.5q6 -7 15.5 -16t15 -14.5t11 -12t8.5 -10.5t4 -7v-3q0 -9 -12 -10h-2q-19 0 -57.5 15t-61.5 31q-23 -16 -61.5 -31t-57.5 -15h-2
q-12 1 -12 10v3z" />
    <glyph glyph-name="Atilde" unicode="&#xc3;" horiz-adv-x="686" 
d="M8 37q8 7 20 12t27.5 23t26.5 46l189 481q4 15 4 25q0 9 -5.5 15.5t-19.5 17t-14 22.5q0 21 28 21h91q20 0 26 -18l222 -563q11 -28 25 -45.5t24.5 -23t17.5 -12t7 -16.5q0 -12 -11 -17t-38 -5h-117q-40 0 -40 19q0 12 15 23.5t19.5 19.5t4.5 16q0 14 -8 41l-25 63
q-7 19 -18 23q-17 6 -137 6q-129 0 -146 -7q-10 -4 -17 -23l-25 -63q-9 -30 -9 -44q0 -6 3.5 -14t17 -18.5t13.5 -20.5q0 -21 -37 -21h-81q-42 0 -42 19q0 11 9 18zM199 259q12 -5 124 -5q108 0 117 6q2 2 2 6q0 5 -3 14l-122 310l-121 -313q-2 -6 -2 -10q0 -6 5 -8z
M168 801q0 27 18.5 43.5t50.5 16.5q36 0 93 -21t70 -21q35 0 35 29q0 13 8 13q12 0 18 -21l3 -18q0 -27 -19 -44t-51 -17q-23 0 -80 21t-82 21q-35 0 -35 -29q0 -12 -8 -12q-12 1 -18 21q-3 8 -3 18z" />
    <glyph glyph-name="Adieresis" unicode="&#xc4;" horiz-adv-x="686" 
d="M-1 19q0 11 8.5 18t20.5 12t27.5 23t26.5 46l189 481q4 15 4 25q0 9 -5.5 15.5t-19.5 17t-14 22.5q0 21 28 21h91q20 0 26 -18l222 -563q11 -28 25 -45.5t24.5 -23t17.5 -12t7 -16.5q0 -12 -11 -17t-38 -5h-117q-40 0 -40 19q0 12 15 23.5t19.5 19.5t4.5 16q0 14 -8 41
l-25 63q-7 19 -18 23q-17 6 -137 6q-129 0 -146 -7q-10 -4 -17 -23l-25 -63q-9 -30 -9 -44q0 -6 3.5 -14t17 -18.5t13.5 -20.5q0 -21 -37 -21h-81q-42 0 -42 19zM199 259q12 -5 124 -5q108 0 117 6q2 2 2 6q0 5 -3 14l-122 310l-121 -313q-2 -6 -2 -10q0 -6 5 -8zM344 816
q0 23 18 42.5t41 19.5q21 0 34.5 -13t13.5 -33q0 -23 -19.5 -39.5t-43.5 -16.5q-19 0 -31.5 11t-12.5 29zM200 816q0 23 17.5 42.5t41.5 19.5q20 0 33.5 -13t13.5 -33q0 -23 -19 -39.5t-44 -16.5q-19 0 -31 11t-12 29z" />
    <glyph glyph-name="Aring" unicode="&#xc5;" horiz-adv-x="686" 
d="M-1 19q0 11 8.5 18t20.5 12t27.5 23t26.5 46l189 481q4 15 4 25q0 9 -5.5 15.5t-19.5 17t-14 22.5q0 21 28 21h91q20 0 26 -18l222 -563q11 -28 25 -45.5t24.5 -23t17.5 -12t7 -16.5q0 -12 -11 -17t-38 -5h-117q-40 0 -40 19q0 12 15 23.5t19.5 19.5t4.5 16q0 14 -8 41
l-25 63q-7 19 -18 23q-17 6 -137 6q-129 0 -146 -7q-10 -4 -17 -23l-25 -63q-9 -30 -9 -44q0 -6 3.5 -14t17 -18.5t13.5 -20.5q0 -21 -37 -21h-81q-42 0 -42 19zM199 259q12 -5 124 -5q108 0 117 6q2 2 2 6q0 5 -3 14l-122 310l-121 -313q-2 -6 -2 -10q0 -6 5 -8zM226 842
q0 41 28.5 67t70.5 26q41 0 68 -25t27 -65q0 -42 -28.5 -67.5t-70.5 -25.5q-41 0 -68 25t-27 65zM272 843q3 -23 18 -37.5t36 -14.5q23 0 35 15.5t12 34.5v6q-3 22 -17 36.5t-35 14.5q-24 0 -36.5 -14.5t-12.5 -34.5v-6z" />
    <glyph glyph-name="AE" unicode="&#xc6;" horiz-adv-x="967" 
d="M11 41q13 7 33.5 17t32.5 28l344 496q13 19 13 36q0 21 -23 37q-19 13 -19 27q0 18 27 18l404 1q41 0 53.5 -5.5t19.5 -25.5q18 -54 25 -106q1 -7 1 -13q0 -20 -13 -24q-3 -1 -7 -1q-7 0 -14.5 6.5t-19.5 27.5q-25 49 -59.5 72t-86.5 23h-56q-70 0 -91.5 -10t-21.5 -36
v-119q0 -33 16.5 -41t58.5 -8h27q35 0 57 5t28.5 11t13.5 11t16 5q19 0 26 -32l19 -85q5 -23 5 -33q0 -3 -1 -8.5t-7.5 -7.5t-8.5 -2q-9 0 -20.5 12t-23.5 30t-39.5 33.5t-64.5 15.5h-27q-29 0 -42 -2t-23 -13t-10 -34v-253q0 -28 21.5 -38.5t93.5 -10.5l76 1
q61 0 85.5 19.5t46.5 71.5q11 25 19 32t16 7h4q15 -2 15 -28v-6q-4 -70 -15 -107q-5 -20 -20.5 -27.5t-60.5 -7.5h-384q-27 0 -38 3.5t-11 16.5q0 10 6 15.5t14.5 10t17.5 12.5t15 28t6 51v72h-241l-84 -121q-9 -17 -9 -25q0 -3 3 -7t15 -14t12 -21q0 -21 -36 -21h-81
q-42 0 -42 19q0 14 14 22zM460 250v309l-213 -309h213z" />
    <glyph glyph-name="Ccedilla" unicode="&#xc7;" horiz-adv-x="684" 
d="M39 333q0 159 102.5 268t253.5 109q33 0 72 -7.5t50 -7.5q12 0 26.5 6.5t22.5 6.5q14 0 21.5 -10.5t16.5 -42.5q18 -64 28 -126q2 -7 2 -13q0 -19 -17 -21h-3q-6 0 -13 4.5t-11 10.5l-14 21q-37 58 -85 91t-120 33q-107 0 -171.5 -81.5t-64.5 -196.5q0 -140 76 -232.5
t197 -92.5q124 0 211 96q8 9 16 9q5 0 10.5 -6t5.5 -13q0 -10 -8 -22q-29 -45 -98 -85.5t-169 -40.5l-22 -43q92 -17 92 -79q0 -35 -27 -57t-65 -22q-55 0 -81 32q-4 4 -4 8t3.5 7.5t7.5 3.5t9 -3q30 -17 54 -17q22 0 34 12t12 30q0 38 -68 54q-14 3 -14 11q0 3 2 6l31 58
q-139 11 -220 104t-81 238z" />
    <glyph glyph-name="Egrave" unicode="&#xc8;" horiz-adv-x="608" 
d="M42 20q0 12 9.5 18.5t20.5 11.5t20.5 27t9.5 60v426q0 38 -9.5 60t-20.5 27t-20.5 11.5t-9.5 18.5q0 13 11 16.5t39 3.5l372 1q42 0 54 -5.5t19 -25.5q18 -54 25 -106q1 -7 1 -13q0 -20 -13 -24q-2 -1 -5 -1q-17 0 -35 34q-26 49 -60.5 72t-86.5 23h-55q-71 0 -92.5 -10
t-21.5 -36v-119q0 -33 17 -41t58 -8h27q35 0 57 5t28.5 11t13.5 11t16 5q19 0 26 -32l20 -85q4 -22 5 -32q-1 -4 -2 -9.5t-12 -8.5q-3 -1 -5 -1q-7 0 -15 7t-17.5 21t-23 28t-37 24.5t-54.5 10.5h-27q-28 0 -41 -2t-23.5 -13t-10.5 -34v-253q0 -28 21.5 -38.5t93.5 -10.5
l76 1q61 0 85.5 19.5t46.5 71.5q17 39 36 39h4q14 -2 14 -27v-7q-4 -70 -15 -107q-5 -20 -20 -27.5t-61 -7.5h-383q-28 0 -39 3.5t-11 16.5zM120 883q9 14 25 19q3 1 7 1q22 0 54 -29q3 -3 22 -21q61 -61 63 -72q1 -2 1 -4q0 -10 -16 -14q-7 -2 -16 -2q-31 0 -84 27.5
t-60 60.5q-2 7 -2 13q0 11 6 21z" />
    <glyph glyph-name="Eacute" unicode="&#xc9;" horiz-adv-x="608" 
d="M52 39q9 6 20 11t20.5 27t9.5 60v426q0 38 -9.5 60t-20.5 27t-20.5 11.5t-9.5 18.5q0 13 11 16.5t39 3.5l372 1q42 0 54 -5.5t19 -25.5q18 -54 25 -106q1 -7 1 -13q0 -20 -13 -24q-2 -1 -5 -1q-17 0 -35 34q-26 49 -60.5 72t-86.5 23h-55q-71 0 -92.5 -10t-21.5 -36v-119
q0 -33 17 -41t58 -8h27q35 0 57 5t28.5 11t13.5 11t16 5q19 0 26 -32l20 -85q4 -22 5 -32q-1 -4 -2 -9.5t-12 -8.5q-3 -1 -5 -1q-7 0 -15 7t-17.5 21t-23 28t-37 24.5t-54.5 10.5h-27q-28 0 -41 -2t-23.5 -13t-10.5 -34v-253q0 -28 21.5 -38.5t93.5 -10.5l76 1
q61 0 85.5 19.5t46.5 71.5q17 39 36 39h4q14 -2 14 -27v-7q-4 -70 -15 -107q-5 -20 -20 -27.5t-61 -7.5h-383q-28 0 -39 3.5t-11 16.5q0 12 10 19zM171 781q2 11 63 72q44 42 60 48q7 2 13 2q5 0 10 -1q16 -5 23.5 -17t7.5 -23q0 -6 -2 -13q-7 -33 -60 -60.5t-84 -27.5
q-9 0 -16 2q-16 4 -16 14q0 2 1 4z" />
    <glyph glyph-name="Ecircumflex" unicode="&#xca;" horiz-adv-x="608" 
d="M42 20q0 12 9.5 18.5t20.5 11.5t20.5 27t9.5 60v426q0 38 -9.5 60t-20.5 27t-20.5 11.5t-9.5 18.5q0 13 11 16.5t39 3.5l372 1q42 0 54 -5.5t19 -25.5q18 -54 25 -106q1 -7 1 -13q0 -20 -13 -24q-2 -1 -5 -1q-17 0 -35 34q-26 49 -60.5 72t-86.5 23h-55q-71 0 -92.5 -10
t-21.5 -36v-119q0 -33 17 -41t58 -8h27q35 0 57 5t28.5 11t13.5 11t16 5q19 0 26 -32l20 -85q4 -22 5 -32q-1 -4 -2 -9.5t-12 -8.5q-3 -1 -5 -1q-7 0 -15 7t-17.5 21t-23 28t-37 24.5t-54.5 10.5h-27q-28 0 -41 -2t-23.5 -13t-10.5 -34v-253q0 -28 21.5 -38.5t93.5 -10.5
l76 1q61 0 85.5 19.5t46.5 71.5q17 39 36 39h4q14 -2 14 -27v-7q-4 -70 -15 -107q-5 -20 -20 -27.5t-61 -7.5h-383q-28 0 -39 3.5t-11 16.5zM95 766q1 7 53 59l31 31q4 4 10.5 10t9.5 8t8 4.5t9.5 3t10.5 0.5t10 -0.5t7.5 -1t8 -3.5t7 -4.5t8.5 -7.5t10 -9.5t13 -13
t16 -16.5q6 -7 15.5 -16t15 -14.5t11 -12t8.5 -10.5t4 -7v-3q0 -9 -12 -10h-2q-19 0 -57.5 15t-61.5 31q-23 -16 -61.5 -31t-57.5 -15h-2q-12 1 -12 10v3z" />
    <glyph glyph-name="Edieresis" unicode="&#xcb;" horiz-adv-x="608" 
d="M42 680q0 13 11 16.5t39 3.5l372 1q42 0 54 -5.5t19 -25.5q18 -54 25 -106q1 -7 1 -13q0 -20 -13 -24q-2 -1 -5 -1q-17 0 -35 34q-26 49 -60.5 72t-86.5 23h-55q-71 0 -92.5 -10t-21.5 -36v-119q0 -33 17 -41t58 -8h27q35 0 57 5t28.5 11t13.5 11t16 5q19 0 26 -32
l20 -85q4 -22 5 -32q-1 -4 -2 -9.5t-12 -8.5q-3 -1 -5 -1q-7 0 -15 7t-17.5 21t-23 28t-37 24.5t-54.5 10.5h-27q-28 0 -41 -2t-23.5 -13t-10.5 -34v-253q0 -28 21.5 -38.5t93.5 -10.5l76 1q61 0 85.5 19.5t46.5 71.5q17 39 36 39h4q14 -2 14 -27v-7q-4 -70 -15 -107
q-5 -20 -20 -27.5t-61 -7.5h-383q-28 0 -39 3.5t-11 16.5q0 12 9.5 18.5t20.5 11.5t20.5 27t9.5 60v426q0 38 -9.5 60t-20.5 27t-20.5 11.5t-9.5 18.5zM246 816q0 23 18 42.5t41 19.5q21 0 34.5 -13t13.5 -33q0 -23 -19.5 -39.5t-43.5 -16.5q-19 0 -31.5 11t-12.5 29z
M120 859q17 19 41 19q20 0 33.5 -13t13.5 -33q0 -23 -19 -39.5t-44 -16.5q-19 0 -31 11t-12 29q0 23 18 43z" />
    <glyph glyph-name="Igrave" unicode="&#xcc;" horiz-adv-x="295" 
d="M42 20q0 12 9.5 19.5t20.5 13.5t20.5 29.5t9.5 62.5v410q0 32 -6 53t-14.5 30t-17 14.5t-14.5 11.5t-6 16q0 20 50 20h110q49 0 49 -20q0 -10 -6 -16t-14.5 -11.5t-17.5 -14.5t-15 -30t-6 -53v-410q0 -39 9 -62.5t19.5 -29.5t19.5 -13.5t9 -19.5q0 -20 -49 -20h-110
q-50 0 -50 20zM45 883q9 14 25 19q3 1 7 1q22 0 54 -29q3 -3 22 -21q61 -61 63 -72q1 -2 1 -4q0 -10 -16 -14q-7 -2 -16 -2q-31 0 -84 27.5t-60 60.5q-2 7 -2 13q0 11 6 21z" />
    <glyph glyph-name="Iacute" unicode="&#xcd;" horiz-adv-x="295" 
d="M52 40q9 7 20 13t20.5 29.5t9.5 62.5v410q0 32 -6 53t-14.5 30t-17 14.5t-14.5 11.5t-6 16q0 20 50 20h110q49 0 49 -20q0 -10 -6 -16t-14.5 -11.5t-17.5 -14.5t-15 -30t-6 -53v-410q0 -39 9 -62.5t19.5 -29.5t19.5 -13.5t9 -19.5q0 -20 -49 -20h-110q-50 0 -50 20
q0 12 10 20zM96 781q2 11 63 72q44 42 60 48q7 2 13 2q5 0 10 -1q16 -5 23.5 -17t7.5 -23q0 -6 -2 -13q-7 -33 -60 -60.5t-84 -27.5q-9 0 -16 2q-16 4 -16 14q0 2 1 4z" />
    <glyph glyph-name="Icircumflex" unicode="&#xce;" horiz-adv-x="295" 
d="M42 20q0 12 9.5 19.5t20.5 13.5t20.5 29.5t9.5 62.5v410q0 32 -6 53t-14.5 30t-17 14.5t-14.5 11.5t-6 16q0 20 50 20h110q49 0 49 -20q0 -10 -6 -16t-14.5 -11.5t-17.5 -14.5t-15 -30t-6 -53v-410q0 -39 9 -62.5t19.5 -29.5t19.5 -13.5t9 -19.5q0 -20 -49 -20h-110
q-50 0 -50 20zM21 766q1 7 53 59l31 31q4 4 10.5 10t9.5 8t8 4.5t9.5 3t10.5 0.5t10 -0.5t7.5 -1t8 -3.5t7 -4.5t8.5 -7.5t10 -9.5t13 -13t16 -16.5q6 -7 15.5 -16t15 -14.5t11 -12t8.5 -10.5t4 -7v-3q0 -9 -12 -10h-2q-19 0 -57.5 15t-61.5 31q-23 -16 -61.5 -31t-57.5 -15
h-2q-12 1 -12 10v3z" />
    <glyph glyph-name="Idieresis" unicode="&#xcf;" horiz-adv-x="295" 
d="M42 20q0 12 9.5 19.5t20.5 13.5t20.5 29.5t9.5 62.5v410q0 32 -6 53t-14.5 30t-17 14.5t-14.5 11.5t-6 16q0 20 50 20h110q49 0 49 -20q0 -10 -6 -16t-14.5 -11.5t-17.5 -14.5t-15 -30t-6 -53v-410q0 -39 9 -62.5t19.5 -29.5t19.5 -13.5t9 -19.5q0 -20 -49 -20h-110
q-50 0 -50 20zM171 816q0 23 18 42.5t41 19.5q21 0 34.5 -13t13.5 -33q0 -23 -19.5 -39.5t-43.5 -16.5q-19 0 -31.5 11t-12.5 29zM45 859q17 19 41 19q20 0 33.5 -13t13.5 -33q0 -23 -19 -39.5t-44 -16.5q-19 0 -31 11t-12 29q0 23 18 43z" />
    <glyph glyph-name="Eth" unicode="&#xd0;" horiz-adv-x="732" 
d="M39 371h63v192q0 38 -9.5 60t-20.5 27t-20.5 11.5t-9.5 18.5q0 13 11 16.5t39 3.5h206q103 0 181.5 -30.5t123.5 -81t67 -108t22 -119.5q0 -73 -20.5 -135.5t-62.5 -114t-114.5 -81.5t-168.5 -30h-234q-28 0 -39 3.5t-11 16.5q0 12 9.5 18.5t20.5 11.5t20.5 27t9.5 60
v189h-63q-16 0 -21 5.5t-5 17.5q0 22 26 22zM218 57q24 -13 97 -13q278 0 278 270q0 150 -88.5 246.5t-243.5 96.5q-40 0 -53.5 -8.5t-13.5 -35.5v-242h61q26 0 26 -22q0 -12 -5 -17.5t-21 -5.5h-61v-223q0 -33 24 -46z" />
    <glyph glyph-name="Ntilde" unicode="&#xd1;" horiz-adv-x="753" 
d="M38 680q0 13 11 16.5t39 3.5h45q16 0 31 -16l451 -493l-1 389q0 22 -6 37.5t-13.5 22.5t-15.5 12.5t-13.5 11.5t-5.5 15q0 12 10.5 16.5t34.5 4.5h67q44 0 44 -21q0 -11 -8.5 -18.5t-18 -13t-18 -23t-8.5 -44.5v-549q0 -31 -25 -31q-22 0 -22 24q0 32 -26 62l-445 482
l2 -448q0 -27 8.5 -44.5t18.5 -23t18.5 -13t8.5 -18.5q0 -12 -10.5 -16.5t-34.5 -4.5h-68q-43 0 -43 21q0 11 8.5 18.5t18 13t18 23t8.5 44.5v443q0 38 -9.5 60t-20.5 27t-20.5 11.5t-9.5 18.5zM242 845q18 16 50 16q36 0 93 -21t70 -21q35 0 35 29q0 13 8 13q12 0 18 -21
l3 -18q0 -27 -19 -44t-51 -17q-23 0 -80 21t-82 21q-35 0 -35 -29q0 -12 -8 -12q-12 1 -18 21q-3 8 -3 18q0 27 19 44z" />
    <glyph glyph-name="Ograve" unicode="&#xd2;" horiz-adv-x="772" 
d="M144 598q104 112 263 112q147 0 236 -94.5t89 -240.5q0 -167 -102 -276t-265 -109q-146 0 -236 93t-90 239q0 163 105 276zM207 147q76 -99 201 -99q109 0 170 79t61 191q0 141 -74.5 240t-195.5 99q-74 0 -129.5 -39.5t-82 -98t-26.5 -123.5q0 -150 76 -249zM284 883
q9 14 25 19q3 1 7 1q22 0 54 -29q3 -3 22 -21q61 -61 63 -72q1 -2 1 -4q0 -10 -16 -14q-7 -2 -16 -2q-31 0 -84 27.5t-60 60.5q-2 7 -2 13q0 11 6 21z" />
    <glyph glyph-name="Oacute" unicode="&#xd3;" horiz-adv-x="772" 
d="M144 598q104 112 263 112q147 0 236 -94.5t89 -240.5q0 -167 -102 -276t-265 -109q-146 0 -236 93t-90 239q0 163 105 276zM131 396q0 -150 76 -249t201 -99q109 0 170 79t61 191q0 141 -74.5 240t-195.5 99q-74 0 -129.5 -39.5t-82 -98t-26.5 -123.5zM335 781
q2 11 63 72q44 42 60 48q7 2 13 2q5 0 10 -1q16 -5 23.5 -17t7.5 -23q0 -6 -2 -13q-7 -33 -60 -60.5t-84 -27.5q-9 0 -16 2q-16 4 -16 14q0 2 1 4z" />
    <glyph glyph-name="Ocircumflex" unicode="&#xd4;" horiz-adv-x="772" 
d="M144 598q104 112 263 112q147 0 236 -94.5t89 -240.5q0 -167 -102 -276t-265 -109q-146 0 -236 93t-90 239q0 163 105 276zM131 396q0 -150 76 -249t201 -99q109 0 170 79t61 191q0 141 -74.5 240t-195.5 99q-74 0 -129.5 -39.5t-82 -98t-26.5 -123.5zM260 766q1 3 3.5 7
t9 11t10.5 11l61 61q4 4 10.5 10t9.5 8t8 4.5t9.5 3t10.5 0.5t10 -0.5t7.5 -1t8 -3.5t7 -4.5t8.5 -7.5t10 -9.5t13 -13t16 -16.5q6 -7 15.5 -16t15 -14.5t11 -12t8.5 -10.5t4 -7v-3q0 -9 -12 -10h-2q-19 0 -57.5 15t-61.5 31q-23 -16 -61.5 -31t-57.5 -15h-2q-12 1 -12 10v3
z" />
    <glyph glyph-name="Otilde" unicode="&#xd5;" horiz-adv-x="772" 
d="M39 322q0 163 104.5 275.5t263.5 112.5q147 0 236 -94.5t89 -240.5q0 -167 -102 -276t-265 -109q-146 0 -236 93t-90 239zM131 396q0 -150 76 -249t201 -99q109 0 170 79t61 191q0 141 -74.5 240t-195.5 99q-74 0 -129.5 -39.5t-82 -98t-26.5 -123.5zM234 801
q0 27 18.5 43.5t50.5 16.5q36 0 93 -21t70 -21q35 0 35 29q0 13 8 13q12 0 18 -21l3 -18q0 -27 -19 -44t-51 -17q-23 0 -80 21t-82 21q-35 0 -35 -29q0 -12 -8 -12q-12 1 -18 21q-3 8 -3 18z" />
    <glyph glyph-name="Odieresis" unicode="&#xd6;" horiz-adv-x="772" 
d="M39 322q0 163 104.5 275.5t263.5 112.5q147 0 236 -94.5t89 -240.5q0 -167 -102 -276t-265 -109q-146 0 -236 93t-90 239zM207 147q76 -99 201 -99q109 0 170 79t61 191q0 141 -74.5 240t-195.5 99q-74 0 -129.5 -39.5t-82 -98t-26.5 -123.5q0 -150 76 -249zM428 859
q18 19 41 19q21 0 34.5 -13t13.5 -33q0 -23 -19.5 -39.5t-43.5 -16.5q-19 0 -31.5 11t-12.5 29q0 23 18 43zM284 859q17 19 41 19q20 0 33.5 -13t13.5 -33q0 -23 -19 -39.5t-44 -16.5q-19 0 -31 11t-12 29q0 23 18 43z" />
    <glyph glyph-name="multiply" unicode="&#xd7;" horiz-adv-x="417" 
d="M66 272l103 102l-103 103q-13 13 -13 21t13 21l3 2q13 13 21 13t21 -13l103 -102l102 102q13 13 21 13t21 -13l3 -2q13 -13 13 -21t-13 -21l-103 -103l103 -102q13 -13 13 -21t-13 -21l-3 -3q-13 -13 -21 -13t-21 13l-102 103l-103 -103q-13 -13 -21 -13t-21 13l-3 3
q-13 13 -13 21t13 21z" />
    <glyph glyph-name="Oslash" unicode="&#xd8;" horiz-adv-x="772" 
d="M144 598q104 112 263 112q80 0 147 -31l60 104q7 13 17 13q7 0 15 -5q10 -6 10 -17q0 -7 -5 -16l-58 -101q66 -44 102.5 -117.5t36.5 -164.5q0 -167 -102 -276t-265 -109q-77 0 -141 28l-53 -91q-7 -13 -18 -13q-6 0 -14 5q-9 8 -9 18q0 7 4 15l50 87q-69 43 -107 117
t-38 166q0 163 105 276zM131 396q0 -178 100 -276l283 489q-66 48 -145 48q-74 0 -129.5 -39.5t-82 -98t-26.5 -123.5zM408 48q109 0 170 79t61 191q0 161 -92 261l-281 -488q64 -43 142 -43z" />
    <glyph glyph-name="Ugrave" unicode="&#xd9;" horiz-adv-x="717" 
d="M52 694q11 4 39 4h110q50 0 50 -20q0 -12 -9.5 -19.5t-20.5 -13.5t-20.5 -29.5t-9.5 -61.5v-293q0 -105 52 -161.5t145 -56.5q94 0 146 63.5t52 163.5l-2 310q0 27 -8.5 44.5t-18 23t-18 13t-8.5 18.5q0 12 10.5 16.5t34.5 4.5h67q44 0 44 -21q0 -9 -5.5 -15t-13.5 -11.5
t-15.5 -12.5t-13.5 -22.5t-6 -37.5v-296q0 -137 -66 -215.5t-199 -78.5q-127 0 -198 76.5t-71 210.5v277q0 38 -9 61.5t-20 29.5t-20 13.5t-9 19.5t11 16zM308 883q9 14 25 19q3 1 7 1q22 0 54 -29q3 -3 22 -21q61 -61 63 -72q1 -2 1 -4q0 -10 -16 -14q-7 -2 -16 -2
q-31 0 -84 27.5t-60 60.5q-2 7 -2 13q0 11 6 21z" />
    <glyph glyph-name="Uacute" unicode="&#xda;" horiz-adv-x="717" 
d="M41 678q0 12 11 16t39 4h110q50 0 50 -20q0 -12 -9.5 -19.5t-20.5 -13.5t-20.5 -29.5t-9.5 -61.5v-293q0 -105 52 -161.5t145 -56.5q94 0 146 63.5t52 163.5l-2 310q0 27 -8.5 44.5t-18 23t-18 13t-8.5 18.5q0 12 10.5 16.5t34.5 4.5h67q44 0 44 -21q0 -9 -5.5 -15
t-13.5 -11.5t-15.5 -12.5t-13.5 -22.5t-6 -37.5v-296q0 -137 -66 -215.5t-199 -78.5q-127 0 -198 76.5t-71 210.5v277q0 38 -9 61.5t-20 29.5t-20 13.5t-9 19.5zM359 781q2 11 63 72q44 42 60 48q7 2 13 2q5 0 10 -1q16 -5 23.5 -17t7.5 -23q0 -6 -2 -13q-7 -33 -60 -60.5
t-84 -27.5q-9 0 -16 2q-16 4 -16 14q0 2 1 4z" />
    <glyph glyph-name="Ucircumflex" unicode="&#xdb;" horiz-adv-x="717" 
d="M52 694q11 4 39 4h110q50 0 50 -20q0 -12 -9.5 -19.5t-20.5 -13.5t-20.5 -29.5t-9.5 -61.5v-293q0 -105 52 -161.5t145 -56.5q94 0 146 63.5t52 163.5l-2 310q0 27 -8.5 44.5t-18 23t-18 13t-8.5 18.5q0 12 10.5 16.5t34.5 4.5h67q44 0 44 -21q0 -9 -5.5 -15t-13.5 -11.5
t-15.5 -12.5t-13.5 -22.5t-6 -37.5v-296q0 -137 -66 -215.5t-199 -78.5q-127 0 -198 76.5t-71 210.5v277q0 38 -9 61.5t-20 29.5t-20 13.5t-9 19.5t11 16zM284 766q1 3 3.5 7t9 11t10.5 11l61 61q4 4 10.5 10t9.5 8t8 4.5t9.5 3t10.5 0.5t10 -0.5t7.5 -1t8 -3.5t7 -4.5
t8.5 -7.5t10 -9.5t13 -13t16 -16.5q6 -7 15.5 -16t15 -14.5t11 -12t8.5 -10.5t4 -7v-3q0 -9 -12 -10h-2q-19 0 -57.5 15t-61.5 31q-23 -16 -61.5 -31t-57.5 -15h-2q-12 1 -12 10v3z" />
    <glyph glyph-name="Udieresis" unicode="&#xdc;" horiz-adv-x="717" 
d="M41 678q0 12 11 16t39 4h110q50 0 50 -20q0 -12 -9.5 -19.5t-20.5 -13.5t-20.5 -29.5t-9.5 -61.5v-293q0 -105 52 -161.5t145 -56.5q94 0 146 63.5t52 163.5l-2 310q0 27 -8.5 44.5t-18 23t-18 13t-8.5 18.5q0 12 10.5 16.5t34.5 4.5h67q44 0 44 -21q0 -9 -5.5 -15
t-13.5 -11.5t-15.5 -12.5t-13.5 -22.5t-6 -37.5v-296q0 -137 -66 -215.5t-199 -78.5q-127 0 -198 76.5t-71 210.5v277q0 38 -9 61.5t-20 29.5t-20 13.5t-9 19.5zM434 816q0 23 18 42.5t41 19.5q21 0 34.5 -13t13.5 -33q0 -23 -19.5 -39.5t-43.5 -16.5q-19 0 -31.5 11
t-12.5 29zM290 816q0 23 17.5 42.5t41.5 19.5q20 0 33.5 -13t13.5 -33q0 -23 -19 -39.5t-44 -16.5q-19 0 -31 11t-12 29z" />
    <glyph glyph-name="Yacute" unicode="&#xdd;" horiz-adv-x="662" 
d="M16 696q10 4 36 4h139q40 0 40 -19q0 -11 -15.5 -23t-18 -18.5t-2.5 -9.5q0 -13 16 -43l152 -225l145 234q15 23 16 31.5t1 11.5q0 9 -5 13t-12 11t-7 16q0 21 37 21h80q42 0 42 -19q0 -11 -9 -17.5t-22 -11t-31.5 -19t-33.5 -37.5l-183 -287v-164q0 -32 6 -53t14.5 -30
t17 -14.5t14.5 -11.5t6 -16q0 -20 -50 -20h-110q-49 0 -49 20q0 10 6 16t14.5 11.5t17.5 14.5t15 30t6 53v165l-192 278q-17 24 -35.5 40t-30 21.5t-19 12.5t-7.5 17q0 12 11 17zM304 781q2 11 63 72q44 42 60 48q7 2 13 2q5 0 10 -1q16 -5 23.5 -17t7.5 -23q0 -6 -2 -13
q-7 -33 -60 -60.5t-84 -27.5q-9 0 -16 2q-16 4 -16 14q0 2 1 4z" />
    <glyph glyph-name="Thorn" unicode="&#xde;" horiz-adv-x="592" 
d="M42 21q0 12 9.5 19.5t20.5 13.5t20.5 29.5t9.5 62.5v423q0 37 -12 59t-23.5 33t-11.5 21q0 18 44 18h98q43 0 43 -18q0 -9 -7 -17t-16 -15t-16 -27.5t-7 -52.5l79 1h9q126 0 205.5 -58t79.5 -163q0 -186 -279 -186h-74q-14 0 -17 -2.5t-3 -16.5q0 -38 9 -61.5t19.5 -29.5
t19.5 -13.5t9 -19.5q0 -20 -49 -20h-110q-50 0 -50 20zM209 214q15 -6 66 -6q190 0 190 142q0 89 -61 132t-165 45h-7q-21 0 -29.5 -5.5t-8.5 -21.5v-264q0 -16 15 -22z" />
    <glyph glyph-name="germandbls" unicode="&#xdf;" horiz-adv-x="610" 
d="M397 -10q-37 0 -82.5 13t-63.5 42q-19 30 -19 74q0 40 18 40q4 0 7.5 -2.5t5.5 -5.5t6 -9.5t6 -10.5q60 -98 141 -98q35 0 56 20t21 51q0 40 -25 66.5t-77 55.5q-5 3 -20.5 11.5t-21.5 12t-18.5 11.5t-18 13.5t-14 15t-12 18t-6.5 19.5t-3 24q0 33 29.5 104t29.5 121
q0 35 -16.5 62.5t-52.5 27.5q-20 0 -35.5 -7.5t-24 -24.5t-14 -31t-7 -41.5t-2 -40t-0.5 -41.5l-1 -360q0 -43 15.5 -68.5t15.5 -33.5q0 -10 -9 -14t-34 -4h-80q-25 0 -34.5 4t-9.5 14t11.5 20.5t23.5 30.5t12 53v355q0 106 52 169.5t140 63.5q65 0 100 -34t35 -86
q0 -35 -21.5 -70.5t-43.5 -68t-22 -59.5q0 -6 2 -12t7.5 -11.5t11 -10t16.5 -11.5t19 -12t24.5 -14t26.5 -15q34 -19 52 -31t40 -31t31.5 -41t9.5 -50q0 -70 -49.5 -117t-127.5 -46z" />
    <glyph glyph-name="agrave" unicode="&#xe0;" horiz-adv-x="549" 
d="M83 260q58 45 150 45q53 0 108 -13q-8 32 -12 46t-13.5 36t-20.5 31t-30 16.5t-44 7.5q-63 0 -136 -42q-7 -5 -13 -5t-10 4.5t-4 9.5q0 6 5 14q20 30 72 54.5t115 24.5q77 0 116.5 -41.5t55.5 -114.5l46 -217q5 -24 14.5 -36.5t17 -15t19.5 -2.5q20 0 20 -12
q0 -20 -26 -38.5t-58 -18.5q-33 0 -47 18.5t-22 58.5q-30 -38 -77 -59t-92 -21q-89 0 -140.5 43.5t-51.5 109.5q0 72 58 117zM117 154q2 -50 35 -82t88 -32q52 0 93 30t41 59q0 4 -1 8q-2 11 -9 41t-12 52q-3 16 -36.5 24.5t-64.5 8.5q-65 0 -99.5 -28.5t-34.5 -77.5v-3z
M180 655q7 15 24 21q5 2 11 2q8 0 20 -4.5t21.5 -12t34.5 -27.5q62 -58 67 -70q1 -3 1 -5q0 -9 -12 -13q-10 -4 -22 -4q-29 0 -81.5 23.5t-63.5 54.5q-3 9 -3 18t3 17z" />
    <glyph glyph-name="aacute" unicode="&#xe1;" horiz-adv-x="549" 
d="M83 260q58 45 150 45q53 0 108 -13q-8 32 -12 46t-13.5 36t-20.5 31t-30 16.5t-44 7.5q-63 0 -136 -42q-7 -5 -13 -5t-10 4.5t-4 9.5q0 6 5 14q20 30 72 54.5t115 24.5q77 0 116.5 -41.5t55.5 -114.5l46 -217q5 -24 14.5 -36.5t17 -15t19.5 -2.5q20 0 20 -12
q0 -20 -26 -38.5t-58 -18.5q-33 0 -47 18.5t-22 58.5q-30 -38 -77 -59t-92 -21q-89 0 -140.5 43.5t-51.5 109.5q0 72 58 117zM117 154q2 -50 35 -82t88 -32q52 0 93 30t41 59q0 4 -1 8q-2 11 -9 41t-12 52q-3 16 -36.5 24.5t-64.5 8.5q-65 0 -99.5 -28.5t-34.5 -77.5v-3z
M191 564q6 13 68 70q24 20 34 27.5t22 12t20 4.5q6 0 11 -2q16 -6 21 -17.5t6 -20.5q-1 -9 -4 -18q-11 -31 -63.5 -54.5t-81.5 -23.5q-12 0 -22 4q-12 4 -12 13q0 2 1 5z" />
    <glyph glyph-name="acircumflex" unicode="&#xe2;" horiz-adv-x="549" 
d="M25 143q0 72 58 117t150 45q53 0 108 -13q-8 32 -12 46t-13.5 36t-20.5 31t-30 16.5t-44 7.5q-63 0 -136 -42q-7 -5 -13 -5t-10 4.5t-4 9.5q0 6 5 14q20 30 72 54.5t115 24.5q77 0 116.5 -41.5t55.5 -114.5l46 -217q5 -24 14.5 -36.5t17 -15t19.5 -2.5q20 0 20 -12
q0 -20 -26 -38.5t-58 -18.5q-33 0 -47 18.5t-22 58.5q-30 -38 -77 -59t-92 -21q-89 0 -140.5 43.5t-51.5 109.5zM117 154q2 -50 35 -82t88 -32q52 0 93 30t41 59q0 4 -1 8q-2 11 -9 41t-12 52q-3 16 -36.5 24.5t-64.5 8.5q-65 0 -99.5 -28.5t-34.5 -77.5v-3zM150 553
q1 12 45 69q29 41 40.5 51t33.5 10q5 0 9.5 -0.5t7.5 -1t6.5 -2t6 -2.5t5.5 -4.5t5 -5.5t6 -7.5t6 -9t7.5 -11.5t8.5 -13q9 -13 22 -31.5t19.5 -28t6.5 -13.5q0 -13 -13 -14h-2q-17 0 -47.5 20t-55.5 45q-24 -25 -54.5 -45t-47.5 -20h-2q-13 1 -13 14z" />
    <glyph glyph-name="atilde" unicode="&#xe3;" horiz-adv-x="549" 
d="M83 260q58 45 150 45q53 0 108 -13q-8 32 -12 46t-13.5 36t-20.5 31t-30 16.5t-44 7.5q-63 0 -136 -42q-7 -5 -13 -5t-10 4.5t-4 9.5q0 6 5 14q20 30 72 54.5t115 24.5q77 0 116.5 -41.5t55.5 -114.5l46 -217q5 -24 14.5 -36.5t17 -15t19.5 -2.5q20 0 20 -12
q0 -20 -26 -38.5t-58 -18.5q-33 0 -47 18.5t-22 58.5q-30 -38 -77 -59t-92 -21q-89 0 -140.5 43.5t-51.5 109.5q0 72 58 117zM117 154q2 -50 35 -82t88 -32q52 0 93 30t41 59q0 4 -1 8q-2 11 -9 41t-12 52q-3 16 -36.5 24.5t-64.5 8.5q-65 0 -99.5 -28.5t-34.5 -77.5v-3z
M109 581q0 27 18.5 43.5t50.5 16.5q36 0 93 -21t70 -21q35 0 35 29q0 13 8 13q12 0 18 -21l3 -18q0 -27 -19 -44t-51 -17q-23 0 -80 21t-82 21q-35 0 -35 -29q0 -12 -8 -12q-12 1 -18 21z" />
    <glyph glyph-name="adieresis" unicode="&#xe4;" horiz-adv-x="549" 
d="M25 143q0 72 58 117t150 45q53 0 108 -13q-8 32 -12 46t-13.5 36t-20.5 31t-30 16.5t-44 7.5q-63 0 -136 -42q-7 -5 -13 -5t-10 4.5t-4 9.5q0 6 5 14q20 30 72 54.5t115 24.5q77 0 116.5 -41.5t55.5 -114.5l46 -217q5 -24 14.5 -36.5t17 -15t19.5 -2.5q20 0 20 -12
q0 -20 -26 -38.5t-58 -18.5q-33 0 -47 18.5t-22 58.5q-30 -38 -77 -59t-92 -21q-89 0 -140.5 43.5t-51.5 109.5zM117 154q2 -50 35 -82t88 -32q52 0 93 30t41 59q0 4 -1 8q-2 11 -9 41t-12 52q-3 16 -36.5 24.5t-64.5 8.5q-65 0 -99.5 -28.5t-34.5 -77.5v-3zM138 609
q0 23 17.5 42.5t41.5 19.5q21 0 34 -13t13 -33q0 -23 -19 -40t-44 -17q-18 0 -30.5 11.5t-12.5 29.5zM283 609q0 23 17.5 42.5t41.5 19.5q20 0 33.5 -13t13.5 -33q0 -23 -19 -40t-44 -17q-18 0 -30.5 11.5t-12.5 29.5z" />
    <glyph glyph-name="aring" unicode="&#xe5;" horiz-adv-x="549" 
d="M83 260q58 45 150 45q53 0 108 -13q-8 32 -12 46t-13.5 36t-20.5 31t-30 16.5t-44 7.5q-63 0 -136 -42q-7 -5 -13 -5t-10 4.5t-4 9.5q0 6 5 14q20 30 72 54.5t115 24.5q77 0 116.5 -41.5t55.5 -114.5l46 -217q5 -24 14.5 -36.5t17 -15t19.5 -2.5q20 0 20 -12
q0 -20 -26 -38.5t-58 -18.5q-33 0 -47 18.5t-22 58.5q-30 -38 -77 -59t-92 -21q-89 0 -140.5 43.5t-51.5 109.5q0 72 58 117zM117 154q2 -50 35 -82t88 -32q52 0 93 30t41 59q0 4 -1 8q-2 11 -9 41t-12 52q-3 16 -36.5 24.5t-64.5 8.5q-65 0 -99.5 -28.5t-34.5 -77.5v-3z
M167 622q0 41 28.5 67t70.5 26q41 0 68 -25t27 -65q0 -42 -28.5 -67.5t-70.5 -25.5q-41 0 -68 25t-27 65zM213 623q3 -23 18 -37.5t36 -14.5q23 0 35 15.5t12 34.5v6q-3 22 -17 36.5t-35 14.5q-24 0 -36.5 -14.5t-12.5 -34.5v-6z" />
    <glyph glyph-name="ae" unicode="&#xe6;" horiz-adv-x="868" 
d="M84 261q58 45 152 45q80 0 141 -26q-1 78 -33.5 112.5t-98.5 34.5q-61 0 -131 -40q-8 -5 -14 -5q-5 0 -9 4t-4 9q0 6 5 15q20 30 72 54.5t114 24.5q119 0 164 -83q73 84 189 84q80 0 133 -41t68 -108q1 -5 1 -9q0 -22 -25 -32q-125 -48 -329 -116q16 -50 60 -88t108 -38
q91 0 158 71q9 9 17 9q4 0 9.5 -3t5.5 -12q0 -5 -3 -12q-19 -45 -78 -83t-145 -38q-70 0 -123.5 31.5t-82.5 85.5q-30 -58 -82.5 -87.5t-116.5 -29.5q-81 0 -131 43.5t-50 109.5q0 72 59 118zM116 153q2 -50 34 -79t90 -29q49 0 91.5 33t43.5 67v75q0 17 -37.5 30t-85.5 13
q-62 0 -99 -29.5t-37 -75.5v-5zM471 226q161 53 233 81q20 8 20 27q0 3 -1 7q-7 45 -42.5 73.5t-75.5 28.5h-5q-63 -1 -99 -48.5t-36 -107.5q0 -36 6 -61z" />
    <glyph glyph-name="ccedilla" unicode="&#xe7;" horiz-adv-x="516" 
d="M108 413q73 76 180 76q88 0 141 -49t53 -113q0 -25 -13 -39.5t-34 -14.5q-36 0 -51 51q-16 55 -44.5 86.5t-78.5 32.5q-64 0 -101 -47t-37 -121q0 -99 50.5 -158.5t133.5 -59.5q80 0 147 71q9 9 17 9q4 0 9.5 -3.5t5.5 -11.5q0 -5 -3 -12q-18 -44 -68.5 -80t-129.5 -40
l-22 -43q92 -17 92 -79q0 -35 -27 -57t-65 -22q-55 0 -81 32q-4 4 -4 8t3.5 7.5t7.5 3.5t9 -3q30 -17 54 -17q22 0 34 12t12 30q0 38 -68 54q-14 3 -14 11q0 3 2 6l31 58q-96 7 -155 72.5t-59 159.5q0 113 73 190z" />
    <glyph glyph-name="egrave" unicode="&#xe8;" horiz-adv-x="525" 
d="M107 414q72 76 182 76q80 0 133 -41.5t67 -107.5q1 -5 1 -10q0 -21 -24 -31q-129 -50 -330 -116q16 -50 60.5 -88t108.5 -38q91 0 158 71q9 9 17 9q4 0 9.5 -3t5.5 -12q0 -5 -3 -12q-19 -45 -78 -83t-145 -38q-104 0 -169 66.5t-65 166.5q0 114 72 191zM129 226
q154 51 233 81q20 8 20 27q0 3 -1 7q-7 45 -43 73.5t-75 28.5h-5q-63 -1 -99 -48.5t-36 -107.5q0 -41 6 -61zM181 655q7 15 24 21q5 2 11 2q8 0 20 -4.5t21.5 -12t34.5 -27.5q62 -58 67 -70q1 -3 1 -5q0 -9 -12 -13q-10 -4 -22 -4q-29 0 -81.5 23.5t-63.5 54.5q-3 9 -3 18
t3 17z" />
    <glyph glyph-name="eacute" unicode="&#xe9;" horiz-adv-x="525" 
d="M107 414q72 76 182 76q80 0 133 -41.5t67 -107.5q1 -5 1 -10q0 -21 -24 -31q-129 -50 -330 -116q16 -50 60.5 -88t108.5 -38q91 0 158 71q9 9 17 9q4 0 9.5 -3t5.5 -12q0 -5 -3 -12q-19 -45 -78 -83t-145 -38q-104 0 -169 66.5t-65 166.5q0 114 72 191zM129 226
q154 51 233 81q20 8 20 27q0 3 -1 7q-7 45 -43 73.5t-75 28.5h-5q-63 -1 -99 -48.5t-36 -107.5q0 -41 6 -61zM192 564q6 13 68 70q24 20 34 27.5t22 12t20 4.5q6 0 11 -2q16 -6 21 -17.5t6 -20.5q-1 -9 -4 -18q-11 -31 -63.5 -54.5t-81.5 -23.5q-12 0 -22 4q-12 4 -12 13
q0 2 1 5z" />
    <glyph glyph-name="ecircumflex" unicode="&#xea;" horiz-adv-x="525" 
d="M35 223q0 114 72 190.5t182 76.5q80 0 133 -41.5t67 -107.5q1 -5 1 -10q0 -21 -24 -31q-129 -50 -330 -116q16 -50 60.5 -88t108.5 -38q91 0 158 71q9 9 17 9q4 0 9.5 -3t5.5 -12q0 -5 -3 -12q-19 -45 -78 -83t-145 -38q-104 0 -169 66.5t-65 166.5zM129 226
q154 51 233 81q20 8 20 27q0 3 -1 7q-7 45 -43 73.5t-75 28.5h-5q-63 -1 -99 -48.5t-36 -107.5q0 -41 6 -61zM151 553q1 12 45 69q29 41 40.5 51t33.5 10q5 0 9.5 -0.5t7.5 -1t6.5 -2t6 -2.5t5.5 -4.5t5 -5.5t6 -7.5t6 -9t7.5 -11.5t8.5 -13q9 -13 22 -31.5t19.5 -28
t6.5 -13.5q0 -13 -13 -14h-2q-17 0 -47.5 20t-55.5 45q-24 -25 -54.5 -45t-47.5 -20h-2q-13 1 -13 14z" />
    <glyph glyph-name="edieresis" unicode="&#xeb;" horiz-adv-x="525" 
d="M107 414q72 76 182 76q80 0 133 -41.5t67 -107.5q1 -5 1 -10q0 -21 -24 -31q-129 -50 -330 -116q16 -50 60.5 -88t108.5 -38q91 0 158 71q9 9 17 9q4 0 9.5 -3t5.5 -12q0 -5 -3 -12q-19 -45 -78 -83t-145 -38q-104 0 -169 66.5t-65 166.5q0 114 72 191zM123 287
q0 -41 6 -61q154 51 233 81q20 8 20 27q0 3 -1 7q-7 45 -43 73.5t-75 28.5h-5q-63 -1 -99 -48.5t-36 -107.5zM139 609q0 23 17.5 42.5t41.5 19.5q21 0 34 -13t13 -33q0 -23 -19 -40t-44 -17q-18 0 -30.5 11.5t-12.5 29.5zM302 652q17 19 41 19q20 0 33.5 -13t13.5 -33
q0 -23 -19 -40t-44 -17q-18 0 -30.5 11.5t-12.5 29.5q0 23 18 43z" />
    <glyph glyph-name="igrave" unicode="&#xec;" horiz-adv-x="286" 
d="M51 431q0 8 5.5 13t22.5 13q67 31 93 33h3q17 0 17 -22l-1 -138v-198q0 -33 7.5 -53t16 -26.5t16 -14.5t7.5 -19q0 -19 -39 -19h-107q-40 0 -40 20q0 11 7.5 18.5t16.5 14t16.5 26.5t7.5 53v198q0 30 -7.5 48t-17 23.5t-17 12.5t-7.5 17zM48 655q7 15 24 21q5 2 11 2
q8 0 20 -4.5t21.5 -12t34.5 -27.5q62 -58 67 -70q1 -3 1 -5q0 -9 -12 -13q-10 -4 -22 -4q-29 0 -81.5 23.5t-63.5 54.5q-3 9 -3 18t3 17z" />
    <glyph glyph-name="iacute" unicode="&#xed;" horiz-adv-x="286" 
d="M57 444q5 5 22 13q67 31 93 33h3q17 0 17 -22l-1 -138v-198q0 -33 7.5 -53t16 -26.5t16 -14.5t7.5 -19q0 -19 -39 -19h-107q-40 0 -40 20q0 11 7.5 18.5t16.5 14t16.5 26.5t7.5 53v198q0 30 -7.5 48t-17 23.5t-17 12.5t-7.5 17q0 8 6 13zM59 564q6 13 68 70
q24 20 34 27.5t22 12t20 4.5q6 0 11 -2q16 -6 21 -17.5t6 -20.5q-1 -9 -4 -18q-11 -31 -63.5 -54.5t-81.5 -23.5q-12 0 -22 4q-12 4 -12 13q0 2 1 5z" />
    <glyph glyph-name="icircumflex" unicode="&#xee;" horiz-adv-x="286" 
d="M57 444q5 5 22 13q67 31 93 33h3q17 0 17 -22l-1 -138v-198q0 -33 7.5 -53t16 -26.5t16 -14.5t7.5 -19q0 -19 -39 -19h-107q-40 0 -40 20q0 11 7.5 18.5t16.5 14t16.5 26.5t7.5 53v198q0 30 -7.5 48t-17 23.5t-17 12.5t-7.5 17q0 8 6 13zM18 553q1 12 45 69
q29 41 40.5 51t33.5 10q5 0 9.5 -0.5t7.5 -1t6.5 -2t6 -2.5t5.5 -4.5t5 -5.5t6 -7.5t6 -9t7.5 -11.5t8.5 -13q9 -13 22 -31.5t19.5 -28t6.5 -13.5q0 -13 -13 -14h-2q-17 0 -47.5 20t-55.5 45q-24 -25 -54.5 -45t-47.5 -20h-2q-13 1 -13 14z" />
    <glyph glyph-name="idieresis" unicode="&#xef;" horiz-adv-x="286" 
d="M57 444q5 5 22 13q67 31 93 33h3q17 0 17 -22l-1 -138v-198q0 -33 7.5 -53t16 -26.5t16 -14.5t7.5 -19q0 -19 -39 -19h-107q-40 0 -40 20q0 11 7.5 18.5t16.5 14t16.5 26.5t7.5 53v198q0 30 -7.5 48t-17 23.5t-17 12.5t-7.5 17q0 8 6 13zM24 652q17 19 41 19q21 0 34 -13
t13 -33q0 -23 -19 -40t-44 -17q-18 0 -30.5 11.5t-12.5 29.5q0 23 18 43zM151 609q0 23 17.5 42.5t41.5 19.5q20 0 33.5 -13t13.5 -33q0 -23 -19 -40t-44 -17q-18 0 -30.5 11.5t-12.5 29.5z" />
    <glyph glyph-name="eth" unicode="&#xf0;" horiz-adv-x="566" 
d="M529 275q1 -129 -70.5 -207t-187.5 -78q-104 0 -170 69t-66 181q0 101 66 172.5t164 71.5q65 1 118 -35q-41 84 -125 150l-65 -38q-17 -10 -23 11q-6 20 10 28l42 24q-43 28 -92 44q-19 6 -21 11q-1 2 -1 5q0 18 34 18q72 0 144 -40l59 34q16 9 21 -10q8 -22 -9 -30
l-32 -18q88 -62 145.5 -160.5t58.5 -202.5zM305 41q63 0 101.5 48.5t38.5 117.5q0 90 -52.5 162.5t-128.5 72.5q-64 0 -102.5 -50t-38.5 -120q0 -90 52 -160.5t130 -70.5z" />
    <glyph glyph-name="ntilde" unicode="&#xf1;" horiz-adv-x="629" 
d="M50 431q0 9 5.5 14.5t23.5 13.5q55 26 82 28q20 0 20 -22l-1 -85q29 53 76.5 81.5t99.5 28.5q76 0 117.5 -48t60.5 -162l31 -176q4 -21 13 -35t18 -19.5t15.5 -13t6.5 -17.5q0 -19 -39 -19h-106q-40 0 -40 20q0 8 5.5 14t12.5 11t13.5 11.5t8.5 16.5t3 17q-1 8 -2 17
l-29 166q-6 37 -12 59t-19 47.5t-35 37.5t-55 12q-54 -1 -94 -48t-40 -133v-116q0 -33 7 -53t16 -26.5t16 -14.5t7 -19q0 -19 -39 -19h-107q-40 0 -40 20q0 11 7.5 18.5t17 14t17 26.5t7.5 53v201q0 57 -31 75q-18 11 -18 23zM177 625q18 16 50 16q36 0 93 -21t70 -21
q35 0 35 29q0 13 8 13q12 0 18 -21l3 -18q0 -27 -19 -44t-51 -17q-23 0 -80 21t-82 21q-35 0 -35 -29q0 -12 -8 -12q-12 1 -18 21q-3 8 -3 18q0 27 19 44z" />
    <glyph glyph-name="ograve" unicode="&#xf2;" horiz-adv-x="566" 
d="M110 413q74 77 189 77q99 0 164.5 -68t65.5 -170q0 -112 -72.5 -187t-186.5 -75q-103 0 -169 63.5t-66 168.5q0 114 75 191zM126 270q0 -99 49.5 -165.5t125.5 -66.5q63 0 100.5 45.5t37.5 118.5q0 96 -50.5 166.5t-124.5 70.5q-65 0 -101.5 -47.5t-36.5 -121.5zM202 655
q7 15 24 21q5 2 11 2q8 0 20 -4.5t21.5 -12t34.5 -27.5q62 -58 67 -70q1 -3 1 -5q0 -9 -12 -13q-10 -4 -22 -4q-29 0 -81.5 23.5t-63.5 54.5q-3 9 -3 18t3 17z" />
    <glyph glyph-name="oacute" unicode="&#xf3;" horiz-adv-x="566" 
d="M110 413q74 77 189 77q99 0 164.5 -68t65.5 -170q0 -112 -72.5 -187t-186.5 -75q-103 0 -169 63.5t-66 168.5q0 114 75 191zM126 270q0 -99 49.5 -165.5t125.5 -66.5q63 0 100.5 45.5t37.5 118.5q0 96 -50.5 166.5t-124.5 70.5q-65 0 -101.5 -47.5t-36.5 -121.5zM213 564
q6 13 68 70q24 20 34 27.5t22 12t20 4.5q6 0 11 -2q16 -6 21 -17.5t6 -20.5q-1 -9 -4 -18q-11 -31 -63.5 -54.5t-81.5 -23.5q-12 0 -22 4q-12 4 -12 13q0 2 1 5z" />
    <glyph glyph-name="ocircumflex" unicode="&#xf4;" horiz-adv-x="566" 
d="M110 413q74 77 189 77q99 0 164.5 -68t65.5 -170q0 -112 -72.5 -187t-186.5 -75q-103 0 -169 63.5t-66 168.5q0 114 75 191zM176 105q49 -67 125 -67q63 0 100.5 45.5t37.5 118.5q0 96 -50.5 166.5t-124.5 70.5q-65 0 -101.5 -47.5t-36.5 -121.5q0 -99 50 -165zM217 622
q29 41 40.5 51t33.5 10q5 0 9.5 -0.5t7.5 -1t6.5 -2t6 -2.5t5.5 -4.5t5 -5.5t6 -7.5t6 -9t7.5 -11.5t8.5 -13q9 -13 22 -31.5t19.5 -28t6.5 -13.5q0 -13 -13 -14h-2q-17 0 -47.5 20t-55.5 45q-24 -25 -54.5 -45t-47.5 -20h-2q-13 1 -13 14q1 12 45 69z" />
    <glyph glyph-name="otilde" unicode="&#xf5;" horiz-adv-x="566" 
d="M110 413q74 77 189 77q99 0 164.5 -68t65.5 -170q0 -112 -72.5 -187t-186.5 -75q-103 0 -169 63.5t-66 168.5q0 114 75 191zM176 105q49 -67 125 -67q63 0 100.5 45.5t37.5 118.5q0 96 -50.5 166.5t-124.5 70.5q-65 0 -101.5 -47.5t-36.5 -121.5q0 -99 50 -165zM150 625
q18 16 50 16q36 0 93 -21t70 -21q35 0 35 29q0 13 8 13q12 0 18 -21l3 -18q0 -27 -19 -44t-51 -17q-23 0 -80 21t-82 21q-35 0 -35 -29q0 -12 -8 -12q-12 1 -18 21q-3 8 -3 18q0 27 19 44z" />
    <glyph glyph-name="odieresis" unicode="&#xf6;" horiz-adv-x="566" 
d="M35 222q0 114 74.5 191t189.5 77q99 0 164.5 -68t65.5 -170q0 -112 -72.5 -187t-186.5 -75q-103 0 -169 63.5t-66 168.5zM176 105q49 -67 125 -67q63 0 100.5 45.5t37.5 118.5q0 96 -50.5 166.5t-124.5 70.5q-65 0 -101.5 -47.5t-36.5 -121.5q0 -99 50 -165zM160 609
q0 23 17.5 42.5t41.5 19.5q21 0 34 -13t13 -33q0 -23 -19 -40t-44 -17q-18 0 -30.5 11.5t-12.5 29.5zM305 609q0 23 17.5 42.5t41.5 19.5q20 0 33.5 -13t13.5 -33q0 -23 -19 -40t-44 -17q-18 0 -30.5 11.5t-12.5 29.5z" />
    <glyph glyph-name="divide" unicode="&#xf7;" horiz-adv-x="427" 
d="M210 465q-20 0 -33.5 12t-13.5 34q0 23 16 37.5t36 14.5q19 0 33 -12.5t14 -34.5q0 -23 -15.5 -37t-36.5 -14zM364 343h-310q-17 0 -21.5 5.5t-4.5 24.5l1 3q0 17 7.5 23.5t26.5 6.5h309q17 0 21.5 -5.5t4.5 -24.5v-3q0 -17 -7.5 -23.5t-26.5 -6.5zM210 184
q-20 0 -33.5 12t-13.5 33q0 24 16 38.5t36 14.5q19 0 33 -13t14 -34q0 -23 -15.5 -37t-36.5 -14z" />
    <glyph glyph-name="oslash" unicode="&#xf8;" horiz-adv-x="566" 
d="M35 222q0 114 74.5 191t189.5 77q51 0 99 -21l62 108q9 15 24 15q18 0 18 -14q0 -6 -5 -16l-65 -113q46 -32 71.5 -83.5t25.5 -113.5q0 -112 -72.5 -187t-186.5 -75q-48 0 -93 16l-58 -101q-12 -21 -29 -21q-18 0 -18 16q0 4 6 14l63 109q-50 29 -78 80.5t-28 118.5z
M126 270q0 -108 57 -174l176 305q-43 38 -95 38q-65 0 -101.5 -47.5t-36.5 -121.5zM301 38q63 0 100.5 45.5t37.5 118.5q0 98 -52 168l-175 -303q42 -29 89 -29z" />
    <glyph glyph-name="ugrave" unicode="&#xf9;" horiz-adv-x="595" 
d="M56 444q5 5 23 13q65 31 93 33h3q17 0 17 -22l-1 -138v-131q0 -149 102 -149h4q52 1 96 45.5t44 113.5v121q0 30 -8 48.5t-17 23.5t-17 12t-8 17q0 8 5.5 13t23.5 13q65 31 93 33h3q17 0 17 -22l-1 -138v-199q0 -26 9 -40.5t20.5 -18t20.5 -9t9 -14.5q0 -16 -25 -29
q-52 -30 -89 -30q-32 0 -34 52l-1 41q-32 -44 -78.5 -68.5t-90.5 -24.5q-78 0 -123.5 49.5t-45.5 149.5v141q0 30 -8 48.5t-17 23.5t-17 12t-8 17q0 8 6 13zM254 655q7 15 24 21q5 2 11 2q8 0 20 -4.5t21.5 -12t34.5 -27.5q62 -58 67 -70q1 -3 1 -5q0 -9 -12 -13
q-10 -4 -22 -4q-29 0 -81.5 23.5t-63.5 54.5q-3 9 -3 18t3 17z" />
    <glyph glyph-name="uacute" unicode="&#xfa;" horiz-adv-x="595" 
d="M50 431q0 8 5.5 13t23.5 13q65 31 93 33h3q17 0 17 -22l-1 -138v-131q0 -149 102 -149h4q52 1 96 45.5t44 113.5v121q0 30 -8 48.5t-17 23.5t-17 12t-8 17q0 8 5.5 13t23.5 13q65 31 93 33h3q17 0 17 -22l-1 -138v-199q0 -26 9 -40.5t20.5 -18t20.5 -9t9 -14.5
q0 -16 -25 -29q-52 -30 -89 -30q-32 0 -34 52l-1 41q-32 -44 -78.5 -68.5t-90.5 -24.5q-78 0 -123.5 49.5t-45.5 149.5v141q0 30 -8 48.5t-17 23.5t-17 12t-8 17zM265 564q6 13 68 70q24 20 34 27.5t22 12t20 4.5q6 0 11 -2q16 -6 21 -17.5t6 -20.5q-1 -9 -4 -18
q-11 -31 -63.5 -54.5t-81.5 -23.5q-12 0 -22 4q-12 4 -12 13q0 2 1 5z" />
    <glyph glyph-name="ucircumflex" unicode="&#xfb;" horiz-adv-x="595" 
d="M50 431q0 8 5.5 13t23.5 13q65 31 93 33h3q17 0 17 -22l-1 -138v-131q0 -149 102 -149h4q52 1 96 45.5t44 113.5v121q0 30 -8 48.5t-17 23.5t-17 12t-8 17q0 8 5.5 13t23.5 13q65 31 93 33h3q17 0 17 -22l-1 -138v-199q0 -26 9 -40.5t20.5 -18t20.5 -9t9 -14.5
q0 -16 -25 -29q-52 -30 -89 -30q-32 0 -34 52l-1 41q-32 -44 -78.5 -68.5t-90.5 -24.5q-78 0 -123.5 49.5t-45.5 149.5v141q0 30 -8 48.5t-17 23.5t-17 12t-8 17zM224 553q1 12 45 69q29 41 40.5 51t33.5 10q5 0 9.5 -0.5t7.5 -1t6.5 -2t6 -2.5t5.5 -4.5t5 -5.5t6 -7.5t6 -9
t7.5 -11.5t8.5 -13q9 -13 22 -31.5t19.5 -28t6.5 -13.5q0 -13 -13 -14h-2q-17 0 -47.5 20t-55.5 45q-24 -25 -54.5 -45t-47.5 -20h-2q-13 1 -13 14z" />
    <glyph glyph-name="udieresis" unicode="&#xfc;" horiz-adv-x="595" 
d="M50 431q0 8 5.5 13t23.5 13q65 31 93 33h3q17 0 17 -22l-1 -138v-131q0 -149 102 -149h4q52 1 96 45.5t44 113.5v121q0 30 -8 48.5t-17 23.5t-17 12t-8 17q0 8 5.5 13t23.5 13q65 31 93 33h3q17 0 17 -22l-1 -138v-199q0 -26 9 -40.5t20.5 -18t20.5 -9t9 -14.5
q0 -16 -25 -29q-52 -30 -89 -30q-32 0 -34 52l-1 41q-32 -44 -78.5 -68.5t-90.5 -24.5q-78 0 -123.5 49.5t-45.5 149.5v141q0 30 -8 48.5t-17 23.5t-17 12t-8 17zM212 609q0 23 17.5 42.5t41.5 19.5q21 0 34 -13t13 -33q0 -23 -19 -40t-44 -17q-18 0 -30.5 11.5t-12.5 29.5z
M375 652q17 19 41 19q20 0 33.5 -13t13.5 -33q0 -23 -19 -40t-44 -17q-18 0 -30.5 11.5t-12.5 29.5q0 23 18 43z" />
    <glyph glyph-name="yacute" unicode="&#xfd;" horiz-adv-x="533" 
d="M61 480h112q39 0 39 -19q0 -9 -14 -20t-18.5 -20t-4.5 -17q0 -15 9 -43l113 -290l113 290q9 30 9 46q0 6 -3 14.5t-15 19.5t-12 20q0 19 39 19h55q39 0 39 -19q0 -8 -6.5 -15.5t-15.5 -14.5t-22 -25t-23 -45l-132 -340q-48 -125 -73 -162q-47 -68 -124 -69
q-43 0 -68.5 21t-25.5 49q0 21 13 36.5t33 16.5q14 0 26 -9t20.5 -20.5t21.5 -21t28 -9.5q25 0 42.5 34t17.5 75q0 32 -19 78l-127 321q-10 27 -23 45t-22 25t-15 14.5t-6 15.5q0 19 39 19zM193 564q6 13 68 70q24 20 34 27.5t22 12t20 4.5q6 0 11 -2q16 -6 21 -17.5
t6 -20.5q-1 -9 -4 -18q-11 -31 -63.5 -54.5t-81.5 -23.5q-12 0 -22 4q-12 4 -12 13q0 2 1 5z" />
    <glyph glyph-name="thorn" unicode="&#xfe;" horiz-adv-x="597" 
d="M41 652q0 8 5.5 13t22.5 13q67 31 93 33h3q17 0 17 -22l-1 -138v-151q62 90 173 90q92 0 147.5 -67t55.5 -171q0 -113 -62 -187t-155 -75h-5q-42 0 -83.5 14.5t-70.5 39.5v-112q0 -33 7.5 -53t16 -26.5t16 -14.5t7.5 -19q0 -19 -39 -19h-108q-39 0 -39 20q0 11 7.5 18.5
t16.5 14t16.5 26.5t7.5 53v619q0 30 -7.5 48.5t-17 23.5t-17 12t-7.5 17zM232 79q49 -44 105 -44h3q62 1 94.5 50.5t32.5 126.5q0 103 -42.5 159t-103.5 56q-64 0 -101.5 -49.5t-37.5 -110.5v-70q0 -73 50 -118z" />
    <glyph glyph-name="ydieresis" unicode="&#xff;" horiz-adv-x="533" 
d="M61 480h112q39 0 39 -19q0 -9 -14 -20t-18.5 -20t-4.5 -17q0 -15 9 -43l113 -290l113 290q9 30 9 46q0 6 -3 14.5t-15 19.5t-12 20q0 19 39 19h55q39 0 39 -19q0 -8 -6.5 -15.5t-15.5 -14.5t-22 -25t-23 -45l-132 -340q-48 -125 -73 -162q-47 -68 -124 -69
q-43 0 -68.5 21t-25.5 49q0 21 13 36.5t33 16.5q14 0 26 -9t20.5 -20.5t21.5 -21t28 -9.5q25 0 42.5 34t17.5 75q0 32 -19 78l-127 321q-10 27 -23 45t-22 25t-15 14.5t-6 15.5q0 19 39 19zM158 652q17 19 41 19q21 0 34 -13t13 -33q0 -23 -19 -40t-44 -17q-18 0 -30.5 11.5
t-12.5 29.5q0 23 18 43zM285 609q0 23 17.5 42.5t41.5 19.5q20 0 33.5 -13t13.5 -33q0 -23 -19 -40t-44 -17q-18 0 -30.5 11.5t-12.5 29.5z" />
    <glyph glyph-name="Amacron" unicode="&#x100;" horiz-adv-x="686" 
d="M-1 19q0 11 8.5 18t20.5 12t27.5 23t26.5 46l189 481q4 15 4 25q0 9 -5.5 15.5t-19.5 17t-14 22.5q0 21 28 21h91q20 0 26 -18l222 -563q11 -28 25 -45.5t24.5 -23t17.5 -12t7 -16.5q0 -12 -11 -17t-38 -5h-117q-40 0 -40 19q0 12 15 23.5t19.5 19.5t4.5 16q0 14 -8 41
l-25 63q-7 19 -18 23q-17 6 -137 6q-129 0 -146 -7q-10 -4 -17 -23l-25 -63q-9 -30 -9 -44q0 -6 3.5 -14t17 -18.5t13.5 -20.5q0 -21 -37 -21h-81q-42 0 -42 19zM199 259q12 -5 124 -5q108 0 117 6q2 2 2 6q0 5 -3 14l-122 310l-121 -313q-2 -6 -2 -10q0 -6 5 -8zM175 800
q2 15 7.5 20t24.5 5h227q19 0 23 -4t4 -12q0 -4 -1 -8q-2 -15 -7.5 -20.5t-25.5 -5.5h-227q-19 0 -22.5 4t-3.5 12q0 4 1 9z" />
    <glyph glyph-name="amacron" unicode="&#x101;" horiz-adv-x="549" 
d="M83 260q58 45 150 45q53 0 108 -13q-8 32 -12 46t-13.5 36t-20.5 31t-30 16.5t-44 7.5q-63 0 -136 -42q-7 -5 -13 -5t-10 4.5t-4 9.5q0 6 5 14q20 30 72 54.5t115 24.5q77 0 116.5 -41.5t55.5 -114.5l46 -217q5 -24 14.5 -36.5t17 -15t19.5 -2.5q20 0 20 -12
q0 -20 -26 -38.5t-58 -18.5q-33 0 -47 18.5t-22 58.5q-30 -38 -77 -59t-92 -21q-89 0 -140.5 43.5t-51.5 109.5q0 72 58 117zM117 154q2 -50 35 -82t88 -32q52 0 93 30t41 59q0 4 -1 8q-2 11 -9 41t-12 52q-3 16 -36.5 24.5t-64.5 8.5q-65 0 -99.5 -28.5t-34.5 -77.5v-3z
M116 580q2 15 7.5 20t24.5 5h227q19 0 23 -4t4 -12q0 -4 -1 -8q-2 -15 -7.5 -20.5t-25.5 -5.5h-227q-19 0 -22.5 4t-3.5 12q0 4 1 9z" />
    <glyph glyph-name="Abreve" unicode="&#x102;" horiz-adv-x="686" 
d="M8 37q8 7 20 12t27.5 23t26.5 46l189 481q4 15 4 25q0 9 -5.5 15.5t-19.5 17t-14 22.5q0 21 28 21h91q20 0 26 -18l222 -563q11 -28 25 -45.5t24.5 -23t17.5 -12t7 -16.5q0 -12 -11 -17t-38 -5h-117q-40 0 -40 19q0 12 15 23.5t19.5 19.5t4.5 16q0 14 -8 41l-25 63
q-7 19 -18 23q-17 6 -137 6q-129 0 -146 -7q-10 -4 -17 -23l-25 -63q-9 -30 -9 -44q0 -6 3.5 -14t17 -18.5t13.5 -20.5q0 -21 -37 -21h-81q-42 0 -42 19q0 11 9 18zM199 259q12 -5 124 -5q108 0 117 6q2 2 2 6q0 5 -3 14l-122 310l-121 -313q-2 -6 -2 -10q0 -6 5 -8z
M208 891q8 0 15 -11q37 -53 96 -53t96 53q8 11 14 11q13 0 13 -17v-5q-2 -47 -36 -79.5t-88 -32.5q-57 0 -89 32.5t-34 79.5v5q0 17 13 17z" />
    <glyph glyph-name="abreve" unicode="&#x103;" horiz-adv-x="549" 
d="M25 143q0 72 58 117t150 45q53 0 108 -13q-8 32 -12 46t-13.5 36t-20.5 31t-30 16.5t-44 7.5q-63 0 -136 -42q-7 -5 -13 -5t-10 4.5t-4 9.5q0 6 5 14q20 30 72 54.5t115 24.5q77 0 116.5 -41.5t55.5 -114.5l46 -217q5 -24 14.5 -36.5t17 -15t19.5 -2.5q20 0 20 -12
q0 -20 -26 -38.5t-58 -18.5q-33 0 -47 18.5t-22 58.5q-30 -38 -77 -59t-92 -21q-89 0 -140.5 43.5t-51.5 109.5zM117 154q2 -50 35 -82t88 -32q52 0 93 30t41 59q0 4 -1 8q-2 11 -9 41t-12 52q-3 16 -36.5 24.5t-64.5 8.5q-65 0 -99.5 -28.5t-34.5 -77.5v-3zM149 671
q8 0 15 -11q37 -53 96 -53t96 53q8 11 14 11q13 0 13 -17v-5q-2 -47 -36 -79.5t-88 -32.5q-57 0 -89 32.5t-34 79.5v5q0 17 13 17z" />
    <glyph glyph-name="Aogonek" unicode="&#x104;" horiz-adv-x="686" 
d="M-1 19q0 11 8.5 18t20.5 12t27.5 23t26.5 46l189 481q4 15 4 25q0 9 -5.5 15.5t-19.5 17t-14 22.5q0 21 28 21h91q20 0 26 -18l222 -563q11 -28 25 -45.5t24.5 -23t17.5 -12t7 -16.5q0 -12 -11 -17t-38 -5h-9q-47 -48 -47 -92q0 -25 15 -39.5t43 -14.5q19 0 41 9
q6 3 10 3q6 0 8 -4t2 -6q0 -6 -6 -11q-29 -28 -79 -28q-41 0 -69 21t-28 58q0 54 75 104h-73q-40 0 -40 19q0 12 15 23.5t19.5 19.5t4.5 16q0 14 -8 41l-25 63q-7 19 -18 23q-17 6 -137 6q-129 0 -146 -7q-10 -4 -17 -23l-25 -63q-9 -30 -9 -44q0 -6 3.5 -14t17 -18.5
t13.5 -20.5q0 -21 -37 -21h-81q-42 0 -42 19zM199 259q12 -5 124 -5q108 0 117 6q2 2 2 6q0 5 -3 14l-122 310l-121 -313q-2 -6 -2 -10q0 -6 5 -8z" />
    <glyph glyph-name="aogonek" unicode="&#x105;" horiz-adv-x="549" 
d="M83 260q58 45 150 45q53 0 108 -13q-8 32 -12 46t-13.5 36t-20.5 31t-30 16.5t-44 7.5q-63 0 -136 -42q-7 -5 -13 -5t-10 4.5t-4 9.5q0 6 5 14q20 30 72 54.5t115 24.5q77 0 116.5 -41.5t55.5 -114.5l46 -217q5 -24 14.5 -36.5t17 -15t19.5 -2.5q20 0 20 -12
q0 -20 -26 -38.5t-58 -18.5h-8q-41 -45 -41 -85q0 -25 15 -39.5t43 -14.5q19 0 41 9q6 3 10 3q6 0 8 -4t2 -6q0 -6 -6 -11q-29 -28 -79 -28q-41 0 -69 21t-28 58q0 55 77 105q-24 14 -34 69q-30 -38 -77 -59t-92 -21q-89 0 -140.5 43.5t-51.5 109.5q0 72 58 117zM117 154
q2 -50 35 -82t88 -32q52 0 93 30t41 59q0 4 -1 8q-2 11 -9 41t-12 52q-3 16 -36.5 24.5t-64.5 8.5q-65 0 -99.5 -28.5t-34.5 -77.5v-3z" />
    <glyph glyph-name="Cacute" unicode="&#x106;" horiz-adv-x="684" 
d="M142 601q102 109 253 109q33 0 72 -7.5t50 -7.5q12 0 26.5 6.5t22.5 6.5q14 0 21.5 -10.5t16.5 -42.5q18 -64 28 -126q2 -7 2 -13q0 -19 -17 -21h-3q-6 0 -13 4.5t-11 10.5l-14 21q-37 58 -85 91t-120 33q-107 0 -171.5 -81.5t-64.5 -196.5q0 -140 76 -232.5t197 -92.5
q124 0 211 96q8 9 16 9q5 0 10.5 -6t5.5 -13q0 -10 -8 -22q-29 -45 -98 -85.5t-169 -40.5q-155 0 -246 94.5t-91 248.5q0 159 103 268zM303 781q2 11 63 72q44 42 60 48q7 2 13 2q5 0 10 -1q16 -5 23.5 -17t7.5 -23q0 -6 -2 -13q-7 -33 -60 -60.5t-84 -27.5q-9 0 -16 2
q-16 4 -16 14q0 2 1 4z" />
    <glyph glyph-name="cacute" unicode="&#x107;" horiz-adv-x="516" 
d="M108 413q73 76 180 76q88 0 141 -49t53 -113q0 -25 -13 -39.5t-34 -14.5q-36 0 -51 51q-16 55 -44.5 86.5t-78.5 32.5q-64 0 -101 -47t-37 -121q0 -99 50.5 -158.5t133.5 -59.5q80 0 147 71q9 9 17 9q4 0 9.5 -3.5t5.5 -11.5q0 -5 -3 -12q-19 -46 -73.5 -83t-141.5 -37
q-104 0 -168.5 67t-64.5 166q0 113 73 190zM219 573q6 13 68 70q24 20 34 27.5t22 12t20 4.5q6 0 11 -2q16 -6 21 -17.5t6 -20.5q-1 -9 -4 -18q-11 -31 -63.5 -54.5t-81.5 -23.5q-12 0 -22 4q-12 4 -12 13q0 2 1 5z" />
    <glyph glyph-name="Cdotaccent" unicode="&#x10a;" horiz-adv-x="684" 
d="M142 601q102 109 253 109q33 0 72 -7.5t50 -7.5q12 0 26.5 6.5t22.5 6.5q14 0 21.5 -10.5t16.5 -42.5q18 -64 28 -126q2 -7 2 -13q0 -19 -17 -21h-3q-6 0 -13 4.5t-11 10.5l-14 21q-37 58 -85 91t-120 33q-107 0 -171.5 -81.5t-64.5 -196.5q0 -140 76 -232.5t197 -92.5
q124 0 211 96q8 9 16 9q5 0 10.5 -6t5.5 -13q0 -10 -8 -22q-29 -45 -98 -85.5t-169 -40.5q-155 0 -246 94.5t-91 248.5q0 159 103 268zM289 835q2 28 28 51t51 23q4 0 8 -1q20 -1 32.5 -16.5t12.5 -32.5v-3q-2 -27 -29 -49t-53 -22h-5q-21 2 -33 15t-12 32v3z" />
    <glyph glyph-name="cdotaccent" unicode="&#x10b;" horiz-adv-x="516" 
d="M108 413q73 76 180 76q88 0 141 -49t53 -113q0 -25 -13 -39.5t-34 -14.5q-36 0 -51 51q-16 55 -44.5 86.5t-78.5 32.5q-64 0 -101 -47t-37 -121q0 -99 50.5 -158.5t133.5 -59.5q80 0 147 71q9 9 17 9q4 0 9.5 -3.5t5.5 -11.5q0 -5 -3 -12q-19 -46 -73.5 -83t-141.5 -37
q-104 0 -168.5 67t-64.5 166q0 113 73 190zM224 624q2 28 28 51t51 23q4 0 8 -1q20 -1 32.5 -16.5t12.5 -32.5v-3q-2 -27 -29 -49t-53 -22h-5q-21 2 -33 15t-12 32v3z" />
    <glyph glyph-name="Ccaron" unicode="&#x10c;" horiz-adv-x="684" 
d="M39 333q0 159 102.5 268t253.5 109q33 0 72 -7.5t50 -7.5q12 0 26.5 6.5t22.5 6.5q14 0 21.5 -10.5t16.5 -42.5q18 -64 28 -126q2 -7 2 -13q0 -19 -17 -21h-3q-6 0 -13 4.5t-11 10.5l-14 21q-37 58 -85 91t-120 33q-107 0 -171.5 -81.5t-64.5 -196.5q0 -140 76 -232.5
t197 -92.5q124 0 211 96q8 9 16 9q5 0 10.5 -6t5.5 -13q0 -10 -8 -22q-29 -45 -98 -85.5t-169 -40.5q-155 0 -246 94.5t-91 248.5zM240 883h2q19 0 58 -15t61 -32q22 17 61 32t58 15h2q12 -1 12 -11v-3q-1 -3 -3.5 -7t-8.5 -10.5t-11.5 -11.5t-14.5 -14l-16 -16
q-8 -8 -18 -18.5t-14 -14.5t-10.5 -10t-9.5 -7.5t-8 -3.5t-9.5 -2.5t-10.5 -0.5q-7 0 -12.5 1.5t-9.5 3t-11 7.5t-11 10l-35 35q-6 7 -15 16l-26 26q-6 6 -8.5 10t-3.5 7v3q0 10 12 11z" />
    <glyph glyph-name="ccaron" unicode="&#x10d;" horiz-adv-x="516" 
d="M35 223q0 113 73 189.5t180 76.5q88 0 141 -49t53 -113q0 -25 -13 -39.5t-34 -14.5q-36 0 -51 51q-16 55 -44.5 86.5t-78.5 32.5q-64 0 -101 -47t-37 -121q0 -99 50.5 -158.5t133.5 -59.5q80 0 147 71q9 9 17 9q4 0 9.5 -3.5t5.5 -11.5q0 -5 -3 -12q-19 -46 -73.5 -83
t-141.5 -37q-104 0 -168.5 67t-64.5 166zM191 709h2q17 0 47.5 -19.5t54.5 -44.5q25 25 55.5 44.5t47.5 19.5h2q13 -1 13 -14q0 -4 -6.5 -13.5t-19.5 -28t-22 -31.5q-3 -5 -8.5 -13t-7.5 -11.5t-6 -9t-6 -7.5t-5 -5.5t-5.5 -4.5t-6 -2.5t-6.5 -2t-7.5 -1t-9.5 -0.5
q-22 0 -33.5 10t-40.5 51q-44 57 -45 69q0 13 13 14z" />
    <glyph glyph-name="Dcaron" unicode="&#x10e;" horiz-adv-x="732" 
d="M42 20q0 12 9.5 18.5t20.5 11.5t20.5 27t9.5 60v426q0 38 -9.5 60t-20.5 27t-20.5 11.5t-9.5 18.5q0 13 11 16.5t39 3.5h206q103 0 181.5 -30.5t123.5 -81t67 -108t22 -119.5q0 -73 -20.5 -135.5t-62.5 -114t-114.5 -81.5t-168.5 -30h-234q-28 0 -39 3.5t-11 16.5z
M218 57q24 -13 97 -13q278 0 278 270q0 150 -88.5 246.5t-243.5 96.5q-40 0 -53.5 -8.5t-13.5 -35.5v-510q0 -33 24 -46zM127 883h2q19 0 58 -15t61 -32q22 17 61 32t58 15h2q12 -1 12 -11v-3q-1 -3 -3.5 -7t-8.5 -10.5t-11.5 -11.5t-14.5 -14l-16 -16q-8 -8 -18 -18.5
t-14 -14.5t-10.5 -10t-9.5 -7.5t-8 -3.5t-9.5 -2.5t-10.5 -0.5q-7 0 -12.5 1.5t-9.5 3t-11 7.5t-11 10l-35 35q-6 7 -15 16l-26 26q-6 6 -8.5 10t-3.5 7v3q0 10 12 11z" />
    <glyph glyph-name="dcaron" unicode="&#x10f;" horiz-adv-x="587" 
d="M35 221q0 114 74.5 191.5t174.5 77.5q84 0 139 -48v108q0 30 -7.5 48t-17 23.5t-17 12.5t-7.5 17q0 8 5.5 13t22.5 13q67 31 94 33h3q16 0 16 -22l-1 -138l-1 -419q0 -25 9.5 -40t20.5 -18.5t20.5 -9t9.5 -14.5q0 -15 -26 -29q-54 -30 -88 -30q-32 0 -34 52l-1 36
q-62 -88 -173 -88h-2q-96 1 -155 67t-59 164zM124 268q0 -101 48.5 -157.5t110.5 -56.5q58 0 95.5 38.5t43.5 87.5v50q-4 87 -31 131q-45 80 -129 80q-63 0 -100.5 -48.5t-37.5 -124.5zM660 502l13 151q3 48 42 48q16 0 27 -11t11 -33q0 -31 -30.5 -101.5t-49.5 -70.5
q-13 0 -13 12v5z" />
    <glyph glyph-name="Dcroat" unicode="&#x110;" horiz-adv-x="732" 
d="M39 371h63v192q0 38 -9.5 60t-20.5 27t-20.5 11.5t-9.5 18.5q0 13 11 16.5t39 3.5h206q103 0 181.5 -30.5t123.5 -81t67 -108t22 -119.5q0 -73 -20.5 -135.5t-62.5 -114t-114.5 -81.5t-168.5 -30h-234q-28 0 -39 3.5t-11 16.5q0 12 9.5 18.5t20.5 11.5t20.5 27t9.5 60
v189h-63q-16 0 -21 5.5t-5 17.5q0 22 26 22zM218 57q24 -13 97 -13q278 0 278 270q0 150 -88.5 246.5t-243.5 96.5q-40 0 -53.5 -8.5t-13.5 -35.5v-242h61q26 0 26 -22q0 -12 -5 -17.5t-21 -5.5h-61v-223q0 -33 24 -46z" />
    <glyph glyph-name="dcroat" unicode="&#x111;" horiz-adv-x="587" 
d="M110 413q74 77 174 77q84 0 139 -48v84h-61q-19 0 -19 21q0 20 19 20h60q-2 23 -10 37.5t-16.5 19t-15 11.5t-6.5 16q0 8 5.5 13t22.5 13q67 31 94 33h3q16 0 16 -22l-1 -121h37q19 0 19 -20q0 -21 -19 -21h-37l-1 -395q0 -25 9.5 -40t20.5 -18.5t20.5 -9t9.5 -14.5
q0 -15 -26 -29q-54 -30 -88 -30q-32 0 -34 52l-1 36q-62 -88 -173 -88h-2q-96 1 -155 67t-59 164q0 114 75 192zM124 268q0 -101 48.5 -157.5t110.5 -56.5q58 0 95.5 38.5t43.5 87.5v50q-4 87 -31 131q-45 80 -129 80q-63 0 -100.5 -48.5t-37.5 -124.5z" />
    <glyph glyph-name="Emacron" unicode="&#x112;" horiz-adv-x="608" 
d="M42 680q0 13 11 16.5t39 3.5l372 1q42 0 54 -5.5t19 -25.5q18 -54 25 -106q1 -7 1 -13q0 -20 -13 -24q-2 -1 -5 -1q-17 0 -35 34q-26 49 -60.5 72t-86.5 23h-55q-71 0 -92.5 -10t-21.5 -36v-119q0 -33 17 -41t58 -8h27q35 0 57 5t28.5 11t13.5 11t16 5q19 0 26 -32
l20 -85q4 -22 5 -32q-1 -4 -2 -9.5t-12 -8.5q-3 -1 -5 -1q-7 0 -15 7t-17.5 21t-23 28t-37 24.5t-54.5 10.5h-27q-28 0 -41 -2t-23.5 -13t-10.5 -34v-253q0 -28 21.5 -38.5t93.5 -10.5l76 1q61 0 85.5 19.5t46.5 71.5q17 39 36 39h4q14 -2 14 -27v-7q-4 -70 -15 -107
q-5 -20 -20 -27.5t-61 -7.5h-383q-28 0 -39 3.5t-11 16.5q0 12 9.5 18.5t20.5 11.5t20.5 27t9.5 60v426q0 38 -9.5 60t-20.5 27t-20.5 11.5t-9.5 18.5zM77 800q2 15 7.5 20t24.5 5h227q19 0 23 -4t4 -12q0 -4 -1 -8q-2 -15 -7.5 -20.5t-25.5 -5.5h-227q-19 0 -22.5 4
t-3.5 12q0 4 1 9z" />
    <glyph glyph-name="emacron" unicode="&#x113;" horiz-adv-x="525" 
d="M35 223q0 114 72 190.5t182 76.5q80 0 133 -41.5t67 -107.5q1 -5 1 -10q0 -21 -24 -31q-129 -50 -330 -116q16 -50 60.5 -88t108.5 -38q91 0 158 71q9 9 17 9q4 0 9.5 -3t5.5 -12q0 -5 -3 -12q-19 -45 -78 -83t-145 -38q-104 0 -169 66.5t-65 166.5zM129 226
q154 51 233 81q20 8 20 27q0 3 -1 7q-7 45 -43 73.5t-75 28.5h-5q-63 -1 -99 -48.5t-36 -107.5q0 -41 6 -61zM117 580q2 15 7.5 20t24.5 5h227q19 0 23 -4t4 -12q0 -4 -1 -8q-2 -15 -7.5 -20.5t-25.5 -5.5h-227q-19 0 -22.5 4t-3.5 12q0 4 1 9z" />
    <glyph glyph-name="Edotaccent" unicode="&#x116;" horiz-adv-x="608" 
d="M52 39q9 6 20 11t20.5 27t9.5 60v426q0 38 -9.5 60t-20.5 27t-20.5 11.5t-9.5 18.5q0 13 11 16.5t39 3.5l372 1q42 0 54 -5.5t19 -25.5q18 -54 25 -106q1 -7 1 -13q0 -20 -13 -24q-2 -1 -5 -1q-17 0 -35 34q-26 49 -60.5 72t-86.5 23h-55q-71 0 -92.5 -10t-21.5 -36v-119
q0 -33 17 -41t58 -8h27q35 0 57 5t28.5 11t13.5 11t16 5q19 0 26 -32l20 -85q4 -22 5 -32q-1 -4 -2 -9.5t-12 -8.5q-3 -1 -5 -1q-7 0 -15 7t-17.5 21t-23 28t-37 24.5t-54.5 10.5h-27q-28 0 -41 -2t-23.5 -13t-10.5 -34v-253q0 -28 21.5 -38.5t93.5 -10.5l76 1
q61 0 85.5 19.5t46.5 71.5q17 39 36 39h4q14 -2 14 -27v-7q-4 -70 -15 -107q-5 -20 -20 -27.5t-61 -7.5h-383q-28 0 -39 3.5t-11 16.5q0 12 10 19zM157 835q2 28 28 51t51 23q4 0 8 -1q20 -1 32.5 -16.5t12.5 -32.5v-3q-2 -27 -29 -49t-53 -22h-5q-21 2 -33 15t-12 32v3z
" />
    <glyph glyph-name="edotaccent" unicode="&#x117;" horiz-adv-x="525" 
d="M107 414q72 76 182 76q80 0 133 -41.5t67 -107.5q1 -5 1 -10q0 -21 -24 -31q-129 -50 -330 -116q16 -50 60.5 -88t108.5 -38q91 0 158 71q9 9 17 9q4 0 9.5 -3t5.5 -12q0 -5 -3 -12q-19 -45 -78 -83t-145 -38q-104 0 -169 66.5t-65 166.5q0 114 72 191zM129 226
q154 51 233 81q20 8 20 27q0 3 -1 7q-7 45 -43 73.5t-75 28.5h-5q-63 -1 -99 -48.5t-36 -107.5q0 -41 6 -61zM197 615q2 28 28 51t51 23q4 0 8 -1q20 -1 32.5 -16.5t12.5 -32.5v-3q-2 -27 -29 -49t-53 -22h-5q-21 2 -33 15t-12 32v3z" />
    <glyph glyph-name="Eogonek" unicode="&#x118;" horiz-adv-x="608" 
d="M42 680q0 13 11 16.5t39 3.5l372 1q42 0 54 -5.5t19 -25.5q18 -54 25 -106q1 -7 1 -13q0 -20 -13 -24q-2 -1 -5 -1q-17 0 -35 34q-26 49 -60.5 72t-86.5 23h-55q-71 0 -92.5 -10t-21.5 -36v-119q0 -33 17 -41t58 -8h27q35 0 57 5t28.5 11t13.5 11t16 5q19 0 26 -32
l20 -85q4 -22 5 -32q-1 -4 -2 -9.5t-12 -8.5q-3 -1 -5 -1q-7 0 -15 7t-17.5 21t-23 28t-37 24.5t-54.5 10.5h-27q-28 0 -41 -2t-23.5 -13t-10.5 -34v-253q0 -28 21.5 -38.5t93.5 -10.5l76 1q61 0 85.5 19.5t46.5 71.5q17 39 36 39h4q14 -2 14 -27v-7q-4 -70 -15 -107
q-5 -20 -20 -27.5t-61 -7.5h-40q-47 -48 -47 -92q0 -25 15 -39.5t43 -14.5q19 0 41 9q6 3 10 3q6 0 8 -4t2 -6q0 -6 -6 -11q-29 -28 -79 -28q-41 0 -69 21t-28 58q0 54 75 104h-308q-28 0 -39 3.5t-11 16.5q0 12 9.5 18.5t20.5 11.5t20.5 27t9.5 60v426q0 38 -9.5 60
t-20.5 27t-20.5 11.5t-9.5 18.5z" />
    <glyph glyph-name="eogonek" unicode="&#x119;" horiz-adv-x="525" 
d="M35 223q0 114 72 190.5t182 76.5q80 0 133 -41.5t67 -107.5q1 -5 1 -10q0 -21 -24 -31q-129 -50 -330 -116q16 -50 60.5 -88t108.5 -38q91 0 158 71q9 9 17 9q4 0 9.5 -3t5.5 -12q0 -5 -3 -12q-20 -47 -79 -83q-42 -46 -42 -87q0 -25 15 -39.5t43 -14.5q19 0 41 9
q6 3 10 3q6 0 8 -4t2 -6q0 -6 -6 -11q-29 -28 -79 -28q-41 0 -69 21t-28 58q0 35 32 69q-35 -8 -71 -8q-104 0 -169 66.5t-65 166.5zM129 226q154 51 233 81q20 8 20 27q0 3 -1 7q-7 45 -43 73.5t-75 28.5h-5q-63 -1 -99 -48.5t-36 -107.5q0 -41 6 -61z" />
    <glyph glyph-name="Ecaron" unicode="&#x11a;" horiz-adv-x="608" 
d="M42 20q0 12 9.5 18.5t20.5 11.5t20.5 27t9.5 60v426q0 38 -9.5 60t-20.5 27t-20.5 11.5t-9.5 18.5q0 13 11 16.5t39 3.5l372 1q42 0 54 -5.5t19 -25.5q18 -54 25 -106q1 -7 1 -13q0 -20 -13 -24q-2 -1 -5 -1q-17 0 -35 34q-26 49 -60.5 72t-86.5 23h-55q-71 0 -92.5 -10
t-21.5 -36v-119q0 -33 17 -41t58 -8h27q35 0 57 5t28.5 11t13.5 11t16 5q19 0 26 -32l20 -85q4 -22 5 -32q-1 -4 -2 -9.5t-12 -8.5q-3 -1 -5 -1q-7 0 -15 7t-17.5 21t-23 28t-37 24.5t-54.5 10.5h-27q-28 0 -41 -2t-23.5 -13t-10.5 -34v-253q0 -28 21.5 -38.5t93.5 -10.5
l76 1q61 0 85.5 19.5t46.5 71.5q17 39 36 39h4q14 -2 14 -27v-7q-4 -70 -15 -107q-5 -20 -20 -27.5t-61 -7.5h-383q-28 0 -39 3.5t-11 16.5zM107 883h2q19 0 58 -15t61 -32q22 17 61 32t58 15h2q12 -1 12 -11v-3q-1 -3 -3.5 -7t-8.5 -10.5t-11.5 -11.5t-14.5 -14l-16 -16
q-8 -8 -18 -18.5t-14 -14.5t-10.5 -10t-9.5 -7.5t-8 -3.5t-9.5 -2.5t-10.5 -0.5q-7 0 -12.5 1.5t-9.5 3t-11 7.5t-11 10l-35 35q-6 7 -15 16l-26 26q-6 6 -8.5 10t-3.5 7v3q0 10 12 11z" />
    <glyph glyph-name="ecaron" unicode="&#x11b;" horiz-adv-x="525" 
d="M107 414q72 76 182 76q80 0 133 -41.5t67 -107.5q1 -5 1 -10q0 -21 -24 -31q-129 -50 -330 -116q16 -50 60.5 -88t108.5 -38q91 0 158 71q9 9 17 9q4 0 9.5 -3t5.5 -12q0 -5 -3 -12q-19 -45 -78 -83t-145 -38q-104 0 -169 66.5t-65 166.5q0 114 72 191zM129 226
q154 51 233 81q20 8 20 27q0 3 -1 7q-7 45 -43 73.5t-75 28.5h-5q-63 -1 -99 -48.5t-36 -107.5q0 -41 6 -61zM164 700h2q17 0 47.5 -19.5t54.5 -44.5q25 25 55.5 44.5t47.5 19.5h2q13 -1 13 -14q0 -4 -6.5 -13.5t-19.5 -28t-22 -31.5q-3 -5 -8.5 -13t-7.5 -11.5t-6 -9
t-6 -7.5t-5 -5.5t-5.5 -4.5t-6 -2.5t-6.5 -2t-7.5 -1t-9.5 -0.5q-22 0 -33.5 10t-40.5 51q-44 57 -45 69q0 13 13 14z" />
    <glyph glyph-name="Gbreve" unicode="&#x11e;" horiz-adv-x="752" 
d="M143 602q104 108 262 108q40 0 79 -7t48 -7q12 0 25 6t21 6q14 0 22 -11t15 -42q13 -48 27 -129q1 -6 1 -11q0 -22 -17 -24h-2q-16 0 -42 35q-23 32 -35.5 47t-39.5 38.5t-60.5 33.5t-77.5 10q-106 0 -170 -80t-64 -189v-4q0 -144 75.5 -239t200.5 -95q59 0 108.5 21.5
t49.5 55.5v96q0 32 -16.5 51.5t-36 25t-36 14t-16.5 21.5q0 21 49 21h149q35 0 35 -20q0 -11 -5.5 -18.5t-12.5 -13t-12.5 -26.5t-5.5 -55v-92q0 -48 -85 -92.5t-188 -45.5h-6q-155 0 -249 96.5t-94 246.5q0 160 104 268zM285 891q8 0 15 -11q37 -53 96 -53t96 53
q8 11 14 11q13 0 13 -17v-5q-2 -47 -36 -79.5t-88 -32.5q-57 0 -89 32.5t-34 79.5v5q0 17 13 17z" />
    <glyph glyph-name="gbreve" unicode="&#x11f;" horiz-adv-x="550" 
d="M34 -86q0 25 17 50.5t50 39.5q-62 31 -62 87q0 24 19 48t60 39q-69 44 -69 124t65.5 133.5t162.5 54.5h9q16 -1 34 -2.5t28 -1.5q39 0 76 56q18 22 34 22q14 0 25 -10t11 -26q0 -28 -24 -49.5t-59 -30.5q57 -46 57 -117q0 -81 -61 -133.5t-160 -53.5q-54 0 -96 17
q-26 -18 -26 -41q0 -59 117 -59q31 0 83.5 3.5t67.5 3.5q71 0 109.5 -31.5t38.5 -80.5q0 -75 -74.5 -121.5t-208.5 -46.5q-93 0 -158.5 32t-65.5 94zM175 227q34 -42 89 -42q51 0 81 34.5t30 86.5q-1 60 -32.5 102t-87.5 42q-49 0 -82 -33.5t-33 -86.5q1 -61 35 -103z
M165 -147q43 -23 117 -23q76 0 123 24.5t47 69.5q0 64 -82 64h-15q-97 -5 -151 -5q-33 0 -58 -17.5t-25 -47.5q0 -42 44 -65zM165 671q8 0 15 -11q37 -53 96 -53t96 53q8 11 14 11q13 0 13 -17v-5q-2 -47 -36 -79.5t-88 -32.5q-57 0 -89 32.5t-34 79.5v5q0 17 13 17z" />
    <glyph glyph-name="Gdotaccent" unicode="&#x120;" horiz-adv-x="752" 
d="M143 602q104 108 262 108q40 0 79 -7t48 -7q12 0 25 6t21 6q14 0 22 -11t15 -42q13 -48 27 -129q1 -6 1 -11q0 -22 -17 -24h-2q-16 0 -42 35q-23 32 -35.5 47t-39.5 38.5t-60.5 33.5t-77.5 10q-106 0 -170 -80t-64 -189v-4q0 -144 75.5 -239t200.5 -95q59 0 108.5 21.5
t49.5 55.5v96q0 32 -16.5 51.5t-36 25t-36 14t-16.5 21.5q0 21 49 21h149q35 0 35 -20q0 -11 -5.5 -18.5t-12.5 -13t-12.5 -26.5t-5.5 -55v-92q0 -48 -85 -92.5t-188 -45.5h-6q-155 0 -249 96.5t-94 246.5q0 160 104 268zM332 835q2 28 28 51t51 23q4 0 8 -1
q20 -1 32.5 -16.5t12.5 -32.5v-3q-2 -27 -29 -49t-53 -22h-5q-21 2 -33 15t-12 32v3z" />
    <glyph glyph-name="gdotaccent" unicode="&#x121;" horiz-adv-x="550" 
d="M34 -86q0 25 17 50.5t50 39.5q-62 31 -62 87q0 24 19 48t60 39q-69 44 -69 124t65.5 133.5t162.5 54.5h9q16 -1 34 -2.5t28 -1.5q39 0 76 56q18 22 34 22q14 0 25 -10t11 -26q0 -28 -24 -49.5t-59 -30.5q57 -46 57 -117q0 -81 -61 -133.5t-160 -53.5q-54 0 -96 17
q-26 -18 -26 -41q0 -59 117 -59q31 0 83.5 3.5t67.5 3.5q71 0 109.5 -31.5t38.5 -80.5q0 -75 -74.5 -121.5t-208.5 -46.5q-93 0 -158.5 32t-65.5 94zM140 330q1 -61 35 -103t89 -42q51 0 81 34.5t30 86.5q-1 60 -32.5 102t-87.5 42q-49 0 -82 -33.5t-33 -86.5zM121 -82
q0 -42 43.5 -65t117.5 -23q76 0 123 24.5t47 69.5q0 64 -82 64h-15q-97 -5 -151 -5q-33 0 -58 -17.5t-25 -47.5zM212 615q2 28 28 51t51 23q4 0 8 -1q20 -1 32.5 -16.5t12.5 -32.5v-3q-2 -27 -29 -49t-53 -22h-5q-21 2 -33 15t-12 32v3z" />
    <glyph glyph-name="uni0122" unicode="&#x122;" horiz-adv-x="752" 
d="M143 602q104 108 262 108q40 0 79 -7t48 -7q12 0 25 6t21 6q14 0 22 -11t15 -42q13 -48 27 -129q1 -6 1 -11q0 -22 -17 -24h-2q-16 0 -42 35q-23 32 -35.5 47t-39.5 38.5t-60.5 33.5t-77.5 10q-106 0 -170 -80t-64 -189v-4q0 -144 75.5 -239t200.5 -95q59 0 108.5 21.5
t49.5 55.5v96q0 32 -16.5 51.5t-36 25t-36 14t-16.5 21.5q0 21 49 21h149q35 0 35 -20q0 -11 -5.5 -18.5t-12.5 -13t-12.5 -26.5t-5.5 -55v-92q0 -48 -85 -92.5t-188 -45.5h-6q-155 0 -249 96.5t-94 246.5q0 160 104 268zM361 -69q15 15 35 15q25 0 42 -16.5t17 -50.5
q0 -58 -32.5 -99t-58.5 -41q-12 0 -12 11q0 4 18 25.5t18 39.5q0 12 -21.5 33t-21.5 45t16 38z" />
    <glyph glyph-name="uni0123" unicode="&#x123;" horiz-adv-x="550" 
d="M34 -86q0 25 17 50.5t50 39.5q-62 31 -62 87q0 24 19 48t60 39q-69 44 -69 124t65.5 133.5t162.5 54.5h9q16 -1 34 -2.5t28 -1.5q39 0 76 56q18 22 34 22q14 0 25 -10t11 -26q0 -28 -24 -49.5t-59 -30.5q57 -46 57 -117q0 -81 -61 -133.5t-160 -53.5q-54 0 -96 17
q-26 -18 -26 -41q0 -59 117 -59q31 0 83.5 3.5t67.5 3.5q71 0 109.5 -31.5t38.5 -80.5q0 -75 -74.5 -121.5t-208.5 -46.5q-93 0 -158.5 32t-65.5 94zM140 330q1 -61 35 -103t89 -42q51 0 81 34.5t30 86.5q-1 60 -32.5 102t-87.5 42q-49 0 -82 -33.5t-33 -86.5zM121 -82
q0 -42 43.5 -65t117.5 -23q76 0 123 24.5t47 69.5q0 64 -82 64h-15q-97 -5 -151 -5q-33 0 -58 -17.5t-25 -47.5zM222 610q0 58 32.5 99t58.5 41q12 0 12 -11q0 -4 -18 -25.5t-18 -39.5q0 -12 21.5 -33t21.5 -45t-15.5 -38.5t-35.5 -14.5q-25 0 -42 16.5t-17 50.5z" />
    <glyph glyph-name="Hbar" unicode="&#x126;" horiz-adv-x="773" 
d="M38 517v5q0 19 19 19h45v14q0 32 -6 53t-14.5 30t-17 14.5t-14.5 11.5t-6 16q0 20 50 20h110q49 0 49 -20q0 -10 -6 -16t-14.5 -11.5t-17.5 -14.5t-15 -30t-6 -53v-14h385v14q0 39 -9 62.5t-19.5 29.5t-19.5 13.5t-9 19.5q0 20 49 20h110q50 0 50 -20q0 -12 -9.5 -19.5
t-20.5 -13.5t-20.5 -29.5t-9.5 -62.5v-14h58q19 0 19 -19v-5q0 -20 -19 -20h-58v-352q0 -32 6 -53t14.5 -30t17 -14.5t14.5 -11.5t6 -16q0 -20 -50 -20h-110q-49 0 -49 20q0 10 6 16t15 11.5t17.5 14.5t14.5 30t6 53v156q0 30 -10 37q-16 11 -127 11h-50q-157 0 -179 -8
q-18 -6 -19 -28v-168q0 -39 9 -62.5t19.5 -29.5t19.5 -13.5t9 -19.5q0 -20 -49 -20h-110q-50 0 -50 20q0 12 9.5 19.5t20.5 13.5t20.5 29.5t9.5 62.5v352h-45q-19 0 -19 20zM205 406q17 -12 133 -12h55q147 0 168 8q17 6 18 29v66h-385v-55q0 -29 11 -36z" />
    <glyph glyph-name="hbar" unicode="&#x127;" horiz-adv-x="626" 
d="M59 565h35q-2 24 -9.5 39t-16 20t-15.5 11.5t-7 15.5q0 8 5.5 13t23.5 13q65 31 93 33h3q17 0 17 -22l-1 -123h61q19 0 19 -20q0 -21 -19 -21h-61v-128q30 46 74.5 70t91.5 24q76 0 117.5 -48t60.5 -162l31 -176q4 -21 13 -35t18 -19.5t15.5 -13t6.5 -17.5q0 -19 -39 -19
h-106q-40 0 -40 20q0 8 5.5 14t12.5 11t13.5 11.5t8.5 16.5t3 17q-1 8 -2 17l-29 166q-6 37 -12 59t-19 47.5t-35 37.5t-55 12q-54 -1 -94 -48t-40 -133v-116q0 -33 7 -53t16 -26.5t16 -14.5t7 -19q0 -19 -39 -19h-107q-40 0 -40 20q0 11 7.5 18.5t17 14t17 26.5t7.5 53
l-1 392h-36q-19 0 -19 21q0 20 19 20z" />
    <glyph glyph-name="Imacron" unicode="&#x12a;" horiz-adv-x="295" 
d="M52 40q9 7 20 13t20.5 29.5t9.5 62.5v410q0 32 -6 53t-14.5 30t-17 14.5t-14.5 11.5t-6 16q0 20 50 20h110q49 0 49 -20q0 -10 -6 -16t-14.5 -11.5t-17.5 -14.5t-15 -30t-6 -53v-410q0 -39 9 -62.5t19.5 -29.5t19.5 -13.5t9 -19.5q0 -20 -49 -20h-110q-50 0 -50 20
q0 12 10 20zM2 800q2 15 7.5 20t24.5 5h227q19 0 23 -4t4 -12q0 -4 -1 -8q-2 -15 -7.5 -20.5t-25.5 -5.5h-227q-19 0 -22.5 4t-3.5 12q0 4 1 9z" />
    <glyph glyph-name="imacron" unicode="&#x12b;" horiz-adv-x="286" 
d="M57 444q5 5 22 13q67 31 93 33h3q17 0 17 -22l-1 -138v-198q0 -33 7.5 -53t16 -26.5t16 -14.5t7.5 -19q0 -19 -39 -19h-107q-40 0 -40 20q0 11 7.5 18.5t16.5 14t16.5 26.5t7.5 53v198q0 30 -7.5 48t-17 23.5t-17 12.5t-7.5 17q0 8 6 13zM-16 580q2 15 7.5 20t24.5 5h227
q19 0 23 -4t4 -12q0 -4 -1 -8q-2 -15 -7.5 -20.5t-25.5 -5.5h-227q-19 0 -22.5 4t-3.5 12q0 4 1 9z" />
    <glyph glyph-name="Iogonek" unicode="&#x12e;" horiz-adv-x="295" 
d="M42 20q0 12 9.5 19.5t20.5 13.5t20.5 29.5t9.5 62.5v410q0 32 -6 53t-14.5 30t-17 14.5t-14.5 11.5t-6 16q0 20 50 20h110q49 0 49 -20q0 -10 -6 -16t-14.5 -11.5t-17.5 -14.5t-15 -30t-6 -53v-410q0 -39 9 -62.5t19.5 -29.5t19.5 -13.5t9 -19.5q0 -17 -35 -20
q-47 -48 -47 -92q0 -25 15 -39.5t43 -14.5q19 0 41 9q6 3 10 3q6 0 8 -4t2 -6q0 -6 -6 -11q-29 -28 -79 -28q-41 0 -69 21t-28 58q0 54 75 104h-89q-50 0 -50 20z" />
    <glyph glyph-name="iogonek" unicode="&#x12f;" horiz-adv-x="286" 
d="M134 0h-42q-40 0 -40 20q0 11 7.5 18.5t16.5 14t16.5 26.5t7.5 53v198q0 30 -7.5 48t-17 23.5t-17 12.5t-7.5 17q0 8 5.5 13t22.5 13q67 31 93 33h3q17 0 17 -22l-1 -138v-198q0 -33 7.5 -53t16 -26.5t16 -14.5t7.5 -19q0 -19 -39 -19h-35q-57 -54 -57 -102
q0 -25 15 -39.5t43 -14.5q19 0 41 9q6 3 10 3q6 0 8 -4t2 -6q0 -6 -6 -11q-29 -28 -79 -28q-41 0 -69 21t-28 58q0 58 90 114zM64 615q2 28 28 51t51 23q4 0 8 -1q20 -1 32.5 -16.5t12.5 -32.5v-3q-2 -27 -29 -49t-53 -22h-5q-21 2 -33 15t-12 32v3z" />
    <glyph glyph-name="Idotaccent" unicode="&#x130;" horiz-adv-x="295" 
d="M52 40q9 7 20 13t20.5 29.5t9.5 62.5v410q0 32 -6 53t-14.5 30t-17 14.5t-14.5 11.5t-6 16q0 20 50 20h110q49 0 49 -20q0 -10 -6 -16t-14.5 -11.5t-17.5 -14.5t-15 -30t-6 -53v-410q0 -39 9 -62.5t19.5 -29.5t19.5 -13.5t9 -19.5q0 -20 -49 -20h-110q-50 0 -50 20
q0 12 10 20zM82 835q2 28 28 51t51 23q4 0 8 -1q20 -1 32.5 -16.5t12.5 -32.5v-3q-2 -27 -29 -49t-53 -22h-5q-21 2 -33 15t-12 32v3z" />
    <glyph glyph-name="dotlessi" unicode="&#x131;" horiz-adv-x="286" 
d="M57 444q5 5 22 13q67 31 93 33h3q17 0 17 -22l-1 -138v-198q0 -33 7.5 -53t16 -26.5t16 -14.5t7.5 -19q0 -19 -39 -19h-107q-40 0 -40 20q0 11 7.5 18.5t16.5 14t16.5 26.5t7.5 53v198q0 30 -7.5 48t-17 23.5t-17 12.5t-7.5 17q0 8 6 13z" />
    <glyph glyph-name="uni0136" unicode="&#x136;" horiz-adv-x="695" 
d="M42 20q0 12 9.5 19.5t20.5 13.5t20.5 29.5t9.5 62.5v410q0 32 -6 53t-14.5 30t-17 14.5t-14.5 11.5t-6 16q0 20 50 20h110q49 0 49 -20q0 -10 -6 -16t-14.5 -11.5t-17.5 -14.5t-15 -30t-6 -53v-204l268 250q19 18 20.5 25t1.5 10q0 7 -7 11.5t-16 12.5t-9 19q0 21 34 21
h102q49 0 49 -20q0 -15 -11.5 -21t-40 -19.5t-56.5 -38.5l-94 -88l182 -405q11 -24 25.5 -39t25.5 -20t18.5 -11.5t7.5 -17.5q0 -20 -39 -20h-109q-50 0 -50 23q0 9 11.5 20t14.5 18t3 12q0 12 -9 36l-148 342l-174 -163v-143q0 -39 9 -62.5t19.5 -29.5t19.5 -13.5t9 -19.5
q0 -20 -49 -20h-110q-50 0 -50 20zM323 -69q15 15 35 15q25 0 42 -16.5t17 -50.5q0 -58 -32.5 -99t-58.5 -41q-12 0 -12 11q0 4 18 25.5t18 39.5q0 12 -21.5 33t-21.5 45t16 38z" />
    <glyph glyph-name="uni0137" unicode="&#x137;" horiz-adv-x="592" 
d="M52 664q5 5 23 13q65 31 93 33h3q17 0 17 -22l-1 -138v-353l194 207q9 12 9 19q0 3 -3 7.5t-15 14.5t-12 17q0 18 29 18h97q33 0 33 -17q0 -10 -9 -14.5t-31 -17t-45 -36.5l-44 -47l109 -247q8 -19 20.5 -33t22 -20t17 -13.5t7.5 -16.5q0 -10 -9.5 -14t-33.5 -4h-103
q-40 0 -40 18q0 11 16.5 25.5t16.5 28.5q0 7 -3 14l-85 193l-138 -148q0 -32 7 -52.5t16 -26.5t16 -14t7 -19q0 -19 -39 -19h-107q-40 0 -40 20q0 11 7.5 18.5t17 14t17 26.5t7.5 53l-1 418q0 30 -7.5 48.5t-17 23.5t-17 12t-7.5 17q0 8 6 13zM247 -107q0 24 15.5 38.5
t35.5 14.5q25 0 42 -16.5t17 -50.5q0 -58 -32.5 -99t-58.5 -41q-12 0 -12 11q0 4 18 25.5t18 39.5q0 12 -21.5 33t-21.5 45z" />
    <glyph glyph-name="Lacute" unicode="&#x139;" horiz-adv-x="552" 
d="M42 20q0 12 9.5 18.5t20.5 11.5t20.5 27t9.5 60v418q0 32 -6 53t-14.5 30t-17 14.5t-14.5 11.5t-6 16q0 20 50 20h110q49 0 49 -20q0 -10 -6 -16t-14.5 -11.5t-17.5 -14.5t-15 -30t-6 -53v-461q0 -28 17 -38.5t70 -10.5l63 1q61 0 85 19t47 72q11 25 19 32t16 7h4
q15 -2 15 -28v-6q-4 -70 -15 -107q-6 -20 -21 -27.5t-60 -7.5h-342q-28 0 -39 3.5t-11 16.5zM103 781q2 11 63 72q44 42 60 48q7 2 13 2q5 0 10 -1q16 -5 23.5 -17t7.5 -23q0 -6 -2 -13q-7 -33 -60 -60.5t-84 -27.5q-9 0 -16 2q-16 4 -16 14q0 2 1 4z" />
    <glyph glyph-name="lacute" unicode="&#x13a;" horiz-adv-x="278" 
d="M46 651q0 8 5.5 13t23.5 13q65 31 93 33h3q17 0 17 -22l-1 -138v-418q0 -33 7 -53t16 -26.5t16 -14.5t7 -19q0 -19 -39 -19h-107q-40 0 -40 20q0 11 7.5 18.5t17 14t17 26.5t7.5 53l-1 418q0 30 -7.5 48.5t-17 23.5t-17 12t-7.5 17zM65 784q6 13 68 70q24 20 34 27.5
t22 12t20 4.5q6 0 11 -2q16 -6 21 -17.5t6 -20.5q-1 -9 -4 -18q-11 -31 -63.5 -54.5t-81.5 -23.5q-12 0 -22 4q-12 4 -12 13q0 2 1 5z" />
    <glyph glyph-name="uni013B" unicode="&#x13b;" horiz-adv-x="552" 
d="M42 20q0 12 9.5 18.5t20.5 11.5t20.5 27t9.5 60v418q0 32 -6 53t-14.5 30t-17 14.5t-14.5 11.5t-6 16q0 20 50 20h110q49 0 49 -20q0 -10 -6 -16t-14.5 -11.5t-17.5 -14.5t-15 -30t-6 -53v-461q0 -28 17 -38.5t70 -10.5l63 1q61 0 85 19t47 72q11 25 19 32t16 7h4
q15 -2 15 -28v-6q-4 -70 -15 -107q-6 -20 -21 -27.5t-60 -7.5h-342q-28 0 -39 3.5t-11 16.5zM266 -69q15 15 35 15q25 0 42 -16.5t17 -50.5q0 -58 -32.5 -99t-58.5 -41q-12 0 -12 11q0 4 18 25.5t18 39.5q0 12 -21.5 33t-21.5 45t16 38z" />
    <glyph glyph-name="uni013C" unicode="&#x13c;" horiz-adv-x="278" 
d="M52 664q5 5 23 13q65 31 93 33h3q17 0 17 -22l-1 -138v-418q0 -33 7 -53t16 -26.5t16 -14.5t7 -19q0 -19 -39 -19h-107q-40 0 -40 20q0 11 7.5 18.5t17 14t17 26.5t7.5 53l-1 418q0 30 -7.5 48.5t-17 23.5t-17 12t-7.5 17q0 8 6 13zM98 -69q15 15 35 15q25 0 42 -16.5
t17 -50.5q0 -58 -32.5 -99t-58.5 -41q-12 0 -12 11q0 4 18 25.5t18 39.5q0 12 -21.5 33t-21.5 45t16 38z" />
    <glyph glyph-name="Lcaron" unicode="&#x13d;" horiz-adv-x="552" 
d="M52 39q9 6 20 11t20.5 27t9.5 60v418q0 32 -6 53t-14.5 30t-17 14.5t-14.5 11.5t-6 16q0 20 50 20h110q49 0 49 -20q0 -10 -6 -16t-14.5 -11.5t-17.5 -14.5t-15 -30t-6 -53v-461q0 -28 17 -38.5t70 -10.5l63 1q61 0 85 19t47 72q11 25 19 32t16 7h4q15 -2 15 -28v-6
q-4 -70 -15 -107q-6 -20 -21 -27.5t-60 -7.5h-342q-28 0 -39 3.5t-11 16.5q0 12 10 19zM383 502l13 151q3 48 42 48q16 0 27 -11t11 -33q0 -31 -30.5 -101.5t-49.5 -70.5q-13 0 -13 12v5z" />
    <glyph glyph-name="lcaron" unicode="&#x13e;" horiz-adv-x="278" 
d="M52 664q5 5 23 13q65 31 93 33h3q17 0 17 -22l-1 -138v-418q0 -33 7 -53t16 -26.5t16 -14.5t7 -19q0 -19 -39 -19h-107q-40 0 -40 20q0 11 7.5 18.5t17 14t17 26.5t7.5 53l-1 418q0 30 -7.5 48.5t-17 23.5t-17 12t-7.5 17q0 8 6 13zM292 502l13 151q3 48 42 48
q16 0 27 -11t11 -33q0 -31 -30.5 -101.5t-49.5 -70.5q-13 0 -13 12v5z" />
    <glyph glyph-name="Lslash" unicode="&#x141;" horiz-adv-x="552" 
d="M44 305l58 33v217q0 32 -6 53t-14.5 30t-17 14.5t-14.5 11.5t-6 16q0 20 50 20h110q49 0 49 -20q0 -10 -6 -16t-14.5 -11.5t-17.5 -14.5t-15 -30t-6 -53v-164l73 42q6 4 12 4q9 0 15 -12q4 -7 4 -12q0 -10 -11 -16l-93 -54v-249q0 -28 17 -38.5t70 -10.5l63 1q61 0 85 19
t47 72q11 25 19 32t16 7h4q15 -2 15 -28v-6q-4 -70 -15 -107q-6 -20 -21 -27.5t-60 -7.5h-342q-28 0 -39 3.5t-11 16.5q0 12 9.5 18.5t20.5 11.5t20.5 27t9.5 60v153l-38 -22q-6 -3 -10 -3q-10 0 -16 13q-5 6 -5 12q0 8 11 15z" />
    <glyph glyph-name="lslash" unicode="&#x142;" horiz-adv-x="278" 
d="M14 294l82 47l-1 209q0 30 -7.5 48.5t-17 23.5t-17 12t-7.5 17q0 8 5.5 13t23.5 13q65 31 93 33h3q17 0 17 -22l-1 -138v-157l50 29q6 4 12 4q9 0 15 -12q4 -7 4 -12q0 -10 -11 -16l-70 -40v-214q0 -33 7 -53t16 -26.5t16 -14.5t7 -19q0 -19 -39 -19h-107q-40 0 -40 20
q0 11 7.5 18.5t17 14t17 26.5t7.5 53v161l-62 -36q-6 -3 -10 -3q-10 0 -16 13q-5 6 -5 12q0 8 11 15z" />
    <glyph glyph-name="Nacute" unicode="&#x143;" horiz-adv-x="753" 
d="M49 697q11 3 39 3h45q16 0 31 -16l451 -493l-1 389q0 22 -6 37.5t-13.5 22.5t-15.5 12.5t-13.5 11.5t-5.5 15q0 12 10.5 16.5t34.5 4.5h67q44 0 44 -21q0 -11 -8.5 -18.5t-18 -13t-18 -23t-8.5 -44.5v-549q0 -31 -25 -31q-22 0 -22 24q0 32 -26 62l-445 482l2 -448
q0 -27 8.5 -44.5t18.5 -23t18.5 -13t8.5 -18.5q0 -12 -10.5 -16.5t-34.5 -4.5h-68q-43 0 -43 21q0 11 8.5 18.5t18 13t18 23t8.5 44.5v443q0 38 -9.5 60t-20.5 27t-20.5 11.5t-9.5 18.5q0 13 11 17zM324 781q2 11 63 72q44 42 60 48q7 2 13 2q5 0 10 -1q16 -5 23.5 -17
t7.5 -23q0 -6 -2 -13q-7 -33 -60 -60.5t-84 -27.5q-9 0 -16 2q-16 4 -16 14q0 2 1 4z" />
    <glyph glyph-name="nacute" unicode="&#x144;" horiz-adv-x="629" 
d="M58 39q7 7 16.5 13.5t17 26.5t7.5 53v201q0 57 -31 75q-18 11 -18 23q0 9 5.5 14.5t23.5 13.5q55 26 82 28q20 0 20 -22l-1 -85q29 53 76.5 81.5t99.5 28.5q76 0 117.5 -48t60.5 -162l31 -176q4 -21 13 -35t18 -19.5t15.5 -13t6.5 -17.5q0 -19 -39 -19h-106q-40 0 -40 20
q0 8 5.5 14t12.5 11t13.5 11.5t8.5 16.5t3 17q-1 8 -2 17l-29 166q-6 37 -12 59t-19 47.5t-35 37.5t-55 12q-54 -1 -94 -48t-40 -133v-116q0 -33 7 -53t16 -26.5t16 -14.5t7 -19q0 -19 -39 -19h-107q-40 0 -40 20q0 11 8 19zM240 564q6 13 68 70q24 20 34 27.5t22 12t20 4.5
q6 0 11 -2q16 -6 21 -17.5t6 -20.5q-1 -9 -4 -18q-11 -31 -63.5 -54.5t-81.5 -23.5q-12 0 -22 4q-12 4 -12 13q0 2 1 5z" />
    <glyph glyph-name="uni0145" unicode="&#x145;" horiz-adv-x="753" 
d="M38 680q0 13 11 16.5t39 3.5h45q16 0 31 -16l451 -493l-1 389q0 22 -6 37.5t-13.5 22.5t-15.5 12.5t-13.5 11.5t-5.5 15q0 12 10.5 16.5t34.5 4.5h67q44 0 44 -21q0 -11 -8.5 -18.5t-18 -13t-18 -23t-8.5 -44.5v-549q0 -31 -25 -31q-22 0 -22 24q0 32 -26 62l-445 482
l2 -448q0 -27 8.5 -44.5t18.5 -23t18.5 -13t8.5 -18.5q0 -12 -10.5 -16.5t-34.5 -4.5h-68q-43 0 -43 21q0 11 8.5 18.5t18 13t18 23t8.5 44.5v443q0 38 -9.5 60t-20.5 27t-20.5 11.5t-9.5 18.5zM339 -69q15 15 35 15q25 0 42 -16.5t17 -50.5q0 -58 -32.5 -99t-58.5 -41
q-12 0 -12 11q0 4 18 25.5t18 39.5q0 12 -21.5 33t-21.5 45t16 38z" />
    <glyph glyph-name="uni0146" unicode="&#x146;" horiz-adv-x="629" 
d="M58 39q7 7 16.5 13.5t17 26.5t7.5 53v201q0 57 -31 75q-18 11 -18 23q0 9 5.5 14.5t23.5 13.5q55 26 82 28q20 0 20 -22l-1 -85q29 53 76.5 81.5t99.5 28.5q76 0 117.5 -48t60.5 -162l31 -176q4 -21 13 -35t18 -19.5t15.5 -13t6.5 -17.5q0 -19 -39 -19h-106q-40 0 -40 20
q0 8 5.5 14t12.5 11t13.5 11.5t8.5 16.5t3 17q-1 8 -2 17l-29 166q-6 37 -12 59t-19 47.5t-35 37.5t-55 12q-54 -1 -94 -48t-40 -133v-116q0 -33 7 -53t16 -26.5t16 -14.5t7 -19q0 -19 -39 -19h-107q-40 0 -40 20q0 11 8 19zM274 -69q15 15 35 15q25 0 42 -16.5t17 -50.5
q0 -58 -32.5 -99t-58.5 -41q-12 0 -12 11q0 4 18 25.5t18 39.5q0 12 -21.5 33t-21.5 45t16 38z" />
    <glyph glyph-name="Ncaron" unicode="&#x147;" horiz-adv-x="753" 
d="M38 680q0 13 11 16.5t39 3.5h45q16 0 31 -16l451 -493l-1 389q0 22 -6 37.5t-13.5 22.5t-15.5 12.5t-13.5 11.5t-5.5 15q0 12 10.5 16.5t34.5 4.5h67q44 0 44 -21q0 -11 -8.5 -18.5t-18 -13t-18 -23t-8.5 -44.5v-549q0 -31 -25 -31q-22 0 -22 24q0 32 -26 62l-445 482
l2 -448q0 -27 8.5 -44.5t18.5 -23t18.5 -13t8.5 -18.5q0 -12 -10.5 -16.5t-34.5 -4.5h-68q-43 0 -43 21q0 11 8.5 18.5t18 13t18 23t8.5 44.5v443q0 38 -9.5 60t-20.5 27t-20.5 11.5t-9.5 18.5zM261 883h2q19 0 58 -15t61 -32q22 17 61 32t58 15h2q12 -1 12 -11v-3
q-1 -3 -3.5 -7t-8.5 -10.5t-11.5 -11.5t-14.5 -14l-16 -16q-8 -8 -18 -18.5t-14 -14.5t-10.5 -10t-9.5 -7.5t-8 -3.5t-9.5 -2.5t-10.5 -0.5q-7 0 -12.5 1.5t-9.5 3t-11 7.5t-11 10l-35 35q-6 7 -15 16l-26 26q-6 6 -8.5 10t-3.5 7v3q0 10 12 11z" />
    <glyph glyph-name="ncaron" unicode="&#x148;" horiz-adv-x="629" 
d="M50 431q0 9 5.5 14.5t23.5 13.5q55 26 82 28q20 0 20 -22l-1 -85q29 53 76.5 81.5t99.5 28.5q76 0 117.5 -48t60.5 -162l31 -176q4 -21 13 -35t18 -19.5t15.5 -13t6.5 -17.5q0 -19 -39 -19h-106q-40 0 -40 20q0 8 5.5 14t12.5 11t13.5 11.5t8.5 16.5t3 17q-1 8 -2 17
l-29 166q-6 37 -12 59t-19 47.5t-35 37.5t-55 12q-54 -1 -94 -48t-40 -133v-116q0 -33 7 -53t16 -26.5t16 -14.5t7 -19q0 -19 -39 -19h-107q-40 0 -40 20q0 11 7.5 18.5t17 14t17 26.5t7.5 53v201q0 57 -31 75q-18 11 -18 23zM212 700h2q17 0 47.5 -19.5t54.5 -44.5
q25 25 55.5 44.5t47.5 19.5h2q13 -1 13 -14q0 -4 -6.5 -13.5t-19.5 -28t-22 -31.5q-3 -5 -8.5 -13t-7.5 -11.5t-6 -9t-6 -7.5t-5 -5.5t-5.5 -4.5t-6 -2.5t-6.5 -2t-7.5 -1t-9.5 -0.5q-22 0 -33.5 10t-40.5 51q-44 57 -45 69q0 13 13 14z" />
    <glyph glyph-name="Omacron" unicode="&#x14c;" horiz-adv-x="772" 
d="M39 322q0 163 104.5 275.5t263.5 112.5q147 0 236 -94.5t89 -240.5q0 -167 -102 -276t-265 -109q-146 0 -236 93t-90 239zM207 147q76 -99 201 -99q109 0 170 79t61 191q0 141 -74.5 240t-195.5 99q-74 0 -129.5 -39.5t-82 -98t-26.5 -123.5q0 -150 76 -249zM241 800
q2 15 7.5 20t24.5 5h227q19 0 23 -4t4 -12q0 -4 -1 -8q-2 -15 -7.5 -20.5t-25.5 -5.5h-227q-19 0 -22.5 4t-3.5 12q0 4 1 9z" />
    <glyph glyph-name="omacron" unicode="&#x14d;" horiz-adv-x="566" 
d="M35 222q0 114 74.5 191t189.5 77q99 0 164.5 -68t65.5 -170q0 -112 -72.5 -187t-186.5 -75q-103 0 -169 63.5t-66 168.5zM176 105q49 -67 125 -67q63 0 100.5 45.5t37.5 118.5q0 96 -50.5 166.5t-124.5 70.5q-65 0 -101.5 -47.5t-36.5 -121.5q0 -99 50 -165zM138 580
q2 15 7.5 20t24.5 5h227q19 0 23 -4t4 -12q0 -4 -1 -8q-2 -15 -7.5 -20.5t-25.5 -5.5h-227q-19 0 -22.5 4t-3.5 12q0 4 1 9z" />
    <glyph glyph-name="Ohungarumlaut" unicode="&#x150;" horiz-adv-x="772" 
d="M39 322q0 163 104.5 275.5t263.5 112.5q147 0 236 -94.5t89 -240.5q0 -167 -102 -276t-265 -109q-146 0 -236 93t-90 239zM207 147q76 -99 201 -99q109 0 170 79t61 191q0 141 -74.5 240t-195.5 99q-74 0 -129.5 -39.5t-82 -98t-26.5 -123.5q0 -150 76 -249zM220 778
q0 14 70 70q50 39 67 42q4 1 8 1q17 0 30.5 -12t13.5 -26q0 -30 -57 -59t-99 -29q-33 0 -33 13zM412 778q1 14 74 66q55 39 75 39h1q17 -1 29.5 -13t12.5 -25v-2q-1 -30 -57.5 -55t-95.5 -25h-6q-33 2 -33 14v1z" />
    <glyph glyph-name="ohungarumlaut" unicode="&#x151;" horiz-adv-x="566" 
d="M110 413q74 77 189 77q99 0 164.5 -68t65.5 -170q0 -112 -72.5 -187t-186.5 -75q-103 0 -169 63.5t-66 168.5q0 114 75 191zM176 105q49 -67 125 -67q63 0 100.5 45.5t37.5 118.5q0 96 -50.5 166.5t-124.5 70.5q-65 0 -101.5 -47.5t-36.5 -121.5q0 -99 50 -165zM329 551
q0 11 39 77q16 24 22.5 33t18 18t22.5 9q15 0 26 -11t11 -29q0 -29 -45.5 -69.5t-77.5 -40.5q-9 0 -12.5 3.5t-3.5 7.5v2zM185 551q0 9 35 79q14 23 21 34t18 20t22 9q15 0 26.5 -11t11.5 -29q0 -30 -44 -72t-75 -42q-15 0 -15 12z" />
    <glyph glyph-name="OE" unicode="&#x152;" horiz-adv-x="1164" 
d="M144 598q104 112 263 112q151 0 241 -100v60q0 30 30 30l333 1q41 0 53.5 -5.5t18.5 -25.5q18 -54 25 -106q2 -8 2 -15q0 -18 -13 -22q-4 -1 -7 -1q-8 0 -15.5 6.5t-18.5 27.5q-25 49 -59.5 72t-86.5 23h-58q-65 0 -85.5 -8.5t-20.5 -29.5v-219h169q35 0 57 5t28.5 11
t13.5 11t16 5q18 0 26 -32l19 -84q5 -23 5 -34q0 -3 -1 -8.5t-13 -8.5q-2 -1 -4 -1q-9 0 -20.5 12t-23 30t-39 34t-64.5 16h-169v-271q0 -21 20.5 -29.5t85.5 -8.5l75 1q52 0 86.5 23t59.5 72q11 21 18.5 27.5t15.5 6.5q3 0 7 -1q13 -4 13 -22q0 -7 -2 -15q-7 -52 -25 -106
q-6 -20 -18.5 -25.5t-53.5 -5.5h-350q-30 0 -30 30v90q-104 -130 -283 -130q-146 0 -236 93t-90 239q0 163 105 276zM207 147q76 -99 201 -99q109 0 170 79t61 191q0 141 -74.5 240t-195.5 99q-74 0 -129.5 -39.5t-82 -98t-26.5 -123.5q0 -150 76 -249z" />
    <glyph glyph-name="oe" unicode="&#x153;" horiz-adv-x="921" 
d="M35 244q0 103 70 174.5t175 71.5q135 0 198 -108q74 108 207 108q80 0 132.5 -41t67.5 -108q1 -5 1 -9q0 -22 -24 -32q-139 -54 -330 -115q16 -50 60.5 -88.5t108.5 -38.5q91 0 158 71q9 9 17 9q4 0 9.5 -3t5.5 -12q0 -5 -3 -12q-19 -45 -78 -83t-145 -38q-128 0 -193 96
q-65 -96 -186 -96q-113 0 -182 72.5t-69 181.5zM179 105q47 -72 124 -72q63 0 95 45.5t35 113.5q-2 20 -2 31v16q-8 88 -51 148.5t-107 61.5q-58 0 -100 -41.5t-42 -129.5q0 -101 48 -173zM525 226q154 51 233 81q20 8 20 27q0 3 -1 7q-7 45 -43 73.5t-75 28.5h-5
q-63 -1 -99 -48.5t-36 -107.5q0 -41 6 -61z" />
    <glyph glyph-name="Racute" unicode="&#x154;" horiz-adv-x="655" 
d="M53 697q11 3 39 3h183q159 0 243 -66t84 -169q0 -147 -137 -202l88 -158q12 -21 27 -35.5t25.5 -19.5t17.5 -12t7 -18q0 -20 -39 -20h-108q-49 0 -49 23q0 9 12.5 20.5t15 18t2.5 10.5q0 12 -11 37l-74 132q-28 -4 -68 -4h-97q-20 0 -20 -20v-72q0 -39 9 -62.5
t19.5 -29.5t19.5 -13.5t9 -19.5q0 -20 -49 -20h-110q-50 0 -50 20q0 12 9.5 19.5t20.5 13.5t20.5 29.5t9.5 62.5v418q0 38 -9.5 60t-20.5 27t-20.5 11.5t-9.5 18.5q0 13 11 17zM194 629v-319q0 -10 7.5 -15.5t33 -9t74.5 -3.5q86 0 139 39.5t53 124.5q0 90 -61.5 149
t-166.5 60h-14q-37 0 -51 -5t-14 -21zM139 781q2 11 63 72q44 42 60 48q7 2 13 2q5 0 10 -1q16 -5 23.5 -17t7.5 -23q0 -6 -2 -13q-7 -33 -60 -60.5t-84 -27.5q-9 0 -16 2q-16 4 -16 14q0 2 1 4z" />
    <glyph glyph-name="racute" unicode="&#x155;" horiz-adv-x="442" 
d="M56 446q5 5 23 13q55 26 82 28q20 0 20 -22l-1 -81q24 46 62.5 76t81.5 30q38 0 58 -20t20 -49q0 -20 -11.5 -35t-28.5 -16q-21 0 -42 21.5t-44 21.5q-34 0 -60 -43t-26 -107v-131q0 -33 7 -53t16 -26.5t16 -14.5t7 -19q0 -19 -39 -19h-107q-40 0 -40 20q0 11 7.5 18.5
t17 14t17 26.5t7.5 53v201q0 57 -31 75q-18 11 -18 23q0 9 6 15zM195 567q6 13 68 70q24 20 34 27.5t22 12t20 4.5q6 0 11 -2q16 -6 21 -17.5t6 -20.5q-1 -9 -4 -18q-11 -31 -63.5 -54.5t-81.5 -23.5q-12 0 -22 4q-12 4 -12 13q0 2 1 5z" />
    <glyph glyph-name="uni0156" unicode="&#x156;" horiz-adv-x="655" 
d="M52 40q9 7 20 13t20.5 29.5t9.5 62.5v418q0 38 -9.5 60t-20.5 27t-20.5 11.5t-9.5 18.5q0 13 11 16.5t39 3.5h183q159 0 243 -66t84 -169q0 -147 -137 -202l88 -158q12 -21 27 -35.5t25.5 -19.5t17.5 -12t7 -18q0 -20 -39 -20h-108q-49 0 -49 23q0 9 12.5 20.5t15 18
t2.5 10.5q0 12 -11 37l-74 132q-28 -4 -68 -4h-97q-20 0 -20 -20v-72q0 -39 9 -62.5t19.5 -29.5t19.5 -13.5t9 -19.5q0 -20 -49 -20h-110q-50 0 -50 20q0 12 10 20zM194 310q0 -10 7.5 -15.5t33 -9t74.5 -3.5q86 0 139 39.5t53 124.5q0 90 -61.5 149t-166.5 60h-14
q-37 0 -51 -5t-14 -21v-319zM234 -69q15 15 35 15q25 0 42 -16.5t17 -50.5q0 -58 -32.5 -99t-58.5 -41q-12 0 -12 11q0 4 18 25.5t18 39.5q0 12 -21.5 33t-21.5 45t16 38z" />
    <glyph glyph-name="uni0157" unicode="&#x157;" horiz-adv-x="442" 
d="M58 39q7 7 16.5 13.5t17 26.5t7.5 53v201q0 57 -31 75q-18 11 -18 23q0 9 5.5 14.5t23.5 13.5q55 26 82 28q20 0 20 -22l-1 -81q24 46 62.5 76t81.5 30q38 0 58 -20t20 -49q0 -20 -11.5 -35t-28.5 -16q-21 0 -42 21.5t-44 21.5q-34 0 -60 -43t-26 -107v-131q0 -33 7 -53
t16 -26.5t16 -14.5t7 -19q0 -19 -39 -19h-107q-40 0 -40 20q0 11 8 19zM127 -69q15 15 35 15q25 0 42 -16.5t17 -50.5q0 -58 -32.5 -99t-58.5 -41q-12 0 -12 11q0 4 18 25.5t18 39.5q0 12 -21.5 33t-21.5 45t16 38z" />
    <glyph glyph-name="Rcaron" unicode="&#x158;" horiz-adv-x="655" 
d="M52 40q9 7 20 13t20.5 29.5t9.5 62.5v418q0 38 -9.5 60t-20.5 27t-20.5 11.5t-9.5 18.5q0 13 11 16.5t39 3.5h183q159 0 243 -66t84 -169q0 -147 -137 -202l88 -158q12 -21 27 -35.5t25.5 -19.5t17.5 -12t7 -18q0 -20 -39 -20h-108q-49 0 -49 23q0 9 12.5 20.5t15 18
t2.5 10.5q0 12 -11 37l-74 132q-28 -4 -68 -4h-97q-20 0 -20 -20v-72q0 -39 9 -62.5t19.5 -29.5t19.5 -13.5t9 -19.5q0 -20 -49 -20h-110q-50 0 -50 20q0 12 10 20zM194 629v-319q0 -10 7.5 -15.5t33 -9t74.5 -3.5q86 0 139 39.5t53 124.5q0 90 -61.5 149t-166.5 60h-14
q-37 0 -51 -5t-14 -21zM75 883h2q19 0 58 -15t61 -32q22 17 61 32t58 15h2q12 -1 12 -11v-3q-1 -3 -3.5 -7t-8.5 -10.5t-11.5 -11.5t-14.5 -14l-16 -16q-8 -8 -18 -18.5t-14 -14.5t-10.5 -10t-9.5 -7.5t-8 -3.5t-9.5 -2.5t-10.5 -0.5q-7 0 -12.5 1.5t-9.5 3t-11 7.5t-11 10
l-35 35q-6 7 -15 16l-26 26q-6 6 -8.5 10t-3.5 7v3q0 10 12 11z" />
    <glyph glyph-name="rcaron" unicode="&#x159;" horiz-adv-x="442" 
d="M58 39q7 7 16.5 13.5t17 26.5t7.5 53v201q0 57 -31 75q-18 11 -18 23q0 9 5.5 14.5t23.5 13.5q55 26 82 28q20 0 20 -22l-1 -81q24 46 62.5 76t81.5 30q38 0 58 -20t20 -49q0 -20 -11.5 -35t-28.5 -16q-21 0 -42 21.5t-44 21.5q-34 0 -60 -43t-26 -107v-131q0 -33 7 -53
t16 -26.5t16 -14.5t7 -19q0 -19 -39 -19h-107q-40 0 -40 20q0 11 8 19zM167 703h2q17 0 47.5 -19.5t54.5 -44.5q25 25 55.5 44.5t47.5 19.5h2q13 -1 13 -14q0 -4 -6.5 -13.5t-19.5 -28t-22 -31.5q-3 -5 -8.5 -13t-7.5 -11.5t-6 -9t-6 -7.5t-5 -5.5t-5.5 -4.5t-6 -2.5
t-6.5 -2t-7.5 -1t-9.5 -0.5q-22 0 -33.5 10t-40.5 51q-44 57 -45 69q0 13 13 14z" />
    <glyph glyph-name="Sacute" unicode="&#x15a;" horiz-adv-x="581" 
d="M68 221q20 0 37 -34q64 -148 200 -149q69 0 105.5 34.5t38.5 85.5v6q0 12 -3.5 25t-8.5 23.5t-18.5 22t-21.5 18.5t-28 17.5t-28.5 15t-33 15.5t-31.5 15q-7 3 -30 14t-31 15t-28.5 15t-28.5 17t-24 17.5t-23.5 20.5t-18 22.5t-15 26.5t-8 29.5t-3.5 34.5q0 74 62.5 127
t172.5 53q24 0 60 -5.5t48 -5.5t25 5.5t20 5.5q14 0 20 -10t14 -43q17 -71 24 -113q1 -6 1 -11q0 -22 -17 -22q-20 0 -39 32q-75 120 -178 120q-60 0 -92.5 -29.5t-32.5 -76.5q0 -13 2 -24t8.5 -21t11.5 -17.5t17 -16.5t19 -14.5t24.5 -14.5t25.5 -13.5t29.5 -15t30.5 -14.5
q10 -5 44.5 -21t46.5 -22.5t39 -22t38 -27.5t26 -30t21 -39t7 -46v-7q0 -87 -72.5 -142.5t-176.5 -56.5q-44 0 -88 6.5t-53 6.5q-12 0 -25 -6t-20 -6q-15 0 -23 12t-13 43q-16 87 -22 140v9q0 26 17 26zM227 790q2 11 63 72q44 42 60 48q7 2 13 2q5 0 10 -1q16 -5 23.5 -17
t7.5 -23q0 -6 -2 -13q-7 -33 -60 -60.5t-84 -27.5q-9 0 -16 2q-16 4 -16 14q0 2 1 4z" />
    <glyph glyph-name="sacute" unicode="&#x15b;" horiz-adv-x="475" 
d="M52 157q2 1 5 1q12 0 29 -19q55 -59 98 -81t88 -22q36 0 60 17t24 49q0 30 -33 52t-104 51q-41 16 -64.5 27t-51 29.5t-40 42t-12.5 52.5q0 64 48 99t111 35q31 0 67 -6t44 -6h2q8 0 16.5 6t14.5 6q12 0 27 -26q3 -5 4 -7q15 -28 31 -64q4 -11 4 -19q0 -11 -8 -16
q-7 -1 -8.5 -2t-2.5 -1q-3 0 -10 4.5t-10.5 7.5t-14 11.5t-18.5 14.5q-71 53 -135 53q-39 0 -61.5 -17.5t-22.5 -44.5q0 -31 30.5 -51.5t108.5 -51.5q86 -34 130 -67t44 -84q0 -57 -51 -98.5t-131 -41.5q-39 0 -75.5 9.5t-40.5 9.5q-8 0 -18.5 -9.5t-19.5 -9.5
q-10 0 -14 5.5t-14 28.5q-26 69 -37 106q-1 5 -1 9q0 13 12 18zM155 564q6 13 68 70q24 20 34 27.5t22 12t20 4.5q6 0 11 -2q16 -6 21 -17.5t6 -20.5q-1 -9 -4 -18q-11 -31 -63.5 -54.5t-81.5 -23.5q-12 0 -22 4q-12 4 -12 13q0 2 1 5z" />
    <glyph glyph-name="Scedilla" unicode="&#x15e;" horiz-adv-x="581" 
d="M68 221q20 0 37 -34q64 -148 200 -149q69 0 105.5 34.5t38.5 85.5v6q0 12 -3.5 25t-8.5 23.5t-18.5 22t-21.5 18.5t-28 17.5t-28.5 15t-33 15.5t-31.5 15q-7 3 -30 14t-31 15t-28.5 15t-28.5 17t-24 17.5t-23.5 20.5t-18 22.5t-15 26.5t-8 29.5t-3.5 34.5q0 74 62.5 127
t172.5 53q24 0 60 -5.5t48 -5.5t25 5.5t20 5.5q14 0 20 -10t14 -43q17 -71 24 -113q1 -6 1 -11q0 -22 -17 -22q-20 0 -39 32q-75 120 -178 120q-60 0 -92.5 -29.5t-32.5 -76.5q0 -13 2 -24t8.5 -21t11.5 -17.5t17 -16.5t19 -14.5t24.5 -14.5t25.5 -13.5t29.5 -15t30.5 -14.5
q10 -5 44.5 -21t46.5 -22.5t39 -22t38 -27.5t26 -30t21 -39t7 -46v-7q0 -84 -68.5 -139.5t-169.5 -59.5l-22 -43q92 -17 92 -79q0 -35 -27 -57t-65 -22q-55 0 -81 32q-4 4 -4 8t3.5 7.5t7.5 3.5t9 -3q30 -17 54 -17q22 0 34 12t12 30q0 38 -68 54q-14 3 -14 11q0 3 2 6
l31 57q-32 2 -68.5 7.5t-47.5 5.5q-12 0 -25 -6t-20 -6q-15 0 -23 12t-13 43q-16 87 -22 140v9q0 26 17 26z" />
    <glyph glyph-name="scedilla" unicode="&#x15f;" horiz-adv-x="475" 
d="M52 157q2 1 5 1q12 0 29 -19q55 -59 98 -81t88 -22q36 0 60 17t24 49q0 30 -33 52t-104 51q-41 16 -64.5 27t-51 29.5t-40 42t-12.5 52.5q0 64 48 99t111 35q31 0 67 -6t44 -6h2q8 0 16.5 6t14.5 6q12 0 27 -26q3 -5 4 -7q15 -28 31 -64q4 -11 4 -19q0 -11 -8 -16
q-7 -1 -8.5 -2t-2.5 -1q-3 0 -10 4.5t-10.5 7.5t-14 11.5t-18.5 14.5q-71 53 -135 53q-39 0 -61.5 -17.5t-22.5 -44.5q0 -31 30.5 -51.5t108.5 -51.5q86 -34 130 -67t44 -84q0 -57 -51 -98.5t-131 -41.5h-13l-22 -43q92 -17 92 -79q0 -35 -27 -57t-65 -22q-55 0 -81 32
q-4 4 -4 8t3.5 7.5t7.5 3.5t9 -3q30 -17 54 -17q22 0 34 12t12 30q0 38 -68 54q-14 3 -14 11q0 3 2 6l33 61q-18 3 -40 9t-29 6q-8 0 -18.5 -9.5t-19.5 -9.5q-10 0 -14 5.5t-14 28.5q-26 69 -37 106q-1 5 -1 9q0 13 12 18z" />
    <glyph glyph-name="Scaron" unicode="&#x160;" horiz-adv-x="581" 
d="M68 221q20 0 37 -34q64 -148 200 -149q69 0 105.5 34.5t38.5 85.5v6q0 12 -3.5 25t-8.5 23.5t-18.5 22t-21.5 18.5t-28 17.5t-28.5 15t-33 15.5t-31.5 15q-7 3 -30 14t-31 15t-28.5 15t-28.5 17t-24 17.5t-23.5 20.5t-18 22.5t-15 26.5t-8 29.5t-3.5 34.5q0 74 62.5 127
t172.5 53q24 0 60 -5.5t48 -5.5t25 5.5t20 5.5q14 0 20 -10t14 -43q17 -71 24 -113q1 -6 1 -11q0 -22 -17 -22q-20 0 -39 32q-75 120 -178 120q-60 0 -92.5 -29.5t-32.5 -76.5q0 -13 2 -24t8.5 -21t11.5 -17.5t17 -16.5t19 -14.5t24.5 -14.5t25.5 -13.5t29.5 -15t30.5 -14.5
q10 -5 44.5 -21t46.5 -22.5t39 -22t38 -27.5t26 -30t21 -39t7 -46v-7q0 -87 -72.5 -142.5t-176.5 -56.5q-44 0 -88 6.5t-53 6.5q-12 0 -25 -6t-20 -6q-15 0 -23 12t-13 43q-16 87 -22 140v9q0 26 17 26zM163 892h2q19 0 58 -15t61 -32q22 17 61 32t58 15h2q12 -1 12 -11v-3
q-1 -3 -3.5 -7t-8.5 -10.5t-11.5 -11.5t-14.5 -14l-16 -16q-8 -8 -18 -18.5t-14 -14.5t-10.5 -10t-9.5 -7.5t-8 -3.5t-9.5 -2.5t-10.5 -0.5q-7 0 -12.5 1.5t-9.5 3t-11 7.5t-11 10l-35 35q-6 7 -15 16l-26 26q-6 6 -8.5 10t-3.5 7v3q0 10 12 11z" />
    <glyph glyph-name="scaron" unicode="&#x161;" horiz-adv-x="475" 
d="M52 157q2 1 5 1q12 0 29 -19q55 -59 98 -81t88 -22q36 0 60 17t24 49q0 30 -33 52t-104 51q-41 16 -64.5 27t-51 29.5t-40 42t-12.5 52.5q0 64 48 99t111 35q31 0 67 -6t44 -6h2q8 0 16.5 6t14.5 6q12 0 27 -26q3 -5 4 -7q15 -28 31 -64q4 -11 4 -19q0 -11 -8 -16
q-7 -1 -8.5 -2t-2.5 -1q-3 0 -10 4.5t-10.5 7.5t-14 11.5t-18.5 14.5q-71 53 -135 53q-39 0 -61.5 -17.5t-22.5 -44.5q0 -31 30.5 -51.5t108.5 -51.5q86 -34 130 -67t44 -84q0 -57 -51 -98.5t-131 -41.5q-39 0 -75.5 9.5t-40.5 9.5q-8 0 -18.5 -9.5t-19.5 -9.5
q-10 0 -14 5.5t-14 28.5q-26 69 -37 106q-1 5 -1 9q0 13 12 18zM114 686q0 13 13 14h2q17 0 47.5 -19.5t54.5 -44.5q25 25 55.5 44.5t47.5 19.5h2q13 -1 13 -14q0 -4 -6.5 -13.5t-19.5 -28t-22 -31.5q-3 -5 -8.5 -13t-7.5 -11.5t-6 -9t-6 -7.5t-5 -5.5t-5.5 -4.5t-6 -2.5
t-6.5 -2t-7.5 -1t-9.5 -0.5q-22 0 -33.5 10t-40.5 51q-44 57 -45 69z" />
    <glyph glyph-name="uni0162" unicode="&#x162;" horiz-adv-x="637" 
d="M36 558q1 66 13 107q5 20 20.5 27.5t60.5 7.5l377 1q45 0 60.5 -7.5t20.5 -27.5q12 -41 13 -107v-5q0 -29 -20 -29q-17 0 -37 39q-16 30 -23.5 42t-22 26.5t-33 19t-47.5 4.5t-41 -11.5t-12 -38.5v-461q0 -39 9 -62.5t19.5 -29.5t19.5 -13.5t9 -19.5q0 -20 -49 -20h-29
l-27 -53q92 -17 92 -79q0 -35 -27 -57t-65 -22q-55 0 -81 32q-4 4 -4 8t3.5 7.5t7.5 3.5t9 -3q30 -17 54 -17q22 0 34 12t12 30q0 38 -68 54q-14 3 -14 11q0 3 2 6l36 67h-46q-49 0 -49 20q0 10 6 16t14.5 11.5t17.5 14.5t15 30t6 53v460q0 27 -12 38.5t-41 11.5
q-54 0 -75.5 -18.5t-50.5 -72.5q-12 -22 -19.5 -31t-17.5 -9q-20 0 -20 29v5z" />
    <glyph glyph-name="uni0163" unicode="&#x163;" horiz-adv-x="354" 
d="M17 454q0 11 9 21q45 51 107 98q15 10 27 10q16 0 16 -19v-5q-3 -27 -4 -79h100q11 0 16 -1t8 -6t3 -11q0 -3 -1 -7q-6 -26 -34 -26h-4l-89 3l-4 -270v-13q0 -44 13 -67.5t52 -23.5t76 33q7 6 13 6q4 0 9 -3.5t5 -10.5q0 -4 -2 -9q-13 -31 -48 -57.5t-86 -26.5
q-9 0 -25 2l-23 -45q92 -17 92 -79q0 -35 -27 -57t-65 -22q-55 0 -81 32q-4 4 -4 8t3.5 7.5t7.5 3.5t9 -3q30 -17 54 -17q22 0 34 12t12 30q0 38 -68 54q-14 3 -14 11q0 3 2 6l36 67h2q-65 28 -65 132v30q0 189 4 272h-38q-28 0 -28 20z" />
    <glyph glyph-name="Tcaron" unicode="&#x164;" horiz-adv-x="637" 
d="M36 558q1 66 13 107q5 20 20.5 27.5t60.5 7.5l377 1q45 0 60.5 -7.5t20.5 -27.5q12 -41 13 -107v-5q0 -29 -20 -29q-17 0 -37 39q-16 30 -23.5 42t-22 26.5t-33 19t-47.5 4.5t-41 -11.5t-12 -38.5v-461q0 -39 9 -62.5t19.5 -29.5t19.5 -13.5t9 -19.5q0 -20 -49 -20h-111
q-49 0 -49 20q0 10 6 16t14.5 11.5t17.5 14.5t15 30t6 53v460q0 27 -12 38.5t-41 11.5q-54 0 -75.5 -18.5t-50.5 -72.5q-12 -22 -19.5 -31t-17.5 -9q-20 0 -20 29v5zM212 883h2q19 0 58 -15t61 -32q22 17 61 32t58 15h2q12 -1 12 -11v-3q-1 -3 -3.5 -7t-8.5 -10.5
t-11.5 -11.5t-14.5 -14l-16 -16q-8 -8 -18 -18.5t-14 -14.5t-10.5 -10t-9.5 -7.5t-8 -3.5t-9.5 -2.5t-10.5 -0.5q-7 0 -12.5 1.5t-9.5 3t-11 7.5t-11 10l-35 35q-6 7 -15 16l-26 26q-6 6 -8.5 10t-3.5 7v3q0 10 12 11z" />
    <glyph glyph-name="tcaron" unicode="&#x165;" horiz-adv-x="354" 
d="M26 475q45 51 107 98q15 10 27 10q16 0 16 -19v-5q-3 -27 -4 -79h100q11 0 16 -1t8 -6t3 -11q0 -3 -1 -7q-6 -26 -34 -26h-4l-89 3l-4 -270v-13q0 -44 13 -67.5t52 -23.5t76 33q7 6 13 6q4 0 9 -3.5t5 -10.5q0 -4 -2 -9q-13 -31 -48 -57.5t-86 -26.5q-120 0 -120 142v30
q0 189 4 272h-38q-28 0 -28 20q0 11 9 21zM266 530l13 151q3 48 42 48q16 0 27 -11t11 -33q0 -31 -30.5 -101.5t-49.5 -70.5q-13 0 -13 12v5z" />
    <glyph glyph-name="Tbar" unicode="&#x166;" horiz-adv-x="637" 
d="M36 558q1 66 13 107q5 20 20.5 27.5t60.5 7.5l377 1q45 0 60.5 -7.5t20.5 -27.5q12 -41 13 -107v-5q0 -29 -20 -29q-17 0 -37 39q-16 30 -23.5 42t-22 26.5t-33 19t-47.5 4.5t-41 -11.5t-12 -38.5v-235h63q26 0 26 -22q0 -12 -5 -17.5t-21 -5.5h-63v-181q0 -39 9 -62.5
t19.5 -29.5t19.5 -13.5t9 -19.5q0 -20 -49 -20h-111q-49 0 -49 20q0 10 6 16t14.5 11.5t17.5 14.5t15 30t6 53v181h-60q-16 0 -21 5.5t-5 17.5q0 22 26 22h60v234q0 27 -12 38.5t-41 11.5q-54 0 -75.5 -18.5t-50.5 -72.5q-12 -22 -19.5 -31t-17.5 -9q-20 0 -20 29v5z" />
    <glyph glyph-name="tbar" unicode="&#x167;" horiz-adv-x="354" 
d="M17 454q0 11 9 21q45 51 107 98q15 10 27 10q16 0 16 -19v-5q-3 -27 -4 -79h100q11 0 16 -1t8 -6t3 -11q0 -3 -1 -7q-6 -26 -34 -26h-4l-89 3q0 -12 -0.5 -45.5t-0.5 -55.5h56q19 0 19 -20q0 -21 -19 -21h-57q-1 -20 -1.5 -63t-0.5 -65v-13q0 -44 13 -67.5t52 -23.5
t76 33q7 6 13 6q4 0 9 -3.5t5 -10.5q0 -4 -2 -9q-13 -31 -48 -57.5t-86 -26.5q-120 0 -120 142v30q0 89 1 128h-43q-19 0 -19 21q0 20 19 20h43l3 103h-38q-28 0 -28 20z" />
    <glyph glyph-name="Umacron" unicode="&#x16a;" horiz-adv-x="717" 
d="M52 694q11 4 39 4h110q50 0 50 -20q0 -12 -9.5 -19.5t-20.5 -13.5t-20.5 -29.5t-9.5 -61.5v-293q0 -105 52 -161.5t145 -56.5q94 0 146 63.5t52 163.5l-2 310q0 27 -8.5 44.5t-18 23t-18 13t-8.5 18.5q0 12 10.5 16.5t34.5 4.5h67q44 0 44 -21q0 -9 -5.5 -15t-13.5 -11.5
t-15.5 -12.5t-13.5 -22.5t-6 -37.5v-296q0 -137 -66 -215.5t-199 -78.5q-127 0 -198 76.5t-71 210.5v277q0 38 -9 61.5t-20 29.5t-20 13.5t-9 19.5t11 16zM265 800q2 15 7.5 20t24.5 5h227q19 0 23 -4t4 -12q0 -4 -1 -8q-2 -15 -7.5 -20.5t-25.5 -5.5h-227q-19 0 -22.5 4
t-3.5 12q0 4 1 9z" />
    <glyph glyph-name="umacron" unicode="&#x16b;" horiz-adv-x="595" 
d="M56 444q5 5 23 13q65 31 93 33h3q17 0 17 -22l-1 -138v-131q0 -149 102 -149h4q52 1 96 45.5t44 113.5v121q0 30 -8 48.5t-17 23.5t-17 12t-8 17q0 8 5.5 13t23.5 13q65 31 93 33h3q17 0 17 -22l-1 -138v-199q0 -26 9 -40.5t20.5 -18t20.5 -9t9 -14.5q0 -16 -25 -29
q-52 -30 -89 -30q-32 0 -34 52l-1 41q-32 -44 -78.5 -68.5t-90.5 -24.5q-78 0 -123.5 49.5t-45.5 149.5v141q0 30 -8 48.5t-17 23.5t-17 12t-8 17q0 8 6 13zM190 580q2 15 7.5 20t24.5 5h227q19 0 23 -4t4 -12q0 -4 -1 -8q-2 -15 -7.5 -20.5t-25.5 -5.5h-227q-19 0 -22.5 4
t-3.5 12q0 4 1 9z" />
    <glyph glyph-name="Uring" unicode="&#x16e;" horiz-adv-x="717" 
d="M41 678q0 12 11 16t39 4h110q50 0 50 -20q0 -12 -9.5 -19.5t-20.5 -13.5t-20.5 -29.5t-9.5 -61.5v-293q0 -105 52 -161.5t145 -56.5q94 0 146 63.5t52 163.5l-2 310q0 27 -8.5 44.5t-18 23t-18 13t-8.5 18.5q0 12 10.5 16.5t34.5 4.5h67q44 0 44 -21q0 -9 -5.5 -15
t-13.5 -11.5t-15.5 -12.5t-13.5 -22.5t-6 -37.5v-296q0 -137 -66 -215.5t-199 -78.5q-127 0 -198 76.5t-71 210.5v277q0 38 -9 61.5t-20 29.5t-20 13.5t-9 19.5zM316 842q0 41 28.5 67t70.5 26q41 0 68 -25t27 -65q0 -42 -28.5 -67.5t-70.5 -25.5q-41 0 -68 25t-27 65z
M362 843q3 -23 18 -37.5t36 -14.5q23 0 35 15.5t12 34.5v6q-3 22 -17 36.5t-35 14.5q-24 0 -36.5 -14.5t-12.5 -34.5v-6z" />
    <glyph glyph-name="uring" unicode="&#x16f;" horiz-adv-x="595" 
d="M50 431q0 8 5.5 13t23.5 13q65 31 93 33h3q17 0 17 -22l-1 -138v-131q0 -149 102 -149h4q52 1 96 45.5t44 113.5v121q0 30 -8 48.5t-17 23.5t-17 12t-8 17q0 8 5.5 13t23.5 13q65 31 93 33h3q17 0 17 -22l-1 -138v-199q0 -26 9 -40.5t20.5 -18t20.5 -9t9 -14.5
q0 -16 -25 -29q-52 -30 -89 -30q-32 0 -34 52l-1 41q-32 -44 -78.5 -68.5t-90.5 -24.5q-78 0 -123.5 49.5t-45.5 149.5v141q0 30 -8 48.5t-17 23.5t-17 12t-8 17zM240 622q0 41 28.5 67t70.5 26q41 0 68 -25t27 -65q0 -42 -28.5 -67.5t-70.5 -25.5q-41 0 -68 25t-27 65z
M286 623q3 -23 18 -37.5t36 -14.5q23 0 35 15.5t12 34.5v6q-3 22 -17 36.5t-35 14.5q-24 0 -36.5 -14.5t-12.5 -34.5v-6z" />
    <glyph glyph-name="Uhungarumlaut" unicode="&#x170;" horiz-adv-x="717" 
d="M41 678q0 12 11 16t39 4h110q50 0 50 -20q0 -12 -9.5 -19.5t-20.5 -13.5t-20.5 -29.5t-9.5 -61.5v-293q0 -105 52 -161.5t145 -56.5q94 0 146 63.5t52 163.5l-2 310q0 27 -8.5 44.5t-18 23t-18 13t-8.5 18.5q0 12 10.5 16.5t34.5 4.5h67q44 0 44 -21q0 -9 -5.5 -15
t-13.5 -11.5t-15.5 -12.5t-13.5 -22.5t-6 -37.5v-296q0 -137 -66 -215.5t-199 -78.5q-127 0 -198 76.5t-71 210.5v277q0 38 -9 61.5t-20 29.5t-20 13.5t-9 19.5zM244 778q0 14 70 70q50 39 67 42q4 1 8 1q17 0 30.5 -12t13.5 -26q0 -30 -57 -59t-99 -29q-33 0 -33 13z
M436 778q1 14 74 66q55 39 75 39h1q17 -1 29.5 -13t12.5 -25v-2q-1 -30 -57.5 -55t-95.5 -25h-6q-33 2 -33 14v1z" />
    <glyph glyph-name="uhungarumlaut" unicode="&#x171;" horiz-adv-x="595" 
d="M50 431q0 8 5.5 13t23.5 13q65 31 93 33h3q17 0 17 -22l-1 -138v-131q0 -149 102 -149h4q52 1 96 45.5t44 113.5v121q0 30 -8 48.5t-17 23.5t-17 12t-8 17q0 8 5.5 13t23.5 13q65 31 93 33h3q17 0 17 -22l-1 -138v-199q0 -26 9 -40.5t20.5 -18t20.5 -9t9 -14.5
q0 -16 -25 -29q-52 -30 -89 -30q-32 0 -34 52l-1 41q-32 -44 -78.5 -68.5t-90.5 -24.5q-78 0 -123.5 49.5t-45.5 149.5v141q0 30 -8 48.5t-17 23.5t-17 12t-8 17zM381 551q0 11 39 77q16 24 22.5 33t18 18t22.5 9q15 0 26 -11t11 -29q0 -29 -45.5 -69.5t-77.5 -40.5
q-9 0 -12.5 3.5t-3.5 7.5v2zM237 551q0 9 35 79q14 23 21 34t18 20t22 9q15 0 26.5 -11t11.5 -29q0 -30 -44 -72t-75 -42q-15 0 -15 12z" />
    <glyph glyph-name="Uogonek" unicode="&#x172;" horiz-adv-x="717" 
d="M52 694q11 4 39 4h110q50 0 50 -20q0 -12 -9.5 -19.5t-20.5 -13.5t-20.5 -29.5t-9.5 -61.5v-293q0 -105 52 -161.5t145 -56.5q94 0 146 63.5t52 163.5l-2 310q0 27 -8.5 44.5t-18 23t-18 13t-8.5 18.5q0 12 10.5 16.5t34.5 4.5h67q44 0 44 -21q0 -9 -5.5 -15t-13.5 -11.5
t-15.5 -12.5t-13.5 -22.5t-6 -37.5v-296q0 -113 -45 -187t-136 -97q-47 -48 -47 -92q0 -25 15 -39.5t43 -14.5q19 0 41 9q6 3 10 3q6 0 8 -4t2 -6q0 -6 -6 -11q-29 -28 -79 -28q-41 0 -69 21t-28 58q0 50 63 96q-24 -2 -37 -2q-127 0 -198 76.5t-71 210.5v277q0 38 -9 61.5
t-20 29.5t-20 13.5t-9 19.5t11 16z" />
    <glyph glyph-name="uogonek" unicode="&#x173;" horiz-adv-x="595" 
d="M50 431q0 8 5.5 13t23.5 13q65 31 93 33h3q17 0 17 -22l-1 -138v-131q0 -149 102 -149h4q52 1 96 45.5t44 113.5v121q0 30 -8 48.5t-17 23.5t-17 12t-8 17q0 8 5.5 13t23.5 13q65 31 93 33h3q17 0 17 -22l-1 -138v-199q0 -26 9 -40.5t20.5 -18t20.5 -9t9 -14.5
q0 -16 -25 -29q-5 -3 -17 -9q-54 -53 -54 -99q0 -25 15 -39.5t43 -14.5q19 0 41 9q6 3 10 3q6 0 8 -4t2 -6q0 -6 -6 -11q-29 -28 -79 -28q-41 0 -69 21t-28 58q0 47 57 91q-5 -1 -12 -1q-32 0 -34 52l-1 41q-32 -44 -78.5 -68.5t-90.5 -24.5q-78 0 -123.5 49.5t-45.5 149.5
v141q0 30 -8 48.5t-17 23.5t-17 12t-8 17z" />
    <glyph glyph-name="Wcircumflex" unicode="&#x174;" horiz-adv-x="1035" 
d="M3 679q0 12 10.5 16.5t36.5 4.5h116q40 0 40 -19q0 -11 -14 -22.5t-19 -20.5t-5 -19q0 -14 6 -38l165 -486l154 457l-10 29q-9 28 -22.5 45.5t-23.5 23t-17.5 12.5t-7.5 17q0 21 47 21h116q41 0 41 -19q0 -11 -14.5 -22.5t-19.5 -20.5t-5 -19q0 -14 6 -38l164 -485
l161 485q7 28 7 43q0 8 -4 16.5t-17 18.5t-13 20q0 21 36 21h82q41 0 41 -19q0 -11 -8.5 -18t-20.5 -12t-26.5 -23t-24.5 -47l-190 -558q-7 -20 -40 -26q-11 -2 -20 -2q-21 0 -27 14l-165 473l-156 -459q-6 -19 -40 -26q-11 -2 -20 -2q-22 0 -26 14l-201 572
q-10 28 -23.5 45.5t-23.5 23t-17.5 12.5t-7.5 17zM373 766q1 7 53 59l31 31q4 4 10.5 10t9.5 8t8 4.5t9.5 3t10.5 0.5t10 -0.5t7.5 -1t8 -3.5t7 -4.5t8.5 -7.5t10 -9.5t13 -13t16 -16.5q6 -7 15.5 -16t15 -14.5t11 -12t8.5 -10.5t4 -7v-3q0 -9 -12 -10h-2q-19 0 -57.5 15
t-61.5 31q-23 -16 -61.5 -31t-57.5 -15h-2q-12 1 -12 10v3z" />
    <glyph glyph-name="wcircumflex" unicode="&#x175;" horiz-adv-x="830" 
d="M13 459q0 20 39 20h112q40 0 40 -20q0 -9 -14.5 -20t-19 -20t-4.5 -17q0 -15 9 -43l100 -251l132 358q6 15 25 20q6 1 10 1q15 0 20 -12l135 -370l107 256q10 31 10 47q0 4 -2.5 12.5t-15 19.5t-12.5 20q0 19 39 19h57q39 0 39 -19q0 -9 -6.5 -16t-15.5 -13.5t-22.5 -25
t-24.5 -44.5l-143 -341q-8 -18 -34 -23q-10 -2 -17 -2q-17 0 -20 11l-123 347l-124 -333q-6 -18 -34 -23q-10 -2 -17 -2q-17 0 -21 11l-138 353q-10 27 -23 45t-22 25t-15 14.5t-6 15.5zM329 553q1 12 45 69q29 41 40.5 51t33.5 10q5 0 9.5 -0.5t7.5 -1t6.5 -2t6 -2.5
t5.5 -4.5t5 -5.5t6 -7.5t6 -9t7.5 -11.5t8.5 -13q9 -13 22 -31.5t19.5 -28t6.5 -13.5q0 -13 -13 -14h-2q-17 0 -47.5 20t-55.5 45q-24 -25 -54.5 -45t-47.5 -20h-2q-13 1 -13 14z" />
    <glyph glyph-name="Ycircumflex" unicode="&#x176;" horiz-adv-x="662" 
d="M5 679q0 12 10.5 16.5t36.5 4.5h139q40 0 40 -19q0 -11 -15.5 -23t-18 -18.5t-2.5 -9.5q0 -13 16 -43l152 -225l145 234q15 23 16 31.5t1 11.5q0 9 -5 13t-12 11t-7 16q0 21 37 21h80q42 0 42 -19q0 -11 -9 -17.5t-22 -11t-31.5 -19t-33.5 -37.5l-183 -287v-164
q0 -32 6 -53t14.5 -30t17 -14.5t14.5 -11.5t6 -16q0 -20 -50 -20h-110q-49 0 -49 20q0 10 6 16t14.5 11.5t17.5 14.5t15 30t6 53v165l-192 278q-17 24 -35.5 40t-30 21.5t-19 12.5t-7.5 17zM229 766q1 7 53 59l31 31q4 4 10.5 10t9.5 8t8 4.5t9.5 3t10.5 0.5t10 -0.5t7.5 -1
t8 -3.5t7 -4.5t8.5 -7.5t10 -9.5t13 -13t16 -16.5q6 -7 15.5 -16t15 -14.5t11 -12t8.5 -10.5t4 -7v-3q0 -9 -12 -10h-2q-19 0 -57.5 15t-61.5 31q-23 -16 -61.5 -31t-57.5 -15h-2q-12 1 -12 10v3z" />
    <glyph glyph-name="ycircumflex" unicode="&#x177;" horiz-adv-x="533" 
d="M61 480h112q39 0 39 -19q0 -9 -14 -20t-18.5 -20t-4.5 -17q0 -15 9 -43l113 -290l113 290q9 30 9 46q0 6 -3 14.5t-15 19.5t-12 20q0 19 39 19h55q39 0 39 -19q0 -8 -6.5 -15.5t-15.5 -14.5t-22 -25t-23 -45l-132 -340q-48 -125 -73 -162q-47 -68 -124 -69
q-43 0 -68.5 21t-25.5 49q0 21 13 36.5t33 16.5q14 0 26 -9t20.5 -20.5t21.5 -21t28 -9.5q25 0 42.5 34t17.5 75q0 32 -19 78l-127 321q-10 27 -23 45t-22 25t-15 14.5t-6 15.5q0 19 39 19zM152 553q1 12 45 69q29 41 40.5 51t33.5 10q5 0 9.5 -0.5t7.5 -1t6.5 -2t6 -2.5
t5.5 -4.5t5 -5.5t6 -7.5t6 -9t7.5 -11.5t8.5 -13q9 -13 22 -31.5t19.5 -28t6.5 -13.5q0 -13 -13 -14h-2q-17 0 -47.5 20t-55.5 45q-24 -25 -54.5 -45t-47.5 -20h-2q-13 1 -13 14z" />
    <glyph glyph-name="Ydieresis" unicode="&#x178;" horiz-adv-x="662" 
d="M5 679q0 12 10.5 16.5t36.5 4.5h139q40 0 40 -19q0 -11 -15.5 -23t-18 -18.5t-2.5 -9.5q0 -13 16 -43l152 -225l145 234q15 23 16 31.5t1 11.5q0 9 -5 13t-12 11t-7 16q0 21 37 21h80q42 0 42 -19q0 -11 -9 -17.5t-22 -11t-31.5 -19t-33.5 -37.5l-183 -287v-164
q0 -32 6 -53t14.5 -30t17 -14.5t14.5 -11.5t6 -16q0 -20 -50 -20h-110q-49 0 -49 20q0 10 6 16t14.5 11.5t17.5 14.5t15 30t6 53v165l-192 278q-17 24 -35.5 40t-30 21.5t-19 12.5t-7.5 17zM379 816q0 23 18 42.5t41 19.5q21 0 34.5 -13t13.5 -33q0 -23 -19.5 -39.5
t-43.5 -16.5q-19 0 -31.5 11t-12.5 29zM253 859q17 19 41 19q20 0 33.5 -13t13.5 -33q0 -23 -19 -39.5t-44 -16.5q-19 0 -31 11t-12 29q0 23 18 43z" />
    <glyph glyph-name="Zacute" unicode="&#x179;" horiz-adv-x="635" 
d="M51 38l421 617h-221q-51 0 -85.5 -23.5t-60.5 -72.5q-11 -21 -18 -27t-15 -6q-3 0 -8 1q-13 3 -13 21q0 7 2 15q7 52 25 106q7 20 19 25.5t54 5.5h416q19 0 23 -7t4 -12q0 -8 -7 -18l-420 -618l232 1q51 0 85.5 23t60.5 72q11 21 18.5 27.5t15.5 6.5q3 0 7 -1
q13 -4 13 -22q0 -7 -2 -15q-7 -52 -25 -106q-6 -20 -18.5 -25.5t-54.5 -5.5h-428q-19 0 -23 7.5t-4 11.5q0 9 7 19zM261 781q2 11 63 72q44 42 60 48q7 2 13 2q5 0 10 -1q16 -5 23.5 -17t7.5 -23q0 -6 -2 -13q-7 -33 -60 -60.5t-84 -27.5q-9 0 -16 2q-16 4 -16 14q0 2 1 4z
" />
    <glyph glyph-name="zacute" unicode="&#x17a;" horiz-adv-x="507" 
d="M48 32l295 406h-109q-91 0 -147 -73q-15 -23 -29 -23q-2 0 -5 1q-11 4 -11 19q0 6 2 15q3 17 16 57q14 46 56 46h326q16 0 19.5 -6t3.5 -10q0 -7 -6 -16l-295 -406h119q94 0 145 79q17 24 30 24q2 0 4 -1q8 -3 8 -18q0 -7 -2 -16q-3 -27 -14 -63q-13 -47 -53 -47h-336
q-17 0 -20.5 6t-3.5 10q0 7 7 16zM193 564q6 13 68 70q24 20 34 27.5t22 12t20 4.5q6 0 11 -2q16 -6 21 -17.5t6 -20.5q-1 -9 -4 -18q-11 -31 -63.5 -54.5t-81.5 -23.5q-12 0 -22 4q-12 4 -12 13q0 2 1 5z" />
    <glyph glyph-name="Zdotaccent" unicode="&#x17b;" horiz-adv-x="635" 
d="M51 38l421 617h-221q-51 0 -85.5 -23.5t-60.5 -72.5q-11 -21 -18 -27t-15 -6q-3 0 -8 1q-13 3 -13 21q0 7 2 15q7 52 25 106q7 20 19 25.5t54 5.5h416q19 0 23 -7t4 -12q0 -8 -7 -18l-420 -618l232 1q51 0 85.5 23t60.5 72q11 21 18.5 27.5t15.5 6.5q3 0 7 -1
q13 -4 13 -22q0 -7 -2 -15q-7 -52 -25 -106q-6 -20 -18.5 -25.5t-54.5 -5.5h-428q-19 0 -23 7.5t-4 11.5q0 9 7 19zM247 835q2 28 28 51t51 23q4 0 8 -1q20 -1 32.5 -16.5t12.5 -32.5v-3q-2 -27 -29 -49t-53 -22h-5q-21 2 -33 15t-12 32v3z" />
    <glyph glyph-name="zdotaccent" unicode="&#x17c;" horiz-adv-x="507" 
d="M48 32l295 406h-109q-91 0 -147 -73q-15 -23 -29 -23q-2 0 -5 1q-11 4 -11 19q0 6 2 15q3 17 16 57q14 46 56 46h326q16 0 19.5 -6t3.5 -10q0 -7 -6 -16l-295 -406h119q94 0 145 79q17 24 30 24q2 0 4 -1q8 -3 8 -18q0 -7 -2 -16q-3 -27 -14 -63q-13 -47 -53 -47h-336
q-17 0 -20.5 6t-3.5 10q0 7 7 16zM198 615q2 28 28 51t51 23q4 0 8 -1q20 -1 32.5 -16.5t12.5 -32.5v-3q-2 -27 -29 -49t-53 -22h-5q-21 2 -33 15t-12 32v3z" />
    <glyph glyph-name="Zcaron" unicode="&#x17d;" horiz-adv-x="635" 
d="M51 38l421 617h-221q-51 0 -85.5 -23.5t-60.5 -72.5q-11 -21 -18 -27t-15 -6q-3 0 -8 1q-13 3 -13 21q0 7 2 15q7 52 25 106q7 20 19 25.5t54 5.5h416q19 0 23 -7t4 -12q0 -8 -7 -18l-420 -618l232 1q51 0 85.5 23t60.5 72q11 21 18.5 27.5t15.5 6.5q3 0 7 -1
q13 -4 13 -22q0 -7 -2 -15q-7 -52 -25 -106q-6 -20 -18.5 -25.5t-54.5 -5.5h-428q-19 0 -23 7.5t-4 11.5q0 9 7 19zM198 883h2q19 0 58 -15t61 -32q22 17 61 32t58 15h2q12 -1 12 -11v-3q-1 -3 -3.5 -7t-8.5 -10.5t-11.5 -11.5t-14.5 -14l-16 -16q-8 -8 -18 -18.5t-14 -14.5
t-10.5 -10t-9.5 -7.5t-8 -3.5t-9.5 -2.5t-10.5 -0.5q-7 0 -12.5 1.5t-9.5 3t-11 7.5t-11 10l-35 35q-6 7 -15 16l-26 26q-6 6 -8.5 10t-3.5 7v3q0 10 12 11z" />
    <glyph glyph-name="zcaron" unicode="&#x17e;" horiz-adv-x="507" 
d="M48 32l295 406h-109q-91 0 -147 -73q-15 -23 -29 -23q-2 0 -5 1q-11 4 -11 19q0 6 2 15q3 17 16 57q14 46 56 46h326q16 0 19.5 -6t3.5 -10q0 -7 -6 -16l-295 -406h119q94 0 145 79q17 24 30 24q2 0 4 -1q8 -3 8 -18q0 -7 -2 -16q-3 -27 -14 -63q-13 -47 -53 -47h-336
q-17 0 -20.5 6t-3.5 10q0 7 7 16zM165 700h2q17 0 47.5 -19.5t54.5 -44.5q25 25 55.5 44.5t47.5 19.5h2q13 -1 13 -14q0 -4 -6.5 -13.5t-19.5 -28t-22 -31.5q-3 -5 -8.5 -13t-7.5 -11.5t-6 -9t-6 -7.5t-5 -5.5t-5.5 -4.5t-6 -2.5t-6.5 -2t-7.5 -1t-9.5 -0.5q-22 0 -33.5 10
t-40.5 51q-44 57 -45 69q0 13 13 14z" />
    <glyph glyph-name="uni0218" unicode="&#x218;" horiz-adv-x="581" 
d="M68 221q20 0 37 -34q64 -148 200 -149q69 0 105.5 34.5t38.5 85.5v6q0 12 -3.5 25t-8.5 23.5t-18.5 22t-21.5 18.5t-28 17.5t-28.5 15t-33 15.5t-31.5 15q-7 3 -30 14t-31 15t-28.5 15t-28.5 17t-24 17.5t-23.5 20.5t-18 22.5t-15 26.5t-8 29.5t-3.5 34.5q0 74 62.5 127
t172.5 53q24 0 60 -5.5t48 -5.5t25 5.5t20 5.5q14 0 20 -10t14 -43q17 -71 24 -113q1 -6 1 -11q0 -22 -17 -22q-20 0 -39 32q-75 120 -178 120q-60 0 -92.5 -29.5t-32.5 -76.5q0 -13 2 -24t8.5 -21t11.5 -17.5t17 -16.5t19 -14.5t24.5 -14.5t25.5 -13.5t29.5 -15t30.5 -14.5
q10 -5 44.5 -21t46.5 -22.5t39 -22t38 -27.5t26 -30t21 -39t7 -46v-7q0 -87 -72.5 -142.5t-176.5 -56.5q-44 0 -88 6.5t-53 6.5q-12 0 -25 -6t-20 -6q-15 0 -23 12t-13 43q-16 87 -22 140v9q0 26 17 26zM232 -107q0 24 15.5 38.5t35.5 14.5q25 0 42 -16.5t17 -50.5
q0 -58 -32.5 -99t-58.5 -41q-12 0 -12 11q0 4 18 25.5t18 39.5q0 12 -21.5 33t-21.5 45z" />
    <glyph glyph-name="uni0219" unicode="&#x219;" horiz-adv-x="475" 
d="M52 157q2 1 5 1q12 0 29 -19q55 -59 98 -81t88 -22q36 0 60 17t24 49q0 30 -33 52t-104 51q-41 16 -64.5 27t-51 29.5t-40 42t-12.5 52.5q0 64 48 99t111 35q31 0 67 -6t44 -6h2q8 0 16.5 6t14.5 6q12 0 27 -26q3 -5 4 -7q15 -28 31 -64q4 -11 4 -19q0 -11 -8 -16
q-7 -1 -8.5 -2t-2.5 -1q-3 0 -10 4.5t-10.5 7.5t-14 11.5t-18.5 14.5q-71 53 -135 53q-39 0 -61.5 -17.5t-22.5 -44.5q0 -31 30.5 -51.5t108.5 -51.5q86 -34 130 -67t44 -84q0 -57 -51 -98.5t-131 -41.5q-39 0 -75.5 9.5t-40.5 9.5q-8 0 -18.5 -9.5t-19.5 -9.5
q-10 0 -14 5.5t-14 28.5q-26 69 -37 106q-1 5 -1 9q0 13 12 18zM189 -69q15 15 35 15q25 0 42 -16.5t17 -50.5q0 -58 -32.5 -99t-58.5 -41q-12 0 -12 11q0 4 18 25.5t18 39.5q0 12 -21.5 33t-21.5 45t16 38z" />
    <glyph glyph-name="uni021A" unicode="&#x21a;" horiz-adv-x="637" 
d="M36 558q1 66 13 107q5 20 20.5 27.5t60.5 7.5l377 1q45 0 60.5 -7.5t20.5 -27.5q12 -41 13 -107v-5q0 -29 -20 -29q-17 0 -37 39q-16 30 -23.5 42t-22 26.5t-33 19t-47.5 4.5t-41 -11.5t-12 -38.5v-461q0 -39 9 -62.5t19.5 -29.5t19.5 -13.5t9 -19.5q0 -20 -49 -20h-111
q-49 0 -49 20q0 10 6 16t14.5 11.5t17.5 14.5t15 30t6 53v460q0 27 -12 38.5t-41 11.5q-54 0 -75.5 -18.5t-50.5 -72.5q-12 -22 -19.5 -31t-17.5 -9q-20 0 -20 29v5zM281 -69q15 15 35 15q25 0 42 -16.5t17 -50.5q0 -58 -32.5 -99t-58.5 -41q-12 0 -12 11q0 4 18 25.5
t18 39.5q0 12 -21.5 33t-21.5 45t16 38z" />
    <glyph glyph-name="uni021B" unicode="&#x21b;" horiz-adv-x="354" 
d="M17 454q0 11 9 21q45 51 107 98q15 10 27 10q16 0 16 -19v-5q-3 -27 -4 -79h100q11 0 16 -1t8 -6t3 -11q0 -3 -1 -7q-6 -26 -34 -26h-4l-89 3l-4 -270v-13q0 -44 13 -67.5t52 -23.5t76 33q7 6 13 6q4 0 9 -3.5t5 -10.5q0 -4 -2 -9q-13 -31 -48 -57.5t-86 -26.5
q-120 0 -120 142v30q0 189 4 272h-38q-28 0 -28 20zM115 -69q15 15 35 15q25 0 42 -16.5t17 -50.5q0 -58 -32.5 -99t-58.5 -41q-12 0 -12 11q0 4 18 25.5t18 39.5q0 12 -21.5 33t-21.5 45t16 38z" />
    <glyph glyph-name="uni0237" unicode="&#x237;" horiz-adv-x="273" 
d="M17 -164q4 1 9 1q52 0 69 33t17 106v355q0 30 -7.5 48t-17 23.5t-17 12.5t-7.5 17q0 8 5.5 13t23.5 13q65 31 93 33h3q17 0 17 -22l-2 -493v-42q0 -71 -31.5 -108t-87.5 -37q-62 0 -77 26q-3 5 -3 9q0 9 13 12z" />
    <glyph glyph-name="circumflex" unicode="&#x2c6;" horiz-adv-x="500" 
d="M150 535q-13 1 -13 14q1 12 45 69q29 41 40.5 51t33.5 10q5 0 9.5 -0.5t7.5 -1t6.5 -2t6 -2.5t5.5 -4.5t5 -5.5t6 -7.5t6 -9t7.5 -11.5t8.5 -13q9 -13 22 -31.5t19.5 -28t6.5 -13.5q0 -13 -13 -14q-18 -1 -49 19.5t-56 45.5q-24 -25 -55 -45.5t-49 -19.5z" />
    <glyph glyph-name="caron" unicode="&#x2c7;" horiz-adv-x="500" 
d="M150 658q18 1 49 -19t55 -45q25 25 56 45t49 19q13 -1 13 -14q0 -4 -6.5 -13.5t-19.5 -28t-22 -31.5q-3 -5 -8.5 -13t-7.5 -11.5t-6 -9t-6 -7.5t-5 -5.5t-5.5 -4.5t-6 -2.5t-6.5 -2t-7.5 -1t-9.5 -0.5q-22 0 -33.5 10t-40.5 51q-44 57 -45 69q0 13 13 14z" />
    <glyph glyph-name="breve" unicode="&#x2d8;" horiz-adv-x="500" 
d="M247 537q-57 0 -89 32.5t-34 79.5q-2 22 13 22q8 0 15 -11q37 -53 96 -53t96 53q8 11 14 11q15 0 13 -22q-2 -47 -36 -79.5t-88 -32.5z" />
    <glyph glyph-name="dotaccent" unicode="&#x2d9;" horiz-adv-x="500" 
d="M242 591q-21 2 -33.5 15.5t-11.5 34.5q2 28 30 52.5t57 20.5q20 -1 33 -16.5t12 -34.5q-2 -27 -30 -50t-57 -22z" />
    <glyph glyph-name="ring" unicode="&#x2da;" horiz-adv-x="500" 
d="M250 512q-41 0 -68 25t-27 65q0 41 28.5 67t70.5 26q41 0 68 -25t27 -65q0 -42 -28.5 -67.5t-70.5 -25.5zM255 551q23 0 36 16.5t11 39.5q-3 22 -17 36.5t-35 14.5q-24 0 -37.5 -15.5t-11.5 -39.5q3 -23 18 -37.5t36 -14.5z" />
    <glyph glyph-name="ogonek" unicode="&#x2db;" horiz-adv-x="500" 
d="M240 -193q-41 0 -69 21t-28 58q0 58 90 114h30q-57 -54 -57 -102q0 -25 15 -39.5t43 -14.5q19 0 41 9q14 6 18.5 -2t-4.5 -16q-29 -28 -79 -28z" />
    <glyph glyph-name="tilde" unicode="&#x2dc;" horiz-adv-x="500" 
d="M323 541q-23 0 -80 21t-82 21q-35 0 -35 -29q0 -12 -8 -12q-12 1 -18 21l-3 18q0 27 18.5 43.5t50.5 16.5q36 0 93 -21t70 -21q35 0 35 29q0 13 8 13q12 0 18 -21l3 -18q0 -27 -19 -44t-51 -17z" />
    <glyph glyph-name="hungarumlaut" unicode="&#x2dd;" horiz-adv-x="500" 
d="M112 539q-15 0 -15 12q0 9 35 79q14 23 21 34t18 20t22 9q15 0 26.5 -11t11.5 -29q0 -30 -44 -72t-75 -42zM257 538q-9 0 -13 4t-3 9q0 11 39 77q16 24 22.5 33t18 18t22.5 9q15 0 26 -11t11 -29q0 -29 -45.5 -69.5t-77.5 -40.5z" />
    <glyph glyph-name="gravecomb" unicode="&#x300;" 
d="M-293 655q7 15 24 21q5 2 11 2q8 0 20 -4.5t21.5 -12t34.5 -27.5q62 -58 67 -70q1 -3 1 -5q0 -9 -12 -13q-10 -4 -22 -4q-29 0 -81.5 23.5t-63.5 54.5q-3 9 -4 18q1 9 4 17z" />
    <glyph glyph-name="acutecomb" unicode="&#x301;" 
d="M-364 564q6 13 68 70q24 20 34 27.5t22 12t20 4.5q6 0 11 -2q16 -6 21 -17.5t5 -20.5t-3 -18q-11 -31 -63.5 -54.5t-81.5 -23.5q-12 0 -22 4q-12 4 -12 13q0 2 1 5z" />
    <glyph glyph-name="uni0302" unicode="&#x302;" 
d="M-363 553q1 12 45 69q29 41 40.5 51t33.5 10q5 0 9.5 -0.5t7.5 -1t6.5 -2t6 -2.5t5.5 -4.5t5 -5.5t6 -7.5t6 -9t7.5 -11.5t8.5 -13q9 -13 22 -31.5t19.5 -28t6.5 -13.5q0 -13 -13 -14h-2q-17 0 -47.5 20t-55.5 45q-24 -25 -54.5 -45t-47.5 -20h-2q-13 1 -13 14z" />
    <glyph glyph-name="tildecomb" unicode="&#x303;" 
d="M-403 581q0 27 18.5 43.5t50.5 16.5q36 0 93 -21t70 -21q35 0 35 29q0 13 8 13q12 0 18 -21l3 -18q0 -27 -19 -44t-51 -17q-23 0 -80 21t-82 21q-35 0 -35 -29q0 -12 -8 -12q-12 1 -18 21q-3 8 -3 18z" />
    <glyph glyph-name="uni0304" unicode="&#x304;" 
d="M-395 580q2 15 7.5 20t24.5 5h227q19 0 23 -4t4 -12q0 -4 -1 -8q-2 -15 -7.5 -20.5t-25.5 -5.5h-227q-19 0 -22.5 4t-3.5 12q0 4 1 9z" />
    <glyph glyph-name="uni0306" unicode="&#x306;" 
d="M-363 671q8 0 15 -11q37 -53 96 -53t96 53q8 11 14 11q13 0 13 -17v-5q-2 -47 -36 -79.5t-88 -32.5q-57 0 -89 32.5t-34 79.5v5q0 17 13 17z" />
    <glyph glyph-name="uni0307" unicode="&#x307;" 
d="M-286 615q2 28 28 51t51 23q4 0 8 -1q20 -1 32.5 -16.5t12.5 -32.5v-3q-2 -27 -29 -49t-53 -22h-5q-21 2 -33 15t-12 32v3z" />
    <glyph glyph-name="uni0308" unicode="&#x308;" 
d="M-379 652q18 19 42 19q21 0 34 -13t13 -33q0 -23 -19 -40t-44 -17q-18 0 -30.5 11.5t-12.5 29.5q0 23 17 43zM-234 652q18 19 42 19q20 0 33.5 -13t13.5 -33q0 -23 -19 -40t-44 -17q-18 0 -30.5 11.5t-12.5 29.5q0 23 17 43z" />
    <glyph glyph-name="uni030A" unicode="&#x30a;" 
d="M-317 689q29 26 71 26q41 0 68 -25t27 -65q0 -42 -28.5 -67.5t-70.5 -25.5q-41 0 -68 25t-27 65q0 41 28 67zM-299 623q3 -23 18 -37.5t36 -14.5q23 0 35 15.5t12 34.5v6q-3 22 -17 36.5t-35 14.5q-24 0 -36.5 -14.5t-12.5 -34.5v-6z" />
    <glyph glyph-name="uni030B" unicode="&#x30b;" 
d="M-259 551q0 11 39 77q16 24 22.5 33t18 18t22.5 9q15 0 26 -11t11 -29q0 -29 -45.5 -69.5t-77.5 -40.5q-9 0 -12.5 3.5t-3.5 7.5v2zM-403 551q0 9 35 79q14 23 21 34t18 20t22 9q15 0 26.5 -11t11.5 -29q0 -30 -44 -72t-75 -42q-15 0 -15 12z" />
    <glyph glyph-name="uni030C" unicode="&#x30c;" 
d="M-350 700h2q17 0 47.5 -19.5t54.5 -44.5q25 25 55.5 44.5t47.5 19.5h2q13 -1 13 -14q0 -4 -6.5 -13.5t-19.5 -28t-22 -31.5q-3 -5 -8.5 -13t-7.5 -11.5t-6 -9t-6 -7.5t-5 -5.5t-5.5 -4.5t-6 -2.5t-6.5 -2t-7.5 -1t-9.5 -0.5q-22 0 -33.5 10t-40.5 51q-44 57 -45 69
q0 13 13 14z" />
    <glyph glyph-name="uni0312" unicode="&#x312;" 
d="M-307 610q0 58 32.5 99t58.5 41q12 0 12 -11q0 -4 -18 -25.5t-18 -39.5q0 -12 21.5 -33t21.5 -45t-15.5 -38.5t-35.5 -14.5q-25 0 -42 16.5t-17 50.5z" />
    <glyph glyph-name="uni0326" unicode="&#x326;" 
d="M-377 -69q16 15 36 15q25 0 42 -16.5t17 -50.5q0 -58 -32.5 -99t-58.5 -41q-12 0 -12 11q0 4 18 25.5t18 39.5q0 12 -21.5 33t-21.5 45t15 38z" />
    <glyph glyph-name="uni0327" unicode="&#x327;" 
d="M-333 -164q4 4 8 4t9 -3q30 -17 54 -17q22 0 34 12t12 30q0 38 -68 54q-14 3 -14 11q0 3 2 6l36 67h36l-27 -53q92 -17 92 -79q0 -35 -27 -57t-65 -22q-55 0 -81 32q-4 4 -4 8t3 7z" />
    <glyph glyph-name="uni0328" unicode="&#x328;" 
d="M-267 0h30q-57 -54 -57 -102q0 -25 15 -39.5t43 -14.5q19 0 41 9q6 3 10 3q6 0 8 -4t2 -6q0 -6 -6 -11q-29 -28 -79 -28q-41 0 -69 21t-28 58q0 58 90 114z" />
    <glyph glyph-name="uni0335" unicode="&#x335;" 
d="M-656 362q0 20 19 20h189q19 0 19 -20q0 -21 -19 -21h-189q-19 0 -19 21z" />
    <glyph glyph-name="uni0336" unicode="&#x336;" 
d="M-749 540h672q19 0 19 -19v-5q0 -20 -19 -20h-672q-19 0 -19 20v5q0 19 19 19z" />
    <glyph glyph-name="uni0337" unicode="&#x337;" 
d="M-543 305l223 128q6 4 12 4q9 0 15 -12q4 -7 4 -12q0 -10 -11 -16l-223 -129q-6 -3 -10 -3q-10 0 -16 13q-5 6 -5 12q0 8 11 15z" />
    <glyph glyph-name="uni0338" unicode="&#x338;" 
d="M-609 10q0 4 6 14l382 663q9 15 24 15q18 0 18 -14q0 -6 -5 -16l-378 -657q-12 -21 -29 -21q-18 0 -18 16z" />
    <glyph glyph-name="uni0401" unicode="&#x401;" horiz-adv-x="608" 
d="M42 680q0 13 11 16.5t39 3.5l372 1q42 0 54 -5.5t19 -25.5q18 -54 25 -106q1 -7 1 -13q0 -20 -13 -24q-2 -1 -5 -1q-17 0 -35 34q-26 49 -60.5 72t-86.5 23h-55q-71 0 -92.5 -10t-21.5 -36v-119q0 -33 17 -41t58 -8h27q35 0 57 5t28.5 11t13.5 11t16 5q19 0 26 -32
l20 -85q4 -22 5 -32q-1 -4 -2 -9.5t-12 -8.5q-3 -1 -5 -1q-7 0 -15 7t-17.5 21t-23 28t-37 24.5t-54.5 10.5h-27q-28 0 -41 -2t-23.5 -13t-10.5 -34v-253q0 -28 21.5 -38.5t93.5 -10.5l76 1q61 0 85.5 19.5t46.5 71.5q17 39 36 39h4q14 -2 14 -27v-7q-4 -70 -15 -107
q-5 -20 -20 -27.5t-61 -7.5h-383q-28 0 -39 3.5t-11 16.5q0 12 9.5 18.5t20.5 11.5t20.5 27t9.5 60v426q0 38 -9.5 60t-20.5 27t-20.5 11.5t-9.5 18.5zM345 859q18 19 41 19q21 0 34.5 -13t13.5 -33q0 -23 -19.5 -39.5t-43.5 -16.5q-19 0 -31.5 11t-12.5 29q0 23 18 43z
M183 816q0 23 17.5 42.5t41.5 19.5q20 0 33.5 -13t13.5 -33q0 -23 -19 -39.5t-44 -16.5q-19 0 -31 11t-12 29z" />
    <glyph glyph-name="uni0404" unicode="&#x404;" horiz-adv-x="663" 
d="M598 138q11 9 20.5 6t10.5 -13.5t-8 -26.5q-26 -41 -93.5 -77.5t-161.5 -36.5q-148 0 -237.5 94.5t-89.5 248.5q0 161 99 269t255 108q38 0 76.5 -7t48.5 -7q12 0 24.5 6t19.5 6q14 0 22.5 -11t15.5 -42q17 -71 26 -129q5 -35 -16 -35q-3 0 -5.5 0.5t-5 2.5t-4.5 3.5
t-5 5.5l-4.5 6t-5.5 8l-6 9q-19 27 -27.5 38t-30 33.5t-40 32.5t-49 19t-64.5 9q-106 0 -165.5 -78t-62.5 -191q42 -25 83 -25q32 0 86.5 27.5t79.5 27.5q43 0 100 -34.5t57 -55.5q0 -19 -22 -19q-9 0 -47.5 20.5t-61.5 20.5q-24 0 -69.5 -25t-77.5 -25q-57 0 -126 39
q10 -124 83.5 -200t183.5 -76q109 0 194 74z" />
    <glyph glyph-name="uni0406" unicode="&#x406;" horiz-adv-x="295" 
d="M42 20q0 12 9.5 19.5t20.5 13.5t20.5 29.5t9.5 62.5v410q0 32 -6 53t-14.5 30t-17 14.5t-14.5 11.5t-6 16q0 20 50 20h110q49 0 49 -20q0 -10 -6 -16t-14.5 -11.5t-17.5 -14.5t-15 -30t-6 -53v-410q0 -39 9 -62.5t19.5 -29.5t19.5 -13.5t9 -19.5q0 -20 -49 -20h-110
q-50 0 -50 20z" />
    <glyph glyph-name="uni0407" unicode="&#x407;" horiz-adv-x="295" 
d="M42 20q0 12 9.5 19.5t20.5 13.5t20.5 29.5t9.5 62.5v410q0 32 -6 53t-14.5 30t-17 14.5t-14.5 11.5t-6 16q0 20 50 20h110q49 0 49 -20q0 -10 -6 -16t-14.5 -11.5t-17.5 -14.5t-15 -30t-6 -53v-410q0 -39 9 -62.5t19.5 -29.5t19.5 -13.5t9 -19.5q0 -20 -49 -20h-110
q-50 0 -50 20zM171 816q0 23 18 42.5t41 19.5q21 0 34.5 -13t13.5 -33q0 -23 -19.5 -39.5t-43.5 -16.5q-19 0 -31.5 11t-12.5 29zM45 859q17 19 41 19q20 0 33.5 -13t13.5 -33q0 -23 -19 -39.5t-44 -16.5q-19 0 -31 11t-12 29q0 23 18 43z" />
    <glyph glyph-name="uni0410" unicode="&#x410;" horiz-adv-x="686" 
d="M-1 19q0 11 8.5 18t20.5 12t27.5 23t26.5 46l189 481q4 15 4 25q0 9 -5.5 15.5t-19.5 17t-14 22.5q0 21 28 21h91q20 0 26 -18l222 -563q11 -28 25 -45.5t24.5 -23t17.5 -12t7 -16.5q0 -12 -11 -17t-38 -5h-117q-40 0 -40 19q0 12 15 23.5t19.5 19.5t4.5 16q0 14 -8 41
l-25 63q-7 19 -18 23q-17 6 -137 6q-129 0 -146 -7q-10 -4 -17 -23l-25 -63q-9 -30 -9 -44q0 -6 3.5 -14t17 -18.5t13.5 -20.5q0 -21 -37 -21h-81q-42 0 -42 19zM199 259q12 -5 124 -5q108 0 117 6q2 2 2 6q0 5 -3 14l-122 310l-121 -313q-2 -6 -2 -10q0 -6 5 -8z" />
    <glyph glyph-name="uni0411" unicode="&#x411;" horiz-adv-x="621" 
d="M244 475q164 0 256 -69t92 -182q0 -106 -77.5 -165t-226.5 -59h-196q-28 0 -39 3.5t-11 16.5q0 12 9.5 18.5t20.5 11.5t20.5 27t9.5 60v426q0 38 -9.5 60t-20.5 27t-20.5 11.5t-9.5 18.5q0 13 11 16.5t39 3.5l367 1q41 0 53.5 -5.5t18.5 -25.5q18 -54 25 -106
q6 -32 -11 -37q-13 -3 -21.5 4.5t-19.5 28.5q-25 49 -59.5 72t-86.5 23h-50q-71 0 -92.5 -10t-21.5 -36v-115q0 -22 21 -20q8 1 29 1zM286 45q205 0 205 161q0 97 -72.5 160.5t-178.5 65.5q-28 1 -37 -5t-9 -22v-331q0 -16 17.5 -22.5t74.5 -6.5z" />
    <glyph glyph-name="uni0412" unicode="&#x412;" horiz-adv-x="611" 
d="M52 39q9 6 20 11t20.5 27t9.5 60v426q0 38 -9.5 60t-20.5 27t-20.5 11.5t-9.5 18.5q0 13 11 16.5t39 3.5h162q117 0 179 -39.5t62 -114.5q0 -48 -30 -83t-91 -47q95 -13 151.5 -65.5t56.5 -129.5q0 -221 -308 -221h-182q-28 0 -39 3.5t-11 16.5q0 12 10 19zM210 61
q15 -16 62 -16q105 0 156 38t51 122q0 86 -60 136t-168 50q-37 0 -47 -8.5t-10 -30.5v-237q0 -39 16 -54zM198 446q4 -4 14.5 -6t16.5 -2h23q79 0 113 23.5t34 73.5q0 54 -40 87t-105 33q-33 0 -46.5 -7.5t-13.5 -32.5v-157q0 -8 4 -12z" />
    <glyph glyph-name="uni0413" unicode="&#x413;" horiz-adv-x="547" 
d="M563 564q6 -32 -12 -37q-20 -5 -40 33q-26 49 -60.5 72t-85.5 23h-57q-71 0 -92.5 -10t-21.5 -36v-464q0 -39 9 -62.5t19.5 -29.5t19.5 -13.5t9 -19.5q0 -20 -49 -20h-110q-50 0 -50 20q0 12 9.5 19.5t20.5 13.5t20.5 29.5t9.5 62.5v418q0 38 -9.5 60t-20.5 27
t-20.5 11.5t-9.5 18.5q0 13 11 16.5t39 3.5l373 1q42 0 54 -5.5t19 -25.5q18 -54 25 -106z" />
    <glyph glyph-name="uni0414" unicode="&#x414;" horiz-adv-x="739" 
d="M722 -88q2 -34 -20 -34q-18 0 -39 39q-43 83 -125 83l-344 -1q-80 0 -125 -83q-19 -39 -39 -39q-22 0 -20 34q1 59 13 99q6 19 18 27t43 8q20 0 27.5 5t16.5 24q95 202 95 504q0 25 -9 42t-20 23t-20 14.5t-9 18.5q0 14 10.5 19t45.5 5h388q28 0 39 -3.5t11 -16.5
q0 -12 -9.5 -18.5t-20.5 -11.5t-20.5 -27t-9.5 -60v-477q0 -27 5.5 -33.5t25.5 -6.5q44 0 59 -8t20 -27q12 -40 13 -99zM179 45l328 1v563q0 26 -21.5 36t-87.5 10q-59 0 -85.5 -10t-29.5 -41q-19 -206 -38 -313t-66 -246z" />
    <glyph glyph-name="uni0415" unicode="&#x415;" horiz-adv-x="608" 
d="M52 39q9 6 20 11t20.5 27t9.5 60v426q0 38 -9.5 60t-20.5 27t-20.5 11.5t-9.5 18.5q0 13 11 16.5t39 3.5l372 1q42 0 54 -5.5t19 -25.5q18 -54 25 -106q1 -7 1 -13q0 -20 -13 -24q-2 -1 -5 -1q-17 0 -35 34q-26 49 -60.5 72t-86.5 23h-55q-71 0 -92.5 -10t-21.5 -36v-119
q0 -33 17 -41t58 -8h27q35 0 57 5t28.5 11t13.5 11t16 5q19 0 26 -32l20 -85q4 -22 5 -32q-1 -4 -2 -9.5t-12 -8.5q-3 -1 -5 -1q-7 0 -15 7t-17.5 21t-23 28t-37 24.5t-54.5 10.5h-27q-28 0 -41 -2t-23.5 -13t-10.5 -34v-253q0 -28 21.5 -38.5t93.5 -10.5l76 1
q61 0 85.5 19.5t46.5 71.5q17 39 36 39h4q14 -2 14 -27v-7q-4 -70 -15 -107q-5 -20 -20 -27.5t-61 -7.5h-383q-28 0 -39 3.5t-11 16.5q0 12 10 19z" />
    <glyph glyph-name="uni0416" unicode="&#x416;" horiz-adv-x="1042" 
d="M876 601l-95 -87l183 -406q11 -23 25.5 -38.5t25.5 -20t18.5 -11.5t7.5 -18q0 -20 -39 -20h-109q-50 0 -50 23q0 9 11 20t15.5 22t-6.5 45l-150 343l-149 -136v-172q0 -39 9 -62.5t19 -29.5t19 -13.5t9 -19.5q0 -20 -49 -20h-108q-50 0 -50 20q0 10 6 16t14.5 11.5
t17.5 14.5t15 30t6 53v179l-142 130l-149 -344q-12 -34 -7.5 -45t16 -22t11.5 -20q0 -23 -50 -23h-109q-39 0 -39 20q0 11 7.5 18t18.5 11.5t25.5 20t25.5 38.5l183 406l-95 87q-22 20 -44.5 33t-35 17t-20.5 10.5t-8 18.5q0 20 49 20h103q35 0 35 -21q0 -11 -9.5 -19
t-17.5 -13t-5 -16.5t23 -29.5l234 -212v166q0 39 -9 62.5t-19.5 29.5t-19.5 13.5t-9 19.5q0 20 50 20h108q49 0 49 -20q0 -10 -6 -16t-14.5 -11.5t-17 -14.5t-14.5 -30t-6 -53v-174l242 220q20 18 22.5 29.5t-5.5 16.5t-17 13t-9 19q0 21 34 21h103q50 0 50 -20
q0 -15 -11.5 -21t-40 -19.5t-56.5 -38.5z" />
    <glyph glyph-name="uni0417" unicode="&#x417;" horiz-adv-x="565" 
d="M337 387q92 -14 139.5 -64.5t47.5 -121.5q0 -103 -78.5 -157t-198.5 -52q-68 2 -109 13q-67 16 -78 67q-14 63 -16 95q-1 14 4 22.5t16 7.5q17 -2 32 -36q56 -122 172 -122q67 0 110.5 39.5t43.5 107.5q0 168 -213 175q-16 0 -22 11.5t0 23t21 12.5q92 9 133.5 44.5
t41.5 100.5q0 53 -30.5 81t-77.5 28q-38 0 -69.5 -19t-45 -37t-35.5 -53q-3 -5 -5 -8q-19 -33 -37 -33q-19 0 -17 34q3 54 16 109q7 32 15 42.5t22 10.5q7 0 20 -5.5t25 -5.5q10 0 48.5 5.5t76.5 5.5q48 0 89 -13.5t72 -49t32 -88.5q1 -63 -40 -109.5t-105 -60.5z" />
    <glyph glyph-name="uni0418" unicode="&#x418;" horiz-adv-x="790" 
d="M42 20q0 10 7.5 17t17.5 11.5t19.5 17t12.5 30.5q3 15 3 31v446q0 16 -3 31q-3 19 -12.5 31t-18.5 16.5t-16.5 11.5t-7.5 17q0 20 50 20h110q49 0 49 -20q0 -10 -7.5 -17t-17.5 -11.5t-19 -16.5t-12 -31q-3 -15 -3 -31v-383l391 387q11 9 11 21q0 2 -1 5
q-3 18 -12.5 30.5t-19 17.5t-17 12.5t-7.5 16.5q0 20 49 20h111q49 0 49 -20q0 -10 -7.5 -17t-17.5 -11.5t-19 -16.5t-12 -31q-3 -15 -3 -31v-446q0 -16 3 -31q3 -19 12.5 -31t18.5 -16.5t16 -11.5t7 -17q0 -20 -49 -20h-111q-49 0 -49 20q0 10 7.5 17t17.5 11.5t19 16.5
t12 31q3 15 3 31v396l-391 -387q-10 -10 -10 -25v-3q2 -23 11.5 -37.5t19 -19t17.5 -12.5t8 -19q0 -20 -49 -20h-110q-50 0 -50 20z" />
    <glyph glyph-name="uni0419" unicode="&#x419;" horiz-adv-x="790" 
d="M42 20q0 10 7.5 17t17.5 11.5t19.5 17t12.5 30.5q3 15 3 31v446q0 16 -3 31q-3 19 -12.5 31t-18.5 16.5t-16.5 11.5t-7.5 17q0 20 50 20h110q49 0 49 -20q0 -10 -7.5 -17t-17.5 -11.5t-19 -16.5t-12 -31q-3 -15 -3 -31v-383l391 387q11 9 11 21q0 2 -1 5
q-3 18 -12.5 30.5t-19 17.5t-17 12.5t-7.5 16.5q0 20 49 20h111q49 0 49 -20q0 -10 -7.5 -17t-17.5 -11.5t-19 -16.5t-12 -31q-3 -15 -3 -31v-446q0 -16 3 -31q3 -19 12.5 -31t18.5 -16.5t16 -11.5t7 -17q0 -20 -49 -20h-111q-49 0 -49 20q0 10 7.5 17t17.5 11.5t19 16.5
t12 31q3 15 3 31v396l-391 -387q-10 -10 -10 -25v-3q2 -23 11.5 -37.5t19 -19t17.5 -12.5t8 -19q0 -20 -49 -20h-110q-50 0 -50 20zM245 859q0 14 9.5 24t23.5 10q18 0 31.5 -15.5t21 -34.5t24 -34.5t39.5 -15.5t39 15.5t23 34.5t20.5 34.5t31.5 15.5q15 0 24.5 -10t9.5 -24
q0 -45 -43.5 -75t-105.5 -30q-63 0 -105.5 30t-42.5 75z" />
    <glyph glyph-name="uni041A" unicode="&#x41a;" horiz-adv-x="695" 
d="M52 40q9 7 20 13t20.5 29.5t9.5 62.5v410q0 32 -6 53t-14.5 30t-17 14.5t-14.5 11.5t-6 16q0 20 50 20h110q49 0 49 -20q0 -10 -6 -16t-14.5 -11.5t-17.5 -14.5t-15 -30t-6 -53v-204l268 250q19 18 20.5 25t1.5 10q0 7 -7 11.5t-16 12.5t-9 19q0 21 34 21h102
q49 0 49 -20q0 -15 -11.5 -21t-40 -19.5t-56.5 -38.5l-94 -88l182 -405q11 -24 25.5 -39t25.5 -20t18.5 -11.5t7.5 -17.5q0 -20 -39 -20h-109q-50 0 -50 23q0 9 11.5 20t14.5 18t3 12q0 12 -9 36l-148 342l-174 -163v-143q0 -39 9 -62.5t19.5 -29.5t19.5 -13.5t9 -19.5
q0 -20 -49 -20h-110q-50 0 -50 20q0 12 10 20z" />
    <glyph glyph-name="uni041B" unicode="&#x41b;" horiz-adv-x="711" 
d="M102 -10q-37 0 -65.5 22t-28.5 62q0 29 15.5 44t35.5 15q19 0 30.5 -15t21.5 -30t26 -15q49 0 77.5 144t28.5 361q0 25 -9 43.5t-19.5 26t-19.5 16.5t-9 18q0 18 56 18h369q56 0 56 -18q0 -9 -8.5 -17.5t-19.5 -16t-19.5 -25.5t-8.5 -43v-434q0 -32 6 -53t14.5 -30
t17 -14.5t14.5 -11.5t6 -16q0 -20 -50 -20h-110q-49 0 -49 20q0 10 6 16t14.5 11.5t17.5 14.5t15 30t6 53v463q0 25 -21.5 35.5t-82.5 10.5q-64 0 -90.5 -10t-28.5 -41q-1 -17 -4 -76t-4.5 -79t-5 -72t-6.5 -74.5t-8 -64.5t-11.5 -64.5t-14.5 -52t-18.5 -49.5t-22.5 -35
q-36 -47 -99 -47z" />
    <glyph glyph-name="uni041C" unicode="&#x41c;" horiz-adv-x="883" 
d="M52 40q8 7 18.5 12.5t20 23t10.5 44.5l18 466v5q0 26 -11.5 43t-24 27t-12.5 20q0 19 39 19h80q20 0 27 -19l217 -520l237 520q7 19 27 19h75q39 0 39 -19q0 -10 -8 -17.5t-17 -13t-16 -21.5t-7 -37v-6l15 -461q1 -27 9.5 -45t19 -23.5t19 -14t8.5 -20.5q0 -22 -44 -22
h-109q-50 0 -50 22q0 11 9 19.5t19.5 15t18.5 23t8 39.5v6l-11 452l-235 -512q-9 -16 -27 -21q-6 -1 -11 -1q-16 0 -21 12l-215 515l-16 -450v-6q0 -23 7 -39.5t16.5 -22t17.5 -13.5t8 -18q0 -12 -10.5 -16.5t-34.5 -4.5h-68q-44 0 -44 21q0 11 9 19z" />
    <glyph glyph-name="uni041D" unicode="&#x41d;" horiz-adv-x="773" 
d="M52 40q9 7 20 13t20.5 29.5t9.5 62.5v410q0 32 -6 53t-14.5 30t-17 14.5t-14.5 11.5t-6 16q0 20 50 20h110q49 0 49 -20q0 -10 -6 -16t-14.5 -11.5t-17.5 -14.5t-15 -30t-6 -53v-113q0 -29 11 -36q17 -12 133 -12h55q147 0 168 8q17 6 18 29v124q0 39 -9 62.5t-19.5 29.5
t-19.5 13.5t-9 19.5q0 20 49 20h110q50 0 50 -20q0 -12 -9.5 -19.5t-20.5 -13.5t-20.5 -29.5t-9.5 -62.5v-410q0 -32 6 -53t14.5 -30t17 -14.5t14.5 -11.5t6 -16q0 -20 -50 -20h-110q-49 0 -49 20q0 10 6 16t15 11.5t17.5 14.5t14.5 30t6 53v156q0 30 -10 37q-16 11 -127 11
h-50q-157 0 -179 -8q-18 -6 -19 -28v-168q0 -39 9 -62.5t19.5 -29.5t19.5 -13.5t9 -19.5q0 -20 -49 -20h-110q-50 0 -50 20q0 12 10 20z" />
    <glyph glyph-name="uni041E" unicode="&#x41e;" horiz-adv-x="772" 
d="M144 598q104 112 263 112q147 0 236 -94.5t89 -240.5q0 -167 -102 -276t-265 -109q-146 0 -236 93t-90 239q0 163 105 276zM131 396q0 -150 76 -249t201 -99q109 0 170 79t61 191q0 141 -74.5 240t-195.5 99q-74 0 -129.5 -39.5t-82 -98t-26.5 -123.5z" />
    <glyph glyph-name="uni041F" unicode="&#x41f;" horiz-adv-x="742" 
d="M640 563v-417q0 -32 6 -53t14.5 -30t17 -14.5t14.5 -11.5t6 -16q0 -20 -50 -20h-110q-50 0 -50 20q0 12 9.5 19.5t20.5 13.5t20.5 29.5t9.5 62.5v463q0 18 -9.5 26.5t-47.5 13.5t-116 5q-82 0 -121.5 -5t-49.5 -13.5t-10 -26.5v-463q0 -39 9 -62.5t19.5 -29.5t19.5 -13.5
t9 -19.5q0 -20 -49 -20h-110q-50 0 -50 20q0 12 9.5 19.5t20.5 13.5t20.5 29.5t9.5 62.5v417q0 38 -9.5 60t-20.5 27t-20.5 11.5t-9.5 18.5q0 13 11 16.5t39 3.5h558q28 0 39 -3.5t11 -16.5q0 -12 -9.5 -18.5t-20.5 -11.5t-20.5 -27t-9.5 -60z" />
    <glyph glyph-name="uni0420" unicode="&#x420;" horiz-adv-x="626" 
d="M92 700h179q156 0 243 -70.5t87 -176.5q0 -111 -77 -170.5t-225 -59.5h-85q-14 0 -17 -3t-3 -17v-58q0 -39 9 -62.5t19.5 -29.5t19.5 -13.5t9 -19.5q0 -20 -49 -20h-110q-50 0 -50 20q0 12 9.5 19.5t20.5 13.5t20.5 29.5t9.5 62.5v418q0 38 -9.5 60t-20.5 27t-20.5 11.5
t-9.5 18.5q0 13 11 16.5t39 3.5zM296 267q205 0 205 167q0 97 -64.5 159.5t-167.5 62.5q-48 0 -61.5 -5.5t-13.5 -21.5v-333q0 -11 6 -16.5t28.5 -9t67.5 -3.5z" />
    <glyph glyph-name="uni0421" unicode="&#x421;" horiz-adv-x="684" 
d="M142 601q102 109 253 109q33 0 72 -7.5t50 -7.5q12 0 26.5 6.5t22.5 6.5q14 0 21.5 -10.5t16.5 -42.5q18 -64 28 -126q2 -7 2 -13q0 -19 -17 -21h-3q-6 0 -13 4.5t-11 10.5l-14 21q-37 58 -85 91t-120 33q-107 0 -171.5 -81.5t-64.5 -196.5q0 -140 76 -232.5t197 -92.5
q124 0 211 96q8 9 16 9q5 0 10.5 -6t5.5 -13q0 -10 -8 -22q-29 -45 -98 -85.5t-169 -40.5q-155 0 -246 94.5t-91 248.5q0 159 103 268z" />
    <glyph glyph-name="uni0422" unicode="&#x422;" horiz-adv-x="637" 
d="M36 558q1 66 13 107q5 20 20.5 27.5t60.5 7.5l377 1q45 0 60.5 -7.5t20.5 -27.5q12 -41 13 -107v-5q0 -29 -20 -29q-17 0 -37 39q-16 30 -23.5 42t-22 26.5t-33 19t-47.5 4.5t-41 -11.5t-12 -38.5v-461q0 -39 9 -62.5t19.5 -29.5t19.5 -13.5t9 -19.5q0 -20 -49 -20h-111
q-49 0 -49 20q0 10 6 16t14.5 11.5t17.5 14.5t15 30t6 53v460q0 27 -12 38.5t-41 11.5q-54 0 -75.5 -18.5t-50.5 -72.5q-12 -22 -19.5 -31t-17.5 -9q-20 0 -20 29v5z" />
    <glyph glyph-name="uni0423" unicode="&#x423;" horiz-adv-x="643" 
d="M21 682q0 18 35 18h121q44 0 44 -18q0 -10 -13.5 -23t-17 -20.5t-3.5 -12.5q0 -14 11 -40l168 -311l138 307q12 32 12 47q0 4 -3 11t-16.5 17.5t-13.5 20.5q0 21 36 21h81q42 0 42 -19q0 -11 -8.5 -18t-20 -12t-28 -22.5t-29.5 -45.5l-185 -409q-48 -107 -86.5 -145
t-89.5 -38q-29 0 -55 16.5t-26 51.5q0 25 15 41.5t34 16.5q22 0 38.5 -23t33.5 -23q23 0 41.5 23t37.5 71q1 3 1 6q0 4 -2 8l-222 408q-15 28 -33 47.5t-27.5 28.5t-9.5 20z" />
    <glyph glyph-name="uni0424" unicode="&#x424;" horiz-adv-x="791" 
d="M449 0h-110q-49 0 -49 20q0 12 9 18.5t19.5 11t20 23t10.5 50.5q0 6 -2.5 9t-7.5 2q-69 -3 -73 -3q-98 0 -162.5 63t-64.5 160q0 95 65 158t158 63q36 0 77 -3q5 -1 8 2t2 9q-1 31 -10.5 48t-19.5 20.5t-18.5 10t-8.5 18.5q0 20 49 20h110q50 0 50 -20q0 -10 -5.5 -15.5
t-14 -9.5t-17 -10.5t-15.5 -22t-8 -39.5q0 -6 2.5 -9t6.5 -2q41 3 79 3q98 0 160.5 -63t62.5 -158q0 -97 -66 -160t-161 -63q-27 0 -73 4q-5 1 -8 -2t-3 -9q1 -28 7.5 -45.5t15 -24t16.5 -10t13.5 -9t5.5 -15.5q0 -20 -50 -20zM314 175q13 0 35 4v349q-24 2 -35 2
q-89 0 -133 -46t-44 -130q0 -76 49.5 -127.5t127.5 -51.5zM482 175q80 0 126 50t46 129q0 84 -44 130t-133 46q-10 0 -36 -2v-349q19 -4 41 -4z" />
    <glyph glyph-name="uni0425" unicode="&#x425;" horiz-adv-x="709" 
d="M21 19q0 11 9 17.5t21.5 10.5t32 18t35.5 37l178 248l-178 239q-18 23 -37 39t-30.5 21.5t-19.5 12.5t-8 17q0 12 11 16.5t37 4.5h138q41 0 41 -19q0 -10 -9.5 -18.5t-18 -14t-8.5 -18.5q0 -2 0.5 -10t17.5 -31l139 -186l141 195q16 22 18 31t2 13q0 7 -4.5 10.5
t-11.5 10.5t-7 16q0 21 36 21h81q41 0 41 -19q0 -11 -9 -17.5t-22 -10.5t-32 -18t-35 -37l-169 -233l190 -254q18 -23 37 -39t30.5 -21.5t19 -12.5t7.5 -17q0 -21 -47 -21h-139q-40 0 -40 19q0 10 9.5 18.5t17.5 14t8 18.5q0 1 -0.5 9.5t-17.5 31.5l-150 201l-150 -210
q-16 -22 -18 -31t-2 -13q0 -7 4.5 -10.5t11.5 -10.5t7 -16q0 -21 -36 -21h-81q-41 0 -41 19z" />
    <glyph glyph-name="uni0426" unicode="&#x426;" horiz-adv-x="770" 
d="M753 -88q2 -34 -20 -34q-11 0 -19.5 9t-19.5 30q-45 83 -125 83h-477q-28 0 -39 3.5t-11 16.5q0 12 9.5 18.5t20.5 11.5t20.5 27t9.5 60v418q0 38 -9 61.5t-20 29.5t-20 13.5t-9 19.5t11 16t39 4h110q49 0 49 -20q0 -10 -6 -16t-14.5 -11.5t-17.5 -14.5t-15 -30t-6 -52
v-464q0 -18 10 -26.5t49.5 -13.5t120.5 -5q79 0 117 5t47.5 13.5t9.5 26.5v464q0 38 -9 61.5t-20 29.5t-20 13.5t-9 19.5t11 16t39 4h110q50 0 50 -20q0 -12 -9.5 -19.5t-20.5 -13.5t-20.5 -29.5t-9.5 -61.5v-469q0 -40 38 -40q32 0 44 -8t18 -27q12 -40 13 -99z" />
    <glyph glyph-name="uni0427" unicode="&#x427;" horiz-adv-x="701" 
d="M599 555v-410q0 -32 6 -53t14.5 -30t17 -14.5t14.5 -11.5t6 -16q0 -20 -50 -20h-110q-49 0 -49 20q0 10 6 16t14.5 11.5t17.5 14.5t15 30t6 53v124q-120 -20 -206 -20q-68 0 -114.5 18.5t-69.5 53.5t-32 75.5t-9 95.5v61q0 39 -9 62.5t-19.5 29.5t-19.5 13.5t-9 19.5
q0 20 49 20h110q50 0 50 -20q0 -12 -9 -19.5t-20 -13.5t-20.5 -29.5t-10.5 -62.5l-1 -40q0 -53 4 -86.5t19 -66.5t48 -49t86 -16q77 0 183 20v240q0 39 -9 62.5t-19.5 29.5t-19.5 13.5t-9 19.5q0 20 49 20h110q50 0 50 -20q0 -12 -9.5 -19.5t-20.5 -13.5t-20.5 -29.5
t-9.5 -62.5z" />
    <glyph glyph-name="uni0428" unicode="&#x428;" horiz-adv-x="1068" 
d="M966 555v-418q0 -38 9.5 -60t20.5 -27t20.5 -11.5t9.5 -18.5q0 -13 -11 -16.5t-39 -3.5h-884q-28 0 -39 3.5t-11 16.5q0 12 9.5 18.5t20.5 11.5t20.5 27t9.5 60v418q0 38 -9 61.5t-20 29.5t-20 13.5t-9 19.5t11 16t39 4h110q49 0 49 -20q0 -10 -6 -16t-14.5 -11.5
t-17.5 -14.5t-15 -30t-6 -52v-464q0 -18 9 -26.5t41.5 -13.5t99.5 -5q64 0 95.5 5t40 13.5t8.5 26.5v464q0 38 -9 61.5t-19 29.5t-19 13.5t-9 19.5t11 16t38 4h108q49 0 49 -20q0 -12 -9 -19.5t-20 -13.5t-20 -29.5t-9 -61.5v-464q0 -18 9 -26.5t41.5 -13.5t99.5 -5
q64 0 95.5 5t40 13.5t8.5 26.5v464q0 38 -9 61.5t-19.5 29.5t-19.5 13.5t-9 19.5t11 16t38 4h110q50 0 50 -20q0 -12 -9.5 -19.5t-20.5 -13.5t-20.5 -29.5t-9.5 -61.5z" />
    <glyph glyph-name="uni0429" unicode="&#x429;" horiz-adv-x="1096" 
d="M1079 -88q2 -34 -20 -34q-11 0 -19.5 9t-19.5 30q-45 83 -125 83h-803q-28 0 -39 3.5t-11 16.5q0 12 9.5 18.5t20.5 11.5t20.5 27t9.5 60v418q0 38 -9 61.5t-20 29.5t-20 13.5t-9 19.5t11 16t39 4h110q49 0 49 -20q0 -10 -6 -16t-14.5 -11.5t-17.5 -14.5t-15 -30t-6 -52
v-464q0 -18 9 -26.5t41.5 -13.5t99.5 -5q64 0 95.5 5t40 13.5t8.5 26.5v464q0 38 -9 61.5t-19 29.5t-19 13.5t-9 19.5t11 16t38 4h108q49 0 49 -20q0 -12 -9 -19.5t-20 -13.5t-20 -29.5t-9 -61.5v-464q0 -18 9 -26.5t41.5 -13.5t99.5 -5q64 0 95.5 5t40 13.5t8.5 26.5v464
q0 38 -9 61.5t-19.5 29.5t-19.5 13.5t-9 19.5t11 16t38 4h110q50 0 50 -20q0 -12 -9.5 -19.5t-20.5 -13.5t-20.5 -29.5t-9.5 -61.5v-469q0 -40 38 -40q32 0 44 -8t18 -27q12 -40 13 -99z" />
    <glyph glyph-name="uni042A" unicode="&#x42a;" horiz-adv-x="779" 
d="M372 475q164 0 255.5 -69t91.5 -182q0 -106 -77.5 -165t-226.5 -59h-186v2h-10q-27 0 -38 3.5t-11 16.5q0 10 6 15.5t15 10t17.5 12.5t14.5 28t6 51v457q0 21 -4.5 34t-14.5 18t-16.5 6t-18.5 1q-46 0 -71 -28t-49 -87q-10 -22 -17 -30.5t-17 -8.5q-19 0 -17 34
q3 86 16 130q5 21 19 28t59 7h233q28 0 39 -3.5t11 -16.5q0 -12 -9.5 -18.5t-20.5 -11.5t-20.5 -27t-9.5 -60v-69q0 -22 21 -20q9 1 30 1zM413 45q206 0 206 161q0 98 -72.5 161t-179.5 65q-27 1 -36.5 -5t-9.5 -22v-331q0 -16 17.5 -22.5t74.5 -6.5z" />
    <glyph glyph-name="uni042B" unicode="&#x42b;" horiz-adv-x="915" 
d="M52 39q9 6 20 11t20.5 27t9.5 60v418q0 38 -9 61.5t-20 29.5t-20 13.5t-9 19.5t11 16t39 4h110q49 0 49 -20q0 -10 -6 -16t-14.5 -11.5t-17.5 -14.5t-15 -30t-6 -52v-61q0 -20 18 -20h3q8 1 29 1q164 0 256 -69t92 -182q0 -106 -77.5 -165t-226.5 -59h-196q-28 0 -39 3.5
t-11 16.5q0 12 10 19zM212 50q17 -7 74 -7q205 0 205 163q0 97 -72.5 160.5t-178.5 65.5h-8q-21 0 -29.5 -5.5t-8.5 -21.5v-333q0 -16 18 -22zM671 40q9 7 20 13t20.5 29.5t9.5 62.5v410q0 32 -6 53t-14.5 30t-17 14.5t-14.5 11.5t-6 16q0 20 50 20h110q50 0 50 -20
q0 -12 -9.5 -19.5t-20.5 -13.5t-20.5 -29.5t-9.5 -62.5v-410q0 -32 6 -53t14.5 -30t17 -14.5t14.5 -11.5t6 -16q0 -20 -50 -20h-110q-50 0 -50 20q0 12 10 20z" />
    <glyph glyph-name="uni042C" unicode="&#x42c;" horiz-adv-x="629" 
d="M244 475q164 0 256 -69t92 -182q0 -106 -77.5 -165t-226.5 -59h-196q-28 0 -39 3.5t-11 16.5q0 12 9.5 18.5t20.5 11.5t20.5 27t9.5 60v418q0 38 -9 61.5t-20 29.5t-20 13.5t-9 19.5t11 16t39 4h110q49 0 49 -20q0 -10 -6 -16t-14.5 -11.5t-17.5 -14.5t-15 -30t-6 -52
v-61q0 -22 21 -20q8 1 29 1zM286 43q205 0 205 163q0 97 -72.5 160.5t-178.5 65.5q-28 1 -37 -5t-9 -22v-333q0 -16 17.5 -22.5t74.5 -6.5z" />
    <glyph glyph-name="uni042D" unicode="&#x42d;" horiz-adv-x="659" 
d="M299 710q141 0 230.5 -93t89.5 -244q0 -161 -96.5 -271.5t-261.5 -109.5q-78 1 -123 14q-33 8 -52.5 23t-25.5 44q-14 63 -16 95q-1 14 4.5 22.5t16.5 7.5q9 -1 15 -8.5t18 -28.5q28 -52 79 -86t122 -34q94 0 155 86t67 213q-70 -39 -127 -39q-32 0 -77.5 25t-69.5 25
q-23 0 -61.5 -20.5t-47.5 -20.5q-22 0 -22 19q0 21 57 55.5t101 34.5q25 0 79 -27.5t86 -27.5q42 0 82 25q-5 119 -64 198.5t-164 79.5q-35 0 -65 -10t-48 -21t-38 -35.5t-27 -35.5t-23 -38q-12 -21 -18.5 -28.5t-16.5 -7.5q-19 0 -17 35q2 73 16 129q7 31 15.5 42t22.5 11
q7 0 20 -6t25 -6q7 0 57.5 7t102.5 7z" />
    <glyph glyph-name="uni042E" unicode="&#x42e;" horiz-adv-x="1076" 
d="M42 20q0 12 9.5 19.5t20.5 13.5t20.5 29.5t9.5 62.5v410q0 32 -6 53t-14.5 30t-17 14.5t-14.5 11.5t-6 16q0 20 50 20h110q49 0 49 -20q0 -10 -6 -16t-14.5 -11.5t-17.5 -14.5t-15 -30t-6 -53v-180h152q18 145 119 240t246 95q146 0 235.5 -94.5t89.5 -240.5
q0 -167 -102.5 -276t-264.5 -109q-146 0 -236 93t-90 239v8h-149v-185q0 -39 9 -62.5t19.5 -29.5t19.5 -13.5t9 -19.5q0 -20 -49 -20h-110q-50 0 -50 20zM511 147q76 -99 200 -99q110 0 171 79t61 191q0 141 -74.5 240t-195.5 99q-110 0 -174.5 -79t-64.5 -182
q0 -150 77 -249z" />
    <glyph glyph-name="uni042F" unicode="&#x42f;" horiz-adv-x="644" 
d="M542 563v-417q0 -39 9.5 -62.5t20.5 -29.5t20.5 -13.5t9.5 -19.5q0 -20 -50 -20h-110q-50 0 -50 20q0 10 6 16t14.5 11.5t17 14.5t14.5 30t6 53v71q0 15 -3 17.5t-17 2.5h-74q-41 0 -77 6l-68 -134q-13 -33 -9 -43.5t16 -22t12 -20.5q0 -23 -49 -23h-108q-39 0 -39 20
q0 11 7.5 18t17.5 11.5t25 19t26 36.5l85 161q-63 27 -96 75.5t-33 109.5q0 111 86 180t241 69h159q28 0 39 -3.5t11 -16.5q0 -12 -9.5 -18.5t-20.5 -11.5t-20.5 -27t-9.5 -60zM450 310v318q0 15 -6.5 19.5t-27.5 6.5q-21 3 -42 3q-96 0 -152 -49.5t-56 -137.5
q0 -89 54.5 -138.5t137.5 -49.5q57 0 74.5 6t17.5 22z" />
    <glyph glyph-name="uni0430" unicode="&#x430;" horiz-adv-x="549" 
d="M83 260q58 45 150 45q53 0 108 -13q-8 32 -12 46t-13.5 36t-20.5 31t-30 16.5t-44 7.5q-63 0 -136 -42q-7 -5 -13 -5t-10 4.5t-4 9.5q0 6 5 14q20 30 72 54.5t115 24.5q77 0 116.5 -41.5t55.5 -114.5l46 -217q5 -24 14.5 -36.5t17 -15t19.5 -2.5q20 0 20 -12
q0 -20 -26 -38.5t-58 -18.5q-33 0 -47 18.5t-22 58.5q-30 -38 -77 -59t-92 -21q-89 0 -140.5 43.5t-51.5 109.5q0 72 58 117zM117 154q2 -50 35 -82t88 -32q52 0 93 30t41 59q0 4 -1 8q-2 11 -9 41t-12 52q-3 16 -36.5 24.5t-64.5 8.5q-65 0 -99.5 -28.5t-34.5 -77.5v-3z
" />
    <glyph glyph-name="uni0431" unicode="&#x431;" horiz-adv-x="564" 
d="M309 494q97 0 157.5 -69t60.5 -169q0 -115 -65.5 -190.5t-172.5 -75.5q-104 0 -175 79t-72 231q0 276 157 355q46 25 148 31q57 4 78 13q17 7 37 19q11 10 20.5 7t9.5 -19q0 -58 -64 -88q-31 -16 -103 -21.5t-114 -26.5q-43 -19 -71 -78.5t-33 -155.5q24 78 79 118
t123 40zM311 39q57 0 93 54t33 136q-4 94 -45.5 149.5t-111.5 55.5q-60 0 -99.5 -50t-39.5 -125q0 -88 44.5 -154t125.5 -66z" />
    <glyph glyph-name="uni0432" unicode="&#x432;" horiz-adv-x="510" 
d="M341 267q69 -12 102 -46.5t33 -81.5q0 -139 -232 -139h-151q-48 0 -48 22q0 11 9.5 17.5t21 18t14.5 34.5q3 15 3 31v234q0 15 -3 32q-3 22 -14.5 33.5t-21 18t-9.5 17.5q0 22 48 22h144q195 0 196 -110q1 -39 -24.5 -66t-67.5 -37zM183 406v-110q0 -6 3 -9.5t10 -4.5
t13 -1.5t18 -0.5q66 0 93 19t27 60q0 38 -31 57.5t-83 19.5q-34 0 -42 -5t-8 -25zM240 43q78 0 112.5 20.5t34.5 70.5q0 47 -41 75.5t-118 28.5h-33q-12 0 -12 -11v-136q0 -32 9.5 -40t47.5 -8z" />
    <glyph glyph-name="uni0433" unicode="&#x433;" horiz-adv-x="438" 
d="M424 371q3 -33 -15 -35q-10 -2 -16 4t-23 31q-18 25 -30.5 36.5t-37 20t-62.5 8.5q-37 0 -46.5 -6t-9.5 -31v-267q0 -33 7.5 -53t16 -26.5t16 -14.5t7.5 -19q0 -19 -39 -19h-107q-40 0 -40 20q0 11 7.5 18.5t16.5 14t16.5 26.5t7.5 53v225q0 15 -3 32q-3 22 -14.5 33.5
t-21 18t-9.5 17.5q0 22 48 22h235q45 0 58.5 -6t19.5 -26q13 -38 18 -77z" />
    <glyph glyph-name="uni0434" unicode="&#x434;" horiz-adv-x="547" 
d="M26 -113q-22 0 -20 39q3 58 10 84q5 18 15 25t37 9q12 0 18 10q31 57 49.5 153.5t18.5 150.5q0 25 -9 43t-19 25t-19 15.5t-9 18.5q0 11 11 15.5t44 4.5h302q33 0 44 -4.5t11 -15.5q0 -9 -8.5 -17.5t-19 -15.5t-19 -24.5t-8.5 -42.5v-301q0 -15 16 -16q28 -2 37.5 -9
t13.5 -24q8 -32 11 -84q2 -39 -21 -39q-20 0 -37 38q-18 43 -40 59t-80 16h-172q-57 0 -79 -16t-40 -59q-17 -38 -38 -38zM137 44h227v356q0 24 -11.5 30t-60.5 6q-54 0 -69 -6t-16 -28q-19 -220 -70 -358z" />
    <glyph glyph-name="uni0435" unicode="&#x435;" horiz-adv-x="525" 
d="M107 414q72 76 182 76q80 0 133 -41.5t67 -107.5q1 -5 1 -10q0 -21 -24 -31q-129 -50 -330 -116q16 -50 60.5 -88t108.5 -38q91 0 158 71q9 9 17 9q4 0 9.5 -3t5.5 -12q0 -5 -3 -12q-19 -45 -78 -83t-145 -38q-104 0 -169 66.5t-65 166.5q0 114 72 191zM129 226
q154 51 233 81q20 8 20 27q0 3 -1 7q-7 45 -43 73.5t-75 28.5h-5q-63 -1 -99 -48.5t-36 -107.5q0 -41 6 -61z" />
    <glyph glyph-name="uni0436" unicode="&#x436;" horiz-adv-x="878" 
d="M720 395l-44 -47l109 -247q8 -19 20.5 -33t22 -20t17 -13.5t7.5 -16.5q0 -10 -9.5 -14t-33.5 -4h-103q-23 0 -31.5 4t-8.5 14q0 11 20 28.5t10 39.5l-85 193l-127 -136v-11q0 -33 7 -53t16 -26.5t16 -14.5t7 -19q0 -19 -39 -19h-107q-40 0 -40 20q0 11 7.5 18.5t17 14
t17 26.5t7.5 53v13l-125 134l-85 -193q-10 -22 9.5 -39.5t19.5 -28.5q0 -10 -8.5 -14t-30.5 -4h-103q-25 0 -34.5 4t-9.5 14q0 9 7.5 16.5t17 13.5t22.5 20t21 33l109 247l-44 47q-18 19 -35.5 31.5t-27.5 15.5t-16 8t-6 13q0 17 32 17h98q29 0 29 -18q0 -7 -12 -17t-17 -17
t8 -24l181 -193v137q0 33 -7.5 53t-16 26.5t-16 14.5t-7.5 19q0 19 39 19h107q40 0 40 -19q0 -11 -7.5 -19t-16.5 -14.5t-16.5 -26.5t-7.5 -53v-139l183 195q12 17 7.5 24t-16.5 17t-12 17q0 18 28 18h98q32 0 32 -17q0 -10 -8.5 -14.5t-30.5 -17t-45 -36.5z" />
    <glyph glyph-name="uni0437" unicode="&#x437;" horiz-adv-x="442" 
d="M278 267q64 -11 95 -47t31 -78q0 -73 -53.5 -112.5t-129.5 -39.5q-64 0 -114 24t-72 61q-11 17 1 25t26 -5q55 -51 138 -51q108 0 108 90q0 101 -165 106q-18 1 -17 19t18 20q75 6 106 35t31 65q0 28 -18 47.5t-56 19.5t-65 -18.5t-52 -52.5q-17 -23 -29 -23
q-15 0 -13 25q4 25 17 78q9 35 31 35q6 0 15 -4.5t17 -4.5q7 0 35 4.5t61 4.5q62 0 106 -27.5t45 -81.5q1 -43 -26 -73.5t-71 -40.5z" />
    <glyph glyph-name="uni0438" unicode="&#x438;" horiz-adv-x="611" 
d="M84 480h107q40 0 40 -19q0 -10 -6 -17t-13.5 -11t-15 -15.5t-10.5 -28.5t-3 -32v-195l233 197q9 8 10 11.5t1 6.5q0 4 -1 10q-4 22 -15.5 34.5t-20 20t-8.5 19.5q0 19 39 19h107q40 0 40 -19q0 -10 -6 -17t-13.5 -11t-15 -15.5t-10.5 -28.5q-3 -16 -3 -32v-234
q0 -16 3 -31q3 -18 11 -29.5t15.5 -15.5t13 -11t5.5 -17q0 -19 -39 -19h-107q-40 0 -40 20q0 12 9.5 18.5t21 18.5t14.5 35q3 15 3 31l-1 189l-232 -195q-10 -9 -10 -22v-4q4 -18 11.5 -30t14.5 -15.5t12.5 -10t5.5 -16.5q0 -19 -39 -19h-107q-40 0 -40 20q0 12 9.5 18.5
t21 18.5t14.5 35q3 15 3 31l-1 234q0 15 -3 32t-11 28.5t-15 15.5t-12.5 11t-5.5 17q0 19 39 19z" />
    <glyph glyph-name="uni0439" unicode="&#x439;" horiz-adv-x="611" 
d="M55 39q9 6 20.5 18t14.5 35q3 15 3 31l-1 234q0 15 -3 32t-11 28.5t-15 15.5t-12.5 11t-5.5 17q0 19 39 19h107q40 0 40 -19q0 -10 -6 -17t-13.5 -11t-15 -15.5t-10.5 -28.5t-3 -32v-195l233 197q9 8 10 11.5t1 6.5q0 4 -1 10q-4 22 -15.5 34.5t-20 20t-8.5 19.5
q0 19 39 19h107q40 0 40 -19q0 -10 -6 -17t-13.5 -11t-15 -15.5t-10.5 -28.5q-3 -16 -3 -32v-234q0 -16 3 -31q3 -18 11 -29.5t15.5 -15.5t13 -11t5.5 -17q0 -19 -39 -19h-107q-40 0 -40 20q0 12 9.5 18.5t21 18.5t14.5 35q3 15 3 31l-1 189l-232 -195q-10 -9 -10 -22v-4
q4 -18 11.5 -30t14.5 -15.5t12.5 -10t5.5 -16.5q0 -19 -39 -19h-107q-40 0 -40 20q0 12 10 19zM172 663q9 10 23 10q18 0 31.5 -15.5t21 -34.5t24 -34.5t39.5 -15.5t39 15.5t23 34.5t20.5 34.5t31.5 15.5q15 0 24.5 -10t9.5 -24q0 -45 -43.5 -75t-105.5 -30q-63 0 -105.5 30
t-42.5 75q0 14 10 24z" />
    <glyph glyph-name="uni043A" unicode="&#x43a;" horiz-adv-x="582" 
d="M441 395l-55 -59l103 -235q8 -19 20.5 -33t22 -20t17 -13.5t7.5 -16.5q0 -10 -9.5 -14t-33.5 -4h-103q-23 0 -31.5 4t-8.5 14q0 11 20 28.5t10 39.5l-79 180l-137 -145q1 -28 9 -46t16 -24t15 -13.5t7 -18.5q0 -19 -39 -19h-107q-40 0 -40 20q0 11 7.5 18.5t16.5 14
t16.5 26.5t7.5 53v216q0 33 -7 53t-16 26.5t-16 14.5t-7 19q0 19 39 19h107q40 0 40 -19q0 -11 -7.5 -19t-17 -14.5t-17 -26.5t-7.5 -53v-162l204 218q12 17 7.5 24t-16.5 17t-12 17q0 18 29 18h97q33 0 33 -17q0 -10 -9 -14.5t-31 -17t-45 -36.5z" />
    <glyph glyph-name="uni043B" unicode="&#x43b;" horiz-adv-x="555" 
d="M64 -10q-24 0 -45.5 13.5t-21.5 43.5q0 21 12 34.5t28 13.5q19 0 31 -19.5t23 -19.5q38 0 59 109t21 214q0 20 -9.5 34t-20.5 19.5t-20.5 13t-9.5 16.5q0 18 46 18h300q33 0 44 -4t11 -14q0 -11 -14 -20.5t-27.5 -23t-13.5 -34.5v-252q0 -33 7 -53t16 -26.5t16 -14.5
t7 -19q0 -19 -39 -19h-107q-39 0 -39 20q0 11 7.5 18.5t16.5 14t16.5 26.5t7.5 53v268q0 24 -11.5 29.5t-58.5 5.5q-52 0 -65 -5t-14 -27q0 -4 -2.5 -41.5t-3 -46.5t-3.5 -43t-5 -47t-6 -41.5t-8.5 -44t-10 -36.5t-13 -36t-16.5 -27q-32 -50 -85 -50z" />
    <glyph glyph-name="uni043C" unicode="&#x43c;" horiz-adv-x="672" 
d="M593 394l5 -262q1 -33 8.5 -53t16 -26.5t15.5 -14.5t7 -19q0 -19 -39 -19h-107q-40 0 -40 20q0 11 7.5 18.5t16.5 14t16.5 26.5t7.5 53l-2 225l-149 -295q-10 -21 -32 -28q-33 -7 -44 15l-149 298l-9 -236q-1 -26 5.5 -43t15 -22.5t15.5 -12.5t7 -15q0 -18 -35 -18h-65
q-38 0 -38 18q0 9 7.5 16t17 12.5t17.5 22t9 42.5l12 283q1 18 -5 30.5t-13.5 17.5t-13.5 11.5t-6 13.5q0 15 30 15h66q12 0 21 -14l170 -344l173 344q6 14 20 14h68q30 0 30 -15q0 -8 -9.5 -15.5t-18.5 -21t-9 -36.5z" />
    <glyph glyph-name="uni043D" unicode="&#x43d;" horiz-adv-x="606" 
d="M514 348v-216q0 -33 7.5 -53t16 -26.5t16 -14.5t7.5 -19q0 -19 -39 -19h-107q-40 0 -40 20q0 11 7.5 18.5t16.5 14t16.5 26.5t7.5 53v51q0 25 -10 30q-12 7 -108 7q-100 0 -112 -7q-9 -7 -9 -30v-51q0 -33 7.5 -53t16 -26.5t16 -14.5t7.5 -19q0 -19 -39 -19h-107
q-40 0 -40 20q0 11 7.5 18.5t16.5 14t16.5 26.5t7.5 53v216q0 33 -7 53t-16 26.5t-16 14.5t-7 19q0 19 39 19h107q40 0 40 -19q0 -11 -7.5 -19t-17 -14.5t-17 -26.5t-7.5 -53v-48q0 -25 9 -31q15 -7 113 -7q96 0 108 7q9 7 9 31v48q0 33 -7 53t-16 26.5t-16 14.5t-7 19
q0 19 39 19h107q40 0 40 -19q0 -11 -7.5 -19t-17 -14.5t-17 -26.5t-7.5 -53z" />
    <glyph glyph-name="uni043E" unicode="&#x43e;" horiz-adv-x="566" 
d="M110 413q74 77 189 77q99 0 164.5 -68t65.5 -170q0 -112 -72.5 -187t-186.5 -75q-103 0 -169 63.5t-66 168.5q0 114 75 191zM176 105q49 -67 125 -67q63 0 100.5 45.5t37.5 118.5q0 96 -50.5 166.5t-124.5 70.5q-65 0 -101.5 -47.5t-36.5 -121.5q0 -99 50 -165z" />
    <glyph glyph-name="uni043F" unicode="&#x43f;" horiz-adv-x="604" 
d="M512 357v-225q0 -33 7.5 -53t16 -26.5t16 -14.5t7.5 -19q0 -19 -39 -19h-107q-40 0 -40 20q0 11 7.5 18.5t16.5 14t16.5 26.5t7.5 53v267q0 24 -18 30t-93 6q-85 0 -105.5 -6t-20.5 -30v-267q0 -33 7.5 -53t16 -26.5t16 -14.5t7.5 -19q0 -19 -39 -19h-107q-40 0 -40 20
q0 11 7.5 18.5t16.5 14t16.5 26.5t7.5 53v225q0 15 -3 32q-3 22 -14.5 33.5t-21 18t-9.5 17.5q0 22 48 22h419q49 0 49 -22q0 -11 -9.5 -17.5t-21.5 -18t-15 -33.5q-3 -16 -3 -32z" />
    <glyph glyph-name="uni0440" unicode="&#x440;" horiz-adv-x="593" 
d="M71 463q57 25 82 27h3q17 0 17 -22l-1 -81q61 103 182 103q92 0 147.5 -67t55.5 -171q0 -113 -62 -187t-155 -75h-5q-41 0 -82.5 14.5t-70.5 38.5l1 -111q0 -33 7 -53t16 -26.5t16 -14.5t7 -19q0 -19 -39 -19h-107q-39 0 -39 19q0 11 7.5 19t16.5 14.5t16.5 26.5t7.5 53
l-2 405q0 56 -30 74q-18 11 -18 23q0 16 29 29zM182 267v-70q0 -73 49.5 -117.5t105.5 -44.5h3q62 1 94.5 50.5t32.5 126.5q0 103 -42.5 159t-103.5 56q-64 0 -101.5 -49.5t-37.5 -110.5z" />
    <glyph glyph-name="uni0441" unicode="&#x441;" horiz-adv-x="516" 
d="M108 413q73 76 180 76q88 0 141 -49t53 -113q0 -25 -13 -39.5t-34 -14.5q-36 0 -51 51q-16 55 -44.5 86.5t-78.5 32.5q-64 0 -101 -47t-37 -121q0 -99 50.5 -158.5t133.5 -59.5q80 0 147 71q9 9 17 9q4 0 9.5 -3.5t5.5 -11.5q0 -5 -3 -12q-19 -46 -73.5 -83t-141.5 -37
q-104 0 -168.5 67t-64.5 166q0 113 73 190z" />
    <glyph glyph-name="uni0442" unicode="&#x442;" horiz-adv-x="479" 
d="M293 0h-107q-39 0 -39 20q0 12 9.5 18.5t21 18.5t14.5 35q3 15 3 31v292q0 20 -40 19q-34 0 -51.5 -12.5t-34.5 -47.5q-12 -25 -19 -33.5t-17 -8.5q-18 0 -18 34q2 46 11 79q5 21 19 28t59 7h273q45 0 59 -6.5t19 -27.5q9 -33 11 -79q0 -34 -18 -34q-10 0 -17 8.5
t-19 33.5q-17 35 -34.5 47t-51.5 13q-40 1 -40 -19v-293q0 -16 3 -31q3 -18 10.5 -29.5t14.5 -15.5t12.5 -11t5.5 -17q0 -19 -39 -19z" />
    <glyph glyph-name="uni0443" unicode="&#x443;" horiz-adv-x="533" 
d="M22 461q0 19 39 19h112q39 0 39 -19q0 -9 -14 -20t-18.5 -20t-4.5 -17q0 -15 9 -43l113 -290l113 290q9 30 9 46q0 6 -3 14.5t-15 19.5t-12 20q0 19 39 19h55q39 0 39 -19q0 -8 -6.5 -15.5t-15.5 -14.5t-22 -25t-23 -45l-132 -340q-48 -125 -73 -162q-47 -68 -124 -69
q-43 0 -68.5 21t-25.5 49q0 21 13 36.5t33 16.5q14 0 26 -9t20.5 -20.5t21.5 -21t28 -9.5q25 0 42.5 34t17.5 75q0 32 -19 78l-127 321q-10 27 -23 45t-22 25t-15 14.5t-6 15.5z" />
    <glyph glyph-name="uni0444" unicode="&#x444;" horiz-adv-x="772" 
d="M554 490q87 0 136 -67.5t46 -184.5q-4 -112 -57 -180t-137 -68q-58 0 -110 35v-93q0 -33 7.5 -53t16 -26.5t16 -14.5t7.5 -19q0 -19 -39 -19h-107q-40 0 -40 20q0 11 7.5 18.5t16.5 14t16.5 26.5t7.5 53v92q-49 -34 -108 -34q-84 0 -141 64.5t-57 177.5q0 106 53 182
t144 76q68 0 109 -52v114q0 30 -7.5 48t-17 23.5t-17 12.5t-7.5 17q0 8 5.5 13t22.5 13q67 31 94 33q19 2 19 -22l-1 -138v-117q43 55 122 55zM644 217q4 98 -27 157.5t-93 59.5q-42 0 -66.5 -31.5t-24.5 -80.5v-220q0 -24 28.5 -44t71.5 -20q105 0 111 179zM257 38
q38 0 61 19.5t23 44.5v220q0 50 -25.5 80.5t-70.5 30.5q-56 0 -87 -54t-31 -127q0 -107 38 -160.5t92 -53.5z" />
    <glyph glyph-name="uni0445" unicode="&#x445;" horiz-adv-x="527" 
d="M26 20q0 10 11 18.5t35 27t46 46.5l97 123l-93 132q-16 23 -34.5 40t-30 23.5t-19 14t-7.5 16.5q0 19 39 19h133q39 0 39 -19q0 -8 -8 -16l-15 -15q-5 -5 -5 -16q0 -3 1 -13t18 -34l52 -74l57 75q18 23 19.5 33.5t1.5 14.5q0 10 -4 15l-15 14q-8 8 -8 16q0 19 39 19h71
q39 0 39 -19q0 -11 -11 -19t-35 -27t-45 -47l-84 -111l102 -144q16 -23 34.5 -40t30 -23.5t19 -14t7.5 -16.5q0 -19 -39 -19h-132q-40 0 -40 20q0 7 8 15l15 15q5 5 5 16q0 3 -1 13t-18 34l-62 88l-69 -89q-18 -23 -20 -33.5t-2 -14.5q0 -9 5.5 -15t13.5 -14t8 -16
q0 -19 -39 -19h-70q-40 0 -40 20z" />
    <glyph glyph-name="uni0446" unicode="&#x446;" horiz-adv-x="600" 
d="M573 -113q-21 0 -37 38q-19 43 -41 59t-79 16h-323q-48 0 -48 22q0 10 7.5 18.5t16.5 15.5t16.5 24.5t7.5 42.5v225q0 33 -7 53t-16 26.5t-16 14.5t-7 19q0 19 39 19h107q40 0 40 -19q0 -11 -7.5 -19t-17 -14.5t-17 -26.5t-7.5 -53v-275q0 -17 19.5 -22t92.5 -5
q82 0 103.5 5t21.5 22v275q0 33 -7 53t-16 26.5t-16 14.5t-7 19q0 19 39 19h107q40 0 40 -19q0 -11 -7.5 -19t-17 -14.5t-17 -26.5t-7.5 -53v-284q0 -13 3.5 -16.5t18.5 -4.5q26 -2 35.5 -9t13.5 -24q7 -26 10 -84q2 -39 -20 -39z" />
    <glyph glyph-name="uni0447" unicode="&#x447;" horiz-adv-x="548" 
d="M456 348v-216q0 -33 7.5 -53t16 -26.5t16 -14.5t7.5 -19q0 -19 -39 -19h-107q-40 0 -40 20q0 11 7.5 18.5t16.5 14t16.5 26.5t7.5 53v46q-67 -18 -144 -18q-80 0 -116.5 39t-36.5 104l-1 44q0 33 -7.5 53t-16 26.5t-16 14.5t-7.5 19q0 19 39 19h107q40 0 40 -20
q0 -11 -7.5 -19t-16 -14t-16.5 -26.5t-9 -52.5v-22q-1 -26 2 -45t11.5 -37t28 -28t48.5 -10q62 0 118 19v124q0 33 -7 53t-16 26.5t-16 14.5t-7 19q0 19 39 19h107q40 0 40 -19q0 -11 -7.5 -19t-17 -14.5t-17 -26.5t-7.5 -53z" />
    <glyph glyph-name="uni0448" unicode="&#x448;" horiz-adv-x="859" 
d="M771 92q3 -23 14.5 -34.5t21 -18t9.5 -17.5q0 -22 -48 -22h-675q-48 0 -48 22q0 11 9.5 17.5t21 18t14.5 34.5q3 15 3 31v225q0 33 -7 53t-16 26.5t-16 14.5t-7 19q0 19 39 19h107q40 0 40 -19q0 -11 -7.5 -19t-17 -14.5t-17 -26.5t-7.5 -53v-258q0 -25 18 -34.5t77 -9.5
q67 0 86.5 9t19.5 35v258q0 33 -7 53t-15.5 26.5t-15.5 14.5t-7 19q0 19 39 19h105q39 0 39 -19q0 -11 -7.5 -19t-16 -14.5t-16 -26.5t-7.5 -53v-258q0 -25 18 -34.5t77 -9.5q67 0 86.5 9.5t19.5 34.5v258q0 33 -7.5 53t-16 26.5t-16 14.5t-7.5 19q0 19 39 19h108
q39 0 39 -19q0 -11 -7.5 -19t-16.5 -14.5t-16.5 -26.5t-7.5 -53v-225q0 -16 3 -31z" />
    <glyph glyph-name="uni0449" unicode="&#x449;" horiz-adv-x="874" 
d="M847 -113q-21 0 -37 38q-19 43 -41 59t-79 16h-597q-48 0 -48 22q0 9 7.5 16t16.5 12.5t16.5 24t7.5 48.5v225q0 33 -7 53t-16 26.5t-16 14.5t-7 19q0 19 39 19h107q40 0 40 -19q0 -11 -7.5 -19t-17 -14.5t-17 -26.5t-7.5 -53v-277q0 -16 16 -20.5t78 -4.5q71 0 89 4
t18 21v277q0 33 -7 53t-15.5 26.5t-15.5 14.5t-7 19q0 19 39 19h105q39 0 39 -19q0 -11 -7.5 -19t-16 -14.5t-16 -26.5t-7.5 -53v-277q0 -16 16.5 -20.5t78.5 -4.5q70 0 88 4.5t18 20.5v277q0 33 -7.5 53t-16 26.5t-16 14.5t-7.5 19q0 19 39 19h108q39 0 39 -19
q0 -11 -7.5 -19t-16.5 -14.5t-16.5 -26.5t-7.5 -53v-283q0 -14 3.5 -17.5t19.5 -3.5q36 -1 48.5 -7.5t17.5 -26.5q7 -26 10 -84q2 -39 -20 -39z" />
    <glyph glyph-name="uni044A" unicode="&#x44a;" horiz-adv-x="568" 
d="M306 307q228 -1 228 -157q0 -150 -232 -150h-150q-49 0 -49 22q0 11 9.5 17.5t21 18t15.5 34.5q3 15 3 31v264q0 49 -31 49q-22 0 -38.5 -13.5t-35.5 -45.5q-13 -22 -19.5 -29t-16.5 -7q-19 0 -17 34q3 36 12 70q5 21 19.5 28t58.5 7h157q48 0 48 -22q0 -11 -9.5 -17.5
t-21 -18t-14.5 -33.5q-3 -16 -3 -32v-33q0 -11 4 -15.5t13 -3.5q32 2 48 2zM299 43q78 0 112 22t34 78q0 58 -43 89.5t-115 31.5h-16q-30 0 -30 -20v-153q0 -26 11.5 -37t46.5 -11z" />
    <glyph glyph-name="uni044B" unicode="&#x44b;" horiz-adv-x="708" 
d="M249 307q227 -1 227 -157q0 -150 -232 -150h-151q-48 0 -48 22q0 11 9.5 17.5t21 18t14.5 34.5q3 15 3 31v225q0 33 -7 53t-16 26.5t-16 14.5t-7 19q0 19 39 19h107q40 0 40 -19q0 -11 -7.5 -19t-17 -14.5t-17 -26.5t-7.5 -53v-24q0 -10 4.5 -15t12.5 -4q32 2 48 2z
M617 348v-216q0 -33 7 -53t16 -26.5t16 -14.5t7 -19q0 -19 -39 -19h-107q-40 0 -40 20q0 11 7.5 18.5t17 14t17 26.5t7.5 53v216q0 33 -7.5 53t-16 26.5t-16 14.5t-7.5 19q0 19 39 19h107q40 0 40 -19q0 -11 -7.5 -19t-16.5 -14.5t-16.5 -26.5t-7.5 -53zM242 43
q78 0 111.5 22t33.5 78q0 58 -43 89.5t-114 31.5h-16q-29 0 -29 -20v-153q0 -26 11.5 -37t45.5 -11z" />
    </font>
</defs>
</svg>
