<?xml version="1.0" standalone="no"?>
<!DOCTYPE svg PUBLIC "-//W3C//DTD SVG 1.1//EN" "http://www.w3.org/Graphics/SVG/1.1/DTD/svg11.dtd" >
<svg xmlns="http://www.w3.org/2000/svg" xmlns:xlink="http://www.w3.org/1999/xlink" version="1.1">
<metadata>
Created by FontForge 20201107 at Mon Nov 16 14:50:28 2020
 By 
Copyright (c) 2020 by Elena Genova. All rights reserved.
</metadata>
<defs>
<font id="RocaOne-LtIt" horiz-adv-x="0" >
  <font-face 
    font-family="RocaOne-LtIt"
    font-weight="400"
    font-style="italic"
    font-stretch="normal"
    units-per-em="1000"
    panose-1="0 0 4 0 0 0 0 0 0 0"
    ascent="770"
    descent="-230"
    x-height="487"
    cap-height="700"
    bbox="-768 -474 1426 935"
    underline-thickness="50"
    underline-position="-100"
    slope="-8.05"
    unicode-range="U+0020-E0FA"
  />
<missing-glyph horiz-adv-x="450" 
d="M369 700v-900h-285v900h285zM150 -16h150v102h-150v-102zM150 -66h63l-63 -42v-30h150v30h-92l63 42h29v30h-150v-30zM150 140h150v102h-90v-50h30v20h30v-42h-90v72h-30v-102zM150 430h150v31h-60v63h-90v-94zM150 547h150v30h-60v33h60v30h-149v-30h59v-33h-60v-30z
M150 313h90v63h60v30h-150v-30h60v-33h-60v-30zM150 262h150v90h-30v-60h-120v-30zM270 57v-43h-90v43h90zM180 493h30v-32h-30v32z" />
    <glyph glyph-name="fl" unicode="fl" horiz-adv-x="590" 
d="M553 679l-84 -583q-5 -37 17 -37q10 0 24 14t20 14q12 0 10 -14q-3 -30 -31 -55t-64 -25q-41 0 -59 26t-10 72l61 424q11 76 -8.5 110.5t-60.5 34.5q-36 0 -62.5 -16.5t-41 -48t-22 -61t-13.5 -71.5l95 21q25 5 31.5 -1t1.5 -26q-4 -18 -11.5 -26.5t-13 -10t-24.5 -4.5
l-88 -16l-66 -466q-2 -14 -23 -20l-54 -16q-23 -7 -31.5 3t4.5 27q14 18 21 80l54 378l-43 -9q-18 -4 -24.5 2t-2.5 24q6 23 33 29l45 10l3 24q15 114 89.5 179t218.5 65q63 0 87 -6.5t22 -24.5z" />
    <glyph glyph-name=".notdef" horiz-adv-x="450" 
d="M369 700v-900h-285v900h285zM150 -16h150v102h-150v-102zM150 -66h63l-63 -42v-30h150v30h-92l63 42h29v30h-150v-30zM150 140h150v102h-90v-50h30v20h30v-42h-90v72h-30v-102zM150 430h150v31h-60v63h-90v-94zM150 547h150v30h-60v33h60v30h-149v-30h59v-33h-60v-30z
M150 313h90v63h60v30h-150v-30h60v-33h-60v-30zM150 262h150v90h-30v-60h-120v-30zM270 57v-43h-90v43h90zM180 493h30v-32h-30v32z" />
    <glyph glyph-name=".null" 
 />
    <glyph glyph-name="uni000D" horiz-adv-x="333" 
 />
    <glyph glyph-name="space" unicode=" " horiz-adv-x="200" 
 />
    <glyph glyph-name="exclam" unicode="!" horiz-adv-x="220" 
d="M100 262q7 87 7 177q0 31 -1.5 86.5t-1.5 91.5q0 20 1 26q5 30 24.5 48.5t45.5 18.5q27 0 40 -16t13 -37q0 -7 -1 -14q-3 -20 -42 -146.5t-60 -234.5l-3 -10q-1 -4 -4 -6t-8 -2q-10 0 -10 13v5zM47 90q21 19 48 19q22 0 37 -14.5t15 -40.5q0 -30 -20 -48t-47 -18
q-23 0 -38.5 13.5t-15.5 39.5q0 30 21 49z" />
    <glyph glyph-name="quotedbl" unicode="&#x22;" horiz-adv-x="363" 
d="M279 664q10 49 53 49q42 0 42 -50q0 -47 -54 -199q-7 -28 -26 -28t-19 34q-1 47 -1 83q0 85 5 111zM115 664q12 49 54 49q41 0 41 -50q0 -47 -54 -199q-7 -28 -26 -28q-17 0 -19 34q-1 47 -1 83q0 85 5 111z" />
    <glyph glyph-name="numbersign" unicode="#" horiz-adv-x="697" 
d="M6 233l3 11q6 20 26 20h152l57 149h-147q-15 0 -15 12q0 3 1 8l3 11q5 20 25 20h153l85 219q6 17 25 17h10q17 0 17 -12q0 -4 -2 -10l-84 -214h159l85 219q6 17 25 17h10q17 0 17 -12q0 -4 -2 -10l-84 -214h155q16 0 16 -13q0 -3 -1 -7l-3 -11q-6 -20 -26 -20h-160
l-58 -149h156q15 0 15 -12q0 -3 -1 -8l-3 -11q-5 -20 -25 -20h-162l-75 -196q-6 -17 -25 -17h-10q-17 0 -17 12q0 4 2 10l74 191h-159l-75 -196q-6 -17 -25 -17h-10q-17 0 -17 12q0 4 2 10l74 191h-146q-16 0 -16 13q0 3 1 7zM238 264h159l57 149h-158z" />
    <glyph glyph-name="dollar" unicode="$" horiz-adv-x="523" 
d="M30 143q2 30 21 30q15 0 28 -28q47 -109 155 -110h4q57 0 93 28.5t45 73.5q2 11 2 21q0 11 -4.5 25.5t-25 31t-35 25t-47.5 24.5q-15 7 -22 11q-84 44 -107 62q-56 44 -56 106q0 10 1 20q9 59 63 103.5t138 52.5l6 37q2 21 25 21q11 0 14.5 -3.5t3.5 -12.5v-5l-5 -36
q16 -1 43 -5.5t38 -4.5q10 0 22 5t19 5q12 0 16 -8.5t7 -38.5q4 -50 4 -72v-8v-5q0 -24 -17 -24q-14 0 -33 31q-10 17 -24 32.5t-45 32t-67 16.5q-51 0 -84 -24t-38 -61q-1 -7 -1 -13q0 -15 6 -30.5t29 -33t39 -27t56 -29.5q7 -4 31.5 -16.5t33.5 -17.5t29 -17.5t28 -20.5
t21 -22t18 -26.5t8 -27t3 -25.5q0 -7 -1 -14q-8 -76 -75 -125t-155 -55l-7 -51q-2 -21 -24 -21q-12 0 -15.5 4t-3.5 10q0 3 1 7l6 51q-26 1 -56 5.5t-40 4.5q-11 0 -23 -5.5t-19 -5.5q-12 0 -18 11t-7 38q0 9 -1 38t-1 46v20z" />
    <glyph glyph-name="percent" unicode="%" horiz-adv-x="820" 
d="M449 178q11 84 66.5 139.5t127.5 55.5q69 0 102 -46.5t33 -104.5q0 -17 -2 -35q-12 -85 -66.5 -140.5t-126.5 -55.5q-70 0 -103.5 46.5t-33.5 103.5q0 18 3 37zM74 515q12 85 67 140t127 55q69 0 102 -46.5t33 -104.5q0 -17 -2 -35q-12 -86 -66 -141t-126 -55
q-70 0 -103.5 47t-33.5 105q0 17 2 35zM541 81q19 -50 59 -50q35 0 60 33.5t32 91.5q5 32 5 59q0 41 -14.5 80t-54.5 39q-35 0 -61 -32.5t-33 -88.5q-5 -32 -5 -59q0 -42 12 -73zM167 419q19 -51 59 -51q34 0 59 33.5t33 91.5q4 30 4 56q0 43 -14.5 82.5t-54.5 39.5
q-35 0 -60.5 -32.5t-33.5 -88.5q-4 -30 -4 -56q0 -44 12 -75zM124 30l555 664q9 10 18 10q5 0 11 -4l5 -3q6 -6 6 -13t-6 -15l-557 -663q-8 -10 -16 -10q-6 0 -12 5l-2 2q-8 6 -8 13t6 14z" />
    <glyph glyph-name="ampersand" unicode="&#x26;" horiz-adv-x="817" 
d="M44 243q10 70 59 124.5t113 82.5q-48 32 -48 90q0 12 2 24q8 62 68 105t138 43q87 0 128 -49q8 -10 8 -19q0 -7 -6 -14t-14 -7q-7 0 -16 7q-42 30 -95 30q-46 0 -80 -25t-40 -66q-2 -13 -2 -24q0 -45 31 -71q17 2 31 2q20 0 39 -6t19 -23v-3q-4 -28 -24.5 -30.5
t-27.5 -2.5q-29 0 -63 17q-97 -61 -111 -171q-2 -16 -2 -32q0 -69 53 -126.5t163 -57.5q101 0 154.5 52t62.5 113q2 15 2 27q0 32 -14.5 57.5t-58.5 25.5q-42 0 -67 -28.5t-30 -68.5q-2 -10 -10 -10q-2 0 -5 1q-17 6 -17 32q0 6 1 13q8 57 78 101q24 14 74 36t62 28
q75 37 110 70t38 56.5t3 27.5q0 33 -37 33q-13 0 -40 -10q-5 -2 -10 -2q-4 0 -9 2t-5 9q0 1 0.5 6t11.5 15q35 30 87 30q42 0 65 -21.5t23 -50.5q0 -7 -1 -15q-18 -129 -259 -212q51 -13 74.5 -47t23.5 -72q0 -10 -1 -20q-12 -86 -102 -156.5t-239 -70.5q-79 0 -139 21
t-94 56.5t-45.5 72.5t-11.5 69q0 16 2 32z" />
    <glyph glyph-name="quotesingle" unicode="'" horiz-adv-x="198" 
d="M115 664q12 49 54 49q41 0 41 -50q0 -47 -54 -199q-7 -28 -26 -28q-17 0 -19 34q-1 47 -1 83q0 85 5 111z" />
    <glyph glyph-name="parenleft" unicode="(" horiz-adv-x="377" 
d="M56 334q21 148 112.5 259.5t218.5 176.5q14 7 23 8q9 -1 13 -8q2 -4 2 -8q0 -12 -20 -26q-207 -142 -243 -405q-7 -47 -7 -90q0 -197 139 -322q13 -12 13 -23q0 -6 -4 -11q-7 -9 -19 -9q-8 0 -18 4q-108 60 -162 161t-54 211q0 40 6 82z" />
    <glyph glyph-name="parenright" unicode=")" horiz-adv-x="379" 
d="M-7 -81q211 151 248 412q7 48 7 92q0 198 -137 313q-13 11 -13 21q0 7 6 13q6 7 15 7t21 -7q108 -66 160.5 -162.5t52.5 -199.5q0 -36 -5 -74q-23 -162 -118 -278t-221 -176q-10 -5 -18 -5q-11 0 -17 10q-2 3 -2 7q0 12 21 27z" />
    <glyph glyph-name="asterisk" unicode="*" horiz-adv-x="472" 
d="M76 555q10 19 24.5 24.5t24.5 5.5q9 0 19 -3q16 -6 43 -35t30 -32q10 -8 20 -8q8 0 19 7t11 24q0 4 -1 8q-2 12 -11 44.5t-9 50.5v6q3 21 18.5 35.5t35.5 14.5t30.5 -13t10.5 -29q0 -4 -1 -8q-2 -17 -23.5 -54t-25.5 -47q-4 -9 -4 -17q0 -10 7.5 -16t14.5 -6q10 0 21 8
q8 5 42 33t52 34q10 3 19 3q10 0 23 -6t17 -24q1 -5 1 -10q0 -14 -10 -29t-31 -23q-5 -5 -26 -5q-11 0 -36.5 2t-39.5 2h-6q-24 -1 -29 -13.5t-5 -17.5q0 -12 12 -21q7 -5 40.5 -23t43.5 -33q8 -12 8 -26q0 -5 -2.5 -17.5t-18 -24.5t-31.5 -12q-3 0 -14 1.5t-23 18.5
q-10 14 -17 55t-11 53q-7 19 -23 19l-8.5 -0.5t-21.5 -19.5q-7 -13 -25 -53t-32 -54q-16 -17 -36 -19q-4 -1 -7 -1q-15 0 -26.5 11.5t-11.5 28.5q0 1 1 12t17 28q10 11 27 20.5t39.5 19.5t33.5 16q13 9 15.5 17t2.5 12q0 7 -5.5 14.5t-19.5 8.5h-7q-15 0 -41 -2t-37 -2
q-22 0 -24 5q-19 8 -23.5 20.5t-4.5 19.5q0 11 5 22z" />
    <glyph glyph-name="plus" unicode="+" horiz-adv-x="427" 
d="M31 373v3q3 18 10 24t25 6h122l18 123q2 18 9 24t25 6h4q18 0 22.5 -5t4.5 -16q0 -4 -1 -9l-18 -123h123q18 0 22.5 -5t4.5 -16q0 -4 -1 -9v-3q-2 -18 -9 -24t-25 -6h-123l-18 -123q-2 -18 -9 -24t-25 -6h-4q-18 0 -22.5 5t-4.5 16q0 4 1 9l18 123h-123q-18 0 -22.5 5
t-4.5 16q0 4 1 9z" />
    <glyph glyph-name="comma" unicode="," horiz-adv-x="227" 
d="M20 -125q0 6 22.5 32t22.5 47q0 13 -19.5 38t-19.5 49q0 30 19.5 48t43.5 18q28 0 45.5 -18.5t17.5 -49.5q0 -67 -43.5 -121t-75.5 -54q-13 0 -13 11z" />
    <glyph glyph-name="hyphen" unicode="-" horiz-adv-x="354" 
d="M59 287l4 11q6 16 22 16h211q14 0 14 -11q0 -3 -1 -8l-5 -11q-6 -16 -22 -16h-211q-14 0 -14 10q0 4 2 9z" />
    <glyph glyph-name="period" unicode="." horiz-adv-x="219" 
d="M47 92q21 19 48 19q22 0 37 -14.5t15 -40.5q0 -30 -20 -48t-47 -18q-23 0 -38.5 13.5t-15.5 39.5q0 30 21 49z" />
    <glyph glyph-name="slash" unicode="/" horiz-adv-x="392" 
d="M0 -74l361 795q7 19 27 19h11q19 0 19 -12q0 -6 -4 -14l-360 -795q-9 -19 -28 -19h-10q-19 0 -19 13q0 5 3 13z" />
    <glyph glyph-name="zero" unicode="0" horiz-adv-x="613" 
d="M71 361q22 156 103.5 252.5t191.5 96.5q116 0 165.5 -88t49.5 -193q0 -42 -7 -89q-22 -157 -102.5 -253.5t-189.5 -96.5q-119 0 -168.5 88.5t-49.5 193.5q0 42 7 89zM171 282q2 -66 12.5 -121.5t38.5 -91.5t68 -37h2q64 0 108 76.5t61 184.5q9 70 9 137q0 16 -1.5 64.5
t-33 109t-84.5 61.5h-2q-66 0 -108 -73.5t-60 -182.5q-10 -52 -10 -108v-19z" />
    <glyph glyph-name="one" unicode="1" horiz-adv-x="346" 
d="M64 36q9 9 20.5 16t22.5 25t15 43l61 433q2 12 2 21q0 16 -5.5 27.5t-33.5 19.5q-30 8 -30 22v2q1 8 12 14.5t52 21.5q74 27 97 29h3q15 0 15 -16v-6l-81 -568q-2 -10 -2 -19q0 -20 10 -36t24 -26.5t14 -20.5q0 -18 -43 -18h-118q-44 0 -44 18q0 9 9 18z" />
    <glyph glyph-name="two" unicode="2" horiz-adv-x="581" 
d="M10 20q0 19 17 33q68 55 111.5 92t101.5 91t92.5 94.5t62 87t32.5 84.5q2 13 2 24q0 44 -28 76t-87 32q-90 0 -170 -90q-9 -10 -17 -10q-4 0 -9 3t-5 10q0 6 5 14q33 61 98.5 105t144.5 44q88 0 131 -48t43 -110q0 -17 -3 -35q-14 -86 -96 -176.5t-252 -217.5
q35 0 95 -15.5t112 -15.5q30 0 51.5 9.5t30.5 21.5t17.5 21.5t15.5 9.5q15 0 15 -25q-1 -52 -36.5 -91t-89.5 -39q-60 0 -141 28.5t-110 28.5q-22 0 -56 -31t-50 -31h-2q-26 0 -26 26z" />
    <glyph glyph-name="three" unicode="3" horiz-adv-x="607" 
d="M49 167q5 2 9 2q9 0 16 -10q66 -101 197 -101q65 0 115.5 36.5t60.5 103.5q2 13 2 24q0 59 -50 95t-149 45q-15 1 -19 6.5t-4 9.5t3.5 11.5t15.5 15.5q120 85 218 186q-32 1 -87 12.5t-91 11.5q-52 0 -82 -29q-7 -7 -15 -16.5t-12 -14.5t-9.5 -8.5t-11.5 -3.5
q-9 0 -11.5 7.5t-2.5 15.5q0 6 2 17.5t5.5 25t7.5 25.5q15 39 37.5 57t65.5 18q45 0 129 -24t125 -24q10 0 28 19t28 19q18 0 21 -7t3 -10q0 -8 -8 -19q-125 -148 -250 -241q99 -8 158 -60.5t59 -128.5q0 -16 -2 -34q-12 -86 -81.5 -148.5t-189.5 -62.5q-93 0 -158.5 45.5
t-84.5 107.5q-1 4 -1 7q0 13 13 19z" />
    <glyph glyph-name="four" unicode="4" horiz-adv-x="598" 
d="M30 174q3 23 46.5 76.5t141.5 163.5q201 226 247 270q29 27 53 27t25 -24q-1 -3 -1 -7l-65 -458q22 0 42 6.5t25 6.5q12 -1 12 -14l-0.5 -7.5t-12.5 -38.5q-11 -38 -42 -38h-35l-15 -105q-4 -26 -24 -36q-30 -17 -62 -17q-19 0 -19 19v6l20 136l-301 -2q-14 0 -21 1.5
t-11 8.5t-4 17q0 4 1 9zM129 230q2 -8 17 -8h4h236l53 373q-157 -166 -301 -343q-10 -11 -10 -19q0 -1 1 -3z" />
    <glyph glyph-name="five" unicode="5" horiz-adv-x="590" 
d="M31 169q5 2 9 2q9 0 15 -10q68 -100 196 -100q74 0 120 40t55 101q2 14 2 27q0 73 -62.5 116.5t-206.5 60.5q-16 2 -16 14q0 5 4 13l110 248q8 19 25 19h2q49 -3 100 -3t104 3q36 2 61 18.5t32 16.5q13 0 13 -15q0 -6 -2 -13q-7 -29 -25 -61q-8 -14 -20.5 -20.5
t-37.5 -7.5q-55 -4 -114 -4t-122 4l-61 -141q173 -23 248.5 -86t75.5 -149q0 -17 -3 -35q-13 -90 -80 -153.5t-185 -63.5q-98 0 -164.5 45.5t-83.5 107.5q-1 4 -1 8q0 12 12 18z" />
    <glyph glyph-name="six" unicode="6" horiz-adv-x="596" 
d="M65 313q24 171 119.5 284t215.5 113q53 0 90 -18t53 -45q3 -6 3 -12q0 -8 -5.5 -13.5t-13.5 -5.5q-5 0 -11 3q-53 31 -116 31q-78 0 -136 -70t-74 -186q29 41 80 68t103 27q91 0 136.5 -63t45.5 -137q0 -20 -3 -42q-16 -111 -87 -184t-178 -73q-121 0 -174 76.5
t-53 176.5q0 33 5 70zM173 156q9 -48 40.5 -80.5t80.5 -33.5h7q57 0 97 46.5t52 119.5q4 24 4 47q0 54 -27 107.5t-96 55.5h-3q-59 0 -101.5 -45t-53.5 -116q-4 -27 -4 -52t4 -49z" />
    <glyph glyph-name="seven" unicode="7" horiz-adv-x="538" 
d="M88 47q7 53 48.5 127t82.5 128t120 152t110 139q-10 -1 -22 -1q-38 0 -103 13.5t-100 13.5q-31 0 -52.5 -12.5t-29.5 -27t-16.5 -27.5t-16.5 -13q-14 0 -14 24q0 62 34 104.5t91 42.5q46 0 129.5 -23t133.5 -23q20 0 40.5 20t35.5 20q16 0 18.5 -6t2.5 -8q0 -9 -10 -23
q-70 -84 -122 -152t-111.5 -158.5t-97.5 -179.5t-50 -170q-1 -16 -20 -16h-4q-32 2 -64 21q-14 8 -14 26q0 4 1 9z" />
    <glyph glyph-name="eight" unicode="8" horiz-adv-x="582" 
d="M43 178q8 55 53.5 107.5t114.5 88.5q-84 66 -84 144q0 10 1 20q11 75 80 123.5t169 48.5q86 0 134 -38t48 -93q0 -9 -1 -19q-15 -105 -164 -181q79 -51 104.5 -87.5t25.5 -80.5q0 -14 -2 -29q-12 -81 -85 -136t-180 -55q-104 0 -160 46t-56 113q0 14 2 28zM165 78
q38 -44 113 -44q55 0 94 34.5t47 83.5q1 7 1 14q0 35 -28 71.5t-109 86.5q-4 3 -20 13t-24 16q-89 -71 -102 -163q-2 -14 -2 -27q0 -50 30 -85zM258 480q35 -38 102 -79l4 -3q97 76 106 151q2 11 2 21q0 39 -27.5 67.5t-84.5 28.5q-48 0 -86 -27t-44 -74q-1 -8 -1 -15
q0 -38 29 -70z" />
    <glyph glyph-name="nine" unicode="9" horiz-adv-x="601" 
d="M79 445q16 111 98.5 188t185.5 77q114 0 161.5 -75.5t47.5 -172.5q0 -35 -5 -75q-25 -179 -108 -288t-211 -109q-125 0 -159 63q-3 6 -3 12q0 8 5.5 13.5t13.5 5.5q5 0 11 -3q52 -31 115 -31q78 0 136 69.5t75 186.5q-29 -42 -80.5 -68.5t-102.5 -26.5q-92 0 -137.5 61
t-45.5 133q0 19 3 40zM206 346q34 -65 105 -65q60 0 100.5 44.5t49.5 112.5q4 25 4 48q0 59 -29 116t-103 57q-61 0 -99.5 -46t-48.5 -115q-4 -24 -4 -46q0 -59 25 -106z" />
    <glyph glyph-name="colon" unicode=":" horiz-adv-x="219" 
d="M26 43q0 30 21 49t48 19q22 0 37 -14.5t15 -40.5q0 -30 -20 -48t-47 -18q-23 0 -38.5 13.5t-15.5 39.5zM70 353q0 30 21 49t48 19q22 0 37 -14.5t15 -40.5q0 -30 -20 -48t-47 -18q-23 0 -38.5 13.5t-15.5 39.5z" />
    <glyph glyph-name="semicolon" unicode=";" horiz-adv-x="230" 
d="M22 -125q0 6 22.5 32t22.5 47q0 13 -19.5 38t-19.5 49q0 30 19.5 48t42.5 18q28 0 45.5 -18.5t17.5 -49.5q0 -67 -43 -121t-75 -54q-13 0 -13 11zM70 353q0 30 21 49t48 19q22 0 37 -14.5t15 -40.5q0 -30 -20 -48t-48 -18q-23 0 -38 13.5t-15 39.5z" />
    <glyph glyph-name="equal" unicode="=" horiz-adv-x="527" 
d="M62 447v3q2 18 9 24t25 6h407q18 0 22.5 -5t4.5 -16q0 -4 -1 -9v-3q-2 -18 -9 -24t-25 -6h-407q-18 0 -22.5 5t-4.5 16q0 4 1 9zM38 278v3q2 18 9 24t25 6h407q18 0 22.5 -5t4.5 -16q0 -4 -1 -9v-3q-2 -18 -9 -24t-25 -6h-407q-18 0 -22.5 5t-4.5 16q0 4 1 9z" />
    <glyph glyph-name="question" unicode="?" horiz-adv-x="429" 
d="M67 572q7 53 67 95.5t144 42.5q86 0 128.5 -36t42.5 -83q0 -9 -1 -19q-5 -32 -28 -63t-49.5 -53t-60 -53t-51.5 -56q-24 -34 -32 -78q-3 -14 -11 -18t-13 -4t-11 4.5t-6 15.5v6q6 45 29.5 88t48 72t47.5 67.5t29 73.5q1 10 1 19q0 29 -16.5 50.5t-53.5 21.5
q-69 0 -112 -98q-7 -16 -12 -24.5t-15 -15.5t-25 -7q-21 0 -31 12t-10 28q0 6 1 12zM142 90q21 19 48 19q22 0 37 -14.5t15 -40.5q0 -30 -20 -48t-48 -18q-23 0 -38 13.5t-15 39.5q0 30 21 49z" />
    <glyph glyph-name="at" unicode="@" horiz-adv-x="822" 
d="M53 303q23 162 150.5 272.5t293.5 110.5q149 0 225 -82.5t76 -187.5q0 -25 -4 -52q-13 -95 -72 -168t-144 -73q-75 0 -90 67q-52 -68 -123 -68q-49 0 -84 38t-35 102q0 85 57.5 156.5t140.5 71.5q21 0 52 -8t38 -8q12 0 28.5 8t24.5 8q15 0 15 -21q0 -4 -1 -10l-33 -232
q-2 -11 -2 -20q0 -40 33 -40h2q52 0 94.5 58.5t54.5 138.5q3 23 3 45q0 94 -67 165.5t-195 71.5q-146 0 -259 -98t-134 -244q-4 -29 -4 -56q0 -105 73.5 -183.5t217.5 -78.5q78 0 139 19q6 2 11 2q7 0 11 -4t4 -9q0 -3 -3 -10t-17 -12q-63 -24 -154 -24q-165 0 -246 89.5
t-81 206.5q0 28 4 59zM314 288q0 -61 25 -88t57 -27q43 0 75.5 47t44.5 122l10 67v1q0 7 -9.5 17t-30.5 19t-44 9q-59 0 -93.5 -54t-34.5 -113z" />
    <glyph glyph-name="A" unicode="A" horiz-adv-x="686" 
d="M-27 19q2 11 11.5 18t22 12t30.5 23t33 46l256 481q8 19 8 29q0 6 -4.5 12t-15.5 16t-11 20v3q2 21 30 21h92q19 0 23 -18l143 -564q7 -27 18.5 -44.5t21 -23t15 -11.5t5.5 -14v-3q-4 -22 -51 -22h-117q-39 0 -39 17v2q2 10 12 18.5t20 14.5t14 18t4 22q0 12 -4 27
l-16 63q-5 19 -16 23q-15 6 -135 6q-115 0 -136 -3.5t-32 -26.5l-33 -63q-16 -36 -16 -50q0 -3 2 -9.5t13.5 -16.5t11.5 -19v-2q-4 -21 -40 -21h-81q-39 0 -39 17v2zM206 259q13 -5 123 -5q109 0 118 6q4 2 4 9q0 5 -2 11l-78 310l-165 -313q-4 -7 -4 -12q0 -4 4 -6z" />
    <glyph glyph-name="B" unicode="B" horiz-adv-x="643" 
d="M24 20q2 10 10.5 17t19 11.5t22 16.5t16.5 31q5 11 9 41l59 426q4 27 4 41q0 19 -8 31t-17 16.5t-15 10.5t-6 14v4q3 20 52 20h162q116 0 168.5 -36.5t52.5 -95.5q0 -11 -2 -22q-6 -49 -41 -83.5t-99 -45.5q93 -14 138.5 -61.5t45.5 -107.5q0 -13 -2 -27
q-31 -221 -339 -221h-182q-48 0 -48 18v2zM197 61q13 -16 61 -16q105 0 161.5 38t68.5 122q2 16 2 31q0 64 -48 109.5t-156 45.5q-37 0 -48 -8.5t-14 -30.5l-35 -237q-2 -12 -2 -21q0 -22 10 -33zM240 446q3 -4 14 -6t17 -2h22q80 0 117 23.5t44 73.5q1 9 1 18
q0 42 -31.5 72t-96.5 30q-34 0 -48.5 -7.5t-18.5 -32.5l-22 -157v-4q0 -5 2 -8z" />
    <glyph glyph-name="C" unicode="C" horiz-adv-x="687" 
d="M56 355q22 158 141 256.5t282 98.5q38 0 75.5 -7t46.5 -7q12 0 25.5 6t20.5 6q15 0 21.5 -11t9.5 -42q7 -67 8 -129q0 -32 -20 -35h-1q-19 0 -38 35q-15 26 -22 37.5t-25.5 33t-36 31.5t-46.5 18.5t-64 8.5q-107 0 -182 -81.5t-92 -196.5q-4 -33 -4 -63
q0 -99 55.5 -180.5t176.5 -81.5q122 0 223 96q10 9 17 9q6 0 9.5 -5t3.5 -11q0 -11 -11 -25q-35 -45 -107.5 -85.5t-166.5 -40.5q-153 0 -228 94.5t-75 210.5q0 29 4 60z" />
    <glyph glyph-name="D" unicode="D" horiz-adv-x="749" 
d="M24 20q2 10 10.5 17t19 11.5t22 16.5t16.5 31q5 11 9 41l59 426q4 27 4 41q0 19 -8 31t-17 16.5t-15 10.5t-6 14v4q3 20 52 20h206q103 0 177.5 -30.5t112 -81t49 -97.5t11.5 -86q0 -21 -3 -44q-10 -73 -39.5 -135.5t-79 -114t-126 -81.5t-172.5 -30h-234q-48 0 -48 18v2
zM206 57q22 -13 94 -13q277 0 317 270q5 33 5 63q0 108 -66.5 194t-221.5 86q-41 0 -55.5 -8.5t-18.5 -35.5l-72 -510q-1 -6 -1 -11q0 -24 19 -35z" />
    <glyph glyph-name="E" unicode="E" horiz-adv-x="623" 
d="M24 20q2 10 9 15.5t16.5 10t19.5 12.5t19 28t13 51l59 426q2 17 2 31q0 17 -4.5 34t-15 22t-17.5 11t-7 14v5q1 13 12.5 16.5t39.5 3.5l373 1q42 0 53 -5.5t15 -25.5q10 -47 10 -97v-9v-6q0 -26 -16 -31q-4 -1 -7 -1q-8 0 -14.5 6.5t-15.5 27.5q-19 49 -51 72t-90 23h-47
q-71 0 -94.5 -10t-26.5 -36l-16 -119q-1 -7 -1 -13q0 -22 16.5 -29t75.5 -7q36 0 60 5t31.5 11t15.5 11t17 5q19 0 22 -32l7 -85q1 -12 1 -21q0 -11 -2.5 -18.5t-14.5 -10.5q-3 -1 -5 -1q-7 0 -14 7t-15.5 21t-19.5 28t-34 24.5t-55 10.5q-31 0 -45.5 -1t-30 -5.5
t-21.5 -14.5t-9 -28l-36 -253q-1 -5 -1 -9q0 -21 17.5 -30.5t79.5 -9.5h12l77 1q61 0 88 19.5t57 71.5q23 39 42 39h3q11 -2 11 -20q0 -6 -1 -14q-14 -67 -31 -107q-7 -20 -23.5 -27.5t-62.5 -7.5h-383q-28 0 -37.5 3.5t-9.5 14.5v2z" />
    <glyph glyph-name="F" unicode="F" horiz-adv-x="606" 
d="M24 20q2 12 12.5 19.5t22.5 14t24.5 29.5t17.5 62l59 418q2 17 2 31q0 17 -4.5 34t-15 22t-17.5 11t-7 14v5q1 13 12.5 16.5t39.5 3.5l365 1q41 0 52.5 -5.5t14.5 -25.5q11 -49 11 -106v-6q0 -26 -17 -31q-4 -1 -7 -1q-8 0 -14 6.5t-15 27.5q-19 49 -50 72t-82 23h-47
q-72 0 -95 -10.5t-28 -39.5l-17 -125q-1 -8 -1 -14q0 -21 14 -28t55 -7h29q45 0 68.5 8t32.5 16t19 8q20 0 21 -32l8 -84q1 -12 1 -20q0 -13 -2.5 -20.5t-14.5 -10.5q-3 -1 -5 -1q-7 0 -13.5 7.5t-14.5 21t-19 27.5t-33 24.5t-53 10.5h-30q-28 0 -41.5 -2t-25.5 -13t-15 -34
l-27 -192q-3 -20 -3 -35q0 -16 4.5 -32.5t14 -23.5t17 -14t7.5 -16v-4q-4 -20 -53 -20h-110q-26 0 -36.5 4.5t-10.5 13.5v2z" />
    <glyph glyph-name="G" unicode="G" horiz-adv-x="739" 
d="M53 333q23 160 142.5 268.5t278.5 108.5q38 0 76 -7t48 -7q12 0 25.5 6t20.5 6q15 0 21.5 -11t9.5 -42q6 -56 7 -129q0 -32 -20 -35h-1q-18 0 -37 35q-18 31 -29 47t-34 38.5t-55.5 33t-76.5 10.5q-106 0 -181 -80t-92 -190q-5 -36 -5 -68q0 -102 55 -186t179 -84
q60 0 112 21.5t57 55.5l15 106q1 6 1 12q0 21 -13 36.5t-32 20.5t-33 13t-14 19v3q3 20 52 20h149q32 0 32 -17v-3q-2 -11 -8.5 -18t-14 -12t-16 -23.5t-12.5 -49.5l-13 -103q-4 -31 -47 -63t-110.5 -53.5t-135.5 -21.5q-159 0 -232 86.5t-73 197.5q0 28 4 59z" />
    <glyph glyph-name="H" unicode="H" horiz-adv-x="801" 
d="M24 20q2 12 15.5 20t29.5 20.5t22 35.5q6 14 9 31l61 446q2 20 2 31q-1 19 -8.5 31t-16 16.5t-13.5 10.5t-5 13v5q1 20 51 20h111q25 0 36 -4.5t11 -13.5v-2q-2 -10 -10.5 -17t-19 -11.5t-21.5 -16.5t-16 -31q-7 -16 -8 -31l-18 -130q-1 -9 -1 -16q0 -16 6 -21
q15 -11 127 -12h60q147 0 169 8q18 6 22 30q1 4 2 11l18 130q2 20 2 31q-1 19 -8.5 31t-16 16.5t-14 11t-5.5 14.5v3q1 20 52 20h110q26 0 36.5 -4.5t10.5 -13.5v-2q-1 -10 -10 -17t-19 -11.5t-21.5 -16.5t-16.5 -31q-7 -16 -8 -31l-62 -446q-2 -20 -2 -31q1 -19 8.5 -31
t16 -16.5t14 -11t5.5 -14.5v-3q-1 -20 -52 -20h-110q-26 0 -36.5 4.5t-10.5 13.5v2q1 10 10 17t19 11.5t21.5 16.5t16.5 31q7 16 8 31l24 174q1 9 1 16q0 16 -6 21q-15 12 -124 12h-52q-156 0 -180 -8q-19 -6 -23 -29l-25 -186q-2 -20 -2 -31q1 -19 8.5 -31t16 -16.5t14 -11
t5.5 -14.5v-3q-3 -20 -52 -20h-111q-25 0 -36 4.5t-11 13.5v2z" />
    <glyph glyph-name="I" unicode="I" horiz-adv-x="323" 
d="M24 20q2 12 15.5 20t29.5 20.5t22 35.5q6 14 9 31l61 446q2 20 2 31q-1 19 -8.5 31t-16 16.5t-13.5 10.5t-5 13v5q1 20 51 20h111q25 0 36 -4.5t11 -13.5v-2q-2 -10 -10.5 -17t-19 -11.5t-21.5 -16.5t-16 -31q-7 -16 -8 -31l-62 -446q-2 -20 -2 -31q1 -19 8.5 -31
t16 -16.5t14 -11t5.5 -14.5v-3q-3 -20 -52 -20h-111q-25 0 -36 4.5t-11 13.5v2z" />
    <glyph glyph-name="J" unicode="J" horiz-adv-x="532" 
d="M15 154q4 25 18.5 39.5t35.5 14.5q42 0 44 -50q2 -117 86 -117q110 0 140 219l44 313q2 20 2 31q-1 19 -8.5 31t-16 16.5t-14 11t-5.5 14.5v3q3 20 52 20h111q25 0 36 -4.5t11 -13.5v-2q-2 -10 -10.5 -17t-19 -11.5t-21.5 -16.5t-16 -31q-6 -14 -9 -31l-40 -291
q-19 -145 -80 -217.5t-177 -72.5q-88 0 -126.5 44.5t-38.5 93.5q0 12 2 24z" />
    <glyph glyph-name="K" unicode="K" horiz-adv-x="678" 
d="M24 21q2 12 12.5 21t22.5 15.5t24 24.5t16 46l62 444q2 12 2 22q0 16 -5.5 31t-15.5 20t-16.5 12.5t-6.5 16.5v5q1 12 12.5 16t39.5 4h110q26 0 36.5 -4.5t10.5 -13.5v-2q-2 -12 -12.5 -21t-22.5 -15.5t-24 -24.5t-16 -46l-31 -221l304 249q22 19 24.5 27t2.5 11
q0 6 -5.5 10t-13 11t-7.5 16v4q3 21 37 21h102q47 0 47 -18v-2q-2 -15 -14.5 -21t-43 -19.5t-61.5 -39.5l-107 -88l125 -404q7 -24 19.5 -39t23 -20t16.5 -11t6 -15v-3q-4 -20 -42 -20h-109q-26 0 -36.5 4.5t-10.5 14.5v4q1 9 14 20t17.5 19t4.5 18q0 11 -4 29l-100 342
l-198 -164l-22 -159q-2 -12 -2 -23q0 -15 5 -30t15 -20t17.5 -13t7.5 -18v-3q-4 -20 -53 -20h-110q-26 0 -36.5 4.5t-10.5 13.5v2z" />
    <glyph glyph-name="L" unicode="L" horiz-adv-x="567" 
d="M24 20q2 12 15.5 20t29.5 20.5t22 35.5q6 15 10 41l60 435q2 22 2 31q-1 19 -8.5 31.5t-16 16.5t-14 10t-5.5 13v5q1 12 13 16t39 4h111q26 0 36 -4t10 -14v-2q-1 -10 -10 -17t-19 -11.5t-21.5 -16.5t-16.5 -31q-6 -20 -7 -31l-68 -478q-1 -6 -1 -11q0 -19 14 -28.5
t59 -9.5h9l65 1q41 0 67.5 11t39 25t34.5 47q26 38 43 38q12 0 12 -19q0 -6 -1 -14q-10 -57 -28 -99q-8 -20 -24 -27.5t-61 -7.5h-343q-47 0 -47 18v2z" />
    <glyph glyph-name="M" unicode="M" horiz-adv-x="902" 
d="M24 21q1 11 10.5 18.5t21 13t23.5 23t17 44.5l83 466q2 10 2 19q0 11 -4 24t-12.5 20t-14.5 14.5t-6 15.5v2q3 19 41 19h80q19 0 26 -19l143 -520l310 520q10 19 30 19h75q21 0 28.5 -4t7.5 -13v-2q-2 -9 -11 -17t-19 -13.5t-19.5 -22t-12.5 -42.5l-49 -460q-1 -9 -1 -17
q0 -17 5.5 -31.5t14.5 -20.5t16 -14t7 -18v-3q-4 -22 -48 -22h-109q-26 0 -36 4.5t-10 13.5v4q1 11 11 19.5t22 15t23 24.5t14 45l51 450l-307 -511q-10 -16 -29 -21q-7 -2 -13 -2q-15 0 -19 13l-141 516l-80 -451q-2 -13 -2 -25q0 -11 3.5 -24t12.5 -18.5t15 -12.5t6 -15
v-4q-2 -12 -13 -16.5t-35 -4.5h-67q-23 0 -32 4t-9 13v4z" />
    <glyph glyph-name="N" unicode="N" horiz-adv-x="753" 
d="M-1 21q1 11 10.5 18.5t20 13t21.5 23t15 44.5l62 444q2 16 2 29q0 17 -5 34t-15.5 22t-18 11.5t-7.5 15.5v4q4 20 53 20h45q17 0 29 -16l381 -493l53 389q2 11 2 20q0 14 -5 28t-14 19.5t-15.5 13t-6.5 16.5v2q2 12 13 16.5t35 4.5h67q23 0 32 -4t9 -13v-4
q-1 -10 -10.5 -18t-20.5 -13.5t-21.5 -23t-14.5 -44.5l-78 -556q-3 -24 -20 -24h-10q-17 0 -17 18v6q1 6 1 12q0 27 -19 50l-377 482l-60 -448q-2 -11 -2 -20q0 -14 5 -28t14.5 -19.5t16 -13t6.5 -16.5v-2q-2 -12 -13 -16.5t-35 -4.5h-68q-23 0 -31.5 4t-8.5 13v4z" />
    <glyph glyph-name="O" unicode="O" horiz-adv-x="776" 
d="M170 586q118 122 287 122q137 0 216.5 -85.5t79.5 -207.5q0 -180 -112.5 -301t-275.5 -121h-16q-123 3 -210 86.5t-87 214.5q0 170 118 292zM215 114q62 -71 170 -71q82 0 144.5 53t93 133.5t30.5 172.5q0 118 -56.5 188t-155.5 70q-124 0 -206 -105.5t-82 -249.5
q0 -120 62 -191z" />
    <glyph glyph-name="P" unicode="P" horiz-adv-x="641" 
d="M24 21q2 11 12.5 18.5t22.5 13t24 24.5t17 51l60 435q3 19 3 33q0 16 -5 32.5t-15.5 21t-17.5 11t-7 14.5v5q3 20 52 20h168q156 0 226.5 -65t70.5 -148q0 -17 -2 -34q-15 -111 -100.5 -170.5t-234.5 -59.5h-73q-15 0 -18 -2.5t-5 -17.5q-2 -14 -5.5 -41t-4.5 -39
q-2 -11 -2 -20q0 -15 5.5 -29t15 -19.5t16.5 -12.5t7 -16v-5q-3 -20 -52 -20h-110q-26 0 -37 4.5t-11 13.5v2zM218 280q5 -6 25.5 -9.5t59.5 -3.5q203 0 227 167q3 20 3 38q0 72 -49.5 128t-152.5 56q-41 0 -54 -5.5t-15 -21.5l-47 -333q-1 -3 -1 -5q0 -7 4 -11z" />
    <glyph glyph-name="Q" unicode="Q" horiz-adv-x="776" 
d="M66 32q16 13 45 13q32 0 101 -18q-73 37 -116.5 107t-43.5 160q0 170 118 292t287 122q137 0 216.5 -85.5t79.5 -207.5q0 -180 -112.5 -301t-275.5 -121h-16h-7q188 -49 288 -49q30 0 47.5 13t25.5 13q16 0 16 -29q0 -40 -28.5 -67t-89.5 -27q-35 0 -94.5 15.5
t-100.5 30.5t-117 43q-152 56 -188 56q-13 0 -22.5 -8.5t-13.5 -8.5q-16 0 -16 22t17 35zM153 305q0 -120 62 -191t170 -71q82 0 144.5 53t93 133.5t30.5 172.5q0 118 -56.5 188t-155.5 70q-124 0 -206 -105.5t-82 -249.5z" />
    <glyph glyph-name="R" unicode="R" horiz-adv-x="658" 
d="M24 20q2 11 12.5 19.5t22.5 15t24.5 25t16.5 47.5l60 436q2 15 2 27q0 16 -5 33t-15 24t-17 14t-7 15v4q3 20 52 20h180q158 0 227 -61t69 -144q0 -15 -2 -30q-10 -70 -51.5 -121.5t-110.5 -78.5l62 -160q8 -22 20.5 -36.5t22.5 -19t15.5 -11t5.5 -15.5v-3
q-4 -20 -42 -20h-108q-46 0 -46 20v3q2 9 15.5 20.5t17.5 18.5t4 15q0 12 -6 32l-49 134q-34 -6 -73 -6h-94q-20 0 -23 -20l-12 -95q-1 -9 -1 -17q0 -17 5.5 -31.5t15 -20t16 -12.5t6.5 -16v-5q-4 -20 -52 -20h-110q-48 0 -48 18v2zM221 294q6 -5 30.5 -8.5t73.5 -3.5
q86 0 144.5 39.5t71.5 124.5q2 16 2 32q0 69 -48.5 122.5t-153.5 54.5h-14q-36 0 -49.5 -5t-15.5 -21l-45 -319v-5q0 -7 4 -11z" />
    <glyph glyph-name="S" unicode="S" horiz-adv-x="589" 
d="M41 185q2 35 21 35q20 0 33 -34q42 -148 179 -148h4q66 0 106.5 30.5t50.5 79.5q2 10 2 19q0 14 -6 32t-17.5 32.5t-38.5 32.5t-42 26t-49 26q-33 17 -48 25.5t-43 26.5t-41 33t-28 37t-18 41t-3 33t2 28q9 73 78 120.5t180 47.5q25 0 60 -5.5t48 -5.5q12 0 25.5 5.5
t20.5 5.5q14 0 19 -10.5t8 -42.5q6 -57 7 -113v-5q0 -28 -20 -28t-35 32q-56 120 -161 120q-57 0 -94.5 -24.5t-44.5 -69.5q-1 -9 -1 -17q0 -18 7 -37t31.5 -39.5t46 -34t63.5 -35.5q99 -52 131 -79q62 -51 62 -122q0 -10 -1 -19q-9 -90 -90.5 -142t-187.5 -53q-44 0 -87 7
t-52 7q-12 0 -26 -6.5t-21 -6.5q-15 0 -21 12t-7 43q-2 76 -2 117v23z" />
    <glyph glyph-name="T" unicode="T" horiz-adv-x="641" 
d="M82 558q11 64 29 107q7 20 23.5 27.5t61.5 7.5l377 1q45 0 59.5 -7.5t17.5 -27.5q3 -18 3 -40q0 -30 -5 -67q-4 -34 -25 -34q-17 0 -32 39q-12 30 -17.5 41.5t-18 26.5t-30 19.5t-46.5 4.5q-30 0 -43.5 -11.5t-17.5 -38.5l-67 -478q-2 -10 -2 -31q1 -19 8.5 -31t16 -16.5
t14 -11t5.5 -14.5v-3q-3 -20 -52 -20h-111q-25 0 -36 4.5t-11 13.5v2q2 10 10.5 17t19 11.5t21.5 16.5t16 31q6 14 9 31l66 477q1 7 1 14q0 16 -9 26t-38 10q-38 0 -63 -12t-37.5 -26.5t-38.5 -52.5q-26 -40 -42 -40q-17 0 -17 21q0 6 1 13z" />
    <glyph glyph-name="U" unicode="U" horiz-adv-x="731" 
d="M111 277l41 294q2 8 2 18q0 7 -1 14q-1 24 -13 36t-21.5 19t-9.5 16v4q1 12 13 16t40 4h110q27 0 36.5 -3.5t9.5 -12.5q0 -2 -1 -9t-14 -14.5t-29 -20t-23 -35.5q-4 -13 -7 -32l-43 -310q-4 -27 -4 -51q0 -69 38 -118t132 -49t155 63.5t75 163.5l41 310q2 11 2 20
q0 14 -5 28t-14.5 19.5t-16 13t-6.5 16.5v2q4 21 49 21h67q23 0 32 -4t9 -13v-4q-1 -11 -10.5 -18.5t-20.5 -13t-21.5 -23t-14.5 -44.5l-42 -296q-19 -136 -97 -215t-210 -79q-126 0 -179.5 67t-53.5 159q0 29 5 61z" />
    <glyph glyph-name="V" unicode="V" horiz-adv-x="712" 
d="M73 678q3 22 51 22h117q20 0 29.5 -4.5t9.5 -12.5v-2q-2 -10 -12.5 -18.5t-20 -14.5t-14 -18t-4.5 -21q0 -13 5 -28l124 -493l256 494q16 36 16 50q0 3 -2 9.5t-13.5 16.5t-11.5 19v2q2 21 40 21h81q20 0 29.5 -4t9.5 -13v-2q-2 -11 -11.5 -18t-22 -12t-30 -23t-32.5 -46
l-298 -560q-6 -12 -13 -17t-28 -9q-14 -2 -24 -2q-6 0 -13 2t-10 15l-148 571q-7 27 -18.5 44.5t-21 23t-15 11t-5.5 12.5v5z" />
    <glyph glyph-name="W" unicode="W" horiz-adv-x="1060" 
d="M73 679q2 21 50 21h116q19 0 28.5 -4t9.5 -13v-2q-2 -10 -12 -18.5t-19 -15t-13.5 -19t-4.5 -23.5t3 -24l96 -486l218 458l-5 28q-6 28 -17 45.5t-20 23t-15 12t-6 14.5v3q2 21 50 21h116q38 0 38 -16v-3q-2 -10 -12 -18.5t-19 -15t-13.5 -19t-4.5 -23.5t3 -24l95 -485
l229 486q14 35 14 49q0 4 -2.5 11t-13.5 16.5t-11 18.5v2q2 21 40 21h81q20 0 29.5 -4t9.5 -13v-2q-2 -11 -11.5 -18t-22 -12t-30 -22.5t-30.5 -46.5l-269 -559q-10 -20 -44 -26q-11 -2 -20 -2q-20 0 -24 14l-100 474l-220 -460q-9 -20 -44 -26q-11 -2 -20 -2q-20 0 -24 14
l-120 572q-6 28 -17 45.5t-20.5 23t-15.5 12t-6 14.5v3z" />
    <glyph glyph-name="X" unicode="X" horiz-adv-x="726" 
d="M0 20q2 11 11.5 17.5t23 10.5t35 18t40.5 37l213 247l-145 239q-14 23 -31 39t-28 21.5t-17 12t-6 14.5v3q2 21 51 21h138q20 0 29.5 -4t9.5 -13v-2q-2 -10 -13 -18.5t-20 -14.5t-10.5 -14.5t-1.5 -10.5q0 -14 14 -34l112 -185l169 194q19 22 22.5 32t4.5 15
q-1 4 -4.5 7.5t-9 10t-5.5 13.5v3q2 21 39 21h81q20 0 29.5 -4t9.5 -13v-2q-2 -11 -11.5 -17.5t-23 -10.5t-35 -18t-41.5 -37l-201 -233l154 -253q14 -23 31 -39t28 -21.5t17 -11.5t6 -14v-4q-2 -21 -50 -21h-139q-19 0 -28.5 4t-9.5 13v2q2 10 13 18.5t20 14.5t10.5 14.5
t1.5 10.5q0 14 -14 34l-122 200l-180 -210q-19 -22 -22.5 -31.5t-3.5 -13.5q0 -5 4 -8.5t9 -10t5 -13.5v-3q-2 -21 -39 -21h-81q-20 0 -29.5 4t-9.5 13v2z" />
    <glyph glyph-name="Y" unicode="Y" horiz-adv-x="662" 
d="M50 679q2 12 13.5 16.5t37.5 4.5h139q38 0 38 -16v-3q-2 -10 -13 -18.5t-20 -14.5t-10.5 -15t-1.5 -12q0 -14 12 -34l119 -225l179 233q18 23 21 33.5t3 14.5q0 6 -4.5 9.5t-10 10t-5.5 13.5v3q4 21 40 21h80q21 0 30 -3.5t9 -12.5q0 -1 -1 -7.5t-10.5 -13t-23 -11
t-34 -19t-38.5 -37.5l-223 -287l-25 -182q-3 -15 -3 -31q1 -19 9 -31t16.5 -16.5t13.5 -10.5t6 -13q-1 -3 -1 -5q-3 -20 -52 -20h-110q-47 0 -47 18v2q1 10 10 17t19.5 11.5t21.5 16.5t16 31q4 9 8 31l25 183l-152 278q-13 24 -29.5 40t-27.5 21.5t-17.5 12t-6.5 15.5v2z
" />
    <glyph glyph-name="Z" unicode="Z" horiz-adv-x="623" 
d="M20 38l508 617h-224q-55 0 -86 -24t-62 -77q-23 -40 -43 -40q-12 0 -12 18q0 7 2 17q11 63 32 116q8 21 22.5 28t55.5 7h415q19 0 22 -6.5t3 -9.5q0 -9 -10 -21l-508 -618l236 1q55 0 86 24t62 76q23 40 43 40q12 0 12 -18q0 -7 -2 -17q-10 -58 -33 -116q-7 -21 -21 -28
t-56 -7h-428q-19 0 -22 7t-3 10q0 9 11 21z" />
    <glyph glyph-name="bracketleft" unicode="[" horiz-adv-x="295" 
d="M18 -106l121 863q3 22 26 22h152q20 0 20 -16q0 -3 -1.5 -14.5t-24.5 -11.5h-61q-17 0 -19 -17l-111 -789v-3q0 -14 15 -14h61q19 0 19 -16q0 -2 -1.5 -14t-23.5 -12h-153q-20 0 -20 15q0 3 1 7z" />
    <glyph glyph-name="backslash" unicode="\" horiz-adv-x="373" 
d="M124 740h11q20 0 23 -19l136 -795q1 -4 1 -7q0 -19 -23 -19h-11q-19 0 -22 19l-137 795v5q0 21 22 21z" />
    <glyph glyph-name="bracketright" unicode="]" horiz-adv-x="294" 
d="M-19 -107q3 21 26 21h61q17 0 19 17l111 789v4q0 13 -14 13h-62q-19 0 -19 16q0 2 1.5 14t24.5 12h152q20 0 20 -15q0 -3 -1 -7l-121 -863q-3 -22 -26 -22h-152q-20 0 -20 16v5z" />
    <glyph glyph-name="underscore" unicode="_" horiz-adv-x="422" 
d="M-28 -51q3 21 24 21h354q18 0 18 -16v-5q-3 -22 -24 -22h-354q-18 0 -18 17v5z" />
    <glyph glyph-name="grave" unicode="`" horiz-adv-x="500" 
d="M207 655q7 15 24 21q5 2 11 2q8 0 20 -4.5t21.5 -12t34.5 -27.5q62 -58 67 -70q1 -3 1 -5q0 -9 -12 -13q-10 -4 -22 -4q-29 0 -81.5 23.5t-63.5 54.5q-3 9 -3 18t3 17z" />
    <glyph glyph-name="a" unicode="a" horiz-adv-x="601" 
d="M35 168q0 129 75.5 225.5t184.5 96.5q26 0 65.5 -10.5t49.5 -10.5q17 0 40.5 10.5t32.5 10.5q21 0 21 -32v-9l-21 -353v-6q0 -31 18 -31q9 0 23 14t20 14q10 0 10 -10v-4q-4 -30 -32 -55t-64 -25q-37 0 -52.5 21t-15.5 65q0 15 1 32q-32 -53 -82.5 -87t-110.5 -34
q-70 0 -116.5 47t-46.5 131zM163 93q32 -34 76 -34q62 0 111 67t55 163l2 29v12q0 51 -32 83.5t-82 32.5t-88.5 -40.5t-56 -94t-18.5 -106.5q0 -79 33 -112z" />
    <glyph glyph-name="b" unicode="b" horiz-adv-x="568" 
d="M62 187q0 28 5 55l56 339q1 8 1 15q0 10 -3.5 20t-11 13.5t-14 9.5t-6.5 15q0 18 57 39q45 17 65.5 17t20.5 -18v-5l-54 -308q81 108 198 108q72 0 115.5 -49.5t43.5 -117.5q0 -138 -89.5 -235.5t-202.5 -97.5h-11q-51 2 -87 22.5t-52.5 48.5t-23.5 62t-7 60v7zM178 73
q29 -39 76 -39q52 0 93.5 40t60 98t18.5 116v17q-2 54 -28.5 85.5t-73.5 31.5q-63 0 -111 -65t-58 -170q-1 -14 -1 -27q0 -55 24 -87z" />
    <glyph glyph-name="c" unicode="c" horiz-adv-x="536" 
d="M120 404q81 86 196 86q90 0 133 -48t43 -96q0 -10 -2 -21q-4 -28 -21.5 -45t-40.5 -17q-21 1 -32 13t-11 30q0 5 1 10q1 11 1 21q0 18 -4.5 40t-28 44t-63.5 22q-70 0 -114 -65t-44 -149q0 -74 41.5 -120.5t112.5 -46.5q93 0 163 65q11 9 18 9q4 0 8 -3t4 -9t-4 -15
q-24 -44 -85.5 -81.5t-137.5 -37.5q-97 0 -156 59t-59 148q0 120 82 207z" />
    <glyph glyph-name="d" unicode="d" horiz-adv-x="596" 
d="M35 173q0 130 83.5 223.5t195.5 93.5q55 0 113 -36l19 129q1 7 1 13q0 10 -4 20t-11 14.5t-13.5 10.5t-6.5 13q0 9 11 18t45 21q46 17 66.5 17t20.5 -18v-5l-85 -591q-1 -7 -1 -13q0 -24 17 -24q10 0 24.5 14t19.5 14q11 0 11 -11v-3q-4 -30 -32 -55t-65 -25t-54 18.5
t-17 54.5q0 10 1 21q-68 -97 -170 -97q-81 0 -125 50t-44 133zM131 192q5 -134 108 -134q58 0 106 63.5t60 165.5q2 17 2 32q0 54 -28 88.5t-81 34.5q-73 0 -120 -77.5t-47 -165.5v-7z" />
    <glyph glyph-name="e" unicode="e" horiz-adv-x="520" 
d="M58 296q20 51 56.5 94.5t93.5 71.5t122 28q62 0 103 -30t41 -84q0 -60 -47 -105.5t-119 -71.5t-168 -40q12 -45 46.5 -73t82.5 -28q81 0 162 75q10 9 18 9q4 0 8.5 -3t4.5 -9t-5 -15q-24 -45 -85.5 -85t-137.5 -40q-83 0 -140 53.5t-57 151.5q0 49 21 101zM164 207
q100 16 160 56t60 98q0 36 -24 59t-62 23q-66 0 -115.5 -63t-49.5 -152q0 -22 22 -22q4 0 9 1z" />
    <glyph glyph-name="f" unicode="f" horiz-adv-x="354" 
d="M55 -72q12 17 22 80l54 380l-49 -11q-8 -2 -13 -2q-8 0 -12 4t-4 12q0 5 2 12q6 23 33 29l51 12l5 35q17 115 69 173t128 58q51 0 74 -27.5t23 -59.5q0 -7 -1 -15q-2 -21 -16.5 -35.5t-33.5 -14.5q-34 0 -37 34q-4 35 -15 51t-36 16q-29 0 -51 -24t-28 -73
q-4 -28 -4 -50.5t4 -34.5t11 -12h2v-1l91 20q11 2 19 2q9 0 12.5 -3t3.5 -11q0 -6 -2 -15q-4 -18 -11.5 -26.5t-13 -10t-24.5 -4.5l-84 -15l-68 -467q-1 -10 -5.5 -13t-16.5 -7l-51 -16q-10 -3 -17 -3q-10 0 -14.5 5t-4.5 10q0 8 8 18z" />
    <glyph glyph-name="g" unicode="g" horiz-adv-x="520" 
d="M-7 -86q3 25 23.5 50.5t55.5 39.5q-51 27 -51 74q0 6 1 13q3 25 27 49.5t70 39.5q-61 40 -61 111q0 79 72.5 138.5t170.5 59.5h1q20 0 40.5 -2t29.5 -2q38 0 80 56q20 22 36 22q14 0 23.5 -9.5t9.5 -23.5v-3q-1 -27 -26.5 -48.5t-60.5 -30.5q51 -42 51 -106
q0 -85 -68.5 -140.5t-166.5 -55.5q-59 0 -101 18q-34 -18 -38 -44v-7q0 -27 30.5 -40t82.5 -13q30 0 82 3t67 3q71 0 102.5 -28t31.5 -65q0 -8 -2 -17q-10 -75 -91 -121.5t-215 -46.5q-95 0 -151 29.5t-56 80.5q0 8 1 16zM183 219q29 -32 81 -32q56 0 92 44t36 103
q0 50 -27.5 83t-75.5 33q-58 0 -97 -44t-39 -105q0 -50 30 -82zM114 -147q41 -23 114 -23q77 0 127.5 24.5t56.5 69.5q1 6 1 12q0 21 -15.5 36.5t-59.5 15.5h-14q-98 -5 -152 -5q-33 0 -60.5 -17.5t-32.5 -47.5q-1 -5 -1 -10q0 -35 36 -55z" />
    <glyph glyph-name="h" unicode="h" horiz-adv-x="614" 
d="M42 14l85 575q1 5 1 9q0 11 -4.5 20.5t-12.5 13.5t-14.5 10t-6.5 13q0 18 56 39q43 17 65 17t22 -16q0 -3 -1 -7l-55 -355q40 73 94 113.5t115 40.5q62 0 90.5 -40.5t28.5 -109.5v-18l-12 -223v-7q0 -30 16 -30q10 0 24.5 14t19.5 14q10 0 10 -10v-4q-3 -30 -31 -55
t-65 -25q-66 0 -66 81q0 8 1 17l12 222v13q0 95 -69 95q-61 0 -117 -83t-75 -201l-19 -117q-3 -16 -22 -20l-45 -10q-4 -1 -7 -1q-8 0 -13 5.5t-5 14.5v5z" />
    <glyph glyph-name="i" unicode="i" horiz-adv-x="281" 
d="M62 91l40 268q1 7 1 13q0 9 -4 19t-11 14.5t-13.5 11t-6.5 14.5q0 9 11 18t45 21q46 17 63 17q19 0 19 -18v-5l-53 -368q-1 -7 -1 -12q0 -25 18 -25q10 0 24.5 14t19.5 14q10 0 10 -10v-4q-3 -30 -31 -55t-65 -25q-40 0 -54 22.5t-14 50.5q0 12 2 25zM119 615q2 28 28 51
t51 23q4 0 8 -1q20 -1 32.5 -16.5t12.5 -32.5v-3q-2 -27 -29 -49t-53 -22h-5q-21 2 -33 15t-12 32v3z" />
    <glyph glyph-name="j" unicode="j" horiz-adv-x="280" 
d="M-44 -170q1 1 2 1q49 13 68.5 43.5t29.5 101.5l56 383q1 7 1 14q0 26 -17 37q-19 11 -19 21q0 9 11 18t45 21q46 17 68 17q20 0 20 -18v-5l-80 -529q-21 -146 -147 -146q-53 0 -59 20q-1 2 -1 5q0 11 22 16zM133 615q2 28 28 51t51 23q4 0 8 -1q20 -1 32.5 -16.5
t12.5 -32.5v-3q-2 -27 -29 -49t-53 -22h-5q-21 2 -33 15t-12 32v3z" />
    <glyph glyph-name="k" unicode="k" horiz-adv-x="543" 
d="M43 14l84 575q1 5 1 9q0 11 -4.5 20.5t-12.5 13.5t-14.5 10t-6.5 13q0 18 56 39q43 17 67 17q19 0 19 -18v-5l-45 -315q38 53 88 84.5t102 31.5q45 0 76.5 -24t31.5 -70q0 -59 -47 -105t-129 -74q25 -58 63 -109t74 -51q10 0 23.5 11.5t19.5 11.5q11 0 11 -13
q0 -22 -28.5 -49t-67.5 -27q-104 0 -166 207q-34 -8 -78 -13l-24 -164q-1 -15 -22 -20l-46 -10q-4 -1 -7 -1q-8 0 -13 5.5t-5 14.5v5zM166 228q101 9 166 47.5t65 91.5q0 23 -17 39t-46 16q-59 0 -109.5 -64.5t-58.5 -129.5z" />
    <glyph glyph-name="l" unicode="l" horiz-adv-x="268" 
d="M55 91l71 496q1 5 1 10q0 15 -8 25t-18.5 17t-10.5 15q0 9 11 18t45 21q46 17 67 17q19 0 19 -18v-5l-85 -591q-2 -9 -2 -15q0 -22 18 -22q10 0 24.5 14t19.5 14q10 0 10 -10v-4q-3 -30 -31 -55t-64 -25q-69 0 -69 70q0 13 2 28z" />
    <glyph glyph-name="m" unicode="m" horiz-adv-x="947" 
d="M49 11l52 348q1 7 1 13q0 10 -4 19.5t-11 13.5t-13.5 9.5t-6.5 13.5q0 11 10.5 19t45.5 23q35 16 57 16t22 -15q0 -3 -1 -7l-17 -124q38 65 94 106t114 41q61 0 94 -35.5t33 -100.5q38 63 90.5 99.5t108.5 36.5q63 0 91.5 -40.5t28.5 -109.5v-18l-12 -223v-7
q0 -30 16 -30q10 0 24.5 14t19.5 14q10 0 10 -10v-4q-3 -30 -31 -55t-65 -25q-66 0 -66 86v12l13 222q1 9 1 18q0 93 -70 93q-59 0 -112 -83.5t-74 -203.5l-19 -111q-3 -17 -20 -21l-51 -14q-3 -1 -6 -1q-6 0 -10.5 4.5t-4.5 14.5v3l39 265q5 34 5 60q0 32 -11 59.5
t-56 27.5q-66 0 -121.5 -83t-76.5 -204l-19 -112q-3 -17 -20 -21l-51 -14q-4 -1 -7 -1q-6 0 -10 4.5t-4 11.5v6z" />
    <glyph glyph-name="n" unicode="n" horiz-adv-x="622" 
d="M51 13l50 346q1 7 1 13q0 10 -4 19.5t-11 13.5t-13.5 9.5t-6.5 13.5q0 11 10.5 18.5t45.5 23.5q37 16 60 16q19 0 19 -17v-5l-20 -134q40 74 94.5 115.5t117.5 41.5q62 0 90.5 -40.5t28.5 -109.5v-18l-12 -223v-7q0 -30 16 -30q10 0 24.5 14t19.5 14q10 0 10 -10v-4
q-3 -30 -31 -55t-65 -25q-66 0 -66 81q0 8 1 17l12 222v13q0 95 -69 95q-61 0 -116.5 -82.5t-75.5 -201.5l-19 -109q-3 -18 -19 -22l-51 -13q-4 -1 -7 -1q-6 0 -10 4t-4 13v4z" />
    <glyph glyph-name="o" unicode="o" horiz-adv-x="569" 
d="M123 401q86 89 203 89q95 0 150 -57.5t55 -140.5q0 -126 -82.5 -214t-200.5 -88q-94 0 -152.5 57t-58.5 146q0 119 86 208zM167 84q31 -48 96 -48q75 0 120 75.5t45 170.5q0 71 -27 117t-88 46q-80 0 -128.5 -74.5t-49.5 -163.5q1 -76 32 -123z" />
    <glyph glyph-name="p" unicode="p" horiz-adv-x="569" 
d="M-17 -182q1 9 9.5 17.5t18 16t19.5 25.5t13 43l64 448v6q0 14 -8 24t-18.5 17.5t-10.5 16.5q0 18 56 39q43 16 61 16t18 -17v-5l-10 -71q34 41 83.5 66.5t103.5 25.5q75 0 114 -48.5t39 -114.5v-7q-1 -144 -87.5 -233.5t-200.5 -89.5q-52 0 -99 19l-13 -92q-1 -11 -1 -21
q0 -18 6.5 -34.5t15.5 -26.5t9 -18v-2q-1 -10 -11.5 -14t-35.5 -4h-94q-25 0 -33 3t-8 11v4zM181 75q29 -36 78 -36q77 0 125.5 78t48.5 178v8q-1 53 -27.5 85t-75.5 32q-61 0 -110 -65t-60 -169q-2 -16 -2 -31q0 -52 23 -80z" />
    <glyph glyph-name="q" unicode="q" horiz-adv-x="573" 
d="M36 180q0 117 78 213.5t191 96.5q29 0 71 -11t51 -11q17 0 40 11t33 11q21 0 21 -27q0 -6 -1 -14l-76 -529q-2 -12 -2 -23q0 -17 7 -33t16 -26t9 -18v-2q-1 -10 -11.5 -14t-35.5 -4h-94q-25 0 -33 3t-8 11v4q1 9 9.5 17.5t18 16t19.5 25.5t13 43l25 172
q-27 -43 -72 -72.5t-98 -29.5q-75 0 -123 51t-48 139zM129 207q0 -78 33.5 -113.5t78.5 -35.5q59 0 103.5 62t56.5 151l15 108v1q0 9 -16.5 23t-47.5 26.5t-62 12.5q-54 0 -92.5 -38.5t-53.5 -89.5t-15 -107z" />
    <glyph glyph-name="r" unicode="r" horiz-adv-x="419" 
d="M51 10l50 349q1 7 1 13q0 10 -4 19.5t-11 13.5t-13.5 9.5t-6.5 13.5q0 11 10.5 18.5t45.5 23.5q37 16 60 16q19 0 19 -17v-5l-12 -90q29 48 73.5 82t89.5 34q34 0 49.5 -18.5t15.5 -42.5q0 -1 -0.5 -15t-11.5 -29.5t-31 -15.5h-2q-19 0 -36.5 22t-36.5 22
q-37 0 -77 -65.5t-52 -150.5l-25 -175q-3 -19 -21 -22l-52 -11q-3 0 -5 -1q-8 1 -12.5 5.5t-4.5 11.5v5z" />
    <glyph glyph-name="s" unicode="s" horiz-adv-x="462" 
d="M36 157q3 1 5 1q13 0 25 -20q66 -103 164 -103q37 0 61 17.5t27 41.5q1 6 1 12q0 26 -25.5 48.5t-88.5 50.5q-71 30 -104 63.5t-33 74.5q0 11 2 23q10 62 68 93t128 31q119 0 138 -49q12 -29 17 -49q3 -13 3 -21q0 -4 -1.5 -9t-11.5 -9q-2 -1 -4.5 -1t-5 0.5t-4.5 1.5
t-5 3.5t-5.5 4.5t-6.5 6t-7.5 7t-8.5 9l-10 9q-53 53 -114 53q-34 0 -58.5 -17t-28.5 -41q-1 -7 -1 -13q0 -25 22.5 -44.5t92.5 -49.5q75 -32 109 -65.5t34 -72.5q0 -10 -2 -20q-11 -58 -65 -95.5t-135 -37.5q-152 0 -166 47q-15 52 -21 93v6q0 17 15 21z" />
    <glyph glyph-name="t" unicode="t" horiz-adv-x="353" 
d="M38 425q6 22 33 27l47 7l16 96q3 18 21 21l44 9q4 1 7 1q6 0 10.5 -4t4.5 -14v-3l-14 -93l104 14q10 2 16 2q11 0 15 -4t4 -12q0 -6 -2 -14q-4 -17 -11.5 -25t-13 -9.5t-24.5 -3.5l-97 -10q-35 -236 -36 -284v-8q0 -60 46 -60q35 0 71 41q6 8 12 8q2 0 6.5 -2t4.5 -14
q0 -31 -38.5 -66t-91.5 -35q-103 0 -103 104v8q2 66 40 300l-44 -5h-8q-12 0 -16.5 4t-4.5 12q0 5 2 12z" />
    <glyph glyph-name="u" unicode="u" horiz-adv-x="617" 
d="M78 448q10 8 45 22q44 18 67 18q11 0 15.5 -6t4.5 -13q0 -2 -1 -5l-38 -265q-3 -23 -4 -35.5t-1 -24.5q0 -8 0.5 -24.5t6.5 -30.5t20.5 -24.5t37.5 -10.5q62 0 121.5 85.5t78.5 203.5l18 111q2 16 23 22l48 14q4 1 7 1q7 0 11.5 -5t4.5 -12v-5l-55 -367q-2 -9 -2 -16
q0 -22 18 -22q10 0 24 14t20 14q10 0 10 -10v-4q-3 -30 -31 -55t-65 -25q-67 0 -67 83q0 23 5 52q-86 -138 -196 -138q-74 0 -102.5 42t-28.5 100q0 22 3 46l25 186q1 7 1 13q0 9 -4 18t-11 12t-13.5 8t-6.5 13q0 11 11 20z" />
    <glyph glyph-name="v" unicode="v" horiz-adv-x="511" 
d="M73 448q10 8 45 22q44 18 66 18q20 0 20 -19v-5l-38 -271q-4 -29 -4 -52q0 -34 12 -60.5t54 -26.5q40 0 80.5 40.5t65.5 99t25 111.5q0 40 -20.5 72.5t-20.5 50.5q0 23 21.5 42.5t48.5 19.5q52 0 52 -63q0 -110 -41.5 -211.5t-109.5 -163.5t-141 -62q-62 0 -91 40.5
t-29 99.5q0 21 3 46l25 188q1 6 1 10q0 11 -4 20.5t-11 12.5t-13.5 8t-6.5 13q0 11 11 20z" />
    <glyph glyph-name="w" unicode="w" horiz-adv-x="813" 
d="M62 428q0 11 10.5 19.5t45.5 22.5q44 18 66 18q20 0 20 -19v-5l-38 -271q-4 -26 -4 -48q0 -95 69 -95q54 0 91.5 51.5t56.5 139.5l26 192q5 33 22 40q28 14 56 14q20 0 20 -18v-5l-38 -271q-4 -26 -4 -48q0 -95 69 -95q45 0 85 41t62 100t22 114q0 40 -20.5 72.5
t-20.5 50.5q0 23 21.5 42.5t48.5 19.5q52 0 52 -80q0 -101 -35.5 -197t-100.5 -159.5t-141 -63.5q-114 0 -133 105q-68 -105 -180 -105q-63 0 -92.5 40.5t-29.5 100.5q0 21 3 45l25 188q1 6 1 10q0 11 -4 20.5t-11 12.5t-13.5 8t-6.5 13z" />
    <glyph glyph-name="x" unicode="x" horiz-adv-x="513" 
d="M-10 46q0 20 12 35t28 15q10 0 23 -11t21 -11q37 0 133 146l-55 143q-12 32 -37 32q-4 0 -8 -1q-6 -1 -11 -1q-17 0 -17 14q0 20 41.5 51t61.5 31q17 0 24 -19l67 -174q28 45 46 70t44.5 57.5t50.5 48t48 15.5q27 0 39.5 -16t12.5 -37v-3q-1 -20 -12.5 -35t-27.5 -15
q-10 0 -23 11t-21 11q-12 0 -26 -11t-36.5 -40t-34 -44.5t-41.5 -60.5l34 -88q12 -31 19.5 -48.5t23 -36t32.5 -18.5q13 0 26 5t18 5q11 0 11 -12q0 -21 -33.5 -42.5t-68.5 -21.5q-17 0 -32 7.5t-23.5 16t-19 28.5t-14 28.5t-13.5 33.5l-26 67q-54 -86 -97 -133.5t-86 -47.5
q-27 0 -40 16.5t-13 39.5z" />
    <glyph glyph-name="y" unicode="y" horiz-adv-x="521" 
d="M-80 -124q0 27 15.5 44.5t39.5 17.5q31 0 51 -38q12 -23 27 -34.5t45 -11.5q43 0 76 34.5t39 80.5q1 7 1 15q0 29 -10 76q-35 150 -95 304q-11 30 -46 30h-2q-27 0 -27 16q0 21 44.5 50t66.5 29q19 0 27 -21q82 -230 129 -438q108 166 108 275q0 40 -20.5 72.5
t-20.5 50.5q0 23 21.5 42.5t48.5 19.5q52 0 52 -64q0 -100 -46.5 -215.5t-101.5 -198.5q-145 -222 -309 -222q-55 0 -84 23.5t-29 62.5z" />
    <glyph glyph-name="z" unicode="z" horiz-adv-x="493" 
d="M42 57l315 332q-13 -1 -30 -1q-32 0 -92 4.5t-74 4.5q-19 0 -32.5 -7t-19 -16t-11.5 -16t-12 -7q-12 0 -12 28q1 39 23 73.5t62 34.5q37 0 108 -7.5t105 -7.5q30 0 54 7.5t34 7.5q17 0 17 -19q0 -23 -26 -47l-311 -334q12 2 32 2q29 0 89 -5.5t73 -5.5q22 0 39.5 9.5
t26.5 20t18 19.5t16 9q11 0 11 -23q0 -19 -4.5 -37.5t-14.5 -39t-32 -33.5t-52 -13q-39 0 -126.5 8t-104.5 8q-27 0 -49.5 -5.5t-27.5 -5.5q-17 0 -17 17q0 20 25 45z" />
    <glyph glyph-name="braceleft" unicode="{" horiz-adv-x="307" 
d="M46 337q1 18 24 23q25 6 40.5 25t18.5 41l25 177q11 78 53.5 124.5t115.5 50.5h5q21 0 21 -15v-4q-2 -17 -29 -25q-27 -9 -43.5 -41.5t-21.5 -71.5l-22 -155q-14 -96 -113 -131q78 -30 78 -106q0 -11 -2 -24l-25 -175q-4 -18 -4 -36q0 -16 5 -41.5t33 -33.5q22 -7 22 -22
v-1q-4 -23 -30 -23h-2q-71 4 -96.5 44t-25.5 91q0 19 3 40l28 197v6q0 18 -10 36t-32 24q-16 5 -16 21v5z" />
    <glyph glyph-name="bar" unicode="|" horiz-adv-x="267" 
d="M47 -179l121 858q3 21 24 21h11q18 0 18 -16v-5l-120 -858q-3 -21 -25 -21h-11q-18 0 -18 16v5z" />
    <glyph glyph-name="braceright" unicode="}" horiz-adv-x="306" 
d="M-15 -104q1 16 28 23q51 13 63 111l25 175q14 96 112 130q-77 30 -77 106q0 12 2 25l22 155q3 21 3 38q0 62 -37 75q-22 7 -22 22v3q3 19 27 19h5q72 -4 97 -44t25 -90q0 -20 -3 -41l-25 -177q-1 -5 -1 -9q0 -16 9.5 -33.5t33.5 -23.5q17 -4 17 -19v-4q-3 -20 -24 -26
q-23 -7 -40.5 -26.5t-19.5 -39.5l-28 -197q-11 -78 -53.5 -124.5t-115.5 -50.5h-4q-11 0 -15.5 4.5t-4.5 12.5q0 3 1 6z" />
    <glyph glyph-name="exclamdown" unicode="&#xa1;" horiz-adv-x="232" 
d="M-2 -163q3 20 41.5 147t59.5 234q4 18 14.5 18t10.5 -15v-3q-7 -84 -7 -170q0 -35 2 -94t2 -94q0 -17 -1 -23q-5 -30 -25 -48.5t-46 -18.5q-27 0 -39.5 16t-12.5 36q0 7 1 15zM103 472q21 19 47 19q22 0 37.5 -14t15.5 -40q0 -30 -20 -48.5t-48 -18.5q-23 0 -38 13.5
t-15 39.5q0 30 21 49z" />
    <glyph glyph-name="cent" unicode="&#xa2;" horiz-adv-x="548" 
d="M76 263q14 102 83 174.5t167 88.5l7 50q3 21 24 21q12 0 15.5 -3.5t3.5 -12.5v-5l-7 -46h5q82 0 122 -40.5t40 -80.5q0 -4 -1 -9q-4 -25 -18.5 -39.5t-35.5 -14.5q-34 0 -46 46q-12 44 -32.5 67t-68.5 24q-64 0 -108 -47.5t-55 -122.5q-3 -23 -3 -44q0 -68 37.5 -120
t120.5 -52q89 0 163 70q10 9 18 9q4 0 9 -3t5 -9t-5 -15q-23 -41 -80.5 -77t-135.5 -41l-7 -51q-4 -21 -25 -21q-12 0 -15.5 4t-3.5 10q0 3 1 7l7 51q-95 7 -139.5 65.5t-44.5 126.5q0 19 3 40z" />
    <glyph glyph-name="sterling" unicode="&#xa3;" horiz-adv-x="604" 
d="M24 79q5 41 38.5 67t78.5 26q39 0 85 -23q1 8 1 16q0 51 -20 135h-78q-19 0 -19 14q0 3 1 7q1 21 23 21h64q-8 41 -8 77q0 18 2 35q10 68 67.5 117t135.5 49q40 0 75.5 -16t54.5 -44q5 -7 5 -15q0 -4 -2.5 -12t-8 -9.5t-7.5 -1.5q-7 0 -15 6q-41 44 -97 44
q-43 0 -72 -26.5t-35 -69.5q-2 -16 -2 -37q0 -39 7 -97h125q19 0 19 -16q0 -2 -1.5 -14t-22.5 -12h-116q3 -32 3 -61q0 -33 -4 -62q-5 -30 -18 -60q70 -39 114 -39q76 0 123 50q10 11 18 11q5 0 9 -4q4 -5 5 -12q-1 -12 -13 -31q-73 -102 -181 -102q-67 0 -131 51
q-56 -51 -120 -51q-42 0 -63 20.5t-21 51.5q0 8 1 17zM80 43q14 -14 36 -14q47 0 80 38q-20 18 -29.5 26t-24.5 16t-27 8q-42 0 -47 -39v-7q0 -17 12 -28z" />
    <glyph glyph-name="yen" unicode="&#xa5;" horiz-adv-x="620" 
d="M73 593q2 17 34 17h140q29 0 29 -15v-2q-1 -9 -16 -20.5t-19 -19t-4 -13.5q0 -12 7 -32l103 -210l157 215q20 32 20 42q0 1 -1 6t-10.5 14t-9.5 17v1q3 17 33 17h77q19 0 25.5 -3.5t6.5 -11.5v-2q-1 -9 -9 -15t-19 -10.5t-28.5 -18.5t-33.5 -35l-112 -151h80q19 0 19 -14
q0 -3 -1 -7q-1 -22 -23 -22h-107l-53 -70h149q19 0 19 -16q0 -2 -1.5 -14t-22.5 -12h-151l-13 -97q-1 -10 -1 -19q0 -12 3 -25.5t10.5 -20t12.5 -13.5t5 -14v-2q-3 -17 -42 -17h-90q-24 0 -31.5 3.5t-7.5 10.5v3q1 10 13 19t25.5 27t17.5 48l13 97h-157q-18 0 -18 16
q0 2 1.5 14t22.5 12h156l-35 70h-111q-19 0 -19 20v2q5 21 25 21h83l-74 145q-13 25 -31 41.5t-27 24.5t-9 17v2z" />
    <glyph glyph-name="section" unicode="&#xa7;" horiz-adv-x="524" 
d="M4 -106q3 20 17.5 33t32.5 13q21 0 35.5 -14.5t22 -32.5t26 -32.5t47.5 -14.5q27 0 59.5 17t57.5 45q-235 204 -235 419q0 27 4 55q20 140 109.5 232.5t209.5 93.5h5q64 0 99 -26t35 -60q0 -4 -1 -9q-3 -21 -17.5 -34t-32.5 -13q-20 0 -34.5 15t-22.5 32.5t-27 32.5
t-47 15q-27 0 -59.5 -17.5t-57.5 -44.5q60 -41 139 -154q48 -68 68.5 -146.5t20.5 -135.5q0 -24 -3 -47q-23 -149 -121 -239q-83 -76 -192 -78h-5q-64 0 -99 26t-35 60q0 4 1 9zM145 399q9 -97 53 -205q35 -87 78.5 -147.5t72.5 -60.5q6 0 11 2q23 13 23 66q0 4 -1 37
t-21 112t-48 146q-9 22 -23 48.5t-34.5 59.5t-39.5 48t-32 15q-6 0 -12 -3q-29 -17 -29 -80q0 -17 2 -38z" />
    <glyph glyph-name="dieresis" unicode="&#xa8;" horiz-adv-x="500" 
d="M269 639q18 19 41 19q21 0 34.5 -13t13.5 -33q0 -23 -19.5 -39.5t-43.5 -16.5q-19 0 -31.5 11t-12.5 29q0 23 18 43zM125 639q17 19 41 19q20 0 33.5 -13t13.5 -33q0 -23 -19 -39.5t-44 -16.5q-19 0 -31 11t-12 29q0 23 18 43z" />
    <glyph glyph-name="copyright" unicode="&#xa9;" horiz-adv-x="832" 
d="M143 594q113 113 273 113t273 -113t113 -273t-113 -273t-273 -113t-273 113t-113 273t113 273zM178 79q98 -100 238 -100t239 100t99 242t-99 242t-239 100t-238.5 -100t-98.5 -242t99 -242zM263 485q65 69 161 69q79 0 127 -44t48 -101q0 -23 -11.5 -35.5t-30.5 -12.5
q-34 0 -45 44q-29 106 -111 107q-58 0 -91.5 -42t-33.5 -109q0 -89 45.5 -142.5t119.5 -53.5q73 0 133 64q7 8 15 8q3 0 8.5 -3t5.5 -10q0 -5 -3 -11q-18 -42 -66.5 -74.5t-127.5 -32.5q-92 0 -150.5 60t-58.5 149q0 101 66 170z" />
    <glyph glyph-name="ordfeminine" unicode="&#xaa;" horiz-adv-x="400" 
d="M82 509q0 81 47 141t115 60q16 0 41 -6.5t31 -6.5q11 0 25.5 6.5t20.5 6.5q13 0 13 -22v-3l-13 -221v-6q0 -17 11 -17q6 0 14.5 8.5t12.5 8.5q6 0 6 -5v-3q-2 -19 -19.5 -35t-40.5 -16t-33 14t-10 43q0 9 1 18q-20 -33 -51.5 -54.5t-69.5 -21.5q-43 0 -72 29.5t-29 81.5z
M141 532q0 -49 20.5 -70t47.5 -21q39 0 69.5 42t34.5 101l1 19v9q0 30 -20 50.5t-51 20.5q-46 0 -73.5 -48.5t-28.5 -102.5z" />
    <glyph glyph-name="guillemotleft" unicode="&#xab;" horiz-adv-x="433" 
d="M184 251q1 13 14.5 28.5t43.5 44.5q8 7 12 11q85 83 105 83q12 0 12 -13q-4 -35 -113 -154q70 -110 70 -147q0 -4 -1 -7q-2 -13 -15 -13q-18 0 -81 83q-42 54 -46 67q-2 5 -2 10q0 4 1 7zM14 244q0 1 1 2q-1 2 -1 5q2 19 44 59q5 5 18 16l9 9q85 83 105 83q11 0 11 -13
q-3 -34 -113 -154q70 -107 70 -146q0 -5 -1 -8q-2 -13 -15 -13q-18 0 -81 83q-4 5 -10.5 13.5t-9 12.5t-8 11t-7 9.5t-5 8.5t-4 7.5t-2.5 6t-2 6.5t1 2z" />
    <glyph glyph-name="registered" unicode="&#xae;" horiz-adv-x="832" 
d="M143 594q113 113 273 113t273 -113t113 -273t-113 -273t-273 -113t-273 113t-113 273t113 273zM79 321q0 -142 99 -242q98 -100 238 -100t239 100t99 242t-99 242t-239 100t-238.5 -100t-98.5 -242zM237 532q0 17 36 17h111q95 0 150.5 -40t55.5 -108q0 -91 -82 -127
l52 -92q12 -19 32 -33q15 -11 15 -22q0 -17 -29 -17h-65q-35 0 -35 18q0 9 9 18q8 7 8 17q0 7 -5 16l-45 80q-17 -3 -38 -3h-60q-8 0 -8 -8v-45q0 -39 23 -57q13 -9 13 -19q0 -17 -35 -17h-67q-36 0 -36 17q0 11 14 19q23 18 23 57v258q0 10 -2 24q-2 18 -20 28
q-15 6 -15 19zM406 292q54 0 83.5 25.5t29.5 71.5q0 55 -37.5 88.5t-98.5 34.5h-14q-15 0 -22.5 -2t-7.5 -9v-196q0 -13 67 -13z" />
    <glyph glyph-name="macron" unicode="&#xaf;" horiz-adv-x="500" 
d="M105 580q2 15 7.5 20t24.5 5h227q19 0 23 -4t4 -12q0 -4 -1 -8q-2 -15 -7.5 -20.5t-25.5 -5.5h-227q-19 0 -22.5 4t-3.5 12q0 4 1 9z" />
    <glyph glyph-name="degree" unicode="&#xb0;" horiz-adv-x="402" 
d="M123 661q50 49 120 49t119.5 -49.5t49.5 -119.5q0 -71 -50 -120.5t-122 -49.5q-68 0 -117.5 50t-49.5 120t50 120zM171 448q32 -42 77 -42q43 0 70.5 35t27.5 87q0 63 -32.5 105t-77.5 42q-42 0 -69.5 -35t-27.5 -87q0 -63 32 -105z" />
    <glyph glyph-name="twosuperior" unicode="&#xb2;" horiz-adv-x="416" 
d="M24 278q0 12 11 21q54 44 87.5 73t74 69t62.5 74.5t26 64.5q1 8 1 15q0 27 -17 47t-55 20q-55 0 -106 -56q-6 -6 -11 -6q-2 0 -5 1.5t-3 5.5t3 10q20 37 61 65t91 28q55 0 81.5 -30t26.5 -68q0 -11 -2 -23q-8 -53 -59.5 -110t-158.5 -136q22 0 60 -9.5t71 -9.5
q24 0 38.5 9.5t21 19t11.5 9.5q9 0 9 -15q0 -33 -22 -57t-56 -24q-37 0 -88 17.5t-69 17.5q-14 0 -35 -19.5t-31 -19.5q-18 0 -18 16z" />
    <glyph glyph-name="threesuperior" unicode="&#xb3;" horiz-adv-x="388" 
d="M56 370q3 1 6 1q6 0 10 -5q42 -64 123 -64q40 0 72 23t38 65q1 7 1 14q0 37 -31 59.5t-93 28.5q-10 0 -12 4t-2 6q0 3 2 7.5t9 9.5q78 56 137 116q-20 1 -54.5 8t-57.5 7q-33 0 -51 -18q-5 -5 -11.5 -13t-10 -11t-8.5 -3q-6 0 -7 5t-1 9t1 11t3 16t5 16q10 25 23.5 36
t40.5 11q28 0 81 -15t78 -15q7 0 18 12t17 12q11 0 13 -4t2 -7q0 -5 -5 -12q-78 -92 -156 -150q62 -6 99 -38.5t37 -78.5q0 -11 -2 -22q-8 -54 -51 -93.5t-118 -39.5q-59 0 -100 28.5t-52 67.5q-1 3 -1 5q0 7 8 11z" />
    <glyph glyph-name="acute" unicode="&#xb4;" horiz-adv-x="500" 
d="M136 564q6 13 68 70q24 20 34 27.5t22 12t20 4.5q6 0 11 -2q16 -6 21 -17.5t6 -20.5q-1 -9 -4 -18q-11 -31 -63.5 -54.5t-81.5 -23.5q-12 0 -22 4q-12 4 -12 13q0 2 1 5z" />
    <glyph glyph-name="paragraph" unicode="&#xb6;" horiz-adv-x="501" 
d="M-8 -133q7 46 52 46q7 0 13 -2t10 -4t9.5 -7t8 -7.5t8.5 -9.5t8 -9q33 -35 74 -35q20 0 36.5 7.5t27.5 23.5t18.5 31t13 40.5t8 39.5t5.5 40l91 634h-30q-70 0 -110 -42t-53 -133q-5 -32 -5 -59q0 -101 66 -131q12 -4 13 -9.5t1 -7.5q0 -8 -7 -13t-16 -5h-5
q-83 14 -120 65t-37 114q0 19 3 40q14 98 86.5 162t169.5 64h149q26 0 36.5 -4.5t10.5 -13.5v-2q-2 -12 -12 -19t-22 -12t-24.5 -27t-17.5 -59l-76 -539q-15 -108 -80 -170.5t-165 -62.5q-64 0 -101 20.5t-37 49.5v6z" />
    <glyph glyph-name="periodcentered" unicode="&#xb7;" horiz-adv-x="233" 
d="M77 277q21 19 48 19q22 0 37 -14.5t15 -40.5q0 -30 -20 -48t-47 -18q-23 0 -38.5 13.5t-15.5 39.5q0 30 21 49z" />
    <glyph glyph-name="cedilla" unicode="&#xb8;" horiz-adv-x="500" 
d="M168 -164q3 4 8 4q3 0 8 -3q30 -17 54 -17q22 0 34 12t12 30q0 38 -68 54q-14 3 -14 11q0 3 2 6l36 67h36l-28 -53q93 -16 93 -79q0 -35 -27 -57t-65 -22q-55 0 -81 32q-3 4 -3 8q0 3 3 7z" />
    <glyph glyph-name="onesuperior" unicode="&#xb9;" horiz-adv-x="250" 
d="M68 298q19 15 22 41l39 271q1 7 1 12q0 10 -3 17.5t-21 12.5q-12 4 -15.5 6.5t-3.5 6.5v2q0 5 7 9t33 14q44 16 61 18q11 0 11 -9q0 -2 -1 -5l-50 -355q-1 -5 -1 -10q0 -10 3.5 -19.5t9.5 -14t11.5 -10t5.5 -10.5q0 -11 -27 -11h-74q-27 0 -27 11q0 7 19 23z" />
    <glyph glyph-name="ordmasculine" unicode="&#xba;" horiz-adv-x="387" 
d="M137 655q54 55 127 55q58 0 93 -36t35 -87q0 -79 -51.5 -134t-125.5 -55q-59 0 -95.5 35.5t-36.5 90.5q0 75 54 131zM165 457q19 -30 59 -30q47 0 75 47t28 106q0 102 -72 102q-50 0 -80 -46.5t-31 -102.5q1 -47 21 -76z" />
    <glyph glyph-name="guillemotright" unicode="&#xbb;" horiz-adv-x="423" 
d="M249 251q-70 107 -70 146q0 5 1 8q2 13 15 13q19 0 81 -83q43 -55 47 -70q1 -5 1 -9v-5q-4 -18 -46 -59q-4 -4 -13 -12l-13 -13q-87 -83 -104 -83q-12 0 -12 13q3 34 113 154zM15 97q3 35 114 154q-29 43 -50 86t-21 62q0 3 1 6q2 13 16 13q18 0 80 -83q43 -55 47 -70
q1 -5 1 -9v-5q0 -3 -1.5 -6.5t-3.5 -7.5t-4.5 -7t-7 -8t-7.5 -8.5t-9.5 -10t-11 -10.5t-13 -12t-14.5 -14q-87 -83 -104 -83q-12 0 -12 13z" />
    <glyph glyph-name="questiondown" unicode="&#xbf;" horiz-adv-x="404" 
d="M-30 -92q7 40 40 77.5t80.5 77.5t68.5 70q26 37 32 78q3 14 11 18t13 4t11.5 -4.5t6.5 -16.5v-5q-6 -45 -29.5 -88t-48.5 -72t-48 -67t-28 -74q-2 -11 -2 -21q0 -27 16.5 -48.5t53.5 -21.5q69 0 113 98q7 16 12 24.5t15 15.5t25 7q21 0 31 -12t10 -28q0 -6 -1 -12
q-8 -54 -68 -96t-144 -42q-86 0 -128.5 36t-42.5 83q0 9 1 19zM205 472q21 19 47 19q22 0 37.5 -14.5t15.5 -40.5q0 -30 -20 -48t-48 -18q-23 0 -38.5 13.5t-15.5 38.5q0 30 22 50z" />
    <glyph glyph-name="Agrave" unicode="&#xc0;" horiz-adv-x="686" 
d="M-27 19q2 11 11.5 18t22 12t30.5 23t33 46l256 481q8 19 8 29q0 6 -4.5 12t-15.5 16t-11 20v3q2 21 30 21h92q19 0 23 -18l143 -564q7 -27 18.5 -44.5t21 -23t15 -11.5t5.5 -14v-3q-4 -22 -51 -22h-117q-39 0 -39 17v2q2 10 12 18.5t20 14.5t14 18t4 22q0 12 -4 27
l-16 63q-5 19 -16 23q-15 6 -135 6q-115 0 -136 -3.5t-32 -26.5l-33 -63q-16 -36 -16 -50q0 -3 2 -9.5t13.5 -16.5t11.5 -19v-2q-4 -21 -40 -21h-81q-39 0 -39 17v2zM206 259q13 -5 123 -5q109 0 118 6q4 2 4 9q0 5 -2 11l-78 310l-165 -313q-4 -7 -4 -12q0 -4 4 -6z
M270 883q9 14 25 19q3 1 7 1q22 0 54 -29q3 -3 22 -21q61 -61 63 -72q1 -2 1 -4q0 -10 -16 -14q-7 -2 -16 -2q-31 0 -84 27.5t-60 60.5q-2 7 -2 13q0 11 6 21z" />
    <glyph glyph-name="Aacute" unicode="&#xc1;" horiz-adv-x="686" 
d="M-27 19q2 11 11.5 18t22 12t30.5 23t33 46l256 481q8 19 8 29q0 6 -4.5 12t-15.5 16t-11 20v3q2 21 30 21h92q19 0 23 -18l143 -564q7 -27 18.5 -44.5t21 -23t15 -11.5t5.5 -14v-3q-4 -22 -51 -22h-117q-39 0 -39 17v2q2 10 12 18.5t20 14.5t14 18t4 22q0 12 -4 27
l-16 63q-5 19 -16 23q-15 6 -135 6q-115 0 -136 -3.5t-32 -26.5l-33 -63q-16 -36 -16 -50q0 -3 2 -9.5t13.5 -16.5t11.5 -19v-2q-4 -21 -40 -21h-81q-39 0 -39 17v2zM206 259q13 -5 123 -5q109 0 118 6q4 2 4 9q0 5 -2 11l-78 310l-165 -313q-4 -7 -4 -12q0 -4 4 -6z
M321 781q2 11 63 72q44 42 60 48q7 2 13 2q5 0 10 -1q16 -5 23.5 -17t7.5 -23q0 -6 -2 -13q-7 -33 -60 -60.5t-84 -27.5q-9 0 -16 2q-16 4 -16 14q0 2 1 4z" />
    <glyph glyph-name="Acircumflex" unicode="&#xc2;" horiz-adv-x="686" 
d="M-27 19q2 11 11.5 18t22 12t30.5 23t33 46l256 481q8 19 8 29q0 6 -4.5 12t-15.5 16t-11 20v3q2 21 30 21h92q19 0 23 -18l143 -564q7 -27 18.5 -44.5t21 -23t15 -11.5t5.5 -14v-3q-4 -22 -51 -22h-117q-39 0 -39 17v2q2 10 12 18.5t20 14.5t14 18t4 22q0 12 -4 27
l-16 63q-5 19 -16 23q-15 6 -135 6q-115 0 -136 -3.5t-32 -26.5l-33 -63q-16 -36 -16 -50q0 -3 2 -9.5t13.5 -16.5t11.5 -19v-2q-4 -21 -40 -21h-81q-39 0 -39 17v2zM206 259q13 -5 123 -5q109 0 118 6q4 2 4 9q0 5 -2 11l-78 310l-165 -313q-4 -7 -4 -12q0 -4 4 -6z
M255 766q4 10 62 59q7 6 17 15t14.5 13t11 9.5t10 8t8 5.5t8 3.5t8 1.5t9.5 1h9q3 0 7 -1.5t6.5 -2t6.5 -4t6 -5t7 -7.5t8 -9t11 -12l12 -15q5 -7 13 -16t13 -14.5t9.5 -12t7 -10.5t2.5 -7q0 -12 -13 -13h-2q-20 0 -56.5 15t-56.5 31q-26 -17 -66 -31.5t-59 -14.5h-2
q-11 1 -11 10v3z" />
    <glyph glyph-name="Atilde" unicode="&#xc3;" horiz-adv-x="686" 
d="M-27 19q2 11 11.5 18t22 12t30.5 23t33 46l256 481q8 19 8 29q0 6 -4.5 12t-15.5 16t-11 20v3q2 21 30 21h92q19 0 23 -18l143 -564q7 -27 18.5 -44.5t21 -23t15 -11.5t5.5 -14v-3q-4 -22 -51 -22h-117q-39 0 -39 17v2q2 10 12 18.5t20 14.5t14 18t4 22q0 12 -4 27
l-16 63q-5 19 -16 23q-15 6 -135 6q-115 0 -136 -3.5t-32 -26.5l-33 -63q-16 -36 -16 -50q0 -3 2 -9.5t13.5 -16.5t11.5 -19v-2q-4 -21 -40 -21h-81q-39 0 -39 17v2zM206 259q13 -5 123 -5q109 0 118 6q4 2 4 9q0 5 -2 11l-78 310l-165 -313q-4 -7 -4 -12q0 -4 4 -6z
M234 801q4 27 24.5 43.5t52.5 16.5q36 0 90.5 -21t68.5 -21q33 0 38 29q2 13 8 13q2 0 4 -1q13 -5 13 -26v-9v-3q-4 -27 -25 -44t-53 -17q-24 0 -77.5 21t-78.5 21q-36 0 -39 -29q-2 -13 -9 -13q-2 0 -5 2q-13 6 -13 27q0 5 1 11z" />
    <glyph glyph-name="Adieresis" unicode="&#xc4;" horiz-adv-x="686" 
d="M-27 19q2 11 11.5 18t22 12t30.5 23t33 46l256 481q8 19 8 29q0 6 -4.5 12t-15.5 16t-11 20v3q2 21 30 21h92q19 0 23 -18l143 -564q7 -27 18.5 -44.5t21 -23t15 -11.5t5.5 -14v-3q-4 -22 -51 -22h-117q-39 0 -39 17v2q2 10 12 18.5t20 14.5t14 18t4 22q0 12 -4 27
l-16 63q-5 19 -16 23q-15 6 -135 6q-115 0 -136 -3.5t-32 -26.5l-33 -63q-16 -36 -16 -50q0 -3 2 -9.5t13.5 -16.5t11.5 -19v-2q-4 -21 -40 -21h-81q-39 0 -39 17v2zM206 259q13 -5 123 -5q109 0 118 6q4 2 4 9q0 5 -2 11l-78 310l-165 -313q-4 -7 -4 -12q0 -4 4 -6z
M414 859q18 19 41 19q21 0 34.5 -13t13.5 -33q0 -23 -19.5 -39.5t-43.5 -16.5q-19 0 -31.5 11t-12.5 29q0 23 18 43zM252 816q0 23 17.5 42.5t41.5 19.5q20 0 33.5 -13t13.5 -33q0 -23 -19 -39.5t-44 -16.5q-19 0 -31 11t-12 29z" />
    <glyph glyph-name="Aring" unicode="&#xc5;" horiz-adv-x="686" 
d="M-27 19q2 11 11.5 18t22 12t30.5 23t33 46l256 481q8 19 8 29q0 6 -4.5 12t-15.5 16t-11 20v3q2 21 30 21h92q19 0 23 -18l143 -564q7 -27 18.5 -44.5t21 -23t15 -11.5t5.5 -14v-3q-4 -22 -51 -22h-117q-39 0 -39 17v2q2 10 12 18.5t20 14.5t14 18t4 22q0 12 -4 27
l-16 63q-5 19 -16 23q-15 6 -135 6q-115 0 -136 -3.5t-32 -26.5l-33 -63q-16 -36 -16 -50q0 -3 2 -9.5t13.5 -16.5t11.5 -19v-2q-4 -21 -40 -21h-81q-39 0 -39 17v2zM206 259q13 -5 123 -5q109 0 118 6q4 2 4 9q0 5 -2 11l-78 310l-165 -313q-4 -7 -4 -12q0 -4 4 -6z
M297 842q6 41 38 67t74 26q41 0 62 -22t21 -52q0 -8 -1 -16q-6 -42 -37 -67q-32 -26 -74 -26t-63 22.5t-21 51.5q0 8 1 16zM343 843q0 -23 13 -37.5t34 -14.5q22 0 37.5 16.5t17.5 39.5q0 22 -12 36.5t-33 14.5q-24 0 -39.5 -15.5t-17.5 -39.5z" />
    <glyph glyph-name="AE" unicode="&#xc6;" horiz-adv-x="952" 
d="M-47 18q1 11 22 21q49 27 81 65l397 478q19 22 19 41q0 18 -18 33q-14 11 -14 23v3q2 18 28 18l404 1q41 0 52.5 -5.5t15.5 -25.5q10 -45 10 -106v-6q0 -26 -16 -31q-4 -1 -7 -1q-8 0 -14.5 6.5t-15.5 27.5q-20 49 -52 72t-89 23h-47q-71 0 -94.5 -10t-26.5 -36l-16 -119
q-1 -7 -1 -13q0 -22 16.5 -29t75.5 -7q36 0 60 5t31.5 11t15 11t16.5 5q21 0 22 -32l8 -85q1 -11 1 -19q0 -13 -2.5 -20.5t-14.5 -10.5q-3 -1 -5 -1q-7 0 -14 7t-15.5 21t-20 28t-34.5 24.5t-55 10.5q-31 0 -45.5 -1t-29.5 -5.5t-21 -14.5t-9 -28l-36 -253q-1 -5 -1 -9
q0 -21 17.5 -30.5t79.5 -9.5h12l74 1q44 0 71 10.5t41.5 27.5t35.5 53q23 39 42 39h3q11 -2 11 -20q0 -6 -1 -14q-14 -67 -31 -107q-7 -20 -23.5 -27.5t-61.5 -7.5h-383q-24 0 -32.5 4.5t-8.5 15.5q0 9 9.5 17.5t20.5 16.5t23 28t16 49l12 78h-135q-75 0 -95 -5t-34 -23
l-65 -77q-18 -22 -18.5 -29.5l-0.5 -7.5q0 -14 21 -28q15 -9 15 -20v-1q-2 -18 -28 -18h-124q-15 0 -19.5 4t-4.5 11v3zM315 250h131l44 309l-235 -282q-5 -6 -5 -10q0 -17 65 -17z" />
    <glyph glyph-name="Ccedilla" unicode="&#xc7;" horiz-adv-x="687" 
d="M56 355q22 158 141 256.5t282 98.5q38 0 75.5 -7t46.5 -7q12 0 25.5 6t20.5 6q15 0 21.5 -11t9.5 -42q7 -67 8 -129q0 -32 -20 -35h-1q-19 0 -38 35q-15 26 -22 37.5t-25.5 33t-36 31.5t-46.5 18.5t-64 8.5q-107 0 -182 -81.5t-92 -196.5q-4 -33 -4 -63
q0 -99 55.5 -180.5t176.5 -81.5q122 0 223 96q10 9 17 9q6 0 9.5 -5t3.5 -11q0 -11 -11 -25q-35 -45 -107.5 -85.5t-166.5 -40.5h-8l-23 -43q93 -16 93 -79q0 -35 -27 -57t-65 -22q-55 0 -81 32q-4 4 -4 8t3.5 7.5t7.5 3.5t9 -3q30 -17 54 -17q22 0 34 12t12 30q0 38 -68 54
q-14 3 -14 11q0 3 2 6l32 59q-134 16 -197 107t-63 195q0 30 4 61z" />
    <glyph glyph-name="Egrave" unicode="&#xc8;" horiz-adv-x="623" 
d="M24 20q2 10 9 15.5t16.5 10t19.5 12.5t19 28t13 51l59 426q2 17 2 31q0 17 -4.5 34t-15 22t-17.5 11t-7 14v5q1 13 12.5 16.5t39.5 3.5l373 1q42 0 53 -5.5t15 -25.5q10 -47 10 -97v-9v-6q0 -26 -16 -31q-4 -1 -7 -1q-8 0 -14.5 6.5t-15.5 27.5q-19 49 -51 72t-90 23h-47
q-71 0 -94.5 -10t-26.5 -36l-16 -119q-1 -7 -1 -13q0 -22 16.5 -29t75.5 -7q36 0 60 5t31.5 11t15.5 11t17 5q19 0 22 -32l7 -85q1 -12 1 -21q0 -11 -2.5 -18.5t-14.5 -10.5q-3 -1 -5 -1q-7 0 -14 7t-15.5 21t-19.5 28t-34 24.5t-55 10.5q-31 0 -45.5 -1t-30 -5.5
t-21.5 -14.5t-9 -28l-36 -253q-1 -5 -1 -9q0 -21 17.5 -30.5t79.5 -9.5h12l77 1q61 0 88 19.5t57 71.5q23 39 42 39h3q11 -2 11 -20q0 -6 -1 -14q-14 -67 -31 -107q-7 -20 -23.5 -27.5t-62.5 -7.5h-383q-28 0 -37.5 3.5t-9.5 14.5v2zM196 883q9 14 25 19q3 1 7 1
q22 0 54 -29q3 -3 22 -21q61 -61 63 -72q1 -2 1 -4q0 -10 -16 -14q-7 -2 -16 -2q-31 0 -84 27.5t-60 60.5q-2 7 -2 13q0 11 6 21z" />
    <glyph glyph-name="Eacute" unicode="&#xc9;" horiz-adv-x="623" 
d="M24 20q2 10 9 15.5t16.5 10t19.5 12.5t19 28t13 51l59 426q2 17 2 31q0 17 -4.5 34t-15 22t-17.5 11t-7 14v5q1 13 12.5 16.5t39.5 3.5l373 1q42 0 53 -5.5t15 -25.5q10 -47 10 -97v-9v-6q0 -26 -16 -31q-4 -1 -7 -1q-8 0 -14.5 6.5t-15.5 27.5q-19 49 -51 72t-90 23h-47
q-71 0 -94.5 -10t-26.5 -36l-16 -119q-1 -7 -1 -13q0 -22 16.5 -29t75.5 -7q36 0 60 5t31.5 11t15.5 11t17 5q19 0 22 -32l7 -85q1 -12 1 -21q0 -11 -2.5 -18.5t-14.5 -10.5q-3 -1 -5 -1q-7 0 -14 7t-15.5 21t-19.5 28t-34 24.5t-55 10.5q-31 0 -45.5 -1t-30 -5.5
t-21.5 -14.5t-9 -28l-36 -253q-1 -5 -1 -9q0 -21 17.5 -30.5t79.5 -9.5h12l77 1q61 0 88 19.5t57 71.5q23 39 42 39h3q11 -2 11 -20q0 -6 -1 -14q-14 -67 -31 -107q-7 -20 -23.5 -27.5t-62.5 -7.5h-383q-28 0 -37.5 3.5t-9.5 14.5v2zM247 781q2 11 63 72q44 42 60 48
q7 2 13 2q5 0 10 -1q16 -5 23.5 -17t7.5 -23q0 -6 -2 -13q-7 -33 -60 -60.5t-84 -27.5q-9 0 -16 2q-16 4 -16 14q0 2 1 4z" />
    <glyph glyph-name="Ecircumflex" unicode="&#xca;" horiz-adv-x="623" 
d="M24 20q2 10 9 15.5t16.5 10t19.5 12.5t19 28t13 51l59 426q2 17 2 31q0 17 -4.5 34t-15 22t-17.5 11t-7 14v5q1 13 12.5 16.5t39.5 3.5l373 1q42 0 53 -5.5t15 -25.5q10 -47 10 -97v-9v-6q0 -26 -16 -31q-4 -1 -7 -1q-8 0 -14.5 6.5t-15.5 27.5q-19 49 -51 72t-90 23h-47
q-71 0 -94.5 -10t-26.5 -36l-16 -119q-1 -7 -1 -13q0 -22 16.5 -29t75.5 -7q36 0 60 5t31.5 11t15.5 11t17 5q19 0 22 -32l7 -85q1 -12 1 -21q0 -11 -2.5 -18.5t-14.5 -10.5q-3 -1 -5 -1q-7 0 -14 7t-15.5 21t-19.5 28t-34 24.5t-55 10.5q-31 0 -45.5 -1t-30 -5.5
t-21.5 -14.5t-9 -28l-36 -253q-1 -5 -1 -9q0 -21 17.5 -30.5t79.5 -9.5h12l77 1q61 0 88 19.5t57 71.5q23 39 42 39h3q11 -2 11 -20q0 -6 -1 -14q-14 -67 -31 -107q-7 -20 -23.5 -27.5t-62.5 -7.5h-383q-28 0 -37.5 3.5t-9.5 14.5v2zM181 766q4 10 62 59q7 6 17 15t14.5 13
t11 9.5t10 8t8 5.5t8 3.5t8 1.5t9.5 1h9q3 0 7 -1.5t6.5 -2t6.5 -4t6 -5t7 -7.5t8 -9t11 -12l12 -15q5 -7 13 -16t13 -14.5t9.5 -12t7 -10.5t2.5 -7q0 -12 -13 -13h-2q-20 0 -56.5 15t-56.5 31q-26 -17 -66 -31.5t-59 -14.5h-2q-11 1 -11 10v3z" />
    <glyph glyph-name="Edieresis" unicode="&#xcb;" horiz-adv-x="623" 
d="M24 20q2 10 9 15.5t16.5 10t19.5 12.5t19 28t13 51l59 426q2 17 2 31q0 17 -4.5 34t-15 22t-17.5 11t-7 14v5q1 13 12.5 16.5t39.5 3.5l373 1q42 0 53 -5.5t15 -25.5q10 -47 10 -97v-9v-6q0 -26 -16 -31q-4 -1 -7 -1q-8 0 -14.5 6.5t-15.5 27.5q-19 49 -51 72t-90 23h-47
q-71 0 -94.5 -10t-26.5 -36l-16 -119q-1 -7 -1 -13q0 -22 16.5 -29t75.5 -7q36 0 60 5t31.5 11t15.5 11t17 5q19 0 22 -32l7 -85q1 -12 1 -21q0 -11 -2.5 -18.5t-14.5 -10.5q-3 -1 -5 -1q-7 0 -14 7t-15.5 21t-19.5 28t-34 24.5t-55 10.5q-31 0 -45.5 -1t-30 -5.5
t-21.5 -14.5t-9 -28l-36 -253q-1 -5 -1 -9q0 -21 17.5 -30.5t79.5 -9.5h12l77 1q61 0 88 19.5t57 71.5q23 39 42 39h3q11 -2 11 -20q0 -6 -1 -14q-14 -67 -31 -107q-7 -20 -23.5 -27.5t-62.5 -7.5h-383q-28 0 -37.5 3.5t-9.5 14.5v2zM322 816q0 23 18 42.5t41 19.5
q21 0 34.5 -13t13.5 -33q0 -23 -19.5 -39.5t-43.5 -16.5q-19 0 -31.5 11t-12.5 29zM196 859q17 19 41 19q20 0 33.5 -13t13.5 -33q0 -23 -19 -39.5t-44 -16.5q-19 0 -31 11t-12 29q0 23 18 43z" />
    <glyph glyph-name="Igrave" unicode="&#xcc;" horiz-adv-x="323" 
d="M24 20q2 12 15.5 20t29.5 20.5t22 35.5q6 14 9 31l61 446q2 20 2 31q-1 19 -8.5 31t-16 16.5t-13.5 10.5t-5 13v5q1 20 51 20h111q25 0 36 -4.5t11 -13.5v-2q-2 -10 -10.5 -17t-19 -11.5t-21.5 -16.5t-16 -31q-7 -16 -8 -31l-62 -446q-2 -20 -2 -31q1 -19 8.5 -31
t16 -16.5t14 -11t5.5 -14.5v-3q-3 -20 -52 -20h-111q-25 0 -36 4.5t-11 13.5v2zM123 883q9 14 25 19q3 1 7 1q22 0 54 -29q3 -3 22 -21q61 -61 63 -72q1 -2 1 -4q0 -10 -16 -14q-7 -2 -16 -2q-31 0 -84 27.5t-60 60.5q-2 7 -2 13q0 11 6 21z" />
    <glyph glyph-name="Iacute" unicode="&#xcd;" horiz-adv-x="323" 
d="M24 20q2 12 15.5 20t29.5 20.5t22 35.5q6 14 9 31l61 446q2 20 2 31q-1 19 -8.5 31t-16 16.5t-13.5 10.5t-5 13v5q1 20 51 20h111q25 0 36 -4.5t11 -13.5v-2q-2 -10 -10.5 -17t-19 -11.5t-21.5 -16.5t-16 -31q-7 -16 -8 -31l-62 -446q-2 -20 -2 -31q1 -19 8.5 -31
t16 -16.5t14 -11t5.5 -14.5v-3q-3 -20 -52 -20h-111q-25 0 -36 4.5t-11 13.5v2zM174 781q2 11 63 72q44 42 60 48q7 2 13 2q5 0 10 -1q16 -5 23.5 -17t7.5 -23q0 -6 -2 -13q-7 -33 -60 -60.5t-84 -27.5q-9 0 -16 2q-16 4 -16 14q0 2 1 4z" />
    <glyph glyph-name="Icircumflex" unicode="&#xce;" horiz-adv-x="323" 
d="M24 20q2 12 15.5 20t29.5 20.5t22 35.5q6 14 9 31l61 446q2 20 2 31q-1 19 -8.5 31t-16 16.5t-13.5 10.5t-5 13v5q1 20 51 20h111q25 0 36 -4.5t11 -13.5v-2q-2 -10 -10.5 -17t-19 -11.5t-21.5 -16.5t-16 -31q-7 -16 -8 -31l-62 -446q-2 -20 -2 -31q1 -19 8.5 -31
t16 -16.5t14 -11t5.5 -14.5v-3q-3 -20 -52 -20h-111q-25 0 -36 4.5t-11 13.5v2zM108 766q4 10 62 59q7 6 17 15t14.5 13t11 9.5t10 8t8 5.5t8 3.5t8 1.5t9.5 1h9q3 0 7 -1.5t6.5 -2t6.5 -4t6 -5t7 -7.5t8 -9t11 -12l12 -15q5 -7 13 -16t13 -14.5t9.5 -12t7 -10.5t2.5 -7
q0 -12 -13 -13h-2q-20 0 -56.5 15t-56.5 31q-26 -17 -66 -31.5t-59 -14.5h-2q-11 1 -11 10v3z" />
    <glyph glyph-name="Idieresis" unicode="&#xcf;" horiz-adv-x="323" 
d="M24 20q2 12 15.5 20t29.5 20.5t22 35.5q6 14 9 31l61 446q2 20 2 31q-1 19 -8.5 31t-16 16.5t-13.5 10.5t-5 13v5q1 20 51 20h111q25 0 36 -4.5t11 -13.5v-2q-2 -10 -10.5 -17t-19 -11.5t-21.5 -16.5t-16 -31q-7 -16 -8 -31l-62 -446q-2 -20 -2 -31q1 -19 8.5 -31
t16 -16.5t14 -11t5.5 -14.5v-3q-3 -20 -52 -20h-111q-25 0 -36 4.5t-11 13.5v2zM249 816q0 23 18 42.5t41 19.5q21 0 34.5 -13t13.5 -33q0 -23 -19.5 -39.5t-43.5 -16.5q-19 0 -31.5 11t-12.5 29zM105 816q0 23 17.5 42.5t41.5 19.5q20 0 33.5 -13t13.5 -33q0 -23 -19 -39.5
t-44 -16.5q-19 0 -31 11t-12 29z" />
    <glyph glyph-name="Eth" unicode="&#xd0;" horiz-adv-x="749" 
d="M24 20q2 10 10.5 17t19 11.5t22 16.5t16.5 31q5 11 9 41l26 189h-33q-16 0 -19.5 4.5t-3.5 11.5q0 3 1 7q3 22 29 22h32l27 192q4 27 4 41q0 19 -8 31t-17 16.5t-15 10.5t-6 14v4q3 20 52 20h206q103 0 177.5 -30.5t112 -81t49 -97.5t11.5 -86q0 -21 -3 -44
q-10 -73 -39.5 -135.5t-79 -114t-126 -81.5t-172.5 -30h-234q-48 0 -48 18v2zM206 57q22 -13 94 -13q277 0 317 270q5 33 5 63q0 108 -66.5 194t-221.5 86q-41 0 -55.5 -8.5t-18.5 -35.5l-34 -242h91q15 0 19 -4.5t4 -11.5q0 -3 -1 -6q-2 -12 -7.5 -17.5t-21.5 -5.5h-91
l-31 -223q-1 -6 -1 -11q0 -24 19 -35z" />
    <glyph glyph-name="Ntilde" unicode="&#xd1;" horiz-adv-x="753" 
d="M-1 21q1 11 10.5 18.5t20 13t21.5 23t15 44.5l62 444q2 16 2 29q0 17 -5 34t-15.5 22t-18 11.5t-7.5 15.5v4q4 20 53 20h45q17 0 29 -16l381 -493l53 389q2 11 2 20q0 14 -5 28t-14 19.5t-15.5 13t-6.5 16.5v2q2 12 13 16.5t35 4.5h67q23 0 32 -4t9 -13v-4
q-1 -10 -10.5 -18t-20.5 -13.5t-21.5 -23t-14.5 -44.5l-78 -556q-3 -24 -20 -24h-10q-17 0 -17 18v6q1 6 1 12q0 27 -19 50l-377 482l-60 -448q-2 -11 -2 -20q0 -14 5 -28t14.5 -19.5t16 -13t6.5 -16.5v-2q-2 -12 -13 -16.5t-35 -4.5h-68q-23 0 -31.5 4t-8.5 13v4zM286 801
q4 27 24.5 43.5t52.5 16.5q36 0 90.5 -21t68.5 -21q33 0 38 29q2 13 8 13q2 0 4 -1q13 -5 13 -26v-9v-3q-4 -27 -25 -44t-53 -17q-24 0 -77.5 21t-78.5 21q-36 0 -39 -29q-2 -13 -9 -13q-2 0 -5 2q-13 6 -13 27q0 5 1 11z" />
    <glyph glyph-name="Ograve" unicode="&#xd2;" horiz-adv-x="776" 
d="M170 586q118 122 287 122q137 0 216.5 -85.5t79.5 -207.5q0 -180 -112.5 -301t-275.5 -121h-16q-123 3 -210 86.5t-87 214.5q0 170 118 292zM215 114q62 -71 170 -71q82 0 144.5 53t93 133.5t30.5 172.5q0 118 -56.5 188t-155.5 70q-124 0 -206 -105.5t-82 -249.5
q0 -120 62 -191zM354 883q9 14 25 19q3 1 7 1q22 0 54 -29q3 -3 22 -21q61 -61 63 -72q1 -2 1 -4q0 -10 -16 -14q-7 -2 -16 -2q-31 0 -84 27.5t-60 60.5q-2 7 -2 13q0 11 6 21z" />
    <glyph glyph-name="Oacute" unicode="&#xd3;" horiz-adv-x="776" 
d="M52 294q0 170 118 292t287 122q137 0 216.5 -85.5t79.5 -207.5q0 -180 -112.5 -301t-275.5 -121h-16q-123 3 -210 86.5t-87 214.5zM153 305q0 -120 62 -191t170 -71q82 0 144.5 53t93 133.5t30.5 172.5q0 118 -56.5 188t-155.5 70q-124 0 -206 -105.5t-82 -249.5z
M405 781q2 11 63 72q44 42 60 48q7 2 13 2q5 0 10 -1q16 -5 23.5 -17t7.5 -23q0 -6 -2 -13q-7 -33 -60 -60.5t-84 -27.5q-9 0 -16 2q-16 4 -16 14q0 2 1 4z" />
    <glyph glyph-name="Ocircumflex" unicode="&#xd4;" horiz-adv-x="776" 
d="M170 586q118 122 287 122q137 0 216.5 -85.5t79.5 -207.5q0 -180 -112.5 -301t-275.5 -121h-16q-123 3 -210 86.5t-87 214.5q0 170 118 292zM153 305q0 -120 62 -191t170 -71q82 0 144.5 53t93 133.5t30.5 172.5q0 118 -56.5 188t-155.5 70q-124 0 -206 -105.5
t-82 -249.5zM338 766q4 10 62 59q7 6 17 15t14.5 13t11 9.5t10 8t8 5.5t8 3.5t8 1.5t9.5 1h9q3 0 7 -1.5t6.5 -2t6.5 -4t6 -5t7 -7.5t8 -9t11 -12l12 -15q5 -7 13 -16t13 -14.5t9.5 -12t7 -10.5t2.5 -7q0 -12 -13 -13h-2q-20 0 -56.5 15t-56.5 31q-26 -17 -66 -31.5
t-59 -14.5h-2q-11 1 -11 10v3z" />
    <glyph glyph-name="Otilde" unicode="&#xd5;" horiz-adv-x="776" 
d="M170 586q118 122 287 122q137 0 216.5 -85.5t79.5 -207.5q0 -180 -112.5 -301t-275.5 -121h-16q-123 3 -210 86.5t-87 214.5q0 170 118 292zM153 305q0 -120 62 -191t170 -71q82 0 144.5 53t93 133.5t30.5 172.5q0 118 -56.5 188t-155.5 70q-124 0 -206 -105.5
t-82 -249.5zM318 801q4 27 24.5 43.5t52.5 16.5q36 0 90.5 -21t68.5 -21q33 0 38 29q2 13 8 13q2 0 4 -1q13 -5 13 -26v-9v-3q-4 -27 -25 -44t-53 -17q-24 0 -77.5 21t-78.5 21q-36 0 -39 -29q-2 -13 -9 -13q-2 0 -5 2q-13 6 -13 27q0 5 1 11z" />
    <glyph glyph-name="Odieresis" unicode="&#xd6;" horiz-adv-x="776" 
d="M52 294q0 170 118 292t287 122q137 0 216.5 -85.5t79.5 -207.5q0 -180 -112.5 -301t-275.5 -121h-16q-123 3 -210 86.5t-87 214.5zM153 305q0 -120 62 -191t170 -71q82 0 144.5 53t93 133.5t30.5 172.5q0 118 -56.5 188t-155.5 70q-124 0 -206 -105.5t-82 -249.5z
M480 816q0 23 18 42.5t41 19.5q21 0 34.5 -13t13.5 -33q0 -23 -19.5 -39.5t-43.5 -16.5q-19 0 -31.5 11t-12.5 29zM336 816q0 23 17.5 42.5t41.5 19.5q20 0 33.5 -13t13.5 -33q0 -23 -19 -39.5t-44 -16.5q-19 0 -31 11t-12 29z" />
    <glyph glyph-name="multiply" unicode="&#xd7;" horiz-adv-x="417" 
d="M39 251q1 8 16 21l116 102l-88 103q-10 11 -10 19q0 1 1 5.5t15 17.5l3 2q15 13 23 13t19 -13l88 -102l117 102q15 13 23 13t19 -13l2 -2q10 -12 10 -20l-0.5 -4.5t-15.5 -17.5l-116 -103l88 -102q10 -11 10 -19q0 -1 -1 -5.5t-15 -17.5l-3 -3q-15 -13 -23 -13t-19 13
l-88 103l-117 -103q-15 -13 -23 -13t-19 13l-2 3q-10 12 -10 20v1z" />
    <glyph glyph-name="Oslash" unicode="&#xd8;" horiz-adv-x="776" 
d="M170 586q118 122 287 122q65 0 122 -22l56 97q7 13 17 13q7 0 15 -5q10 -6 10 -17q0 -7 -5 -16l-53 -92q64 -39 99 -105.5t35 -145.5q0 -180 -112.5 -301t-275.5 -121h-16q-56 2 -107 21l-50 -87q-7 -13 -18 -13q-6 0 -14 5q-9 8 -9 18q0 7 4 15l47 81q-68 38 -109 106
t-41 155q0 170 118 292zM153 305q0 -142 83 -212l312 539q-47 28 -107 28q-124 0 -206 -105.5t-82 -249.5zM385 43q82 0 144.5 53t93 133.5t30.5 172.5q0 131 -70 203l-309 -537q48 -25 111 -25z" />
    <glyph glyph-name="Ugrave" unicode="&#xd9;" horiz-adv-x="731" 
d="M111 277l41 294q2 8 2 18q0 7 -1 14q-1 24 -13 36t-21.5 19t-9.5 16v4q1 12 13 16t40 4h110q27 0 36.5 -3.5t9.5 -12.5q0 -2 -1 -9t-14 -14.5t-29 -20t-23 -35.5q-4 -13 -7 -32l-43 -310q-4 -27 -4 -51q0 -69 38 -118t132 -49t155 63.5t75 163.5l41 310q2 11 2 20
q0 14 -5 28t-14.5 19.5t-16 13t-6.5 16.5v2q4 21 49 21h67q23 0 32 -4t9 -13v-4q-1 -11 -10.5 -18.5t-20.5 -13t-21.5 -23t-14.5 -44.5l-42 -296q-19 -136 -97 -215t-210 -79q-126 0 -179.5 67t-53.5 159q0 29 5 61zM379 883q9 14 25 19q3 1 7 1q22 0 54 -29q3 -3 22 -21
q61 -61 63 -72q1 -2 1 -4q0 -10 -16 -14q-7 -2 -16 -2q-31 0 -84 27.5t-60 60.5q-2 7 -2 13q0 11 6 21z" />
    <glyph glyph-name="Uacute" unicode="&#xda;" horiz-adv-x="731" 
d="M111 277l41 294q2 8 2 18q0 7 -1 14q-1 24 -13 36t-21.5 19t-9.5 16v4q1 12 13 16t40 4h110q27 0 36.5 -3.5t9.5 -12.5q0 -2 -1 -9t-14 -14.5t-29 -20t-23 -35.5q-4 -13 -7 -32l-43 -310q-4 -27 -4 -51q0 -69 38 -118t132 -49t155 63.5t75 163.5l41 310q2 11 2 20
q0 14 -5 28t-14.5 19.5t-16 13t-6.5 16.5v2q4 21 49 21h67q23 0 32 -4t9 -13v-4q-1 -11 -10.5 -18.5t-20.5 -13t-21.5 -23t-14.5 -44.5l-42 -296q-19 -136 -97 -215t-210 -79q-126 0 -179.5 67t-53.5 159q0 29 5 61zM430 781q2 11 63 72q44 42 60 48q7 2 13 2q5 0 10 -1
q16 -5 23.5 -17t7.5 -23q0 -6 -2 -13q-7 -33 -60 -60.5t-84 -27.5q-9 0 -16 2q-16 4 -16 14q0 2 1 4z" />
    <glyph glyph-name="Ucircumflex" unicode="&#xdb;" horiz-adv-x="731" 
d="M111 277l41 294q2 8 2 18q0 7 -1 14q-1 24 -13 36t-21.5 19t-9.5 16v4q1 12 13 16t40 4h110q27 0 36.5 -3.5t9.5 -12.5q0 -2 -1 -9t-14 -14.5t-29 -20t-23 -35.5q-4 -13 -7 -32l-43 -310q-4 -27 -4 -51q0 -69 38 -118t132 -49t155 63.5t75 163.5l41 310q2 11 2 20
q0 14 -5 28t-14.5 19.5t-16 13t-6.5 16.5v2q4 21 49 21h67q23 0 32 -4t9 -13v-4q-1 -11 -10.5 -18.5t-20.5 -13t-21.5 -23t-14.5 -44.5l-42 -296q-19 -136 -97 -215t-210 -79q-126 0 -179.5 67t-53.5 159q0 29 5 61zM363 766q4 10 62 59q7 6 17 15t14.5 13t11 9.5t10 8
t8 5.5t8 3.5t8 1.5t9.5 1h9q3 0 7 -1.5t6.5 -2t6.5 -4t6 -5t7 -7.5t8 -9t11 -12l12 -15q5 -7 13 -16t13 -14.5t9.5 -12t7 -10.5t2.5 -7q0 -12 -13 -13h-2q-20 0 -56.5 15t-56.5 31q-26 -17 -66 -31.5t-59 -14.5h-2q-11 1 -11 10v3z" />
    <glyph glyph-name="Udieresis" unicode="&#xdc;" horiz-adv-x="731" 
d="M111 277l41 294q2 8 2 18q0 7 -1 14q-1 24 -13 36t-21.5 19t-9.5 16v4q1 12 13 16t40 4h110q27 0 36.5 -3.5t9.5 -12.5q0 -2 -1 -9t-14 -14.5t-29 -20t-23 -35.5q-4 -13 -7 -32l-43 -310q-4 -27 -4 -51q0 -69 38 -118t132 -49t155 63.5t75 163.5l41 310q2 11 2 20
q0 14 -5 28t-14.5 19.5t-16 13t-6.5 16.5v2q4 21 49 21h67q23 0 32 -4t9 -13v-4q-1 -11 -10.5 -18.5t-20.5 -13t-21.5 -23t-14.5 -44.5l-42 -296q-19 -136 -97 -215t-210 -79q-126 0 -179.5 67t-53.5 159q0 29 5 61zM523 859q18 19 41 19q21 0 34.5 -13t13.5 -33
q0 -23 -19.5 -39.5t-43.5 -16.5q-19 0 -31.5 11t-12.5 29q0 23 18 43zM361 816q0 23 17.5 42.5t41.5 19.5q20 0 33.5 -13t13.5 -33q0 -23 -19 -39.5t-44 -16.5q-19 0 -31 11t-12 29z" />
    <glyph glyph-name="Yacute" unicode="&#xdd;" horiz-adv-x="662" 
d="M50 679q2 12 13.5 16.5t37.5 4.5h139q38 0 38 -16v-3q-2 -10 -13 -18.5t-20 -14.5t-10.5 -15t-1.5 -12q0 -14 12 -34l119 -225l179 233q18 23 21 33.5t3 14.5q0 6 -4.5 9.5t-10 10t-5.5 13.5v3q4 21 40 21h80q21 0 30 -3.5t9 -12.5q0 -1 -1 -7.5t-10.5 -13t-23 -11
t-34 -19t-38.5 -37.5l-223 -287l-25 -182q-3 -15 -3 -31q1 -19 9 -31t16.5 -16.5t13.5 -10.5t6 -13q-1 -3 -1 -5q-3 -20 -52 -20h-110q-47 0 -47 18v2q1 10 10 17t19.5 11.5t21.5 16.5t16 31q4 9 8 31l25 183l-152 278q-13 24 -29.5 40t-27.5 21.5t-17.5 12t-6.5 15.5v2z
M353 781q2 11 63 72q44 42 60 48q7 2 13 2q5 0 10 -1q16 -5 23.5 -17t7.5 -23q0 -6 -2 -13q-7 -33 -60 -60.5t-84 -27.5q-9 0 -16 2q-16 4 -16 14q0 2 1 4z" />
    <glyph glyph-name="Thorn" unicode="&#xde;" horiz-adv-x="619" 
d="M24 21q2 12 15.5 20t29.5 20.5t22 35.5q6 14 9 31l61 441q2 14 2 25q0 20 -7 38t-16 28.5t-9 19.5v2q1 18 46 18h98q24 0 32.5 -4t8.5 -12v-2q-1 -11 -14 -20t-28 -30.5t-21 -61.5l80 1h9q125 0 191 -53t66 -134q0 -16 -3 -34q-27 -186 -305 -186h-71q-9 0 -15 -4
t-9 -14.5t-4 -20t-1.5 -20t-0.5 -13.5q0 -15 6.5 -26.5t15.5 -16t15.5 -11t6.5 -15.5v-2q-3 -20 -52 -20h-111q-25 0 -36 4.5t-11 13.5v2zM209 220q4 -5 21.5 -8.5t53.5 -3.5q190 0 211 142q2 16 2 30q0 67 -50 106t-154 41h-7q-21 0 -30.5 -5.5t-11.5 -21.5l-38 -264
q-1 -3 -1 -6q0 -6 4 -10z" />
    <glyph glyph-name="germandbls" unicode="&#xdf;" horiz-adv-x="576" 
d="M71 -86l-51 -16q-24 -7 -32.5 3t4.5 27q12 17 22 80l66 469q15 106 76 169.5t149 63.5q66 0 96 -34t23 -86q-5 -35 -32 -70.5t-53.5 -68t-30.5 -59.5q-1 -6 0.5 -12t6 -12t9 -10t15 -11.5t17.5 -11.5t22.5 -13.5t24.5 -15.5q32 -20 48 -31t35.5 -30.5t26 -41.5t2.5 -50
q-11 -70 -67 -117t-134 -46q-37 0 -80 13t-58 42q-15 33 -8 74q4 40 24 40q3 0 5 -1.5t4.5 -4.5t3.5 -5.5t3.5 -8t4.5 -8.5q45 -98 127 -98q35 0 59 20.5t28 50.5q6 40 -15.5 66.5t-69.5 55.5q-5 3 -15.5 9.5t-15.5 9.5t-14.5 9t-13.5 9.5t-12.5 11t-10.5 12t-8 13t-5.5 15
t-2.5 17t1 19.5q5 33 44.5 104t46.5 121q5 36 -7.5 63t-49.5 27q-20 0 -36.5 -7.5t-27.5 -25t-18 -30.5t-13 -41.5t-8 -40t-6 -41.5l-77 -546q-1 -10 -5.5 -13t-16.5 -7z" />
    <glyph glyph-name="agrave" unicode="&#xe0;" horiz-adv-x="601" 
d="M111 394q75 96 184 96q26 0 65.5 -10.5t49.5 -10.5q17 0 40.5 10.5t32.5 10.5q21 0 21 -32v-9l-21 -353v-6q0 -31 18 -31q9 0 23 14t20 14q10 0 10 -10v-4q-4 -30 -32 -55t-64 -25q-37 0 -52.5 21t-15.5 65q0 15 1 32q-32 -53 -82.5 -87t-110.5 -34q-70 0 -116.5 47
t-46.5 131q0 129 76 226zM163 93q32 -34 76 -34q62 0 111 67t55 163l2 29v12q0 51 -32 83.5t-82 32.5t-88.5 -40.5t-56 -94t-18.5 -106.5q0 -79 33 -112zM265 655q7 15 24 21q5 2 11 2q8 0 20 -4.5t21.5 -12t34.5 -27.5q62 -58 67 -70q1 -3 1 -5q0 -9 -12 -13q-10 -4 -22 -4
q-29 0 -81.5 23.5t-63.5 54.5q-3 9 -3 18t3 17z" />
    <glyph glyph-name="aacute" unicode="&#xe1;" horiz-adv-x="601" 
d="M111 394q75 96 184 96q26 0 65.5 -10.5t49.5 -10.5q17 0 40.5 10.5t32.5 10.5q21 0 21 -32v-9l-21 -353v-6q0 -31 18 -31q9 0 23 14t20 14q10 0 10 -10v-4q-4 -30 -32 -55t-64 -25q-37 0 -52.5 21t-15.5 65q0 15 1 32q-32 -53 -82.5 -87t-110.5 -34q-70 0 -116.5 47
t-46.5 131q0 129 76 226zM130 205q0 -79 32.5 -112.5t76.5 -33.5q62 0 111 67t55 163l2 29v12q0 51 -32 83.5t-82 32.5t-88.5 -40.5t-56 -94t-18.5 -106.5zM310 564q6 13 68 70q20 17 28.5 23.5t22 13.5t23.5 7q22 0 30.5 -14t8.5 -26q0 -9 -3 -18q-11 -31 -63.5 -54.5
t-81.5 -23.5q-12 0 -22 4q-12 4 -12 13q0 2 1 5z" />
    <glyph glyph-name="acircumflex" unicode="&#xe2;" horiz-adv-x="601" 
d="M35 168q0 129 75.5 225.5t184.5 96.5q26 0 65.5 -10.5t49.5 -10.5q17 0 40.5 10.5t32.5 10.5q21 0 21 -32v-9l-21 -353v-6q0 -31 18 -31q9 0 23 14t20 14q10 0 10 -10v-4q-4 -30 -32 -55t-64 -25q-37 0 -52.5 21t-15.5 65q0 15 1 32q-32 -53 -82.5 -87t-110.5 -34
q-70 0 -116.5 47t-46.5 131zM130 205q0 -79 32.5 -112.5t76.5 -33.5q62 0 111 67t55 163l2 29v12q0 51 -32 83.5t-82 32.5t-88.5 -40.5t-56 -94t-18.5 -106.5zM245 553q3 11 55 69q34 40 47 50.5t35 10.5q5 0 9 -0.5t7.5 -1t6.5 -2t5.5 -2.5t5 -4.5t4.5 -5.5t5 -7.5t5 -9
t6 -11.5t7 -13q37 -70 37 -73q-2 -13 -14 -14h-2q-18 0 -46 20t-48 45q-28 -25 -60.5 -45t-50.5 -20h-2q-12 1 -12 11v3z" />
    <glyph glyph-name="atilde" unicode="&#xe3;" horiz-adv-x="601" 
d="M35 168q0 129 75.5 225.5t184.5 96.5q26 0 65.5 -10.5t49.5 -10.5q17 0 40.5 10.5t32.5 10.5q21 0 21 -32v-9l-21 -353v-6q0 -31 18 -31q9 0 23 14t20 14q10 0 10 -10v-4q-4 -30 -32 -55t-64 -25q-37 0 -52.5 21t-15.5 65q0 15 1 32q-32 -53 -82.5 -87t-110.5 -34
q-70 0 -116.5 47t-46.5 131zM163 93q32 -34 76 -34q62 0 111 67t55 163l2 29v12q0 51 -32 83.5t-82 32.5t-88.5 -40.5t-56 -94t-18.5 -106.5q0 -79 33 -112zM229 581q4 27 24.5 43.5t52.5 16.5q36 0 90.5 -21t68.5 -21q33 0 38 29q2 13 8 13q2 0 4 -1q13 -5 13 -26v-9v-3
q-4 -27 -25 -44t-53 -17q-24 0 -77.5 21t-78.5 21q-36 0 -39 -29q-2 -13 -9 -13q-2 0 -5 2q-13 6 -13 27q0 5 1 11z" />
    <glyph glyph-name="adieresis" unicode="&#xe4;" horiz-adv-x="601" 
d="M111 394q75 96 184 96q26 0 65.5 -10.5t49.5 -10.5q17 0 40.5 10.5t32.5 10.5q21 0 21 -32v-9l-21 -353v-6q0 -31 18 -31q9 0 23 14t20 14q10 0 10 -10v-4q-4 -30 -32 -55t-64 -25q-37 0 -52.5 21t-15.5 65q0 15 1 32q-32 -53 -82.5 -87t-110.5 -34q-70 0 -116.5 47
t-46.5 131q0 129 76 226zM163 93q32 -34 76 -34q62 0 111 67t55 163l2 29v12q0 51 -32 83.5t-82 32.5t-88.5 -40.5t-56 -94t-18.5 -106.5q0 -79 33 -112zM223 609q0 23 17.5 42.5t41.5 19.5q21 0 34 -13t13 -33q0 -23 -19 -40t-44 -17q-18 0 -30.5 11.5t-12.5 29.5zM368 609
q0 23 17.5 42.5t41.5 19.5q20 0 33.5 -13t13.5 -33q0 -23 -19 -40t-44 -17q-18 0 -30.5 11.5t-12.5 29.5z" />
    <glyph glyph-name="aring" unicode="&#xe5;" horiz-adv-x="601" 
d="M111 394q75 96 184 96q26 0 65.5 -10.5t49.5 -10.5q17 0 40.5 10.5t32.5 10.5q21 0 21 -32v-9l-21 -353v-6q0 -31 18 -31q9 0 23 14t20 14q10 0 10 -10v-4q-4 -30 -32 -55t-64 -25q-37 0 -52.5 21t-15.5 65q0 15 1 32q-32 -53 -82.5 -87t-110.5 -34q-70 0 -116.5 47
t-46.5 131q0 129 76 226zM163 93q32 -34 76 -34q62 0 111 67t55 163l2 29v12q0 51 -32 83.5t-82 32.5t-88.5 -40.5t-56 -94t-18.5 -106.5q0 -79 33 -112zM271 622q6 41 38 67t74 26q41 0 62 -22t21 -52q0 -8 -1 -16q-6 -42 -37 -67q-32 -26 -74 -26t-63 22.5t-21 51.5
q0 8 1 16zM317 623q0 -23 13 -37.5t34 -14.5q22 0 37.5 16.5t17.5 39.5q0 22 -12 36.5t-33 14.5q-24 0 -39.5 -15.5t-17.5 -39.5z" />
    <glyph glyph-name="ae" unicode="&#xe6;" horiz-adv-x="881" 
d="M70 326q34 70 97.5 117t138.5 47q115 0 187 -81q84 81 198 81q63 0 104 -30t41 -84q0 -60 -47 -105.5t-119.5 -71.5t-168.5 -40q12 -45 46.5 -73t82.5 -28q81 0 162 75q10 9 18 9q4 0 8.5 -3t4.5 -9t-5 -15q-24 -45 -85.5 -85t-136.5 -40q-71 0 -124.5 39.5t-68.5 112.5
q-29 -67 -84 -109.5t-120 -42.5q-68 0 -115.5 51.5t-47.5 138.5q0 75 34 146zM163 95q33 -37 78 -37q60 0 104.5 65t58.5 166l13 90v1q0 9 -13.5 23t-41.5 27t-59 13q-55 0 -96.5 -38.5t-59.5 -89.5t-18 -100q0 -83 34 -120zM495 228q0 -22 21 -22q4 0 9 1q100 16 160 56
t60 98q0 36 -24 59t-62 23q-66 0 -115 -63t-49 -152z" />
    <glyph glyph-name="ccedilla" unicode="&#xe7;" horiz-adv-x="536" 
d="M120 404q81 86 196 86q90 0 133 -48t43 -96q0 -10 -2 -21q-4 -28 -21.5 -45t-40.5 -17q-21 1 -32 13t-11 30q0 5 1 10q1 11 1 21q0 18 -4.5 40t-28 44t-63.5 22q-70 0 -114 -65t-44 -149q0 -74 41.5 -120.5t112.5 -46.5q93 0 163 65q11 9 18 9q4 0 8 -3t4 -9t-4 -15
q-24 -44 -84.5 -81t-136.5 -38l-23 -43q93 -16 93 -79q0 -35 -27 -57t-65 -22q-55 0 -81 32q-4 4 -4 8t3.5 7.5t7.5 3.5t9 -3q30 -17 54 -17q22 0 34 12t12 30q0 38 -68 54q-14 3 -14 11q0 3 2 6l32 59q-83 10 -132.5 67t-49.5 138q0 120 82 207z" />
    <glyph glyph-name="egrave" unicode="&#xe8;" horiz-adv-x="520" 
d="M58 296q20 51 56.5 94.5t93.5 71.5t122 28q62 0 103 -30t41 -84q0 -60 -47 -105.5t-119 -71.5t-168 -40q12 -45 46.5 -73t82.5 -28q81 0 162 75q10 9 18 9q4 0 8.5 -3t4.5 -9t-5 -15q-24 -45 -85.5 -85t-137.5 -40q-83 0 -140 53.5t-57 151.5q0 49 21 101zM164 207
q100 16 160 56t60 98q0 36 -24 59t-62 23q-66 0 -115.5 -63t-49.5 -152q0 -22 22 -22q4 0 9 1zM205 653q7 15 24 21q5 2 11 2q8 0 20 -4.5t21.5 -12t34.5 -27.5q62 -58 67 -70q1 -3 1 -5q0 -9 -12 -13q-10 -4 -22 -4q-29 0 -81.5 23.5t-63.5 54.5q-3 9 -3 18t3 17z" />
    <glyph glyph-name="eacute" unicode="&#xe9;" horiz-adv-x="520" 
d="M58 296q20 51 56.5 94.5t93.5 71.5t122 28q62 0 103 -30t41 -84q0 -60 -47 -105.5t-119 -71.5t-168 -40q12 -45 46.5 -73t82.5 -28q81 0 162 75q10 9 18 9q4 0 8.5 -3t4.5 -9t-5 -15q-24 -45 -85.5 -85t-137.5 -40q-83 0 -140 53.5t-57 151.5q0 49 21 101zM164 207
q100 16 160 56t60 98q0 36 -24 59t-62 23q-66 0 -115.5 -63t-49.5 -152q0 -22 22 -22q4 0 9 1zM250 562q6 13 68 70q20 17 28.5 23.5t22 13.5t23.5 7q22 0 30.5 -14t8.5 -26q0 -9 -3 -18q-11 -31 -63.5 -54.5t-81.5 -23.5q-12 0 -22 4q-12 4 -12 13q0 2 1 5z" />
    <glyph glyph-name="ecircumflex" unicode="&#xea;" horiz-adv-x="520" 
d="M37 195q0 49 20.5 100.5t57 95t93.5 71.5t122 28q62 0 103 -30t41 -84q0 -60 -47 -105.5t-119 -71.5t-168 -40q12 -45 46.5 -73t82.5 -28q81 0 162 75q10 9 18 9q4 0 8.5 -3t4.5 -9t-5 -15q-24 -45 -85.5 -85t-137.5 -40q-83 0 -140 53.5t-57 151.5zM164 207
q100 16 160 56t60 98q0 36 -24 59t-62 23q-66 0 -115.5 -63t-49.5 -152q0 -22 22 -22q4 0 9 1zM185 551q3 11 55 69q34 40 47 50.5t35 10.5q5 0 9 -0.5t7.5 -1t6.5 -2t5.5 -2.5t5 -4.5t4.5 -5.5t5 -7.5t5 -9t6 -11.5t7 -13q37 -70 37 -73q-2 -13 -14 -14h-2q-18 0 -46 20
t-48 45q-28 -25 -60.5 -45t-50.5 -20h-2q-12 1 -12 11v3z" />
    <glyph glyph-name="edieresis" unicode="&#xeb;" horiz-adv-x="520" 
d="M37 195q0 49 20.5 100.5t57 95t93.5 71.5t122 28q62 0 103 -30t41 -84q0 -60 -47 -105.5t-119 -71.5t-168 -40q12 -45 46.5 -73t82.5 -28q81 0 162 75q10 9 18 9q4 0 8.5 -3t4.5 -9t-5 -15q-24 -45 -85.5 -85t-137.5 -40q-83 0 -140 53.5t-57 151.5zM164 207
q100 16 160 56t60 98q0 36 -24 59t-62 23q-66 0 -115.5 -63t-49.5 -152q0 -22 22 -22q4 0 9 1zM163 607q0 23 17.5 42.5t41.5 19.5q21 0 34 -13t13 -33q0 -23 -19 -40t-44 -17q-18 0 -30.5 11.5t-12.5 29.5zM326 650q17 19 41 19q20 0 33.5 -13t13.5 -33q0 -23 -19 -40
t-44 -17q-18 0 -30.5 11.5t-12.5 29.5q0 23 18 43z" />
    <glyph glyph-name="igrave" unicode="&#xec;" horiz-adv-x="281" 
d="M62 91l40 268q1 7 1 13q0 9 -4 19t-11 14.5t-13.5 11t-6.5 14.5q0 9 11 18t45 21q46 17 63 17q19 0 19 -18v-5l-53 -368q-1 -7 -1 -12q0 -25 18 -25q10 0 24.5 14t19.5 14q10 0 10 -10v-4q-3 -30 -31 -55t-65 -25q-40 0 -54 22.5t-14 50.5q0 12 2 25zM70 655q7 15 24 21
q5 2 11 2q8 0 20 -4.5t21.5 -12t34.5 -27.5q62 -58 67 -70q1 -3 1 -5q0 -9 -12 -13q-10 -4 -22 -4q-29 0 -81.5 23.5t-63.5 54.5q-3 9 -3 18t3 17z" />
    <glyph glyph-name="iacute" unicode="&#xed;" horiz-adv-x="281" 
d="M62 91l40 268q1 7 1 13q0 9 -4 19t-11 14.5t-13.5 11t-6.5 14.5q0 9 11 18t45 21q46 17 63 17q19 0 19 -18v-5l-53 -368q-1 -7 -1 -12q0 -25 18 -25q10 0 24.5 14t19.5 14q10 0 10 -10v-4q-3 -30 -31 -55t-65 -25q-40 0 -54 22.5t-14 50.5q0 12 2 25zM116 564q6 13 68 70
q20 17 28.5 23.5t22 13.5t23.5 7q22 0 30.5 -14t8.5 -26q0 -9 -3 -18q-11 -31 -63.5 -54.5t-81.5 -23.5q-12 0 -22 4q-12 4 -12 13q0 2 1 5z" />
    <glyph glyph-name="icircumflex" unicode="&#xee;" horiz-adv-x="281" 
d="M62 91l40 268q1 7 1 13q0 9 -4 19t-11 14.5t-13.5 11t-6.5 14.5q0 9 11 18t45 21q46 17 63 17q19 0 19 -18v-5l-53 -368q-1 -7 -1 -12q0 -25 18 -25q10 0 24.5 14t19.5 14q10 0 10 -10v-4q-3 -30 -31 -55t-65 -25q-40 0 -54 22.5t-14 50.5q0 12 2 25zM50 553q3 11 55 69
q34 40 47 50.5t35 10.5q5 0 9 -0.5t7.5 -1t6.5 -2t5.5 -2.5t5 -4.5t4.5 -5.5t5 -7.5t5 -9t6 -11.5t7 -13q37 -70 37 -73q-2 -13 -14 -14h-2q-18 0 -46 20t-48 45q-28 -25 -60.5 -45t-50.5 -20h-2q-12 1 -12 11v3z" />
    <glyph glyph-name="idieresis" unicode="&#xef;" horiz-adv-x="281" 
d="M62 91l40 268q1 7 1 13q0 9 -4 19t-11 14.5t-13.5 11t-6.5 14.5q0 9 11 18t45 21q46 17 63 17q19 0 19 -18v-5l-53 -368q-1 -7 -1 -12q0 -25 18 -25q10 0 24.5 14t19.5 14q10 0 10 -10v-4q-3 -30 -31 -55t-65 -25q-40 0 -54 22.5t-14 50.5q0 12 2 25zM46 652q17 19 41 19
q21 0 34 -13t13 -33q0 -23 -19 -40t-44 -17q-18 0 -30.5 11.5t-12.5 29.5q0 23 18 43zM191 652q17 19 41 19q20 0 33.5 -13t13.5 -33q0 -23 -19 -40t-44 -17q-18 0 -30.5 11.5t-12.5 29.5q0 23 18 43z" />
    <glyph glyph-name="eth" unicode="&#xf0;" horiz-adv-x="564" 
d="M457 649l-50 -17q122 -144 122 -324q0 -133 -85 -225.5t-207 -92.5q-88 0 -144.5 55.5t-56.5 143.5q0 119 83.5 211t190.5 90q54 0 98 -25q-22 77 -66 145l-73 -25q-18 -7 -23 13q-5 18 14 24l59 21q-14 19 -37 42q-15 14 -2 29q13 17 30 5q35 -23 68 -56l70 24
q19 7 22 -12q5 -20 -13 -26zM251 37q82 0 132 79.5t49 175.5q0 68 -30 112t-93 44q-78 -1 -129 -79t-50 -166q0 -72 31.5 -119t89.5 -47z" />
    <glyph glyph-name="ntilde" unicode="&#xf1;" horiz-adv-x="622" 
d="M51 13l50 346q1 7 1 13q0 10 -4 19.5t-11 13.5t-13.5 9.5t-6.5 13.5q0 11 10.5 18.5t45.5 23.5q37 16 60 16q19 0 19 -17v-5l-20 -134q40 74 94.5 115.5t117.5 41.5q62 0 90.5 -40.5t28.5 -109.5v-18l-12 -223v-7q0 -30 16 -30q10 0 24.5 14t19.5 14q10 0 10 -10v-4
q-3 -30 -31 -55t-65 -25q-66 0 -66 81q0 8 1 17l12 222v13q0 95 -69 95q-61 0 -116.5 -82.5t-75.5 -201.5l-19 -109q-3 -18 -19 -22l-51 -13q-4 -1 -7 -1q-6 0 -10 4t-4 13v4zM176 569q4 27 24.5 43.5t52.5 16.5q36 0 90.5 -21t68.5 -21q33 0 38 29q2 13 8 13q2 0 4 -1
q13 -5 13 -26v-9v-3q-4 -27 -25 -44t-53 -17q-24 0 -77.5 21t-78.5 21q-36 0 -39 -29q-2 -13 -9 -13q-2 0 -5 2q-13 6 -13 27q0 5 1 11z" />
    <glyph glyph-name="ograve" unicode="&#xf2;" horiz-adv-x="569" 
d="M123 401q86 89 203 89q95 0 150 -57.5t55 -140.5q0 -126 -82.5 -214t-200.5 -88q-94 0 -152.5 57t-58.5 146q0 119 86 208zM167 84q31 -48 96 -48q75 0 120 75.5t45 170.5q0 71 -27 117t-88 46q-80 0 -128.5 -74.5t-49.5 -163.5q1 -76 32 -123zM237 655q7 15 24 21
q5 2 11 2q8 0 20 -4.5t21.5 -12t34.5 -27.5q62 -58 67 -70q1 -3 1 -5q0 -9 -12 -13q-10 -4 -22 -4q-29 0 -81.5 23.5t-63.5 54.5q-3 9 -3 18t3 17z" />
    <glyph glyph-name="oacute" unicode="&#xf3;" horiz-adv-x="569" 
d="M123 401q86 89 203 89q95 0 150 -57.5t55 -140.5q0 -126 -82.5 -214t-200.5 -88q-94 0 -152.5 57t-58.5 146q0 119 86 208zM167 84q31 -48 96 -48q75 0 120 75.5t45 170.5q0 71 -27 117t-88 46q-80 0 -128.5 -74.5t-49.5 -163.5q1 -76 32 -123zM282 564q6 13 68 70
q20 17 28.5 23.5t22 13.5t23.5 7q22 0 30.5 -14t8.5 -26q0 -9 -3 -18q-11 -31 -63.5 -54.5t-81.5 -23.5q-12 0 -22 4q-12 4 -12 13q0 2 1 5z" />
    <glyph glyph-name="ocircumflex" unicode="&#xf4;" horiz-adv-x="569" 
d="M123 401q86 89 203 89q95 0 150 -57.5t55 -140.5q0 -126 -82.5 -214t-200.5 -88q-94 0 -152.5 57t-58.5 146q0 119 86 208zM167 84q31 -48 96 -48q75 0 120 75.5t45 170.5q0 71 -27 117t-88 46q-80 0 -128.5 -74.5t-49.5 -163.5q1 -76 32 -123zM217 553q3 11 55 69
q34 40 47 50.5t35 10.5q5 0 9 -0.5t7.5 -1t6.5 -2t5.5 -2.5t5 -4.5t4.5 -5.5t5 -7.5t5 -9t6 -11.5t7 -13q37 -70 37 -73q-2 -13 -14 -14h-2q-18 0 -46 20t-48 45q-28 -25 -60.5 -45t-50.5 -20h-2q-12 1 -12 11v3z" />
    <glyph glyph-name="otilde" unicode="&#xf5;" horiz-adv-x="569" 
d="M123 401q86 89 203 89q95 0 150 -57.5t55 -140.5q0 -126 -82.5 -214t-200.5 -88q-94 0 -152.5 57t-58.5 146q0 119 86 208zM135 207q1 -76 32 -123.5t96 -47.5q75 0 120 75.5t45 170.5q0 71 -27 117t-88 46q-80 0 -128.5 -74.5t-49.5 -163.5zM201 581q4 27 24.5 43.5
t52.5 16.5q36 0 90.5 -21t68.5 -21q33 0 38 29q2 13 8 13q2 0 4 -1q13 -5 13 -26v-9v-3q-4 -27 -25 -44t-53 -17q-24 0 -77.5 21t-78.5 21q-36 0 -39 -29q-2 -13 -9 -13q-2 0 -5 2q-13 6 -13 27q0 5 1 11z" />
    <glyph glyph-name="odieresis" unicode="&#xf6;" horiz-adv-x="569" 
d="M37 193q0 119 86 208t203 89q95 0 150 -57.5t55 -140.5q0 -126 -82.5 -214t-200.5 -88q-94 0 -152.5 57t-58.5 146zM167 84q31 -48 96 -48q75 0 120 75.5t45 170.5q0 71 -27 117t-88 46q-80 0 -128.5 -74.5t-49.5 -163.5q1 -76 32 -123zM195 609q0 23 17.5 42.5
t41.5 19.5q21 0 34 -13t13 -33q0 -23 -19 -40t-44 -17q-18 0 -30.5 11.5t-12.5 29.5zM358 652q17 19 41 19q20 0 33.5 -13t13.5 -33q0 -23 -19 -40t-44 -17q-18 0 -30.5 11.5t-12.5 29.5q0 23 18 43z" />
    <glyph glyph-name="divide" unicode="&#xf7;" horiz-adv-x="427" 
d="M230 461q-18 0 -31 11.5t-13 32.5q0 25 17.5 41t39.5 16q18 0 31 -12t13 -33q0 -25 -17 -40.5t-40 -15.5zM372 343h-309q-17 0 -21.5 5.5t-4.5 24.5v3q1 18 8.5 24t25.5 6h310q17 0 21.5 -5.5t4.5 -24.5v-3q-1 -17 -8.5 -23.5t-26.5 -6.5zM199 184q-19 0 -32 11.5
t-13 32.5q0 25 18 41t40 16q19 0 31.5 -12t12.5 -34q0 -24 -17 -39.5t-40 -15.5z" />
    <glyph glyph-name="oslash" unicode="&#xf8;" horiz-adv-x="569" 
d="M37 193q0 119 86 208t203 89q42 0 77 -12l57 99q9 15 24 15q18 0 18 -14q0 -6 -5 -16l-58 -101q44 -26 68 -71t24 -98q0 -126 -82.5 -214t-200.5 -88q-38 0 -74 11l-55 -96q-12 -21 -29 -21q-18 0 -18 16q0 4 6 14l59 103q-47 25 -73.5 71t-26.5 105zM135 207
q2 -86 37 -130l202 351q-25 17 -61 17q-80 0 -128.5 -74.5t-49.5 -163.5zM263 36q75 0 120 75.5t45 170.5q0 74 -26 115l-199 -346q24 -15 60 -15z" />
    <glyph glyph-name="ugrave" unicode="&#xf9;" horiz-adv-x="617" 
d="M78 448q10 8 45 22q44 18 67 18q11 0 15.5 -6t4.5 -13q0 -2 -1 -5l-38 -265q-3 -23 -4 -35.5t-1 -24.5q0 -8 0.5 -24.5t6.5 -30.5t20.5 -24.5t37.5 -10.5q62 0 121.5 85.5t78.5 203.5l18 111q2 16 23 22l48 14q4 1 7 1q7 0 11.5 -5t4.5 -12v-5l-55 -367q-2 -9 -2 -16
q0 -22 18 -22q10 0 24 14t20 14q10 0 10 -10v-4q-3 -30 -31 -55t-65 -25q-67 0 -67 83q0 23 5 52q-86 -138 -196 -138q-74 0 -102.5 42t-28.5 100q0 22 3 46l25 186q1 7 1 13q0 9 -4 18t-11 12t-13.5 8t-6.5 13q0 11 11 20zM262 653q7 15 24 21q5 2 11 2q8 0 20 -4.5
t21.5 -12t34.5 -27.5q62 -58 67 -70q1 -3 1 -5q0 -9 -12 -13q-10 -4 -22 -4q-29 0 -81.5 23.5t-63.5 54.5q-3 9 -3 18t3 17z" />
    <glyph glyph-name="uacute" unicode="&#xfa;" horiz-adv-x="617" 
d="M78 448q10 8 45 22q44 18 67 18q11 0 15.5 -6t4.5 -13q0 -2 -1 -5l-38 -265q-3 -23 -4 -35.5t-1 -24.5q0 -8 0.5 -24.5t6.5 -30.5t20.5 -24.5t37.5 -10.5q62 0 121.5 85.5t78.5 203.5l18 111q2 16 23 22l48 14q4 1 7 1q7 0 11.5 -5t4.5 -12v-5l-55 -367q-2 -9 -2 -16
q0 -22 18 -22q10 0 24 14t20 14q10 0 10 -10v-4q-3 -30 -31 -55t-65 -25q-67 0 -67 83q0 23 5 52q-86 -138 -196 -138q-74 0 -102.5 42t-28.5 100q0 22 3 46l25 186q1 7 1 13q0 9 -4 18t-11 12t-13.5 8t-6.5 13q0 11 11 20zM307 562q6 13 68 70q20 17 28.5 23.5t22 13.5
t23.5 7q22 0 30.5 -14t8.5 -26q0 -9 -3 -18q-11 -31 -63.5 -54.5t-81.5 -23.5q-12 0 -22 4q-12 4 -12 13q0 2 1 5z" />
    <glyph glyph-name="ucircumflex" unicode="&#xfb;" horiz-adv-x="617" 
d="M67 428q0 11 10.5 19.5t45.5 22.5q44 18 67 18q11 0 15.5 -6t4.5 -13q0 -2 -1 -5l-38 -265q-3 -23 -4 -35.5t-1 -24.5q0 -8 0.5 -24.5t6.5 -30.5t20.5 -24.5t37.5 -10.5q62 0 121.5 85.5t78.5 203.5l18 111q2 16 23 22l48 14q4 1 7 1q7 0 11.5 -5t4.5 -12v-5l-55 -367
q-2 -9 -2 -16q0 -22 18 -22q10 0 24 14t20 14q10 0 10 -10v-4q-3 -30 -31 -55t-65 -25q-67 0 -67 83q0 23 5 52q-86 -138 -196 -138q-74 0 -102.5 42t-28.5 100q0 22 3 46l25 186q1 7 1 13q0 9 -4 18t-11 12t-13.5 8t-6.5 13zM242 551q3 11 55 69q34 40 47 50.5t35 10.5
q5 0 9 -0.5t7.5 -1t6.5 -2t5.5 -2.5t5 -4.5t4.5 -5.5t5 -7.5t5 -9t6 -11.5t7 -13q37 -70 37 -73q-2 -13 -14 -14h-2q-18 0 -46 20t-48 45q-28 -25 -60.5 -45t-50.5 -20h-2q-12 1 -12 11v3z" />
    <glyph glyph-name="udieresis" unicode="&#xfc;" horiz-adv-x="617" 
d="M67 428q0 11 10.5 19.5t45.5 22.5q44 18 67 18q11 0 15.5 -6t4.5 -13q0 -2 -1 -5l-38 -265q-3 -23 -4 -35.5t-1 -24.5q0 -8 0.5 -24.5t6.5 -30.5t20.5 -24.5t37.5 -10.5q62 0 121.5 85.5t78.5 203.5l18 111q2 16 23 22l48 14q4 1 7 1q7 0 11.5 -5t4.5 -12v-5l-55 -367
q-2 -9 -2 -16q0 -22 18 -22q10 0 24 14t20 14q10 0 10 -10v-4q-3 -30 -31 -55t-65 -25q-67 0 -67 83q0 23 5 52q-86 -138 -196 -138q-74 0 -102.5 42t-28.5 100q0 22 3 46l25 186q1 7 1 13q0 9 -4 18t-11 12t-13.5 8t-6.5 13zM220 607q0 23 17.5 42.5t41.5 19.5q21 0 34 -13
t13 -33q0 -23 -19 -40t-44 -17q-18 0 -30.5 11.5t-12.5 29.5zM383 650q17 19 41 19q20 0 33.5 -13t13.5 -33q0 -23 -19 -40t-44 -17q-18 0 -30.5 11.5t-12.5 29.5q0 23 18 43z" />
    <glyph glyph-name="yacute" unicode="&#xfd;" horiz-adv-x="521" 
d="M-65 -80q16 18 40 18q31 0 51 -38q12 -23 27 -34.5t45 -11.5q43 0 76 34.5t39 80.5q1 7 1 15q0 29 -10 76q-35 150 -95 304q-11 30 -46 30h-2q-27 0 -27 16q0 21 44.5 50t66.5 29q19 0 27 -21q82 -230 129 -438q108 166 108 275q0 40 -20.5 72.5t-20.5 50.5
q0 23 21.5 42.5t48.5 19.5q52 0 52 -64q0 -100 -46.5 -215.5t-101.5 -198.5q-145 -222 -309 -222q-55 0 -84 23.5t-29 62.5q0 27 15 44zM243 552q6 13 68 70q20 17 28.5 23.5t22 13.5t23.5 7q22 0 30.5 -14t8.5 -26q0 -9 -3 -18q-11 -31 -63.5 -54.5t-81.5 -23.5
q-12 0 -22 4q-12 4 -12 13q0 2 1 5z" />
    <glyph glyph-name="thorn" unicode="&#xfe;" horiz-adv-x="577" 
d="M-21 -182q1 10 14.5 20.5t28 29.5t18.5 52l89 631q2 13 2 24q0 39 -23 53q-15 9 -15 22v2q1 13 33 26q68 31 96 33h3q8 0 10.5 -4t2.5 -13v-5l-43 -307q36 49 89 77t107 28q74 0 113 -49t39 -115v-7q-2 -144 -88.5 -233.5t-200.5 -89.5q-52 0 -110 29l-14 -102
q-2 -12 -2 -23t3.5 -25t11 -21.5t13 -15.5t5.5 -15v-2q-1 -10 -11 -14t-34 -4h-95q-26 0 -34 4t-8 12v2zM189 74q29 -35 77 -35q77 0 126 78t49 182v4q-2 54 -28 86t-75 32q-55 0 -101 -53t-64 -142l-7 -47q-1 -12 -1 -23q0 -54 24 -82z" />
    <glyph glyph-name="ydieresis" unicode="&#xff;" horiz-adv-x="521" 
d="M-80 -124q0 27 15.5 44.5t39.5 17.5q31 0 51 -38q12 -23 27 -34.5t45 -11.5q43 0 76 34.5t39 80.5q1 7 1 15q0 29 -10 76q-35 150 -95 304q-11 30 -46 30h-2q-27 0 -27 16q0 21 44.5 50t66.5 29q19 0 27 -21q82 -230 129 -438q108 166 108 275q0 40 -20.5 72.5
t-20.5 50.5q0 23 21.5 42.5t48.5 19.5q52 0 52 -64q0 -100 -46.5 -215.5t-101.5 -198.5q-145 -222 -309 -222q-55 0 -84 23.5t-29 62.5zM156 597q0 23 17.5 42.5t41.5 19.5q21 0 34 -13t13 -33q0 -23 -19 -40t-44 -17q-18 0 -30.5 11.5t-12.5 29.5zM301 597q0 23 17.5 42.5
t41.5 19.5q20 0 33.5 -13t13.5 -33q0 -23 -19 -40t-44 -17q-18 0 -30.5 11.5t-12.5 29.5z" />
    <glyph glyph-name="Amacron" unicode="&#x100;" horiz-adv-x="686" 
d="M-27 19q2 11 11.5 18t22 12t30.5 23t33 46l256 481q8 19 8 29q0 6 -4.5 12t-15.5 16t-11 20v3q2 21 30 21h92q19 0 23 -18l143 -564q7 -27 18.5 -44.5t21 -23t15 -11.5t5.5 -14v-3q-4 -22 -51 -22h-117q-39 0 -39 17v2q2 10 12 18.5t20 14.5t14 18t4 22q0 12 -4 27
l-16 63q-5 19 -16 23q-15 6 -135 6q-115 0 -136 -3.5t-32 -26.5l-33 -63q-16 -36 -16 -50q0 -3 2 -9.5t13.5 -16.5t11.5 -19v-2q-4 -21 -40 -21h-81q-39 0 -39 17v2zM206 259q13 -5 123 -5q109 0 118 6q4 2 4 9q0 5 -2 11l-78 310l-165 -313q-4 -7 -4 -12q0 -4 4 -6z
M227 800q2 15 7.5 20t24.5 5h227q19 0 23 -4t4 -12q0 -4 -1 -8q-2 -15 -7.5 -20.5t-25.5 -5.5h-227q-19 0 -22.5 4t-3.5 12q0 4 1 9z" />
    <glyph glyph-name="amacron" unicode="&#x101;" horiz-adv-x="601" 
d="M35 168q0 129 75.5 225.5t184.5 96.5q26 0 65.5 -10.5t49.5 -10.5q17 0 40.5 10.5t32.5 10.5q21 0 21 -32v-9l-21 -353v-6q0 -31 18 -31q9 0 23 14t20 14q10 0 10 -10v-4q-4 -30 -32 -55t-64 -25q-37 0 -52.5 21t-15.5 65q0 15 1 32q-32 -53 -82.5 -87t-110.5 -34
q-70 0 -116.5 47t-46.5 131zM130 205q0 -79 32.5 -112.5t76.5 -33.5q62 0 111 67t55 163l2 29v12q0 51 -32 83.5t-82 32.5t-88.5 -40.5t-56 -94t-18.5 -106.5zM215 580q4 15 10 20t25 5h228q19 0 22 -4t3 -8q0 -5 -3 -12q-4 -16 -10 -21t-26 -5h-227q-19 0 -22 4t-3 8
q0 5 3 13z" />
    <glyph glyph-name="Abreve" unicode="&#x102;" horiz-adv-x="686" 
d="M-27 19q2 11 11.5 18t22 12t30.5 23t33 46l256 481q8 19 8 29q0 6 -4.5 12t-15.5 16t-11 20v3q2 21 30 21h92q19 0 23 -18l143 -564q7 -27 18.5 -44.5t21 -23t15 -11.5t5.5 -14v-3q-4 -22 -51 -22h-117q-39 0 -39 17v2q2 10 12 18.5t20 14.5t14 18t4 22q0 12 -4 27
l-16 63q-5 19 -16 23q-15 6 -135 6q-115 0 -136 -3.5t-32 -26.5l-33 -63q-16 -36 -16 -50q0 -3 2 -9.5t13.5 -16.5t11.5 -19v-2q-4 -21 -40 -21h-81q-39 0 -39 17v2zM206 259q13 -5 123 -5q109 0 118 6q4 2 4 9q0 5 -2 11l-78 310l-165 -313q-4 -7 -4 -12q0 -4 4 -6z
M270 869q2 22 16 22q7 0 14 -11q27 -53 87 -53t104 53q11 11 16 11q10 0 10 -12q0 -4 -1 -10q-9 -47 -47 -79.5t-92 -32.5q-57 0 -82.5 30.5t-25.5 69.5q0 6 1 12z" />
    <glyph glyph-name="abreve" unicode="&#x103;" horiz-adv-x="601" 
d="M111 394q75 96 184 96q26 0 65.5 -10.5t49.5 -10.5q17 0 40.5 10.5t32.5 10.5q21 0 21 -32v-9l-21 -353v-6q0 -31 18 -31q9 0 23 14t20 14q10 0 10 -10v-4q-4 -30 -32 -55t-64 -25q-37 0 -52.5 21t-15.5 65q0 15 1 32q-32 -53 -82.5 -87t-110.5 -34q-70 0 -116.5 47
t-46.5 131q0 129 76 226zM130 205q0 -79 32.5 -112.5t76.5 -33.5q62 0 111 67t55 163l2 29v12q0 51 -32 83.5t-82 32.5t-88.5 -40.5t-56 -94t-18.5 -106.5zM244 649q2 22 16 22q7 0 14 -11q27 -53 87 -53t104 53q11 11 16 11q10 0 10 -12q0 -4 -1 -10q-9 -47 -47 -79.5
t-92 -32.5q-57 0 -82.5 30.5t-25.5 69.5q0 6 1 12z" />
    <glyph glyph-name="Aogonek" unicode="&#x104;" horiz-adv-x="686" 
d="M-27 19q2 11 11.5 18t22 12t30.5 23t33 46l256 481q8 19 8 29q0 6 -4.5 12t-15.5 16t-11 20v3q2 21 30 21h92q19 0 23 -18l143 -564q7 -27 18.5 -44.5t21 -23t15 -11.5t5.5 -14v-3q-4 -22 -51 -22h-23q-47 -48 -47 -92q0 -25 15 -39.5t43 -14.5q19 0 41 9q6 3 10 3
q6 0 8 -4t2 -6q0 -6 -6 -11q-29 -28 -79 -28q-41 0 -69 21t-28 58q0 54 75 104h-59q-39 0 -39 17v2q2 10 12 18.5t20 14.5t14 18t4 22q0 12 -4 27l-16 63q-5 19 -16 23q-15 6 -135 6q-115 0 -136 -3.5t-32 -26.5l-33 -63q-16 -36 -16 -50q0 -3 2 -9.5t13.5 -16.5t11.5 -19
v-2q-4 -21 -40 -21h-81q-39 0 -39 17v2zM206 259q13 -5 123 -5q109 0 118 6q4 2 4 9q0 5 -2 11l-78 310l-165 -313q-4 -7 -4 -12q0 -4 4 -6z" />
    <glyph glyph-name="aogonek" unicode="&#x105;" horiz-adv-x="601" 
d="M35 168q0 129 75.5 225.5t184.5 96.5q26 0 65.5 -10.5t49.5 -10.5q17 0 40.5 10.5t32.5 10.5q21 0 21 -32v-9l-21 -353v-6q0 -31 18 -31q9 0 23 14t20 14q10 0 10 -10v-4q-3 -23 -22 -45t-46 -31q-41 -45 -41 -85q0 -25 15 -39.5t43 -14.5q19 0 41 9q6 3 10 3q6 0 8 -4
t2 -6q0 -6 -6 -11q-29 -28 -79 -28q-41 0 -69 21t-28 58q0 47 60 94q-52 6 -52 88q0 14 1 29q-32 -53 -82.5 -87t-110.5 -34q-70 0 -116.5 47t-46.5 131zM163 93q32 -34 76 -34q62 0 111 67t55 163l2 29v12q0 51 -32 83.5t-82 32.5t-88.5 -40.5t-56 -94t-18.5 -106.5
q0 -79 33 -112z" />
    <glyph glyph-name="Cacute" unicode="&#x106;" horiz-adv-x="687" 
d="M56 355q22 158 141 256.5t282 98.5q38 0 75.5 -7t46.5 -7q12 0 25.5 6t20.5 6q15 0 21.5 -11t9.5 -42q7 -67 8 -129q0 -32 -20 -35h-1q-19 0 -38 35q-15 26 -22 37.5t-25.5 33t-36 31.5t-46.5 18.5t-64 8.5q-107 0 -182 -81.5t-92 -196.5q-4 -33 -4 -63
q0 -99 55.5 -180.5t176.5 -81.5q122 0 223 96q10 9 17 9q6 0 9.5 -5t3.5 -11q0 -11 -11 -25q-35 -45 -107.5 -85.5t-166.5 -40.5q-153 0 -228 94.5t-75 210.5q0 29 4 60zM372 781q2 11 63 72q44 42 60 48q7 2 13 2q5 0 10 -1q16 -5 23.5 -17t7.5 -23q0 -6 -2 -13
q-7 -33 -60 -60.5t-84 -27.5q-9 0 -16 2q-16 4 -16 14q0 2 1 4z" />
    <glyph glyph-name="cacute" unicode="&#x107;" horiz-adv-x="536" 
d="M120 404q81 86 196 86q90 0 133 -48t43 -96q0 -10 -2 -21q-4 -28 -21.5 -45t-40.5 -17q-21 1 -32 13t-11 30q0 5 1 10q1 11 1 21q0 18 -4.5 40t-28 44t-63.5 22q-70 0 -114 -65t-44 -149q0 -74 41.5 -120.5t112.5 -46.5q93 0 163 65q11 9 18 9q4 0 8 -3t4 -9t-4 -15
q-24 -44 -85.5 -81.5t-137.5 -37.5q-97 0 -156 59t-59 148q0 120 82 207zM265 564q6 13 68 70q20 17 28.5 23.5t22 13.5t23.5 7q22 0 30.5 -14t8.5 -26q0 -9 -3 -18q-11 -31 -63.5 -54.5t-81.5 -23.5q-12 0 -22 4q-12 4 -12 13q0 2 1 5z" />
    <glyph glyph-name="Cdotaccent" unicode="&#x10a;" horiz-adv-x="687" 
d="M56 355q22 158 141 256.5t282 98.5q38 0 75.5 -7t46.5 -7q12 0 25.5 6t20.5 6q15 0 21.5 -11t9.5 -42q7 -67 8 -129q0 -32 -20 -35h-1q-19 0 -38 35q-15 26 -22 37.5t-25.5 33t-36 31.5t-46.5 18.5t-64 8.5q-107 0 -182 -81.5t-92 -196.5q-4 -33 -4 -63
q0 -99 55.5 -180.5t176.5 -81.5q122 0 223 96q10 9 17 9q6 0 9.5 -5t3.5 -11q0 -11 -11 -25q-35 -45 -107.5 -85.5t-166.5 -40.5q-153 0 -228 94.5t-75 210.5q0 29 4 60zM358 835q2 28 28 51t51 23q4 0 8 -1q20 -1 32.5 -16.5t12.5 -32.5v-3q-2 -27 -29 -49t-53 -22h-5
q-21 2 -33 15t-12 32v3z" />
    <glyph glyph-name="cdotaccent" unicode="&#x10b;" horiz-adv-x="536" 
d="M120 404q81 86 196 86q90 0 133 -48t43 -96q0 -10 -2 -21q-4 -28 -21.5 -45t-40.5 -17q-21 1 -32 13t-11 30q0 5 1 10q1 11 1 21q0 18 -4.5 40t-28 44t-63.5 22q-70 0 -114 -65t-44 -149q0 -74 41.5 -120.5t112.5 -46.5q93 0 163 65q11 9 18 9q4 0 8 -3t4 -9t-4 -15
q-24 -44 -85.5 -81.5t-137.5 -37.5q-97 0 -156 59t-59 148q0 120 82 207zM268 615q2 28 28 51t51 23q4 0 8 -1q20 -1 32.5 -16.5t12.5 -32.5v-3q-2 -27 -29 -49t-53 -22h-5q-21 2 -33 15t-12 32v3z" />
    <glyph glyph-name="Ccaron" unicode="&#x10c;" horiz-adv-x="687" 
d="M56 355q22 158 141 256.5t282 98.5q38 0 75.5 -7t46.5 -7q12 0 25.5 6t20.5 6q15 0 21.5 -11t9.5 -42q7 -67 8 -129q0 -32 -20 -35h-1q-19 0 -38 35q-15 26 -22 37.5t-25.5 33t-36 31.5t-46.5 18.5t-64 8.5q-107 0 -182 -81.5t-92 -196.5q-4 -33 -4 -63
q0 -99 55.5 -180.5t176.5 -81.5q122 0 223 96q10 9 17 9q6 0 9.5 -5t3.5 -11q0 -11 -11 -25q-35 -45 -107.5 -85.5t-166.5 -40.5q-153 0 -228 94.5t-75 210.5q0 29 4 60zM321 869q0 13 14 14h2q19 0 55.5 -15t56.5 -32q26 17 66 32t59 15h2q11 -1 11 -11v-3q-2 -8 -63 -59
q-10 -9 -23 -21l-18 -16q-5 -4 -12 -9.5t-11.5 -7t-9.5 -2.5t-13 -1q-7 0 -12.5 1.5t-9 3t-9.5 8.5l-10 10q-4 3 -14.5 15t-16.5 19q-5 7 -13 16t-12.5 14.5t-9.5 11.5t-7 10t-2 7z" />
    <glyph glyph-name="ccaron" unicode="&#x10d;" horiz-adv-x="536" 
d="M120 404q81 86 196 86q90 0 133 -48t43 -96q0 -10 -2 -21q-4 -28 -21.5 -45t-40.5 -17q-21 1 -32 13t-11 30q0 5 1 10q1 11 1 21q0 18 -4.5 40t-28 44t-63.5 22q-70 0 -114 -65t-44 -149q0 -74 41.5 -120.5t112.5 -46.5q93 0 163 65q11 9 18 9q4 0 8 -3t4 -9t-4 -15
q-24 -44 -85.5 -81.5t-137.5 -37.5q-97 0 -156 59t-59 148q0 120 82 207zM219 686q2 13 15 14h2q17 0 44.5 -19.5t48.5 -44.5q29 25 61.5 44.5t50.5 19.5h2q11 -1 11 -11v-3q-1 -4 -8.5 -13.5t-23.5 -28t-26 -31.5q-5 -5 -12 -14t-10 -12.5t-8 -9.5t-7.5 -7.5t-6.5 -5
t-7 -4.5l-7 -2q-5 -2 -9 -2h-10q-21 0 -31.5 10t-33.5 51q-35 57 -35 69z" />
    <glyph glyph-name="Dcaron" unicode="&#x10e;" horiz-adv-x="749" 
d="M24 20q2 10 10.5 17t19 11.5t22 16.5t16.5 31q5 11 9 41l59 426q4 27 4 41q0 19 -8 31t-17 16.5t-15 10.5t-6 14v4q3 20 52 20h206q103 0 177.5 -30.5t112 -81t49 -97.5t11.5 -86q0 -21 -3 -44q-10 -73 -39.5 -135.5t-79 -114t-126 -81.5t-172.5 -30h-234q-48 0 -48 18v2
zM206 57q22 -13 94 -13q277 0 317 270q5 33 5 63q0 108 -66.5 194t-221.5 86q-41 0 -55.5 -8.5t-18.5 -35.5l-72 -510q-1 -6 -1 -11q0 -24 19 -35zM232 883h2q19 0 55.5 -15t56.5 -32q26 17 66 32t59 15h2q11 -1 11 -11v-3q-2 -8 -63 -59q-10 -9 -23 -21l-18 -16
q-5 -4 -12 -9.5t-11.5 -7t-9.5 -2.5t-13 -1q-7 0 -12.5 1.5t-9 3t-9.5 8.5l-10 10q-4 3 -14.5 15t-16.5 19q-5 7 -13 16t-12.5 14.5t-9.5 11.5t-7 10t-2 7q0 13 14 14z" />
    <glyph glyph-name="dcaron" unicode="&#x10f;" horiz-adv-x="596" 
d="M119 397q83 93 195 93q55 0 113 -36l19 129q1 7 1 13q0 10 -4 20t-11 14.5t-13.5 10.5t-6.5 13q0 9 11 18t45 21q46 17 66.5 17t20.5 -18v-5l-85 -591q-1 -7 -1 -13q0 -24 17 -24q10 0 24.5 14t19.5 14q11 0 11 -11v-3q-4 -30 -32 -55t-65 -25t-54 18.5t-17 54.5
q0 10 1 21q-68 -97 -170 -97q-81 0 -125 50t-44 133q0 130 84 224zM131 192q5 -134 108 -134q58 0 106 63.5t60 165.5q2 17 2 32q0 54 -28 88.5t-81 34.5q-73 0 -120 -77.5t-47 -165.5v-7zM581 502q19 74 35 151q12 48 49 48q16 0 24.5 -9.5t8.5 -24.5q0 -5 -1 -10
q-5 -32 -45 -102t-59 -70q-12 0 -12 12v5z" />
    <glyph glyph-name="Dcroat" unicode="&#x110;" horiz-adv-x="749" 
d="M24 20q2 10 10.5 17t19 11.5t22 16.5t16.5 31q5 11 9 41l26 189h-33q-16 0 -19.5 4.5t-3.5 11.5q0 3 1 7q3 22 29 22h32l27 192q4 27 4 41q0 19 -8 31t-17 16.5t-15 10.5t-6 14v4q3 20 52 20h206q103 0 177.5 -30.5t112 -81t49 -97.5t11.5 -86q0 -21 -3 -44
q-10 -73 -39.5 -135.5t-79 -114t-126 -81.5t-172.5 -30h-234q-48 0 -48 18v2zM206 57q22 -13 94 -13q277 0 317 270q5 33 5 63q0 108 -66.5 194t-221.5 86q-41 0 -55.5 -8.5t-18.5 -35.5l-34 -242h91q15 0 19 -4.5t4 -11.5q0 -3 -1 -6q-2 -12 -7.5 -17.5t-21.5 -5.5h-91
l-31 -223q-1 -6 -1 -11q0 -24 19 -35z" />
    <glyph glyph-name="dcroat" unicode="&#x111;" horiz-adv-x="596" 
d="M119 397q83 93 195 93q55 0 113 -36l9 58h-92q-19 0 -19 21q0 20 19 20h98l4 30q1 7 1 13q0 10 -4 20t-11 14.5t-13.5 10.5t-6.5 13q0 9 11 18t45 21q46 17 66.5 17t20.5 -18v-5l-19 -134q16 -1 16 -20q0 -21 -19 -21h-3l-60 -416q-1 -7 -1 -13q0 -24 17 -24
q10 0 24.5 14t19.5 14q11 0 11 -11v-3q-4 -30 -32 -55t-65 -25t-54 18.5t-17 54.5q0 10 1 21q-68 -97 -170 -97q-81 0 -125 50t-44 133q0 130 84 224zM131 192q5 -134 108 -134q58 0 106 63.5t60 165.5q2 17 2 32q0 54 -28 88.5t-81 34.5q-73 0 -120 -77.5t-47 -165.5v-7z
" />
    <glyph glyph-name="Emacron" unicode="&#x112;" horiz-adv-x="623" 
d="M24 20q2 10 9 15.5t16.5 10t19.5 12.5t19 28t13 51l59 426q2 17 2 31q0 17 -4.5 34t-15 22t-17.5 11t-7 14v5q1 13 12.5 16.5t39.5 3.5l373 1q42 0 53 -5.5t15 -25.5q10 -47 10 -97v-9v-6q0 -26 -16 -31q-4 -1 -7 -1q-8 0 -14.5 6.5t-15.5 27.5q-19 49 -51 72t-90 23h-47
q-71 0 -94.5 -10t-26.5 -36l-16 -119q-1 -7 -1 -13q0 -22 16.5 -29t75.5 -7q36 0 60 5t31.5 11t15.5 11t17 5q19 0 22 -32l7 -85q1 -12 1 -21q0 -11 -2.5 -18.5t-14.5 -10.5q-3 -1 -5 -1q-7 0 -14 7t-15.5 21t-19.5 28t-34 24.5t-55 10.5q-31 0 -45.5 -1t-30 -5.5
t-21.5 -14.5t-9 -28l-36 -253q-1 -5 -1 -9q0 -21 17.5 -30.5t79.5 -9.5h12l77 1q61 0 88 19.5t57 71.5q23 39 42 39h3q11 -2 11 -20q0 -6 -1 -14q-14 -67 -31 -107q-7 -20 -23.5 -27.5t-62.5 -7.5h-383q-28 0 -37.5 3.5t-9.5 14.5v2zM153 800q2 15 7.5 20t24.5 5h227
q19 0 23 -4t4 -12q0 -4 -1 -8q-2 -15 -7.5 -20.5t-25.5 -5.5h-227q-19 0 -22.5 4t-3.5 12q0 4 1 9z" />
    <glyph glyph-name="emacron" unicode="&#x113;" horiz-adv-x="520" 
d="M58 296q20 51 56.5 94.5t93.5 71.5t122 28q62 0 103 -30t41 -84q0 -60 -47 -105.5t-119 -71.5t-168 -40q12 -45 46.5 -73t82.5 -28q81 0 162 75q10 9 18 9q4 0 8.5 -3t4.5 -9t-5 -15q-24 -45 -85.5 -85t-137.5 -40q-83 0 -140 53.5t-57 151.5q0 49 21 101zM133 228
q0 -22 22 -22q4 0 9 1q100 16 160 56t60 98q0 36 -24 59t-62 23q-66 0 -115.5 -63t-49.5 -152zM155 578q4 15 10 20t25 5h228q19 0 22 -4t3 -8q0 -5 -3 -12q-4 -16 -10 -21t-26 -5h-227q-19 0 -22 4t-3 8q0 5 3 13z" />
    <glyph glyph-name="Edotaccent" unicode="&#x116;" horiz-adv-x="623" 
d="M24 20q2 10 9 15.5t16.5 10t19.5 12.5t19 28t13 51l59 426q2 17 2 31q0 17 -4.5 34t-15 22t-17.5 11t-7 14v5q1 13 12.5 16.5t39.5 3.5l373 1q42 0 53 -5.5t15 -25.5q10 -47 10 -97v-9v-6q0 -26 -16 -31q-4 -1 -7 -1q-8 0 -14.5 6.5t-15.5 27.5q-19 49 -51 72t-90 23h-47
q-71 0 -94.5 -10t-26.5 -36l-16 -119q-1 -7 -1 -13q0 -22 16.5 -29t75.5 -7q36 0 60 5t31.5 11t15.5 11t17 5q19 0 22 -32l7 -85q1 -12 1 -21q0 -11 -2.5 -18.5t-14.5 -10.5q-3 -1 -5 -1q-7 0 -14 7t-15.5 21t-19.5 28t-34 24.5t-55 10.5q-31 0 -45.5 -1t-30 -5.5
t-21.5 -14.5t-9 -28l-36 -253q-1 -5 -1 -9q0 -21 17.5 -30.5t79.5 -9.5h12l77 1q61 0 88 19.5t57 71.5q23 39 42 39h3q11 -2 11 -20q0 -6 -1 -14q-14 -67 -31 -107q-7 -20 -23.5 -27.5t-62.5 -7.5h-383q-28 0 -37.5 3.5t-9.5 14.5v2zM233 835q2 28 28 51t51 23q4 0 8 -1
q20 -1 32.5 -16.5t12.5 -32.5v-3q-2 -27 -29 -49t-53 -22h-5q-21 2 -33 15t-12 32v3z" />
    <glyph glyph-name="edotaccent" unicode="&#x117;" horiz-adv-x="520" 
d="M37 195q0 49 20.5 100.5t57 95t93.5 71.5t122 28q62 0 103 -30t41 -84q0 -60 -47 -105.5t-119 -71.5t-168 -40q12 -45 46.5 -73t82.5 -28q81 0 162 75q10 9 18 9q4 0 8.5 -3t4.5 -9t-5 -15q-24 -45 -85.5 -85t-137.5 -40q-83 0 -140 53.5t-57 151.5zM164 207
q100 16 160 56t60 98q0 36 -24 59t-62 23q-66 0 -115.5 -63t-49.5 -152q0 -22 22 -22q4 0 9 1zM253 613q2 28 28 51t51 23q4 0 8 -1q20 -1 32.5 -16.5t12.5 -32.5v-3q-2 -27 -29 -49t-53 -22h-5q-21 2 -33 15t-12 32v3z" />
    <glyph glyph-name="Eogonek" unicode="&#x118;" horiz-adv-x="623" 
d="M24 20q2 10 9 15.5t16.5 10t19.5 12.5t19 28t13 51l59 426q2 17 2 31q0 17 -4.5 34t-15 22t-17.5 11t-7 14v5q1 13 12.5 16.5t39.5 3.5l373 1q42 0 53 -5.5t15 -25.5q10 -47 10 -97v-9v-6q0 -26 -16 -31q-4 -1 -7 -1q-8 0 -14.5 6.5t-15.5 27.5q-19 49 -51 72t-90 23h-47
q-71 0 -94.5 -10t-26.5 -36l-16 -119q-1 -7 -1 -13q0 -22 16.5 -29t75.5 -7q36 0 60 5t31.5 11t15.5 11t17 5q19 0 22 -32l7 -85q1 -12 1 -21q0 -11 -2.5 -18.5t-14.5 -10.5q-3 -1 -5 -1q-7 0 -14 7t-15.5 21t-19.5 28t-34 24.5t-55 10.5q-31 0 -45.5 -1t-30 -5.5
t-21.5 -14.5t-9 -28l-36 -253q-1 -5 -1 -9q0 -21 17.5 -30.5t79.5 -9.5h12l77 1q61 0 88 19.5t57 71.5q23 39 42 39h3q11 -2 11 -20q0 -6 -1 -14q-14 -67 -31 -107q-7 -20 -23.5 -27.5t-62.5 -7.5h-40q-47 -48 -47 -92q0 -25 15 -39.5t43 -14.5q19 0 41 9q6 3 10 3q6 0 8 -4
t2 -6q0 -6 -6 -11q-29 -28 -79 -28q-41 0 -69 21t-28 58q0 54 75 104h-308q-28 0 -37.5 3.5t-9.5 14.5v2z" />
    <glyph glyph-name="eogonek" unicode="&#x119;" horiz-adv-x="520" 
d="M58 296q20 51 56.5 94.5t93.5 71.5t122 28q62 0 103 -30t41 -84q0 -60 -47 -105.5t-119 -71.5t-168 -40q12 -45 46.5 -73t82.5 -28q81 0 162 75q10 9 18 9q4 0 8.5 -3t4.5 -9t-5 -15q-20 -36 -67 -72t-106 -48q-42 -46 -42 -87q0 -25 15 -39.5t43 -14.5q19 0 41 9
q6 3 10 3q6 0 8 -4t2 -6q0 -6 -6 -11q-29 -28 -79 -28q-41 0 -69 21t-28 58q0 48 61 94h-6q-83 0 -140 53.5t-57 151.5q0 49 21 101zM133 228q0 -22 22 -22q4 0 9 1q100 16 160 56t60 98q0 36 -24 59t-62 23q-66 0 -115.5 -63t-49.5 -152z" />
    <glyph glyph-name="Ecaron" unicode="&#x11a;" horiz-adv-x="623" 
d="M24 20q2 10 9 15.5t16.5 10t19.5 12.5t19 28t13 51l59 426q2 17 2 31q0 17 -4.5 34t-15 22t-17.5 11t-7 14v5q1 13 12.5 16.5t39.5 3.5l373 1q42 0 53 -5.5t15 -25.5q10 -47 10 -97v-9v-6q0 -26 -16 -31q-4 -1 -7 -1q-8 0 -14.5 6.5t-15.5 27.5q-19 49 -51 72t-90 23h-47
q-71 0 -94.5 -10t-26.5 -36l-16 -119q-1 -7 -1 -13q0 -22 16.5 -29t75.5 -7q36 0 60 5t31.5 11t15.5 11t17 5q19 0 22 -32l7 -85q1 -12 1 -21q0 -11 -2.5 -18.5t-14.5 -10.5q-3 -1 -5 -1q-7 0 -14 7t-15.5 21t-19.5 28t-34 24.5t-55 10.5q-31 0 -45.5 -1t-30 -5.5
t-21.5 -14.5t-9 -28l-36 -253q-1 -5 -1 -9q0 -21 17.5 -30.5t79.5 -9.5h12l77 1q61 0 88 19.5t57 71.5q23 39 42 39h3q11 -2 11 -20q0 -6 -1 -14q-14 -67 -31 -107q-7 -20 -23.5 -27.5t-62.5 -7.5h-383q-28 0 -37.5 3.5t-9.5 14.5v2zM196 869q0 13 14 14h2q19 0 55.5 -15
t56.5 -32q26 17 66 32t59 15h2q11 -1 11 -11v-3q-2 -8 -63 -59q-10 -9 -23 -21l-18 -16q-5 -4 -12 -9.5t-11.5 -7t-9.5 -2.5t-13 -1q-7 0 -12.5 1.5t-9 3t-9.5 8.5l-10 10q-4 3 -14.5 15t-16.5 19q-5 7 -13 16t-12.5 14.5t-9.5 11.5t-7 10t-2 7z" />
    <glyph glyph-name="ecaron" unicode="&#x11b;" horiz-adv-x="520" 
d="M58 296q20 51 56.5 94.5t93.5 71.5t122 28q62 0 103 -30t41 -84q0 -60 -47 -105.5t-119 -71.5t-168 -40q12 -45 46.5 -73t82.5 -28q81 0 162 75q10 9 18 9q4 0 8.5 -3t4.5 -9t-5 -15q-24 -45 -85.5 -85t-137.5 -40q-83 0 -140 53.5t-57 151.5q0 49 21 101zM133 228
q0 -22 22 -22q4 0 9 1q100 16 160 56t60 98q0 36 -24 59t-62 23q-66 0 -115.5 -63t-49.5 -152zM204 684q2 13 15 14h2q17 0 44.5 -19.5t48.5 -44.5q29 25 61.5 44.5t50.5 19.5h2q11 -1 11 -11v-3q-1 -4 -8.5 -13.5t-23.5 -28t-26 -31.5q-5 -5 -12 -14t-10 -12.5t-8 -9.5
t-7.5 -7.5t-6.5 -5t-7 -4.5l-7 -2q-5 -2 -9 -2h-10q-22 0 -32 10t-33 51q-35 57 -35 69z" />
    <glyph glyph-name="Gbreve" unicode="&#x11e;" horiz-adv-x="739" 
d="M53 333q23 160 142.5 268.5t278.5 108.5q38 0 76 -7t48 -7q12 0 25.5 6t20.5 6q15 0 21.5 -11t9.5 -42q6 -56 7 -129q0 -32 -20 -35h-1q-18 0 -37 35q-18 31 -29 47t-34 38.5t-55.5 33t-76.5 10.5q-106 0 -181 -80t-92 -190q-5 -36 -5 -68q0 -102 55 -186t179 -84
q60 0 112 21.5t57 55.5l15 106q1 6 1 12q0 21 -13 36.5t-32 20.5t-33 13t-14 19v3q3 20 52 20h149q32 0 32 -17v-3q-2 -11 -8.5 -18t-14 -12t-16 -23.5t-12.5 -49.5l-13 -103q-4 -31 -47 -63t-110.5 -53.5t-135.5 -21.5q-159 0 -232 86.5t-73 197.5q0 28 4 59zM362 869
q2 22 16 22q7 0 14 -11q27 -53 87 -53t104 53q11 11 16 11q10 0 10 -12q0 -4 -1 -10q-9 -47 -47 -79.5t-92 -32.5q-57 0 -82.5 30.5t-25.5 69.5q0 6 1 12z" />
    <glyph glyph-name="gbreve" unicode="&#x11f;" horiz-adv-x="520" 
d="M-7 -86q3 25 23.5 50.5t55.5 39.5q-51 27 -51 74q0 6 1 13q3 25 27 49.5t70 39.5q-61 40 -61 111q0 79 72.5 138.5t170.5 59.5h1q20 0 40.5 -2t29.5 -2q38 0 80 56q20 22 36 22q14 0 23.5 -9.5t9.5 -23.5v-3q-1 -27 -26.5 -48.5t-60.5 -30.5q51 -42 51 -106
q0 -85 -68.5 -140.5t-166.5 -55.5q-59 0 -101 18q-34 -18 -38 -44v-7q0 -27 30.5 -40t82.5 -13q30 0 82 3t67 3q71 0 102.5 -28t31.5 -65q0 -8 -2 -17q-10 -75 -91 -121.5t-215 -46.5q-95 0 -151 29.5t-56 80.5q0 8 1 16zM153 301q0 -50 29.5 -82t81.5 -32q56 0 92 44
t36 103q0 50 -27.5 83t-75.5 33q-58 0 -97 -44t-39 -105zM114 -147q41 -23 114 -23q77 0 127.5 24.5t56.5 69.5q1 6 1 12q0 21 -15.5 36.5t-59.5 15.5h-14q-98 -5 -152 -5q-33 0 -60.5 -17.5t-32.5 -47.5q-1 -5 -1 -10q0 -35 36 -55zM187 649q2 22 16 22q7 0 14 -11
q27 -53 87 -53t104 53q11 11 16 11q10 0 10 -12q0 -4 -1 -10q-9 -47 -47 -79.5t-92 -32.5q-57 0 -82.5 30.5t-25.5 69.5q0 6 1 12z" />
    <glyph glyph-name="Gdotaccent" unicode="&#x120;" horiz-adv-x="739" 
d="M53 333q23 160 142.5 268.5t278.5 108.5q38 0 76 -7t48 -7q12 0 25.5 6t20.5 6q15 0 21.5 -11t9.5 -42q6 -56 7 -129q0 -32 -20 -35h-1q-18 0 -37 35q-18 31 -29 47t-34 38.5t-55.5 33t-76.5 10.5q-106 0 -181 -80t-92 -190q-5 -36 -5 -68q0 -102 55 -186t179 -84
q60 0 112 21.5t57 55.5l15 106q1 6 1 12q0 21 -13 36.5t-32 20.5t-33 13t-14 19v3q3 20 52 20h149q32 0 32 -17v-3q-2 -11 -8.5 -18t-14 -12t-16 -23.5t-12.5 -49.5l-13 -103q-4 -31 -47 -63t-110.5 -53.5t-135.5 -21.5q-159 0 -232 86.5t-73 197.5q0 28 4 59zM398 835
q2 28 28 51t51 23q4 0 8 -1q20 -1 32.5 -16.5t12.5 -32.5v-3q-2 -27 -29 -49t-53 -22h-5q-21 2 -33 15t-12 32v3z" />
    <glyph glyph-name="gdotaccent" unicode="&#x121;" horiz-adv-x="520" 
d="M-7 -86q3 25 23.5 50.5t55.5 39.5q-51 27 -51 74q0 6 1 13q3 25 27 49.5t70 39.5q-61 40 -61 111q0 79 72.5 138.5t170.5 59.5h1q20 0 40.5 -2t29.5 -2q38 0 80 56q20 22 36 22q14 0 23.5 -9.5t9.5 -23.5v-3q-1 -27 -26.5 -48.5t-60.5 -30.5q51 -42 51 -106
q0 -85 -68.5 -140.5t-166.5 -55.5q-59 0 -101 18q-34 -18 -38 -44v-7q0 -27 30.5 -40t82.5 -13q30 0 82 3t67 3q71 0 102.5 -28t31.5 -65q0 -8 -2 -17q-10 -75 -91 -121.5t-215 -46.5q-95 0 -151 29.5t-56 80.5q0 8 1 16zM183 219q29 -32 81 -32q56 0 92 44t36 103
q0 50 -27.5 83t-75.5 33q-58 0 -97 -44t-39 -105q0 -50 30 -82zM114 -147q41 -23 114 -23q77 0 127.5 24.5t56.5 69.5q1 6 1 12q0 21 -15.5 36.5t-59.5 15.5h-14q-98 -5 -152 -5q-33 0 -60.5 -17.5t-32.5 -47.5q-1 -5 -1 -10q0 -35 36 -55zM256 615q2 28 28 51t51 23
q4 0 8 -1q20 -1 32.5 -16.5t12.5 -32.5v-3q-2 -27 -29 -49t-53 -22h-5q-21 2 -33 15t-12 32v3z" />
    <glyph glyph-name="uni0122" unicode="&#x122;" horiz-adv-x="739" 
d="M53 333q23 160 142.5 268.5t278.5 108.5q38 0 76 -7t48 -7q12 0 25.5 6t20.5 6q15 0 21.5 -11t9.5 -42q6 -56 7 -129q0 -32 -20 -35h-1q-18 0 -37 35q-18 31 -29 47t-34 38.5t-55.5 33t-76.5 10.5q-106 0 -181 -80t-92 -190q-5 -36 -5 -68q0 -102 55 -186t179 -84
q60 0 112 21.5t57 55.5l15 106q1 6 1 12q0 21 -13 36.5t-32 20.5t-33 13t-14 19v3q3 20 52 20h149q32 0 32 -17v-3q-2 -11 -8.5 -18t-14 -12t-16 -23.5t-12.5 -49.5l-13 -103q-4 -31 -47 -63t-110.5 -53.5t-135.5 -21.5q-159 0 -232 86.5t-73 197.5q0 28 4 59zM313 -258
q0 6 20.5 29t20.5 42q0 11 -17.5 33.5t-17.5 43.5q0 27 17 42.5t38 15.5q25 0 40.5 -17t15.5 -43q0 -59 -38.5 -107t-66.5 -48q-12 0 -12 9z" />
    <glyph glyph-name="uni0123" unicode="&#x123;" horiz-adv-x="520" 
d="M-7 -86q3 25 23.5 50.5t55.5 39.5q-51 27 -51 74q0 6 1 13q3 25 27 49.5t70 39.5q-61 40 -61 111q0 79 72.5 138.5t170.5 59.5h1q20 0 40.5 -2t29.5 -2q38 0 80 56q20 22 36 22q14 0 23.5 -9.5t9.5 -23.5v-3q-1 -27 -26.5 -48.5t-60.5 -30.5q51 -42 51 -106
q0 -85 -68.5 -140.5t-166.5 -55.5q-59 0 -101 18q-34 -18 -38 -44v-7q0 -27 30.5 -40t82.5 -13q30 0 82 3t67 3q71 0 102.5 -28t31.5 -65q0 -8 -2 -17q-10 -75 -91 -121.5t-215 -46.5q-95 0 -151 29.5t-56 80.5q0 8 1 16zM153 301q0 -50 29.5 -82t81.5 -32q56 0 92 44
t36 103q0 50 -27.5 83t-75.5 33q-58 0 -97 -44t-39 -105zM114 -147q41 -23 114 -23q77 0 127.5 24.5t56.5 69.5q1 6 1 12q0 21 -15.5 36.5t-59.5 15.5h-14q-98 -5 -152 -5q-33 0 -60.5 -17.5t-32.5 -47.5q-1 -5 -1 -10q0 -35 36 -55zM250 593q7 55 50 98q20 19 34 19
q3 0 6 -1q4 -2 5 -4q-1 -3 -5 -7q-22 -22 -25 -42v-4q0 -14 19 -30q24 -17 24 -40q0 -4 -1 -7q-3 -22 -20 -36.5t-39 -14.5q-26 0 -37.5 15t-11.5 37q0 8 1 17z" />
    <glyph glyph-name="Hbar" unicode="&#x126;" horiz-adv-x="801" 
d="M24 20q2 12 15.5 20t29.5 20.5t22 35.5q6 14 9 31l51 370h-41q-19 0 -19 20v5q0 19 19 19h47l4 32q2 20 2 31q-1 19 -8.5 31t-16 16.5t-13.5 10.5t-5 13v5q1 20 51 20h111q25 0 36 -4.5t11 -13.5v-2q-2 -10 -10.5 -17t-19 -11.5t-21.5 -16.5t-16 -31q-7 -16 -8 -31
l-4 -32h385l4 32q2 20 2 31q-1 19 -8.5 31t-16 16.5t-14 11t-5.5 14.5v3q1 20 52 20h110q26 0 36.5 -4.5t10.5 -13.5v-2q-1 -10 -10 -17t-19 -11.5t-21.5 -16.5t-16.5 -31q-7 -16 -8 -31l-4 -32h55q19 0 19 -19v-5q0 -20 -19 -20h-62l-51 -370q-2 -20 -2 -31q1 -19 8.5 -31
t16 -16.5t14 -11t5.5 -14.5v-3q-1 -20 -52 -20h-110q-26 0 -36.5 4.5t-10.5 13.5v2q1 10 10 17t19 11.5t21.5 16.5t16.5 31q7 16 8 31l24 174q1 9 1 16q0 16 -6 21q-15 12 -124 12h-52q-156 0 -180 -8q-19 -6 -23 -29l-25 -186q-2 -20 -2 -31q1 -19 8.5 -31t16 -16.5t14 -11
t5.5 -14.5v-3q-3 -20 -52 -20h-111q-25 0 -36 4.5t-11 13.5v2zM241 406q15 -11 127 -12h60q147 0 169 8q18 6 22 30q1 4 2 11l7 54h-385l-7 -54q-1 -9 -1 -16q0 -16 6 -21z" />
    <glyph glyph-name="hbar" unicode="&#x127;" horiz-adv-x="614" 
d="M42 14l73 494h-49q-19 0 -19 21q0 20 19 20h55l6 40q1 5 1 9q0 11 -4.5 20.5t-12.5 13.5t-14.5 10t-6.5 13q0 18 56 39q43 17 65 17t22 -16q0 -3 -1 -7l-21 -139h44q19 0 19 -20q0 -21 -19 -21h-51l-27 -175q40 73 94 113.5t115 40.5q62 0 90.5 -40.5t28.5 -109.5v-18
l-12 -223v-7q0 -30 16 -30q10 0 24.5 14t19.5 14q10 0 10 -10v-4q-3 -30 -31 -55t-65 -25q-66 0 -66 81q0 8 1 17l12 222v13q0 95 -69 95q-61 0 -117 -83t-75 -201l-19 -117q-3 -16 -22 -20l-45 -10q-4 -1 -7 -1q-8 0 -13 5.5t-5 14.5v5z" />
    <glyph glyph-name="Imacron" unicode="&#x12a;" horiz-adv-x="323" 
d="M24 20q2 12 15.5 20t29.5 20.5t22 35.5q6 14 9 31l61 446q2 20 2 31q-1 19 -8.5 31t-16 16.5t-13.5 10.5t-5 13v5q1 20 51 20h111q25 0 36 -4.5t11 -13.5v-2q-2 -10 -10.5 -17t-19 -11.5t-21.5 -16.5t-16 -31q-7 -16 -8 -31l-62 -446q-2 -20 -2 -31q1 -19 8.5 -31
t16 -16.5t14 -11t5.5 -14.5v-3q-3 -20 -52 -20h-111q-25 0 -36 4.5t-11 13.5v2zM80 800q2 15 7.5 20t24.5 5h227q19 0 23 -4t4 -12q0 -4 -1 -8q-2 -15 -7.5 -20.5t-25.5 -5.5h-227q-19 0 -22.5 4t-3.5 12q0 4 1 9z" />
    <glyph glyph-name="imacron" unicode="&#x12b;" horiz-adv-x="281" 
d="M62 91l40 268q1 7 1 13q0 9 -4 19t-11 14.5t-13.5 11t-6.5 14.5q0 9 11 18t45 21q46 17 63 17q19 0 19 -18v-5l-53 -368q-1 -7 -1 -12q0 -25 18 -25q10 0 24.5 14t19.5 14q10 0 10 -10v-4q-3 -30 -31 -55t-65 -25q-40 0 -54 22.5t-14 50.5q0 12 2 25zM20 580q4 15 10 20
t25 5h228q19 0 22 -4t3 -8q0 -5 -3 -12q-4 -16 -10 -21t-26 -5h-227q-19 0 -22 4t-3 8q0 5 3 13z" />
    <glyph glyph-name="Iogonek" unicode="&#x12e;" horiz-adv-x="323" 
d="M24 20q2 12 15.5 20t29.5 20.5t22 35.5q6 14 9 31l61 446q2 20 2 31q-1 19 -8.5 31t-16 16.5t-13.5 10.5t-5 13v5q1 20 51 20h111q25 0 36 -4.5t11 -13.5v-2q-2 -10 -10.5 -17t-19 -11.5t-21.5 -16.5t-16 -31q-7 -16 -8 -31l-62 -446q-2 -20 -2 -31q1 -19 8.5 -31
t16 -16.5t14 -11t5.5 -14.5v-3q-2 -13 -17 -17q-50 -50 -50 -95q0 -25 15 -39.5t43 -14.5q19 0 41 9q6 3 10 3q6 0 8 -4t2 -6q0 -6 -6 -11q-29 -28 -79 -28q-41 0 -69 21t-28 58q0 54 75 104h-108q-25 0 -36 4.5t-11 13.5v2z" />
    <glyph glyph-name="iogonek" unicode="&#x12f;" horiz-adv-x="281" 
d="M116 -6q-56 6 -56 70q0 12 2 27l40 268q1 7 1 13q0 9 -4 19t-11 14.5t-13.5 11t-6.5 14.5q0 9 11 18t45 21q46 17 63 17q19 0 19 -18v-5l-53 -368q-1 -7 -1 -12q0 -25 18 -25q10 0 24.5 14t19.5 14q10 0 10 -10v-4q-2 -22 -19.5 -43t-43.5 -31q-43 -46 -43 -88
q0 -25 15 -39.5t43 -14.5q19 0 41 9q6 3 10 3q6 0 8 -4t2 -6q0 -6 -6 -11q-29 -28 -79 -28q-41 0 -69 21t-28 58q0 49 61 95zM119 615q2 28 28 51t51 23q4 0 8 -1q20 -1 32.5 -16.5t12.5 -32.5v-3q-2 -27 -29 -49t-53 -22h-5q-21 2 -33 15t-12 32v3z" />
    <glyph glyph-name="Idotaccent" unicode="&#x130;" horiz-adv-x="323" 
d="M24 20q2 12 15.5 20t29.5 20.5t22 35.5q6 14 9 31l61 446q2 20 2 31q-1 19 -8.5 31t-16 16.5t-13.5 10.5t-5 13v5q1 20 51 20h111q25 0 36 -4.5t11 -13.5v-2q-2 -10 -10.5 -17t-19 -11.5t-21.5 -16.5t-16 -31q-7 -16 -8 -31l-62 -446q-2 -20 -2 -31q1 -19 8.5 -31
t16 -16.5t14 -11t5.5 -14.5v-3q-3 -20 -52 -20h-111q-25 0 -36 4.5t-11 13.5v2zM160 835q2 28 28 51t51 23q4 0 8 -1q20 -1 32.5 -16.5t12.5 -32.5v-3q-2 -27 -29 -49t-53 -22h-5q-21 2 -33 15t-12 32v3z" />
    <glyph glyph-name="dotlessi" unicode="&#x131;" horiz-adv-x="281" 
d="M62 91l40 268q1 7 1 13q0 9 -4 19t-11 14.5t-13.5 11t-6.5 14.5q0 9 11 18t45 21q46 17 63 17q19 0 19 -18v-5l-53 -368q-1 -7 -1 -12q0 -25 18 -25q10 0 24.5 14t19.5 14q10 0 10 -10v-4q-3 -30 -31 -55t-65 -25q-40 0 -54 22.5t-14 50.5q0 12 2 25z" />
    <glyph glyph-name="uni0136" unicode="&#x136;" horiz-adv-x="678" 
d="M24 21q2 12 12.5 21t22.5 15.5t24 24.5t16 46l62 444q2 12 2 22q0 16 -5.5 31t-15.5 20t-16.5 12.5t-6.5 16.5v5q1 12 12.5 16t39.5 4h110q26 0 36.5 -4.5t10.5 -13.5v-2q-2 -12 -12.5 -21t-22.5 -15.5t-24 -24.5t-16 -46l-31 -221l304 249q22 19 24.5 27t2.5 11
q0 6 -5.5 10t-13 11t-7.5 16v4q3 21 37 21h102q47 0 47 -18v-2q-2 -15 -14.5 -21t-43 -19.5t-61.5 -39.5l-107 -88l125 -404q7 -24 19.5 -39t23 -20t16.5 -11t6 -15v-3q-4 -20 -42 -20h-109q-26 0 -36.5 4.5t-10.5 14.5v4q1 9 14 20t17.5 19t4.5 18q0 11 -4 29l-100 342
l-198 -164l-22 -159q-2 -12 -2 -23q0 -15 5 -30t15 -20t17.5 -13t7.5 -18v-3q-4 -20 -53 -20h-110q-26 0 -36.5 4.5t-10.5 13.5v2zM289 -258q0 6 20.5 29t20.5 42q0 11 -17.5 33.5t-17.5 43.5q0 27 17 42.5t38 15.5q25 0 40.5 -17t15.5 -43q0 -59 -38.5 -107t-66.5 -48
q-12 0 -12 9z" />
    <glyph glyph-name="uni0137" unicode="&#x137;" horiz-adv-x="543" 
d="M43 14l84 575q1 5 1 9q0 11 -4.5 20.5t-12.5 13.5t-14.5 10t-6.5 13q0 18 56 39q43 17 67 17q19 0 19 -18v-5l-45 -315q38 53 88 84.5t102 31.5q45 0 76.5 -24t31.5 -70q0 -59 -47 -105t-129 -74q25 -58 63 -109t74 -51q10 0 23.5 11.5t19.5 11.5q11 0 11 -13
q0 -22 -28.5 -49t-67.5 -27q-104 0 -166 207q-34 -8 -78 -13l-24 -164q-1 -15 -22 -20l-46 -10q-4 -1 -7 -1q-8 0 -13 5.5t-5 14.5v5zM166 228q101 9 166 47.5t65 91.5q0 23 -17 39t-46 16q-59 0 -109.5 -64.5t-58.5 -129.5zM195 -258q0 6 20.5 29t20.5 42q0 11 -17.5 33.5
t-17.5 43.5q0 27 17 42.5t38 15.5q25 0 40.5 -17t15.5 -43q0 -59 -38.5 -107t-66.5 -48q-12 0 -12 9z" />
    <glyph glyph-name="Lacute" unicode="&#x139;" horiz-adv-x="567" 
d="M24 20q2 12 15.5 20t29.5 20.5t22 35.5q6 15 10 41l60 435q2 22 2 31q-1 19 -8.5 31.5t-16 16.5t-14 10t-5.5 13v5q1 12 13 16t39 4h111q26 0 36 -4t10 -14v-2q-1 -10 -10 -17t-19 -11.5t-21.5 -16.5t-16.5 -31q-6 -20 -7 -31l-68 -478q-1 -6 -1 -11q0 -19 14 -28.5
t59 -9.5h9l65 1q41 0 67.5 11t39 25t34.5 47q26 38 43 38q12 0 12 -19q0 -6 -1 -14q-10 -57 -28 -99q-8 -20 -24 -27.5t-61 -7.5h-343q-47 0 -47 18v2zM181 781q2 11 63 72q44 42 60 48q7 2 13 2q5 0 10 -1q16 -5 23.5 -17t7.5 -23q0 -6 -2 -13q-7 -33 -60 -60.5t-84 -27.5
q-9 0 -16 2q-16 4 -16 14q0 2 1 4z" />
    <glyph glyph-name="lacute" unicode="&#x13a;" horiz-adv-x="268" 
d="M55 91l71 496q1 5 1 10q0 15 -8 25t-18.5 17t-10.5 15q0 9 11 18t45 21q46 17 67 17q19 0 19 -18v-5l-85 -591q-2 -9 -2 -15q0 -22 18 -22q10 0 24.5 14t19.5 14q10 0 10 -10v-4q-3 -30 -31 -55t-64 -25q-69 0 -69 70q0 13 2 28zM163 768q6 13 68 70q20 17 28.5 23.5
t22 13.5t23.5 7q22 0 30.5 -14t8.5 -26q0 -9 -3 -18q-11 -31 -63.5 -54.5t-81.5 -23.5q-12 0 -22 4q-12 4 -12 13q0 2 1 5z" />
    <glyph glyph-name="uni013B" unicode="&#x13b;" horiz-adv-x="567" 
d="M24 20q2 12 15.5 20t29.5 20.5t22 35.5q6 15 10 41l60 435q2 22 2 31q-1 19 -8.5 31.5t-16 16.5t-14 10t-5.5 13v5q1 12 13 16t39 4h111q26 0 36 -4t10 -14v-2q-1 -10 -10 -17t-19 -11.5t-21.5 -16.5t-16.5 -31q-6 -20 -7 -31l-68 -478q-1 -6 -1 -11q0 -19 14 -28.5
t59 -9.5h9l65 1q41 0 67.5 11t39 25t34.5 47q26 38 43 38q12 0 12 -19q0 -6 -1 -14q-10 -57 -28 -99q-8 -20 -24 -27.5t-61 -7.5h-343q-47 0 -47 18v2zM250 -229q20 23 20 42q0 11 -17.5 33.5t-17.5 43.5q0 27 17 42.5t38 15.5q25 0 40.5 -17t15.5 -43q0 -59 -38.5 -107
t-66.5 -48q-12 0 -12 9q0 6 21 29z" />
    <glyph glyph-name="uni013C" unicode="&#x13c;" horiz-adv-x="268" 
d="M55 91l71 496q1 5 1 10q0 15 -8 25t-18.5 17t-10.5 15q0 9 11 18t45 21q46 17 67 17q19 0 19 -18v-5l-85 -591q-2 -9 -2 -15q0 -22 18 -22q10 0 24.5 14t19.5 14q10 0 10 -10v-4q-3 -30 -31 -55t-64 -25q-69 0 -69 70q0 13 2 28zM27 -260q0 6 20.5 29t20.5 42
q0 11 -17.5 33.5t-17.5 43.5q0 27 17 42.5t38 15.5q25 0 40.5 -17t15.5 -43q0 -59 -38.5 -107t-66.5 -48q-12 0 -12 9z" />
    <glyph glyph-name="Lcaron" unicode="&#x13d;" horiz-adv-x="567" 
d="M24 20q2 12 15.5 20t29.5 20.5t22 35.5q6 15 10 41l60 435q2 22 2 31q-1 19 -8.5 31.5t-16 16.5t-14 10t-5.5 13v5q1 12 13 16t39 4h111q26 0 36 -4t10 -14v-2q-1 -10 -10 -17t-19 -11.5t-21.5 -16.5t-16.5 -31q-6 -20 -7 -31l-68 -478q-1 -6 -1 -11q0 -19 14 -28.5
t59 -9.5h9l65 1q41 0 67.5 11t39 25t34.5 47q26 38 43 38q12 0 12 -19q0 -6 -1 -14q-10 -57 -28 -99q-8 -20 -24 -27.5t-61 -7.5h-343q-47 0 -47 18v2zM368 502q5 18 19 81t16 70q10 48 49 48q32 0 32 -33q0 -5 -1 -11q-4 -31 -44 -101.5t-59 -70.5q-12 0 -12 12v5z" />
    <glyph glyph-name="lcaron" unicode="&#x13e;" horiz-adv-x="268" 
d="M55 91l71 496q1 5 1 10q0 15 -8 25t-18.5 17t-10.5 15q0 9 11 18t45 21q46 17 67 17q19 0 19 -18v-5l-85 -591q-2 -9 -2 -15q0 -22 18 -22q10 0 24.5 14t19.5 14q10 0 10 -10v-4q-3 -30 -31 -55t-64 -25q-69 0 -69 70q0 13 2 28zM306 483l34 151q12 49 50 49q32 0 32 -33
q0 -5 -1 -11q-4 -32 -44 -102.5t-59 -70.5q-12 0 -12 12v5z" />
    <glyph glyph-name="Lslash" unicode="&#x141;" horiz-adv-x="567" 
d="M24 20q2 12 15.5 20t29.5 20.5t22 35.5q6 15 10 41l22 159l-48 -28q-6 -3 -10 -3q-10 0 -16 13q-5 6 -5 12q0 8 11 15l75 43l31 224q2 22 2 31q-1 19 -8.5 31.5t-16 16.5t-14 10t-5.5 13v5q1 12 13 16t39 4h111q26 0 36 -4t10 -14v-2q-1 -10 -10 -17t-19 -11.5
t-21.5 -16.5t-16.5 -31q-6 -20 -7 -31l-24 -166l48 27q6 4 12 4q9 0 15 -12q4 -7 4 -12q0 -10 -11 -16l-75 -43l-37 -260q-1 -6 -1 -11q0 -19 14 -28.5t59 -9.5h9l65 1q41 0 67.5 11t39 25t34.5 47q26 38 43 38q12 0 12 -19q0 -6 -1 -14q-10 -57 -28 -99q-8 -20 -24 -27.5
t-61 -7.5h-343q-47 0 -47 18v2z" />
    <glyph glyph-name="lslash" unicode="&#x142;" horiz-adv-x="268" 
d="M13 284l76 44l37 259q1 5 1 10q0 15 -8 25t-18.5 17t-10.5 15q0 9 11 18t45 21q46 17 67 17q19 0 19 -18v-5l-43 -302l47 27q6 4 12 4q9 0 15 -12q4 -7 4 -12q0 -10 -11 -16l-75 -43l-34 -237q-2 -9 -2 -15q0 -22 18 -22q10 0 24.5 14t19.5 14q10 0 10 -10v-4
q-3 -30 -31 -55t-64 -25q-69 0 -69 70q0 13 2 28l26 184l-48 -28q-6 -3 -10 -3q-10 0 -16 13q-5 6 -5 12q0 8 11 15z" />
    <glyph glyph-name="Nacute" unicode="&#x143;" horiz-adv-x="753" 
d="M-1 21q1 11 10.5 18.5t20 13t21.5 23t15 44.5l62 444q2 16 2 29q0 17 -5 34t-15.5 22t-18 11.5t-7.5 15.5v4q4 20 53 20h45q17 0 29 -16l381 -493l53 389q2 11 2 20q0 14 -5 28t-14 19.5t-15.5 13t-6.5 16.5v2q2 12 13 16.5t35 4.5h67q23 0 32 -4t9 -13v-4
q-1 -10 -10.5 -18t-20.5 -13.5t-21.5 -23t-14.5 -44.5l-78 -556q-3 -24 -20 -24h-10q-17 0 -17 18v6q1 6 1 12q0 27 -19 50l-377 482l-60 -448q-2 -11 -2 -20q0 -14 5 -28t14.5 -19.5t16 -13t6.5 -16.5v-2q-2 -12 -13 -16.5t-35 -4.5h-68q-23 0 -31.5 4t-8.5 13v4zM373 781
q2 11 63 72q44 42 60 48q7 2 13 2q5 0 10 -1q16 -5 23.5 -17t7.5 -23q0 -6 -2 -13q-7 -33 -60 -60.5t-84 -27.5q-9 0 -16 2q-16 4 -16 14q0 2 1 4z" />
    <glyph glyph-name="nacute" unicode="&#x144;" horiz-adv-x="622" 
d="M51 13l50 346q1 7 1 13q0 10 -4 19.5t-11 13.5t-13.5 9.5t-6.5 13.5q0 11 10.5 18.5t45.5 23.5q37 16 60 16q19 0 19 -17v-5l-20 -134q40 74 94.5 115.5t117.5 41.5q62 0 90.5 -40.5t28.5 -109.5v-18l-12 -223v-7q0 -30 16 -30q10 0 24.5 14t19.5 14q10 0 10 -10v-4
q-3 -30 -31 -55t-65 -25q-66 0 -66 81q0 8 1 17l12 222v13q0 95 -69 95q-61 0 -116.5 -82.5t-75.5 -201.5l-19 -109q-3 -18 -19 -22l-51 -13q-4 -1 -7 -1q-6 0 -10 4t-4 13v4zM258 552q6 13 68 70q20 17 28.5 23.5t22 13.5t23.5 7q22 0 30.5 -14t8.5 -26q0 -9 -3 -18
q-11 -31 -63.5 -54.5t-81.5 -23.5q-12 0 -22 4q-12 4 -12 13q0 2 1 5z" />
    <glyph glyph-name="uni0145" unicode="&#x145;" horiz-adv-x="753" 
d="M-1 21q1 11 10.5 18.5t20 13t21.5 23t15 44.5l62 444q2 16 2 29q0 17 -5 34t-15.5 22t-18 11.5t-7.5 15.5v4q4 20 53 20h45q17 0 29 -16l381 -493l53 389q2 11 2 20q0 14 -5 28t-14 19.5t-15.5 13t-6.5 16.5v2q2 12 13 16.5t35 4.5h67q23 0 32 -4t9 -13v-4
q-1 -10 -10.5 -18t-20.5 -13.5t-21.5 -23t-14.5 -44.5l-78 -556q-3 -24 -20 -24h-10q-17 0 -17 18v6q1 6 1 12q0 27 -19 50l-377 482l-60 -448q-2 -11 -2 -20q0 -14 5 -28t14.5 -19.5t16 -13t6.5 -16.5v-2q-2 -12 -13 -16.5t-35 -4.5h-68q-23 0 -31.5 4t-8.5 13v4zM273 -258
q0 6 20.5 29t20.5 42q0 11 -17.5 33.5t-17.5 43.5q0 27 17 42.5t38 15.5q25 0 40.5 -17t15.5 -43q0 -59 -38.5 -107t-66.5 -48q-12 0 -12 9z" />
    <glyph glyph-name="uni0146" unicode="&#x146;" horiz-adv-x="622" 
d="M51 13l50 346q1 7 1 13q0 10 -4 19.5t-11 13.5t-13.5 9.5t-6.5 13.5q0 11 10.5 18.5t45.5 23.5q37 16 60 16q19 0 19 -17v-5l-20 -134q40 74 94.5 115.5t117.5 41.5q62 0 90.5 -40.5t28.5 -109.5v-18l-12 -223v-7q0 -30 16 -30q10 0 24.5 14t19.5 14q10 0 10 -10v-4
q-3 -30 -31 -55t-65 -25q-66 0 -66 81q0 8 1 17l12 222v13q0 95 -69 95q-61 0 -116.5 -82.5t-75.5 -201.5l-19 -109q-3 -18 -19 -22l-51 -13q-4 -1 -7 -1q-6 0 -10 4t-4 13v4zM214 -258q0 6 20.5 29t20.5 42q0 11 -17.5 33.5t-17.5 43.5q0 27 17 42.5t38 15.5q25 0 40.5 -17
t15.5 -43q0 -59 -38.5 -107t-66.5 -48q-12 0 -12 9z" />
    <glyph glyph-name="Ncaron" unicode="&#x147;" horiz-adv-x="753" 
d="M-1 21q1 11 10.5 18.5t20 13t21.5 23t15 44.5l62 444q2 16 2 29q0 17 -5 34t-15.5 22t-18 11.5t-7.5 15.5v4q4 20 53 20h45q17 0 29 -16l381 -493l53 389q2 11 2 20q0 14 -5 28t-14 19.5t-15.5 13t-6.5 16.5v2q2 12 13 16.5t35 4.5h67q23 0 32 -4t9 -13v-4
q-1 -10 -10.5 -18t-20.5 -13.5t-21.5 -23t-14.5 -44.5l-78 -556q-3 -24 -20 -24h-10q-17 0 -17 18v6q1 6 1 12q0 27 -19 50l-377 482l-60 -448q-2 -11 -2 -20q0 -14 5 -28t14.5 -19.5t16 -13t6.5 -16.5v-2q-2 -12 -13 -16.5t-35 -4.5h-68q-23 0 -31.5 4t-8.5 13v4zM336 883
h2q19 0 55.5 -15t56.5 -32q26 17 66 32t59 15h2q11 -1 11 -11v-3q-2 -8 -63 -59q-10 -9 -23 -21l-18 -16q-5 -4 -12 -9.5t-11.5 -7t-9.5 -2.5t-13 -1q-7 0 -12.5 1.5t-9 3t-9.5 8.5l-10 10q-4 3 -14.5 15t-16.5 19q-5 7 -13 16t-12.5 14.5t-9.5 11.5t-7 10t-2 7q0 13 14 14z
" />
    <glyph glyph-name="ncaron" unicode="&#x148;" horiz-adv-x="622" 
d="M51 13l50 346q1 7 1 13q0 10 -4 19.5t-11 13.5t-13.5 9.5t-6.5 13.5q0 11 10.5 18.5t45.5 23.5q37 16 60 16q19 0 19 -17v-5l-20 -134q40 74 94.5 115.5t117.5 41.5q62 0 90.5 -40.5t28.5 -109.5v-18l-12 -223v-7q0 -30 16 -30q10 0 24.5 14t19.5 14q10 0 10 -10v-4
q-3 -30 -31 -55t-65 -25q-66 0 -66 81q0 8 1 17l12 222v13q0 95 -69 95q-61 0 -116.5 -82.5t-75.5 -201.5l-19 -109q-3 -18 -19 -22l-51 -13q-4 -1 -7 -1q-6 0 -10 4t-4 13v4zM226 688h2q17 0 44.5 -19.5t48.5 -44.5q29 25 61.5 44.5t50.5 19.5h2q11 -1 11 -11v-3
q-1 -4 -8.5 -13.5t-23.5 -28t-26 -31.5q-5 -5 -12 -14t-10 -12.5t-8 -9.5t-7.5 -7.5t-6.5 -5t-7 -4.5l-7 -2q-5 -2 -9 -2h-10q-21 0 -31.5 10t-33.5 51q-35 57 -35 69q2 13 15 14z" />
    <glyph glyph-name="Omacron" unicode="&#x14c;" horiz-adv-x="776" 
d="M52 294q0 170 118 292t287 122q137 0 216.5 -85.5t79.5 -207.5q0 -180 -112.5 -301t-275.5 -121h-16q-123 3 -210 86.5t-87 214.5zM215 114q62 -71 170 -71q82 0 144.5 53t93 133.5t30.5 172.5q0 118 -56.5 188t-155.5 70q-124 0 -206 -105.5t-82 -249.5q0 -120 62 -191z
M311 800q2 15 7.5 20t24.5 5h227q19 0 23 -4t4 -12q0 -4 -1 -8q-2 -15 -7.5 -20.5t-25.5 -5.5h-227q-19 0 -22.5 4t-3.5 12q0 4 1 9z" />
    <glyph glyph-name="omacron" unicode="&#x14d;" horiz-adv-x="569" 
d="M123 401q86 89 203 89q95 0 150 -57.5t55 -140.5q0 -126 -82.5 -214t-200.5 -88q-94 0 -152.5 57t-58.5 146q0 119 86 208zM167 84q31 -48 96 -48q75 0 120 75.5t45 170.5q0 71 -27 117t-88 46q-80 0 -128.5 -74.5t-49.5 -163.5q1 -76 32 -123zM187 580q4 15 10 20t25 5
h228q19 0 22 -4t3 -8q0 -5 -3 -12q-4 -16 -10 -21t-26 -5h-227q-19 0 -22 4t-3 8q0 5 3 13z" />
    <glyph glyph-name="Ohungarumlaut" unicode="&#x150;" horiz-adv-x="776" 
d="M52 294q0 170 118 292t287 122q137 0 216.5 -85.5t79.5 -207.5q0 -180 -112.5 -301t-275.5 -121h-16q-123 3 -210 86.5t-87 214.5zM153 305q0 -120 62 -191t170 -71q82 0 144.5 53t93 133.5t30.5 172.5q0 118 -56.5 188t-155.5 70q-124 0 -206 -105.5t-82 -249.5z
M290 778q0 14 70 70q50 39 67 42q4 1 8 1q17 0 30.5 -12t13.5 -26q0 -30 -57 -59t-99 -29q-33 0 -33 13zM482 778q1 14 74 66q55 39 75 39h1q17 -1 29.5 -13t12.5 -25v-2q-1 -30 -57.5 -55t-95.5 -25h-6q-33 2 -33 14v1z" />
    <glyph glyph-name="ohungarumlaut" unicode="&#x151;" horiz-adv-x="569" 
d="M123 401q86 89 203 89q95 0 150 -57.5t55 -140.5q0 -126 -82.5 -214t-200.5 -88q-94 0 -152.5 57t-58.5 146q0 119 86 208zM167 84q31 -48 96 -48q75 0 120 75.5t45 170.5q0 71 -27 117t-88 46q-80 0 -128.5 -74.5t-49.5 -163.5q1 -76 32 -123zM385 551q0 11 39 77
q16 24 22.5 33t18 18t22.5 9q15 0 26 -11t11 -29q0 -29 -45.5 -69.5t-77.5 -40.5q-9 0 -12.5 3.5t-3.5 7.5v2zM241 551q0 9 35 79q14 23 21 34t18 20t22 9q15 0 26.5 -11t11.5 -29q0 -30 -44 -72t-75 -42q-15 0 -15 12z" />
    <glyph glyph-name="OE" unicode="&#x152;" horiz-adv-x="1153" 
d="M52 294q0 170 118 292t287 122q147 0 231 -102l10 68q3 26 30 26l345 1q42 0 53 -5.5t15 -25.5q10 -47 10 -97v-9v-6q0 -26 -16 -31q-4 -1 -7 -1q-8 0 -14.5 6.5t-15.5 27.5q-19 49 -51 72t-90 23h-47q-71 0 -94.5 -10t-26.5 -36l-16 -119q-1 -7 -1 -13q0 -22 16.5 -29
t75.5 -7q36 0 60 5t31.5 11t15.5 11t17 5q19 0 22 -32l7 -85q1 -11 1 -19q0 -13 -2.5 -20.5t-14.5 -10.5q-3 -1 -5 -1q-7 0 -14 7t-15.5 21t-19.5 28t-34 24.5t-55 10.5q-31 0 -45.5 -1t-30 -5.5t-21.5 -14.5t-9 -28l-36 -253v-7q0 -22 17 -32t79 -10h12l77 1q61 0 88 19.5
t57 71.5q23 39 42 39h3q11 -2 11 -20q0 -6 -1 -14q-14 -67 -31 -107q-7 -20 -23.5 -27.5t-62.5 -7.5h-343q-16 0 -24.5 10.5t-8.5 23.5v5l7 49q-106 -95 -249 -95h-17q-123 3 -210 86.5t-87 214.5zM153 305q0 -120 62 -191t170 -71q82 0 144.5 53t93 133.5t30.5 172.5
q0 118 -56.5 188t-155.5 70q-124 0 -206 -105.5t-82 -249.5z" />
    <glyph glyph-name="oe" unicode="&#x153;" horiz-adv-x="922" 
d="M37 193q0 119 86 208t203 89q66 0 113.5 -28.5t70.5 -77.5q89 106 221 106q63 0 104 -30t41 -84q0 -60 -47 -106t-119.5 -72t-168.5 -40q12 -44 47 -72t82 -28q80 0 163 75q10 9 18 9q4 0 8.5 -3t4.5 -9t-6 -15q-24 -45 -85.5 -85t-136.5 -40q-57 0 -104 26t-72 76
q-83 -102 -212 -102q-94 0 -152.5 57t-58.5 146zM167 84q31 -48 96 -48q75 0 120 75.5t45 170.5q0 71 -27 117t-88 46q-80 0 -128.5 -74.5t-49.5 -163.5q1 -76 32 -123zM565 207q100 16 160 56t60 98q0 36 -23.5 59t-62.5 23q-66 0 -115 -63t-49 -152q0 -22 21 -22q4 0 9 1z
" />
    <glyph glyph-name="Racute" unicode="&#x154;" horiz-adv-x="658" 
d="M24 20q2 11 12.5 19.5t22.5 15t24.5 25t16.5 47.5l60 436q2 15 2 27q0 16 -5 33t-15 24t-17 14t-7 15v4q3 20 52 20h180q158 0 227 -61t69 -144q0 -15 -2 -30q-10 -70 -51.5 -121.5t-110.5 -78.5l62 -160q8 -22 20.5 -36.5t22.5 -19t15.5 -11t5.5 -15.5v-3
q-4 -20 -42 -20h-108q-46 0 -46 20v3q2 9 15.5 20.5t17.5 18.5t4 15q0 12 -6 32l-49 134q-34 -6 -73 -6h-94q-20 0 -23 -20l-12 -95q-1 -9 -1 -17q0 -17 5.5 -31.5t15 -20t16 -12.5t6.5 -16v-5q-4 -20 -52 -20h-110q-48 0 -48 18v2zM221 294q6 -5 30.5 -8.5t73.5 -3.5
q86 0 144.5 39.5t71.5 124.5q2 16 2 32q0 69 -48.5 122.5t-153.5 54.5h-14q-36 0 -49.5 -5t-15.5 -21l-45 -319v-5q0 -7 4 -11zM217 781q2 11 63 72q44 42 60 48q7 2 13 2q5 0 10 -1q16 -5 23.5 -17t7.5 -23q0 -6 -2 -13q-7 -33 -60 -60.5t-84 -27.5q-9 0 -16 2
q-16 4 -16 14q0 2 1 4z" />
    <glyph glyph-name="racute" unicode="&#x155;" horiz-adv-x="419" 
d="M51 10l50 349q1 7 1 13q0 10 -4 19.5t-11 13.5t-13.5 9.5t-6.5 13.5q0 11 10.5 18.5t45.5 23.5q37 16 60 16q19 0 19 -17v-5l-12 -90q29 48 73.5 82t89.5 34q34 0 49.5 -18.5t15.5 -42.5q0 -1 -0.5 -15t-11.5 -29.5t-31 -15.5h-2q-19 0 -36.5 22t-36.5 22
q-37 0 -77 -65.5t-52 -150.5l-25 -175q-3 -19 -21 -22l-52 -11q-3 0 -5 -1q-8 1 -12.5 5.5t-4.5 11.5v5zM213 553q6 13 68 70q20 17 28.5 23.5t22 13.5t23.5 7q22 0 30.5 -14t8.5 -26q0 -9 -3 -18q-11 -31 -63.5 -54.5t-81.5 -23.5q-12 0 -22 4q-12 4 -12 13q0 2 1 5z" />
    <glyph glyph-name="uni0156" unicode="&#x156;" horiz-adv-x="658" 
d="M24 20q2 11 12.5 19.5t22.5 15t24.5 25t16.5 47.5l60 436q2 15 2 27q0 16 -5 33t-15 24t-17 14t-7 15v4q3 20 52 20h180q158 0 227 -61t69 -144q0 -15 -2 -30q-10 -70 -51.5 -121.5t-110.5 -78.5l62 -160q8 -22 20.5 -36.5t22.5 -19t15.5 -11t5.5 -15.5v-3
q-4 -20 -42 -20h-108q-46 0 -46 20v3q2 9 15.5 20.5t17.5 18.5t4 15q0 12 -6 32l-49 134q-34 -6 -73 -6h-94q-20 0 -23 -20l-12 -95q-1 -9 -1 -17q0 -17 5.5 -31.5t15 -20t16 -12.5t6.5 -16v-5q-4 -20 -52 -20h-110q-48 0 -48 18v2zM221 294q6 -5 30.5 -8.5t73.5 -3.5
q86 0 144.5 39.5t71.5 124.5q2 16 2 32q0 69 -48.5 122.5t-153.5 54.5h-14q-36 0 -49.5 -5t-15.5 -21l-45 -319v-5q0 -7 4 -11zM198 -258q0 6 20.5 29t20.5 42q0 11 -17.5 33.5t-17.5 43.5q0 27 17 42.5t38 15.5q25 0 40.5 -17t15.5 -43q0 -59 -38.5 -107t-66.5 -48
q-12 0 -12 9z" />
    <glyph glyph-name="uni0157" unicode="&#x157;" horiz-adv-x="419" 
d="M51 10l50 349q1 7 1 13q0 10 -4 19.5t-11 13.5t-13.5 9.5t-6.5 13.5q0 11 10.5 18.5t45.5 23.5q37 16 60 16q19 0 19 -17v-5l-12 -90q29 48 73.5 82t89.5 34q34 0 49.5 -18.5t15.5 -42.5q0 -1 -0.5 -15t-11.5 -29.5t-31 -15.5h-2q-19 0 -36.5 22t-36.5 22
q-37 0 -77 -65.5t-52 -150.5l-25 -175q-3 -19 -21 -22l-52 -11q-3 0 -5 -1q-8 1 -12.5 5.5t-4.5 11.5v5zM43 -229q20 23 20 42q0 11 -17.5 33.5t-17.5 43.5q0 27 17 42.5t38 15.5q25 0 40.5 -17t15.5 -43q0 -59 -38.5 -107t-66.5 -48q-12 0 -12 9q0 6 21 29z" />
    <glyph glyph-name="Rcaron" unicode="&#x158;" horiz-adv-x="658" 
d="M24 20q2 11 12.5 19.5t22.5 15t24.5 25t16.5 47.5l60 436q2 15 2 27q0 16 -5 33t-15 24t-17 14t-7 15v4q3 20 52 20h180q158 0 227 -61t69 -144q0 -15 -2 -30q-10 -70 -51.5 -121.5t-110.5 -78.5l62 -160q8 -22 20.5 -36.5t22.5 -19t15.5 -11t5.5 -15.5v-3
q-4 -20 -42 -20h-108q-46 0 -46 20v3q2 9 15.5 20.5t17.5 18.5t4 15q0 12 -6 32l-49 134q-34 -6 -73 -6h-94q-20 0 -23 -20l-12 -95q-1 -9 -1 -17q0 -17 5.5 -31.5t15 -20t16 -12.5t6.5 -16v-5q-4 -20 -52 -20h-110q-48 0 -48 18v2zM221 294q6 -5 30.5 -8.5t73.5 -3.5
q86 0 144.5 39.5t71.5 124.5q2 16 2 32q0 69 -48.5 122.5t-153.5 54.5h-14q-36 0 -49.5 -5t-15.5 -21l-45 -319v-5q0 -7 4 -11zM165 869q0 13 14 14h2q19 0 55.5 -15t56.5 -32q26 17 66 32t59 15h2q11 -1 11 -11v-3q-2 -8 -63 -59q-10 -9 -23 -21l-18 -16q-5 -4 -12 -9.5
t-11.5 -7t-9.5 -2.5t-13 -1q-7 0 -12.5 1.5t-9 3t-9.5 8.5l-10 10q-4 3 -14.5 15t-16.5 19q-5 7 -13 16t-12.5 14.5t-9.5 11.5t-7 10t-2 7z" />
    <glyph glyph-name="rcaron" unicode="&#x159;" horiz-adv-x="419" 
d="M51 10l50 349q1 7 1 13q0 10 -4 19.5t-11 13.5t-13.5 9.5t-6.5 13.5q0 11 10.5 18.5t45.5 23.5q37 16 60 16q19 0 19 -17v-5l-12 -90q29 48 73.5 82t89.5 34q34 0 49.5 -18.5t15.5 -42.5q0 -1 -0.5 -15t-11.5 -29.5t-31 -15.5h-2q-19 0 -36.5 22t-36.5 22
q-37 0 -77 -65.5t-52 -150.5l-25 -175q-3 -19 -21 -22l-52 -11q-3 0 -5 -1q-8 1 -12.5 5.5t-4.5 11.5v5zM166 675q2 13 15 14h2q17 0 44.5 -19.5t48.5 -44.5q29 25 61.5 44.5t50.5 19.5h2q11 -1 11 -11v-3q-1 -4 -8.5 -13.5t-23.5 -28t-26 -31.5q-5 -5 -12 -14t-10 -12.5
t-8 -9.5t-7.5 -7.5t-6.5 -5t-7 -4.5l-7 -2q-5 -2 -9 -2h-10q-22 0 -32 10t-33 51q-35 57 -35 69z" />
    <glyph glyph-name="Sacute" unicode="&#x15a;" horiz-adv-x="589" 
d="M41 185q2 35 21 35q20 0 33 -34q42 -148 179 -148h4q66 0 106.5 30.5t50.5 79.5q2 10 2 19q0 14 -6 32t-17.5 32.5t-38.5 32.5t-42 26t-49 26q-33 17 -48 25.5t-43 26.5t-41 33t-28 37t-18 41t-3 33t2 28q9 73 78 120.5t180 47.5q25 0 60 -5.5t48 -5.5q12 0 25.5 5.5
t20.5 5.5q14 0 19 -10.5t8 -42.5q6 -57 7 -113v-5q0 -28 -20 -28t-35 32q-56 120 -161 120q-57 0 -94.5 -24.5t-44.5 -69.5q-1 -9 -1 -17q0 -18 7 -37t31.5 -39.5t46 -34t63.5 -35.5q99 -52 131 -79q62 -51 62 -122q0 -10 -1 -19q-9 -90 -90.5 -142t-187.5 -53q-44 0 -87 7
t-52 7q-12 0 -26 -6.5t-21 -6.5q-15 0 -21 12t-7 43q-2 76 -2 117v23zM291 790q2 11 63 72q44 42 60 48q7 2 13 2q5 0 10 -1q16 -5 23.5 -17t7.5 -23q0 -6 -2 -13q-7 -33 -60 -60.5t-84 -27.5q-9 0 -16 2q-16 4 -16 14q0 2 1 4z" />
    <glyph glyph-name="sacute" unicode="&#x15b;" horiz-adv-x="462" 
d="M36 157q3 1 5 1q13 0 25 -20q66 -103 164 -103q37 0 61 17.5t27 41.5q1 6 1 12q0 26 -25.5 48.5t-88.5 50.5q-71 30 -104 63.5t-33 74.5q0 11 2 23q10 62 68 93t128 31q119 0 138 -49q12 -29 17 -49q3 -13 3 -21q0 -4 -1.5 -9t-11.5 -9q-2 -1 -4.5 -1t-5 0.5t-4.5 1.5
t-5 3.5t-5.5 4.5t-6.5 6t-7.5 7t-8.5 9l-10 9q-53 53 -114 53q-34 0 -58.5 -17t-28.5 -41q-1 -7 -1 -13q0 -25 22.5 -44.5t92.5 -49.5q75 -32 109 -65.5t34 -72.5q0 -10 -2 -20q-11 -58 -65 -95.5t-135 -37.5q-152 0 -166 47q-15 52 -21 93v6q0 17 15 21zM212 564
q6 13 68 70q20 17 28.5 23.5t22 13.5t23.5 7q22 0 30.5 -14t8.5 -26q0 -9 -3 -18q-11 -31 -63.5 -54.5t-81.5 -23.5q-12 0 -22 4q-12 4 -12 13q0 2 1 5z" />
    <glyph glyph-name="Scedilla" unicode="&#x15e;" horiz-adv-x="589" 
d="M41 185q2 35 21 35q20 0 33 -34q42 -148 179 -148h4q66 0 106.5 30.5t50.5 79.5q2 10 2 19q0 14 -6 32t-17.5 32.5t-38.5 32.5t-42 26t-49 26q-33 17 -48 25.5t-43 26.5t-41 33t-28 37t-18 41t-3 33t2 28q9 73 78 120.5t180 47.5q25 0 60 -5.5t48 -5.5q12 0 25.5 5.5
t20.5 5.5q14 0 19 -10.5t8 -42.5q6 -57 7 -113v-5q0 -28 -20 -28t-35 32q-56 120 -161 120q-57 0 -94.5 -24.5t-44.5 -69.5q-1 -9 -1 -17q0 -18 7 -37t31.5 -39.5t46 -34t63.5 -35.5q99 -52 131 -79q62 -51 62 -122q0 -10 -1 -19q-9 -88 -86 -139.5t-180 -55.5l-22 -42
q93 -16 93 -79q0 -35 -27 -57t-65 -22q-55 0 -81 32q-4 4 -4 8t3.5 7.5t7.5 3.5t9 -3q30 -17 54 -17q22 0 34 12t12 30q0 38 -68 54q-14 3 -14 11q0 3 2 6l30 56q-32 2 -67.5 8t-47.5 6t-26 -6.5t-21 -6.5q-15 0 -21 12t-7 43q-2 76 -2 117v23z" />
    <glyph glyph-name="scedilla" unicode="&#x15f;" horiz-adv-x="462" 
d="M36 157q3 1 5 1q13 0 25 -20q66 -103 164 -103q37 0 61 17.5t27 41.5q1 6 1 12q0 26 -25.5 48.5t-88.5 50.5q-71 30 -104 63.5t-33 74.5q0 11 2 23q10 62 68 93t128 31q119 0 138 -49q12 -29 17 -49q3 -13 3 -21q0 -4 -1.5 -9t-11.5 -9q-2 -1 -4.5 -1t-5 0.5t-4.5 1.5
t-5 3.5t-5.5 4.5t-6.5 6t-7.5 7t-8.5 9l-10 9q-53 53 -114 53q-34 0 -58.5 -17t-28.5 -41q-1 -7 -1 -13q0 -25 22.5 -44.5t92.5 -49.5q75 -32 109 -65.5t34 -72.5q0 -10 -2 -20q-11 -58 -65 -95.5t-135 -37.5h-6l-23 -43q93 -16 93 -79q0 -35 -27 -57t-65 -22q-55 0 -81 32
q-4 4 -4 8t3.5 7.5t7.5 3.5t9 -3q30 -17 54 -17q22 0 34 12t12 30q0 38 -68 54q-14 3 -14 11q0 3 2 6l31 58q-113 7 -124 46q-15 52 -21 93v6q0 17 15 21z" />
    <glyph glyph-name="Scaron" unicode="&#x160;" horiz-adv-x="589" 
d="M41 185q2 35 21 35q20 0 33 -34q42 -148 179 -148h4q66 0 106.5 30.5t50.5 79.5q2 10 2 19q0 14 -6 32t-17.5 32.5t-38.5 32.5t-42 26t-49 26q-33 17 -48 25.5t-43 26.5t-41 33t-28 37t-18 41t-3 33t2 28q9 73 78 120.5t180 47.5q25 0 60 -5.5t48 -5.5q12 0 25.5 5.5
t20.5 5.5q14 0 19 -10.5t8 -42.5q6 -57 7 -113v-5q0 -28 -20 -28t-35 32q-56 120 -161 120q-57 0 -94.5 -24.5t-44.5 -69.5q-1 -9 -1 -17q0 -18 7 -37t31.5 -39.5t46 -34t63.5 -35.5q99 -52 131 -79q62 -51 62 -122q0 -10 -1 -19q-9 -90 -90.5 -142t-187.5 -53q-44 0 -87 7
t-52 7q-12 0 -26 -6.5t-21 -6.5q-15 0 -21 12t-7 43q-2 76 -2 117v23zM239 878q0 13 14 14h2q19 0 55.5 -15t56.5 -32q26 17 66 32t59 15h2q11 -1 11 -11v-3q-2 -8 -63 -59q-10 -9 -23 -21l-18 -16q-5 -4 -12 -9.5t-11.5 -7t-9.5 -2.5t-13 -1q-7 0 -12.5 1.5t-9 3t-9.5 8.5
l-10 10q-4 3 -14.5 15t-16.5 19q-5 7 -13 16t-12.5 14.5t-9.5 11.5t-7 10t-2 7z" />
    <glyph glyph-name="scaron" unicode="&#x161;" horiz-adv-x="462" 
d="M36 157q3 1 5 1q13 0 25 -20q66 -103 164 -103q37 0 61 17.5t27 41.5q1 6 1 12q0 26 -25.5 48.5t-88.5 50.5q-71 30 -104 63.5t-33 74.5q0 11 2 23q10 62 68 93t128 31q119 0 138 -49q12 -29 17 -49q3 -13 3 -21q0 -4 -1.5 -9t-11.5 -9q-2 -1 -4.5 -1t-5 0.5t-4.5 1.5
t-5 3.5t-5.5 4.5t-6.5 6t-7.5 7t-8.5 9l-10 9q-53 53 -114 53q-34 0 -58.5 -17t-28.5 -41q-1 -7 -1 -13q0 -25 22.5 -44.5t92.5 -49.5q75 -32 109 -65.5t34 -72.5q0 -10 -2 -20q-11 -58 -65 -95.5t-135 -37.5q-152 0 -166 47q-15 52 -21 93v6q0 17 15 21zM166 686
q2 13 15 14h2q17 0 44.5 -19.5t48.5 -44.5q29 25 61.5 44.5t50.5 19.5h2q11 -1 11 -11v-3q-1 -4 -8.5 -13.5t-23.5 -28t-26 -31.5q-5 -5 -12 -14t-10 -12.5t-8 -9.5t-7.5 -7.5t-6.5 -5t-7 -4.5l-7 -2q-5 -2 -9 -2h-10q-22 0 -32 10t-33 51q-35 57 -35 69z" />
    <glyph glyph-name="uni0162" unicode="&#x162;" horiz-adv-x="641" 
d="M82 558q11 64 29 107q7 20 23.5 27.5t61.5 7.5l377 1q45 0 59.5 -7.5t17.5 -27.5q3 -18 3 -40q0 -30 -5 -67q-4 -34 -25 -34q-17 0 -32 39q-12 30 -17.5 41.5t-18 26.5t-30 19.5t-46.5 4.5q-30 0 -43.5 -11.5t-17.5 -38.5l-67 -478q-2 -10 -2 -31q1 -19 8.5 -31t16 -16.5
t14 -11t5.5 -14.5v-3q-3 -20 -52 -20h-111q-25 0 -36 4.5t-11 13.5v2q2 10 10.5 17t19 11.5t21.5 16.5t16 31q6 14 9 31l66 477q1 7 1 14q0 16 -9 26t-38 10q-38 0 -63 -12t-37.5 -26.5t-38.5 -52.5q-26 -40 -42 -40q-17 0 -17 21q0 6 1 13zM204 -164q3 4 8 4q3 0 8 -3
q30 -17 54 -17q22 0 34 12t12 30q0 38 -68 54q-14 3 -14 11q0 3 2 6l36 67h36l-28 -53q93 -16 93 -79q0 -35 -27 -57t-65 -22q-55 0 -81 32q-3 4 -3 8q0 3 3 7z" />
    <glyph glyph-name="uni0163" unicode="&#x163;" horiz-adv-x="353" 
d="M38 425q6 22 33 27l47 7l16 96q3 18 21 21l44 9q4 1 7 1q6 0 10.5 -4t4.5 -14v-3l-14 -93l104 14q10 2 16 2q11 0 15 -4t4 -12q0 -6 -2 -14q-4 -17 -11.5 -25t-13 -9.5t-24.5 -3.5l-97 -10q-35 -236 -36 -284v-8q0 -60 46 -60q35 0 71 41q6 8 12 8q2 0 6.5 -2t4.5 -14
q0 -27 -32.5 -60t-79.5 -40l-23 -44q93 -16 93 -79q0 -35 -27 -57t-65 -22q-55 0 -81 32q-4 4 -4 8t3.5 7.5t7.5 3.5t9 -3q30 -17 54 -17q22 0 34 12t12 30q0 38 -68 54q-14 3 -14 11q0 3 2 6l31 58q-85 9 -85 102v9q2 66 40 300l-44 -5h-8q-12 0 -16.5 4t-4.5 12q0 5 2 12z
" />
    <glyph glyph-name="Tcaron" unicode="&#x164;" horiz-adv-x="641" 
d="M82 558q11 64 29 107q7 20 23.5 27.5t61.5 7.5l377 1q45 0 59.5 -7.5t17.5 -27.5q3 -18 3 -40q0 -30 -5 -67q-4 -34 -25 -34q-17 0 -32 39q-12 30 -17.5 41.5t-18 26.5t-30 19.5t-46.5 4.5q-30 0 -43.5 -11.5t-17.5 -38.5l-67 -478q-2 -10 -2 -31q1 -19 8.5 -31t16 -16.5
t14 -11t5.5 -14.5v-3q-3 -20 -52 -20h-111q-25 0 -36 4.5t-11 13.5v2q2 10 10.5 17t19 11.5t21.5 16.5t16 31q6 14 9 31l66 477q1 7 1 14q0 16 -9 26t-38 10q-38 0 -63 -12t-37.5 -26.5t-38.5 -52.5q-26 -40 -42 -40q-17 0 -17 21q0 6 1 13zM290 869q0 13 14 14h2
q19 0 55.5 -15t56.5 -32q26 17 66 32t59 15h2q11 -1 11 -11v-3q-2 -8 -63 -59q-10 -9 -23 -21l-18 -16q-5 -4 -12 -9.5t-11.5 -7t-9.5 -2.5t-13 -1q-7 0 -12.5 1.5t-9 3t-9.5 8.5l-10 10q-4 3 -14.5 15t-16.5 19q-5 7 -13 16t-12.5 14.5t-9.5 11.5t-7 10t-2 7z" />
    <glyph glyph-name="tcaron" unicode="&#x165;" horiz-adv-x="353" 
d="M38 425q6 22 33 27l47 7l16 96q3 18 21 21l44 9q4 1 7 1q6 0 10.5 -4t4.5 -14v-3l-14 -93l55 7q-10 2 -10 12q0 2 1 5l34 151q12 49 50 49q32 0 32 -33q0 -5 -1 -11q-4 -29 -40.5 -95t-57.5 -77l41 6q10 2 16 2q11 0 15 -4t4 -12q0 -6 -2 -14q-4 -17 -11.5 -25t-13 -9.5
t-24.5 -3.5l-97 -10q-35 -236 -36 -284v-8q0 -60 46 -60q35 0 71 41q6 8 12 8q2 0 6.5 -2t4.5 -14q0 -31 -38.5 -66t-91.5 -35q-103 0 -103 104v8q2 66 40 300l-44 -5h-8q-12 0 -16.5 4t-4.5 12q0 5 2 12z" />
    <glyph glyph-name="Tbar" unicode="&#x166;" horiz-adv-x="641" 
d="M82 558q11 64 29 107q7 20 23.5 27.5t61.5 7.5l377 1q45 0 59.5 -7.5t17.5 -27.5q3 -18 3 -40q0 -30 -5 -67q-4 -34 -25 -34q-17 0 -32 39q-12 30 -17.5 41.5t-18 26.5t-30 19.5t-46.5 4.5q-30 0 -43.5 -11.5t-17.5 -38.5l-33 -235h67q15 0 19 -4.5t4 -11.5q0 -3 -1 -6
q-2 -12 -7.5 -17.5t-21.5 -5.5h-66l-28 -198q-2 -10 -2 -31q1 -19 8.5 -31t16 -16.5t14 -11t5.5 -14.5v-3q-3 -20 -52 -20h-111q-25 0 -36 4.5t-11 13.5v2q2 10 10.5 17t19 11.5t21.5 16.5t16 31q6 14 9 31l27 198h-57q-16 0 -19.5 4.5t-3.5 11.5q0 3 1 7q3 22 29 22h57
l32 234q1 7 1 14q0 16 -9 26t-38 10q-38 0 -63 -12t-37.5 -26.5t-38.5 -52.5q-26 -40 -42 -40q-17 0 -17 21q0 6 1 13z" />
    <glyph glyph-name="tbar" unicode="&#x167;" horiz-adv-x="353" 
d="M52 330h46q3 24 11 72l-44 -5h-8q-12 0 -16.5 4t-4.5 12q0 5 2 12q6 22 33 27l47 7l16 96q3 18 21 21l44 9q4 1 7 1q6 0 10.5 -4t4.5 -14v-3l-14 -93l104 14q10 2 16 2q11 0 15 -4t4 -12q0 -6 -2 -14q-4 -17 -11.5 -25t-13 -9.5t-24.5 -3.5l-97 -10l-12 -80h55
q19 0 19 -20q0 -21 -19 -21h-61q-16 -118 -18 -163v-8q0 -60 46 -60q35 0 71 41q6 8 12 8q2 0 6.5 -2t4.5 -14q0 -31 -38.5 -66t-91.5 -35q-103 0 -103 104v8q2 49 23 187h-40q-19 0 -19 21q0 20 19 20z" />
    <glyph glyph-name="Umacron" unicode="&#x16a;" horiz-adv-x="731" 
d="M111 277l41 294q2 8 2 18q0 7 -1 14q-1 24 -13 36t-21.5 19t-9.5 16v4q1 12 13 16t40 4h110q27 0 36.5 -3.5t9.5 -12.5q0 -2 -1 -9t-14 -14.5t-29 -20t-23 -35.5q-4 -13 -7 -32l-43 -310q-4 -27 -4 -51q0 -69 38 -118t132 -49t155 63.5t75 163.5l41 310q2 11 2 20
q0 14 -5 28t-14.5 19.5t-16 13t-6.5 16.5v2q4 21 49 21h67q23 0 32 -4t9 -13v-4q-1 -11 -10.5 -18.5t-20.5 -13t-21.5 -23t-14.5 -44.5l-42 -296q-19 -136 -97 -215t-210 -79q-126 0 -179.5 67t-53.5 159q0 29 5 61zM336 800q2 15 7.5 20t24.5 5h227q19 0 23 -4t4 -12
q0 -4 -1 -8q-2 -15 -7.5 -20.5t-25.5 -5.5h-227q-19 0 -22.5 4t-3.5 12q0 4 1 9z" />
    <glyph glyph-name="umacron" unicode="&#x16b;" horiz-adv-x="617" 
d="M78 448q10 8 45 22q44 18 67 18q11 0 15.5 -6t4.5 -13q0 -2 -1 -5l-38 -265q-3 -23 -4 -35.5t-1 -24.5q0 -8 0.5 -24.5t6.5 -30.5t20.5 -24.5t37.5 -10.5q62 0 121.5 85.5t78.5 203.5l18 111q2 16 23 22l48 14q4 1 7 1q7 0 11.5 -5t4.5 -12v-5l-55 -367q-2 -9 -2 -16
q0 -22 18 -22q10 0 24 14t20 14q10 0 10 -10v-4q-3 -30 -31 -55t-65 -25q-67 0 -67 83q0 23 5 52q-86 -138 -196 -138q-74 0 -102.5 42t-28.5 100q0 22 3 46l25 186q1 7 1 13q0 9 -4 18t-11 12t-13.5 8t-6.5 13q0 11 11 20zM212 578q4 15 10 20t25 5h228q19 0 22 -4t3 -8
q0 -5 -3 -12q-4 -16 -10 -21t-26 -5h-227q-19 0 -22 4t-3 8q0 5 3 13z" />
    <glyph glyph-name="Uring" unicode="&#x16e;" horiz-adv-x="731" 
d="M111 277l41 294q2 8 2 18q0 7 -1 14q-1 24 -13 36t-21.5 19t-9.5 16v4q1 12 13 16t40 4h110q27 0 36.5 -3.5t9.5 -12.5q0 -2 -1 -9t-14 -14.5t-29 -20t-23 -35.5q-4 -13 -7 -32l-43 -310q-4 -27 -4 -51q0 -69 38 -118t132 -49t155 63.5t75 163.5l41 310q2 11 2 20
q0 14 -5 28t-14.5 19.5t-16 13t-6.5 16.5v2q4 21 49 21h67q23 0 32 -4t9 -13v-4q-1 -11 -10.5 -18.5t-20.5 -13t-21.5 -23t-14.5 -44.5l-42 -296q-19 -136 -97 -215t-210 -79q-126 0 -179.5 67t-53.5 159q0 29 5 61zM406 842q6 41 38 67t74 26q41 0 62 -22t21 -52
q0 -8 -1 -16q-6 -42 -37 -67q-32 -26 -74 -26t-63 22.5t-21 51.5q0 8 1 16zM465 806q13 -15 34 -15q22 0 37.5 16.5t17.5 39.5q0 22 -12 36.5t-33 14.5q-24 0 -39.5 -15.5t-17.5 -39.5q0 -23 13 -37z" />
    <glyph glyph-name="uring" unicode="&#x16f;" horiz-adv-x="617" 
d="M78 448q10 8 45 22q44 18 67 18q11 0 15.5 -6t4.5 -13q0 -2 -1 -5l-38 -265q-3 -23 -4 -35.5t-1 -24.5q0 -8 0.5 -24.5t6.5 -30.5t20.5 -24.5t37.5 -10.5q62 0 121.5 85.5t78.5 203.5l18 111q2 16 23 22l48 14q4 1 7 1q7 0 11.5 -5t4.5 -12v-5l-55 -367q-2 -9 -2 -16
q0 -22 18 -22q10 0 24 14t20 14q10 0 10 -10v-4q-3 -30 -31 -55t-65 -25q-67 0 -67 83q0 23 5 52q-86 -138 -196 -138q-74 0 -102.5 42t-28.5 100q0 22 3 46l25 186q1 7 1 13q0 9 -4 18t-11 12t-13.5 8t-6.5 13q0 11 11 20zM268 620q6 41 38 67t74 26q41 0 62 -22t21 -52
q0 -8 -1 -16q-6 -42 -37 -67q-32 -26 -74 -26t-63 22.5t-21 51.5q0 8 1 16zM314 621q0 -23 13 -37.5t34 -14.5q22 0 37.5 16.5t17.5 39.5q0 22 -12 36.5t-33 14.5q-24 0 -39.5 -15.5t-17.5 -39.5z" />
    <glyph glyph-name="Uhungarumlaut" unicode="&#x170;" horiz-adv-x="731" 
d="M111 277l41 294q2 8 2 18q0 7 -1 14q-1 24 -13 36t-21.5 19t-9.5 16v4q1 12 13 16t40 4h110q27 0 36.5 -3.5t9.5 -12.5q0 -2 -1 -9t-14 -14.5t-29 -20t-23 -35.5q-4 -13 -7 -32l-43 -310q-4 -27 -4 -51q0 -69 38 -118t132 -49t155 63.5t75 163.5l41 310q2 11 2 20
q0 14 -5 28t-14.5 19.5t-16 13t-6.5 16.5v2q4 21 49 21h67q23 0 32 -4t9 -13v-4q-1 -11 -10.5 -18.5t-20.5 -13t-21.5 -23t-14.5 -44.5l-42 -296q-19 -136 -97 -215t-210 -79q-126 0 -179.5 67t-53.5 159q0 29 5 61zM315 778q0 14 70 70q50 39 67 42q4 1 8 1q16 0 30 -12
t14 -26q0 -30 -57 -59t-99 -29q-33 0 -33 13zM507 778q1 14 74 66q55 39 75 39h1q17 -1 29.5 -13t12.5 -25v-2q-1 -30 -57.5 -55t-95.5 -25h-6q-33 2 -33 14v1z" />
    <glyph glyph-name="uhungarumlaut" unicode="&#x171;" horiz-adv-x="617" 
d="M67 428q0 11 10.5 19.5t45.5 22.5q44 18 67 18q11 0 15.5 -6t4.5 -13q0 -2 -1 -5l-38 -265q-3 -23 -4 -35.5t-1 -24.5q0 -8 0.5 -24.5t6.5 -30.5t20.5 -24.5t37.5 -10.5q62 0 121.5 85.5t78.5 203.5l18 111q2 16 23 22l48 14q4 1 7 1q7 0 11.5 -5t4.5 -12v-5l-55 -367
q-2 -9 -2 -16q0 -22 18 -22q10 0 24 14t20 14q10 0 10 -10v-4q-3 -30 -31 -55t-65 -25q-67 0 -67 83q0 23 5 52q-86 -138 -196 -138q-74 0 -102.5 42t-28.5 100q0 22 3 46l25 186q1 7 1 13q0 9 -4 18t-11 12t-13.5 8t-6.5 13zM411 549q0 11 39 77q16 24 22.5 33t18 18
t22.5 9q15 0 26 -11t11 -29q0 -29 -45.5 -69.5t-77.5 -40.5q-9 0 -12.5 3.5t-3.5 7.5v2zM267 549q0 9 35 79q14 23 21 34t18 20t22 9q15 0 26.5 -11t11.5 -29q0 -30 -44 -72t-75 -42q-15 0 -15 12z" />
    <glyph glyph-name="Uogonek" unicode="&#x172;" horiz-adv-x="731" 
d="M111 277l41 294q2 8 2 18q0 7 -1 14q-1 24 -13 36t-21.5 19t-9.5 16v4q1 12 13 16t40 4h110q27 0 36.5 -3.5t9.5 -12.5q0 -2 -1 -9t-14 -14.5t-29 -20t-23 -35.5q-4 -13 -7 -32l-43 -310q-4 -27 -4 -51q0 -69 38 -118t132 -49t155 63.5t75 163.5l41 310q2 11 2 20
q0 14 -5 28t-14.5 19.5t-16 13t-6.5 16.5v2q4 21 49 21h67q23 0 32 -4t9 -13v-4q-1 -11 -10.5 -18.5t-20.5 -13t-21.5 -23t-14.5 -44.5l-42 -296q-16 -112 -71.5 -186t-148.5 -98q-47 -48 -47 -92q0 -25 15 -39.5t43 -14.5q19 0 41 9q6 3 10 3q6 0 8 -4t2 -6q0 -6 -6 -11
q-29 -28 -79 -28q-41 0 -69 21t-28 58q0 50 63 96q-26 -2 -40 -2q-126 0 -179.5 67t-53.5 159q0 29 5 61z" />
    <glyph glyph-name="uogonek" unicode="&#x173;" horiz-adv-x="617" 
d="M67 428q0 11 10.5 19.5t45.5 22.5q44 18 67 18q11 0 15.5 -6t4.5 -13q0 -2 -1 -5l-38 -265q-3 -23 -4 -35.5t-1 -24.5q0 -8 0.5 -24.5t6.5 -30.5t20.5 -24.5t37.5 -10.5q62 0 121.5 85.5t78.5 203.5l18 111q2 16 23 22l48 14q4 1 7 1q7 0 11.5 -5t4.5 -12v-5l-55 -367
q-2 -9 -2 -16q0 -22 18 -22q10 0 24 14t20 14q10 0 10 -10v-4q-3 -26 -26 -49.5t-55 -29.5q-36 -43 -36 -80q0 -25 15 -39.5t43 -14.5q19 0 41 9q6 3 10 3q6 0 8 -4t2 -6q0 -6 -6 -11q-29 -28 -79 -28q-41 0 -69 21t-28 58q0 48 61 94q-44 13 -44 80q0 23 5 52
q-86 -138 -196 -138q-74 0 -102.5 42t-28.5 100q0 22 3 46l25 186q1 7 1 13q0 9 -4 18t-11 12t-13.5 8t-6.5 13z" />
    <glyph glyph-name="Wcircumflex" unicode="&#x174;" horiz-adv-x="1060" 
d="M73 679q2 21 50 21h116q19 0 28.5 -4t9.5 -13v-2q-2 -10 -12 -18.5t-19 -15t-13.5 -19t-4.5 -23.5t3 -24l96 -486l218 458l-5 28q-6 28 -17 45.5t-20 23t-15 12t-6 14.5v3q2 21 50 21h116q38 0 38 -16v-3q-2 -10 -12 -18.5t-19 -15t-13.5 -19t-4.5 -23.5t3 -24l95 -485
l229 486q14 35 14 49q0 4 -2.5 11t-13.5 16.5t-11 18.5v2q2 21 40 21h81q20 0 29.5 -4t9.5 -13v-2q-2 -11 -11.5 -18t-22 -12t-30 -22.5t-30.5 -46.5l-269 -559q-10 -20 -44 -26q-11 -2 -20 -2q-20 0 -24 14l-100 474l-220 -460q-9 -20 -44 -26q-11 -2 -20 -2q-20 0 -24 14
l-120 572q-6 28 -17 45.5t-20.5 23t-15.5 12t-6 14.5v3zM455 766q4 10 62 59q7 6 17 15t14.5 13t11 9.5t10 8t8 5.5t8 3.5t8 1.5t9.5 1h9q3 0 7 -1.5t6.5 -2t6.5 -4t6 -5t7 -7.5t8 -9t11 -12l12 -15q5 -7 13 -16t13 -14.5t9.5 -12t7 -10.5t2.5 -7q0 -12 -13 -13h-2
q-20 0 -56.5 15t-56.5 31q-26 -17 -66 -31.5t-59 -14.5h-2q-11 1 -11 10v3z" />
    <glyph glyph-name="wcircumflex" unicode="&#x175;" horiz-adv-x="813" 
d="M73 448q10 8 45 22q44 18 66 18q20 0 20 -19v-5l-38 -271q-4 -26 -4 -48q0 -95 69 -95q54 0 91.5 51.5t56.5 139.5l26 192q5 33 22 40q28 14 56 14q20 0 20 -18v-5l-38 -271q-4 -26 -4 -48q0 -95 69 -95q45 0 85 41t62 100t22 114q0 40 -20.5 72.5t-20.5 50.5
q0 23 21.5 42.5t48.5 19.5q52 0 52 -80q0 -101 -35.5 -197t-100.5 -159.5t-141 -63.5q-114 0 -133 105q-68 -105 -180 -105q-63 0 -92.5 40.5t-29.5 100.5q0 21 3 45l25 188q1 6 1 10q0 11 -4 20.5t-11 12.5t-13.5 8t-6.5 13q0 11 11 20zM337 551q3 11 55 69q34 40 47 50.5
t35 10.5q5 0 9 -0.5t7.5 -1t6.5 -2t5.5 -2.5t5 -4.5t4.5 -5.5t5 -7.5t5 -9t6 -11.5t7 -13q37 -70 37 -73q-2 -13 -14 -14h-2q-18 0 -46 20t-48 45q-28 -25 -60.5 -45t-50.5 -20h-2q-12 1 -12 11v3z" />
    <glyph glyph-name="Ycircumflex" unicode="&#x176;" horiz-adv-x="662" 
d="M50 679q2 12 13.5 16.5t37.5 4.5h139q38 0 38 -16v-3q-2 -10 -13 -18.5t-20 -14.5t-10.5 -15t-1.5 -12q0 -14 12 -34l119 -225l179 233q18 23 21 33.5t3 14.5q0 6 -4.5 9.5t-10 10t-5.5 13.5v3q4 21 40 21h80q21 0 30 -3.5t9 -12.5q0 -1 -1 -7.5t-10.5 -13t-23 -11
t-34 -19t-38.5 -37.5l-223 -287l-25 -182q-3 -15 -3 -31q1 -19 9 -31t16.5 -16.5t13.5 -10.5t6 -13q-1 -3 -1 -5q-3 -20 -52 -20h-110q-47 0 -47 18v2q1 10 10 17t19.5 11.5t21.5 16.5t16 31q4 9 8 31l25 183l-152 278q-13 24 -29.5 40t-27.5 21.5t-17.5 12t-6.5 15.5v2z
M287 766q4 10 62 59q7 6 17 15t14.5 13t11 9.5t10 8t8 5.5t8 3.5t8 1.5t9.5 1h9q3 0 7 -1.5t6.5 -2t6.5 -4t6 -5t7 -7.5t8 -9t11 -12l12 -15q5 -7 13 -16t13 -14.5t9.5 -12t7 -10.5t2.5 -7q0 -12 -13 -13h-2q-20 0 -56.5 15t-56.5 31q-26 -17 -66 -31.5t-59 -14.5h-2
q-11 1 -11 10v3z" />
    <glyph glyph-name="ycircumflex" unicode="&#x177;" horiz-adv-x="521" 
d="M-65 -80q16 18 40 18q31 0 51 -38q12 -23 27 -34.5t45 -11.5q43 0 76 34.5t39 80.5q1 7 1 15q0 29 -10 76q-35 150 -95 304q-11 30 -46 30h-2q-27 0 -27 16q0 21 44.5 50t66.5 29q19 0 27 -21q82 -230 129 -438q108 166 108 275q0 40 -20.5 72.5t-20.5 50.5
q0 23 21.5 42.5t48.5 19.5q52 0 52 -64q0 -100 -46.5 -215.5t-101.5 -198.5q-145 -222 -309 -222q-55 0 -84 23.5t-29 62.5q0 27 15 44zM178 541q3 11 55 69q34 40 47 50.5t35 10.5q5 0 9 -0.5t7.5 -1t6.5 -2t5.5 -2.5t5 -4.5t4.5 -5.5t5 -7.5t5 -9t6 -11.5t7 -13
q37 -70 37 -73q-2 -13 -14 -14h-2q-18 0 -46 20t-48 45q-28 -25 -60.5 -45t-50.5 -20h-2q-12 1 -12 11v3z" />
    <glyph glyph-name="Ydieresis" unicode="&#x178;" horiz-adv-x="662" 
d="M50 679q2 12 13.5 16.5t37.5 4.5h139q38 0 38 -16v-3q-2 -10 -13 -18.5t-20 -14.5t-10.5 -15t-1.5 -12q0 -14 12 -34l119 -225l179 233q18 23 21 33.5t3 14.5q0 6 -4.5 9.5t-10 10t-5.5 13.5v3q4 21 40 21h80q21 0 30 -3.5t9 -12.5q0 -1 -1 -7.5t-10.5 -13t-23 -11
t-34 -19t-38.5 -37.5l-223 -287l-25 -182q-3 -15 -3 -31q1 -19 9 -31t16.5 -16.5t13.5 -10.5t6 -13q-1 -3 -1 -5q-3 -20 -52 -20h-110q-47 0 -47 18v2q1 10 10 17t19.5 11.5t21.5 16.5t16 31q4 9 8 31l25 183l-152 278q-13 24 -29.5 40t-27.5 21.5t-17.5 12t-6.5 15.5v2z
M446 859q18 19 41 19q21 0 34.5 -13t13.5 -33q0 -23 -19.5 -39.5t-43.5 -16.5q-19 0 -31.5 11t-12.5 29q0 23 18 43zM284 816q0 23 17.5 42.5t41.5 19.5q20 0 33.5 -13t13.5 -33q0 -23 -19 -39.5t-44 -16.5q-19 0 -31 11t-12 29z" />
    <glyph glyph-name="Zacute" unicode="&#x179;" horiz-adv-x="623" 
d="M20 38l508 617h-224q-55 0 -86 -24t-62 -77q-23 -40 -43 -40q-12 0 -12 18q0 7 2 17q11 63 32 116q8 21 22.5 28t55.5 7h415q19 0 22 -6.5t3 -9.5q0 -9 -10 -21l-508 -618l236 1q55 0 86 24t62 76q23 40 43 40q12 0 12 -18q0 -7 -2 -17q-10 -58 -33 -116q-7 -21 -21 -28
t-56 -7h-428q-19 0 -22 7t-3 10q0 9 11 21zM323 781q2 11 63 72q44 42 60 48q7 2 13 2q5 0 10 -1q16 -5 23.5 -17t7.5 -23q0 -6 -2 -13q-7 -33 -60 -60.5t-84 -27.5q-9 0 -16 2q-16 4 -16 14q0 2 1 4z" />
    <glyph glyph-name="zacute" unicode="&#x17a;" horiz-adv-x="493" 
d="M42 57l315 332q-13 -1 -30 -1q-32 0 -92 4.5t-74 4.5q-19 0 -32.5 -7t-19 -16t-11.5 -16t-12 -7q-12 0 -12 28q1 39 23 73.5t62 34.5q37 0 108 -7.5t105 -7.5q30 0 54 7.5t34 7.5q17 0 17 -19q0 -23 -26 -47l-311 -334q12 2 32 2q29 0 89 -5.5t73 -5.5q22 0 39.5 9.5
t26.5 20t18 19.5t16 9q11 0 11 -23q0 -19 -4.5 -37.5t-14.5 -39t-32 -33.5t-52 -13q-39 0 -126.5 8t-104.5 8q-27 0 -49.5 -5.5t-27.5 -5.5q-17 0 -17 17q0 20 25 45zM217 550q6 13 68 70q20 17 28.5 23.5t22 13.5t23.5 7q22 0 30.5 -14t8.5 -26q0 -9 -3 -18
q-11 -31 -63.5 -54.5t-81.5 -23.5q-12 0 -22 4q-12 4 -12 13q0 2 1 5z" />
    <glyph glyph-name="Zdotaccent" unicode="&#x17b;" horiz-adv-x="623" 
d="M20 38l508 617h-224q-55 0 -86 -24t-62 -77q-23 -40 -43 -40q-12 0 -12 18q0 7 2 17q11 63 32 116q8 21 22.5 28t55.5 7h415q19 0 22 -6.5t3 -9.5q0 -9 -10 -21l-508 -618l236 1q55 0 86 24t62 76q23 40 43 40q12 0 12 -18q0 -7 -2 -17q-10 -58 -33 -116q-7 -21 -21 -28
t-56 -7h-428q-19 0 -22 7t-3 10q0 9 11 21zM308 835q2 28 28 51t51 23q4 0 8 -1q20 -1 32.5 -16.5t12.5 -32.5v-3q-2 -27 -29 -49t-53 -22h-5q-21 2 -33 15t-12 32v3z" />
    <glyph glyph-name="zdotaccent" unicode="&#x17c;" horiz-adv-x="493" 
d="M17 12q0 20 25 45l315 332q-13 -1 -30 -1q-32 0 -92 4.5t-74 4.5q-19 0 -32.5 -7t-19 -16t-11.5 -16t-12 -7q-12 0 -12 28q1 39 23 73.5t62 34.5q37 0 108 -7.5t105 -7.5q30 0 54 7.5t34 7.5q17 0 17 -19q0 -23 -26 -47l-311 -334q12 2 32 2q29 0 89 -5.5t73 -5.5
q22 0 39.5 9.5t26.5 20t18 19.5t16 9q11 0 11 -23q0 -19 -4.5 -37.5t-14.5 -39t-32 -33.5t-52 -13q-39 0 -126.5 8t-104.5 8q-27 0 -49.5 -5.5t-27.5 -5.5q-17 0 -17 17zM220 601q2 28 28 51t51 23q4 0 8 -1q20 -1 32.5 -16.5t12.5 -32.5v-3q-2 -27 -29 -49t-53 -22h-5
q-21 2 -33 15t-12 32v3z" />
    <glyph glyph-name="Zcaron" unicode="&#x17d;" horiz-adv-x="623" 
d="M20 38l508 617h-224q-55 0 -86 -24t-62 -77q-23 -40 -43 -40q-12 0 -12 18q0 7 2 17q11 63 32 116q8 21 22.5 28t55.5 7h415q19 0 22 -6.5t3 -9.5q0 -9 -10 -21l-508 -618l236 1q55 0 86 24t62 76q23 40 43 40q12 0 12 -18q0 -7 -2 -17q-10 -58 -33 -116q-7 -21 -21 -28
t-56 -7h-428q-19 0 -22 7t-3 10q0 9 11 21zM271 869q0 13 14 14h2q19 0 55.5 -15t56.5 -32q26 17 66 32t59 15h2q11 -1 11 -11v-3q-2 -8 -63 -59q-10 -9 -23 -21l-18 -16q-5 -4 -12 -9.5t-11.5 -7t-9.5 -2.5t-13 -1q-7 0 -12.5 1.5t-9 3t-9.5 8.5l-10 10q-4 3 -14.5 15
t-16.5 19q-5 7 -13 16t-12.5 14.5t-9.5 11.5t-7 10t-2 7z" />
    <glyph glyph-name="zcaron" unicode="&#x17e;" horiz-adv-x="493" 
d="M17 12q0 20 25 45l315 332q-13 -1 -30 -1q-32 0 -92 4.5t-74 4.5q-19 0 -32.5 -7t-19 -16t-11.5 -16t-12 -7q-12 0 -12 28q1 39 23 73.5t62 34.5q37 0 108 -7.5t105 -7.5q30 0 54 7.5t34 7.5q17 0 17 -19q0 -23 -26 -47l-311 -334q12 2 32 2q29 0 89 -5.5t73 -5.5
q22 0 39.5 9.5t26.5 20t18 19.5t16 9q11 0 11 -23q0 -19 -4.5 -37.5t-14.5 -39t-32 -33.5t-52 -13q-39 0 -126.5 8t-104.5 8q-27 0 -49.5 -5.5t-27.5 -5.5q-17 0 -17 17zM170 672q2 13 15 14h2q17 0 44.5 -19.5t48.5 -44.5q29 25 61.5 44.5t50.5 19.5h2q11 -1 11 -11v-3
q-1 -4 -8.5 -13.5t-23.5 -28t-26 -31.5q-5 -5 -12 -14t-10 -12.5t-8 -9.5t-7.5 -7.5t-6.5 -5t-7 -4.5l-7 -2q-5 -2 -9 -2h-10q-22 0 -32 10t-33 51q-35 57 -35 69z" />
    <glyph glyph-name="uni0218" unicode="&#x218;" horiz-adv-x="581" 
d="M38 31q-4 10 -4 30v9q1 10 1.5 47.5t2.5 68.5q4 12 40 12q29 0 38 -19q9 -25 17 -41.5t23.5 -36.5t39 -28.5t51.5 -8.5h7q106 10 131 137q4 18 4 33q0 29 -15.5 57t-54.5 57l-5 3q-6 4 -32 22q-75 41 -93 56q-49 40 -49 98q0 13 2 26q11 64 71.5 109.5t159.5 45.5
q17 0 34 -2.5t36.5 -7.5t26.5 -6q9 -2 20 -2.5t18 -3.5q11 -3 14 -13t4 -40q0 -7 1 -31.5t1 -40.5v-20q-5 -13 -33 -13q-30 0 -40 18q-15 26 -28 42.5t-38.5 31t-50.5 14.5h-10q-90 -12 -106 -123q-3 -16 -3 -31q0 -28 13.5 -54t49.5 -53l6 -3l31 -22l27 -15
q33 -18 49.5 -28.5t38.5 -30.5t27.5 -41t5.5 -40q0 -10 -1 -22q-12 -80 -84.5 -130.5t-164.5 -51.5q-31 0 -53 2.5t-45.5 8.5t-24.5 6q-10 4 -21.5 5.5t-17.5 4.5q-12 3 -17 15zM146 -103q4 20 19 34t34 16q5 1 10 1q16 0 25 -9.5t9 -27.5q0 -7 -1 -16q-5 -47 -48 -93
q-24 -26 -43 -26h-3q-3 1 -3 2t2 3q15 15 24 37q3 6 3 11q0 12 -12 24q-17 18 -17 36q0 4 1 8z" />
    <glyph glyph-name="uni0219" unicode="&#x219;" horiz-adv-x="462" 
d="M36 157q3 1 5 1q13 0 25 -20q66 -103 164 -103q37 0 61 17.5t27 41.5q1 6 1 12q0 26 -25.5 48.5t-88.5 50.5q-71 30 -104 63.5t-33 74.5q0 11 2 23q10 62 68 93t128 31q119 0 138 -49q12 -29 17 -49q3 -13 3 -21q0 -4 -1.5 -9t-11.5 -9q-2 -1 -4.5 -1t-5 0.5t-4.5 1.5
t-5 3.5t-5.5 4.5t-6.5 6t-7.5 7t-8.5 9l-10 9q-53 53 -114 53q-34 0 -58.5 -17t-28.5 -41q-1 -7 -1 -13q0 -25 22.5 -44.5t92.5 -49.5q75 -32 109 -65.5t34 -72.5q0 -10 -2 -20q-11 -58 -65 -95.5t-135 -37.5q-152 0 -166 47q-15 52 -21 93v6q0 17 15 21zM148 -229
q20 23 20 42q0 11 -17.5 33.5t-17.5 43.5q0 27 17 42.5t38 15.5q25 0 40.5 -17t15.5 -43q0 -59 -38.5 -107t-66.5 -48q-12 0 -12 9q0 6 21 29z" />
    <glyph glyph-name="uni021A" unicode="&#x21a;" horiz-adv-x="641" 
d="M82 558q11 64 29 107q7 20 23.5 27.5t61.5 7.5l377 1q45 0 59.5 -7.5t17.5 -27.5q3 -18 3 -40q0 -30 -5 -67q-4 -34 -25 -34q-17 0 -32 39q-12 30 -17.5 41.5t-18 26.5t-30 19.5t-46.5 4.5q-30 0 -43.5 -11.5t-17.5 -38.5l-67 -478q-2 -10 -2 -31q1 -19 8.5 -31t16 -16.5
t14 -11t5.5 -14.5v-3q-3 -20 -52 -20h-111q-25 0 -36 4.5t-11 13.5v2q2 10 10.5 17t19 11.5t21.5 16.5t16 31q6 14 9 31l66 477q1 7 1 14q0 16 -9 26t-38 10q-38 0 -63 -12t-37.5 -26.5t-38.5 -52.5q-26 -40 -42 -40q-17 0 -17 21q0 6 1 13zM253 -229q20 23 20 42
q0 11 -17.5 33.5t-17.5 43.5q0 27 17 42.5t38 15.5q25 0 40.5 -17t15.5 -43q0 -59 -38.5 -107t-66.5 -48q-12 0 -12 9q0 6 21 29z" />
    <glyph glyph-name="uni021B" unicode="&#x21b;" horiz-adv-x="353" 
d="M38 425q6 22 33 27l47 7l16 96q3 18 21 21l44 9q4 1 7 1q6 0 10.5 -4t4.5 -14v-3l-14 -93l104 14q10 2 16 2q11 0 15 -4t4 -12q0 -6 -2 -14q-4 -17 -11.5 -25t-13 -9.5t-24.5 -3.5l-97 -10q-35 -236 -36 -284v-8q0 -60 46 -60q35 0 71 41q6 8 12 8q2 0 6.5 -2t4.5 -14
q0 -31 -38.5 -66t-91.5 -35q-103 0 -103 104v8q2 66 40 300l-44 -5h-8q-12 0 -16.5 4t-4.5 12q0 5 2 12zM137 -229q20 23 20 42q0 11 -17.5 33.5t-17.5 43.5q0 27 17 42.5t38 15.5q25 0 40.5 -17t15.5 -43q0 -59 -38.5 -107t-66.5 -48q-12 0 -12 9q0 6 21 29z" />
    <glyph glyph-name="uni0237" unicode="&#x237;" horiz-adv-x="280" 
d="M-44 -170q1 1 2 1q49 13 68.5 43.5t29.5 101.5l56 383q1 7 1 14q0 26 -17 37q-19 11 -19 21q0 9 11 18t45 21q46 17 68 17q20 0 20 -18v-5l-80 -529q-21 -146 -147 -146q-53 0 -59 20q-1 2 -1 5q0 11 22 16z" />
    <glyph glyph-name="circumflex" unicode="&#x2c6;" horiz-adv-x="500" 
d="M127 535q-13 1 -11 14q3 13 54 69q35 41 48 51t35 10q5 0 9 -0.5t7.5 -1t6.5 -2t5.5 -2.5t5 -4.5t4.5 -5.5t5 -7.5t5 -9t6 -11.5t7 -13q37 -70 37 -73q-2 -13 -15 -14q-18 -1 -46.5 19.5t-48.5 45.5q-28 -25 -62 -45.5t-52 -19.5z" />
    <glyph glyph-name="caron" unicode="&#x2c7;" horiz-adv-x="500" 
d="M229 514q-21 0 -31 10t-34 51q-35 57 -35 69q2 13 15 14q18 1 46 -19t49 -45q29 25 62.5 45t51.5 19q13 -1 11 -14q-1 -5 -58 -73q-36 -44 -45 -50q-11 -7 -32 -7z" />
    <glyph glyph-name="breve" unicode="&#x2d8;" horiz-adv-x="500" 
d="M224 537q-57 0 -84 32.5t-23 79.5q2 22 16 22q7 0 14 -11q27 -53 87 -53t104 53q11 11 16 11q14 0 9 -22q-9 -47 -47 -79.5t-92 -32.5z" />
    <glyph glyph-name="dotaccent" unicode="&#x2d9;" horiz-adv-x="500" 
d="M242 591q-21 2 -33.5 15.5t-11.5 34.5q2 28 30 52.5t57 20.5q20 -1 33 -16.5t12 -34.5q-2 -27 -30 -50t-57 -22z" />
    <glyph glyph-name="ring" unicode="&#x2da;" horiz-adv-x="500" 
d="M224 512q-42 0 -65.5 25t-17.5 65q6 41 38 67t74 26q41 0 64.5 -24.5t18.5 -65.5q-7 -42 -38.5 -67.5t-73.5 -25.5zM234 551q23 0 38 16.5t17 39.5q0 22 -12 36.5t-33 14.5q-24 0 -39.5 -15.5t-17.5 -39.5q0 -23 13 -37.5t34 -14.5z" />
    <glyph glyph-name="ogonek" unicode="&#x2db;" horiz-adv-x="500" 
d="M240 -193q-41 0 -69 21t-28 58q0 58 90 114h30q-57 -54 -57 -102q0 -25 15 -39.5t43 -14.5q19 0 41 9q14 6 18.5 -2t-4.5 -16q-29 -28 -79 -28z" />
    <glyph glyph-name="tilde" unicode="&#x2dc;" horiz-adv-x="500" 
d="M301 541q-24 0 -77.5 21t-78.5 21q-36 0 -39 -29q-3 -17 -14 -11q-16 8 -12 38q4 27 24.5 43.5t52.5 16.5q36 0 90.5 -21t68.5 -21q33 0 38 29q2 16 12 12q16 -6 13 -35v-3q-4 -27 -25 -44t-53 -17z" />
    <glyph glyph-name="hungarumlaut" unicode="&#x2dd;" horiz-adv-x="500" 
d="M112 539q-15 0 -15 12q0 9 35 79q14 23 21 34t18 20t22 9q15 0 26.5 -11t11.5 -29q0 -30 -44 -72t-75 -42zM257 538q-9 0 -13 4t-3 9q0 11 39 77q16 24 22.5 33t18 18t22.5 9q15 0 26 -11t11 -29q0 -29 -45.5 -69.5t-77.5 -40.5z" />
    <glyph glyph-name="gravecomb" unicode="&#x300;" 
d="M-293 655q7 15 24 21q5 2 11 2q8 0 20 -4.5t21.5 -12t34.5 -27.5q62 -58 67 -70q1 -3 1 -5q0 -9 -12 -13q-10 -4 -22 -4q-29 0 -81.5 23.5t-63.5 54.5q-3 9 -4 18q1 9 4 17z" />
    <glyph glyph-name="acutecomb" unicode="&#x301;" 
d="M-364 564q6 13 68 70q20 17 28.5 23.5t22 13.5t23.5 7q22 0 30.5 -14t8.5 -26q0 -9 -3 -18q-11 -31 -63.5 -54.5t-81.5 -23.5q-12 0 -22 4q-12 4 -12 13q0 2 1 5z" />
    <glyph glyph-name="uni0302" unicode="&#x302;" 
d="M-384 553q3 11 55 69q34 40 47 50.5t35 10.5q5 0 9 -0.5t7.5 -1t6.5 -2t5.5 -2.5t5 -4.5t4.5 -5.5t5 -7.5t5 -9t6 -11.5t7 -13q37 -70 37 -73q-2 -13 -14 -14h-2q-18 0 -46 20t-48 45q-28 -25 -60.5 -45t-50.5 -20h-2q-12 1 -12 11v3z" />
    <glyph glyph-name="tildecomb" unicode="&#x303;" 
d="M-420 581q4 27 24.5 43.5t52.5 16.5q36 0 90.5 -21t68.5 -21q33 0 38 29q2 13 8 13q2 0 4 -1q13 -5 13 -26v-9v-3q-4 -27 -25 -44t-53 -17q-24 0 -77.5 21t-78.5 21q-36 0 -39 -29q-2 -13 -9 -13q-2 0 -5 2q-13 6 -13 27q0 5 1 11z" />
    <glyph glyph-name="uni0304" unicode="&#x304;" 
d="M-412 580q4 15 10 20t25 5h228q19 0 22 -4t3 -8q0 -5 -3 -12q-4 -16 -10 -21t-26 -5h-227q-19 0 -22 4t-3 8q0 5 3 13z" />
    <glyph glyph-name="uni0306" unicode="&#x306;" 
d="M-383 649q2 22 16 22q7 0 14 -11q27 -53 87 -53t104 53q11 11 16 11q10 0 10 -12q0 -4 -1 -10q-9 -47 -47 -79.5t-92 -32.5q-57 0 -82.5 30.5t-25.5 69.5q0 6 1 12z" />
    <glyph glyph-name="uni0307" unicode="&#x307;" 
d="M-286 615q2 28 28 51t51 23q4 0 8 -1q20 -1 32.5 -16.5t12.5 -32.5v-3q-2 -27 -29 -49t-53 -22h-5q-21 2 -33 15t-12 32v3z" />
    <glyph glyph-name="uni0308" unicode="&#x308;" 
d="M-379 652q18 19 42 19q21 0 34 -13t13 -33q0 -23 -19 -40t-44 -17q-18 0 -30.5 11.5t-12.5 29.5q0 23 17 43zM-234 652q18 19 42 19q20 0 33.5 -13t13.5 -33q0 -23 -19 -40t-44 -17q-18 0 -30.5 11.5t-12.5 29.5q0 23 17 43z" />
    <glyph glyph-name="uni030A" unicode="&#x30a;" 
d="M-356 622q6 41 38 67t74 26q41 0 62 -22t21 -52q0 -8 -1 -16q-6 -42 -38 -67q-31 -26 -73 -26t-63 22.5t-21 51.5q0 8 1 16zM-310 623q0 -23 13 -37.5t34 -14.5q22 0 37.5 16.5t17.5 39.5q0 22 -12 36.5t-33 14.5q-24 0 -39.5 -15.5t-17.5 -39.5z" />
    <glyph glyph-name="uni030B" unicode="&#x30b;" 
d="M-259 551q0 11 39 77q16 24 22.5 33t18 18t22.5 9q15 0 26 -11t11 -29q0 -29 -45.5 -69.5t-77.5 -40.5q-9 0 -12.5 3.5t-3.5 7.5v2zM-403 551q0 9 35 79q14 23 21 34t18 20t22 9q15 0 26.5 -11t11.5 -29q0 -30 -44 -72t-75 -42q-15 0 -15 12z" />
    <glyph glyph-name="uni030C" unicode="&#x30c;" 
d="M-365 686q2 13 15 14h2q17 0 44.5 -19.5t48.5 -44.5q29 25 61.5 44.5t50.5 19.5h2q11 -1 11 -11v-3q-1 -4 -8.5 -13.5t-23.5 -28t-26 -31.5q-5 -5 -12 -14t-10 -12.5t-8 -9.5t-7.5 -7.5t-6.5 -5t-7 -4.5l-8 -2q-4 -2 -8 -2h-10q-21 0 -31.5 10t-33.5 51q-35 57 -35 69z
" />
    <glyph glyph-name="uni0312" unicode="&#x312;" 
d="M-321 593q7 55 50 98q20 19 34 19q3 0 6 -1q4 -2 4 -4q0 -3 -4 -7q-22 -22 -25 -42v-4q0 -14 19 -30q24 -17 24 -40q0 -4 -1 -7q-3 -22 -20 -36.5t-39 -14.5q-26 0 -37.5 15t-11.5 37q0 8 1 17z" />
    <glyph glyph-name="uni0326" unicode="&#x326;" 
d="M-403 -258q0 6 20.5 29t20.5 42q0 11 -17.5 33.5t-17.5 43.5q0 27 17 42.5t38 15.5q25 0 40.5 -17t15.5 -43q0 -59 -38.5 -107t-66.5 -48q-12 0 -12 9z" />
    <glyph glyph-name="uni0327" unicode="&#x327;" 
d="M-333 -164q4 4 8 4t9 -3q30 -17 54 -17q22 0 34 12t12 30q0 38 -68 54q-14 3 -14 11q0 3 2 6l36 67h36l-28 -53q93 -16 93 -79q0 -35 -27 -57t-65 -22q-55 0 -81 32q-4 4 -4 8t3 7z" />
    <glyph glyph-name="uni0328" unicode="&#x328;" 
d="M-267 0h30q-57 -54 -57 -102q0 -25 15 -39.5t43 -14.5q19 0 41 9q6 3 10 3q6 0 8 -4t2 -6q0 -6 -6 -11q-29 -28 -79 -28q-41 0 -69 21t-28 58q0 58 90 114z" />
    <glyph glyph-name="uni0335" unicode="&#x335;" 
d="M-656 362q0 20 19 20h189q19 0 19 -20q0 -21 -19 -21h-189q-19 0 -19 21z" />
    <glyph glyph-name="uni0336" unicode="&#x336;" 
d="M-749 540h672q19 0 19 -19v-5q0 -20 -19 -20h-672q-19 0 -19 20v5q0 19 19 19z" />
    <glyph glyph-name="uni0337" unicode="&#x337;" 
d="M-543 305l223 128q6 4 12 4q9 0 15 -12q4 -7 4 -12q0 -10 -11 -16l-223 -129q-6 -3 -10 -3q-10 0 -16 13q-5 6 -5 12q0 8 11 15z" />
    <glyph glyph-name="uni0338" unicode="&#x338;" 
d="M-609 10q0 4 6 14l382 663q9 15 24 15q18 0 18 -14q0 -6 -5 -16l-378 -657q-12 -21 -29 -21q-18 0 -18 16z" />
    <glyph glyph-name="uni0401" unicode="&#x401;" horiz-adv-x="623" 
d="M24 20q2 10 9 15.5t16.5 10t19.5 12.5t19 28t13 51l59 426q2 17 2 31q0 17 -4.5 34t-15 22t-17.5 11t-7 14v5q1 13 12.5 16.5t39.5 3.5l373 1q42 0 53 -5.5t15 -25.5q10 -47 10 -97v-9v-6q0 -26 -16 -31q-4 -1 -7 -1q-8 0 -14.5 6.5t-15.5 27.5q-19 49 -51 72t-90 23h-47
q-71 0 -94.5 -10t-26.5 -36l-16 -119q-1 -7 -1 -13q0 -22 16.5 -29t75.5 -7q36 0 60 5t31.5 11t15.5 11t17 5q19 0 22 -32l7 -85q1 -12 1 -21q0 -11 -2.5 -18.5t-14.5 -10.5q-3 -1 -5 -1q-7 0 -14 7t-15.5 21t-19.5 28t-34 24.5t-55 10.5q-31 0 -45.5 -1t-30 -5.5
t-21.5 -14.5t-9 -28l-36 -253q-1 -5 -1 -9q0 -21 17.5 -30.5t79.5 -9.5h12l77 1q61 0 88 19.5t57 71.5q23 39 42 39h3q11 -2 11 -20q0 -6 -1 -14q-14 -67 -31 -107q-7 -20 -23.5 -27.5t-62.5 -7.5h-383q-28 0 -37.5 3.5t-9.5 14.5v2zM418 859q18 19 41 19q21 0 34.5 -13
t13.5 -33q0 -23 -19.5 -39.5t-43.5 -16.5q-19 0 -31.5 11t-12.5 29q0 23 18 43zM274 859q17 19 41 19q20 0 33.5 -13t13.5 -33q0 -23 -19 -39.5t-44 -16.5q-19 0 -31 11t-12 29q0 23 18 43z" />
    <glyph glyph-name="uni0404" unicode="&#x404;" horiz-adv-x="667" 
d="M335 -10q-146 0 -223 103.5t-56 258.5q23 159 135.5 258.5t272.5 99.5q38 0 75.5 -7t47.5 -7q12 0 25 6t20 6q15 0 21.5 -11t9.5 -42q7 -67 8 -129q-2 -35 -20 -35q-10 0 -15.5 7.5t-16.5 27.5q-14 25 -18.5 31.5t-19.5 28t-27 30t-31.5 21t-43.5 17t-53 4.5
q-106 0 -176 -77.5t-89 -192.5q40 -24 79 -24q32 0 90 27.5t83 27.5q44 0 96 -34t50 -56q-3 -19 -26 -19q-9 0 -44.5 20.5t-58.5 20.5q-24 0 -73 -25t-81 -25q-55 0 -120 38q-8 -123 55.5 -199t172.5 -76t204 74q22 15 29 0q6 -13 -10 -34q-31 -41 -104.5 -77.5
t-167.5 -36.5z" />
    <glyph glyph-name="uni0406" unicode="&#x406;" horiz-adv-x="324" 
d="M24 21q2 10 10.5 17t19 11.5t21.5 16.5t16 31q6 14 9 31l61 444q2 11 2 31q-1 19 -8.5 31.5t-16 16.5t-13.5 10t-5 13v5q1 20 51 20h111q26 0 36.5 -4t10.5 -14v-2q-2 -10 -10.5 -17t-19 -11.5t-21.5 -16.5t-16 -31q-4 -11 -8 -31l-62 -444q-2 -10 -2 -31q1 -19 8.5 -31
t16 -16.5t14 -11t5.5 -14.5v-3q-3 -20 -52 -20h-111q-25 0 -36 4.5t-11 13.5v2z" />
    <glyph glyph-name="uni0407" unicode="&#x407;" horiz-adv-x="295" 
d="M-5 21q2 10 10.5 17t19 11.5t22 16.5t16.5 31q4 9 8 31l61 444q3 16 3 31q-1 24 -13.5 36.5t-21.5 19.5t-9 16v4q1 20 52 20h110q26 0 36.5 -4t10.5 -14v-2q-1 -10 -10 -17t-19.5 -11.5t-21.5 -16.5t-16 -31q-4 -11 -8 -31l-62 -444q-2 -10 -2 -31q1 -19 8.5 -31
t16 -16.5t14 -11t5.5 -14.5v-3q-3 -20 -52 -20h-110q-26 0 -37 4.5t-11 13.5v2zM237 816q4 23 24 42.5t44 19.5q20 0 30.5 -12t10.5 -28v-6q-4 -23 -25.5 -39.5t-45.5 -16.5q-19 0 -29 10t-10 23q0 3 1 7zM92 816q4 23 24 42.5t44 19.5q21 0 31 -12t10 -28v-6
q-4 -23 -25.5 -39.5t-45.5 -16.5q-19 0 -28.5 10t-9.5 24v6z" />
    <glyph glyph-name="uni0410" unicode="&#x410;" horiz-adv-x="686" 
d="M-27 19q2 11 11.5 18t22 12t30.5 23t33 46l256 481q8 19 8 29q0 6 -4.5 12t-15.5 16t-11 20v3q2 21 30 21h92q19 0 23 -18l143 -564q7 -27 18.5 -44.5t21 -23t15 -11.5t5.5 -14v-3q-4 -22 -51 -22h-117q-39 0 -39 17v2q2 10 12 18.5t20 14.5t14 18t4 22q0 12 -4 27
l-16 63q-5 19 -16 23q-15 6 -135 6q-115 0 -136 -3.5t-32 -26.5l-33 -63q-16 -36 -16 -50q0 -3 2 -9.5t13.5 -16.5t11.5 -19v-2q-4 -21 -40 -21h-81q-39 0 -39 17v2zM206 259q13 -5 123 -5q109 0 118 6q4 2 4 9q0 5 -2 11l-78 310l-165 -313q-4 -7 -4 -12q0 -4 4 -6z" />
    <glyph glyph-name="uni0411" unicode="&#x411;" horiz-adv-x="657" 
d="M268 0h-196q-51 0 -48 20q2 10 10.5 17t19 11.5t22 16.5t16.5 31q5 11 9 41l59 426q4 27 4 41q0 19 -8 31t-17 16.5t-16 11.5t-5 17q3 20 52 20l366 1q41 0 53.5 -7t15.5 -28q6 -54 -1 -116q-4 -35 -20 -35q-20 0 -32 40q-15 52 -39.5 76t-79.5 24h-53q-71 0 -94.5 -10
t-26.5 -36l-16 -115q-2 -10 3 -15.5t16 -4.5q8 1 29 1q164 0 246 -69t66 -182q-15 -106 -101 -165t-234 -59zM272 45q205 0 228 161q13 98 -50 161t-170 65q-27 1 -37.5 -5t-12.5 -22l-46 -331q-2 -10 3 -16t25.5 -9.5t59.5 -3.5z" />
    <glyph glyph-name="uni0412" unicode="&#x412;" horiz-adv-x="643" 
d="M24 20q2 10 10.5 17t19 11.5t22 16.5t16.5 31q5 11 9 41l59 426q4 27 4 41q0 19 -8 31t-17 16.5t-15 10.5t-6 14v4q3 20 52 20h162q116 0 168.5 -36.5t52.5 -95.5q0 -11 -2 -22q-6 -49 -41 -83.5t-99 -45.5q93 -14 138.5 -61.5t45.5 -107.5q0 -13 -2 -27
q-31 -221 -339 -221h-182q-48 0 -48 18v2zM197 61q13 -16 61 -16q105 0 161.5 38t68.5 122q2 16 2 31q0 64 -48 109.5t-156 45.5q-37 0 -48 -8.5t-14 -30.5l-35 -237q-2 -12 -2 -21q0 -22 10 -33zM240 446q3 -4 14 -6t17 -2h22q80 0 117 23.5t44 73.5q1 9 1 18
q0 42 -31.5 72t-96.5 30q-34 0 -48.5 -7.5t-18.5 -32.5l-22 -157v-4q0 -5 2 -8z" />
    <glyph glyph-name="uni0413" unicode="&#x413;" horiz-adv-x="576" 
d="M182 1h-110q-26 0 -37.5 4.5t-10.5 15.5q2 10 10.5 17t19 11.5t22 16.5t16.5 31q7 16 8 31l60 435q4 27 4 41q0 19 -8 31t-17 16.5t-16 11.5t-5 17q3 20 52 20l357 1q42 0 54.5 -7t14.5 -28q6 -54 -1 -116q-3 -35 -20 -35q-20 0 -32 40q-15 52 -39.5 76t-79.5 24h-44
q-71 0 -94.5 -10t-26.5 -36l-67 -481q-2 -20 -2 -31q1 -19 8.5 -31t16 -16.5t14.5 -11.5t5 -17q-3 -20 -52 -20z" />
    <glyph glyph-name="uni0414" unicode="&#x414;" horiz-adv-x="695" 
d="M-54 -123q-23 0 -15 34q11 61 27 99q8 19 21 27t44 8t49 29q123 203 165 504q4 25 -3 42t-17 23t-18 14.5t-6 18.5q2 14 13.5 19t45.5 5h389q50 0 47 -20q-1 -10 -10 -17t-19 -11.5t-21.5 -16.5t-16.5 -31q-5 -11 -9 -41l-67 -477q-4 -27 0.5 -33.5t24.5 -6.5
q44 0 57.5 -8t16.5 -27q6 -41 0 -99q-6 -34 -26 -34q-19 0 -33 39q-32 83 -113 83l-344 -1q-82 0 -137 -83q-25 -39 -45 -39zM118 45l329 1l79 563q3 26 -16.5 36t-85.5 10q-59 0 -87.5 -10t-35.5 -41q-47 -203 -81.5 -311t-101.5 -248z" />
    <glyph glyph-name="uni0415" unicode="&#x415;" horiz-adv-x="623" 
d="M24 20q2 10 9 15.5t16.5 10t19.5 12.5t19 28t13 51l59 426q2 17 2 31q0 17 -4.5 34t-15 22t-17.5 11t-7 14v5q1 13 12.5 16.5t39.5 3.5l373 1q42 0 53 -5.5t15 -25.5q10 -47 10 -97v-9v-6q0 -26 -16 -31q-4 -1 -7 -1q-8 0 -14.5 6.5t-15.5 27.5q-19 49 -51 72t-90 23h-47
q-71 0 -94.5 -10t-26.5 -36l-16 -119q-1 -7 -1 -13q0 -22 16.5 -29t75.5 -7q36 0 60 5t31.5 11t15.5 11t17 5q19 0 22 -32l7 -85q1 -12 1 -21q0 -11 -2.5 -18.5t-14.5 -10.5q-3 -1 -5 -1q-7 0 -14 7t-15.5 21t-19.5 28t-34 24.5t-55 10.5q-31 0 -45.5 -1t-30 -5.5
t-21.5 -14.5t-9 -28l-36 -253q-1 -5 -1 -9q0 -21 17.5 -30.5t79.5 -9.5h12l77 1q61 0 88 19.5t57 71.5q23 39 42 39h3q11 -2 11 -20q0 -6 -1 -14q-14 -67 -31 -107q-7 -20 -23.5 -27.5t-62.5 -7.5h-383q-28 0 -37.5 3.5t-9.5 14.5v2z" />
    <glyph glyph-name="uni0416" unicode="&#x416;" horiz-adv-x="1075" 
d="M161 0h-146q-14 0 -22 5t-7 13q2 8 12 15.5t23.5 13t32 21t32.5 37.5l230 358l-94 132q-15 21 -32 36t-28 21t-17.5 13.5t-5.5 17.5q1 17 46 17h90q18 0 26 -4t7 -14q-1 -8 -11 -16t-18 -14t-7.5 -21t15.5 -36l206 -295l40 280q3 26 -1.5 44t-12 25.5t-13.5 15.5t-5 17
q1 18 46 18h98q24 0 33 -4t8 -14t-14 -20.5t-27.5 -29.5t-19.5 -52l-40 -282l291 297q21 21 26 36t-1.5 21t-13.5 14t-6 16q1 18 37 18h90q25 0 34 -4t8 -13q-2 -12 -14.5 -20t-40.5 -25t-54 -43l-122 -125l131 -365q8 -22 22 -37.5t26 -21.5t20 -12.5t7 -15.5
q-3 -18 -34 -18h-145q-29 0 -27 17q1 10 14 22.5t18 23.5t-3 44l-101 291l-172 -175l-14 -103q-4 -26 1 -44t12.5 -25.5t13.5 -16t5 -16.5q-3 -18 -46 -18h-98q-25 0 -34 4t-8 14t14.5 20.5t28 29.5t19.5 52l14 105l-116 166l-179 -284q-17 -33 -15 -44t11 -23.5t8 -22.5
q-2 -17 -31 -17z" />
    <glyph glyph-name="uni0417" unicode="&#x417;" horiz-adv-x="562" 
d="M208 -8q-68 2 -108 13q-32 8 -49.5 23t-19.5 44q-5 69 -3 95q1 14 7.5 22.5t17.5 7.5q9 -1 14.5 -8.5t12.5 -27.5q39 -122 155 -122q67 0 116 39.5t59 107.5q11 78 -33 124.5t-156 50.5q-16 0 -21 11.5t3 23t24 12.5q93 9 139.5 44.5t54.5 100.5q7 53 -19 81t-74 28
q-30 0 -55.5 -9.5t-49 -31.5t-33.5 -34.5t-32 -41.5q-25 -33 -43 -33q-19 0 -11 34q9 52 31 109q12 32 21 42.5t24 10.5q7 0 19 -5.5t24 -5.5q10 0 49 5.5t78 5.5q47 0 86 -13.5t65.5 -49t19.5 -88.5q-7 -63 -54.5 -109.5t-113.5 -60.5q91 -14 130.5 -64.5t29.5 -121.5
q-14 -103 -100 -157t-205 -52z" />
    <glyph glyph-name="uni0418" unicode="&#x418;" horiz-adv-x="818" 
d="M24 20q2 12 13 21t23 15.5t24 25t16 46.5l61 444q2 12 2 23q0 16 -5 31t-15 20t-16.5 12t-6.5 16v5q1 20 51 20h111q26 0 36.5 -4t10.5 -14v-2q-2 -11 -12.5 -19t-22.5 -13.5t-24 -24.5t-16 -50l-54 -381l456 396q1 7 1 14q0 20 -10.5 34t-22 22.5t-11.5 18.5v3
q1 20 52 20h110q27 0 37 -4t10 -14v-2q-2 -11 -12 -19t-22 -14.5t-24.5 -25t-16.5 -48.5l-62 -444q-2 -12 -2 -22q0 -17 5.5 -32t15.5 -20t16.5 -12t6.5 -16v-5q-1 -20 -52 -20h-110q-25 0 -36 4.5t-11 13.5v2q2 11 12.5 20t22.5 16t24 25.5t16 45.5l55 394l-457 -396
q-2 -12 -2 -22q0 -16 5.5 -31t15.5 -20t17 -12t7 -16v-5q-3 -20 -52 -20h-111q-25 0 -36 4.5t-11 13.5v2z" />
    <glyph glyph-name="uni0419" unicode="&#x419;" horiz-adv-x="818" 
d="M24 20q2 12 13 21t23 15.5t24 25t16 46.5l61 444q2 12 2 23q0 16 -5 31t-15 20t-16.5 12t-6.5 16v5q1 20 51 20h111q26 0 36.5 -4t10.5 -14v-2q-2 -11 -12.5 -19t-22.5 -13.5t-24 -24.5t-16 -50l-54 -381l456 396q1 7 1 14q0 20 -10.5 34t-22 22.5t-11.5 18.5v3
q1 20 52 20h110q27 0 37 -4t10 -14v-2q-2 -11 -12 -19t-22 -14.5t-24.5 -25t-16.5 -48.5l-62 -444q-2 -12 -2 -22q0 -17 5.5 -32t15.5 -20t16.5 -12t6.5 -16v-5q-1 -20 -52 -20h-110q-25 0 -36 4.5t-11 13.5v2q2 11 12.5 20t22.5 16t24 25.5t16 45.5l55 394l-457 -396
q-2 -12 -2 -22q0 -16 5.5 -31t15.5 -20t17 -12t7 -16v-5q-3 -20 -52 -20h-111q-25 0 -36 4.5t-11 13.5v2zM345 859q2 14 13 24t26 10q18 0 29 -15.5t16 -34.5t19 -34.5t37 -15.5t41 15.5t28.5 34.5t26 34.5t33.5 15.5q14 0 21 -9t7 -20v-5q-7 -45 -54 -75t-109 -30
q-63 0 -99 28t-36 65q0 6 1 12z" />
    <glyph glyph-name="uni041A" unicode="&#x41a;" horiz-adv-x="678" 
d="M24 21q2 12 12.5 21t22.5 15.5t24 24.5t16 46l62 444q2 12 2 22q0 16 -5.5 31t-15.5 20t-16.5 12.5t-6.5 16.5v5q1 12 12.5 16t39.5 4h110q26 0 36.5 -4.5t10.5 -13.5v-2q-2 -12 -12.5 -21t-22.5 -15.5t-24 -24.5t-16 -46l-31 -221l304 249q22 19 24.5 27t2.5 11
q0 6 -5.5 10t-13 11t-7.5 16v4q3 21 37 21h102q47 0 47 -18v-2q-2 -15 -14.5 -21t-43 -19.5t-61.5 -39.5l-107 -88l125 -404q7 -24 19.5 -39t23 -20t16.5 -11t6 -15v-3q-4 -20 -42 -20h-109q-26 0 -36.5 4.5t-10.5 14.5v4q1 9 14 20t17.5 19t4.5 18q0 11 -4 29l-100 342
l-198 -164l-22 -159q-2 -12 -2 -23q0 -15 5 -30t15 -20t17.5 -13t7.5 -18v-3q-4 -20 -53 -20h-110q-26 0 -36.5 4.5t-10.5 13.5v2z" />
    <glyph glyph-name="uni041B" unicode="&#x41b;" horiz-adv-x="710" 
d="M51 -10q-37 0 -62.5 22t-19.5 62q5 29 22 44t38 15q19 0 28 -15t17 -30t24 -15q49 0 98 144t79 361q4 25 -2.5 43.5t-16 26t-17 16.5t-6.5 18q1 18 58 18h369q23 0 35 -2t15.5 -6t2.5 -10q-1 -9 -11 -17.5t-21.5 -16t-22.5 -25.5t-15 -43l-63 -452q-2 -10 -2 -31
q1 -19 9 -31t16.5 -16.5t14.5 -11.5t4 -17q-1 -20 -52 -20h-110q-25 0 -36.5 4.5t-10.5 15.5q1 10 10 17t19 11.5t21.5 16.5t16.5 31q4 9 8 31l68 481q2 25 -17.5 35.5t-80.5 10.5q-64 0 -92 -10t-34 -41q-5 -25 -19.5 -97t-20.5 -102t-19.5 -89.5t-24 -90.5t-25.5 -72.5
t-31 -68.5t-35 -47q-43 -47 -106 -47z" />
    <glyph glyph-name="uni041C" unicode="&#x41c;" horiz-adv-x="902" 
d="M24 21q1 11 10.5 18.5t21 13t23.5 23t17 44.5l83 466q2 10 2 19q0 11 -4 24t-12.5 20t-14.5 14.5t-6 15.5v2q3 19 41 19h80q19 0 26 -19l143 -520l310 520q10 19 30 19h75q21 0 28.5 -4t7.5 -13v-2q-2 -9 -11 -17t-19 -13.5t-19.5 -22t-12.5 -42.5l-49 -460q-1 -9 -1 -17
q0 -17 5.5 -31.5t14.5 -20.5t16 -14t7 -18v-3q-4 -22 -48 -22h-109q-26 0 -36 4.5t-10 13.5v4q1 11 11 19.5t22 15t23 24.5t14 45l51 450l-307 -511q-10 -16 -29 -21q-7 -2 -13 -2q-15 0 -19 13l-141 516l-80 -451q-2 -13 -2 -25q0 -11 3.5 -24t12.5 -18.5t15 -12.5t6 -15
v-4q-2 -12 -13 -16.5t-35 -4.5h-67q-23 0 -32 4t-9 13v4z" />
    <glyph glyph-name="uni041D" unicode="&#x41d;" horiz-adv-x="801" 
d="M24 20q2 12 15.5 20t29.5 20.5t22 35.5q6 14 9 31l61 446q2 20 2 31q-1 19 -8.5 31t-16 16.5t-13.5 10.5t-5 13v5q1 20 51 20h111q25 0 36 -4.5t11 -13.5v-2q-2 -10 -10.5 -17t-19 -11.5t-21.5 -16.5t-16 -31q-7 -16 -8 -31l-18 -130q-1 -9 -1 -16q0 -16 6 -21
q15 -11 127 -12h60q147 0 169 8q18 6 22 30q1 4 2 11l18 130q2 20 2 31q-1 19 -8.5 31t-16 16.5t-14 11t-5.5 14.5v3q1 20 52 20h110q26 0 36.5 -4.5t10.5 -13.5v-2q-1 -10 -10 -17t-19 -11.5t-21.5 -16.5t-16.5 -31q-7 -16 -8 -31l-62 -446q-2 -20 -2 -31q1 -19 8.5 -31
t16 -16.5t14 -11t5.5 -14.5v-3q-1 -20 -52 -20h-110q-26 0 -36.5 4.5t-10.5 13.5v2q1 10 10 17t19 11.5t21.5 16.5t16.5 31q7 16 8 31l24 174q1 9 1 16q0 16 -6 21q-15 12 -124 12h-52q-156 0 -180 -8q-19 -6 -23 -29l-25 -186q-2 -20 -2 -31q1 -19 8.5 -31t16 -16.5t14 -11
t5.5 -14.5v-3q-3 -20 -52 -20h-111q-25 0 -36 4.5t-11 13.5v2z" />
    <glyph glyph-name="uni041E" unicode="&#x41e;" horiz-adv-x="776" 
d="M170 586q118 122 287 122q137 0 216.5 -85.5t79.5 -207.5q0 -180 -112.5 -301t-275.5 -121h-16q-123 3 -210 86.5t-87 214.5q0 170 118 292zM215 114q62 -71 170 -71q82 0 144.5 53t93 133.5t30.5 172.5q0 118 -56.5 188t-155.5 70q-124 0 -206 -105.5t-82 -249.5
q0 -120 62 -191z" />
    <glyph glyph-name="uni041F" unicode="&#x41f;" horiz-adv-x="769" 
d="M182 1h-110q-26 0 -37.5 4.5t-10.5 15.5q2 10 10.5 17t19 11.5t22 16.5t16.5 31q4 9 8 31l60 435q4 27 4 41q0 19 -8 31t-17 16.5t-16 11.5t-5 17q3 20 52 20h558q26 0 37 -4.5t10 -15.5q-1 -10 -10 -17t-19 -11.5t-21.5 -16.5t-16.5 -31q-5 -11 -9 -41l-61 -435
q-2 -10 -2 -31q1 -19 8.5 -31t16 -16.5t14.5 -11.5t5 -17q-1 -20 -52 -20h-110q-26 0 -37 4.5t-10 15.5q1 10 10 17t19 11.5t21.5 16.5t16.5 31q4 9 8 31l67 481q2 18 -6.5 26.5t-45.5 13.5t-115 5q-82 0 -122.5 -5t-51.5 -13.5t-13 -26.5l-67 -481q-2 -10 -2 -31
q1 -19 8.5 -31t16 -16.5t14.5 -11.5t5 -17q-3 -20 -52 -20z" />
    <glyph glyph-name="uni0420" unicode="&#x420;" horiz-adv-x="641" 
d="M182 1h-110q-26 0 -37.5 4.5t-10.5 15.5q2 11 12.5 18.5t22.5 13t24 24.5t17 51l60 435q6 39 -0.5 60.5t-17 26t-18.5 11.5t-6 19q3 20 52 20h168q156 0 233 -70.5t62 -176.5q-15 -111 -100.5 -170.5t-234.5 -59.5h-73q-15 0 -18 -2.5t-5 -17.5q-2 -14 -5.5 -41t-4.5 -39
q-4 -28 2.5 -45.5t16 -23t17.5 -13.5t6 -20q-3 -20 -52 -20zM303 267q203 0 227 167q14 97 -41 159.5t-158 62.5q-41 0 -54 -5.5t-15 -21.5l-47 -333q-2 -10 3 -16t25.5 -9.5t59.5 -3.5z" />
    <glyph glyph-name="uni0421" unicode="&#x421;" horiz-adv-x="687" 
d="M56 355q22 158 141 256.5t282 98.5q38 0 75.5 -7t46.5 -7q12 0 25.5 6t20.5 6q15 0 21.5 -11t9.5 -42q7 -67 8 -129q0 -32 -20 -35h-1q-19 0 -38 35q-15 26 -22 37.5t-25.5 33t-36 31.5t-46.5 18.5t-64 8.5q-107 0 -182 -81.5t-92 -196.5q-4 -33 -4 -63
q0 -99 55.5 -180.5t176.5 -81.5q122 0 223 96q10 9 17 9q6 0 9.5 -5t3.5 -11q0 -11 -11 -25q-35 -45 -107.5 -85.5t-166.5 -40.5q-153 0 -228 94.5t-75 210.5q0 29 4 60z" />
    <glyph glyph-name="uni0422" unicode="&#x422;" horiz-adv-x="641" 
d="M82 558q11 64 29 107q7 20 23.5 27.5t61.5 7.5l377 1q45 0 59.5 -7.5t17.5 -27.5q3 -18 3 -40q0 -30 -5 -67q-4 -34 -25 -34q-17 0 -32 39q-12 30 -17.5 41.5t-18 26.5t-30 19.5t-46.5 4.5q-30 0 -43.5 -11.5t-17.5 -38.5l-67 -478q-2 -10 -2 -31q1 -19 8.5 -31t16 -16.5
t14 -11t5.5 -14.5v-3q-3 -20 -52 -20h-111q-25 0 -36 4.5t-11 13.5v2q2 10 10.5 17t19 11.5t21.5 16.5t16 31q6 14 9 31l66 477q1 7 1 14q0 16 -9 26t-38 10q-38 0 -63 -12t-37.5 -26.5t-38.5 -52.5q-26 -40 -42 -40q-17 0 -17 21q0 6 1 13z" />
    <glyph glyph-name="uni0423" unicode="&#x423;" horiz-adv-x="644" 
d="M68 682q1 18 37 18h121q25 0 33.5 -4t8.5 -12q0 -1 -0.5 -6.5t-16 -18.5t-20.5 -21.5t-5 -17.5q0 -13 6 -34l124 -311l181 307q18 36 18 50q0 2 -2 9t-13 16.5t-11 17.5v3q2 21 39 21h81q39 0 39 -17v-2q-2 -11 -11 -18t-21.5 -12t-31.5 -22.5t-35 -45.5l-243 -409
q-63 -107 -107 -145t-95 -38q-29 0 -51 15t-22 41q0 6 1 12q4 25 21.5 41.5t36.5 16.5q22 0 35 -23t30 -23q42 0 93 93q2 4 2 8t-1 7l-165 408q-11 27 -27 46.5t-22.5 28t-6.5 16.5v5z" />
    <glyph glyph-name="uni0424" unicode="&#x424;" horiz-adv-x="806" 
d="M423 0h-110q-26 0 -37 4.5t-10 15.5q2 12 12 18.5t21 11t23 23t17 50.5q1 6 -0.5 9t-6.5 2q-72 -3 -74 -3q-98 0 -153.5 63t-42.5 160q13 95 87.5 158t166.5 63q36 0 77 -3q10 -2 12 11q3 31 -4 48t-17 20.5t-17.5 10t-5.5 18.5q3 20 52 20h110q50 0 47 -20
q-2 -12 -11.5 -18.5t-20.5 -10.5t-23 -21.5t-18 -46.5q-2 -6 0 -9t7 -2q41 3 79 3q98 0 151.5 -63t40.5 -158q-14 -98 -88.5 -160.5t-169.5 -62.5q-28 0 -72 4q-10 1 -12 -11q-4 -34 2.5 -53t16.5 -22.5t18 -10t6 -18.5q-4 -20 -53 -20zM311 175q13 0 37 4l49 349
q-24 2 -35 2q-89 0 -139.5 -46t-62.5 -130q-11 -76 31 -127.5t120 -51.5zM480 175q79 0 132.5 50t64.5 129q12 84 -25.5 130t-126.5 46q-10 0 -36 -2l-49 -349q17 -4 40 -4z" />
    <glyph glyph-name="uni0425" unicode="&#x425;" horiz-adv-x="709" 
d="M-26 20q2 11 11.5 17.5t23 10.5t35 18t40.5 37l213 247l-145 238q-14 23 -31 39t-28 21.5t-17 12t-6 14.5v3q2 21 51 21h138q20 0 29.5 -4t9.5 -13v-2q-2 -10 -13 -18.5t-20 -14.5t-10.5 -14.5t-1.5 -10.5q0 -14 14 -34l112 -185l169 194q19 22 22.5 32t4.5 15
q-1 4 -4.5 7.5t-9 10t-5.5 13.5v3q2 21 39 21h81q20 0 29.5 -4t9.5 -13v-2q-2 -11 -11.5 -17.5t-23 -10.5t-35 -18t-41.5 -37l-201 -232l154 -253q14 -23 31 -39t28 -21.5t17 -11.5t6 -14v-4q-2 -21 -50 -21h-139q-19 0 -28.5 4t-9.5 13v2q2 10 13 18.5t20 14.5t10.5 14.5
t1.5 10.5q0 14 -14 34l-122 200l-180 -210q-19 -22 -22.5 -31.5t-3.5 -14.5q0 -4 3.5 -7.5t9 -10t5.5 -13.5v-3q-2 -21 -39 -21h-81q-20 0 -29.5 4t-9.5 13v2z" />
    <glyph glyph-name="uni0426" unicode="&#x426;" horiz-adv-x="772" 
d="M695 -122q-19 0 -33 39q-32 83 -113 83h-478q-50 0 -47 20q2 12 15.5 20t29.5 20.5t22 35.5q6 15 10 41l60 435q2 11 2 31q-1 19 -8.5 31.5t-16 16.5t-14.5 11t-4 17q1 20 51 20h111q26 0 37 -4t10 -16q-2 -10 -10.5 -17t-19 -11.5t-21.5 -16.5t-16 -31q-4 -11 -8 -31
l-68 -481q-2 -18 7 -26.5t47.5 -13.5t120.5 -5q78 0 116.5 5t49.5 13.5t13 26.5l68 481q2 11 2 31q-1 24 -13.5 36.5t-22.5 20t-8 19.5q1 20 52 20h110q26 0 37 -4t10 -16q-1 -10 -10 -17t-19 -11.5t-21.5 -16.5t-16.5 -31q-4 -11 -8 -31l-68 -486q-5 -40 32 -40
q32 0 43.5 -8t13.5 -27q6 -42 -1 -99q-4 -34 -25 -34z" />
    <glyph glyph-name="uni0427" unicode="&#x427;" horiz-adv-x="701" 
d="M558 1h-110q-25 0 -36.5 4.5t-10.5 15.5q1 10 10 17t19 11.5t21.5 16.5t16.5 31q4 9 8 31l20 141q-123 -20 -209 -20q-68 0 -112 19t-61.5 52t-22.5 77.5t5 94.5l11 79q3 14 1 31q0 19 -7.5 31t-16.5 16.5t-15 11.5t-5 17q4 20 53 20h110q26 0 37 -4.5t10 -15.5
q-2 -10 -10.5 -17t-18.5 -11.5t-21.5 -16.5t-16.5 -31q-4 -9 -8 -31l-9 -58q-8 -62 -8 -110.5t32.5 -78t101.5 -29.5q78 0 186 20l36 257q2 11 2 31q-1 19 -8.5 31.5t-16 16.5t-14.5 11t-5 17q2 20 52 20h110q27 0 37.5 -4t9.5 -16q-1 -10 -10 -17t-19 -11.5t-21.5 -16.5
t-16.5 -31q-4 -11 -8 -31l-62 -444q-2 -10 -2 -31q1 -19 9 -31t16.5 -16.5t14.5 -11.5t4 -17q-1 -20 -52 -20z" />
    <glyph glyph-name="uni0428" unicode="&#x428;" horiz-adv-x="1097" 
d="M956 0h-885q-50 0 -47 20q2 12 15.5 20t29.5 20.5t22 35.5q6 15 10 41l60 435q2 11 2 31q-1 19 -8.5 31.5t-16 16.5t-14.5 11t-4 17q1 20 51 20h111q26 0 37 -4t10 -16q-2 -10 -10.5 -17t-19 -11.5t-21.5 -16.5t-16 -31q-4 -11 -8 -31l-68 -481q-2 -18 5.5 -26.5
t40 -13.5t99.5 -5q92 0 119 9.5t30 35.5l68 481q2 11 2 31q-1 24 -13.5 36.5t-22.5 20t-8 19.5q1 20 52 20h110q26 0 37 -4t10 -16q-1 -10 -10 -17t-19 -11.5t-21.5 -16.5t-16.5 -31q-4 -11 -8 -31l-67 -481q-3 -18 5 -26.5t40 -13.5t99 -5q64 0 96 5t41.5 13.5t12.5 26.5
l67 481q2 11 2 31q-1 19 -8.5 31.5t-16 16.5t-14.5 11t-5 17q1 20 52 20h110q27 0 37.5 -4t9.5 -16q-1 -10 -10 -17t-19 -11.5t-21.5 -16.5t-16.5 -31q-4 -11 -8 -31l-61 -435q-3 -20 -3 -41q0 -19 8 -31t17 -16.5t15.5 -11.5t5.5 -17q-3 -20 -52 -20z" />
    <glyph glyph-name="uni0429" unicode="&#x429;" horiz-adv-x="1098" 
d="M1021 -122q-19 0 -33 39q-32 83 -113 83h-804q-50 0 -47 20q2 12 15.5 20t29.5 20.5t22 35.5q6 15 10 41l60 435q2 11 2 31q-1 19 -8.5 31.5t-16 16.5t-14.5 11t-4 17q1 20 51 20h111q26 0 37 -4t10 -16q-2 -10 -10.5 -17t-19 -11.5t-21.5 -16.5t-16 -31q-4 -11 -8 -31
l-68 -481q-2 -18 5.5 -26.5t40 -13.5t99.5 -5q92 0 119 9.5t30 35.5l68 481q2 11 2 31q-1 24 -13.5 36.5t-22.5 20t-8 19.5q1 20 52 20h110q26 0 37 -4t10 -16q-1 -10 -10 -17t-19 -11.5t-21.5 -16.5t-16.5 -31q-4 -11 -8 -31l-67 -481q-3 -18 5 -26.5t40 -13.5t99 -5
q64 0 96 5t41.5 13.5t12.5 26.5l67 481q2 11 2 31q-1 19 -8.5 31.5t-16 16.5t-14.5 11t-5 17q1 20 52 20h110q27 0 37.5 -4t9.5 -16q-1 -10 -10 -17t-19 -11.5t-21.5 -16.5t-16.5 -31q-4 -11 -8 -31l-68 -486q-5 -40 32 -40q32 0 43.5 -8t13.5 -27q6 -41 0 -99
q-4 -34 -26 -34z" />
    <glyph glyph-name="uni042A" unicode="&#x42a;" horiz-adv-x="716" 
d="M366 0h-196q-25 0 -36 5t-10 17q1 10 10 17t19 11.5t21.5 16.5t16.5 31q4 14 8 41l65 457q3 21 0 34t-12 18t-15 6t-18 1q-47 0 -75.5 -28t-62.5 -87q-13 -23 -21 -31t-18 -8q-18 0 -13 34q14 76 35 130q8 21 23 28t60 7h233q51 0 48 -20q-2 -10 -10.5 -17t-19 -11.5
t-22 -16.5t-16.5 -31q-5 -11 -9 -41l-10 -69q-2 -10 3 -15.5t16 -4.5q9 1 30 1q164 0 245.5 -69t65.5 -182q-14 -106 -100 -165t-235 -59zM371 45q205 0 228 161q13 98 -50.5 161t-169.5 65q-28 1 -38 -5t-12 -22l-46 -331q-1 -11 4 -16.5t25 -9t59 -3.5z" />
    <glyph glyph-name="uni042B" unicode="&#x42b;" horiz-adv-x="943" 
d="M24 20q2 12 15.5 20t29.5 20.5t22 35.5q6 15 10 41l60 435q2 11 2 31q-1 19 -8.5 31.5t-16 16.5t-13.5 10t-5 13v5q1 20 51 20h111q26 0 36.5 -4t10.5 -14v-2q-2 -10 -10.5 -17t-19 -11.5t-21.5 -16.5t-16 -31q-4 -11 -8 -31l-11 -78q-1 -3 -1 -5q0 -7 4 -11t12 -4h3
q9 1 30 1q164 0 239 -63.5t75 -151.5q0 -17 -3 -36q-14 -106 -100 -165t-234 -59h-197q-47 0 -47 18v2zM187 56q5 -6 25 -9.5t59 -3.5q206 0 229 163q2 17 2 33q0 76 -57.5 133.5t-164.5 59.5h-7q-21 0 -31 -5.5t-12 -21.5l-47 -333v-3q0 -9 4 -13zM644 21q1 10 10 17
t19 11.5t21.5 16.5t16.5 31q4 9 8 31l62 444q2 11 2 31q-1 19 -8.5 31.5t-16 16.5t-14 10.5t-5.5 14.5v3q1 20 52 20h110q27 0 37 -4t10 -14v-2q-1 -10 -10 -17t-19 -11.5t-21.5 -16.5t-16.5 -31q-4 -11 -8 -31l-62 -444q-2 -10 -2 -31q1 -19 8.5 -31t16 -16.5t14 -11
t5.5 -14.5v-3q-1 -20 -52 -20h-110q-26 0 -36.5 4.5t-10.5 13.5v2z" />
    <glyph glyph-name="uni042C" unicode="&#x42c;" horiz-adv-x="617" 
d="M268 0h-197q-50 0 -47 20q2 12 15.5 20t29.5 20.5t22 35.5q6 15 10 41l60 435q2 11 2 31q-1 19 -8.5 31.5t-16 16.5t-14.5 11t-4 17q1 20 51 20h111q26 0 37 -4t10 -16q-2 -10 -10.5 -17t-19 -11.5t-21.5 -16.5t-16 -31q-4 -11 -8 -31l-11 -78q-2 -10 3 -15.5t15 -4.5
q9 1 30 1q164 0 245.5 -69t65.5 -182q-14 -106 -100 -165t-234 -59zM271 43q206 0 229 163q13 98 -50 161t-170 65q-27 1 -37.5 -5t-12.5 -22l-47 -333q-1 -11 4 -16.5t25 -9t59 -3.5z" />
    <glyph glyph-name="uni042D" unicode="&#x42d;" horiz-adv-x="662" 
d="M225 -8q-77 1 -121 14q-32 8 -49.5 23t-19.5 44q-5 69 -3 95q1 14 7.5 22.5t17.5 7.5q10 -1 14.5 -8.5t13.5 -28.5q50 -120 184 -120q94 0 167 86t98 213q-77 -39 -133 -39q-32 0 -74 25t-66 25q-23 0 -64.5 -20.5t-50.5 -20.5q-22 0 -19 19q2 21 64.5 55.5t105.5 34.5
q25 0 75 -27.5t82 -27.5q42 0 87 24q11 119 -36 199t-153 80q-43 0 -78 -11.5t-64.5 -38.5t-41.5 -41t-38 -49q-11 -15 -15 -20.5t-10.5 -10.5t-13.5 -5q-19 0 -12 35q12 71 34 129q12 31 21.5 42t23.5 11q7 0 19.5 -6t24.5 -6q6 0 58 7t104 7q140 0 217 -98t55 -250
q-22 -160 -134 -265.5t-277 -104.5z" />
    <glyph glyph-name="uni042E" unicode="&#x42e;" horiz-adv-x="1062" 
d="M24 21q2 12 12.5 21t22.5 15.5t24 24.5t16 46l62 444q2 12 2 22q0 16 -5.5 31t-15.5 20t-16.5 12.5t-6.5 16.5v5q1 12 12.5 16t39.5 4h110q26 0 36.5 -4.5t10.5 -13.5v-2q-2 -12 -12.5 -21t-22.5 -15.5t-24 -24.5t-16 -46l-28 -197h122q27 143 138 238t258 95
q138 0 217 -85.5t79 -207.5q0 -180 -112.5 -301t-274.5 -121h-16q-124 3 -210.5 86.5t-86.5 214.5q0 12 2 36h-122l-28 -202q-2 -12 -2 -23q0 -15 5 -30t15 -20t17.5 -13t7.5 -18v-3q-4 -20 -53 -20h-110q-26 0 -36.5 4.5t-10.5 13.5v2zM501 114q62 -71 170 -71
q82 0 144.5 53t93 133.5t30.5 172.5q0 118 -56.5 188t-155.5 70q-124 0 -206 -105.5t-82 -249.5q0 -120 62 -191z" />
    <glyph glyph-name="uni042F" unicode="&#x42f;" horiz-adv-x="651" 
d="M141 0h-108q-40 0 -37 20q1 11 9.5 18t19.5 11.5t28 19t32 36.5l107 162q-59 27 -85.5 75t-18.5 109q15 111 111.5 180t251.5 69h159q50 0 47 -20q-1 -10 -10 -17t-19.5 -11.5t-21.5 -16.5t-16 -31q-5 -11 -9 -41l-61 -435q-2 -10 -2 -31q0 -19 8 -31t17 -16.5
t15.5 -11.5t5.5 -17q-3 -20 -52 -20h-110q-27 0 -38 4.5t-10 15.5q2 10 10 17t18 11.5t21 16.5t17 31q4 9 8 31l12 89q2 15 0 17.5t-17 2.5h-74q-41 0 -76 6l-88 -134q-17 -33 -14.5 -43.5t13 -22t9.5 -20.5q-4 -23 -52 -23zM357 282q40 0 60.5 3.5t27.5 9t8 15.5l45 318
q2 15 -4 19.5t-27 6.5q-20 3 -40 3q-96 0 -159.5 -49.5t-76.5 -137.5q-12 -89 35.5 -138.5t130.5 -49.5z" />
    <glyph glyph-name="uni0430" unicode="&#x430;" horiz-adv-x="601" 
d="M35 168q0 129 75.5 225.5t184.5 96.5q26 0 65.5 -10.5t49.5 -10.5q17 0 40.5 10.5t32.5 10.5q21 0 21 -32v-9l-21 -353v-6q0 -31 18 -31q9 0 23 14t20 14q10 0 10 -10v-4q-4 -30 -32 -55t-64 -25q-37 0 -52.5 21t-15.5 65q0 15 1 32q-32 -53 -82.5 -87t-110.5 -34
q-70 0 -116.5 47t-46.5 131zM163 93q32 -34 76 -34q62 0 111 67t55 163l2 29v12q0 51 -32 83.5t-82 32.5t-88.5 -40.5t-56 -94t-18.5 -106.5q0 -79 33 -112z" />
    <glyph glyph-name="uni0431" unicode="&#x431;" horiz-adv-x="579" 
d="M254 571q-48 -20 -85 -78.5t-40 -150.5q34 69 93 110.5t130 41.5q89 0 141 -56t50 -139q-2 -127 -88 -218t-204 -91q-103 0 -163 79t-39 231q38 276 207 355q49 25 152 31q57 4 79 13q21 7 40 19q13 10 22 7t7 -19q-8 -57 -77 -88q-34 -16 -106 -21.5t-119 -25.5z
M143 206q-2 -74 30 -121.5t91 -47.5q82 0 132.5 78.5t50.5 177.5q0 65 -30 106t-93 41q-77 0 -128 -72.5t-53 -161.5z" />
    <glyph glyph-name="uni0432" unicode="&#x432;" horiz-adv-x="503" 
d="M235 -10q-87 0 -143 55.5t-56 141.5q0 120 87 211.5t202 91.5q62 -1 101 -26.5t39 -74.5q0 -43 -35 -77.5t-87 -45.5q47 -8 76.5 -37t29.5 -71q0 -76 -62 -122t-152 -46zM251 34q40 0 68.5 32.5t28.5 80.5q0 42 -32.5 65.5t-84.5 24.5q-11 0 -17 5.5t-4 12.5q1 9 10 16.5
t22 7.5q60 1 98 30t38 73q0 28 -20.5 47t-53.5 19q-74 0 -124.5 -78.5t-50.5 -166.5q0 -75 29.5 -122t92.5 -47z" />
    <glyph glyph-name="uni0433" unicode="&#x433;" horiz-adv-x="417" 
d="M32 140q8 20 17 33t31.5 30.5t33 25t40.5 25.5t37 22q84 52 84 109v4q-1 18 -16 30t-40 12q-57 0 -125 -51q-8 -6 -16 -6q-5 0 -10 3.5t-5 9.5q0 7 9 19q31 40 78 62t99 22q51 0 84 -24.5t33 -68.5q0 -30 -10.5 -54t-37 -46t-41 -31.5t-52.5 -31.5q-54 -30 -81.5 -56
t-27.5 -64q0 -58 70 -58q65 0 139 56q9 7 16 7t11 -9q2 -4 2 -8q0 -11 -11 -22q-25 -31 -74.5 -60t-113.5 -29q-68 0 -100 31.5t-32 76.5q0 21 9 41z" />
    <glyph glyph-name="uni0434" unicode="&#x434;" horiz-adv-x="537" 
d="M271 697q109 -30 171.5 -118t63.5 -222q0 -95 -28.5 -176.5t-91 -136t-149.5 -54.5q-89 0 -143.5 58.5t-54.5 156.5q0 114 68.5 199t176.5 85q76 -2 119 -55q-14 90 -52.5 141t-107.5 86q-15 7 -13 18q1 10 12.5 16t28.5 2zM251 35q50 0 87 40.5t53 97.5t16 119
q0 66 -28.5 106t-86.5 40q-76 0 -117 -73t-41 -170q0 -68 30 -114t87 -46z" />
    <glyph glyph-name="uni0435" unicode="&#x435;" horiz-adv-x="520" 
d="M58 296q20 51 56.5 94.5t93.5 71.5t122 28q62 0 103 -30t41 -84q0 -60 -47 -105.5t-119 -71.5t-168 -40q12 -45 46.5 -73t82.5 -28q81 0 162 75q10 9 18 9q4 0 8.5 -3t4.5 -9t-5 -15q-24 -45 -85.5 -85t-137.5 -40q-83 0 -140 53.5t-57 151.5q0 49 21 101zM164 207
q100 16 160 56t60 98q0 36 -24 59t-62 23q-66 0 -115.5 -63t-49.5 -152q0 -22 22 -22q4 0 9 1z" />
    <glyph glyph-name="uni0436" unicode="&#x436;" horiz-adv-x="740" 
d="M51 -7q-27 0 -47 10.5t-16 26.5q2 14 19 14q24 1 38.5 16t45.5 73q32 57 62 84t94 38q-29 13 -50 55q-9 16 -16 40.5t-12.5 37.5t-13.5 13q-11 0 -27.5 -14.5t-32.5 -14.5q-17 0 -27.5 14t-6.5 43q4 28 24 44.5t46 16.5q25 0 42.5 -16.5t25 -34.5t18.5 -53t16 -49
q25 -58 67 -58h9q15 0 18 2.5t4 16.5l8 59q2 22 1 32q-1 28 -18 43.5t-15 28.5q3 19 42 19h107q40 0 37 -19q-2 -13 -24.5 -28.5t-31.5 -43.5q-6 -23 -7 -32l-8 -59q-1 -14 1.5 -16.5t16.5 -2.5h9q45 0 88 64q8 13 23 38.5t25.5 41t25 33t31.5 26t37 8.5q25 0 41 -17t12 -44
q-4 -29 -18.5 -43t-31.5 -14q-16 0 -29 14.5t-24 14.5q-8 0 -16.5 -11t-22 -34t-23.5 -37q-36 -50 -71 -63q61 -11 84 -38.5t38 -84.5q16 -59 25.5 -73.5t33.5 -15.5q15 0 15 -14q-1 -16 -24 -26.5t-50 -10.5q-42 0 -59 30.5t-29 93.5q-11 56 -36 88t-59 32q-16 0 -19.5 -3
t-5.5 -18l-11 -93q-2 -21 -1 -31q1 -29 18 -44.5t15 -28.5q-3 -19 -42 -19h-108q-39 0 -36 20q1 10 8 16.5t15.5 10.5t18 15.5t14.5 29.5q3 12 7 31l13 95q1 13 -1.5 16t-16.5 3q-34 0 -68 -32t-61 -88q-29 -63 -55 -93.5t-68 -30.5z" />
    <glyph glyph-name="uni0437" unicode="&#x437;" horiz-adv-x="446" 
d="M192 -10q-60 0 -106.5 21.5t-62.5 58.5q-8 17 5 25t25 -5q44 -46 126 -46q44 0 80 21t43 69q7 44 -28 73.5t-116 31.5q-12 1 -15 10.5t3.5 18.5t17.5 10q66 6 98.5 35.5t37.5 64.5q4 28 -10 48t-47 20q-38 0 -63 -18t-50 -52q-18 -24 -31 -24q-15 0 -8 25q7 39 21 75
q9 22 15.5 30t16.5 8q5 0 14 -4.5t18 -4.5q8 0 35.5 4.5t55.5 4.5q57 0 96 -27.5t32 -81.5q-5 -42 -36 -73t-74 -42q60 -12 86 -47.5t20 -76.5q-11 -73 -69.5 -112.5t-129.5 -39.5z" />
    <glyph glyph-name="uni0438" unicode="&#x438;" horiz-adv-x="617" 
d="M78 448q10 8 45 22q44 18 67 18q11 0 15.5 -6t4.5 -13q0 -2 -1 -5l-38 -265q-3 -23 -4 -35.5t-1 -24.5q0 -8 0.5 -24.5t6.5 -30.5t20.5 -24.5t37.5 -10.5q62 0 121.5 85.5t78.5 203.5l18 111q2 16 23 22l48 14q4 1 7 1q7 0 11.5 -5t4.5 -12v-5l-55 -367q-2 -9 -2 -16
q0 -22 18 -22q10 0 24 14t20 14q10 0 10 -10v-4q-3 -30 -31 -55t-65 -25q-67 0 -67 83q0 23 5 52q-86 -138 -196 -138q-74 0 -102.5 42t-28.5 100q0 22 3 46l25 186q1 7 1 13q0 9 -4 18t-11 12t-13.5 8t-6.5 13q0 11 11 20z" />
    <glyph glyph-name="uni0439" unicode="&#x439;" horiz-adv-x="617" 
d="M78 448q10 8 45 22q44 18 67 18q11 0 15.5 -6t4.5 -13q0 -2 -1 -5l-38 -265q-3 -23 -4 -35.5t-1 -24.5q0 -8 0.5 -24.5t6.5 -30.5t20.5 -24.5t37.5 -10.5q62 0 121.5 85.5t78.5 203.5l18 111q2 16 23 22l48 14q4 1 7 1q7 0 11.5 -5t4.5 -12v-5l-55 -367q-2 -9 -2 -16
q0 -22 18 -22q10 0 24 14t20 14q10 0 10 -10v-4q-3 -30 -31 -55t-65 -25q-67 0 -67 83q0 23 5 52q-86 -138 -196 -138q-74 0 -102.5 42t-28.5 100q0 22 3 46l25 186q1 7 1 13q0 9 -4 18t-11 12t-13.5 8t-6.5 13q0 11 11 20zM203 639q2 14 13 24t26 10q18 0 29 -15.5
t16 -34.5t19 -34.5t37 -15.5t41 15.5t28.5 34.5t26 34.5t33.5 15.5q14 0 21 -9t7 -20v-5q-7 -45 -54 -75t-109 -30q-63 0 -99 28t-36 65q0 6 1 12z" />
    <glyph glyph-name="uni043A" unicode="&#x43a;" horiz-adv-x="537" 
d="M416 -7q-22 0 -37.5 8.5t-26.5 29t-16 36.5t-14 50q-16 60 -44 90t-80 30q-13 0 -17.5 -3t-5.5 -13l-12 -98q-2 -21 -1 -31q1 -29 18 -44.5t15 -28.5q-3 -19 -42 -19h-107q-40 0 -37 20q1 10 8 16.5t15.5 10.5t18 15.5t14.5 29.5q6 20 7 31l31 234q2 22 1 32
q-1 28 -18 43.5t-15 28.5q3 19 42 19h107q40 0 37 -19q-2 -13 -24.5 -28.5t-31.5 -43.5q-6 -23 -7 -32l-7 -59q-2 -13 1 -16t16 -3h9q36 0 66 21.5t51 52.5t40.5 62.5t45 53t55.5 21.5q25 0 40.5 -17t11.5 -44q-4 -29 -18.5 -43t-30.5 -14t-29 14.5t-24 14.5
q-12 0 -28.5 -25.5t-43.5 -61.5t-60 -55q30 -5 50 -15t33 -27t19 -31t15 -41q1 -4 2 -6.5t2 -5.5q20 -59 30.5 -73.5t34.5 -15.5q14 0 14 -14q-1 -16 -23.5 -26.5t-49.5 -10.5z" />
    <glyph glyph-name="uni043B" unicode="&#x43b;" horiz-adv-x="597" 
d="M50 -10q-24 0 -43.5 13.5t-15.5 43.5q4 21 17.5 34.5t28.5 13.5q12 0 19.5 -6t9.5 -13.5t7 -13.5t13 -6q38 0 73.5 105.5t48.5 201.5q4 23 1.5 33.5t-14.5 16.5q-25 11 -25 26q0 18 32 26.5t116 13.5q31 2 185 2q40 0 38 -19q-2 -11 -21 -30.5t-23 -47.5l-42 -288
q-5 -37 21 -37q10 0 24.5 14t19.5 14q12 0 10 -14q-3 -30 -31 -55t-65 -25q-40 0 -58 26.5t-11 70.5l44 305q3 25 -11 34.5t-54 6.5q-35 -2 -46.5 -4t-22 -10.5t-14.5 -27.5q-37 -184 -63 -253q-24 -66 -54 -101q-36 -50 -94 -50z" />
    <glyph glyph-name="uni043C" unicode="&#x43c;" horiz-adv-x="749" 
d="M50 -10q-24 0 -43.5 13.5t-15.5 43.5q4 21 17.5 34.5t28.5 13.5q12 0 19.5 -6t9.5 -13.5t7 -13.5t13 -6q38 0 72 104.5t50 208.5q3 25 -15 35q-9 4 -12 5.5t-7 6t-4 11.5q3 20 41 35q55 21 94 21q15 0 18 -16q49 -286 58 -329l172 307q12 21 27 27q25 10 56 11
q20 2 18 -29l-30 -357q-5 -38 20 -38q10 0 24.5 14t19.5 14q12 0 10 -14q-3 -30 -31 -55t-65 -25q-77 0 -69 98l20 267l-163 -296q-12 -22 -36 -28q-17 -5 -30.5 -2t-16.5 18q-23 108 -55 307q-1 -4 -6.5 -32t-8 -40t-9.5 -41.5t-12.5 -46.5t-14 -43t-17 -44t-19.5 -37
t-23 -33q-36 -50 -92 -50z" />
    <glyph glyph-name="uni043D" unicode="&#x43d;" horiz-adv-x="613" 
d="M552 87q11 0 11 -14q-4 -30 -32 -55t-65 -25q-40 0 -57.5 26.5t-11.5 71.5l19 133h-240l-28 -202q-3 -19 -21 -22l-52 -11q-11 -2 -17 4t-5 17l49 349q2 18 -2.5 30t-11.5 16t-13.5 10t-6.5 14q0 11 11 19.5t45 21.5q43 16 67 16t19 -22l-28 -197h240l26 188q3 19 21 22
l50 11q11 2 17.5 -3.5t4.5 -16.5l-54 -372q-5 -37 21 -37q10 0 24.5 14t19.5 14z" />
    <glyph glyph-name="uni043E" unicode="&#x43e;" horiz-adv-x="569" 
d="M123 401q86 89 203 89q95 0 150 -57.5t55 -140.5q0 -126 -82.5 -214t-200.5 -88q-94 0 -152.5 57t-58.5 146q0 119 86 208zM167 84q31 -48 96 -48q75 0 120 75.5t45 170.5q0 71 -27 117t-88 46q-80 0 -128.5 -74.5t-49.5 -163.5q1 -76 32 -123z" />
    <glyph glyph-name="uni043F" unicode="&#x43f;" horiz-adv-x="622" 
d="M51 13l50 346q1 7 1 13q0 10 -4 19.5t-11 13.5t-13.5 9.5t-6.5 13.5q0 11 10.5 18.5t45.5 23.5q37 16 60 16q19 0 19 -17v-5l-20 -134q40 74 94.5 115.5t117.5 41.5q62 0 90.5 -40.5t28.5 -109.5v-18l-12 -223v-7q0 -30 16 -30q10 0 24.5 14t19.5 14q10 0 10 -10v-4
q-3 -30 -31 -55t-65 -25q-66 0 -66 81q0 8 1 17l12 222v13q0 95 -69 95q-61 0 -116.5 -82.5t-75.5 -201.5l-19 -109q-3 -18 -19 -22l-51 -13q-4 -1 -7 -1q-6 0 -10 4t-4 13v4z" />
    </font>
</defs>
</svg>
